M48
; DRILL file {KiCad (5.1.6)-1} date 07/25/20 18:11:17
; FORMAT={-:-/ absolute / metric / decimal}
; #@! TF.CreationDate,2020-07-25T18:11:17+02:00
; #@! TF.GenerationSoftware,Kicad,Pcbnew,(5.1.6)-1
; #@! TF.FileFunction,Plated,1,4,PTH
FMAT,2
METRIC
T1C0.200
T2C0.250
T3C0.300
T4C0.400
T5C0.800
T6C0.900
T7C0.920
T8C1.350
T9C1.500
%
G90
G05
T1
X120.828Y-72.492
X121.514Y-70.663
X126.136Y-75.362
X126.136Y-83.439
X126.289Y-74.168
X127.305Y-83.439
X127.584Y-76.454
X127.584Y-77.292
X128.397Y-80.696
X128.702Y-77.521
X129.743Y-80.315
X129.743Y-81.115
X130.556Y-77.114
X130.556Y-78.715
X131.343Y-77.914
X131.343Y-79.527
X132.131Y-76.314
X132.156Y-77.927
X132.156Y-81.102
X132.944Y-76.314
X132.944Y-80.315
X133.731Y-75.514
X133.731Y-77.927
X133.731Y-81.102
X134.544Y-75.514
X134.544Y-79.502
X134.544Y-80.315
X135.357Y-75.514
X135.407Y-79.578
X136.042Y-76.314
X136.144Y-81.915
X137.135Y-76.708
X139.781Y-80.543
X140.431Y-80.543
T2
X137.888Y-79.983
X137.888Y-80.683
X163.175Y-72.466
X163.875Y-72.466
T3
X112.42Y-64.694
X113.754Y-61.798
X114.617Y-73.711
X114.732Y-84.633
X114.833Y-62.522
X117.219Y-84.94
X119.659Y-82.652
X119.659Y-88.367
X119.863Y-91.44
X120.002Y-67.234
X120.244Y-68.478
X120.358Y-73.647
X121.361Y-74.422
X122.352Y-87.655
X122.352Y-90.144
X122.441Y-69.952
X122.441Y-73.647
X124.841Y-74.6
X128.702Y-73.279
X128.753Y-68.961
X129.87Y-83.007
X129.896Y-67.742
X130.124Y-73.279
X130.962Y-68.961
X131.064Y-86.589
X132.245Y-57.175
X132.842Y-72.212
X132.842Y-72.949
X133.452Y-94.818
X134.277Y-84.709
X135.395Y-59.538
X135.992Y-94.234
X136.131Y-59.538
X136.817Y-59.538
X136.957Y-83.16
X137.058Y-74.219
X137.795Y-68.682
X137.82Y-70.307
X138.379Y-58.509
X138.379Y-59.106
X138.379Y-59.703
X138.735Y-67.513
X138.735Y-69.875
X139.052Y-58.509
X139.052Y-59.106
X139.052Y-59.703
X140.614Y-67.513
X140.614Y-69.875
X141.008Y-74.498
X141.58Y-68.682
X141.834Y-75.324
X144.196Y-74.397
X144.653Y-82.017
X145.885Y-78.041
X145.999Y-74.27
X146.418Y-57.201
X147.726Y-82.575
X149.377Y-79.756
X149.377Y-80.518
X149.377Y-81.255
X149.542Y-59.538
X150.139Y-79.756
X150.139Y-80.518
X150.139Y-81.255
X150.279Y-59.538
X150.8Y-67.335
X150.876Y-79.756
X150.876Y-80.518
X150.876Y-81.255
X150.927Y-77.165
X150.965Y-59.538
X152.552Y-58.534
X152.552Y-59.131
X152.552Y-59.715
X152.73Y-66.192
X152.73Y-66.954
X152.883Y-87.719
X153.086Y-82.575
X153.238Y-58.534
X153.238Y-59.131
X153.238Y-59.728
X153.708Y-86.893
X155.042Y-92.685
X156.032Y-83.49
X159.41Y-86.97
T4
X90.233Y-53.162
X90.233Y-55.499
X90.233Y-57.81
X90.233Y-60.147
X90.233Y-62.508
X90.233Y-64.808
X90.233Y-67.108
X90.233Y-69.408
X90.233Y-71.708
X90.233Y-74.008
X90.233Y-76.308
X90.233Y-78.608
X90.233Y-80.908
X90.233Y-83.208
X90.233Y-85.508
X90.233Y-87.808
X90.233Y-90.108
X90.233Y-92.408
X90.233Y-94.708
X90.233Y-97.008
X90.233Y-99.308
X90.233Y-101.676
X92.558Y-53.162
X92.558Y-101.676
X94.818Y-53.162
X94.818Y-101.676
X97.079Y-53.162
X97.079Y-101.676
X99.39Y-53.162
X99.39Y-101.676
X101.524Y-53.137
X101.524Y-101.676
X103.683Y-53.137
X103.683Y-101.676
X105.232Y-80.391
X105.816Y-101.676
X105.893Y-53.137
X106.68Y-70.383
X107.34Y-80.442
X107.925Y-101.676
X107.998Y-76.532
X108.031Y-65.489
X108.102Y-53.137
X108.661Y-79.807
X109.296Y-75.895
X109.944Y-74.32
X110.033Y-101.676
X110.287Y-53.137
X110.973Y-90.17
X110.973Y-91.44
X111.341Y-87.528
X111.341Y-95.377
X111.392Y-68.351
X111.417Y-74.295
X111.823Y-78.003
X112.116Y-101.676
X112.382Y-95.377
X112.408Y-87.528
X112.42Y-53.137
X113.005Y-81.229
X113.398Y-66.396
X113.398Y-68.529
X113.449Y-87.528
X113.449Y-95.377
X113.602Y-72.288
X114.339Y-101.676
X114.503Y-53.137
X115.887Y-65.735
X115.964Y-63.678
X116.014Y-67.462
X116.014Y-74.701
X116.268Y-70.002
X116.268Y-71.018
X116.268Y-72.034
X116.559Y-101.676
X116.611Y-53.137
X117.284Y-70.002
X117.284Y-71.018
X117.284Y-72.034
X118.3Y-70.002
X118.3Y-71.018
X118.3Y-72.034
X118.529Y-67.462
X118.779Y-53.137
X118.779Y-101.676
X119.062Y-74.701
X120.307Y-64.973
X120.999Y-53.137
X120.999Y-101.676
X121.679Y-67.996
X121.78Y-66.421
X121.882Y-62.865
X121.882Y-64.973
X123.219Y-53.137
X123.219Y-101.676
X123.888Y-66.396
X125.439Y-53.137
X125.439Y-101.676
X127.659Y-53.137
X127.659Y-101.676
X129.879Y-53.137
X129.879Y-101.676
X130.912Y-94.234
X132.099Y-53.137
X132.099Y-101.676
X134.319Y-53.137
X134.319Y-101.676
X136.539Y-53.137
X136.539Y-101.676
X138.532Y-94.844
X138.759Y-53.137
X138.759Y-101.676
X140.36Y-55.766
X140.36Y-57.137
X140.979Y-53.137
X140.979Y-101.676
X141.453Y-55.766
X142.545Y-55.766
X142.57Y-87.249
X142.57Y-88.697
X143.199Y-53.137
X143.199Y-101.676
X143.637Y-55.766
X143.637Y-57.137
X145.288Y-71.996
X145.419Y-53.137
X145.419Y-101.676
X145.669Y-88.951
X146.342Y-71.996
X146.66Y-88.951
X147.383Y-71.996
X147.639Y-53.137
X147.639Y-101.676
X147.65Y-88.951
X148.006Y-97.257
X148.057Y-94.259
X148.057Y-95.174
X148.971Y-94.259
X148.971Y-95.174
X149.758Y-91.77
X149.859Y-53.137
X149.859Y-101.676
X149.86Y-98.247
X150.99Y-75.006
X152.079Y-53.137
X152.079Y-101.676
X152.883Y-76.352
X153.137Y-64.541
X154.299Y-53.137
X154.299Y-101.676
X154.445Y-96.329
X154.584Y-74.778
X156.261Y-89.408
X156.515Y-69.825
X156.515Y-70.79
X156.519Y-53.137
X156.519Y-101.676
X157.475Y-70.795
X157.48Y-69.825
X158.598Y-84.023
X158.739Y-53.137
X158.739Y-101.676
X158.928Y-56.49
X159.766Y-90.729
X159.817Y-85.268
X160.02Y-55.423
X160.477Y-98.196
X160.655Y-90.729
X160.959Y-53.137
X160.959Y-101.676
X161.138Y-56.49
X161.544Y-90.729
X163.179Y-53.137
X163.179Y-101.676
X164.922Y-85.725
X165.399Y-53.137
X165.399Y-101.676
X166.878Y-67.386
X167.619Y-53.137
X167.619Y-101.676
X168.986Y-67.386
X169.839Y-53.137
X169.839Y-101.676
X170.002Y-74.473
X170.002Y-76.657
X172.148Y-53.137
X172.148Y-55.381
X172.148Y-57.626
X172.148Y-59.871
X172.148Y-62.115
X172.148Y-64.36
X172.148Y-101.676
X172.148Y-66.675
X172.148Y-69.012
X172.148Y-73.508
X172.148Y-75.514
X172.148Y-77.521
X172.148Y-79.54
X172.148Y-83.947
X172.148Y-86.157
X172.148Y-88.398
X172.148Y-90.618
X172.148Y-92.839
X172.148Y-95.059
X172.148Y-97.279
X172.148Y-99.499
T6
X169.672Y-85.725
X169.672Y-88.265
T7
X156.89Y-61.747
X158.89Y-61.747
X160.89Y-61.747
X162.89Y-61.747
T8
X156.62Y-59.027
X156.62Y-64.467
X163.62Y-59.027
X163.62Y-64.467
T9
X93.993Y-91.059
X93.993Y-96.139
X96.533Y-93.599
X99.073Y-91.059
X99.073Y-96.139
X93.993Y-74.879
X93.993Y-79.959
X96.533Y-77.419
X99.073Y-74.879
X99.073Y-79.959
X93.967Y-58.699
X93.967Y-63.779
X96.507Y-61.239
X99.047Y-58.699
X99.047Y-63.779
T5
G00X161.696Y-96.118
M15
G01X161.696Y-93.518
M16
G05
G00X165.997Y-90.018
M15
G01X163.797Y-90.018
M16
G05
G00X167.894Y-95.918
M15
G01X167.894Y-93.718
M16
G05
T0
M30
