G04 #@! TF.GenerationSoftware,KiCad,Pcbnew,(5.1.6)-1*
G04 #@! TF.CreationDate,2020-07-25T18:11:15+02:00*
G04 #@! TF.ProjectId,PrecisionTimer_RevF,50726563-6973-4696-9f6e-54696d65725f,rev?*
G04 #@! TF.SameCoordinates,Original*
G04 #@! TF.FileFunction,Copper,L4,Bot*
G04 #@! TF.FilePolarity,Positive*
%FSLAX46Y46*%
G04 Gerber Fmt 4.6, Leading zero omitted, Abs format (unit mm)*
G04 Created by KiCad (PCBNEW (5.1.6)-1) date 2020-07-25 18:11:15*
%MOMM*%
%LPD*%
G01*
G04 APERTURE LIST*
G04 #@! TA.AperFunction,NonConductor*
%ADD10C,0.300000*%
G04 #@! TD*
G04 #@! TA.AperFunction,SMDPad,CuDef*
%ADD11C,0.700000*%
G04 #@! TD*
G04 #@! TA.AperFunction,SMDPad,CuDef*
%ADD12R,1.000000X0.700000*%
G04 #@! TD*
G04 #@! TA.AperFunction,SMDPad,CuDef*
%ADD13R,0.900000X1.400000*%
G04 #@! TD*
G04 #@! TA.AperFunction,SMDPad,CuDef*
%ADD14R,0.700000X1.000000*%
G04 #@! TD*
G04 #@! TA.AperFunction,SMDPad,CuDef*
%ADD15R,1.200000X1.450000*%
G04 #@! TD*
G04 #@! TA.AperFunction,SMDPad,CuDef*
%ADD16R,1.200000X1.150000*%
G04 #@! TD*
G04 #@! TA.AperFunction,SMDPad,CuDef*
%ADD17R,0.450000X1.400000*%
G04 #@! TD*
G04 #@! TA.AperFunction,SMDPad,CuDef*
%ADD18R,0.900000X0.800000*%
G04 #@! TD*
G04 #@! TA.AperFunction,SMDPad,CuDef*
%ADD19C,1.000000*%
G04 #@! TD*
G04 #@! TA.AperFunction,ComponentPad*
%ADD20R,1.800000X4.400000*%
G04 #@! TD*
G04 #@! TA.AperFunction,ComponentPad*
%ADD21O,1.800000X4.000000*%
G04 #@! TD*
G04 #@! TA.AperFunction,ComponentPad*
%ADD22O,4.000000X1.800000*%
G04 #@! TD*
G04 #@! TA.AperFunction,ComponentPad*
%ADD23C,1.800000*%
G04 #@! TD*
G04 #@! TA.AperFunction,ComponentPad*
%ADD24C,2.025000*%
G04 #@! TD*
G04 #@! TA.AperFunction,ComponentPad*
%ADD25C,1.431000*%
G04 #@! TD*
G04 #@! TA.AperFunction,SMDPad,CuDef*
%ADD26R,1.800000X1.800000*%
G04 #@! TD*
G04 #@! TA.AperFunction,SMDPad,CuDef*
%ADD27R,0.750000X0.300000*%
G04 #@! TD*
G04 #@! TA.AperFunction,SMDPad,CuDef*
%ADD28R,0.300000X0.750000*%
G04 #@! TD*
G04 #@! TA.AperFunction,ComponentPad*
%ADD29C,2.250000*%
G04 #@! TD*
G04 #@! TA.AperFunction,ViaPad*
%ADD30C,0.600000*%
G04 #@! TD*
G04 #@! TA.AperFunction,ViaPad*
%ADD31C,0.500000*%
G04 #@! TD*
G04 #@! TA.AperFunction,ViaPad*
%ADD32C,0.800000*%
G04 #@! TD*
G04 #@! TA.AperFunction,ViaPad*
%ADD33C,0.450000*%
G04 #@! TD*
G04 #@! TA.AperFunction,Conductor*
%ADD34C,0.500000*%
G04 #@! TD*
G04 #@! TA.AperFunction,Conductor*
%ADD35C,0.250000*%
G04 #@! TD*
G04 #@! TA.AperFunction,Conductor*
%ADD36C,0.300000*%
G04 #@! TD*
G04 #@! TA.AperFunction,Conductor*
%ADD37C,0.350000*%
G04 #@! TD*
G04 #@! TA.AperFunction,Conductor*
%ADD38C,0.200000*%
G04 #@! TD*
G04 #@! TA.AperFunction,Conductor*
%ADD39C,1.000000*%
G04 #@! TD*
G04 #@! TA.AperFunction,Conductor*
%ADD40C,0.400000*%
G04 #@! TD*
G04 #@! TA.AperFunction,Conductor*
%ADD41C,0.254000*%
G04 #@! TD*
G04 #@! TA.AperFunction,Conductor*
%ADD42C,0.025400*%
G04 #@! TD*
G04 APERTURE END LIST*
D10*
X114865114Y-56142771D02*
X114865114Y-57142771D01*
X114507971Y-55571342D02*
X114150828Y-56642771D01*
X115079400Y-56642771D01*
G04 #@! TA.AperFunction,SMDPad,CuDef*
G36*
G01*
X130718850Y-82277700D02*
X131231350Y-82277700D01*
G75*
G02*
X131450100Y-82496450I0J-218750D01*
G01*
X131450100Y-82933950D01*
G75*
G02*
X131231350Y-83152700I-218750J0D01*
G01*
X130718850Y-83152700D01*
G75*
G02*
X130500100Y-82933950I0J218750D01*
G01*
X130500100Y-82496450D01*
G75*
G02*
X130718850Y-82277700I218750J0D01*
G01*
G37*
G04 #@! TD.AperFunction*
G04 #@! TA.AperFunction,SMDPad,CuDef*
G36*
G01*
X130718850Y-80702700D02*
X131231350Y-80702700D01*
G75*
G02*
X131450100Y-80921450I0J-218750D01*
G01*
X131450100Y-81358950D01*
G75*
G02*
X131231350Y-81577700I-218750J0D01*
G01*
X130718850Y-81577700D01*
G75*
G02*
X130500100Y-81358950I0J218750D01*
G01*
X130500100Y-80921450D01*
G75*
G02*
X130718850Y-80702700I218750J0D01*
G01*
G37*
G04 #@! TD.AperFunction*
G04 #@! TA.AperFunction,SMDPad,CuDef*
G36*
G01*
X132979450Y-84271600D02*
X133491950Y-84271600D01*
G75*
G02*
X133710700Y-84490350I0J-218750D01*
G01*
X133710700Y-84927850D01*
G75*
G02*
X133491950Y-85146600I-218750J0D01*
G01*
X132979450Y-85146600D01*
G75*
G02*
X132760700Y-84927850I0J218750D01*
G01*
X132760700Y-84490350D01*
G75*
G02*
X132979450Y-84271600I218750J0D01*
G01*
G37*
G04 #@! TD.AperFunction*
G04 #@! TA.AperFunction,SMDPad,CuDef*
G36*
G01*
X132979450Y-82696600D02*
X133491950Y-82696600D01*
G75*
G02*
X133710700Y-82915350I0J-218750D01*
G01*
X133710700Y-83352850D01*
G75*
G02*
X133491950Y-83571600I-218750J0D01*
G01*
X132979450Y-83571600D01*
G75*
G02*
X132760700Y-83352850I0J218750D01*
G01*
X132760700Y-82915350D01*
G75*
G02*
X132979450Y-82696600I218750J0D01*
G01*
G37*
G04 #@! TD.AperFunction*
D11*
X145592800Y-95707200D03*
D12*
X168619800Y-72267800D03*
X168619800Y-73367800D03*
X168619800Y-74467800D03*
X168619800Y-75567800D03*
X168619800Y-76667800D03*
X168619800Y-77767800D03*
X168619800Y-78867800D03*
X168619800Y-79967800D03*
D13*
X172409800Y-81617800D03*
D14*
X171259800Y-81817800D03*
D15*
X170109800Y-81592800D03*
D16*
X172259800Y-71192800D03*
X169669800Y-71192800D03*
G04 #@! TA.AperFunction,SMDPad,CuDef*
G36*
G01*
X113619800Y-85570350D02*
X113619800Y-86082850D01*
G75*
G02*
X113401050Y-86301600I-218750J0D01*
G01*
X112963550Y-86301600D01*
G75*
G02*
X112744800Y-86082850I0J218750D01*
G01*
X112744800Y-85570350D01*
G75*
G02*
X112963550Y-85351600I218750J0D01*
G01*
X113401050Y-85351600D01*
G75*
G02*
X113619800Y-85570350I0J-218750D01*
G01*
G37*
G04 #@! TD.AperFunction*
G04 #@! TA.AperFunction,SMDPad,CuDef*
G36*
G01*
X115194800Y-85570350D02*
X115194800Y-86082850D01*
G75*
G02*
X114976050Y-86301600I-218750J0D01*
G01*
X114538550Y-86301600D01*
G75*
G02*
X114319800Y-86082850I0J218750D01*
G01*
X114319800Y-85570350D01*
G75*
G02*
X114538550Y-85351600I218750J0D01*
G01*
X114976050Y-85351600D01*
G75*
G02*
X115194800Y-85570350I0J-218750D01*
G01*
G37*
G04 #@! TD.AperFunction*
G04 #@! TA.AperFunction,SMDPad,CuDef*
G36*
G01*
X121914400Y-91696250D02*
X121914400Y-91183750D01*
G75*
G02*
X122133150Y-90965000I218750J0D01*
G01*
X122570650Y-90965000D01*
G75*
G02*
X122789400Y-91183750I0J-218750D01*
G01*
X122789400Y-91696250D01*
G75*
G02*
X122570650Y-91915000I-218750J0D01*
G01*
X122133150Y-91915000D01*
G75*
G02*
X121914400Y-91696250I0J218750D01*
G01*
G37*
G04 #@! TD.AperFunction*
G04 #@! TA.AperFunction,SMDPad,CuDef*
G36*
G01*
X120339400Y-91696250D02*
X120339400Y-91183750D01*
G75*
G02*
X120558150Y-90965000I218750J0D01*
G01*
X120995650Y-90965000D01*
G75*
G02*
X121214400Y-91183750I0J-218750D01*
G01*
X121214400Y-91696250D01*
G75*
G02*
X120995650Y-91915000I-218750J0D01*
G01*
X120558150Y-91915000D01*
G75*
G02*
X120339400Y-91696250I0J218750D01*
G01*
G37*
G04 #@! TD.AperFunction*
G04 #@! TA.AperFunction,SMDPad,CuDef*
G36*
G01*
X121914400Y-89156250D02*
X121914400Y-88643750D01*
G75*
G02*
X122133150Y-88425000I218750J0D01*
G01*
X122570650Y-88425000D01*
G75*
G02*
X122789400Y-88643750I0J-218750D01*
G01*
X122789400Y-89156250D01*
G75*
G02*
X122570650Y-89375000I-218750J0D01*
G01*
X122133150Y-89375000D01*
G75*
G02*
X121914400Y-89156250I0J218750D01*
G01*
G37*
G04 #@! TD.AperFunction*
G04 #@! TA.AperFunction,SMDPad,CuDef*
G36*
G01*
X120339400Y-89156250D02*
X120339400Y-88643750D01*
G75*
G02*
X120558150Y-88425000I218750J0D01*
G01*
X120995650Y-88425000D01*
G75*
G02*
X121214400Y-88643750I0J-218750D01*
G01*
X121214400Y-89156250D01*
G75*
G02*
X120995650Y-89375000I-218750J0D01*
G01*
X120558150Y-89375000D01*
G75*
G02*
X120339400Y-89156250I0J218750D01*
G01*
G37*
G04 #@! TD.AperFunction*
G04 #@! TA.AperFunction,SMDPad,CuDef*
G36*
G01*
X122095550Y-86075000D02*
X122608050Y-86075000D01*
G75*
G02*
X122826800Y-86293750I0J-218750D01*
G01*
X122826800Y-86731250D01*
G75*
G02*
X122608050Y-86950000I-218750J0D01*
G01*
X122095550Y-86950000D01*
G75*
G02*
X121876800Y-86731250I0J218750D01*
G01*
X121876800Y-86293750D01*
G75*
G02*
X122095550Y-86075000I218750J0D01*
G01*
G37*
G04 #@! TD.AperFunction*
G04 #@! TA.AperFunction,SMDPad,CuDef*
G36*
G01*
X122095550Y-84500000D02*
X122608050Y-84500000D01*
G75*
G02*
X122826800Y-84718750I0J-218750D01*
G01*
X122826800Y-85156250D01*
G75*
G02*
X122608050Y-85375000I-218750J0D01*
G01*
X122095550Y-85375000D01*
G75*
G02*
X121876800Y-85156250I0J218750D01*
G01*
X121876800Y-84718750D01*
G75*
G02*
X122095550Y-84500000I218750J0D01*
G01*
G37*
G04 #@! TD.AperFunction*
G04 #@! TA.AperFunction,SMDPad,CuDef*
G36*
G01*
X134974650Y-73133800D02*
X134062150Y-73133800D01*
G75*
G02*
X133818400Y-72890050I0J243750D01*
G01*
X133818400Y-72402550D01*
G75*
G02*
X134062150Y-72158800I243750J0D01*
G01*
X134974650Y-72158800D01*
G75*
G02*
X135218400Y-72402550I0J-243750D01*
G01*
X135218400Y-72890050D01*
G75*
G02*
X134974650Y-73133800I-243750J0D01*
G01*
G37*
G04 #@! TD.AperFunction*
G04 #@! TA.AperFunction,SMDPad,CuDef*
G36*
G01*
X134974650Y-75008800D02*
X134062150Y-75008800D01*
G75*
G02*
X133818400Y-74765050I0J243750D01*
G01*
X133818400Y-74277550D01*
G75*
G02*
X134062150Y-74033800I243750J0D01*
G01*
X134974650Y-74033800D01*
G75*
G02*
X135218400Y-74277550I0J-243750D01*
G01*
X135218400Y-74765050D01*
G75*
G02*
X134974650Y-75008800I-243750J0D01*
G01*
G37*
G04 #@! TD.AperFunction*
G04 #@! TA.AperFunction,SMDPad,CuDef*
G36*
G01*
X136501850Y-73081400D02*
X135989350Y-73081400D01*
G75*
G02*
X135770600Y-72862650I0J218750D01*
G01*
X135770600Y-72425150D01*
G75*
G02*
X135989350Y-72206400I218750J0D01*
G01*
X136501850Y-72206400D01*
G75*
G02*
X136720600Y-72425150I0J-218750D01*
G01*
X136720600Y-72862650D01*
G75*
G02*
X136501850Y-73081400I-218750J0D01*
G01*
G37*
G04 #@! TD.AperFunction*
G04 #@! TA.AperFunction,SMDPad,CuDef*
G36*
G01*
X136501850Y-74656400D02*
X135989350Y-74656400D01*
G75*
G02*
X135770600Y-74437650I0J218750D01*
G01*
X135770600Y-74000150D01*
G75*
G02*
X135989350Y-73781400I218750J0D01*
G01*
X136501850Y-73781400D01*
G75*
G02*
X136720600Y-74000150I0J-218750D01*
G01*
X136720600Y-74437650D01*
G75*
G02*
X136501850Y-74656400I-218750J0D01*
G01*
G37*
G04 #@! TD.AperFunction*
G04 #@! TA.AperFunction,SMDPad,CuDef*
G36*
G01*
X136708400Y-70914550D02*
X136708400Y-71427050D01*
G75*
G02*
X136489650Y-71645800I-218750J0D01*
G01*
X136052150Y-71645800D01*
G75*
G02*
X135833400Y-71427050I0J218750D01*
G01*
X135833400Y-70914550D01*
G75*
G02*
X136052150Y-70695800I218750J0D01*
G01*
X136489650Y-70695800D01*
G75*
G02*
X136708400Y-70914550I0J-218750D01*
G01*
G37*
G04 #@! TD.AperFunction*
G04 #@! TA.AperFunction,SMDPad,CuDef*
G36*
G01*
X138283400Y-70914550D02*
X138283400Y-71427050D01*
G75*
G02*
X138064650Y-71645800I-218750J0D01*
G01*
X137627150Y-71645800D01*
G75*
G02*
X137408400Y-71427050I0J218750D01*
G01*
X137408400Y-70914550D01*
G75*
G02*
X137627150Y-70695800I218750J0D01*
G01*
X138064650Y-70695800D01*
G75*
G02*
X138283400Y-70914550I0J-218750D01*
G01*
G37*
G04 #@! TD.AperFunction*
G04 #@! TA.AperFunction,SMDPad,CuDef*
G36*
G01*
X142999750Y-73933800D02*
X143512250Y-73933800D01*
G75*
G02*
X143731000Y-74152550I0J-218750D01*
G01*
X143731000Y-74590050D01*
G75*
G02*
X143512250Y-74808800I-218750J0D01*
G01*
X142999750Y-74808800D01*
G75*
G02*
X142781000Y-74590050I0J218750D01*
G01*
X142781000Y-74152550D01*
G75*
G02*
X142999750Y-73933800I218750J0D01*
G01*
G37*
G04 #@! TD.AperFunction*
G04 #@! TA.AperFunction,SMDPad,CuDef*
G36*
G01*
X142999750Y-72358800D02*
X143512250Y-72358800D01*
G75*
G02*
X143731000Y-72577550I0J-218750D01*
G01*
X143731000Y-73015050D01*
G75*
G02*
X143512250Y-73233800I-218750J0D01*
G01*
X142999750Y-73233800D01*
G75*
G02*
X142781000Y-73015050I0J218750D01*
G01*
X142781000Y-72577550D01*
G75*
G02*
X142999750Y-72358800I218750J0D01*
G01*
G37*
G04 #@! TD.AperFunction*
G04 #@! TA.AperFunction,SMDPad,CuDef*
G36*
G01*
X140124600Y-69137850D02*
X140124600Y-68225350D01*
G75*
G02*
X140368350Y-67981600I243750J0D01*
G01*
X140855850Y-67981600D01*
G75*
G02*
X141099600Y-68225350I0J-243750D01*
G01*
X141099600Y-69137850D01*
G75*
G02*
X140855850Y-69381600I-243750J0D01*
G01*
X140368350Y-69381600D01*
G75*
G02*
X140124600Y-69137850I0J243750D01*
G01*
G37*
G04 #@! TD.AperFunction*
G04 #@! TA.AperFunction,SMDPad,CuDef*
G36*
G01*
X138249600Y-69137850D02*
X138249600Y-68225350D01*
G75*
G02*
X138493350Y-67981600I243750J0D01*
G01*
X138980850Y-67981600D01*
G75*
G02*
X139224600Y-68225350I0J-243750D01*
G01*
X139224600Y-69137850D01*
G75*
G02*
X138980850Y-69381600I-243750J0D01*
G01*
X138493350Y-69381600D01*
G75*
G02*
X138249600Y-69137850I0J243750D01*
G01*
G37*
G04 #@! TD.AperFunction*
G04 #@! TA.AperFunction,SMDPad,CuDef*
G36*
G01*
X128958050Y-74656200D02*
X128445550Y-74656200D01*
G75*
G02*
X128226800Y-74437450I0J218750D01*
G01*
X128226800Y-73999950D01*
G75*
G02*
X128445550Y-73781200I218750J0D01*
G01*
X128958050Y-73781200D01*
G75*
G02*
X129176800Y-73999950I0J-218750D01*
G01*
X129176800Y-74437450D01*
G75*
G02*
X128958050Y-74656200I-218750J0D01*
G01*
G37*
G04 #@! TD.AperFunction*
G04 #@! TA.AperFunction,SMDPad,CuDef*
G36*
G01*
X128958050Y-76231200D02*
X128445550Y-76231200D01*
G75*
G02*
X128226800Y-76012450I0J218750D01*
G01*
X128226800Y-75574950D01*
G75*
G02*
X128445550Y-75356200I218750J0D01*
G01*
X128958050Y-75356200D01*
G75*
G02*
X129176800Y-75574950I0J-218750D01*
G01*
X129176800Y-76012450D01*
G75*
G02*
X128958050Y-76231200I-218750J0D01*
G01*
G37*
G04 #@! TD.AperFunction*
D17*
X156346800Y-93888200D03*
X155696800Y-93888200D03*
X155046800Y-93888200D03*
X154396800Y-93888200D03*
X154396800Y-98288200D03*
X155046800Y-98288200D03*
X155696800Y-98288200D03*
X156346800Y-98288200D03*
D18*
X158943800Y-88595200D03*
X160943800Y-89545200D03*
X160943800Y-87645200D03*
G04 #@! TA.AperFunction,SMDPad,CuDef*
G36*
G01*
X137614950Y-73781400D02*
X138127450Y-73781400D01*
G75*
G02*
X138346200Y-74000150I0J-218750D01*
G01*
X138346200Y-74437650D01*
G75*
G02*
X138127450Y-74656400I-218750J0D01*
G01*
X137614950Y-74656400D01*
G75*
G02*
X137396200Y-74437650I0J218750D01*
G01*
X137396200Y-74000150D01*
G75*
G02*
X137614950Y-73781400I218750J0D01*
G01*
G37*
G04 #@! TD.AperFunction*
G04 #@! TA.AperFunction,SMDPad,CuDef*
G36*
G01*
X137614950Y-72206400D02*
X138127450Y-72206400D01*
G75*
G02*
X138346200Y-72425150I0J-218750D01*
G01*
X138346200Y-72862650D01*
G75*
G02*
X138127450Y-73081400I-218750J0D01*
G01*
X137614950Y-73081400D01*
G75*
G02*
X137396200Y-72862650I0J218750D01*
G01*
X137396200Y-72425150D01*
G75*
G02*
X137614950Y-72206400I218750J0D01*
G01*
G37*
G04 #@! TD.AperFunction*
G04 #@! TA.AperFunction,SMDPad,CuDef*
G36*
G01*
X158549050Y-95687400D02*
X158036550Y-95687400D01*
G75*
G02*
X157817800Y-95468650I0J218750D01*
G01*
X157817800Y-95031150D01*
G75*
G02*
X158036550Y-94812400I218750J0D01*
G01*
X158549050Y-94812400D01*
G75*
G02*
X158767800Y-95031150I0J-218750D01*
G01*
X158767800Y-95468650D01*
G75*
G02*
X158549050Y-95687400I-218750J0D01*
G01*
G37*
G04 #@! TD.AperFunction*
G04 #@! TA.AperFunction,SMDPad,CuDef*
G36*
G01*
X158549050Y-97262400D02*
X158036550Y-97262400D01*
G75*
G02*
X157817800Y-97043650I0J218750D01*
G01*
X157817800Y-96606150D01*
G75*
G02*
X158036550Y-96387400I218750J0D01*
G01*
X158549050Y-96387400D01*
G75*
G02*
X158767800Y-96606150I0J-218750D01*
G01*
X158767800Y-97043650D01*
G75*
G02*
X158549050Y-97262400I-218750J0D01*
G01*
G37*
G04 #@! TD.AperFunction*
G04 #@! TA.AperFunction,SMDPad,CuDef*
G36*
G01*
X156174600Y-91710200D02*
X156174600Y-90560200D01*
G75*
G02*
X156424600Y-90310200I250000J0D01*
G01*
X157524600Y-90310200D01*
G75*
G02*
X157774600Y-90560200I0J-250000D01*
G01*
X157774600Y-91710200D01*
G75*
G02*
X157524600Y-91960200I-250000J0D01*
G01*
X156424600Y-91960200D01*
G75*
G02*
X156174600Y-91710200I0J250000D01*
G01*
G37*
G04 #@! TD.AperFunction*
G04 #@! TA.AperFunction,SMDPad,CuDef*
G36*
G01*
X153324600Y-91710200D02*
X153324600Y-90560200D01*
G75*
G02*
X153574600Y-90310200I250000J0D01*
G01*
X154674600Y-90310200D01*
G75*
G02*
X154924600Y-90560200I0J-250000D01*
G01*
X154924600Y-91710200D01*
G75*
G02*
X154674600Y-91960200I-250000J0D01*
G01*
X153574600Y-91960200D01*
G75*
G02*
X153324600Y-91710200I0J250000D01*
G01*
G37*
G04 #@! TD.AperFunction*
D19*
X164896800Y-91998800D03*
X111417100Y-72923400D03*
X150799800Y-67335400D03*
X112420400Y-64693800D03*
X128752600Y-68961000D03*
X129895600Y-67741800D03*
X146634200Y-91313000D03*
X156743400Y-87579200D03*
D20*
X161696400Y-94818200D03*
D21*
X167894000Y-94818200D03*
D22*
X164896800Y-90018200D03*
G04 #@! TA.AperFunction,SMDPad,CuDef*
G36*
G01*
X129880650Y-75356100D02*
X130393150Y-75356100D01*
G75*
G02*
X130611900Y-75574850I0J-218750D01*
G01*
X130611900Y-76012350D01*
G75*
G02*
X130393150Y-76231100I-218750J0D01*
G01*
X129880650Y-76231100D01*
G75*
G02*
X129661900Y-76012350I0J218750D01*
G01*
X129661900Y-75574850D01*
G75*
G02*
X129880650Y-75356100I218750J0D01*
G01*
G37*
G04 #@! TD.AperFunction*
G04 #@! TA.AperFunction,SMDPad,CuDef*
G36*
G01*
X129880650Y-73781100D02*
X130393150Y-73781100D01*
G75*
G02*
X130611900Y-73999850I0J-218750D01*
G01*
X130611900Y-74437350D01*
G75*
G02*
X130393150Y-74656100I-218750J0D01*
G01*
X129880650Y-74656100D01*
G75*
G02*
X129661900Y-74437350I0J218750D01*
G01*
X129661900Y-73999850D01*
G75*
G02*
X129880650Y-73781100I218750J0D01*
G01*
G37*
G04 #@! TD.AperFunction*
G04 #@! TA.AperFunction,SMDPad,CuDef*
G36*
G01*
X113975400Y-70762150D02*
X113975400Y-71274650D01*
G75*
G02*
X113756650Y-71493400I-218750J0D01*
G01*
X113319150Y-71493400D01*
G75*
G02*
X113100400Y-71274650I0J218750D01*
G01*
X113100400Y-70762150D01*
G75*
G02*
X113319150Y-70543400I218750J0D01*
G01*
X113756650Y-70543400D01*
G75*
G02*
X113975400Y-70762150I0J-218750D01*
G01*
G37*
G04 #@! TD.AperFunction*
G04 #@! TA.AperFunction,SMDPad,CuDef*
G36*
G01*
X115550400Y-70762150D02*
X115550400Y-71274650D01*
G75*
G02*
X115331650Y-71493400I-218750J0D01*
G01*
X114894150Y-71493400D01*
G75*
G02*
X114675400Y-71274650I0J218750D01*
G01*
X114675400Y-70762150D01*
G75*
G02*
X114894150Y-70543400I218750J0D01*
G01*
X115331650Y-70543400D01*
G75*
G02*
X115550400Y-70762150I0J-218750D01*
G01*
G37*
G04 #@! TD.AperFunction*
G04 #@! TA.AperFunction,SMDPad,CuDef*
G36*
G01*
X122578150Y-67558400D02*
X123090650Y-67558400D01*
G75*
G02*
X123309400Y-67777150I0J-218750D01*
G01*
X123309400Y-68214650D01*
G75*
G02*
X123090650Y-68433400I-218750J0D01*
G01*
X122578150Y-68433400D01*
G75*
G02*
X122359400Y-68214650I0J218750D01*
G01*
X122359400Y-67777150D01*
G75*
G02*
X122578150Y-67558400I218750J0D01*
G01*
G37*
G04 #@! TD.AperFunction*
G04 #@! TA.AperFunction,SMDPad,CuDef*
G36*
G01*
X122578150Y-65983400D02*
X123090650Y-65983400D01*
G75*
G02*
X123309400Y-66202150I0J-218750D01*
G01*
X123309400Y-66639650D01*
G75*
G02*
X123090650Y-66858400I-218750J0D01*
G01*
X122578150Y-66858400D01*
G75*
G02*
X122359400Y-66639650I0J218750D01*
G01*
X122359400Y-66202150D01*
G75*
G02*
X122578150Y-65983400I218750J0D01*
G01*
G37*
G04 #@! TD.AperFunction*
G04 #@! TA.AperFunction,SMDPad,CuDef*
G36*
G01*
X151662450Y-89745400D02*
X150749950Y-89745400D01*
G75*
G02*
X150506200Y-89501650I0J243750D01*
G01*
X150506200Y-89014150D01*
G75*
G02*
X150749950Y-88770400I243750J0D01*
G01*
X151662450Y-88770400D01*
G75*
G02*
X151906200Y-89014150I0J-243750D01*
G01*
X151906200Y-89501650D01*
G75*
G02*
X151662450Y-89745400I-243750J0D01*
G01*
G37*
G04 #@! TD.AperFunction*
G04 #@! TA.AperFunction,SMDPad,CuDef*
G36*
G01*
X151662450Y-91620400D02*
X150749950Y-91620400D01*
G75*
G02*
X150506200Y-91376650I0J243750D01*
G01*
X150506200Y-90889150D01*
G75*
G02*
X150749950Y-90645400I243750J0D01*
G01*
X151662450Y-90645400D01*
G75*
G02*
X151906200Y-90889150I0J-243750D01*
G01*
X151906200Y-91376650D01*
G75*
G02*
X151662450Y-91620400I-243750J0D01*
G01*
G37*
G04 #@! TD.AperFunction*
D23*
X169672000Y-85725000D03*
X169672000Y-88265000D03*
D24*
X163620200Y-59027400D03*
X156620200Y-59027400D03*
X163620200Y-64467400D03*
X156620200Y-64467400D03*
D25*
X156890200Y-61747400D03*
X158890200Y-61747400D03*
X160890200Y-61747400D03*
X162890200Y-61747400D03*
G04 #@! TA.AperFunction,SMDPad,CuDef*
G36*
G01*
X168175650Y-67823600D02*
X167663150Y-67823600D01*
G75*
G02*
X167444400Y-67604850I0J218750D01*
G01*
X167444400Y-67167350D01*
G75*
G02*
X167663150Y-66948600I218750J0D01*
G01*
X168175650Y-66948600D01*
G75*
G02*
X168394400Y-67167350I0J-218750D01*
G01*
X168394400Y-67604850D01*
G75*
G02*
X168175650Y-67823600I-218750J0D01*
G01*
G37*
G04 #@! TD.AperFunction*
G04 #@! TA.AperFunction,SMDPad,CuDef*
G36*
G01*
X168175650Y-69398600D02*
X167663150Y-69398600D01*
G75*
G02*
X167444400Y-69179850I0J218750D01*
G01*
X167444400Y-68742350D01*
G75*
G02*
X167663150Y-68523600I218750J0D01*
G01*
X168175650Y-68523600D01*
G75*
G02*
X168394400Y-68742350I0J-218750D01*
G01*
X168394400Y-69179850D01*
G75*
G02*
X168175650Y-69398600I-218750J0D01*
G01*
G37*
G04 #@! TD.AperFunction*
G04 #@! TA.AperFunction,SMDPad,CuDef*
G36*
G01*
X143060000Y-93955550D02*
X143060000Y-94868050D01*
G75*
G02*
X142816250Y-95111800I-243750J0D01*
G01*
X142328750Y-95111800D01*
G75*
G02*
X142085000Y-94868050I0J243750D01*
G01*
X142085000Y-93955550D01*
G75*
G02*
X142328750Y-93711800I243750J0D01*
G01*
X142816250Y-93711800D01*
G75*
G02*
X143060000Y-93955550I0J-243750D01*
G01*
G37*
G04 #@! TD.AperFunction*
G04 #@! TA.AperFunction,SMDPad,CuDef*
G36*
G01*
X144935000Y-93955550D02*
X144935000Y-94868050D01*
G75*
G02*
X144691250Y-95111800I-243750J0D01*
G01*
X144203750Y-95111800D01*
G75*
G02*
X143960000Y-94868050I0J243750D01*
G01*
X143960000Y-93955550D01*
G75*
G02*
X144203750Y-93711800I243750J0D01*
G01*
X144691250Y-93711800D01*
G75*
G02*
X144935000Y-93955550I0J-243750D01*
G01*
G37*
G04 #@! TD.AperFunction*
G04 #@! TA.AperFunction,SMDPad,CuDef*
G36*
G01*
X147325600Y-98524350D02*
X147325600Y-99036850D01*
G75*
G02*
X147106850Y-99255600I-218750J0D01*
G01*
X146669350Y-99255600D01*
G75*
G02*
X146450600Y-99036850I0J218750D01*
G01*
X146450600Y-98524350D01*
G75*
G02*
X146669350Y-98305600I218750J0D01*
G01*
X147106850Y-98305600D01*
G75*
G02*
X147325600Y-98524350I0J-218750D01*
G01*
G37*
G04 #@! TD.AperFunction*
G04 #@! TA.AperFunction,SMDPad,CuDef*
G36*
G01*
X148900600Y-98524350D02*
X148900600Y-99036850D01*
G75*
G02*
X148681850Y-99255600I-218750J0D01*
G01*
X148244350Y-99255600D01*
G75*
G02*
X148025600Y-99036850I0J218750D01*
G01*
X148025600Y-98524350D01*
G75*
G02*
X148244350Y-98305600I218750J0D01*
G01*
X148681850Y-98305600D01*
G75*
G02*
X148900600Y-98524350I0J-218750D01*
G01*
G37*
G04 #@! TD.AperFunction*
D26*
X148513800Y-94716600D03*
D27*
X147013800Y-93966600D03*
X147013800Y-94466600D03*
X147013800Y-94966600D03*
X147013800Y-95466600D03*
D28*
X147763800Y-96216600D03*
X148263800Y-96216600D03*
X148763800Y-96216600D03*
X149263800Y-96216600D03*
D27*
X150013800Y-95466600D03*
X150013800Y-94966600D03*
X150013800Y-94466600D03*
X150013800Y-93966600D03*
D28*
X149263800Y-93216600D03*
X148763800Y-93216600D03*
X148263800Y-93216600D03*
X147763800Y-93216600D03*
G04 #@! TA.AperFunction,SMDPad,CuDef*
G36*
G01*
X148613150Y-90545400D02*
X149125650Y-90545400D01*
G75*
G02*
X149344400Y-90764150I0J-218750D01*
G01*
X149344400Y-91201650D01*
G75*
G02*
X149125650Y-91420400I-218750J0D01*
G01*
X148613150Y-91420400D01*
G75*
G02*
X148394400Y-91201650I0J218750D01*
G01*
X148394400Y-90764150D01*
G75*
G02*
X148613150Y-90545400I218750J0D01*
G01*
G37*
G04 #@! TD.AperFunction*
G04 #@! TA.AperFunction,SMDPad,CuDef*
G36*
G01*
X148613150Y-88970400D02*
X149125650Y-88970400D01*
G75*
G02*
X149344400Y-89189150I0J-218750D01*
G01*
X149344400Y-89626650D01*
G75*
G02*
X149125650Y-89845400I-218750J0D01*
G01*
X148613150Y-89845400D01*
G75*
G02*
X148394400Y-89626650I0J218750D01*
G01*
X148394400Y-89189150D01*
G75*
G02*
X148613150Y-88970400I218750J0D01*
G01*
G37*
G04 #@! TD.AperFunction*
G04 #@! TA.AperFunction,SMDPad,CuDef*
G36*
G01*
X143962300Y-92505850D02*
X143962300Y-91593350D01*
G75*
G02*
X144206050Y-91349600I243750J0D01*
G01*
X144693550Y-91349600D01*
G75*
G02*
X144937300Y-91593350I0J-243750D01*
G01*
X144937300Y-92505850D01*
G75*
G02*
X144693550Y-92749600I-243750J0D01*
G01*
X144206050Y-92749600D01*
G75*
G02*
X143962300Y-92505850I0J243750D01*
G01*
G37*
G04 #@! TD.AperFunction*
G04 #@! TA.AperFunction,SMDPad,CuDef*
G36*
G01*
X142087300Y-92505850D02*
X142087300Y-91593350D01*
G75*
G02*
X142331050Y-91349600I243750J0D01*
G01*
X142818550Y-91349600D01*
G75*
G02*
X143062300Y-91593350I0J-243750D01*
G01*
X143062300Y-92505850D01*
G75*
G02*
X142818550Y-92749600I-243750J0D01*
G01*
X142331050Y-92749600D01*
G75*
G02*
X142087300Y-92505850I0J243750D01*
G01*
G37*
G04 #@! TD.AperFunction*
G04 #@! TA.AperFunction,SMDPad,CuDef*
G36*
G01*
X143962300Y-90575450D02*
X143962300Y-89662950D01*
G75*
G02*
X144206050Y-89419200I243750J0D01*
G01*
X144693550Y-89419200D01*
G75*
G02*
X144937300Y-89662950I0J-243750D01*
G01*
X144937300Y-90575450D01*
G75*
G02*
X144693550Y-90819200I-243750J0D01*
G01*
X144206050Y-90819200D01*
G75*
G02*
X143962300Y-90575450I0J243750D01*
G01*
G37*
G04 #@! TD.AperFunction*
G04 #@! TA.AperFunction,SMDPad,CuDef*
G36*
G01*
X142087300Y-90575450D02*
X142087300Y-89662950D01*
G75*
G02*
X142331050Y-89419200I243750J0D01*
G01*
X142818550Y-89419200D01*
G75*
G02*
X143062300Y-89662950I0J-243750D01*
G01*
X143062300Y-90575450D01*
G75*
G02*
X142818550Y-90819200I-243750J0D01*
G01*
X142331050Y-90819200D01*
G75*
G02*
X142087300Y-90575450I0J243750D01*
G01*
G37*
G04 #@! TD.AperFunction*
D29*
X96507300Y-61239400D03*
X99047300Y-58699400D03*
X93967300Y-58699400D03*
X93967300Y-63779400D03*
X99047300Y-63779400D03*
X96532700Y-77419200D03*
X99072700Y-74879200D03*
X93992700Y-74879200D03*
X93992700Y-79959200D03*
X99072700Y-79959200D03*
X96532700Y-93599000D03*
X99072700Y-91059000D03*
X93992700Y-91059000D03*
X93992700Y-96139000D03*
X99072700Y-96139000D03*
G04 #@! TA.AperFunction,SMDPad,CuDef*
G36*
G01*
X151276800Y-82831650D02*
X151276800Y-82319150D01*
G75*
G02*
X151495550Y-82100400I218750J0D01*
G01*
X151933050Y-82100400D01*
G75*
G02*
X152151800Y-82319150I0J-218750D01*
G01*
X152151800Y-82831650D01*
G75*
G02*
X151933050Y-83050400I-218750J0D01*
G01*
X151495550Y-83050400D01*
G75*
G02*
X151276800Y-82831650I0J218750D01*
G01*
G37*
G04 #@! TD.AperFunction*
G04 #@! TA.AperFunction,SMDPad,CuDef*
G36*
G01*
X149701800Y-82831650D02*
X149701800Y-82319150D01*
G75*
G02*
X149920550Y-82100400I218750J0D01*
G01*
X150358050Y-82100400D01*
G75*
G02*
X150576800Y-82319150I0J-218750D01*
G01*
X150576800Y-82831650D01*
G75*
G02*
X150358050Y-83050400I-218750J0D01*
G01*
X149920550Y-83050400D01*
G75*
G02*
X149701800Y-82831650I0J218750D01*
G01*
G37*
G04 #@! TD.AperFunction*
G04 #@! TA.AperFunction,SMDPad,CuDef*
G36*
G01*
X114523000Y-67718650D02*
X114523000Y-67206150D01*
G75*
G02*
X114741750Y-66987400I218750J0D01*
G01*
X115179250Y-66987400D01*
G75*
G02*
X115398000Y-67206150I0J-218750D01*
G01*
X115398000Y-67718650D01*
G75*
G02*
X115179250Y-67937400I-218750J0D01*
G01*
X114741750Y-67937400D01*
G75*
G02*
X114523000Y-67718650I0J218750D01*
G01*
G37*
G04 #@! TD.AperFunction*
G04 #@! TA.AperFunction,SMDPad,CuDef*
G36*
G01*
X112948000Y-67718650D02*
X112948000Y-67206150D01*
G75*
G02*
X113166750Y-66987400I218750J0D01*
G01*
X113604250Y-66987400D01*
G75*
G02*
X113823000Y-67206150I0J-218750D01*
G01*
X113823000Y-67718650D01*
G75*
G02*
X113604250Y-67937400I-218750J0D01*
G01*
X113166750Y-67937400D01*
G75*
G02*
X112948000Y-67718650I0J218750D01*
G01*
G37*
G04 #@! TD.AperFunction*
G04 #@! TA.AperFunction,SMDPad,CuDef*
G36*
G01*
X167177200Y-85981250D02*
X167177200Y-85468750D01*
G75*
G02*
X167395950Y-85250000I218750J0D01*
G01*
X167833450Y-85250000D01*
G75*
G02*
X168052200Y-85468750I0J-218750D01*
G01*
X168052200Y-85981250D01*
G75*
G02*
X167833450Y-86200000I-218750J0D01*
G01*
X167395950Y-86200000D01*
G75*
G02*
X167177200Y-85981250I0J218750D01*
G01*
G37*
G04 #@! TD.AperFunction*
G04 #@! TA.AperFunction,SMDPad,CuDef*
G36*
G01*
X165602200Y-85981250D02*
X165602200Y-85468750D01*
G75*
G02*
X165820950Y-85250000I218750J0D01*
G01*
X166258450Y-85250000D01*
G75*
G02*
X166477200Y-85468750I0J-218750D01*
G01*
X166477200Y-85981250D01*
G75*
G02*
X166258450Y-86200000I-218750J0D01*
G01*
X165820950Y-86200000D01*
G75*
G02*
X165602200Y-85981250I0J218750D01*
G01*
G37*
G04 #@! TD.AperFunction*
G04 #@! TA.AperFunction,SMDPad,CuDef*
G36*
G01*
X120744600Y-63624750D02*
X120744600Y-64137250D01*
G75*
G02*
X120525850Y-64356000I-218750J0D01*
G01*
X120088350Y-64356000D01*
G75*
G02*
X119869600Y-64137250I0J218750D01*
G01*
X119869600Y-63624750D01*
G75*
G02*
X120088350Y-63406000I218750J0D01*
G01*
X120525850Y-63406000D01*
G75*
G02*
X120744600Y-63624750I0J-218750D01*
G01*
G37*
G04 #@! TD.AperFunction*
G04 #@! TA.AperFunction,SMDPad,CuDef*
G36*
G01*
X122319600Y-63624750D02*
X122319600Y-64137250D01*
G75*
G02*
X122100850Y-64356000I-218750J0D01*
G01*
X121663350Y-64356000D01*
G75*
G02*
X121444600Y-64137250I0J218750D01*
G01*
X121444600Y-63624750D01*
G75*
G02*
X121663350Y-63406000I218750J0D01*
G01*
X122100850Y-63406000D01*
G75*
G02*
X122319600Y-63624750I0J-218750D01*
G01*
G37*
G04 #@! TD.AperFunction*
G04 #@! TA.AperFunction,SMDPad,CuDef*
G36*
G01*
X117282250Y-74263900D02*
X117794750Y-74263900D01*
G75*
G02*
X118013500Y-74482650I0J-218750D01*
G01*
X118013500Y-74920150D01*
G75*
G02*
X117794750Y-75138900I-218750J0D01*
G01*
X117282250Y-75138900D01*
G75*
G02*
X117063500Y-74920150I0J218750D01*
G01*
X117063500Y-74482650D01*
G75*
G02*
X117282250Y-74263900I218750J0D01*
G01*
G37*
G04 #@! TD.AperFunction*
G04 #@! TA.AperFunction,SMDPad,CuDef*
G36*
G01*
X117282250Y-72688900D02*
X117794750Y-72688900D01*
G75*
G02*
X118013500Y-72907650I0J-218750D01*
G01*
X118013500Y-73345150D01*
G75*
G02*
X117794750Y-73563900I-218750J0D01*
G01*
X117282250Y-73563900D01*
G75*
G02*
X117063500Y-73345150I0J218750D01*
G01*
X117063500Y-72907650D01*
G75*
G02*
X117282250Y-72688900I218750J0D01*
G01*
G37*
G04 #@! TD.AperFunction*
G04 #@! TA.AperFunction,SMDPad,CuDef*
G36*
G01*
X118091700Y-65966050D02*
X118091700Y-65453550D01*
G75*
G02*
X118310450Y-65234800I218750J0D01*
G01*
X118747950Y-65234800D01*
G75*
G02*
X118966700Y-65453550I0J-218750D01*
G01*
X118966700Y-65966050D01*
G75*
G02*
X118747950Y-66184800I-218750J0D01*
G01*
X118310450Y-66184800D01*
G75*
G02*
X118091700Y-65966050I0J218750D01*
G01*
G37*
G04 #@! TD.AperFunction*
G04 #@! TA.AperFunction,SMDPad,CuDef*
G36*
G01*
X116516700Y-65966050D02*
X116516700Y-65453550D01*
G75*
G02*
X116735450Y-65234800I218750J0D01*
G01*
X117172950Y-65234800D01*
G75*
G02*
X117391700Y-65453550I0J-218750D01*
G01*
X117391700Y-65966050D01*
G75*
G02*
X117172950Y-66184800I-218750J0D01*
G01*
X116735450Y-66184800D01*
G75*
G02*
X116516700Y-65966050I0J218750D01*
G01*
G37*
G04 #@! TD.AperFunction*
D30*
X131064000Y-86588600D03*
X141008100Y-74498200D03*
X141833600Y-75323700D03*
D31*
X150279100Y-59537600D03*
X150964900Y-59537600D03*
X149542500Y-59537600D03*
D32*
X94818200Y-53162200D03*
X92557600Y-53162200D03*
X97078800Y-53162200D03*
X110286800Y-53136800D03*
X112420400Y-53136800D03*
X103682800Y-53136800D03*
X108102400Y-53136800D03*
X105892600Y-53136800D03*
X101523800Y-53136800D03*
X116611400Y-53136800D03*
X118778800Y-53136800D03*
X120998800Y-53136800D03*
D31*
X150876000Y-79756000D03*
X150139400Y-79756000D03*
X150876000Y-80518000D03*
X150139400Y-80518000D03*
X150139400Y-81254600D03*
X149377400Y-80518000D03*
X150876000Y-81254600D03*
X149377400Y-81254600D03*
X149377400Y-79756000D03*
X152730200Y-66192400D03*
X152730200Y-66954400D03*
D32*
X172148500Y-90618000D03*
X172148500Y-88398000D03*
X172148500Y-97278600D03*
X172148500Y-92838600D03*
X172148500Y-99498600D03*
X172148500Y-95058600D03*
X148971000Y-94259400D03*
X148971000Y-95173800D03*
X148056600Y-95173800D03*
X148056600Y-94259400D03*
X146342100Y-71996300D03*
X147383500Y-71996300D03*
X145288000Y-71996300D03*
X101523800Y-101676200D03*
X103682800Y-101676200D03*
X105816400Y-101676200D03*
X107924600Y-101676200D03*
X110032800Y-101676200D03*
X172147700Y-101676200D03*
X172147700Y-64360050D03*
X172147700Y-62115400D03*
X172147700Y-59870750D03*
X172147700Y-57626100D03*
X172147700Y-55381450D03*
X172147700Y-53136800D03*
X169838800Y-53136800D03*
X167618800Y-53136800D03*
X165398800Y-53136800D03*
X163178800Y-53136800D03*
X160958800Y-53136800D03*
X158738800Y-53136800D03*
X156518800Y-53136800D03*
X154298800Y-53136800D03*
X152078800Y-53136800D03*
X149858800Y-53136800D03*
X147638800Y-53136800D03*
X145418800Y-53136800D03*
X143198800Y-53136800D03*
X140978800Y-53136800D03*
X138758800Y-53136800D03*
X136538800Y-53136800D03*
X134318800Y-53136800D03*
X132098800Y-53136800D03*
X129878800Y-53136800D03*
X127658800Y-53136800D03*
X125438800Y-53136800D03*
X123218800Y-53136800D03*
X116268500Y-70002400D03*
X117284500Y-70002400D03*
X117284500Y-72034400D03*
X116268500Y-72034400D03*
X116268500Y-71018400D03*
X117284500Y-71018400D03*
X118300500Y-72034400D03*
X118300500Y-71018400D03*
X118300500Y-70002400D03*
X108030700Y-65489400D03*
D31*
X135394700Y-59537600D03*
X136131300Y-59537600D03*
X136817100Y-59537600D03*
D32*
X143637000Y-57137300D03*
X140360400Y-57137300D03*
X143637000Y-55765700D03*
X140360400Y-55765700D03*
X141452600Y-55765700D03*
X142544800Y-55765700D03*
X106680000Y-70383400D03*
X113398300Y-66395600D03*
X123888500Y-66395600D03*
X113449100Y-95377000D03*
X110972600Y-91440000D03*
X113398300Y-68529200D03*
X121780300Y-66421000D03*
X110972600Y-90170000D03*
X111340900Y-95377000D03*
X112382300Y-95377000D03*
X114338800Y-101676200D03*
X116558800Y-101676200D03*
X138758800Y-101676200D03*
X163178800Y-101676200D03*
X158738800Y-101676200D03*
X120998800Y-101676200D03*
X154298800Y-101676200D03*
X118778800Y-101676200D03*
X129878800Y-101676200D03*
X149858800Y-101676200D03*
X132098800Y-101676200D03*
X169838800Y-101676200D03*
X152078800Y-101676200D03*
X143198800Y-101676200D03*
X165398800Y-101676200D03*
X127658800Y-101676200D03*
X156518800Y-101676200D03*
X134318800Y-101676200D03*
X136538800Y-101676200D03*
X145418800Y-101676200D03*
X140978800Y-101676200D03*
X123218800Y-101676200D03*
X147638800Y-101676200D03*
X167618800Y-101676200D03*
X125438800Y-101676200D03*
X160958800Y-101676200D03*
X172148500Y-66675000D03*
X172148500Y-69011800D03*
X172148500Y-83947000D03*
X172148500Y-86156800D03*
X158597600Y-84023200D03*
X160020000Y-55422800D03*
X161137600Y-56489600D03*
X158927800Y-56489600D03*
X159816800Y-85267800D03*
X130911600Y-94234000D03*
X115963700Y-63677800D03*
X121881900Y-64973200D03*
X121881900Y-62865000D03*
X154584400Y-74777600D03*
D31*
X137058400Y-74218800D03*
D32*
X168986200Y-67386200D03*
X166878000Y-67386200D03*
D30*
X144653000Y-82016600D03*
D32*
X145669000Y-88950800D03*
X146659600Y-88950800D03*
X147650200Y-88950800D03*
X115887500Y-65735200D03*
X90233500Y-55499000D03*
X90233500Y-57810400D03*
X90233500Y-60147200D03*
X90233500Y-62507600D03*
X90233500Y-64807600D03*
X90233500Y-67107600D03*
X90233500Y-69407600D03*
X90233500Y-71707600D03*
X90233500Y-74007600D03*
X90233500Y-76307600D03*
X90233500Y-78607600D03*
X90233500Y-80907600D03*
X90233500Y-83207600D03*
X90233500Y-85507600D03*
X90233500Y-87807600D03*
X90233500Y-90107600D03*
X90233500Y-92407600D03*
X90233500Y-94707600D03*
X90233500Y-97007600D03*
X90233500Y-99307600D03*
X112115600Y-101676200D03*
X114503200Y-53136800D03*
X99390200Y-53162200D03*
X99390200Y-101676200D03*
X170002200Y-74472800D03*
X160477200Y-98196404D03*
X97078800Y-101676200D03*
X94818200Y-101676200D03*
X92557600Y-101676200D03*
X90233500Y-101676200D03*
X90233500Y-53162200D03*
D33*
X129743200Y-80314800D03*
D30*
X140614400Y-67513200D03*
X141579600Y-68681600D03*
X140614400Y-69875400D03*
X137820400Y-70307200D03*
D33*
X136042400Y-76314300D03*
D30*
X145884900Y-78041500D03*
D32*
X153136600Y-64541400D03*
X150990400Y-75006100D03*
X152882600Y-76352400D03*
X172148500Y-79540100D03*
X172148500Y-77520800D03*
X172148500Y-75514200D03*
X172148500Y-73507600D03*
D30*
X152882600Y-87718900D03*
X153708100Y-86893400D03*
X156032202Y-83489800D03*
D32*
X156260800Y-89408000D03*
D33*
X133731000Y-77927200D03*
D32*
X113004600Y-81229200D03*
D30*
X144195800Y-74396600D03*
D31*
X130124200Y-73279000D03*
X128701800Y-73279000D03*
D30*
X134277100Y-84709000D03*
D33*
X130556000Y-77114400D03*
D32*
X109296200Y-75895200D03*
X108661200Y-79806800D03*
D33*
X135407400Y-79578200D03*
X130556000Y-78714600D03*
D32*
X107998500Y-76532500D03*
X107340400Y-80441800D03*
D33*
X131343400Y-79527400D03*
D32*
X105232200Y-80391000D03*
D33*
X128397000Y-80695800D03*
D32*
X109943900Y-74320400D03*
D33*
X128701800Y-77520800D03*
D32*
X111417100Y-74295000D03*
D33*
X127584200Y-77292200D03*
D32*
X156514800Y-69824600D03*
X157480000Y-69824600D03*
X157474800Y-70795000D03*
X156514800Y-70789800D03*
X142570200Y-88696800D03*
X142570200Y-87249000D03*
D30*
X159410400Y-86969600D03*
X155041600Y-92684600D03*
X120002300Y-67233800D03*
X120357900Y-73647300D03*
X114731800Y-84632800D03*
X119862600Y-91440000D03*
X122440702Y-73647302D03*
X119659400Y-88366600D03*
X119659400Y-82651600D03*
D33*
X134543800Y-79502000D03*
D30*
X122440700Y-69951600D03*
X117218700Y-84939900D03*
D33*
X136144000Y-81915000D03*
D30*
X121361200Y-74422000D03*
D33*
X121513600Y-70662800D03*
D32*
X148005800Y-97256600D03*
X149758400Y-91770200D03*
X154444700Y-96329500D03*
X159766000Y-90728800D03*
X161544000Y-90728800D03*
X160655000Y-90728800D03*
D30*
X150799800Y-67335400D03*
X145999200Y-74269600D03*
X133451600Y-94818200D03*
D33*
X135356600Y-75514200D03*
X126136400Y-83439000D03*
X126136400Y-75361800D03*
D30*
X135991600Y-94234000D03*
D33*
X133731000Y-75514200D03*
X127304800Y-83439000D03*
X126288800Y-74168000D03*
D31*
X163175200Y-72466200D03*
X163875200Y-72466200D03*
X137887752Y-80683431D03*
D33*
X140431400Y-80543400D03*
D31*
X137887752Y-79983431D03*
D33*
X139781400Y-80543400D03*
D30*
X114617500Y-73710800D03*
D33*
X127584200Y-76454000D03*
D30*
X112420400Y-64693800D03*
X130962400Y-68961000D03*
X129895600Y-67741800D03*
X113753900Y-61798200D03*
X128752600Y-68961000D03*
X114833400Y-62522100D03*
D32*
X149860000Y-98247200D03*
D30*
X124841000Y-74599800D03*
X120243600Y-68478400D03*
D31*
X146418300Y-57200800D03*
X152552400Y-59715400D03*
X153238200Y-59728100D03*
X153238200Y-58534300D03*
X152552400Y-59131200D03*
X153238200Y-59131200D03*
X152552400Y-58534300D03*
D33*
X129743200Y-81114900D03*
X131343400Y-77914500D03*
D30*
X132842000Y-72948800D03*
X132842000Y-72212200D03*
D33*
X134543800Y-80314800D03*
D32*
X111340900Y-87528400D03*
X112407700Y-87528400D03*
X113449100Y-87528400D03*
X113601500Y-72288400D03*
X116014500Y-74701400D03*
X119062500Y-74701400D03*
X120307100Y-64973200D03*
D31*
X132245100Y-57175400D03*
D32*
X111391700Y-68351400D03*
X111823500Y-78003400D03*
X116014372Y-67462400D03*
X118529100Y-67462400D03*
X121678700Y-67995800D03*
D30*
X153085800Y-82575400D03*
D32*
X170002200Y-76657200D03*
D30*
X147726400Y-82575400D03*
D32*
X138531600Y-94843600D03*
D30*
X150926804Y-77165196D03*
D31*
X138379200Y-58508900D03*
X139052300Y-58508900D03*
X138379200Y-59105800D03*
X139052300Y-59105800D03*
X138379200Y-59702700D03*
X139052300Y-59702700D03*
D30*
X136956800Y-83159600D03*
D33*
X132943600Y-76314300D03*
D30*
X138734800Y-69875400D03*
X137795000Y-68681600D03*
X138734800Y-67513200D03*
D31*
X129870200Y-83007200D03*
D33*
X137134600Y-76708000D03*
D30*
X122351900Y-87655300D03*
X122351900Y-90144500D03*
D32*
X164922200Y-85725000D03*
D33*
X132156200Y-77927200D03*
X120827800Y-72491600D03*
X134543800Y-75514200D03*
X132130800Y-76314300D03*
X133731000Y-81102200D03*
X132943600Y-80314800D03*
X132156200Y-81102200D03*
D34*
X124053600Y-93599000D02*
X96532700Y-93599000D01*
X131064000Y-86588600D02*
X124053600Y-93599000D01*
X115176500Y-71018400D02*
X116268500Y-71018400D01*
X115049500Y-70891400D02*
X115176500Y-71018400D01*
X118300500Y-72034400D02*
X117284500Y-72034400D01*
X117284500Y-72034400D02*
X117665500Y-72034400D01*
X117538500Y-73177400D02*
X117538500Y-72288400D01*
X117538500Y-72288400D02*
X117284500Y-72034400D01*
X113398200Y-68529100D02*
X113398300Y-68529200D01*
X113398200Y-67462400D02*
X113398200Y-68529100D01*
X113398300Y-67462300D02*
X113398300Y-66395600D01*
X123863200Y-66420900D02*
X123888500Y-66395600D01*
X122847100Y-66420900D02*
X123863200Y-66420900D01*
X122847100Y-66420900D02*
X121780400Y-66420900D01*
X121780400Y-66420900D02*
X121780300Y-66421000D01*
D35*
X149263800Y-93966600D02*
X148513800Y-94716600D01*
D36*
X149263800Y-93216600D02*
X149263800Y-93966600D01*
D35*
X148263800Y-94466600D02*
X148513800Y-94716600D01*
D36*
X147013800Y-94466600D02*
X148263800Y-94466600D01*
D35*
X148263800Y-94966600D02*
X148513800Y-94716600D01*
D36*
X147013800Y-94966600D02*
X148263800Y-94966600D01*
X159918400Y-85445600D02*
X160096200Y-85267800D01*
D34*
X167919400Y-67386100D02*
X168986100Y-67386100D01*
X167919400Y-67386100D02*
X166878100Y-67386100D01*
X168624800Y-74472800D02*
X168619800Y-74467800D01*
X170002200Y-74472800D02*
X168624800Y-74472800D01*
X121882100Y-62865200D02*
X121881900Y-62865000D01*
X121882100Y-63881000D02*
X121882100Y-62865200D01*
X121881900Y-64973200D02*
X121881900Y-64795400D01*
X121882100Y-63881000D02*
X121882100Y-64973000D01*
X121882100Y-64973000D02*
X121881900Y-64973200D01*
X116954300Y-65735200D02*
X115887500Y-65735200D01*
D37*
X150139300Y-81254700D02*
X150139400Y-81254600D01*
D34*
X150139300Y-82600800D02*
X150139300Y-81254700D01*
X130136800Y-74091700D02*
X130136900Y-74091600D01*
X140612100Y-68681600D02*
X140612100Y-67515500D01*
X140612100Y-67515500D02*
X140614400Y-67513200D01*
X140612100Y-68681600D02*
X141579600Y-68681600D01*
X140612100Y-68681600D02*
X140612100Y-69873100D01*
X140612100Y-69873100D02*
X140614400Y-69875400D01*
X137820400Y-71094500D02*
X137820400Y-70307200D01*
X136245600Y-74218900D02*
X137871200Y-74218900D01*
X128549400Y-74193400D02*
X128701800Y-74193400D01*
X143256100Y-74396600D02*
X144195800Y-74396600D01*
X128701800Y-74218700D02*
X128701800Y-73279000D01*
X130136800Y-74231600D02*
X130136800Y-74218700D01*
X130124200Y-73279000D02*
X130124200Y-74244200D01*
X130124200Y-74244200D02*
X130136800Y-74231600D01*
X128701800Y-73279000D02*
X128701800Y-73279000D01*
D37*
X133235700Y-84709100D02*
X134277000Y-84709100D01*
X134277000Y-84709100D02*
X134277100Y-84709000D01*
D38*
X129413000Y-78257400D02*
X130556000Y-77114400D01*
X126238000Y-78257400D02*
X129413000Y-78257400D01*
X110083600Y-76682600D02*
X112141000Y-76682600D01*
X109296200Y-75895200D02*
X110083600Y-76682600D01*
X113893600Y-78435200D02*
X126060200Y-78435200D01*
X112141000Y-76682600D02*
X113893600Y-78435200D01*
X126060200Y-78435200D02*
X126238000Y-78257400D01*
X108762800Y-79705200D02*
X108661200Y-79806800D01*
X127254000Y-79273400D02*
X126822200Y-79705200D01*
X126822200Y-79705200D02*
X108762800Y-79705200D01*
X135407400Y-79222600D02*
X134975600Y-78790800D01*
X135407400Y-79578200D02*
X135407400Y-79222600D01*
X134975600Y-78790800D02*
X131292600Y-78790800D01*
X131292600Y-78790800D02*
X130810000Y-79273400D01*
X130810000Y-79273400D02*
X127254000Y-79273400D01*
X126949200Y-78714600D02*
X130556000Y-78714600D01*
X126644400Y-79019400D02*
X126949200Y-78714600D01*
X107998500Y-76532500D02*
X110485400Y-79019400D01*
X110485400Y-79019400D02*
X126644400Y-79019400D01*
X107848400Y-80949800D02*
X107340400Y-80441800D01*
X109905800Y-80949800D02*
X107848400Y-80949800D01*
X131114800Y-79756000D02*
X127838200Y-79756000D01*
X131343400Y-79527400D02*
X131114800Y-79756000D01*
X127838200Y-79756000D02*
X127330200Y-80264000D01*
X127330200Y-80264000D02*
X110591600Y-80264000D01*
X110591600Y-80264000D02*
X109905800Y-80949800D01*
X107416600Y-82575400D02*
X105232200Y-80391000D01*
X118287800Y-80899000D02*
X116611400Y-82575400D01*
X116611400Y-82575400D02*
X107416600Y-82575400D01*
X128397000Y-80695800D02*
X128193800Y-80899000D01*
X128193800Y-80899000D02*
X118287800Y-80899000D01*
X128422400Y-77800200D02*
X128701800Y-77520800D01*
X114706400Y-77800200D02*
X128422400Y-77800200D01*
X109943900Y-74320400D02*
X110883700Y-75260200D01*
X112166400Y-75260200D02*
X114706400Y-77800200D01*
X110883700Y-75260200D02*
X112166400Y-75260200D01*
D36*
X111417100Y-72923400D02*
X111417100Y-74295000D01*
D35*
X112471200Y-74295000D02*
X111417100Y-74295000D01*
X127584200Y-77292200D02*
X127406400Y-77114400D01*
X115290600Y-77114400D02*
X112471200Y-74295000D01*
X127406400Y-77114400D02*
X115290600Y-77114400D01*
X150638800Y-93966600D02*
X150013800Y-93966600D01*
X142570200Y-96291400D02*
X146177000Y-99898200D01*
X146177000Y-99898200D02*
X149987000Y-99898200D01*
X149987000Y-99898200D02*
X151003000Y-98882200D01*
X151003000Y-98882200D02*
X151003000Y-94330800D01*
X151003000Y-94330800D02*
X150638800Y-93966600D01*
X142544800Y-94439500D02*
X142547100Y-94437200D01*
X142544800Y-96316800D02*
X142544800Y-94439500D01*
D39*
X142570200Y-89403400D02*
X142574800Y-89408000D01*
X142570200Y-87249000D02*
X142570200Y-89403400D01*
D37*
X160268200Y-86969600D02*
X160943800Y-87645200D01*
X159410400Y-86969600D02*
X160268200Y-86969600D01*
D35*
X155702000Y-96151700D02*
X155702000Y-98323400D01*
X155041600Y-93878400D02*
X155041600Y-95491300D01*
X155041600Y-95491300D02*
X155702000Y-96151700D01*
X155041600Y-93891100D02*
X155041600Y-92684600D01*
D37*
X119405400Y-72694800D02*
X120357900Y-73647300D01*
X120002300Y-67233800D02*
X119405400Y-67830700D01*
X119405400Y-67830700D02*
X119405400Y-72694800D01*
D35*
X114731800Y-85725000D02*
X114731800Y-84632800D01*
X120776900Y-91440000D02*
X119862600Y-91440000D01*
X120192800Y-88900000D02*
X120776900Y-88900000D01*
X119659400Y-88366600D02*
X120192800Y-88900000D01*
D38*
X120421400Y-81889600D02*
X119659400Y-82651600D01*
X130200400Y-81889600D02*
X120421400Y-81889600D01*
X134543800Y-79502000D02*
X132588000Y-79502000D01*
X132588000Y-79502000D02*
X130200400Y-81889600D01*
D37*
X122440700Y-73647300D02*
X122440702Y-73647302D01*
X122440700Y-69951600D02*
X122440700Y-73647300D01*
D35*
X136144000Y-83159600D02*
X135382000Y-83921600D01*
X136144000Y-81915000D02*
X136144000Y-83159600D01*
X129362200Y-83921600D02*
X128193800Y-82753200D01*
X135382000Y-83921600D02*
X129362200Y-83921600D01*
X122349500Y-84939900D02*
X117218700Y-84939900D01*
X124536200Y-82753200D02*
X122349500Y-84939900D01*
X128193800Y-82753200D02*
X124536200Y-82753200D01*
X121513600Y-70662800D02*
X121513600Y-73126600D01*
X121361200Y-73279000D02*
X121361200Y-74422000D01*
X121513600Y-73126600D02*
X121361200Y-73279000D01*
X148263800Y-96998600D02*
X148005800Y-97256600D01*
X148263800Y-96216600D02*
X148263800Y-96998600D01*
D36*
X148539300Y-91313000D02*
X148869400Y-90982900D01*
X146685000Y-91313000D02*
X148539300Y-91313000D01*
D35*
X151208500Y-91135200D02*
X151206200Y-91132900D01*
D40*
X154393900Y-96380300D02*
X154444700Y-96329500D01*
X154393900Y-98272600D02*
X154393900Y-96380300D01*
D34*
X167919400Y-68834000D02*
X167970200Y-68884800D01*
D39*
X172284800Y-71167400D02*
X172288200Y-71170800D01*
X168652600Y-71167400D02*
X172284800Y-71167400D01*
X167919400Y-68986400D02*
X167919400Y-70434200D01*
X167919400Y-70434200D02*
X168652600Y-71167400D01*
D35*
X145999200Y-74269600D02*
X147624800Y-74269600D01*
X150799800Y-71094600D02*
X150799800Y-67335400D01*
X147624800Y-74269600D02*
X150799800Y-71094600D01*
D38*
X133477000Y-76098400D02*
X134772400Y-76098400D01*
X131038600Y-73660000D02*
X133477000Y-76098400D01*
X134772400Y-76098400D02*
X135356600Y-75514200D01*
X127965200Y-72440800D02*
X130556000Y-72440800D01*
X131038600Y-72923400D02*
X131038600Y-73660000D01*
X126136400Y-75361800D02*
X127050800Y-74447400D01*
X127050800Y-73355200D02*
X127965200Y-72440800D01*
X127050800Y-74447400D02*
X127050800Y-73355200D01*
X130556000Y-72440800D02*
X131038600Y-72923400D01*
X133451600Y-87757000D02*
X133451600Y-94818200D01*
X127431800Y-85344000D02*
X131038600Y-85344000D01*
X126136400Y-83439000D02*
X126136400Y-84048600D01*
X131038600Y-85344000D02*
X133451600Y-87757000D01*
X126136400Y-84048600D02*
X127431800Y-85344000D01*
X133654800Y-75514200D02*
X133731000Y-75514200D01*
X131572000Y-73431400D02*
X133654800Y-75514200D01*
X130835400Y-71958200D02*
X131572000Y-72694800D01*
X126288800Y-74168000D02*
X126288800Y-73304400D01*
X131572000Y-72694800D02*
X131572000Y-73431400D01*
X127635000Y-71958200D02*
X130835400Y-71958200D01*
X126288800Y-73304400D02*
X127635000Y-71958200D01*
X127304800Y-84048600D02*
X128066800Y-84810600D01*
X127304800Y-83439000D02*
X127304800Y-84048600D01*
X134099300Y-92341700D02*
X135991600Y-94234000D01*
X128066800Y-84810600D02*
X131406900Y-84810600D01*
X131406900Y-84810600D02*
X134099300Y-87503000D01*
X134099300Y-87503000D02*
X134099300Y-92341700D01*
D39*
X164632699Y-63454901D02*
X163620200Y-64467400D01*
X163620200Y-59027400D02*
X164632699Y-60039899D01*
X164632699Y-60039899D02*
X164632699Y-63454901D01*
X155607701Y-63454901D02*
X156620200Y-64467400D01*
X155168600Y-63015800D02*
X155607701Y-63454901D01*
X156620200Y-59027400D02*
X155168600Y-60479000D01*
X155168600Y-60479000D02*
X155168600Y-63015800D01*
D35*
X159665200Y-62522400D02*
X158890200Y-61747400D01*
X163175200Y-72466200D02*
X163300200Y-72341200D01*
X163300200Y-69282800D02*
X159665200Y-65647800D01*
X159665200Y-65647800D02*
X159665200Y-62522400D01*
X163300200Y-72341200D02*
X163300200Y-69282800D01*
X160115200Y-62522400D02*
X160890200Y-61747400D01*
X160115200Y-65461400D02*
X160115200Y-62522400D01*
X163875200Y-72466200D02*
X163750200Y-72341200D01*
X163750200Y-69096400D02*
X160115200Y-65461400D01*
X163750200Y-72341200D02*
X163750200Y-69096400D01*
X140431400Y-80675600D02*
X140431400Y-80543400D01*
X138012752Y-80558431D02*
X138368831Y-80558431D01*
X139979400Y-81127600D02*
X140431400Y-80675600D01*
X137887752Y-80683431D02*
X138012752Y-80558431D01*
X138368831Y-80558431D02*
X138938000Y-81127600D01*
X138938000Y-81127600D02*
X139979400Y-81127600D01*
X139129200Y-80670400D02*
X139654400Y-80670400D01*
X138567231Y-80108431D02*
X139129200Y-80670400D01*
X139654400Y-80670400D02*
X139781400Y-80543400D01*
X137887752Y-79983431D02*
X138012752Y-80108431D01*
X138012752Y-80108431D02*
X138567231Y-80108431D01*
X127584200Y-76454000D02*
X115951000Y-76454000D01*
X114617500Y-75120500D02*
X114617500Y-73710800D01*
X115951000Y-76454000D02*
X114617500Y-75120500D01*
X130962400Y-68224400D02*
X130962400Y-68224400D01*
X113957100Y-60096400D02*
X112420400Y-61633100D01*
X125552200Y-60096400D02*
X113957100Y-60096400D01*
X130962400Y-68961000D02*
X130962400Y-65506600D01*
X112420400Y-61633100D02*
X112420400Y-64693800D01*
X130962400Y-65506600D02*
X125552200Y-60096400D01*
X113830100Y-61798200D02*
X113830100Y-61798200D01*
X124536200Y-60985400D02*
X114566700Y-60985400D01*
X114566700Y-60985400D02*
X113753900Y-61798200D01*
X129895600Y-67741800D02*
X129895600Y-66344800D01*
X129895600Y-66344800D02*
X124536200Y-60985400D01*
X115506500Y-61849000D02*
X114833400Y-62522100D01*
X128752600Y-68961000D02*
X128752600Y-66954400D01*
X123647200Y-61849000D02*
X115506500Y-61849000D01*
X128752600Y-66954400D02*
X123647200Y-61849000D01*
X157708600Y-98272600D02*
X156387800Y-98272600D01*
X158292800Y-96774000D02*
X158292800Y-97688400D01*
X158292800Y-97688400D02*
X157708600Y-98272600D01*
X149663800Y-96216600D02*
X149263800Y-96216600D01*
X149860000Y-96412800D02*
X149663800Y-96216600D01*
X149860000Y-98247200D02*
X149860000Y-96412800D01*
D37*
X164896800Y-90018200D02*
X164896800Y-91998800D01*
D40*
X157010100Y-92379800D02*
X157010100Y-91059000D01*
X156349700Y-93040200D02*
X157010100Y-92379800D01*
X156362400Y-93891100D02*
X156349700Y-93878400D01*
X156349700Y-93878400D02*
X156349700Y-93040200D01*
D35*
X157784800Y-88620600D02*
X157861000Y-88620600D01*
X156743400Y-87579200D02*
X157784800Y-88620600D01*
X124841000Y-70383400D02*
X124841000Y-74599800D01*
X120243600Y-68478400D02*
X120878600Y-69113400D01*
X123571000Y-69113400D02*
X124841000Y-70383400D01*
X120878600Y-69113400D02*
X123571000Y-69113400D01*
D34*
X151193500Y-57200800D02*
X146392900Y-57200800D01*
X152527000Y-58534300D02*
X151193500Y-57200800D01*
X113601500Y-71018400D02*
X113474500Y-70891400D01*
X113601500Y-72288400D02*
X113601500Y-71018400D01*
X117259000Y-74701400D02*
X116014500Y-74701400D01*
X119062500Y-74701400D02*
X117259000Y-74701400D01*
X114998500Y-67462400D02*
X116014372Y-67462400D01*
X122244385Y-67995800D02*
X121678700Y-67995800D01*
X122872500Y-67995800D02*
X122244385Y-67995800D01*
X120307100Y-64947802D02*
X120307100Y-63881000D01*
X120269002Y-64985900D02*
X120307100Y-64947802D01*
X168630400Y-76657200D02*
X168619800Y-76667800D01*
X170002200Y-76657200D02*
X168630400Y-76657200D01*
X118529100Y-65938500D02*
X118529100Y-67462400D01*
X139052300Y-58508900D02*
X138379200Y-58508900D01*
X138379200Y-59677300D02*
X138379200Y-58508900D01*
X137045700Y-57175400D02*
X138379200Y-58508900D01*
X132245100Y-57175400D02*
X137045700Y-57175400D01*
X153085800Y-82575400D02*
X151714200Y-82575400D01*
X138737100Y-68681600D02*
X138737100Y-69873100D01*
X138737100Y-69873100D02*
X138734800Y-69875400D01*
X138737100Y-68681600D02*
X137795000Y-68681600D01*
X138737100Y-68681600D02*
X138737100Y-67515500D01*
X138737100Y-67515500D02*
X138734800Y-67513200D01*
D35*
X122351900Y-86512600D02*
X122351800Y-86512500D01*
D37*
X122351900Y-87655300D02*
X122351900Y-86512600D01*
D34*
X139052300Y-59702700D02*
X139052300Y-58508900D01*
X138391900Y-59702700D02*
X139052300Y-59702700D01*
X138379200Y-59690000D02*
X138391900Y-59702700D01*
X138379200Y-59182000D02*
X139052300Y-58508900D01*
X138379200Y-59702700D02*
X138379200Y-59182000D01*
X138569700Y-59105800D02*
X138379200Y-59105800D01*
X139052300Y-59702700D02*
X139052300Y-59588400D01*
X139052300Y-59588400D02*
X138569700Y-59105800D01*
D37*
X122351900Y-90144500D02*
X122351900Y-87655300D01*
X122351900Y-91440000D02*
X122351900Y-90144500D01*
D39*
X165963600Y-85725000D02*
X164922200Y-85725000D01*
D35*
X113182400Y-86588600D02*
X113182400Y-85826600D01*
X113449100Y-87528400D02*
X113449100Y-86855300D01*
X113449100Y-86855300D02*
X113182400Y-86588600D01*
D37*
X131851400Y-82715100D02*
X132270400Y-83134100D01*
X132270400Y-83134100D02*
X133235700Y-83134100D01*
X130975100Y-82715200D02*
X130975200Y-82715100D01*
X130975200Y-82715100D02*
X131851400Y-82715100D01*
D35*
X155727400Y-94767400D02*
X155727400Y-93878400D01*
X158292800Y-95250000D02*
X156210000Y-95250000D01*
X156210000Y-95250000D02*
X155727400Y-94767400D01*
D39*
X167690800Y-85725000D02*
X169672000Y-85725000D01*
D34*
X134543800Y-74549000D02*
X134543800Y-75514200D01*
X130365400Y-75666700D02*
X130365500Y-75666600D01*
X128701800Y-75793700D02*
X130365400Y-75793700D01*
D37*
X130365500Y-75793600D02*
X130403600Y-75831700D01*
D34*
X131064000Y-75819000D02*
X130378200Y-75819000D01*
X132130800Y-76314300D02*
X131559300Y-76314300D01*
X131559300Y-76314300D02*
X131064000Y-75819000D01*
D38*
X135534400Y-80187800D02*
X134620000Y-81102200D01*
X154381200Y-78790800D02*
X137210800Y-78790800D01*
X135813800Y-80187800D02*
X135534400Y-80187800D01*
X137210800Y-78790800D02*
X135813800Y-80187800D01*
X167551000Y-73367800D02*
X166751000Y-72567800D01*
X165379400Y-72567800D02*
X163728400Y-74218800D01*
X134620000Y-81102200D02*
X133731000Y-81102200D01*
X158953200Y-74218800D02*
X154381200Y-78790800D01*
X168619800Y-73367800D02*
X167551000Y-73367800D01*
X166751000Y-72567800D02*
X165379400Y-72567800D01*
X163728400Y-74218800D02*
X158953200Y-74218800D01*
X132943600Y-81356200D02*
X132943600Y-80314800D01*
X134569200Y-81889600D02*
X133477000Y-81889600D01*
X135509000Y-80949800D02*
X134569200Y-81889600D01*
X133477000Y-81889600D02*
X132943600Y-81356200D01*
X168619800Y-75567800D02*
X161592000Y-75567800D01*
X152806400Y-84353400D02*
X139496800Y-84353400D01*
X136982200Y-80949800D02*
X135509000Y-80949800D01*
X161592000Y-75567800D02*
X152806400Y-84353400D01*
X139496800Y-84353400D02*
X138658600Y-83515200D01*
X138658600Y-82626200D02*
X136982200Y-80949800D01*
X138658600Y-83515200D02*
X138658600Y-82626200D01*
X153238200Y-85064600D02*
X160535000Y-77767800D01*
X137795000Y-82677000D02*
X137795000Y-83693000D01*
X136550400Y-81432400D02*
X137795000Y-82677000D01*
X132156200Y-81407000D02*
X133096000Y-82346800D01*
X139166600Y-85064600D02*
X153238200Y-85064600D01*
X133096000Y-82346800D02*
X134874000Y-82346800D01*
X160535000Y-77767800D02*
X168619800Y-77767800D01*
X137795000Y-83693000D02*
X139166600Y-85064600D01*
X134874000Y-82346800D02*
X135788400Y-81432400D01*
X132156200Y-81102200D02*
X132156200Y-81407000D01*
X135788400Y-81432400D02*
X136550400Y-81432400D01*
G36*
X147855000Y-93524400D02*
G01*
X147599400Y-93524400D01*
X147579891Y-93526321D01*
X147561132Y-93532012D01*
X147543843Y-93541253D01*
X147528689Y-93553689D01*
X147350889Y-93731489D01*
X147338453Y-93746643D01*
X147329212Y-93763932D01*
X147323521Y-93782691D01*
X147321600Y-93802200D01*
X147321600Y-94057800D01*
X145161000Y-94057800D01*
X145141491Y-94059721D01*
X145122732Y-94065412D01*
X145105443Y-94074653D01*
X145090289Y-94087089D01*
X144887089Y-94290289D01*
X144874653Y-94305443D01*
X144865412Y-94322732D01*
X144859721Y-94341491D01*
X144857800Y-94361000D01*
X144857800Y-95097600D01*
X144859721Y-95117109D01*
X144865412Y-95135868D01*
X144874653Y-95153157D01*
X144887089Y-95168311D01*
X145090289Y-95371511D01*
X145105443Y-95383947D01*
X145122732Y-95393188D01*
X145141491Y-95398879D01*
X145161000Y-95400800D01*
X147321600Y-95400800D01*
X147321600Y-95631000D01*
X147323521Y-95650509D01*
X147329212Y-95669268D01*
X147338453Y-95686557D01*
X147350889Y-95701711D01*
X147528689Y-95879511D01*
X147543843Y-95891947D01*
X147561132Y-95901188D01*
X147579891Y-95906879D01*
X147599400Y-95908800D01*
X147855000Y-95908800D01*
X147855000Y-96521600D01*
X147599400Y-96521600D01*
X147579891Y-96523521D01*
X147561132Y-96529212D01*
X147543843Y-96538453D01*
X147528689Y-96550889D01*
X147300089Y-96779489D01*
X147287653Y-96794643D01*
X147278412Y-96811932D01*
X147272721Y-96830691D01*
X147270800Y-96850200D01*
X147270800Y-99094778D01*
X147176978Y-99188600D01*
X146599422Y-99188600D01*
X146505600Y-99094778D01*
X146505600Y-96316800D01*
X146503679Y-96297291D01*
X146497988Y-96278532D01*
X146488747Y-96261243D01*
X146476311Y-96246089D01*
X146247711Y-96017489D01*
X146232557Y-96005053D01*
X146215268Y-95995812D01*
X146196509Y-95990121D01*
X146177000Y-95988200D01*
X144465822Y-95988200D01*
X143991000Y-95513378D01*
X143991000Y-93665822D01*
X144288022Y-93368800D01*
X147396200Y-93368800D01*
X147415709Y-93366879D01*
X147434468Y-93361188D01*
X147451757Y-93351947D01*
X147466911Y-93339511D01*
X147644711Y-93161711D01*
X147657147Y-93146557D01*
X147666388Y-93129268D01*
X147672079Y-93110509D01*
X147674000Y-93091000D01*
X147674000Y-92911600D01*
X147855000Y-92911600D01*
X147855000Y-93524400D01*
G37*
X147855000Y-93524400D02*
X147599400Y-93524400D01*
X147579891Y-93526321D01*
X147561132Y-93532012D01*
X147543843Y-93541253D01*
X147528689Y-93553689D01*
X147350889Y-93731489D01*
X147338453Y-93746643D01*
X147329212Y-93763932D01*
X147323521Y-93782691D01*
X147321600Y-93802200D01*
X147321600Y-94057800D01*
X145161000Y-94057800D01*
X145141491Y-94059721D01*
X145122732Y-94065412D01*
X145105443Y-94074653D01*
X145090289Y-94087089D01*
X144887089Y-94290289D01*
X144874653Y-94305443D01*
X144865412Y-94322732D01*
X144859721Y-94341491D01*
X144857800Y-94361000D01*
X144857800Y-95097600D01*
X144859721Y-95117109D01*
X144865412Y-95135868D01*
X144874653Y-95153157D01*
X144887089Y-95168311D01*
X145090289Y-95371511D01*
X145105443Y-95383947D01*
X145122732Y-95393188D01*
X145141491Y-95398879D01*
X145161000Y-95400800D01*
X147321600Y-95400800D01*
X147321600Y-95631000D01*
X147323521Y-95650509D01*
X147329212Y-95669268D01*
X147338453Y-95686557D01*
X147350889Y-95701711D01*
X147528689Y-95879511D01*
X147543843Y-95891947D01*
X147561132Y-95901188D01*
X147579891Y-95906879D01*
X147599400Y-95908800D01*
X147855000Y-95908800D01*
X147855000Y-96521600D01*
X147599400Y-96521600D01*
X147579891Y-96523521D01*
X147561132Y-96529212D01*
X147543843Y-96538453D01*
X147528689Y-96550889D01*
X147300089Y-96779489D01*
X147287653Y-96794643D01*
X147278412Y-96811932D01*
X147272721Y-96830691D01*
X147270800Y-96850200D01*
X147270800Y-99094778D01*
X147176978Y-99188600D01*
X146599422Y-99188600D01*
X146505600Y-99094778D01*
X146505600Y-96316800D01*
X146503679Y-96297291D01*
X146497988Y-96278532D01*
X146488747Y-96261243D01*
X146476311Y-96246089D01*
X146247711Y-96017489D01*
X146232557Y-96005053D01*
X146215268Y-95995812D01*
X146196509Y-95990121D01*
X146177000Y-95988200D01*
X144465822Y-95988200D01*
X143991000Y-95513378D01*
X143991000Y-93665822D01*
X144288022Y-93368800D01*
X147396200Y-93368800D01*
X147415709Y-93366879D01*
X147434468Y-93361188D01*
X147451757Y-93351947D01*
X147466911Y-93339511D01*
X147644711Y-93161711D01*
X147657147Y-93146557D01*
X147666388Y-93129268D01*
X147672079Y-93110509D01*
X147674000Y-93091000D01*
X147674000Y-92911600D01*
X147855000Y-92911600D01*
X147855000Y-93524400D01*
G36*
X148820200Y-99120178D02*
G01*
X148751778Y-99188600D01*
X148174222Y-99188600D01*
X148105800Y-99120178D01*
X148105800Y-98288622D01*
X148686111Y-97708311D01*
X148698547Y-97693157D01*
X148707788Y-97675868D01*
X148713479Y-97657109D01*
X148715400Y-97637600D01*
X148715400Y-95959600D01*
X148820200Y-95959600D01*
X148820200Y-99120178D01*
G37*
X148820200Y-99120178D02*
X148751778Y-99188600D01*
X148174222Y-99188600D01*
X148105800Y-99120178D01*
X148105800Y-98288622D01*
X148686111Y-97708311D01*
X148698547Y-97693157D01*
X148707788Y-97675868D01*
X148713479Y-97657109D01*
X148715400Y-97637600D01*
X148715400Y-95959600D01*
X148820200Y-95959600D01*
X148820200Y-99120178D01*
G36*
X154865400Y-90465422D02*
G01*
X154865400Y-91804978D01*
X154771578Y-91898800D01*
X152908000Y-91898800D01*
X152888491Y-91900721D01*
X152869732Y-91906412D01*
X152852443Y-91915653D01*
X152837289Y-91928089D01*
X152637978Y-92127400D01*
X149148800Y-92127400D01*
X149129291Y-92129321D01*
X149110532Y-92135012D01*
X149093243Y-92144253D01*
X149078089Y-92156689D01*
X148874889Y-92359889D01*
X148862453Y-92375043D01*
X148853212Y-92392332D01*
X148847521Y-92411091D01*
X148845600Y-92430600D01*
X148845600Y-93524400D01*
X148182000Y-93524400D01*
X148182000Y-90821022D01*
X148377422Y-90625600D01*
X152628600Y-90625600D01*
X152648109Y-90623679D01*
X152666868Y-90617988D01*
X152684157Y-90608747D01*
X152699311Y-90596311D01*
X152949422Y-90346200D01*
X154746178Y-90346200D01*
X154865400Y-90465422D01*
G37*
X154865400Y-90465422D02*
X154865400Y-91804978D01*
X154771578Y-91898800D01*
X152908000Y-91898800D01*
X152888491Y-91900721D01*
X152869732Y-91906412D01*
X152852443Y-91915653D01*
X152837289Y-91928089D01*
X152637978Y-92127400D01*
X149148800Y-92127400D01*
X149129291Y-92129321D01*
X149110532Y-92135012D01*
X149093243Y-92144253D01*
X149078089Y-92156689D01*
X148874889Y-92359889D01*
X148862453Y-92375043D01*
X148853212Y-92392332D01*
X148847521Y-92411091D01*
X148845600Y-92430600D01*
X148845600Y-93524400D01*
X148182000Y-93524400D01*
X148182000Y-90821022D01*
X148377422Y-90625600D01*
X152628600Y-90625600D01*
X152648109Y-90623679D01*
X152666868Y-90617988D01*
X152684157Y-90608747D01*
X152699311Y-90596311D01*
X152949422Y-90346200D01*
X154746178Y-90346200D01*
X154865400Y-90465422D01*
G36*
X142978200Y-88890622D02*
G01*
X142978200Y-94954578D01*
X142833578Y-95099200D01*
X142306822Y-95099200D01*
X142162200Y-94954578D01*
X142162200Y-88941422D01*
X142306822Y-88796800D01*
X142884378Y-88796800D01*
X142978200Y-88890622D01*
G37*
X142978200Y-88890622D02*
X142978200Y-94954578D01*
X142833578Y-95099200D01*
X142306822Y-95099200D01*
X142162200Y-94954578D01*
X142162200Y-88941422D01*
X142306822Y-88796800D01*
X142884378Y-88796800D01*
X142978200Y-88890622D01*
D41*
G36*
X150405197Y-88431003D02*
G01*
X150424443Y-88446797D01*
X150446399Y-88458533D01*
X150470224Y-88465760D01*
X150495000Y-88468200D01*
X151915594Y-88468200D01*
X152095200Y-88647806D01*
X152095200Y-89507794D01*
X151864794Y-89738200D01*
X145542000Y-89738200D01*
X145517224Y-89740640D01*
X145493399Y-89747867D01*
X145471443Y-89759603D01*
X145452197Y-89775397D01*
X145020397Y-90207197D01*
X145004603Y-90226443D01*
X144992867Y-90248399D01*
X144985640Y-90272224D01*
X144983200Y-90297000D01*
X144983200Y-92631994D01*
X144905194Y-92710000D01*
X144019806Y-92710000D01*
X143941800Y-92631994D01*
X143941800Y-88393806D01*
X144223006Y-88112600D01*
X150086794Y-88112600D01*
X150405197Y-88431003D01*
G37*
X150405197Y-88431003D02*
X150424443Y-88446797D01*
X150446399Y-88458533D01*
X150470224Y-88465760D01*
X150495000Y-88468200D01*
X151915594Y-88468200D01*
X152095200Y-88647806D01*
X152095200Y-89507794D01*
X151864794Y-89738200D01*
X145542000Y-89738200D01*
X145517224Y-89740640D01*
X145493399Y-89747867D01*
X145471443Y-89759603D01*
X145452197Y-89775397D01*
X145020397Y-90207197D01*
X145004603Y-90226443D01*
X144992867Y-90248399D01*
X144985640Y-90272224D01*
X144983200Y-90297000D01*
X144983200Y-92631994D01*
X144905194Y-92710000D01*
X144019806Y-92710000D01*
X143941800Y-92631994D01*
X143941800Y-88393806D01*
X144223006Y-88112600D01*
X150086794Y-88112600D01*
X150405197Y-88431003D01*
G36*
X172897800Y-69938900D02*
G01*
X171437300Y-69938900D01*
X171437300Y-54051200D01*
X171434860Y-54026424D01*
X171427633Y-54002599D01*
X171415897Y-53980643D01*
X171400103Y-53961397D01*
X171380857Y-53945603D01*
X171358901Y-53933867D01*
X171335076Y-53926640D01*
X171310300Y-53924200D01*
X91236800Y-53924200D01*
X91212024Y-53926640D01*
X91188199Y-53933867D01*
X91166243Y-53945603D01*
X91146997Y-53961397D01*
X91131203Y-53980643D01*
X91119467Y-54002599D01*
X91112240Y-54026424D01*
X91109800Y-54051200D01*
X91109800Y-100761800D01*
X91112240Y-100786576D01*
X91119467Y-100810401D01*
X91131203Y-100832357D01*
X91146997Y-100851603D01*
X91166243Y-100867397D01*
X91188199Y-100879133D01*
X91212024Y-100886360D01*
X91236800Y-100888800D01*
X171310300Y-100888800D01*
X171335076Y-100886360D01*
X171358901Y-100879133D01*
X171380857Y-100867397D01*
X171400103Y-100851603D01*
X171415897Y-100832357D01*
X171427633Y-100810401D01*
X171434860Y-100786576D01*
X171437300Y-100761800D01*
X171437300Y-83019900D01*
X172897800Y-83019900D01*
X172897800Y-102438200D01*
X89331800Y-102438200D01*
X89331800Y-52400200D01*
X172897800Y-52400200D01*
X172897800Y-69938900D01*
G37*
X172897800Y-69938900D02*
X171437300Y-69938900D01*
X171437300Y-54051200D01*
X171434860Y-54026424D01*
X171427633Y-54002599D01*
X171415897Y-53980643D01*
X171400103Y-53961397D01*
X171380857Y-53945603D01*
X171358901Y-53933867D01*
X171335076Y-53926640D01*
X171310300Y-53924200D01*
X91236800Y-53924200D01*
X91212024Y-53926640D01*
X91188199Y-53933867D01*
X91166243Y-53945603D01*
X91146997Y-53961397D01*
X91131203Y-53980643D01*
X91119467Y-54002599D01*
X91112240Y-54026424D01*
X91109800Y-54051200D01*
X91109800Y-100761800D01*
X91112240Y-100786576D01*
X91119467Y-100810401D01*
X91131203Y-100832357D01*
X91146997Y-100851603D01*
X91166243Y-100867397D01*
X91188199Y-100879133D01*
X91212024Y-100886360D01*
X91236800Y-100888800D01*
X171310300Y-100888800D01*
X171335076Y-100886360D01*
X171358901Y-100879133D01*
X171380857Y-100867397D01*
X171400103Y-100851603D01*
X171415897Y-100832357D01*
X171427633Y-100810401D01*
X171434860Y-100786576D01*
X171437300Y-100761800D01*
X171437300Y-83019900D01*
X172897800Y-83019900D01*
X172897800Y-102438200D01*
X89331800Y-102438200D01*
X89331800Y-52400200D01*
X172897800Y-52400200D01*
X172897800Y-69938900D01*
G36*
X172897800Y-80264000D02*
G01*
X171437300Y-80264000D01*
X171437300Y-72326500D01*
X172897800Y-72326500D01*
X172897800Y-80264000D01*
G37*
X172897800Y-80264000D02*
X171437300Y-80264000D01*
X171437300Y-72326500D01*
X172897800Y-72326500D01*
X172897800Y-80264000D01*
G36*
X161544000Y-89206606D02*
G01*
X161544000Y-89839800D01*
X161546440Y-89864576D01*
X161553667Y-89888401D01*
X161565403Y-89910357D01*
X161581197Y-89929603D01*
X162052000Y-90400406D01*
X162052000Y-91006394D01*
X161770794Y-91287600D01*
X159539206Y-91287600D01*
X159258000Y-91006394D01*
X159258000Y-90502006D01*
X159564606Y-90195400D01*
X159943800Y-90195400D01*
X159968576Y-90192960D01*
X159992401Y-90185733D01*
X160014357Y-90173997D01*
X160033603Y-90158203D01*
X160338403Y-89853403D01*
X160354197Y-89834157D01*
X160365933Y-89812201D01*
X160373160Y-89788376D01*
X160375600Y-89763600D01*
X160375600Y-89206606D01*
X160453606Y-89128600D01*
X161465994Y-89128600D01*
X161544000Y-89206606D01*
G37*
X161544000Y-89206606D02*
X161544000Y-89839800D01*
X161546440Y-89864576D01*
X161553667Y-89888401D01*
X161565403Y-89910357D01*
X161581197Y-89929603D01*
X162052000Y-90400406D01*
X162052000Y-91006394D01*
X161770794Y-91287600D01*
X159539206Y-91287600D01*
X159258000Y-91006394D01*
X159258000Y-90502006D01*
X159564606Y-90195400D01*
X159943800Y-90195400D01*
X159968576Y-90192960D01*
X159992401Y-90185733D01*
X160014357Y-90173997D01*
X160033603Y-90158203D01*
X160338403Y-89853403D01*
X160354197Y-89834157D01*
X160365933Y-89812201D01*
X160373160Y-89788376D01*
X160375600Y-89763600D01*
X160375600Y-89206606D01*
X160453606Y-89128600D01*
X161465994Y-89128600D01*
X161544000Y-89206606D01*
G36*
X159461200Y-88266806D02*
G01*
X159461200Y-89279194D01*
X158482397Y-90257997D01*
X158466603Y-90277243D01*
X158454867Y-90299199D01*
X158447640Y-90323024D01*
X158445200Y-90347800D01*
X158445200Y-91666794D01*
X158113194Y-91998800D01*
X156415006Y-91998800D01*
X156184600Y-91768394D01*
X156184600Y-90502006D01*
X156415006Y-90271600D01*
X156743400Y-90271600D01*
X156768176Y-90269160D01*
X156792001Y-90261933D01*
X156813957Y-90250197D01*
X156833203Y-90234403D01*
X157239603Y-89828003D01*
X157255397Y-89808757D01*
X157267133Y-89786801D01*
X157274360Y-89762976D01*
X157276800Y-89738200D01*
X157276800Y-88444606D01*
X157608806Y-88112600D01*
X159306994Y-88112600D01*
X159461200Y-88266806D01*
G37*
X159461200Y-88266806D02*
X159461200Y-89279194D01*
X158482397Y-90257997D01*
X158466603Y-90277243D01*
X158454867Y-90299199D01*
X158447640Y-90323024D01*
X158445200Y-90347800D01*
X158445200Y-91666794D01*
X158113194Y-91998800D01*
X156415006Y-91998800D01*
X156184600Y-91768394D01*
X156184600Y-90502006D01*
X156415006Y-90271600D01*
X156743400Y-90271600D01*
X156768176Y-90269160D01*
X156792001Y-90261933D01*
X156813957Y-90250197D01*
X156833203Y-90234403D01*
X157239603Y-89828003D01*
X157255397Y-89808757D01*
X157267133Y-89786801D01*
X157274360Y-89762976D01*
X157276800Y-89738200D01*
X157276800Y-88444606D01*
X157608806Y-88112600D01*
X159306994Y-88112600D01*
X159461200Y-88266806D01*
D42*
G36*
X153733500Y-58450660D02*
G01*
X153733500Y-61640540D01*
X143856620Y-71517420D01*
X143855040Y-71519344D01*
X143853867Y-71521540D01*
X143853144Y-71523922D01*
X143852900Y-71526400D01*
X143852900Y-73095940D01*
X143606340Y-73342500D01*
X132694860Y-73342500D01*
X132422900Y-73070540D01*
X132422900Y-72090460D01*
X132694860Y-71818500D01*
X135382000Y-71818500D01*
X135384478Y-71818256D01*
X135386860Y-71817533D01*
X135389056Y-71816360D01*
X135390980Y-71814780D01*
X135721180Y-71484580D01*
X135722760Y-71482656D01*
X135723933Y-71480460D01*
X135724656Y-71478078D01*
X135724900Y-71475600D01*
X135724900Y-70820460D01*
X135946060Y-70599300D01*
X136595940Y-70599300D01*
X136817100Y-70820460D01*
X136817100Y-71755000D01*
X136817344Y-71757478D01*
X136818067Y-71759860D01*
X136819240Y-71762056D01*
X136820820Y-71763980D01*
X137151020Y-72094180D01*
X137152944Y-72095760D01*
X137155140Y-72096933D01*
X137157522Y-72097656D01*
X137160000Y-72097900D01*
X140131800Y-72097900D01*
X140134278Y-72097656D01*
X140136660Y-72096933D01*
X140138856Y-72095760D01*
X140140780Y-72094180D01*
X152053380Y-60181580D01*
X152054960Y-60179656D01*
X152056133Y-60177460D01*
X152056856Y-60175078D01*
X152057100Y-60172600D01*
X152057100Y-58272860D01*
X152278260Y-58051700D01*
X153334540Y-58051700D01*
X153733500Y-58450660D01*
G37*
X153733500Y-58450660D02*
X153733500Y-61640540D01*
X143856620Y-71517420D01*
X143855040Y-71519344D01*
X143853867Y-71521540D01*
X143853144Y-71523922D01*
X143852900Y-71526400D01*
X143852900Y-73095940D01*
X143606340Y-73342500D01*
X132694860Y-73342500D01*
X132422900Y-73070540D01*
X132422900Y-72090460D01*
X132694860Y-71818500D01*
X135382000Y-71818500D01*
X135384478Y-71818256D01*
X135386860Y-71817533D01*
X135389056Y-71816360D01*
X135390980Y-71814780D01*
X135721180Y-71484580D01*
X135722760Y-71482656D01*
X135723933Y-71480460D01*
X135724656Y-71478078D01*
X135724900Y-71475600D01*
X135724900Y-70820460D01*
X135946060Y-70599300D01*
X136595940Y-70599300D01*
X136817100Y-70820460D01*
X136817100Y-71755000D01*
X136817344Y-71757478D01*
X136818067Y-71759860D01*
X136819240Y-71762056D01*
X136820820Y-71763980D01*
X137151020Y-72094180D01*
X137152944Y-72095760D01*
X137155140Y-72096933D01*
X137157522Y-72097656D01*
X137160000Y-72097900D01*
X140131800Y-72097900D01*
X140134278Y-72097656D01*
X140136660Y-72096933D01*
X140138856Y-72095760D01*
X140140780Y-72094180D01*
X152053380Y-60181580D01*
X152054960Y-60179656D01*
X152056133Y-60177460D01*
X152056856Y-60175078D01*
X152057100Y-60172600D01*
X152057100Y-58272860D01*
X152278260Y-58051700D01*
X153334540Y-58051700D01*
X153733500Y-58450660D01*
M02*
