G04 #@! TF.GenerationSoftware,KiCad,Pcbnew,(5.1.6)-1*
G04 #@! TF.CreationDate,2020-07-25T18:11:16+02:00*
G04 #@! TF.ProjectId,PrecisionTimer_RevF,50726563-6973-4696-9f6e-54696d65725f,rev?*
G04 #@! TF.SameCoordinates,Original*
G04 #@! TF.FileFunction,Soldermask,Bot*
G04 #@! TF.FilePolarity,Negative*
%FSLAX46Y46*%
G04 Gerber Fmt 4.6, Leading zero omitted, Abs format (unit mm)*
G04 Created by KiCad (PCBNEW (5.1.6)-1) date 2020-07-25 18:11:16*
%MOMM*%
%LPD*%
G01*
G04 APERTURE LIST*
%ADD10C,0.100000*%
%ADD11C,0.750800*%
%ADD12R,1.050800X0.750800*%
%ADD13R,0.950800X1.450800*%
%ADD14R,0.750800X1.050800*%
%ADD15R,1.250800X1.500800*%
%ADD16R,1.250800X1.200800*%
%ADD17R,0.500800X1.450800*%
%ADD18R,0.950800X0.850800*%
%ADD19C,1.050800*%
%ADD20R,1.850800X4.450800*%
%ADD21O,1.850800X4.050800*%
%ADD22O,4.050800X1.850800*%
%ADD23C,1.850800*%
%ADD24C,1.450800*%
%ADD25C,2.075800*%
%ADD26C,1.481800*%
%ADD27R,1.850800X1.850800*%
%ADD28R,0.800800X0.350800*%
%ADD29R,0.350800X0.800800*%
%ADD30C,2.300800*%
G04 APERTURE END LIST*
D10*
G36*
X173278800Y-51968400D02*
G01*
X173278800Y-70192900D01*
X171119800Y-70192900D01*
X171119800Y-54254400D01*
X91440000Y-54254400D01*
X91440000Y-102819200D01*
X88887300Y-102819200D01*
X88887300Y-51955700D01*
X173278800Y-51968400D01*
G37*
X173278800Y-51968400D02*
X173278800Y-70192900D01*
X171119800Y-70192900D01*
X171119800Y-54254400D01*
X91440000Y-54254400D01*
X91440000Y-102819200D01*
X88887300Y-102819200D01*
X88887300Y-51955700D01*
X173278800Y-51968400D01*
G36*
X173278800Y-102819200D02*
G01*
X91173300Y-102819200D01*
X91173300Y-100596700D01*
X171119800Y-100584000D01*
X171119800Y-82778600D01*
X173278800Y-82778600D01*
X173278800Y-102819200D01*
G37*
X173278800Y-102819200D02*
X91173300Y-102819200D01*
X91173300Y-100596700D01*
X171119800Y-100584000D01*
X171119800Y-82778600D01*
X173278800Y-82778600D01*
X173278800Y-102819200D01*
G36*
G01*
X130706150Y-82252300D02*
X131244050Y-82252300D01*
G75*
G02*
X131475500Y-82483750I0J-231450D01*
G01*
X131475500Y-82946650D01*
G75*
G02*
X131244050Y-83178100I-231450J0D01*
G01*
X130706150Y-83178100D01*
G75*
G02*
X130474700Y-82946650I0J231450D01*
G01*
X130474700Y-82483750D01*
G75*
G02*
X130706150Y-82252300I231450J0D01*
G01*
G37*
G36*
G01*
X130706150Y-80677300D02*
X131244050Y-80677300D01*
G75*
G02*
X131475500Y-80908750I0J-231450D01*
G01*
X131475500Y-81371650D01*
G75*
G02*
X131244050Y-81603100I-231450J0D01*
G01*
X130706150Y-81603100D01*
G75*
G02*
X130474700Y-81371650I0J231450D01*
G01*
X130474700Y-80908750D01*
G75*
G02*
X130706150Y-80677300I231450J0D01*
G01*
G37*
G36*
G01*
X132966750Y-84246200D02*
X133504650Y-84246200D01*
G75*
G02*
X133736100Y-84477650I0J-231450D01*
G01*
X133736100Y-84940550D01*
G75*
G02*
X133504650Y-85172000I-231450J0D01*
G01*
X132966750Y-85172000D01*
G75*
G02*
X132735300Y-84940550I0J231450D01*
G01*
X132735300Y-84477650D01*
G75*
G02*
X132966750Y-84246200I231450J0D01*
G01*
G37*
G36*
G01*
X132966750Y-82671200D02*
X133504650Y-82671200D01*
G75*
G02*
X133736100Y-82902650I0J-231450D01*
G01*
X133736100Y-83365550D01*
G75*
G02*
X133504650Y-83597000I-231450J0D01*
G01*
X132966750Y-83597000D01*
G75*
G02*
X132735300Y-83365550I0J231450D01*
G01*
X132735300Y-82902650D01*
G75*
G02*
X132966750Y-82671200I231450J0D01*
G01*
G37*
D11*
X145592800Y-95707200D03*
D12*
X168619800Y-72267800D03*
X168619800Y-73367800D03*
X168619800Y-74467800D03*
X168619800Y-75567800D03*
X168619800Y-76667800D03*
X168619800Y-77767800D03*
X168619800Y-78867800D03*
X168619800Y-79967800D03*
D13*
X172409800Y-81617800D03*
D14*
X171259800Y-81817800D03*
D15*
X170109800Y-81592800D03*
D16*
X172259800Y-71192800D03*
X169669800Y-71192800D03*
G36*
G01*
X113645200Y-85557650D02*
X113645200Y-86095550D01*
G75*
G02*
X113413750Y-86327000I-231450J0D01*
G01*
X112950850Y-86327000D01*
G75*
G02*
X112719400Y-86095550I0J231450D01*
G01*
X112719400Y-85557650D01*
G75*
G02*
X112950850Y-85326200I231450J0D01*
G01*
X113413750Y-85326200D01*
G75*
G02*
X113645200Y-85557650I0J-231450D01*
G01*
G37*
G36*
G01*
X115220200Y-85557650D02*
X115220200Y-86095550D01*
G75*
G02*
X114988750Y-86327000I-231450J0D01*
G01*
X114525850Y-86327000D01*
G75*
G02*
X114294400Y-86095550I0J231450D01*
G01*
X114294400Y-85557650D01*
G75*
G02*
X114525850Y-85326200I231450J0D01*
G01*
X114988750Y-85326200D01*
G75*
G02*
X115220200Y-85557650I0J-231450D01*
G01*
G37*
G36*
G01*
X121889000Y-91708950D02*
X121889000Y-91171050D01*
G75*
G02*
X122120450Y-90939600I231450J0D01*
G01*
X122583350Y-90939600D01*
G75*
G02*
X122814800Y-91171050I0J-231450D01*
G01*
X122814800Y-91708950D01*
G75*
G02*
X122583350Y-91940400I-231450J0D01*
G01*
X122120450Y-91940400D01*
G75*
G02*
X121889000Y-91708950I0J231450D01*
G01*
G37*
G36*
G01*
X120314000Y-91708950D02*
X120314000Y-91171050D01*
G75*
G02*
X120545450Y-90939600I231450J0D01*
G01*
X121008350Y-90939600D01*
G75*
G02*
X121239800Y-91171050I0J-231450D01*
G01*
X121239800Y-91708950D01*
G75*
G02*
X121008350Y-91940400I-231450J0D01*
G01*
X120545450Y-91940400D01*
G75*
G02*
X120314000Y-91708950I0J231450D01*
G01*
G37*
G36*
G01*
X121889000Y-89168950D02*
X121889000Y-88631050D01*
G75*
G02*
X122120450Y-88399600I231450J0D01*
G01*
X122583350Y-88399600D01*
G75*
G02*
X122814800Y-88631050I0J-231450D01*
G01*
X122814800Y-89168950D01*
G75*
G02*
X122583350Y-89400400I-231450J0D01*
G01*
X122120450Y-89400400D01*
G75*
G02*
X121889000Y-89168950I0J231450D01*
G01*
G37*
G36*
G01*
X120314000Y-89168950D02*
X120314000Y-88631050D01*
G75*
G02*
X120545450Y-88399600I231450J0D01*
G01*
X121008350Y-88399600D01*
G75*
G02*
X121239800Y-88631050I0J-231450D01*
G01*
X121239800Y-89168950D01*
G75*
G02*
X121008350Y-89400400I-231450J0D01*
G01*
X120545450Y-89400400D01*
G75*
G02*
X120314000Y-89168950I0J231450D01*
G01*
G37*
G36*
G01*
X122082850Y-86049600D02*
X122620750Y-86049600D01*
G75*
G02*
X122852200Y-86281050I0J-231450D01*
G01*
X122852200Y-86743950D01*
G75*
G02*
X122620750Y-86975400I-231450J0D01*
G01*
X122082850Y-86975400D01*
G75*
G02*
X121851400Y-86743950I0J231450D01*
G01*
X121851400Y-86281050D01*
G75*
G02*
X122082850Y-86049600I231450J0D01*
G01*
G37*
G36*
G01*
X122082850Y-84474600D02*
X122620750Y-84474600D01*
G75*
G02*
X122852200Y-84706050I0J-231450D01*
G01*
X122852200Y-85168950D01*
G75*
G02*
X122620750Y-85400400I-231450J0D01*
G01*
X122082850Y-85400400D01*
G75*
G02*
X121851400Y-85168950I0J231450D01*
G01*
X121851400Y-84706050D01*
G75*
G02*
X122082850Y-84474600I231450J0D01*
G01*
G37*
G36*
G01*
X134987350Y-73159200D02*
X134049450Y-73159200D01*
G75*
G02*
X133793000Y-72902750I0J256450D01*
G01*
X133793000Y-72389850D01*
G75*
G02*
X134049450Y-72133400I256450J0D01*
G01*
X134987350Y-72133400D01*
G75*
G02*
X135243800Y-72389850I0J-256450D01*
G01*
X135243800Y-72902750D01*
G75*
G02*
X134987350Y-73159200I-256450J0D01*
G01*
G37*
G36*
G01*
X134987350Y-75034200D02*
X134049450Y-75034200D01*
G75*
G02*
X133793000Y-74777750I0J256450D01*
G01*
X133793000Y-74264850D01*
G75*
G02*
X134049450Y-74008400I256450J0D01*
G01*
X134987350Y-74008400D01*
G75*
G02*
X135243800Y-74264850I0J-256450D01*
G01*
X135243800Y-74777750D01*
G75*
G02*
X134987350Y-75034200I-256450J0D01*
G01*
G37*
G36*
G01*
X136514550Y-73106800D02*
X135976650Y-73106800D01*
G75*
G02*
X135745200Y-72875350I0J231450D01*
G01*
X135745200Y-72412450D01*
G75*
G02*
X135976650Y-72181000I231450J0D01*
G01*
X136514550Y-72181000D01*
G75*
G02*
X136746000Y-72412450I0J-231450D01*
G01*
X136746000Y-72875350D01*
G75*
G02*
X136514550Y-73106800I-231450J0D01*
G01*
G37*
G36*
G01*
X136514550Y-74681800D02*
X135976650Y-74681800D01*
G75*
G02*
X135745200Y-74450350I0J231450D01*
G01*
X135745200Y-73987450D01*
G75*
G02*
X135976650Y-73756000I231450J0D01*
G01*
X136514550Y-73756000D01*
G75*
G02*
X136746000Y-73987450I0J-231450D01*
G01*
X136746000Y-74450350D01*
G75*
G02*
X136514550Y-74681800I-231450J0D01*
G01*
G37*
G36*
G01*
X136733800Y-70901850D02*
X136733800Y-71439750D01*
G75*
G02*
X136502350Y-71671200I-231450J0D01*
G01*
X136039450Y-71671200D01*
G75*
G02*
X135808000Y-71439750I0J231450D01*
G01*
X135808000Y-70901850D01*
G75*
G02*
X136039450Y-70670400I231450J0D01*
G01*
X136502350Y-70670400D01*
G75*
G02*
X136733800Y-70901850I0J-231450D01*
G01*
G37*
G36*
G01*
X138308800Y-70901850D02*
X138308800Y-71439750D01*
G75*
G02*
X138077350Y-71671200I-231450J0D01*
G01*
X137614450Y-71671200D01*
G75*
G02*
X137383000Y-71439750I0J231450D01*
G01*
X137383000Y-70901850D01*
G75*
G02*
X137614450Y-70670400I231450J0D01*
G01*
X138077350Y-70670400D01*
G75*
G02*
X138308800Y-70901850I0J-231450D01*
G01*
G37*
G36*
G01*
X142987050Y-73908400D02*
X143524950Y-73908400D01*
G75*
G02*
X143756400Y-74139850I0J-231450D01*
G01*
X143756400Y-74602750D01*
G75*
G02*
X143524950Y-74834200I-231450J0D01*
G01*
X142987050Y-74834200D01*
G75*
G02*
X142755600Y-74602750I0J231450D01*
G01*
X142755600Y-74139850D01*
G75*
G02*
X142987050Y-73908400I231450J0D01*
G01*
G37*
G36*
G01*
X142987050Y-72333400D02*
X143524950Y-72333400D01*
G75*
G02*
X143756400Y-72564850I0J-231450D01*
G01*
X143756400Y-73027750D01*
G75*
G02*
X143524950Y-73259200I-231450J0D01*
G01*
X142987050Y-73259200D01*
G75*
G02*
X142755600Y-73027750I0J231450D01*
G01*
X142755600Y-72564850D01*
G75*
G02*
X142987050Y-72333400I231450J0D01*
G01*
G37*
G36*
G01*
X140099200Y-69150550D02*
X140099200Y-68212650D01*
G75*
G02*
X140355650Y-67956200I256450J0D01*
G01*
X140868550Y-67956200D01*
G75*
G02*
X141125000Y-68212650I0J-256450D01*
G01*
X141125000Y-69150550D01*
G75*
G02*
X140868550Y-69407000I-256450J0D01*
G01*
X140355650Y-69407000D01*
G75*
G02*
X140099200Y-69150550I0J256450D01*
G01*
G37*
G36*
G01*
X138224200Y-69150550D02*
X138224200Y-68212650D01*
G75*
G02*
X138480650Y-67956200I256450J0D01*
G01*
X138993550Y-67956200D01*
G75*
G02*
X139250000Y-68212650I0J-256450D01*
G01*
X139250000Y-69150550D01*
G75*
G02*
X138993550Y-69407000I-256450J0D01*
G01*
X138480650Y-69407000D01*
G75*
G02*
X138224200Y-69150550I0J256450D01*
G01*
G37*
G36*
G01*
X128970750Y-74681600D02*
X128432850Y-74681600D01*
G75*
G02*
X128201400Y-74450150I0J231450D01*
G01*
X128201400Y-73987250D01*
G75*
G02*
X128432850Y-73755800I231450J0D01*
G01*
X128970750Y-73755800D01*
G75*
G02*
X129202200Y-73987250I0J-231450D01*
G01*
X129202200Y-74450150D01*
G75*
G02*
X128970750Y-74681600I-231450J0D01*
G01*
G37*
G36*
G01*
X128970750Y-76256600D02*
X128432850Y-76256600D01*
G75*
G02*
X128201400Y-76025150I0J231450D01*
G01*
X128201400Y-75562250D01*
G75*
G02*
X128432850Y-75330800I231450J0D01*
G01*
X128970750Y-75330800D01*
G75*
G02*
X129202200Y-75562250I0J-231450D01*
G01*
X129202200Y-76025150D01*
G75*
G02*
X128970750Y-76256600I-231450J0D01*
G01*
G37*
D17*
X156346800Y-93888200D03*
X155696800Y-93888200D03*
X155046800Y-93888200D03*
X154396800Y-93888200D03*
X154396800Y-98288200D03*
X155046800Y-98288200D03*
X155696800Y-98288200D03*
X156346800Y-98288200D03*
D18*
X158943800Y-88595200D03*
X160943800Y-89545200D03*
X160943800Y-87645200D03*
G36*
G01*
X137602250Y-73756000D02*
X138140150Y-73756000D01*
G75*
G02*
X138371600Y-73987450I0J-231450D01*
G01*
X138371600Y-74450350D01*
G75*
G02*
X138140150Y-74681800I-231450J0D01*
G01*
X137602250Y-74681800D01*
G75*
G02*
X137370800Y-74450350I0J231450D01*
G01*
X137370800Y-73987450D01*
G75*
G02*
X137602250Y-73756000I231450J0D01*
G01*
G37*
G36*
G01*
X137602250Y-72181000D02*
X138140150Y-72181000D01*
G75*
G02*
X138371600Y-72412450I0J-231450D01*
G01*
X138371600Y-72875350D01*
G75*
G02*
X138140150Y-73106800I-231450J0D01*
G01*
X137602250Y-73106800D01*
G75*
G02*
X137370800Y-72875350I0J231450D01*
G01*
X137370800Y-72412450D01*
G75*
G02*
X137602250Y-72181000I231450J0D01*
G01*
G37*
G36*
G01*
X158561750Y-95712800D02*
X158023850Y-95712800D01*
G75*
G02*
X157792400Y-95481350I0J231450D01*
G01*
X157792400Y-95018450D01*
G75*
G02*
X158023850Y-94787000I231450J0D01*
G01*
X158561750Y-94787000D01*
G75*
G02*
X158793200Y-95018450I0J-231450D01*
G01*
X158793200Y-95481350D01*
G75*
G02*
X158561750Y-95712800I-231450J0D01*
G01*
G37*
G36*
G01*
X158561750Y-97287800D02*
X158023850Y-97287800D01*
G75*
G02*
X157792400Y-97056350I0J231450D01*
G01*
X157792400Y-96593450D01*
G75*
G02*
X158023850Y-96362000I231450J0D01*
G01*
X158561750Y-96362000D01*
G75*
G02*
X158793200Y-96593450I0J-231450D01*
G01*
X158793200Y-97056350D01*
G75*
G02*
X158561750Y-97287800I-231450J0D01*
G01*
G37*
G36*
G01*
X156149200Y-91727663D02*
X156149200Y-90542737D01*
G75*
G02*
X156407137Y-90284800I257937J0D01*
G01*
X157542063Y-90284800D01*
G75*
G02*
X157800000Y-90542737I0J-257937D01*
G01*
X157800000Y-91727663D01*
G75*
G02*
X157542063Y-91985600I-257937J0D01*
G01*
X156407137Y-91985600D01*
G75*
G02*
X156149200Y-91727663I0J257937D01*
G01*
G37*
G36*
G01*
X153299200Y-91727663D02*
X153299200Y-90542737D01*
G75*
G02*
X153557137Y-90284800I257937J0D01*
G01*
X154692063Y-90284800D01*
G75*
G02*
X154950000Y-90542737I0J-257937D01*
G01*
X154950000Y-91727663D01*
G75*
G02*
X154692063Y-91985600I-257937J0D01*
G01*
X153557137Y-91985600D01*
G75*
G02*
X153299200Y-91727663I0J257937D01*
G01*
G37*
D19*
X164896800Y-91998800D03*
X111417100Y-72923400D03*
X150799800Y-67335400D03*
X112420400Y-64693800D03*
X128752600Y-68961000D03*
X129895600Y-67741800D03*
X146634200Y-91313000D03*
X156743400Y-87579200D03*
D20*
X161696400Y-94818200D03*
D21*
X167894000Y-94818200D03*
D22*
X164896800Y-90018200D03*
G36*
G01*
X129867950Y-75330700D02*
X130405850Y-75330700D01*
G75*
G02*
X130637300Y-75562150I0J-231450D01*
G01*
X130637300Y-76025050D01*
G75*
G02*
X130405850Y-76256500I-231450J0D01*
G01*
X129867950Y-76256500D01*
G75*
G02*
X129636500Y-76025050I0J231450D01*
G01*
X129636500Y-75562150D01*
G75*
G02*
X129867950Y-75330700I231450J0D01*
G01*
G37*
G36*
G01*
X129867950Y-73755700D02*
X130405850Y-73755700D01*
G75*
G02*
X130637300Y-73987150I0J-231450D01*
G01*
X130637300Y-74450050D01*
G75*
G02*
X130405850Y-74681500I-231450J0D01*
G01*
X129867950Y-74681500D01*
G75*
G02*
X129636500Y-74450050I0J231450D01*
G01*
X129636500Y-73987150D01*
G75*
G02*
X129867950Y-73755700I231450J0D01*
G01*
G37*
G36*
G01*
X114000800Y-70749450D02*
X114000800Y-71287350D01*
G75*
G02*
X113769350Y-71518800I-231450J0D01*
G01*
X113306450Y-71518800D01*
G75*
G02*
X113075000Y-71287350I0J231450D01*
G01*
X113075000Y-70749450D01*
G75*
G02*
X113306450Y-70518000I231450J0D01*
G01*
X113769350Y-70518000D01*
G75*
G02*
X114000800Y-70749450I0J-231450D01*
G01*
G37*
G36*
G01*
X115575800Y-70749450D02*
X115575800Y-71287350D01*
G75*
G02*
X115344350Y-71518800I-231450J0D01*
G01*
X114881450Y-71518800D01*
G75*
G02*
X114650000Y-71287350I0J231450D01*
G01*
X114650000Y-70749450D01*
G75*
G02*
X114881450Y-70518000I231450J0D01*
G01*
X115344350Y-70518000D01*
G75*
G02*
X115575800Y-70749450I0J-231450D01*
G01*
G37*
G36*
G01*
X122565450Y-67533000D02*
X123103350Y-67533000D01*
G75*
G02*
X123334800Y-67764450I0J-231450D01*
G01*
X123334800Y-68227350D01*
G75*
G02*
X123103350Y-68458800I-231450J0D01*
G01*
X122565450Y-68458800D01*
G75*
G02*
X122334000Y-68227350I0J231450D01*
G01*
X122334000Y-67764450D01*
G75*
G02*
X122565450Y-67533000I231450J0D01*
G01*
G37*
G36*
G01*
X122565450Y-65958000D02*
X123103350Y-65958000D01*
G75*
G02*
X123334800Y-66189450I0J-231450D01*
G01*
X123334800Y-66652350D01*
G75*
G02*
X123103350Y-66883800I-231450J0D01*
G01*
X122565450Y-66883800D01*
G75*
G02*
X122334000Y-66652350I0J231450D01*
G01*
X122334000Y-66189450D01*
G75*
G02*
X122565450Y-65958000I231450J0D01*
G01*
G37*
G36*
G01*
X151675150Y-89770800D02*
X150737250Y-89770800D01*
G75*
G02*
X150480800Y-89514350I0J256450D01*
G01*
X150480800Y-89001450D01*
G75*
G02*
X150737250Y-88745000I256450J0D01*
G01*
X151675150Y-88745000D01*
G75*
G02*
X151931600Y-89001450I0J-256450D01*
G01*
X151931600Y-89514350D01*
G75*
G02*
X151675150Y-89770800I-256450J0D01*
G01*
G37*
G36*
G01*
X151675150Y-91645800D02*
X150737250Y-91645800D01*
G75*
G02*
X150480800Y-91389350I0J256450D01*
G01*
X150480800Y-90876450D01*
G75*
G02*
X150737250Y-90620000I256450J0D01*
G01*
X151675150Y-90620000D01*
G75*
G02*
X151931600Y-90876450I0J-256450D01*
G01*
X151931600Y-91389350D01*
G75*
G02*
X151675150Y-91645800I-256450J0D01*
G01*
G37*
D23*
X169672000Y-85725000D03*
X169672000Y-88265000D03*
D24*
X165916800Y-79229400D03*
X165916800Y-73729400D03*
D25*
X163620200Y-59027400D03*
X156620200Y-59027400D03*
X163620200Y-64467400D03*
X156620200Y-64467400D03*
D26*
X156890200Y-61747400D03*
X158890200Y-61747400D03*
X160890200Y-61747400D03*
X162890200Y-61747400D03*
G36*
G01*
X168188350Y-67849000D02*
X167650450Y-67849000D01*
G75*
G02*
X167419000Y-67617550I0J231450D01*
G01*
X167419000Y-67154650D01*
G75*
G02*
X167650450Y-66923200I231450J0D01*
G01*
X168188350Y-66923200D01*
G75*
G02*
X168419800Y-67154650I0J-231450D01*
G01*
X168419800Y-67617550D01*
G75*
G02*
X168188350Y-67849000I-231450J0D01*
G01*
G37*
G36*
G01*
X168188350Y-69424000D02*
X167650450Y-69424000D01*
G75*
G02*
X167419000Y-69192550I0J231450D01*
G01*
X167419000Y-68729650D01*
G75*
G02*
X167650450Y-68498200I231450J0D01*
G01*
X168188350Y-68498200D01*
G75*
G02*
X168419800Y-68729650I0J-231450D01*
G01*
X168419800Y-69192550D01*
G75*
G02*
X168188350Y-69424000I-231450J0D01*
G01*
G37*
G36*
G01*
X143085400Y-93942850D02*
X143085400Y-94880750D01*
G75*
G02*
X142828950Y-95137200I-256450J0D01*
G01*
X142316050Y-95137200D01*
G75*
G02*
X142059600Y-94880750I0J256450D01*
G01*
X142059600Y-93942850D01*
G75*
G02*
X142316050Y-93686400I256450J0D01*
G01*
X142828950Y-93686400D01*
G75*
G02*
X143085400Y-93942850I0J-256450D01*
G01*
G37*
G36*
G01*
X144960400Y-93942850D02*
X144960400Y-94880750D01*
G75*
G02*
X144703950Y-95137200I-256450J0D01*
G01*
X144191050Y-95137200D01*
G75*
G02*
X143934600Y-94880750I0J256450D01*
G01*
X143934600Y-93942850D01*
G75*
G02*
X144191050Y-93686400I256450J0D01*
G01*
X144703950Y-93686400D01*
G75*
G02*
X144960400Y-93942850I0J-256450D01*
G01*
G37*
G36*
G01*
X147351000Y-98511650D02*
X147351000Y-99049550D01*
G75*
G02*
X147119550Y-99281000I-231450J0D01*
G01*
X146656650Y-99281000D01*
G75*
G02*
X146425200Y-99049550I0J231450D01*
G01*
X146425200Y-98511650D01*
G75*
G02*
X146656650Y-98280200I231450J0D01*
G01*
X147119550Y-98280200D01*
G75*
G02*
X147351000Y-98511650I0J-231450D01*
G01*
G37*
G36*
G01*
X148926000Y-98511650D02*
X148926000Y-99049550D01*
G75*
G02*
X148694550Y-99281000I-231450J0D01*
G01*
X148231650Y-99281000D01*
G75*
G02*
X148000200Y-99049550I0J231450D01*
G01*
X148000200Y-98511650D01*
G75*
G02*
X148231650Y-98280200I231450J0D01*
G01*
X148694550Y-98280200D01*
G75*
G02*
X148926000Y-98511650I0J-231450D01*
G01*
G37*
D27*
X148513800Y-94716600D03*
D28*
X147013800Y-93966600D03*
X147013800Y-94466600D03*
X147013800Y-94966600D03*
X147013800Y-95466600D03*
D29*
X147763800Y-96216600D03*
X148263800Y-96216600D03*
X148763800Y-96216600D03*
X149263800Y-96216600D03*
D28*
X150013800Y-95466600D03*
X150013800Y-94966600D03*
X150013800Y-94466600D03*
X150013800Y-93966600D03*
D29*
X149263800Y-93216600D03*
X148763800Y-93216600D03*
X148263800Y-93216600D03*
X147763800Y-93216600D03*
G36*
G01*
X148600450Y-90520000D02*
X149138350Y-90520000D01*
G75*
G02*
X149369800Y-90751450I0J-231450D01*
G01*
X149369800Y-91214350D01*
G75*
G02*
X149138350Y-91445800I-231450J0D01*
G01*
X148600450Y-91445800D01*
G75*
G02*
X148369000Y-91214350I0J231450D01*
G01*
X148369000Y-90751450D01*
G75*
G02*
X148600450Y-90520000I231450J0D01*
G01*
G37*
G36*
G01*
X148600450Y-88945000D02*
X149138350Y-88945000D01*
G75*
G02*
X149369800Y-89176450I0J-231450D01*
G01*
X149369800Y-89639350D01*
G75*
G02*
X149138350Y-89870800I-231450J0D01*
G01*
X148600450Y-89870800D01*
G75*
G02*
X148369000Y-89639350I0J231450D01*
G01*
X148369000Y-89176450D01*
G75*
G02*
X148600450Y-88945000I231450J0D01*
G01*
G37*
G36*
G01*
X143936900Y-92518550D02*
X143936900Y-91580650D01*
G75*
G02*
X144193350Y-91324200I256450J0D01*
G01*
X144706250Y-91324200D01*
G75*
G02*
X144962700Y-91580650I0J-256450D01*
G01*
X144962700Y-92518550D01*
G75*
G02*
X144706250Y-92775000I-256450J0D01*
G01*
X144193350Y-92775000D01*
G75*
G02*
X143936900Y-92518550I0J256450D01*
G01*
G37*
G36*
G01*
X142061900Y-92518550D02*
X142061900Y-91580650D01*
G75*
G02*
X142318350Y-91324200I256450J0D01*
G01*
X142831250Y-91324200D01*
G75*
G02*
X143087700Y-91580650I0J-256450D01*
G01*
X143087700Y-92518550D01*
G75*
G02*
X142831250Y-92775000I-256450J0D01*
G01*
X142318350Y-92775000D01*
G75*
G02*
X142061900Y-92518550I0J256450D01*
G01*
G37*
G36*
G01*
X143936900Y-90588150D02*
X143936900Y-89650250D01*
G75*
G02*
X144193350Y-89393800I256450J0D01*
G01*
X144706250Y-89393800D01*
G75*
G02*
X144962700Y-89650250I0J-256450D01*
G01*
X144962700Y-90588150D01*
G75*
G02*
X144706250Y-90844600I-256450J0D01*
G01*
X144193350Y-90844600D01*
G75*
G02*
X143936900Y-90588150I0J256450D01*
G01*
G37*
G36*
G01*
X142061900Y-90588150D02*
X142061900Y-89650250D01*
G75*
G02*
X142318350Y-89393800I256450J0D01*
G01*
X142831250Y-89393800D01*
G75*
G02*
X143087700Y-89650250I0J-256450D01*
G01*
X143087700Y-90588150D01*
G75*
G02*
X142831250Y-90844600I-256450J0D01*
G01*
X142318350Y-90844600D01*
G75*
G02*
X142061900Y-90588150I0J256450D01*
G01*
G37*
D30*
X96507300Y-61239400D03*
X99047300Y-58699400D03*
X93967300Y-58699400D03*
X93967300Y-63779400D03*
X99047300Y-63779400D03*
X96532700Y-77419200D03*
X99072700Y-74879200D03*
X93992700Y-74879200D03*
X93992700Y-79959200D03*
X99072700Y-79959200D03*
X96532700Y-93599000D03*
X99072700Y-91059000D03*
X93992700Y-91059000D03*
X93992700Y-96139000D03*
X99072700Y-96139000D03*
G36*
G01*
X151251400Y-82844350D02*
X151251400Y-82306450D01*
G75*
G02*
X151482850Y-82075000I231450J0D01*
G01*
X151945750Y-82075000D01*
G75*
G02*
X152177200Y-82306450I0J-231450D01*
G01*
X152177200Y-82844350D01*
G75*
G02*
X151945750Y-83075800I-231450J0D01*
G01*
X151482850Y-83075800D01*
G75*
G02*
X151251400Y-82844350I0J231450D01*
G01*
G37*
G36*
G01*
X149676400Y-82844350D02*
X149676400Y-82306450D01*
G75*
G02*
X149907850Y-82075000I231450J0D01*
G01*
X150370750Y-82075000D01*
G75*
G02*
X150602200Y-82306450I0J-231450D01*
G01*
X150602200Y-82844350D01*
G75*
G02*
X150370750Y-83075800I-231450J0D01*
G01*
X149907850Y-83075800D01*
G75*
G02*
X149676400Y-82844350I0J231450D01*
G01*
G37*
G36*
G01*
X114497600Y-67731350D02*
X114497600Y-67193450D01*
G75*
G02*
X114729050Y-66962000I231450J0D01*
G01*
X115191950Y-66962000D01*
G75*
G02*
X115423400Y-67193450I0J-231450D01*
G01*
X115423400Y-67731350D01*
G75*
G02*
X115191950Y-67962800I-231450J0D01*
G01*
X114729050Y-67962800D01*
G75*
G02*
X114497600Y-67731350I0J231450D01*
G01*
G37*
G36*
G01*
X112922600Y-67731350D02*
X112922600Y-67193450D01*
G75*
G02*
X113154050Y-66962000I231450J0D01*
G01*
X113616950Y-66962000D01*
G75*
G02*
X113848400Y-67193450I0J-231450D01*
G01*
X113848400Y-67731350D01*
G75*
G02*
X113616950Y-67962800I-231450J0D01*
G01*
X113154050Y-67962800D01*
G75*
G02*
X112922600Y-67731350I0J231450D01*
G01*
G37*
G36*
G01*
X167151800Y-85993950D02*
X167151800Y-85456050D01*
G75*
G02*
X167383250Y-85224600I231450J0D01*
G01*
X167846150Y-85224600D01*
G75*
G02*
X168077600Y-85456050I0J-231450D01*
G01*
X168077600Y-85993950D01*
G75*
G02*
X167846150Y-86225400I-231450J0D01*
G01*
X167383250Y-86225400D01*
G75*
G02*
X167151800Y-85993950I0J231450D01*
G01*
G37*
G36*
G01*
X165576800Y-85993950D02*
X165576800Y-85456050D01*
G75*
G02*
X165808250Y-85224600I231450J0D01*
G01*
X166271150Y-85224600D01*
G75*
G02*
X166502600Y-85456050I0J-231450D01*
G01*
X166502600Y-85993950D01*
G75*
G02*
X166271150Y-86225400I-231450J0D01*
G01*
X165808250Y-86225400D01*
G75*
G02*
X165576800Y-85993950I0J231450D01*
G01*
G37*
G36*
G01*
X120770000Y-63612050D02*
X120770000Y-64149950D01*
G75*
G02*
X120538550Y-64381400I-231450J0D01*
G01*
X120075650Y-64381400D01*
G75*
G02*
X119844200Y-64149950I0J231450D01*
G01*
X119844200Y-63612050D01*
G75*
G02*
X120075650Y-63380600I231450J0D01*
G01*
X120538550Y-63380600D01*
G75*
G02*
X120770000Y-63612050I0J-231450D01*
G01*
G37*
G36*
G01*
X122345000Y-63612050D02*
X122345000Y-64149950D01*
G75*
G02*
X122113550Y-64381400I-231450J0D01*
G01*
X121650650Y-64381400D01*
G75*
G02*
X121419200Y-64149950I0J231450D01*
G01*
X121419200Y-63612050D01*
G75*
G02*
X121650650Y-63380600I231450J0D01*
G01*
X122113550Y-63380600D01*
G75*
G02*
X122345000Y-63612050I0J-231450D01*
G01*
G37*
G36*
G01*
X117269550Y-74238500D02*
X117807450Y-74238500D01*
G75*
G02*
X118038900Y-74469950I0J-231450D01*
G01*
X118038900Y-74932850D01*
G75*
G02*
X117807450Y-75164300I-231450J0D01*
G01*
X117269550Y-75164300D01*
G75*
G02*
X117038100Y-74932850I0J231450D01*
G01*
X117038100Y-74469950D01*
G75*
G02*
X117269550Y-74238500I231450J0D01*
G01*
G37*
G36*
G01*
X117269550Y-72663500D02*
X117807450Y-72663500D01*
G75*
G02*
X118038900Y-72894950I0J-231450D01*
G01*
X118038900Y-73357850D01*
G75*
G02*
X117807450Y-73589300I-231450J0D01*
G01*
X117269550Y-73589300D01*
G75*
G02*
X117038100Y-73357850I0J231450D01*
G01*
X117038100Y-72894950D01*
G75*
G02*
X117269550Y-72663500I231450J0D01*
G01*
G37*
G36*
G01*
X118066300Y-65978750D02*
X118066300Y-65440850D01*
G75*
G02*
X118297750Y-65209400I231450J0D01*
G01*
X118760650Y-65209400D01*
G75*
G02*
X118992100Y-65440850I0J-231450D01*
G01*
X118992100Y-65978750D01*
G75*
G02*
X118760650Y-66210200I-231450J0D01*
G01*
X118297750Y-66210200D01*
G75*
G02*
X118066300Y-65978750I0J231450D01*
G01*
G37*
G36*
G01*
X116491300Y-65978750D02*
X116491300Y-65440850D01*
G75*
G02*
X116722750Y-65209400I231450J0D01*
G01*
X117185650Y-65209400D01*
G75*
G02*
X117417100Y-65440850I0J-231450D01*
G01*
X117417100Y-65978750D01*
G75*
G02*
X117185650Y-66210200I-231450J0D01*
G01*
X116722750Y-66210200D01*
G75*
G02*
X116491300Y-65978750I0J231450D01*
G01*
G37*
M02*
