G04 #@! TF.GenerationSoftware,KiCad,Pcbnew,(5.1.6)-1*
G04 #@! TF.CreationDate,2020-07-25T18:11:15+02:00*
G04 #@! TF.ProjectId,PrecisionTimer_RevF,50726563-6973-4696-9f6e-54696d65725f,rev?*
G04 #@! TF.SameCoordinates,Original*
G04 #@! TF.FileFunction,Copper,L1,Top*
G04 #@! TF.FilePolarity,Positive*
%FSLAX46Y46*%
G04 Gerber Fmt 4.6, Leading zero omitted, Abs format (unit mm)*
G04 Created by KiCad (PCBNEW (5.1.6)-1) date 2020-07-25 18:11:15*
%MOMM*%
%LPD*%
G01*
G04 APERTURE LIST*
G04 #@! TA.AperFunction,NonConductor*
%ADD10C,0.300000*%
G04 #@! TD*
G04 #@! TA.AperFunction,SMDPad,CuDef*
%ADD11C,0.700000*%
G04 #@! TD*
G04 #@! TA.AperFunction,SMDPad,CuDef*
%ADD12C,1.000000*%
G04 #@! TD*
G04 #@! TA.AperFunction,SMDPad,CuDef*
%ADD13R,2.400000X0.740000*%
G04 #@! TD*
G04 #@! TA.AperFunction,SMDPad,CuDef*
%ADD14C,0.800000*%
G04 #@! TD*
G04 #@! TA.AperFunction,SMDPad,CuDef*
%ADD15C,0.350000*%
G04 #@! TD*
G04 #@! TA.AperFunction,SMDPad,CuDef*
%ADD16R,2.300000X2.500000*%
G04 #@! TD*
G04 #@! TA.AperFunction,SMDPad,CuDef*
%ADD17R,1.700000X1.300000*%
G04 #@! TD*
G04 #@! TA.AperFunction,SMDPad,CuDef*
%ADD18R,1.300000X0.700000*%
G04 #@! TD*
G04 #@! TA.AperFunction,SMDPad,CuDef*
%ADD19R,0.300000X0.800000*%
G04 #@! TD*
G04 #@! TA.AperFunction,SMDPad,CuDef*
%ADD20R,1.200000X1.600000*%
G04 #@! TD*
G04 #@! TA.AperFunction,SMDPad,CuDef*
%ADD21R,2.600000X2.600000*%
G04 #@! TD*
G04 #@! TA.AperFunction,SMDPad,CuDef*
%ADD22R,0.300000X0.850000*%
G04 #@! TD*
G04 #@! TA.AperFunction,SMDPad,CuDef*
%ADD23R,0.850000X0.300000*%
G04 #@! TD*
G04 #@! TA.AperFunction,ComponentPad*
%ADD24R,1.800000X4.400000*%
G04 #@! TD*
G04 #@! TA.AperFunction,ComponentPad*
%ADD25O,1.800000X4.000000*%
G04 #@! TD*
G04 #@! TA.AperFunction,ComponentPad*
%ADD26O,4.000000X1.800000*%
G04 #@! TD*
G04 #@! TA.AperFunction,SMDPad,CuDef*
%ADD27R,0.900000X0.800000*%
G04 #@! TD*
G04 #@! TA.AperFunction,ComponentPad*
%ADD28C,1.800000*%
G04 #@! TD*
G04 #@! TA.AperFunction,SMDPad,CuDef*
%ADD29R,6.040000X3.400000*%
G04 #@! TD*
G04 #@! TA.AperFunction,SMDPad,CuDef*
%ADD30R,3.000000X0.700000*%
G04 #@! TD*
G04 #@! TA.AperFunction,ComponentPad*
%ADD31C,2.025000*%
G04 #@! TD*
G04 #@! TA.AperFunction,ComponentPad*
%ADD32C,1.431000*%
G04 #@! TD*
G04 #@! TA.AperFunction,SMDPad,CuDef*
%ADD33R,1.000000X0.900000*%
G04 #@! TD*
G04 #@! TA.AperFunction,SMDPad,CuDef*
%ADD34R,1.100000X0.900000*%
G04 #@! TD*
G04 #@! TA.AperFunction,SMDPad,CuDef*
%ADD35R,0.800000X0.900000*%
G04 #@! TD*
G04 #@! TA.AperFunction,SMDPad,CuDef*
%ADD36R,1.000000X2.510000*%
G04 #@! TD*
G04 #@! TA.AperFunction,SMDPad,CuDef*
%ADD37R,3.300000X3.300000*%
G04 #@! TD*
G04 #@! TA.AperFunction,ComponentPad*
%ADD38C,2.250000*%
G04 #@! TD*
G04 #@! TA.AperFunction,SMDPad,CuDef*
%ADD39R,0.450000X1.475000*%
G04 #@! TD*
G04 #@! TA.AperFunction,ViaPad*
%ADD40C,0.600000*%
G04 #@! TD*
G04 #@! TA.AperFunction,ViaPad*
%ADD41C,0.500000*%
G04 #@! TD*
G04 #@! TA.AperFunction,ViaPad*
%ADD42C,0.800000*%
G04 #@! TD*
G04 #@! TA.AperFunction,ViaPad*
%ADD43C,0.450000*%
G04 #@! TD*
G04 #@! TA.AperFunction,Conductor*
%ADD44C,0.250000*%
G04 #@! TD*
G04 #@! TA.AperFunction,Conductor*
%ADD45C,0.200000*%
G04 #@! TD*
G04 #@! TA.AperFunction,Conductor*
%ADD46C,0.300000*%
G04 #@! TD*
G04 #@! TA.AperFunction,Conductor*
%ADD47C,0.500000*%
G04 #@! TD*
G04 #@! TA.AperFunction,Conductor*
%ADD48C,1.000000*%
G04 #@! TD*
G04 #@! TA.AperFunction,Conductor*
%ADD49C,0.800000*%
G04 #@! TD*
G04 #@! TA.AperFunction,Conductor*
%ADD50C,0.350000*%
G04 #@! TD*
G04 #@! TA.AperFunction,Conductor*
%ADD51C,0.150000*%
G04 #@! TD*
G04 #@! TA.AperFunction,Conductor*
%ADD52C,0.101600*%
G04 #@! TD*
G04 #@! TA.AperFunction,Conductor*
%ADD53C,0.025400*%
G04 #@! TD*
G04 #@! TA.AperFunction,Conductor*
%ADD54C,0.254000*%
G04 #@! TD*
G04 APERTURE END LIST*
D10*
X105863971Y-57142771D02*
X105006828Y-57142771D01*
X105435400Y-57142771D02*
X105435400Y-55642771D01*
X105292542Y-55857057D01*
X105149685Y-55999914D01*
X105006828Y-56071342D01*
D11*
X110223300Y-62839600D03*
D12*
X139801600Y-62509400D03*
G04 #@! TA.AperFunction,SMDPad,CuDef*
G36*
G01*
X135993850Y-84689200D02*
X135481350Y-84689200D01*
G75*
G02*
X135262600Y-84470450I0J218750D01*
G01*
X135262600Y-84032950D01*
G75*
G02*
X135481350Y-83814200I218750J0D01*
G01*
X135993850Y-83814200D01*
G75*
G02*
X136212600Y-84032950I0J-218750D01*
G01*
X136212600Y-84470450D01*
G75*
G02*
X135993850Y-84689200I-218750J0D01*
G01*
G37*
G04 #@! TD.AperFunction*
G04 #@! TA.AperFunction,SMDPad,CuDef*
G36*
G01*
X135993850Y-86264200D02*
X135481350Y-86264200D01*
G75*
G02*
X135262600Y-86045450I0J218750D01*
G01*
X135262600Y-85607950D01*
G75*
G02*
X135481350Y-85389200I218750J0D01*
G01*
X135993850Y-85389200D01*
G75*
G02*
X136212600Y-85607950I0J-218750D01*
G01*
X136212600Y-86045450D01*
G75*
G02*
X135993850Y-86264200I-218750J0D01*
G01*
G37*
G04 #@! TD.AperFunction*
D13*
X116643700Y-93980000D03*
X112743700Y-93980000D03*
X116643700Y-92710000D03*
X112743700Y-92710000D03*
X116643700Y-91440000D03*
X112743700Y-91440000D03*
X116643700Y-90170000D03*
X112743700Y-90170000D03*
X116643700Y-88900000D03*
X112743700Y-88900000D03*
D14*
X155346400Y-66344800D03*
X153822400Y-56032400D03*
X138430000Y-55778400D03*
D11*
X133731000Y-69088000D03*
X127939800Y-72212200D03*
X126263400Y-72263000D03*
X158927800Y-90068400D03*
D15*
X136543600Y-75114600D03*
X135743600Y-75114600D03*
X134943600Y-75114600D03*
X134143600Y-75114600D03*
X133343600Y-75114600D03*
X132543600Y-75114600D03*
X131743600Y-75114600D03*
X130943600Y-75114600D03*
X130143600Y-75114600D03*
X129343600Y-75114600D03*
X136543600Y-75914600D03*
X135743600Y-75914600D03*
X134943600Y-75914600D03*
X134143600Y-75914600D03*
X133343600Y-75914600D03*
X132543600Y-75914600D03*
X131743600Y-75914600D03*
X130943600Y-75914600D03*
X130143600Y-75914600D03*
X129343600Y-75914600D03*
X136543600Y-76714600D03*
X135743600Y-76714600D03*
X134943600Y-76714600D03*
X134143600Y-76714600D03*
X133343600Y-76714600D03*
X132543600Y-76714600D03*
X131743600Y-76714600D03*
X130943600Y-76714600D03*
X130143600Y-76714600D03*
X129343600Y-76714600D03*
X136543600Y-77514600D03*
X135743600Y-77514600D03*
X134943600Y-77514600D03*
X134143600Y-77514600D03*
X133343600Y-77514600D03*
X132543600Y-77514600D03*
X131743600Y-77514600D03*
X130943600Y-77514600D03*
X130143600Y-77514600D03*
X129343600Y-77514600D03*
X136543600Y-78314600D03*
X135743600Y-78314600D03*
X134943600Y-78314600D03*
X134143600Y-78314600D03*
X133343600Y-78314600D03*
X132543600Y-78314600D03*
X131743600Y-78314600D03*
X130943600Y-78314600D03*
X130143600Y-78314600D03*
X129343600Y-78314600D03*
X136543600Y-79114600D03*
X135743600Y-79114600D03*
X134943600Y-79114600D03*
X134143600Y-79114600D03*
X133343600Y-79114600D03*
X132543600Y-79114600D03*
X131743600Y-79114600D03*
X130943600Y-79114600D03*
X130143600Y-79114600D03*
X129343600Y-79114600D03*
X136543600Y-79914600D03*
X135743600Y-79914600D03*
X134943600Y-79914600D03*
X134143600Y-79914600D03*
X133343600Y-79914600D03*
X132543600Y-79914600D03*
X131743600Y-79914600D03*
X130943600Y-79914600D03*
X130143600Y-79914600D03*
X129343600Y-79914600D03*
X136543600Y-80714600D03*
X135743600Y-80714600D03*
X134943600Y-80714600D03*
X134143600Y-80714600D03*
X133343600Y-80714600D03*
X132543600Y-80714600D03*
X131743600Y-80714600D03*
X130943600Y-80714600D03*
X130143600Y-80714600D03*
X129343600Y-80714600D03*
X136543600Y-81514600D03*
X135743600Y-81514600D03*
X134943600Y-81514600D03*
X134143600Y-81514600D03*
X133343600Y-81514600D03*
X132543600Y-81514600D03*
X131743600Y-81514600D03*
X130943600Y-81514600D03*
X130143600Y-81514600D03*
X129343600Y-81514600D03*
X136543600Y-82314600D03*
X135743600Y-82314600D03*
X134943600Y-82314600D03*
X134143600Y-82314600D03*
X133343600Y-82314600D03*
X132543600Y-82314600D03*
X131743600Y-82314600D03*
X130943600Y-82314600D03*
X130143600Y-82314600D03*
X129343600Y-82314600D03*
D16*
X157746700Y-97476200D03*
X157746700Y-93176200D03*
G04 #@! TA.AperFunction,SMDPad,CuDef*
G36*
G01*
X157398200Y-91213650D02*
X157398200Y-90701150D01*
G75*
G02*
X157616950Y-90482400I218750J0D01*
G01*
X158054450Y-90482400D01*
G75*
G02*
X158273200Y-90701150I0J-218750D01*
G01*
X158273200Y-91213650D01*
G75*
G02*
X158054450Y-91432400I-218750J0D01*
G01*
X157616950Y-91432400D01*
G75*
G02*
X157398200Y-91213650I0J218750D01*
G01*
G37*
G04 #@! TD.AperFunction*
G04 #@! TA.AperFunction,SMDPad,CuDef*
G36*
G01*
X155823200Y-91213650D02*
X155823200Y-90701150D01*
G75*
G02*
X156041950Y-90482400I218750J0D01*
G01*
X156479450Y-90482400D01*
G75*
G02*
X156698200Y-90701150I0J-218750D01*
G01*
X156698200Y-91213650D01*
G75*
G02*
X156479450Y-91432400I-218750J0D01*
G01*
X156041950Y-91432400D01*
G75*
G02*
X155823200Y-91213650I0J218750D01*
G01*
G37*
G04 #@! TD.AperFunction*
G04 #@! TA.AperFunction,SMDPad,CuDef*
G36*
G01*
X110944950Y-80817200D02*
X111457450Y-80817200D01*
G75*
G02*
X111676200Y-81035950I0J-218750D01*
G01*
X111676200Y-81473450D01*
G75*
G02*
X111457450Y-81692200I-218750J0D01*
G01*
X110944950Y-81692200D01*
G75*
G02*
X110726200Y-81473450I0J218750D01*
G01*
X110726200Y-81035950D01*
G75*
G02*
X110944950Y-80817200I218750J0D01*
G01*
G37*
G04 #@! TD.AperFunction*
G04 #@! TA.AperFunction,SMDPad,CuDef*
G36*
G01*
X110944950Y-79242200D02*
X111457450Y-79242200D01*
G75*
G02*
X111676200Y-79460950I0J-218750D01*
G01*
X111676200Y-79898450D01*
G75*
G02*
X111457450Y-80117200I-218750J0D01*
G01*
X110944950Y-80117200D01*
G75*
G02*
X110726200Y-79898450I0J218750D01*
G01*
X110726200Y-79460950D01*
G75*
G02*
X110944950Y-79242200I218750J0D01*
G01*
G37*
G04 #@! TD.AperFunction*
D17*
X141986000Y-57142500D03*
X141986000Y-60642500D03*
D18*
X147739100Y-58140600D03*
D19*
X148489100Y-59140600D03*
X147989100Y-59140600D03*
X147489100Y-59140600D03*
X146989100Y-59140600D03*
X146989100Y-57140600D03*
X147489100Y-57140600D03*
X147989100Y-57140600D03*
X148489100Y-57140600D03*
D20*
X152704800Y-66573400D03*
G04 #@! TA.AperFunction,SMDPad,CuDef*
G36*
G01*
X153504800Y-66123400D02*
X153504800Y-66023400D01*
G75*
G02*
X153554800Y-65973400I50000J0D01*
G01*
X154004800Y-65973400D01*
G75*
G02*
X154054800Y-66023400I0J-50000D01*
G01*
X154054800Y-66123400D01*
G75*
G02*
X154004800Y-66173400I-50000J0D01*
G01*
X153554800Y-66173400D01*
G75*
G02*
X153504800Y-66123400I0J50000D01*
G01*
G37*
G04 #@! TD.AperFunction*
G04 #@! TA.AperFunction,SMDPad,CuDef*
G36*
G01*
X153504800Y-66623400D02*
X153504800Y-66523400D01*
G75*
G02*
X153554800Y-66473400I50000J0D01*
G01*
X154004800Y-66473400D01*
G75*
G02*
X154054800Y-66523400I0J-50000D01*
G01*
X154054800Y-66623400D01*
G75*
G02*
X154004800Y-66673400I-50000J0D01*
G01*
X153554800Y-66673400D01*
G75*
G02*
X153504800Y-66623400I0J50000D01*
G01*
G37*
G04 #@! TD.AperFunction*
G04 #@! TA.AperFunction,SMDPad,CuDef*
G36*
G01*
X153504800Y-67123400D02*
X153504800Y-67023400D01*
G75*
G02*
X153554800Y-66973400I50000J0D01*
G01*
X154004800Y-66973400D01*
G75*
G02*
X154054800Y-67023400I0J-50000D01*
G01*
X154054800Y-67123400D01*
G75*
G02*
X154004800Y-67173400I-50000J0D01*
G01*
X153554800Y-67173400D01*
G75*
G02*
X153504800Y-67123400I0J50000D01*
G01*
G37*
G04 #@! TD.AperFunction*
G04 #@! TA.AperFunction,SMDPad,CuDef*
G36*
G01*
X151354800Y-67123400D02*
X151354800Y-67023400D01*
G75*
G02*
X151404800Y-66973400I50000J0D01*
G01*
X151854800Y-66973400D01*
G75*
G02*
X151904800Y-67023400I0J-50000D01*
G01*
X151904800Y-67123400D01*
G75*
G02*
X151854800Y-67173400I-50000J0D01*
G01*
X151404800Y-67173400D01*
G75*
G02*
X151354800Y-67123400I0J50000D01*
G01*
G37*
G04 #@! TD.AperFunction*
G04 #@! TA.AperFunction,SMDPad,CuDef*
G36*
G01*
X151354800Y-66623400D02*
X151354800Y-66523400D01*
G75*
G02*
X151404800Y-66473400I50000J0D01*
G01*
X151854800Y-66473400D01*
G75*
G02*
X151904800Y-66523400I0J-50000D01*
G01*
X151904800Y-66623400D01*
G75*
G02*
X151854800Y-66673400I-50000J0D01*
G01*
X151404800Y-66673400D01*
G75*
G02*
X151354800Y-66623400I0J50000D01*
G01*
G37*
G04 #@! TD.AperFunction*
G04 #@! TA.AperFunction,SMDPad,CuDef*
G36*
G01*
X151354800Y-66123400D02*
X151354800Y-66023400D01*
G75*
G02*
X151404800Y-65973400I50000J0D01*
G01*
X151854800Y-65973400D01*
G75*
G02*
X151904800Y-66023400I0J-50000D01*
G01*
X151904800Y-66123400D01*
G75*
G02*
X151854800Y-66173400I-50000J0D01*
G01*
X151404800Y-66173400D01*
G75*
G02*
X151354800Y-66123400I0J50000D01*
G01*
G37*
G04 #@! TD.AperFunction*
G04 #@! TA.AperFunction,SMDPad,CuDef*
G36*
G01*
X151173000Y-56973150D02*
X151173000Y-57885650D01*
G75*
G02*
X150929250Y-58129400I-243750J0D01*
G01*
X150441750Y-58129400D01*
G75*
G02*
X150198000Y-57885650I0J243750D01*
G01*
X150198000Y-56973150D01*
G75*
G02*
X150441750Y-56729400I243750J0D01*
G01*
X150929250Y-56729400D01*
G75*
G02*
X151173000Y-56973150I0J-243750D01*
G01*
G37*
G04 #@! TD.AperFunction*
G04 #@! TA.AperFunction,SMDPad,CuDef*
G36*
G01*
X153048000Y-56973150D02*
X153048000Y-57885650D01*
G75*
G02*
X152804250Y-58129400I-243750J0D01*
G01*
X152316750Y-58129400D01*
G75*
G02*
X152073000Y-57885650I0J243750D01*
G01*
X152073000Y-56973150D01*
G75*
G02*
X152316750Y-56729400I243750J0D01*
G01*
X152804250Y-56729400D01*
G75*
G02*
X153048000Y-56973150I0J-243750D01*
G01*
G37*
G04 #@! TD.AperFunction*
G04 #@! TA.AperFunction,SMDPad,CuDef*
G36*
G01*
X147839200Y-69909600D02*
X147839200Y-71009600D01*
G75*
G02*
X147589200Y-71259600I-250000J0D01*
G01*
X145089200Y-71259600D01*
G75*
G02*
X144839200Y-71009600I0J250000D01*
G01*
X144839200Y-69909600D01*
G75*
G02*
X145089200Y-69659600I250000J0D01*
G01*
X147589200Y-69659600D01*
G75*
G02*
X147839200Y-69909600I0J-250000D01*
G01*
G37*
G04 #@! TD.AperFunction*
G04 #@! TA.AperFunction,SMDPad,CuDef*
G36*
G01*
X152239200Y-69909600D02*
X152239200Y-71009600D01*
G75*
G02*
X151989200Y-71259600I-250000J0D01*
G01*
X149489200Y-71259600D01*
G75*
G02*
X149239200Y-71009600I0J250000D01*
G01*
X149239200Y-69909600D01*
G75*
G02*
X149489200Y-69659600I250000J0D01*
G01*
X151989200Y-69659600D01*
G75*
G02*
X152239200Y-69909600I0J-250000D01*
G01*
G37*
G04 #@! TD.AperFunction*
G04 #@! TA.AperFunction,SMDPad,CuDef*
G36*
G01*
X149130600Y-60835250D02*
X149130600Y-60322750D01*
G75*
G02*
X149349350Y-60104000I218750J0D01*
G01*
X149786850Y-60104000D01*
G75*
G02*
X150005600Y-60322750I0J-218750D01*
G01*
X150005600Y-60835250D01*
G75*
G02*
X149786850Y-61054000I-218750J0D01*
G01*
X149349350Y-61054000D01*
G75*
G02*
X149130600Y-60835250I0J218750D01*
G01*
G37*
G04 #@! TD.AperFunction*
G04 #@! TA.AperFunction,SMDPad,CuDef*
G36*
G01*
X147555600Y-60835250D02*
X147555600Y-60322750D01*
G75*
G02*
X147774350Y-60104000I218750J0D01*
G01*
X148211850Y-60104000D01*
G75*
G02*
X148430600Y-60322750I0J-218750D01*
G01*
X148430600Y-60835250D01*
G75*
G02*
X148211850Y-61054000I-218750J0D01*
G01*
X147774350Y-61054000D01*
G75*
G02*
X147555600Y-60835250I0J218750D01*
G01*
G37*
G04 #@! TD.AperFunction*
G04 #@! TA.AperFunction,SMDPad,CuDef*
G36*
G01*
X146501600Y-83517450D02*
X146501600Y-83004950D01*
G75*
G02*
X146720350Y-82786200I218750J0D01*
G01*
X147157850Y-82786200D01*
G75*
G02*
X147376600Y-83004950I0J-218750D01*
G01*
X147376600Y-83517450D01*
G75*
G02*
X147157850Y-83736200I-218750J0D01*
G01*
X146720350Y-83736200D01*
G75*
G02*
X146501600Y-83517450I0J218750D01*
G01*
G37*
G04 #@! TD.AperFunction*
G04 #@! TA.AperFunction,SMDPad,CuDef*
G36*
G01*
X144926600Y-83517450D02*
X144926600Y-83004950D01*
G75*
G02*
X145145350Y-82786200I218750J0D01*
G01*
X145582850Y-82786200D01*
G75*
G02*
X145801600Y-83004950I0J-218750D01*
G01*
X145801600Y-83517450D01*
G75*
G02*
X145582850Y-83736200I-218750J0D01*
G01*
X145145350Y-83736200D01*
G75*
G02*
X144926600Y-83517450I0J218750D01*
G01*
G37*
G04 #@! TD.AperFunction*
G04 #@! TA.AperFunction,SMDPad,CuDef*
G36*
G01*
X142561000Y-63738600D02*
X141411000Y-63738600D01*
G75*
G02*
X141161000Y-63488600I0J250000D01*
G01*
X141161000Y-62388600D01*
G75*
G02*
X141411000Y-62138600I250000J0D01*
G01*
X142561000Y-62138600D01*
G75*
G02*
X142811000Y-62388600I0J-250000D01*
G01*
X142811000Y-63488600D01*
G75*
G02*
X142561000Y-63738600I-250000J0D01*
G01*
G37*
G04 #@! TD.AperFunction*
G04 #@! TA.AperFunction,SMDPad,CuDef*
G36*
G01*
X142561000Y-66588600D02*
X141411000Y-66588600D01*
G75*
G02*
X141161000Y-66338600I0J250000D01*
G01*
X141161000Y-65238600D01*
G75*
G02*
X141411000Y-64988600I250000J0D01*
G01*
X142561000Y-64988600D01*
G75*
G02*
X142811000Y-65238600I0J-250000D01*
G01*
X142811000Y-66338600D01*
G75*
G02*
X142561000Y-66588600I-250000J0D01*
G01*
G37*
G04 #@! TD.AperFunction*
D21*
X150139400Y-80518000D03*
D22*
X151389400Y-82468000D03*
X150889400Y-82468000D03*
X150389400Y-82468000D03*
X149889400Y-82468000D03*
X149389400Y-82468000D03*
X148889400Y-82468000D03*
D23*
X148189400Y-81768000D03*
X148189400Y-81268000D03*
X148189400Y-80768000D03*
X148189400Y-80268000D03*
X148189400Y-79768000D03*
X148189400Y-79268000D03*
D22*
X148889400Y-78568000D03*
X149389400Y-78568000D03*
X149889400Y-78568000D03*
X150389400Y-78568000D03*
X150889400Y-78568000D03*
X151389400Y-78568000D03*
D23*
X152089400Y-79268000D03*
X152089400Y-79768000D03*
X152089400Y-80268000D03*
X152089400Y-80768000D03*
X152089400Y-81268000D03*
X152089400Y-81768000D03*
D12*
X145338800Y-65862200D03*
D24*
X161696400Y-94818200D03*
D25*
X167894000Y-94818200D03*
D26*
X164896800Y-90018200D03*
D27*
X150607800Y-84692400D03*
X152007800Y-84692400D03*
X152007800Y-85792400D03*
X150607800Y-85792400D03*
D28*
X169672000Y-85725000D03*
X169672000Y-88265000D03*
D29*
X165316800Y-83279400D03*
X165316800Y-69679400D03*
D30*
X158916800Y-75854400D03*
X158916800Y-78354400D03*
X158916800Y-77104400D03*
X158916800Y-74604400D03*
D31*
X163620200Y-59027400D03*
X156620200Y-59027400D03*
X163620200Y-64467400D03*
X156620200Y-64467400D03*
D32*
X156890200Y-61747400D03*
X158890200Y-61747400D03*
X160890200Y-61747400D03*
X162890200Y-61747400D03*
D33*
X110180700Y-68364400D03*
X108030700Y-68364400D03*
X108030700Y-66814400D03*
X110180700Y-66814400D03*
G04 #@! TA.AperFunction,SMDPad,CuDef*
G36*
G01*
X146316200Y-81122300D02*
X146316200Y-80777300D01*
G75*
G02*
X146463700Y-80629800I147500J0D01*
G01*
X146758700Y-80629800D01*
G75*
G02*
X146906200Y-80777300I0J-147500D01*
G01*
X146906200Y-81122300D01*
G75*
G02*
X146758700Y-81269800I-147500J0D01*
G01*
X146463700Y-81269800D01*
G75*
G02*
X146316200Y-81122300I0J147500D01*
G01*
G37*
G04 #@! TD.AperFunction*
G04 #@! TA.AperFunction,SMDPad,CuDef*
G36*
G01*
X145346200Y-81122300D02*
X145346200Y-80777300D01*
G75*
G02*
X145493700Y-80629800I147500J0D01*
G01*
X145788700Y-80629800D01*
G75*
G02*
X145936200Y-80777300I0J-147500D01*
G01*
X145936200Y-81122300D01*
G75*
G02*
X145788700Y-81269800I-147500J0D01*
G01*
X145493700Y-81269800D01*
G75*
G02*
X145346200Y-81122300I0J147500D01*
G01*
G37*
G04 #@! TD.AperFunction*
G04 #@! TA.AperFunction,SMDPad,CuDef*
G36*
G01*
X145936200Y-79735900D02*
X145936200Y-80080900D01*
G75*
G02*
X145788700Y-80228400I-147500J0D01*
G01*
X145493700Y-80228400D01*
G75*
G02*
X145346200Y-80080900I0J147500D01*
G01*
X145346200Y-79735900D01*
G75*
G02*
X145493700Y-79588400I147500J0D01*
G01*
X145788700Y-79588400D01*
G75*
G02*
X145936200Y-79735900I0J-147500D01*
G01*
G37*
G04 #@! TD.AperFunction*
G04 #@! TA.AperFunction,SMDPad,CuDef*
G36*
G01*
X146906200Y-79735900D02*
X146906200Y-80080900D01*
G75*
G02*
X146758700Y-80228400I-147500J0D01*
G01*
X146463700Y-80228400D01*
G75*
G02*
X146316200Y-80080900I0J147500D01*
G01*
X146316200Y-79735900D01*
G75*
G02*
X146463700Y-79588400I147500J0D01*
G01*
X146758700Y-79588400D01*
G75*
G02*
X146906200Y-79735900I0J-147500D01*
G01*
G37*
G04 #@! TD.AperFunction*
D34*
X119009900Y-63673200D03*
X117309900Y-63673200D03*
X117309900Y-64973200D03*
X119009900Y-64973200D03*
G04 #@! TA.AperFunction,SMDPad,CuDef*
G36*
G01*
X145959200Y-78694500D02*
X145959200Y-79039500D01*
G75*
G02*
X145811700Y-79187000I-147500J0D01*
G01*
X145516700Y-79187000D01*
G75*
G02*
X145369200Y-79039500I0J147500D01*
G01*
X145369200Y-78694500D01*
G75*
G02*
X145516700Y-78547000I147500J0D01*
G01*
X145811700Y-78547000D01*
G75*
G02*
X145959200Y-78694500I0J-147500D01*
G01*
G37*
G04 #@! TD.AperFunction*
G04 #@! TA.AperFunction,SMDPad,CuDef*
G36*
G01*
X146929200Y-78694500D02*
X146929200Y-79039500D01*
G75*
G02*
X146781700Y-79187000I-147500J0D01*
G01*
X146486700Y-79187000D01*
G75*
G02*
X146339200Y-79039500I0J147500D01*
G01*
X146339200Y-78694500D01*
G75*
G02*
X146486700Y-78547000I147500J0D01*
G01*
X146781700Y-78547000D01*
G75*
G02*
X146929200Y-78694500I0J-147500D01*
G01*
G37*
G04 #@! TD.AperFunction*
G04 #@! TA.AperFunction,SMDPad,CuDef*
G36*
G01*
X147180800Y-77653100D02*
X147180800Y-77998100D01*
G75*
G02*
X147033300Y-78145600I-147500J0D01*
G01*
X146738300Y-78145600D01*
G75*
G02*
X146590800Y-77998100I0J147500D01*
G01*
X146590800Y-77653100D01*
G75*
G02*
X146738300Y-77505600I147500J0D01*
G01*
X147033300Y-77505600D01*
G75*
G02*
X147180800Y-77653100I0J-147500D01*
G01*
G37*
G04 #@! TD.AperFunction*
G04 #@! TA.AperFunction,SMDPad,CuDef*
G36*
G01*
X148150800Y-77653100D02*
X148150800Y-77998100D01*
G75*
G02*
X148003300Y-78145600I-147500J0D01*
G01*
X147708300Y-78145600D01*
G75*
G02*
X147560800Y-77998100I0J147500D01*
G01*
X147560800Y-77653100D01*
G75*
G02*
X147708300Y-77505600I147500J0D01*
G01*
X148003300Y-77505600D01*
G75*
G02*
X148150800Y-77653100I0J-147500D01*
G01*
G37*
G04 #@! TD.AperFunction*
G04 #@! TA.AperFunction,SMDPad,CuDef*
G36*
G01*
X146316200Y-82189100D02*
X146316200Y-81844100D01*
G75*
G02*
X146463700Y-81696600I147500J0D01*
G01*
X146758700Y-81696600D01*
G75*
G02*
X146906200Y-81844100I0J-147500D01*
G01*
X146906200Y-82189100D01*
G75*
G02*
X146758700Y-82336600I-147500J0D01*
G01*
X146463700Y-82336600D01*
G75*
G02*
X146316200Y-82189100I0J147500D01*
G01*
G37*
G04 #@! TD.AperFunction*
G04 #@! TA.AperFunction,SMDPad,CuDef*
G36*
G01*
X145346200Y-82189100D02*
X145346200Y-81844100D01*
G75*
G02*
X145493700Y-81696600I147500J0D01*
G01*
X145788700Y-81696600D01*
G75*
G02*
X145936200Y-81844100I0J-147500D01*
G01*
X145936200Y-82189100D01*
G75*
G02*
X145788700Y-82336600I-147500J0D01*
G01*
X145493700Y-82336600D01*
G75*
G02*
X145346200Y-82189100I0J147500D01*
G01*
G37*
G04 #@! TD.AperFunction*
G04 #@! TA.AperFunction,SMDPad,CuDef*
G36*
G01*
X154409500Y-83304600D02*
X154409500Y-83649600D01*
G75*
G02*
X154262000Y-83797100I-147500J0D01*
G01*
X153967000Y-83797100D01*
G75*
G02*
X153819500Y-83649600I0J147500D01*
G01*
X153819500Y-83304600D01*
G75*
G02*
X153967000Y-83157100I147500J0D01*
G01*
X154262000Y-83157100D01*
G75*
G02*
X154409500Y-83304600I0J-147500D01*
G01*
G37*
G04 #@! TD.AperFunction*
G04 #@! TA.AperFunction,SMDPad,CuDef*
G36*
G01*
X155379500Y-83304600D02*
X155379500Y-83649600D01*
G75*
G02*
X155232000Y-83797100I-147500J0D01*
G01*
X154937000Y-83797100D01*
G75*
G02*
X154789500Y-83649600I0J147500D01*
G01*
X154789500Y-83304600D01*
G75*
G02*
X154937000Y-83157100I147500J0D01*
G01*
X155232000Y-83157100D01*
G75*
G02*
X155379500Y-83304600I0J-147500D01*
G01*
G37*
G04 #@! TD.AperFunction*
G04 #@! TA.AperFunction,SMDPad,CuDef*
G36*
G01*
X153588500Y-84988900D02*
X153243500Y-84988900D01*
G75*
G02*
X153096000Y-84841400I0J147500D01*
G01*
X153096000Y-84546400D01*
G75*
G02*
X153243500Y-84398900I147500J0D01*
G01*
X153588500Y-84398900D01*
G75*
G02*
X153736000Y-84546400I0J-147500D01*
G01*
X153736000Y-84841400D01*
G75*
G02*
X153588500Y-84988900I-147500J0D01*
G01*
G37*
G04 #@! TD.AperFunction*
G04 #@! TA.AperFunction,SMDPad,CuDef*
G36*
G01*
X153588500Y-85958900D02*
X153243500Y-85958900D01*
G75*
G02*
X153096000Y-85811400I0J147500D01*
G01*
X153096000Y-85516400D01*
G75*
G02*
X153243500Y-85368900I147500J0D01*
G01*
X153588500Y-85368900D01*
G75*
G02*
X153736000Y-85516400I0J-147500D01*
G01*
X153736000Y-85811400D01*
G75*
G02*
X153588500Y-85958900I-147500J0D01*
G01*
G37*
G04 #@! TD.AperFunction*
G04 #@! TA.AperFunction,SMDPad,CuDef*
G36*
G01*
X150889200Y-87063800D02*
X150889200Y-87408800D01*
G75*
G02*
X150741700Y-87556300I-147500J0D01*
G01*
X150446700Y-87556300D01*
G75*
G02*
X150299200Y-87408800I0J147500D01*
G01*
X150299200Y-87063800D01*
G75*
G02*
X150446700Y-86916300I147500J0D01*
G01*
X150741700Y-86916300D01*
G75*
G02*
X150889200Y-87063800I0J-147500D01*
G01*
G37*
G04 #@! TD.AperFunction*
G04 #@! TA.AperFunction,SMDPad,CuDef*
G36*
G01*
X151859200Y-87063800D02*
X151859200Y-87408800D01*
G75*
G02*
X151711700Y-87556300I-147500J0D01*
G01*
X151416700Y-87556300D01*
G75*
G02*
X151269200Y-87408800I0J147500D01*
G01*
X151269200Y-87063800D01*
G75*
G02*
X151416700Y-86916300I147500J0D01*
G01*
X151711700Y-86916300D01*
G75*
G02*
X151859200Y-87063800I0J-147500D01*
G01*
G37*
G04 #@! TD.AperFunction*
G04 #@! TA.AperFunction,SMDPad,CuDef*
G36*
G01*
X149654550Y-76143600D02*
X150167050Y-76143600D01*
G75*
G02*
X150385800Y-76362350I0J-218750D01*
G01*
X150385800Y-76799850D01*
G75*
G02*
X150167050Y-77018600I-218750J0D01*
G01*
X149654550Y-77018600D01*
G75*
G02*
X149435800Y-76799850I0J218750D01*
G01*
X149435800Y-76362350D01*
G75*
G02*
X149654550Y-76143600I218750J0D01*
G01*
G37*
G04 #@! TD.AperFunction*
G04 #@! TA.AperFunction,SMDPad,CuDef*
G36*
G01*
X149654550Y-74568600D02*
X150167050Y-74568600D01*
G75*
G02*
X150385800Y-74787350I0J-218750D01*
G01*
X150385800Y-75224850D01*
G75*
G02*
X150167050Y-75443600I-218750J0D01*
G01*
X149654550Y-75443600D01*
G75*
G02*
X149435800Y-75224850I0J218750D01*
G01*
X149435800Y-74787350D01*
G75*
G02*
X149654550Y-74568600I218750J0D01*
G01*
G37*
G04 #@! TD.AperFunction*
G04 #@! TA.AperFunction,SMDPad,CuDef*
G36*
G01*
X145273050Y-58439800D02*
X145785550Y-58439800D01*
G75*
G02*
X146004300Y-58658550I0J-218750D01*
G01*
X146004300Y-59096050D01*
G75*
G02*
X145785550Y-59314800I-218750J0D01*
G01*
X145273050Y-59314800D01*
G75*
G02*
X145054300Y-59096050I0J218750D01*
G01*
X145054300Y-58658550D01*
G75*
G02*
X145273050Y-58439800I218750J0D01*
G01*
G37*
G04 #@! TD.AperFunction*
G04 #@! TA.AperFunction,SMDPad,CuDef*
G36*
G01*
X145273050Y-56864800D02*
X145785550Y-56864800D01*
G75*
G02*
X146004300Y-57083550I0J-218750D01*
G01*
X146004300Y-57521050D01*
G75*
G02*
X145785550Y-57739800I-218750J0D01*
G01*
X145273050Y-57739800D01*
G75*
G02*
X145054300Y-57521050I0J218750D01*
G01*
X145054300Y-57083550D01*
G75*
G02*
X145273050Y-56864800I218750J0D01*
G01*
G37*
G04 #@! TD.AperFunction*
D35*
X138743600Y-77662000D03*
X138743600Y-76262000D03*
X139843600Y-76262000D03*
X139843600Y-77662000D03*
G04 #@! TA.AperFunction,SMDPad,CuDef*
G36*
G01*
X139040100Y-74668600D02*
X139040100Y-75013600D01*
G75*
G02*
X138892600Y-75161100I-147500J0D01*
G01*
X138597600Y-75161100D01*
G75*
G02*
X138450100Y-75013600I0J147500D01*
G01*
X138450100Y-74668600D01*
G75*
G02*
X138597600Y-74521100I147500J0D01*
G01*
X138892600Y-74521100D01*
G75*
G02*
X139040100Y-74668600I0J-147500D01*
G01*
G37*
G04 #@! TD.AperFunction*
G04 #@! TA.AperFunction,SMDPad,CuDef*
G36*
G01*
X140010100Y-74668600D02*
X140010100Y-75013600D01*
G75*
G02*
X139862600Y-75161100I-147500J0D01*
G01*
X139567600Y-75161100D01*
G75*
G02*
X139420100Y-75013600I0J147500D01*
G01*
X139420100Y-74668600D01*
G75*
G02*
X139567600Y-74521100I147500J0D01*
G01*
X139862600Y-74521100D01*
G75*
G02*
X140010100Y-74668600I0J-147500D01*
G01*
G37*
G04 #@! TD.AperFunction*
G04 #@! TA.AperFunction,SMDPad,CuDef*
G36*
G01*
X141127700Y-77380600D02*
X141472700Y-77380600D01*
G75*
G02*
X141620200Y-77528100I0J-147500D01*
G01*
X141620200Y-77823100D01*
G75*
G02*
X141472700Y-77970600I-147500J0D01*
G01*
X141127700Y-77970600D01*
G75*
G02*
X140980200Y-77823100I0J147500D01*
G01*
X140980200Y-77528100D01*
G75*
G02*
X141127700Y-77380600I147500J0D01*
G01*
G37*
G04 #@! TD.AperFunction*
G04 #@! TA.AperFunction,SMDPad,CuDef*
G36*
G01*
X141127700Y-76410600D02*
X141472700Y-76410600D01*
G75*
G02*
X141620200Y-76558100I0J-147500D01*
G01*
X141620200Y-76853100D01*
G75*
G02*
X141472700Y-77000600I-147500J0D01*
G01*
X141127700Y-77000600D01*
G75*
G02*
X140980200Y-76853100I0J147500D01*
G01*
X140980200Y-76558100D01*
G75*
G02*
X141127700Y-76410600I147500J0D01*
G01*
G37*
G04 #@! TD.AperFunction*
D36*
X138531600Y-92883800D03*
X133451600Y-92883800D03*
X135991600Y-96193800D03*
X130911600Y-96193800D03*
G04 #@! TA.AperFunction,SMDPad,CuDef*
G36*
G01*
X159314400Y-66088550D02*
X159314400Y-66601050D01*
G75*
G02*
X159095650Y-66819800I-218750J0D01*
G01*
X158658150Y-66819800D01*
G75*
G02*
X158439400Y-66601050I0J218750D01*
G01*
X158439400Y-66088550D01*
G75*
G02*
X158658150Y-65869800I218750J0D01*
G01*
X159095650Y-65869800D01*
G75*
G02*
X159314400Y-66088550I0J-218750D01*
G01*
G37*
G04 #@! TD.AperFunction*
G04 #@! TA.AperFunction,SMDPad,CuDef*
G36*
G01*
X160889400Y-66088550D02*
X160889400Y-66601050D01*
G75*
G02*
X160670650Y-66819800I-218750J0D01*
G01*
X160233150Y-66819800D01*
G75*
G02*
X160014400Y-66601050I0J218750D01*
G01*
X160014400Y-66088550D01*
G75*
G02*
X160233150Y-65869800I218750J0D01*
G01*
X160670650Y-65869800D01*
G75*
G02*
X160889400Y-66088550I0J-218750D01*
G01*
G37*
G04 #@! TD.AperFunction*
G04 #@! TA.AperFunction,SMDPad,CuDef*
G36*
G01*
X154302750Y-64104000D02*
X154815250Y-64104000D01*
G75*
G02*
X155034000Y-64322750I0J-218750D01*
G01*
X155034000Y-64760250D01*
G75*
G02*
X154815250Y-64979000I-218750J0D01*
G01*
X154302750Y-64979000D01*
G75*
G02*
X154084000Y-64760250I0J218750D01*
G01*
X154084000Y-64322750D01*
G75*
G02*
X154302750Y-64104000I218750J0D01*
G01*
G37*
G04 #@! TD.AperFunction*
G04 #@! TA.AperFunction,SMDPad,CuDef*
G36*
G01*
X154302750Y-62529000D02*
X154815250Y-62529000D01*
G75*
G02*
X155034000Y-62747750I0J-218750D01*
G01*
X155034000Y-63185250D01*
G75*
G02*
X154815250Y-63404000I-218750J0D01*
G01*
X154302750Y-63404000D01*
G75*
G02*
X154084000Y-63185250I0J218750D01*
G01*
X154084000Y-62747750D01*
G75*
G02*
X154302750Y-62529000I218750J0D01*
G01*
G37*
G04 #@! TD.AperFunction*
G04 #@! TA.AperFunction,SMDPad,CuDef*
G36*
G01*
X160276250Y-56926900D02*
X159763750Y-56926900D01*
G75*
G02*
X159545000Y-56708150I0J218750D01*
G01*
X159545000Y-56270650D01*
G75*
G02*
X159763750Y-56051900I218750J0D01*
G01*
X160276250Y-56051900D01*
G75*
G02*
X160495000Y-56270650I0J-218750D01*
G01*
X160495000Y-56708150D01*
G75*
G02*
X160276250Y-56926900I-218750J0D01*
G01*
G37*
G04 #@! TD.AperFunction*
G04 #@! TA.AperFunction,SMDPad,CuDef*
G36*
G01*
X160276250Y-58501900D02*
X159763750Y-58501900D01*
G75*
G02*
X159545000Y-58283150I0J218750D01*
G01*
X159545000Y-57845650D01*
G75*
G02*
X159763750Y-57626900I218750J0D01*
G01*
X160276250Y-57626900D01*
G75*
G02*
X160495000Y-57845650I0J-218750D01*
G01*
X160495000Y-58283150D01*
G75*
G02*
X160276250Y-58501900I-218750J0D01*
G01*
G37*
G04 #@! TD.AperFunction*
G04 #@! TA.AperFunction,SMDPad,CuDef*
G36*
G01*
X159531700Y-68861650D02*
X159531700Y-68349150D01*
G75*
G02*
X159750450Y-68130400I218750J0D01*
G01*
X160187950Y-68130400D01*
G75*
G02*
X160406700Y-68349150I0J-218750D01*
G01*
X160406700Y-68861650D01*
G75*
G02*
X160187950Y-69080400I-218750J0D01*
G01*
X159750450Y-69080400D01*
G75*
G02*
X159531700Y-68861650I0J218750D01*
G01*
G37*
G04 #@! TD.AperFunction*
G04 #@! TA.AperFunction,SMDPad,CuDef*
G36*
G01*
X157956700Y-68861650D02*
X157956700Y-68349150D01*
G75*
G02*
X158175450Y-68130400I218750J0D01*
G01*
X158612950Y-68130400D01*
G75*
G02*
X158831700Y-68349150I0J-218750D01*
G01*
X158831700Y-68861650D01*
G75*
G02*
X158612950Y-69080400I-218750J0D01*
G01*
X158175450Y-69080400D01*
G75*
G02*
X157956700Y-68861650I0J218750D01*
G01*
G37*
G04 #@! TD.AperFunction*
G04 #@! TA.AperFunction,SMDPad,CuDef*
G36*
G01*
X155021800Y-75588150D02*
X155021800Y-76100650D01*
G75*
G02*
X154803050Y-76319400I-218750J0D01*
G01*
X154365550Y-76319400D01*
G75*
G02*
X154146800Y-76100650I0J218750D01*
G01*
X154146800Y-75588150D01*
G75*
G02*
X154365550Y-75369400I218750J0D01*
G01*
X154803050Y-75369400D01*
G75*
G02*
X155021800Y-75588150I0J-218750D01*
G01*
G37*
G04 #@! TD.AperFunction*
G04 #@! TA.AperFunction,SMDPad,CuDef*
G36*
G01*
X156596800Y-75588150D02*
X156596800Y-76100650D01*
G75*
G02*
X156378050Y-76319400I-218750J0D01*
G01*
X155940550Y-76319400D01*
G75*
G02*
X155721800Y-76100650I0J218750D01*
G01*
X155721800Y-75588150D01*
G75*
G02*
X155940550Y-75369400I218750J0D01*
G01*
X156378050Y-75369400D01*
G75*
G02*
X156596800Y-75588150I0J-218750D01*
G01*
G37*
G04 #@! TD.AperFunction*
G04 #@! TA.AperFunction,SMDPad,CuDef*
G36*
G01*
X160254100Y-83766950D02*
X160254100Y-84279450D01*
G75*
G02*
X160035350Y-84498200I-218750J0D01*
G01*
X159597850Y-84498200D01*
G75*
G02*
X159379100Y-84279450I0J218750D01*
G01*
X159379100Y-83766950D01*
G75*
G02*
X159597850Y-83548200I218750J0D01*
G01*
X160035350Y-83548200D01*
G75*
G02*
X160254100Y-83766950I0J-218750D01*
G01*
G37*
G04 #@! TD.AperFunction*
G04 #@! TA.AperFunction,SMDPad,CuDef*
G36*
G01*
X161829100Y-83766950D02*
X161829100Y-84279450D01*
G75*
G02*
X161610350Y-84498200I-218750J0D01*
G01*
X161172850Y-84498200D01*
G75*
G02*
X160954100Y-84279450I0J218750D01*
G01*
X160954100Y-83766950D01*
G75*
G02*
X161172850Y-83548200I218750J0D01*
G01*
X161610350Y-83548200D01*
G75*
G02*
X161829100Y-83766950I0J-218750D01*
G01*
G37*
G04 #@! TD.AperFunction*
D22*
X119034500Y-68568400D03*
X118534500Y-68568400D03*
X118034500Y-68568400D03*
X117534500Y-68568400D03*
X117034500Y-68568400D03*
X116534500Y-68568400D03*
X116034500Y-68568400D03*
X115534500Y-68568400D03*
D23*
X114834500Y-69268400D03*
X114834500Y-69768400D03*
X114834500Y-70268400D03*
X114834500Y-70768400D03*
X114834500Y-71268400D03*
X114834500Y-71768400D03*
X114834500Y-72268400D03*
X114834500Y-72768400D03*
D22*
X115534500Y-73468400D03*
X116034500Y-73468400D03*
X116534500Y-73468400D03*
X117034500Y-73468400D03*
X117534500Y-73468400D03*
X118034500Y-73468400D03*
X118534500Y-73468400D03*
X119034500Y-73468400D03*
D23*
X119734500Y-72768400D03*
X119734500Y-72268400D03*
X119734500Y-71768400D03*
X119734500Y-71268400D03*
X119734500Y-70768400D03*
X119734500Y-70268400D03*
X119734500Y-69768400D03*
X119734500Y-69268400D03*
D37*
X117284500Y-71018400D03*
D38*
X96507300Y-61239400D03*
X99047300Y-58699400D03*
X93967300Y-58699400D03*
X93967300Y-63779400D03*
X99047300Y-63779400D03*
X96532700Y-77419200D03*
X99072700Y-74879200D03*
X93992700Y-74879200D03*
X93992700Y-79959200D03*
X99072700Y-79959200D03*
X96532700Y-93599000D03*
X99072700Y-91059000D03*
X93992700Y-91059000D03*
X93992700Y-96139000D03*
X99072700Y-96139000D03*
D39*
X110598500Y-72144400D03*
X109948500Y-72144400D03*
X109298500Y-72144400D03*
X108648500Y-72144400D03*
X107998500Y-72144400D03*
X107348500Y-72144400D03*
X106698500Y-72144400D03*
X106698500Y-78020400D03*
X107348500Y-78020400D03*
X107998500Y-78020400D03*
X108648500Y-78020400D03*
X109298500Y-78020400D03*
X109948500Y-78020400D03*
X110598500Y-78020400D03*
G04 #@! TA.AperFunction,SMDPad,CuDef*
G36*
G01*
X154253250Y-69095200D02*
X153340750Y-69095200D01*
G75*
G02*
X153097000Y-68851450I0J243750D01*
G01*
X153097000Y-68363950D01*
G75*
G02*
X153340750Y-68120200I243750J0D01*
G01*
X154253250Y-68120200D01*
G75*
G02*
X154497000Y-68363950I0J-243750D01*
G01*
X154497000Y-68851450D01*
G75*
G02*
X154253250Y-69095200I-243750J0D01*
G01*
G37*
G04 #@! TD.AperFunction*
G04 #@! TA.AperFunction,SMDPad,CuDef*
G36*
G01*
X154253250Y-70970200D02*
X153340750Y-70970200D01*
G75*
G02*
X153097000Y-70726450I0J243750D01*
G01*
X153097000Y-70238950D01*
G75*
G02*
X153340750Y-69995200I243750J0D01*
G01*
X154253250Y-69995200D01*
G75*
G02*
X154497000Y-70238950I0J-243750D01*
G01*
X154497000Y-70726450D01*
G75*
G02*
X154253250Y-70970200I-243750J0D01*
G01*
G37*
G04 #@! TD.AperFunction*
G04 #@! TA.AperFunction,SMDPad,CuDef*
G36*
G01*
X136999800Y-56973150D02*
X136999800Y-57885650D01*
G75*
G02*
X136756050Y-58129400I-243750J0D01*
G01*
X136268550Y-58129400D01*
G75*
G02*
X136024800Y-57885650I0J243750D01*
G01*
X136024800Y-56973150D01*
G75*
G02*
X136268550Y-56729400I243750J0D01*
G01*
X136756050Y-56729400D01*
G75*
G02*
X136999800Y-56973150I0J-243750D01*
G01*
G37*
G04 #@! TD.AperFunction*
G04 #@! TA.AperFunction,SMDPad,CuDef*
G36*
G01*
X138874800Y-56973150D02*
X138874800Y-57885650D01*
G75*
G02*
X138631050Y-58129400I-243750J0D01*
G01*
X138143550Y-58129400D01*
G75*
G02*
X137899800Y-57885650I0J243750D01*
G01*
X137899800Y-56973150D01*
G75*
G02*
X138143550Y-56729400I243750J0D01*
G01*
X138631050Y-56729400D01*
G75*
G02*
X138874800Y-56973150I0J-243750D01*
G01*
G37*
G04 #@! TD.AperFunction*
D18*
X133565900Y-58115200D03*
D19*
X134315900Y-59115200D03*
X133815900Y-59115200D03*
X133315900Y-59115200D03*
X132815900Y-59115200D03*
X132815900Y-57115200D03*
X133315900Y-57115200D03*
X133815900Y-57115200D03*
X134315900Y-57115200D03*
G04 #@! TA.AperFunction,SMDPad,CuDef*
G36*
G01*
X134957400Y-60835250D02*
X134957400Y-60322750D01*
G75*
G02*
X135176150Y-60104000I218750J0D01*
G01*
X135613650Y-60104000D01*
G75*
G02*
X135832400Y-60322750I0J-218750D01*
G01*
X135832400Y-60835250D01*
G75*
G02*
X135613650Y-61054000I-218750J0D01*
G01*
X135176150Y-61054000D01*
G75*
G02*
X134957400Y-60835250I0J218750D01*
G01*
G37*
G04 #@! TD.AperFunction*
G04 #@! TA.AperFunction,SMDPad,CuDef*
G36*
G01*
X133382400Y-60835250D02*
X133382400Y-60322750D01*
G75*
G02*
X133601150Y-60104000I218750J0D01*
G01*
X134038650Y-60104000D01*
G75*
G02*
X134257400Y-60322750I0J-218750D01*
G01*
X134257400Y-60835250D01*
G75*
G02*
X134038650Y-61054000I-218750J0D01*
G01*
X133601150Y-61054000D01*
G75*
G02*
X133382400Y-60835250I0J218750D01*
G01*
G37*
G04 #@! TD.AperFunction*
G04 #@! TA.AperFunction,SMDPad,CuDef*
G36*
G01*
X153138850Y-74097400D02*
X152626350Y-74097400D01*
G75*
G02*
X152407600Y-73878650I0J218750D01*
G01*
X152407600Y-73441150D01*
G75*
G02*
X152626350Y-73222400I218750J0D01*
G01*
X153138850Y-73222400D01*
G75*
G02*
X153357600Y-73441150I0J-218750D01*
G01*
X153357600Y-73878650D01*
G75*
G02*
X153138850Y-74097400I-218750J0D01*
G01*
G37*
G04 #@! TD.AperFunction*
G04 #@! TA.AperFunction,SMDPad,CuDef*
G36*
G01*
X153138850Y-75672400D02*
X152626350Y-75672400D01*
G75*
G02*
X152407600Y-75453650I0J218750D01*
G01*
X152407600Y-75016150D01*
G75*
G02*
X152626350Y-74797400I218750J0D01*
G01*
X153138850Y-74797400D01*
G75*
G02*
X153357600Y-75016150I0J-218750D01*
G01*
X153357600Y-75453650D01*
G75*
G02*
X153138850Y-75672400I-218750J0D01*
G01*
G37*
G04 #@! TD.AperFunction*
G04 #@! TA.AperFunction,SMDPad,CuDef*
G36*
G01*
X131099850Y-58439800D02*
X131612350Y-58439800D01*
G75*
G02*
X131831100Y-58658550I0J-218750D01*
G01*
X131831100Y-59096050D01*
G75*
G02*
X131612350Y-59314800I-218750J0D01*
G01*
X131099850Y-59314800D01*
G75*
G02*
X130881100Y-59096050I0J218750D01*
G01*
X130881100Y-58658550D01*
G75*
G02*
X131099850Y-58439800I218750J0D01*
G01*
G37*
G04 #@! TD.AperFunction*
G04 #@! TA.AperFunction,SMDPad,CuDef*
G36*
G01*
X131099850Y-56864800D02*
X131612350Y-56864800D01*
G75*
G02*
X131831100Y-57083550I0J-218750D01*
G01*
X131831100Y-57521050D01*
G75*
G02*
X131612350Y-57739800I-218750J0D01*
G01*
X131099850Y-57739800D01*
G75*
G02*
X130881100Y-57521050I0J218750D01*
G01*
X130881100Y-57083550D01*
G75*
G02*
X131099850Y-56864800I218750J0D01*
G01*
G37*
G04 #@! TD.AperFunction*
G04 #@! TA.AperFunction,SMDPad,CuDef*
G36*
G01*
X113286250Y-78440800D02*
X112773750Y-78440800D01*
G75*
G02*
X112555000Y-78222050I0J218750D01*
G01*
X112555000Y-77784550D01*
G75*
G02*
X112773750Y-77565800I218750J0D01*
G01*
X113286250Y-77565800D01*
G75*
G02*
X113505000Y-77784550I0J-218750D01*
G01*
X113505000Y-78222050D01*
G75*
G02*
X113286250Y-78440800I-218750J0D01*
G01*
G37*
G04 #@! TD.AperFunction*
G04 #@! TA.AperFunction,SMDPad,CuDef*
G36*
G01*
X113286250Y-80015800D02*
X112773750Y-80015800D01*
G75*
G02*
X112555000Y-79797050I0J218750D01*
G01*
X112555000Y-79359550D01*
G75*
G02*
X112773750Y-79140800I218750J0D01*
G01*
X113286250Y-79140800D01*
G75*
G02*
X113505000Y-79359550I0J-218750D01*
G01*
X113505000Y-79797050D01*
G75*
G02*
X113286250Y-80015800I-218750J0D01*
G01*
G37*
G04 #@! TD.AperFunction*
G04 #@! TA.AperFunction,SMDPad,CuDef*
G36*
G01*
X151440400Y-60322750D02*
X151440400Y-60835250D01*
G75*
G02*
X151221650Y-61054000I-218750J0D01*
G01*
X150784150Y-61054000D01*
G75*
G02*
X150565400Y-60835250I0J218750D01*
G01*
X150565400Y-60322750D01*
G75*
G02*
X150784150Y-60104000I218750J0D01*
G01*
X151221650Y-60104000D01*
G75*
G02*
X151440400Y-60322750I0J-218750D01*
G01*
G37*
G04 #@! TD.AperFunction*
G04 #@! TA.AperFunction,SMDPad,CuDef*
G36*
G01*
X153015400Y-60322750D02*
X153015400Y-60835250D01*
G75*
G02*
X152796650Y-61054000I-218750J0D01*
G01*
X152359150Y-61054000D01*
G75*
G02*
X152140400Y-60835250I0J218750D01*
G01*
X152140400Y-60322750D01*
G75*
G02*
X152359150Y-60104000I218750J0D01*
G01*
X152796650Y-60104000D01*
G75*
G02*
X153015400Y-60322750I0J-218750D01*
G01*
G37*
G04 #@! TD.AperFunction*
G04 #@! TA.AperFunction,SMDPad,CuDef*
G36*
G01*
X137279800Y-60322750D02*
X137279800Y-60835250D01*
G75*
G02*
X137061050Y-61054000I-218750J0D01*
G01*
X136623550Y-61054000D01*
G75*
G02*
X136404800Y-60835250I0J218750D01*
G01*
X136404800Y-60322750D01*
G75*
G02*
X136623550Y-60104000I218750J0D01*
G01*
X137061050Y-60104000D01*
G75*
G02*
X137279800Y-60322750I0J-218750D01*
G01*
G37*
G04 #@! TD.AperFunction*
G04 #@! TA.AperFunction,SMDPad,CuDef*
G36*
G01*
X138854800Y-60322750D02*
X138854800Y-60835250D01*
G75*
G02*
X138636050Y-61054000I-218750J0D01*
G01*
X138198550Y-61054000D01*
G75*
G02*
X137979800Y-60835250I0J218750D01*
G01*
X137979800Y-60322750D01*
G75*
G02*
X138198550Y-60104000I218750J0D01*
G01*
X138636050Y-60104000D01*
G75*
G02*
X138854800Y-60322750I0J-218750D01*
G01*
G37*
G04 #@! TD.AperFunction*
D40*
X131064000Y-86588600D03*
X141008100Y-74498200D03*
X141833600Y-75323700D03*
D41*
X150279100Y-59537600D03*
X150964900Y-59537600D03*
X149542500Y-59537600D03*
D42*
X94818200Y-53162200D03*
X92557600Y-53162200D03*
X97078800Y-53162200D03*
X110286800Y-53136800D03*
X112420400Y-53136800D03*
X103682800Y-53136800D03*
X108102400Y-53136800D03*
X105892600Y-53136800D03*
X101523800Y-53136800D03*
X116611400Y-53136800D03*
X118778800Y-53136800D03*
X120998800Y-53136800D03*
D41*
X150876000Y-79756000D03*
X150139400Y-79756000D03*
X150876000Y-80518000D03*
X150139400Y-80518000D03*
X150139400Y-81254600D03*
X149377400Y-80518000D03*
X150876000Y-81254600D03*
X149377400Y-81254600D03*
X149377400Y-79756000D03*
X152730200Y-66192400D03*
X152730200Y-66954400D03*
D42*
X172148500Y-90618000D03*
X172148500Y-88398000D03*
X172148500Y-97278600D03*
X172148500Y-92838600D03*
X172148500Y-99498600D03*
X172148500Y-95058600D03*
X148971000Y-94259400D03*
X148971000Y-95173800D03*
X148056600Y-95173800D03*
X148056600Y-94259400D03*
X146342100Y-71996300D03*
X147383500Y-71996300D03*
X145288000Y-71996300D03*
X101523800Y-101676200D03*
X103682800Y-101676200D03*
X105816400Y-101676200D03*
X107924600Y-101676200D03*
X110032800Y-101676200D03*
X172147700Y-101676200D03*
X172147700Y-64360050D03*
X172147700Y-62115400D03*
X172147700Y-59870750D03*
X172147700Y-57626100D03*
X172147700Y-55381450D03*
X172147700Y-53136800D03*
X169838800Y-53136800D03*
X167618800Y-53136800D03*
X165398800Y-53136800D03*
X163178800Y-53136800D03*
X160958800Y-53136800D03*
X158738800Y-53136800D03*
X156518800Y-53136800D03*
X154298800Y-53136800D03*
X152078800Y-53136800D03*
X149858800Y-53136800D03*
X147638800Y-53136800D03*
X145418800Y-53136800D03*
X143198800Y-53136800D03*
X140978800Y-53136800D03*
X138758800Y-53136800D03*
X136538800Y-53136800D03*
X134318800Y-53136800D03*
X132098800Y-53136800D03*
X129878800Y-53136800D03*
X127658800Y-53136800D03*
X125438800Y-53136800D03*
X123218800Y-53136800D03*
X116268500Y-70002400D03*
X117284500Y-70002400D03*
X117284500Y-72034400D03*
X116268500Y-72034400D03*
X116268500Y-71018400D03*
X117284500Y-71018400D03*
X118300500Y-72034400D03*
X118300500Y-71018400D03*
X118300500Y-70002400D03*
X108030700Y-65489400D03*
D41*
X135394700Y-59537600D03*
X136131300Y-59537600D03*
X136817100Y-59537600D03*
D42*
X143637000Y-57137300D03*
X140360400Y-57137300D03*
X143637000Y-55765700D03*
X140360400Y-55765700D03*
X141452600Y-55765700D03*
X142544800Y-55765700D03*
X106680000Y-70383400D03*
X113398300Y-66395600D03*
X123888500Y-66395600D03*
X113449100Y-95377000D03*
X110972600Y-91440000D03*
X113398300Y-68529200D03*
X121780300Y-66421000D03*
X110972600Y-90170000D03*
X111340900Y-95377000D03*
X112382300Y-95377000D03*
X114338800Y-101676200D03*
X116558800Y-101676200D03*
X138758800Y-101676200D03*
X163178800Y-101676200D03*
X158738800Y-101676200D03*
X120998800Y-101676200D03*
X154298800Y-101676200D03*
X118778800Y-101676200D03*
X129878800Y-101676200D03*
X149858800Y-101676200D03*
X132098800Y-101676200D03*
X169838800Y-101676200D03*
X152078800Y-101676200D03*
X143198800Y-101676200D03*
X165398800Y-101676200D03*
X127658800Y-101676200D03*
X156518800Y-101676200D03*
X134318800Y-101676200D03*
X136538800Y-101676200D03*
X145418800Y-101676200D03*
X140978800Y-101676200D03*
X123218800Y-101676200D03*
X147638800Y-101676200D03*
X167618800Y-101676200D03*
X125438800Y-101676200D03*
X160958800Y-101676200D03*
X172148500Y-66675000D03*
X172148500Y-69011800D03*
X172148500Y-83947000D03*
X172148500Y-86156800D03*
X158597600Y-84023200D03*
X160020000Y-55422800D03*
X161137600Y-56489600D03*
X158927800Y-56489600D03*
X159816800Y-85267800D03*
X130911600Y-94234000D03*
X115963700Y-63677800D03*
X121881900Y-64973200D03*
X121881900Y-62865000D03*
X154584400Y-74777600D03*
D41*
X137058400Y-74218800D03*
D42*
X168986200Y-67386200D03*
X166878000Y-67386200D03*
D40*
X144653000Y-82016600D03*
D42*
X145669000Y-88950800D03*
X146659600Y-88950800D03*
X147650200Y-88950800D03*
X115887500Y-65735200D03*
X90233500Y-55499000D03*
X90233500Y-57810400D03*
X90233500Y-60147200D03*
X90233500Y-62507600D03*
X90233500Y-64807600D03*
X90233500Y-67107600D03*
X90233500Y-69407600D03*
X90233500Y-71707600D03*
X90233500Y-74007600D03*
X90233500Y-76307600D03*
X90233500Y-78607600D03*
X90233500Y-80907600D03*
X90233500Y-83207600D03*
X90233500Y-85507600D03*
X90233500Y-87807600D03*
X90233500Y-90107600D03*
X90233500Y-92407600D03*
X90233500Y-94707600D03*
X90233500Y-97007600D03*
X90233500Y-99307600D03*
X112115600Y-101676200D03*
X114503200Y-53136800D03*
X99390200Y-53162200D03*
X99390200Y-101676200D03*
X170002200Y-74472800D03*
X160477200Y-98196404D03*
X97078800Y-101676200D03*
X94818200Y-101676200D03*
X92557600Y-101676200D03*
X90233500Y-101676200D03*
X90233500Y-53162200D03*
D43*
X129743200Y-80314800D03*
D40*
X140614400Y-67513200D03*
X141579600Y-68681600D03*
X140614400Y-69875400D03*
X137820400Y-70307200D03*
D43*
X136042400Y-76314300D03*
D40*
X145884900Y-78041500D03*
D42*
X153136600Y-64541400D03*
X150990400Y-75006100D03*
X152882600Y-76352400D03*
X172148500Y-79540100D03*
X172148500Y-77520800D03*
X172148500Y-75514200D03*
X172148500Y-73507600D03*
D40*
X152882600Y-87718900D03*
X153708100Y-86893400D03*
X156032202Y-83489800D03*
D42*
X156260800Y-89408000D03*
D43*
X133731000Y-77927200D03*
D42*
X113004600Y-81229200D03*
D40*
X144195800Y-74396600D03*
D41*
X130124200Y-73279000D03*
X128701800Y-73279000D03*
D40*
X134277100Y-84709000D03*
D43*
X130556000Y-77114400D03*
D42*
X109296200Y-75895200D03*
X108661200Y-79806800D03*
D43*
X135407400Y-79578200D03*
X130556000Y-78714600D03*
D42*
X107998500Y-76532500D03*
X107340400Y-80441800D03*
D43*
X131343400Y-79527400D03*
D42*
X105232200Y-80391000D03*
D43*
X128397000Y-80695800D03*
D42*
X109943900Y-74320400D03*
D43*
X128701800Y-77520800D03*
D42*
X111417100Y-74295000D03*
D43*
X127584200Y-77292200D03*
D42*
X156514800Y-69824600D03*
X157480000Y-69824600D03*
X157474800Y-70795000D03*
X156514800Y-70789800D03*
X142570200Y-88696800D03*
X142570200Y-87249000D03*
D40*
X159410400Y-86969600D03*
X155041600Y-92684600D03*
X120002300Y-67233800D03*
X120357900Y-73647300D03*
X114731800Y-84632800D03*
X119862600Y-91440000D03*
X122440702Y-73647302D03*
X119659400Y-88366600D03*
X119659400Y-82651600D03*
D43*
X134543800Y-79502000D03*
D40*
X122440700Y-69951600D03*
X117218700Y-84939900D03*
D43*
X136144000Y-81915000D03*
D40*
X121361200Y-74422000D03*
D43*
X121513600Y-70662800D03*
D42*
X148005800Y-97256600D03*
X149758400Y-91770200D03*
X154444700Y-96329500D03*
X159766000Y-90728800D03*
X161544000Y-90728800D03*
X160655000Y-90728800D03*
D40*
X150799800Y-67335400D03*
X145999200Y-74269600D03*
X133451600Y-94818200D03*
D43*
X135356600Y-75514200D03*
X126136400Y-83439000D03*
X126136400Y-75361800D03*
D40*
X135991600Y-94234000D03*
D43*
X133731000Y-75514200D03*
X127304800Y-83439000D03*
X126288800Y-74168000D03*
D41*
X163175200Y-72466200D03*
X163875200Y-72466200D03*
X137887752Y-80683431D03*
D43*
X140431400Y-80543400D03*
D41*
X137887752Y-79983431D03*
D43*
X139781400Y-80543400D03*
D40*
X114617500Y-73710800D03*
D43*
X127584200Y-76454000D03*
D40*
X112420400Y-64693800D03*
X130962400Y-68961000D03*
X129895600Y-67741800D03*
X113753900Y-61798200D03*
X128752600Y-68961000D03*
X114833400Y-62522100D03*
D42*
X149860000Y-98247200D03*
D40*
X124841000Y-74599800D03*
X120243600Y-68478400D03*
D41*
X146418300Y-57200800D03*
X152552400Y-59715400D03*
X153238200Y-59728100D03*
X153238200Y-58534300D03*
X152552400Y-59131200D03*
X153238200Y-59131200D03*
X152552400Y-58534300D03*
D43*
X129743200Y-81114900D03*
X131343400Y-77914500D03*
D40*
X132842000Y-72948800D03*
X132842000Y-72212200D03*
D43*
X134543800Y-80314800D03*
D42*
X111340900Y-87528400D03*
X112407700Y-87528400D03*
X113449100Y-87528400D03*
X113601500Y-72288400D03*
X116014500Y-74701400D03*
X119062500Y-74701400D03*
X120307100Y-64973200D03*
D41*
X132245100Y-57175400D03*
D42*
X111391700Y-68351400D03*
X111823500Y-78003400D03*
X116014372Y-67462400D03*
X118529100Y-67462400D03*
X121678700Y-67995800D03*
D40*
X153085800Y-82575400D03*
D42*
X170002200Y-76657200D03*
D40*
X147726400Y-82575400D03*
D42*
X138531600Y-94843600D03*
D40*
X150926804Y-77165196D03*
D41*
X138379200Y-58508900D03*
X139052300Y-58508900D03*
X138379200Y-59105800D03*
X139052300Y-59105800D03*
X138379200Y-59702700D03*
X139052300Y-59702700D03*
D40*
X136956800Y-83159600D03*
D43*
X132943600Y-76314300D03*
D40*
X138734800Y-69875400D03*
X137795000Y-68681600D03*
X138734800Y-67513200D03*
D41*
X129870200Y-83007200D03*
D43*
X137134600Y-76708000D03*
D40*
X122351900Y-87655300D03*
X122351900Y-90144500D03*
D42*
X164922200Y-85725000D03*
D43*
X132156200Y-77927200D03*
X120827800Y-72491600D03*
X134543800Y-75514200D03*
X132130800Y-76314300D03*
X133731000Y-81102200D03*
X132943600Y-80314800D03*
X132156200Y-81102200D03*
D44*
X131743600Y-85909000D02*
X131743600Y-82314600D01*
X131064000Y-86588600D02*
X131743600Y-85909000D01*
D45*
X147489100Y-59140600D02*
X147489100Y-58390600D01*
D44*
X118034500Y-72300400D02*
X118300500Y-72034400D01*
D46*
X118034500Y-73468400D02*
X118034500Y-72300400D01*
D44*
X118034500Y-69736400D02*
X118300500Y-70002400D01*
D46*
X118034500Y-68568400D02*
X118034500Y-69736400D01*
D47*
X108030700Y-66814400D02*
X108030700Y-65489400D01*
D45*
X133315900Y-58365200D02*
X133565900Y-58115200D01*
X133315900Y-59115200D02*
X133315900Y-58365200D01*
D44*
X106698500Y-70427300D02*
X106692700Y-70421500D01*
X106698500Y-72144400D02*
X106698500Y-70427300D01*
D48*
X160020000Y-56489400D02*
X160020000Y-55422800D01*
X160020000Y-56489400D02*
X161137400Y-56489400D01*
X161137400Y-56489400D02*
X161137600Y-56489600D01*
X160020000Y-56489400D02*
X158928000Y-56489400D01*
X158928000Y-56489400D02*
X158927800Y-56489600D01*
X159816600Y-84023200D02*
X159816600Y-85267600D01*
X159816600Y-85267600D02*
X159816800Y-85267800D01*
X159816600Y-84023100D02*
X158597700Y-84023100D01*
X130911600Y-96193800D02*
X130911600Y-94234000D01*
D49*
X117303700Y-63678000D02*
X115963500Y-63678000D01*
D48*
X154584300Y-74777700D02*
X154584400Y-74777600D01*
X154584300Y-75844400D02*
X154584300Y-74777700D01*
D46*
X145641200Y-80949800D02*
X145641200Y-81889600D01*
X145641200Y-81889600D02*
X145641200Y-82016600D01*
X144678398Y-82016600D02*
X144652999Y-82041999D01*
X145641200Y-82016600D02*
X144678398Y-82016600D01*
X145664200Y-78867000D02*
X145638800Y-78892400D01*
X145664200Y-78262200D02*
X145664200Y-78867000D01*
X146885800Y-77825600D02*
X146100800Y-77825600D01*
X146100800Y-77825600D02*
X145884900Y-78041500D01*
D48*
X160077201Y-97796405D02*
X160477200Y-98196404D01*
X158292800Y-97326200D02*
X159606996Y-97326200D01*
X159606996Y-97326200D02*
X160077201Y-97796405D01*
D47*
X156260700Y-89408100D02*
X156260800Y-89408000D01*
X156260700Y-90957400D02*
X156260700Y-89408100D01*
D46*
X130150100Y-80708000D02*
X130150100Y-80708000D01*
X130136400Y-80708000D02*
X129743200Y-80314800D01*
X145641200Y-82958700D02*
X145641200Y-81889600D01*
X145338700Y-83261200D02*
X145641200Y-82958700D01*
X130150100Y-80708000D02*
X130136400Y-80708000D01*
D44*
X151790400Y-66079800D02*
X151452600Y-66079800D01*
D50*
X135743600Y-76714600D02*
X136144000Y-76314200D01*
X136130600Y-76301600D02*
X135743600Y-75914600D01*
X135743600Y-76714600D02*
X135743600Y-75914600D01*
D46*
X145884900Y-78041500D02*
X145664200Y-78262200D01*
D44*
X152450800Y-64541400D02*
X153136600Y-64541400D01*
X151629800Y-66073400D02*
X151629800Y-65362400D01*
X151629800Y-65362400D02*
X152450800Y-64541400D01*
D47*
X149910800Y-75006100D02*
X150990400Y-75006100D01*
X152882600Y-75234900D02*
X152882600Y-76352400D01*
D48*
X154533700Y-64541400D02*
X153136600Y-64541400D01*
D44*
X156019502Y-83477100D02*
X156032202Y-83489800D01*
X155084500Y-83477100D02*
X156019502Y-83477100D01*
D50*
X113004600Y-81229200D02*
X112979100Y-81254700D01*
D47*
X113030000Y-81203800D02*
X113004600Y-81229200D01*
D50*
X112979100Y-81254700D02*
X111201200Y-81254700D01*
D47*
X113030000Y-79578300D02*
X113030000Y-81203800D01*
D50*
X130943600Y-77514600D02*
X130943600Y-77502000D01*
X130943600Y-77502000D02*
X130556000Y-77114400D01*
D44*
X109296200Y-75895200D02*
X109298500Y-75897500D01*
X109298500Y-75897500D02*
X109298500Y-78020400D01*
X108648500Y-79794100D02*
X108648500Y-78020400D01*
X108661200Y-79806800D02*
X108648500Y-79794100D01*
D46*
X135407400Y-79578200D02*
X135743600Y-79914400D01*
X135743600Y-79914400D02*
X135743600Y-79914600D01*
X130943600Y-78327000D02*
X130943600Y-78314600D01*
X130556000Y-78714600D02*
X130943600Y-78327000D01*
D44*
X107998500Y-76532500D02*
X107998500Y-78020400D01*
X107340400Y-80441800D02*
X107348500Y-80433700D01*
X107348500Y-80433700D02*
X107348500Y-78020400D01*
D46*
X131343400Y-79527400D02*
X131356400Y-79527400D01*
X131356400Y-79527400D02*
X131743600Y-79914600D01*
D44*
X129337900Y-80695800D02*
X129350100Y-80708000D01*
X105232200Y-78892400D02*
X105232200Y-80391000D01*
X106698500Y-78020400D02*
X106104200Y-78020400D01*
X106104200Y-78020400D02*
X105232200Y-78892400D01*
D50*
X129343600Y-80714600D02*
X128415800Y-80714600D01*
X128415800Y-80714600D02*
X128397000Y-80695800D01*
D44*
X109948500Y-72144400D02*
X109948500Y-74315800D01*
X109948500Y-74315800D02*
X109943900Y-74320400D01*
D45*
X128708000Y-77514600D02*
X129343600Y-77514600D01*
X128701800Y-77520800D02*
X128708000Y-77514600D01*
D44*
X110598500Y-72144400D02*
X110598500Y-73476400D01*
X110598500Y-73476400D02*
X111417100Y-74295000D01*
D45*
X128473200Y-79908400D02*
X129343600Y-79908400D01*
X127584200Y-79019400D02*
X128473200Y-79908400D01*
X127584200Y-77292200D02*
X127584200Y-79019400D01*
D47*
X155498800Y-71120000D02*
X155829000Y-70789800D01*
X145872200Y-76758800D02*
X146939000Y-76758800D01*
X155829000Y-70789800D02*
X156514800Y-70789800D01*
X148539200Y-74396600D02*
X149301200Y-73634600D01*
X144729200Y-77901800D02*
X145872200Y-76758800D01*
X144729200Y-79502000D02*
X144729200Y-77901800D01*
X145641200Y-79908400D02*
X145135600Y-79908400D01*
X155498800Y-72390000D02*
X155498800Y-71120000D01*
X145135600Y-79908400D02*
X144729200Y-79502000D01*
X146939000Y-76758800D02*
X148539200Y-75158600D01*
X149301200Y-73634600D02*
X154254200Y-73634600D01*
X148539200Y-75158600D02*
X148539200Y-74396600D01*
X154254200Y-73634600D02*
X155498800Y-72390000D01*
D50*
X155041600Y-88988454D02*
X155041600Y-92684600D01*
X159410400Y-86969600D02*
X157060454Y-86969600D01*
X157060454Y-86969600D02*
X155041600Y-88988454D01*
D46*
X119034500Y-68568400D02*
X119034500Y-68201600D01*
X119034500Y-68201600D02*
X120002300Y-67233800D01*
D50*
X115316000Y-92710000D02*
X116643700Y-92710000D01*
X120357900Y-73647300D02*
X120357900Y-76390500D01*
X114731800Y-92125800D02*
X115316000Y-92710000D01*
X114731800Y-82016600D02*
X114731800Y-92125800D01*
X120357900Y-76390500D02*
X114731800Y-82016600D01*
X132969100Y-88595200D02*
X135737600Y-85826700D01*
X126085600Y-88595200D02*
X132969100Y-88595200D01*
X117218700Y-91440000D02*
X123240800Y-91440000D01*
X123240800Y-91440000D02*
X126085600Y-88595200D01*
X122440702Y-73647302D02*
X122440702Y-77965298D01*
X119659400Y-80746600D02*
X119659400Y-88366600D01*
X122440702Y-77965298D02*
X119659400Y-80746600D01*
X134543800Y-79502000D02*
X134931200Y-79114600D01*
X134931200Y-79114600D02*
X134943600Y-79114600D01*
D45*
X119734500Y-70268400D02*
X120726900Y-70268400D01*
X121043700Y-69951600D02*
X122440700Y-69951600D01*
X120726900Y-70268400D02*
X121043700Y-69951600D01*
D50*
X118643400Y-90170000D02*
X116643700Y-90170000D01*
X119659400Y-88366600D02*
X119659400Y-89154000D01*
X119659400Y-89154000D02*
X118643400Y-90170000D01*
D44*
X136543600Y-81515400D02*
X136543600Y-81514600D01*
X136144000Y-81915000D02*
X136543600Y-81515400D01*
D50*
X117218700Y-81383900D02*
X117218700Y-84939900D01*
X121361200Y-74422000D02*
X121361200Y-77241400D01*
X121361200Y-77241400D02*
X117218700Y-81383900D01*
D45*
X120904000Y-70764400D02*
X119785304Y-70764400D01*
X119785304Y-70764400D02*
X119785302Y-70764402D01*
X121005600Y-70662800D02*
X120904000Y-70764400D01*
X121513600Y-70662800D02*
X121005600Y-70662800D01*
D50*
X116643700Y-85514900D02*
X117218700Y-84939900D01*
X116643700Y-88900000D02*
X116643700Y-85514900D01*
D47*
X150368000Y-92379800D02*
X149758400Y-91770200D01*
X150368000Y-95758000D02*
X150368000Y-92379800D01*
X148005800Y-97256600D02*
X148869400Y-97256600D01*
X148869400Y-97256600D02*
X150368000Y-95758000D01*
D44*
X157835700Y-92869100D02*
X158292800Y-93326200D01*
X157835700Y-90957400D02*
X157835700Y-92869100D01*
X159867600Y-90728800D02*
X159639000Y-90957400D01*
D47*
X154444700Y-95313500D02*
X154444700Y-96329500D01*
X158292800Y-93326200D02*
X156432000Y-93326200D01*
X156432000Y-93326200D02*
X154444700Y-95313500D01*
D44*
X133343600Y-74707800D02*
X133343600Y-75114600D01*
X134721600Y-73329800D02*
X133343600Y-74707800D01*
X110180700Y-62755200D02*
X112191800Y-60744100D01*
X112191800Y-60744100D02*
X126936500Y-60744100D01*
X110180700Y-66814400D02*
X110180700Y-62755200D01*
X134721600Y-68529200D02*
X134721600Y-73329800D01*
X126936500Y-60744100D02*
X134721600Y-68529200D01*
D45*
X119739447Y-71763453D02*
X119734500Y-71768400D01*
D44*
X125794200Y-71768400D02*
X119734500Y-71768400D01*
X127228600Y-73202800D02*
X125794200Y-71768400D01*
X128911600Y-76714600D02*
X127711200Y-75514200D01*
X129343600Y-76714600D02*
X128911600Y-76714600D01*
X127711200Y-75514200D02*
X127711200Y-74549000D01*
X127228600Y-74066400D02*
X127228600Y-73202800D01*
X127711200Y-74549000D02*
X127228600Y-74066400D01*
X129076800Y-75914600D02*
X129343600Y-75914600D01*
X126970600Y-71268400D02*
X127965200Y-72263000D01*
X128422400Y-75260200D02*
X129076800Y-75914600D01*
X119734500Y-71268400D02*
X126970600Y-71268400D01*
X127965200Y-73761600D02*
X128422400Y-74218800D01*
X128422400Y-74218800D02*
X128422400Y-75260200D01*
X127965200Y-72263000D02*
X127965200Y-73761600D01*
D48*
X166579600Y-84023200D02*
X161493200Y-84023200D01*
X167298000Y-83279400D02*
X167290800Y-83286600D01*
D47*
X156159300Y-75844400D02*
X159262400Y-75844400D01*
D48*
X155778100Y-61747400D02*
X156890200Y-61747400D01*
X154559000Y-62966500D02*
X155778100Y-61747400D01*
D45*
X151519000Y-67073400D02*
X151629800Y-67073400D01*
X150799800Y-67335400D02*
X151257000Y-67335400D01*
X151257000Y-67335400D02*
X151519000Y-67073400D01*
X137617200Y-74841000D02*
X136543600Y-75914600D01*
X137617200Y-73710800D02*
X137617200Y-74841000D01*
X145237200Y-73507600D02*
X143129000Y-73507600D01*
X145999200Y-74269600D02*
X145237200Y-73507600D01*
X143129000Y-73507600D02*
X142544800Y-72923400D01*
X138404600Y-72923400D02*
X137617200Y-73710800D01*
X142544800Y-72923400D02*
X138404600Y-72923400D01*
D51*
X153779800Y-66573400D02*
X153779800Y-66073400D01*
D50*
X133451600Y-92883800D02*
X133451600Y-94818200D01*
D44*
X134943600Y-75114600D02*
X134957000Y-75114600D01*
X134957000Y-75114600D02*
X135356600Y-75514200D01*
D45*
X126136400Y-83439000D02*
X126136400Y-75361800D01*
D50*
X135991600Y-96193800D02*
X135991600Y-94234000D01*
D44*
X134143600Y-75114600D02*
X134130600Y-75114600D01*
X134130600Y-75114600D02*
X133731000Y-75514200D01*
D45*
X126796800Y-82931000D02*
X127304800Y-83439000D01*
X126288800Y-74168000D02*
X126796800Y-74676000D01*
X126796800Y-74676000D02*
X126796800Y-82931000D01*
D50*
X138743600Y-74842600D02*
X138745100Y-74841100D01*
X138743600Y-76262000D02*
X138743600Y-74842600D01*
D44*
X137769600Y-77089000D02*
X137344000Y-77514600D01*
X137344000Y-77514600D02*
X136543600Y-77514600D01*
X137769600Y-76581000D02*
X137769600Y-77089000D01*
X138743600Y-76262000D02*
X138088600Y-76262000D01*
X138088600Y-76262000D02*
X137769600Y-76581000D01*
D50*
X139854800Y-77673200D02*
X139843600Y-77662000D01*
X141069200Y-77673200D02*
X139854800Y-77673200D01*
D44*
X139843600Y-78266200D02*
X139843600Y-77662000D01*
X138074400Y-78587600D02*
X139522200Y-78587600D01*
X139522200Y-78587600D02*
X139843600Y-78266200D01*
X137801400Y-78314600D02*
X138074400Y-78587600D01*
X136543600Y-78314600D02*
X137801400Y-78314600D01*
X108026500Y-72116400D02*
X107998500Y-72144400D01*
X108030700Y-68364400D02*
X108026500Y-68368600D01*
X108026500Y-68368600D02*
X108026500Y-72116400D01*
D48*
X156620200Y-59027400D02*
X160022200Y-59027400D01*
X160022200Y-59027400D02*
X163620200Y-59027400D01*
X160022200Y-58142800D02*
X160022200Y-59027400D01*
X160022200Y-59027400D02*
X159408200Y-59027400D01*
D44*
X152114400Y-79793000D02*
X152089400Y-79768000D01*
X159232600Y-79552800D02*
X158992400Y-79793000D01*
X159969200Y-79781400D02*
X159740600Y-79552800D01*
X160641600Y-79781400D02*
X159969200Y-79781400D01*
X161420600Y-79002400D02*
X160641600Y-79781400D01*
X161420600Y-78325200D02*
X161420600Y-79002400D01*
X159740600Y-79552800D02*
X159232600Y-79552800D01*
X161049800Y-77954400D02*
X161420600Y-78325200D01*
X158916800Y-78354400D02*
X160066800Y-78354400D01*
X153379000Y-79793000D02*
X152114400Y-79793000D01*
X160466800Y-77954400D02*
X161049800Y-77954400D01*
X160066800Y-78354400D02*
X160466800Y-77954400D01*
X158380600Y-79793000D02*
X158140400Y-79552800D01*
X158992400Y-79793000D02*
X158380600Y-79793000D01*
X158140400Y-79552800D02*
X157581600Y-79552800D01*
X157581600Y-79552800D02*
X157341400Y-79793000D01*
X157341400Y-79793000D02*
X156604800Y-79793000D01*
X156604800Y-79793000D02*
X156364600Y-79552800D01*
X153619200Y-79552800D02*
X153379000Y-79793000D01*
X154674400Y-79793000D02*
X154434200Y-79552800D01*
X155727400Y-79552800D02*
X155487200Y-79793000D01*
X155487200Y-79793000D02*
X154674400Y-79793000D01*
X156364600Y-79552800D02*
X155727400Y-79552800D01*
X154434200Y-79552800D02*
X153619200Y-79552800D01*
X152114400Y-80243000D02*
X152089400Y-80268000D01*
X160066800Y-77104400D02*
X160466800Y-77504400D01*
X160816400Y-80243000D02*
X152114400Y-80243000D01*
X161870600Y-79188800D02*
X160816400Y-80243000D01*
X158916800Y-77104400D02*
X160066800Y-77104400D01*
X160466800Y-77504400D02*
X161236200Y-77504400D01*
X161870600Y-78138800D02*
X161870600Y-79188800D01*
X161236200Y-77504400D02*
X161870600Y-78138800D01*
X163300200Y-72591200D02*
X163175200Y-72466200D01*
X163220400Y-76454000D02*
X163300200Y-76374200D01*
X155854400Y-81508600D02*
X156086600Y-81740800D01*
X155041600Y-81508600D02*
X155854400Y-81508600D01*
X163220400Y-77158000D02*
X163220400Y-76454000D01*
X152114400Y-80793000D02*
X153348800Y-80793000D01*
X160147000Y-81740800D02*
X160917400Y-81740800D01*
X163220400Y-77978000D02*
X163300200Y-77898200D01*
X163300200Y-77898200D02*
X163300200Y-77237800D01*
X156841400Y-81740800D02*
X157073600Y-81508600D01*
X152089400Y-80768000D02*
X152114400Y-80793000D01*
X153348800Y-80793000D02*
X154296600Y-81740800D01*
X157073600Y-81508600D02*
X157784800Y-81508600D01*
X154809400Y-81740800D02*
X155041600Y-81508600D01*
X158017000Y-81740800D02*
X158797200Y-81740800D01*
X156086600Y-81740800D02*
X156841400Y-81740800D01*
X158797200Y-81740800D02*
X159029400Y-81508600D01*
X163300200Y-79358000D02*
X163300200Y-79015800D01*
X163220400Y-78936000D02*
X163220400Y-77978000D01*
X159029400Y-81508600D02*
X159914800Y-81508600D01*
X154296600Y-81740800D02*
X154809400Y-81740800D01*
X159914800Y-81508600D02*
X160147000Y-81740800D01*
X163300200Y-76374200D02*
X163300200Y-72591200D01*
X160917400Y-81740800D02*
X163300200Y-79358000D01*
X163300200Y-79015800D02*
X163220400Y-78936000D01*
X157784800Y-81508600D02*
X158017000Y-81740800D01*
X163300200Y-77237800D02*
X163220400Y-77158000D01*
X163750200Y-72591200D02*
X163875200Y-72466200D01*
X163750200Y-79544400D02*
X163750200Y-72591200D01*
X152114400Y-81243000D02*
X153162400Y-81243000D01*
X153162400Y-81243000D02*
X154110200Y-82190800D01*
X161103800Y-82190800D02*
X163750200Y-79544400D01*
X152089400Y-81268000D02*
X152114400Y-81243000D01*
X154110200Y-82190800D02*
X161103800Y-82190800D01*
X137765930Y-80561609D02*
X136696591Y-80561609D01*
X136696591Y-80561609D02*
X136543600Y-80714600D01*
X137887752Y-80683431D02*
X137765930Y-80561609D01*
X137887752Y-79983431D02*
X137762752Y-80108431D01*
X136737431Y-80108431D02*
X136543600Y-79914600D01*
X137762752Y-80108431D02*
X136737431Y-80108431D01*
X139881400Y-80643400D02*
X139781400Y-80543400D01*
X139881400Y-81613800D02*
X139881400Y-80643400D01*
X149364400Y-83389200D02*
X148048200Y-84705400D01*
X148048200Y-84705400D02*
X142973000Y-84705400D01*
X149389400Y-82468000D02*
X149364400Y-82493000D01*
X142973000Y-84705400D02*
X139881400Y-81613800D01*
X149364400Y-82493000D02*
X149364400Y-83389200D01*
X140817600Y-81635600D02*
X140639800Y-81635600D01*
X141173200Y-81991200D02*
X140817600Y-81635600D01*
X141173200Y-82169000D02*
X141173200Y-81991200D01*
X140360400Y-80614400D02*
X140431400Y-80543400D01*
X141503400Y-82499200D02*
X141173200Y-82169000D01*
X140639800Y-81635600D02*
X140360400Y-81356200D01*
X141681200Y-82499200D02*
X141503400Y-82499200D01*
X141986000Y-82804000D02*
X141681200Y-82499200D01*
X141986000Y-82981800D02*
X141986000Y-82804000D01*
X142341600Y-83337400D02*
X141986000Y-82981800D01*
X142519400Y-83337400D02*
X142341600Y-83337400D01*
X148914400Y-83202800D02*
X147861800Y-84255400D01*
X148889400Y-82468000D02*
X148914400Y-82493000D01*
X144598600Y-84255400D02*
X144518800Y-84175600D01*
X148914400Y-82493000D02*
X148914400Y-83202800D01*
X140360400Y-81356200D02*
X140360400Y-80614400D01*
X144518800Y-84175600D02*
X143713200Y-84175600D01*
X147861800Y-84255400D02*
X144598600Y-84255400D01*
X142925800Y-83896200D02*
X142925800Y-83743800D01*
X142925800Y-83743800D02*
X142519400Y-83337400D01*
X143713200Y-84175600D02*
X143633400Y-84255400D01*
X143633400Y-84255400D02*
X143285000Y-84255400D01*
X143285000Y-84255400D02*
X142925800Y-83896200D01*
X150594200Y-85806000D02*
X150607800Y-85792400D01*
X150594200Y-87236300D02*
X150594200Y-85806000D01*
D45*
X150041700Y-85792400D02*
X150607800Y-85792400D01*
X149682200Y-85432900D02*
X150041700Y-85792400D01*
X149682200Y-84150200D02*
X149682200Y-85432900D01*
X149889400Y-82468000D02*
X149889400Y-83943000D01*
X149889400Y-83943000D02*
X149682200Y-84150200D01*
X153198600Y-84692400D02*
X153263600Y-84757400D01*
D44*
X153224000Y-84692400D02*
X153263600Y-84732000D01*
X152007800Y-84692400D02*
X153224000Y-84692400D01*
D45*
X151726900Y-83769200D02*
X150622000Y-83769200D01*
X150622000Y-83769200D02*
X150389400Y-83536600D01*
X152007800Y-84692400D02*
X152007800Y-84050100D01*
X150389400Y-83536600D02*
X150389400Y-82468000D01*
X152007800Y-84050100D02*
X151726900Y-83769200D01*
D44*
X132543600Y-74415600D02*
X132543600Y-75114600D01*
X133731000Y-73228200D02*
X132543600Y-74415600D01*
X133731000Y-69088000D02*
X133731000Y-73228200D01*
X126390400Y-61747400D02*
X133731000Y-69088000D01*
X120078500Y-61747400D02*
X126390400Y-61747400D01*
X119009900Y-63673200D02*
X119009900Y-62816000D01*
X119009900Y-62816000D02*
X120078500Y-61747400D01*
X114617500Y-73317100D02*
X114617500Y-73710800D01*
X114834500Y-72768400D02*
X114834500Y-73100100D01*
X114834500Y-73100100D02*
X114617500Y-73317100D01*
D45*
X128143000Y-77012800D02*
X128143000Y-78663800D01*
X127584200Y-76454000D02*
X128143000Y-77012800D01*
X128143000Y-78663800D02*
X128593800Y-79114600D01*
X128593800Y-79114600D02*
X129343600Y-79114600D01*
D44*
X112420400Y-64693800D02*
X112439315Y-64712715D01*
X112439315Y-68865402D02*
X113342313Y-69768400D01*
X112439315Y-64712715D02*
X112439315Y-68865402D01*
X113342313Y-69768400D02*
X114834500Y-69768400D01*
X130962400Y-68961000D02*
X130962400Y-69367400D01*
X130962400Y-69367400D02*
X131743600Y-70148600D01*
X131743600Y-70148600D02*
X131743600Y-74250400D01*
X131743600Y-74250400D02*
X131743600Y-75114600D01*
X129895600Y-67741800D02*
X129895600Y-70002400D01*
X130943600Y-71050400D02*
X130943600Y-75114600D01*
X129895600Y-70002400D02*
X130943600Y-71050400D01*
X113753900Y-65417700D02*
X113753900Y-61798200D01*
X114834500Y-69268400D02*
X114834500Y-68868400D01*
X114159500Y-65823300D02*
X113753900Y-65417700D01*
X114159500Y-68193400D02*
X114159500Y-65823300D01*
X114834500Y-68868400D02*
X114159500Y-68193400D01*
X128752600Y-68961000D02*
X128752600Y-70154800D01*
X128752600Y-70154800D02*
X129343600Y-70745800D01*
X129343600Y-70745800D02*
X129343600Y-72752400D01*
X129343600Y-72752400D02*
X129343600Y-75114600D01*
X115534500Y-68293400D02*
X115534500Y-68568400D01*
X114833400Y-62522100D02*
X114833400Y-62522100D01*
X114833400Y-67592300D02*
X115534500Y-68293400D01*
X114833400Y-62522100D02*
X114833400Y-67592300D01*
X109687000Y-70768400D02*
X114834500Y-70768400D01*
X109298500Y-72144400D02*
X109298500Y-71156900D01*
X109298500Y-71156900D02*
X109687000Y-70768400D01*
X109298500Y-73670400D02*
X109298500Y-72144400D01*
X108445300Y-74523600D02*
X109298500Y-73670400D01*
X105752900Y-74523600D02*
X108445300Y-74523600D01*
X103609065Y-75345785D02*
X103676243Y-75345786D01*
X103543570Y-75360735D02*
X103609065Y-75345785D01*
X104506451Y-77024520D02*
X104491502Y-76959026D01*
X104392097Y-74512208D02*
X104457592Y-74497258D01*
X103388637Y-75803507D02*
X103359489Y-75742981D01*
X104506451Y-77091699D02*
X104506451Y-77024520D01*
X104491502Y-77157193D02*
X104506451Y-77091699D01*
X104462355Y-77217719D02*
X104491502Y-77157193D01*
X104420470Y-77270242D02*
X104462355Y-77217719D01*
X104367948Y-77312127D02*
X104420470Y-77270242D01*
X104048729Y-77312127D02*
X104109255Y-77341275D01*
X103344539Y-75677488D02*
X103344540Y-75610308D01*
X103289100Y-76987400D02*
X103341622Y-76945514D01*
X104420470Y-76845977D02*
X103430522Y-75856030D01*
X102857300Y-77419200D02*
X103289100Y-76987400D01*
X105354978Y-76243172D02*
X105354978Y-76175993D01*
X103600315Y-76916367D02*
X103660841Y-76945514D01*
X103344540Y-75610308D02*
X103359488Y-75544815D01*
X104462355Y-76898500D02*
X104420470Y-76845977D01*
X103388636Y-75484289D02*
X103430522Y-75431766D01*
X105297373Y-74937115D02*
X105357899Y-74907967D01*
X103660841Y-76945514D02*
X103713364Y-76987400D01*
X96532700Y-77419200D02*
X102857300Y-77419200D01*
X103430522Y-75431766D02*
X103483045Y-75389881D01*
X104524770Y-74497259D02*
X104590265Y-74512207D01*
X103996206Y-77270242D02*
X104048729Y-77312127D01*
X104957782Y-76492748D02*
X105023276Y-76507697D01*
X103483045Y-75389881D02*
X103543570Y-75360735D01*
X103534821Y-76901418D02*
X103600315Y-76916367D01*
X105090455Y-76507697D02*
X105155949Y-76492748D01*
X104241928Y-77356224D02*
X104307422Y-77341275D01*
X104491502Y-76959026D02*
X104462355Y-76898500D01*
X104331572Y-74541354D02*
X104392097Y-74512208D01*
X104307422Y-77341275D02*
X104367948Y-77312127D01*
X104174749Y-77356224D02*
X104241928Y-77356224D01*
X105216475Y-76463600D02*
X105268997Y-76421715D01*
X103713364Y-76987400D02*
X103996206Y-77270242D01*
X103676243Y-75345786D02*
X103741738Y-75360734D01*
X103741738Y-75360734D02*
X103802263Y-75389882D01*
X103802263Y-75389882D02*
X103854786Y-75431767D01*
X104703313Y-74583240D02*
X104986156Y-74866083D01*
X103402148Y-76916367D02*
X103467642Y-76901418D01*
X103854786Y-75431767D02*
X104844733Y-76421715D01*
X104279049Y-74583239D02*
X104331572Y-74541354D01*
X104844733Y-76421715D02*
X104897256Y-76463600D01*
X104897256Y-76463600D02*
X104957782Y-76492748D01*
X105023276Y-76507697D02*
X105090455Y-76507697D01*
X104109255Y-77341275D02*
X104174749Y-77356224D01*
X105155949Y-76492748D02*
X105216475Y-76463600D01*
X105268997Y-76421715D02*
X105310882Y-76369192D01*
X104650790Y-74541355D02*
X104703313Y-74583240D01*
X105310882Y-76369192D02*
X105340029Y-76308666D01*
X103467642Y-76901418D02*
X103534821Y-76901418D01*
X105340029Y-76308666D02*
X105354978Y-76243172D01*
X105354978Y-76175993D02*
X105340029Y-76110499D01*
X103430522Y-75856030D02*
X103388637Y-75803507D01*
X104590265Y-74512207D02*
X104650790Y-74541355D01*
X105340029Y-76110499D02*
X105310882Y-76049973D01*
X103341622Y-76945514D02*
X103402148Y-76916367D01*
X105310882Y-76049973D02*
X105268997Y-75997450D01*
X105268997Y-75997450D02*
X104279049Y-75007503D01*
X104279049Y-75007503D02*
X104237164Y-74954980D01*
X104237164Y-74954980D02*
X104208016Y-74894454D01*
X105410420Y-74866083D02*
X105752900Y-74523600D01*
X105231878Y-74952065D02*
X105297373Y-74937115D01*
X104208016Y-74894454D02*
X104193066Y-74828961D01*
X104193066Y-74828961D02*
X104193067Y-74761781D01*
X105357899Y-74907967D02*
X105410420Y-74866083D01*
X104193067Y-74761781D02*
X104208015Y-74696288D01*
X104208015Y-74696288D02*
X104237163Y-74635762D01*
X103359489Y-75742981D02*
X103344539Y-75677488D01*
X105164700Y-74952064D02*
X105231878Y-74952065D01*
X104237163Y-74635762D02*
X104279049Y-74583239D01*
X104457592Y-74497258D02*
X104524770Y-74497259D01*
X103359488Y-75544815D02*
X103388636Y-75484289D01*
X104986156Y-74866083D02*
X105038679Y-74907968D01*
X105038679Y-74907968D02*
X105099205Y-74937116D01*
X105099205Y-74937116D02*
X105164700Y-74952064D01*
X109271500Y-70268400D02*
X114834500Y-70268400D01*
X108648500Y-72144400D02*
X108648500Y-70891400D01*
X108648500Y-70891400D02*
X109271500Y-70268400D01*
X96507300Y-61239400D02*
X96507300Y-67538600D01*
X96507300Y-67538600D02*
X102806500Y-73837800D01*
X108648500Y-73431400D02*
X108648500Y-72144400D01*
X102806500Y-73837800D02*
X108242100Y-73837800D01*
X108242100Y-73837800D02*
X108648500Y-73431400D01*
X105346500Y-61239400D02*
X96507300Y-61239400D01*
X136543600Y-74783500D02*
X135686800Y-73926700D01*
X106743500Y-59842400D02*
X105346500Y-61239400D01*
X136543600Y-75114600D02*
X136543600Y-74783500D01*
X135686800Y-73926700D02*
X135686800Y-68072000D01*
X135686800Y-68072000D02*
X127457200Y-59842400D01*
X127457200Y-59842400D02*
X106743500Y-59842400D01*
D45*
X117534500Y-68568400D02*
X117532676Y-68566576D01*
X117005100Y-68478400D02*
X117005100Y-68564400D01*
D46*
X117309900Y-64973200D02*
X117309900Y-68173600D01*
D45*
X117309900Y-68173600D02*
X117005100Y-68478400D01*
D46*
X147586000Y-81268000D02*
X148189400Y-81268000D01*
X146623200Y-81877600D02*
X146976400Y-81877600D01*
X146976400Y-81877600D02*
X147586000Y-81268000D01*
D50*
X151053800Y-99441000D02*
X149860000Y-98247200D01*
X162534600Y-99441000D02*
X151053800Y-99441000D01*
X164896800Y-90018200D02*
X164896800Y-97078800D01*
X164896800Y-97078800D02*
X162534600Y-99441000D01*
D48*
X162890200Y-61747400D02*
X162890200Y-62281064D01*
X162890200Y-62281064D02*
X160451900Y-64719364D01*
X160451800Y-64719464D02*
X160451800Y-66319400D01*
X160451900Y-64719364D02*
X160451800Y-64719464D01*
D44*
X130943600Y-83280000D02*
X130943600Y-82949800D01*
X124841000Y-83464400D02*
X125755400Y-84378800D01*
X124841000Y-74599800D02*
X124841000Y-83464400D01*
X125755400Y-84378800D02*
X129844800Y-84378800D01*
X130943600Y-82949800D02*
X130943600Y-82314600D01*
X129844800Y-84378800D02*
X130943600Y-83280000D01*
X120243600Y-68478400D02*
X119734500Y-68987500D01*
X119734500Y-68987500D02*
X119734500Y-69268400D01*
X131750100Y-77508000D02*
X131750100Y-77508400D01*
X134150100Y-79908400D02*
X134150500Y-79908000D01*
D50*
X130143600Y-81502600D02*
X129743200Y-81102200D01*
X130143600Y-81514600D02*
X130143600Y-81502600D01*
X131743600Y-77527000D02*
X131743600Y-77514600D01*
X131343400Y-77927200D02*
X131743600Y-77527000D01*
X131730800Y-78314600D02*
X131343400Y-77927200D01*
X131743600Y-78314600D02*
X131730800Y-78314600D01*
D46*
X152560500Y-57294300D02*
X153822400Y-56032400D01*
X152560500Y-57429400D02*
X152560500Y-57294300D01*
D50*
X134143600Y-79914600D02*
X134543800Y-80314800D01*
D44*
X136550100Y-82308000D02*
X136550100Y-82308400D01*
D46*
X116034500Y-68568400D02*
X116534500Y-68568400D01*
X114834500Y-72268400D02*
X113621500Y-72268400D01*
D44*
X113621500Y-72268400D02*
X113601500Y-72288400D01*
D46*
X116034500Y-73468400D02*
X116034500Y-74681400D01*
D44*
X116034500Y-74681400D02*
X116014500Y-74701400D01*
D46*
X119034500Y-73468400D02*
X119034500Y-74673400D01*
D44*
X119034500Y-74673400D02*
X119062500Y-74701400D01*
D46*
X116034500Y-73468400D02*
X116534500Y-73468400D01*
D47*
X110180700Y-68364400D02*
X111378700Y-68364400D01*
X111378700Y-68364400D02*
X111391700Y-68351400D01*
X110598500Y-78020400D02*
X111806500Y-78020400D01*
X111806500Y-78020400D02*
X111823500Y-78003400D01*
D46*
X116034500Y-68568400D02*
X116034500Y-67482528D01*
X116034500Y-67482528D02*
X116014372Y-67462400D01*
D44*
X118534500Y-68568400D02*
X118534500Y-67467800D01*
X118534500Y-67467800D02*
X118529100Y-67462400D01*
D45*
X152089400Y-81768000D02*
X152278400Y-81768000D01*
D49*
X120307100Y-64985900D02*
X119043300Y-64985900D01*
D46*
X150389400Y-78568000D02*
X150389400Y-77702600D01*
X150676805Y-77415195D02*
X150926804Y-77165196D01*
X150389400Y-77702600D02*
X150676805Y-77415195D01*
D48*
X138531600Y-92883800D02*
X138531600Y-94843600D01*
D46*
X152278400Y-81768000D02*
X153085800Y-82575400D01*
D50*
X136956800Y-82715100D02*
X136956800Y-83159600D01*
X136550100Y-82308400D02*
X136956800Y-82715100D01*
D47*
X113029900Y-78003400D02*
X113030000Y-78003300D01*
X111823500Y-78003400D02*
X113029900Y-78003400D01*
D50*
X133343600Y-76714600D02*
X133331200Y-76714600D01*
X133331200Y-76714600D02*
X132943600Y-76327000D01*
X130143600Y-82314600D02*
X129870200Y-82588000D01*
X129870200Y-82588000D02*
X129870200Y-83007200D01*
D46*
X146939100Y-83286600D02*
X147015200Y-83286600D01*
X147015200Y-83286600D02*
X148189400Y-82112400D01*
X148189400Y-82112400D02*
X148189400Y-81838800D01*
X138430000Y-57386700D02*
X138387300Y-57429400D01*
X138430000Y-55651400D02*
X138430000Y-57386700D01*
D50*
X132156200Y-77927200D02*
X132543600Y-78314600D01*
D45*
X119734500Y-72268400D02*
X120604600Y-72268400D01*
X120604600Y-72268400D02*
X120827800Y-72491600D01*
D46*
X119734500Y-69768400D02*
X120350600Y-69768400D01*
X121678700Y-68440300D02*
X121678700Y-67995800D01*
X120350600Y-69768400D02*
X121678700Y-68440300D01*
D50*
X136543600Y-76714600D02*
X137128000Y-76714600D01*
X137128000Y-76714600D02*
X137134600Y-76708000D01*
X109948500Y-79036700D02*
X109948500Y-78020400D01*
X111201200Y-79679700D02*
X110591500Y-79679700D01*
X110591500Y-79679700D02*
X109948500Y-79036700D01*
D46*
X149889400Y-77618400D02*
X149889400Y-78568000D01*
X149910800Y-76454000D02*
X149889400Y-76475400D01*
X149889400Y-76475400D02*
X149889400Y-77618400D01*
D45*
X151733800Y-82468000D02*
X151389400Y-82468000D01*
X154114500Y-83477100D02*
X152742900Y-83477100D01*
X152742900Y-83477100D02*
X151733800Y-82468000D01*
D46*
X148189400Y-78695000D02*
X148189400Y-79268000D01*
X147855800Y-77825600D02*
X147855800Y-78361400D01*
X147855800Y-78361400D02*
X148189400Y-78695000D01*
D45*
X147662200Y-79768000D02*
X148189400Y-79768000D01*
X146634200Y-78867000D02*
X146761200Y-78867000D01*
X146761200Y-78867000D02*
X147662200Y-79768000D01*
D46*
X146611200Y-79880600D02*
X146611200Y-80949800D01*
X147247800Y-80768000D02*
X148189400Y-80768000D01*
X146611200Y-80949800D02*
X147066000Y-80949800D01*
X147066000Y-80949800D02*
X147247800Y-80768000D01*
X132550100Y-75908000D02*
X132550100Y-75907700D01*
X131750100Y-75908000D02*
X131750100Y-75894900D01*
D52*
X134150100Y-81508000D02*
X134125300Y-81508000D01*
X132550100Y-81508000D02*
X132550100Y-81508400D01*
D44*
X147993100Y-60833000D02*
X147993100Y-59144600D01*
D45*
X133815900Y-56567318D02*
X133815900Y-57115200D01*
D44*
X133819900Y-59119200D02*
X133815900Y-59115200D01*
X133819900Y-60807600D02*
X133819900Y-59119200D01*
D45*
X144602200Y-58902600D02*
X144119600Y-59385200D01*
X147989100Y-56599900D02*
X147726400Y-56337200D01*
X147989100Y-57115200D02*
X147989100Y-56599900D01*
X144602200Y-56845200D02*
X144602200Y-58902600D01*
X145110200Y-56337200D02*
X144602200Y-56845200D01*
X147726400Y-56337200D02*
X145110200Y-56337200D01*
X133811650Y-56557550D02*
X133811650Y-56567318D01*
X133591300Y-56337200D02*
X133811650Y-56557550D01*
X130505200Y-59664600D02*
X130505200Y-56692800D01*
X131419600Y-60579000D02*
X130505200Y-59664600D01*
X133819900Y-60579000D02*
X131419600Y-60579000D01*
X130505200Y-56692800D02*
X130860800Y-56337200D01*
X130860800Y-56337200D02*
X133591300Y-56337200D01*
D50*
X134543800Y-75514800D02*
X134543800Y-75514200D01*
X134937000Y-75908000D02*
X134543800Y-75514800D01*
D44*
X150469700Y-70434200D02*
X151409400Y-70434200D01*
D50*
X132543600Y-76714600D02*
X132156000Y-76327000D01*
X132156000Y-76327000D02*
X132130800Y-76327000D01*
X133343600Y-80714600D02*
X133343600Y-80714800D01*
X133343600Y-80714800D02*
X133731000Y-81102200D01*
D44*
X133350100Y-79946400D02*
X133388100Y-79908400D01*
D50*
X132943600Y-80314600D02*
X133343600Y-79914600D01*
X132943600Y-80314800D02*
X132943600Y-80314600D01*
X132156200Y-81102200D02*
X132156200Y-81102000D01*
X132156200Y-81102000D02*
X132543600Y-80714600D01*
D52*
X135750100Y-81508000D02*
X135750100Y-81508400D01*
X131750100Y-81508000D02*
X131737700Y-81508000D01*
D50*
X135743600Y-84245700D02*
X135743600Y-82314600D01*
X135737600Y-83819900D02*
X135737600Y-84251700D01*
X135737600Y-84251700D02*
X135743600Y-84245700D01*
D53*
G36*
X139065000Y-56748860D02*
G01*
X139065000Y-58038788D01*
X139065244Y-58041266D01*
X139065967Y-58043648D01*
X139067140Y-58045844D01*
X139068555Y-58047601D01*
X139407900Y-58399724D01*
X139407900Y-60510240D01*
X138843840Y-61074300D01*
X138041560Y-61074300D01*
X137972800Y-61005540D01*
X137972800Y-58724800D01*
X137972556Y-58722322D01*
X137971833Y-58719940D01*
X137970660Y-58717744D01*
X137969080Y-58715820D01*
X137845800Y-58592540D01*
X137845800Y-56774260D01*
X137990760Y-56629300D01*
X138945440Y-56629300D01*
X139065000Y-56748860D01*
G37*
X139065000Y-56748860D02*
X139065000Y-58038788D01*
X139065244Y-58041266D01*
X139065967Y-58043648D01*
X139067140Y-58045844D01*
X139068555Y-58047601D01*
X139407900Y-58399724D01*
X139407900Y-60510240D01*
X138843840Y-61074300D01*
X138041560Y-61074300D01*
X137972800Y-61005540D01*
X137972800Y-58724800D01*
X137972556Y-58722322D01*
X137971833Y-58719940D01*
X137970660Y-58717744D01*
X137969080Y-58715820D01*
X137845800Y-58592540D01*
X137845800Y-56774260D01*
X137990760Y-56629300D01*
X138945440Y-56629300D01*
X139065000Y-56748860D01*
G36*
X137033000Y-56799660D02*
G01*
X137033000Y-58059140D01*
X136938840Y-58153300D01*
X135679360Y-58153300D01*
X135559800Y-58033740D01*
X135559800Y-57759600D01*
X135559556Y-57757122D01*
X135558833Y-57754740D01*
X135557660Y-57752544D01*
X135556080Y-57750620D01*
X135327480Y-57522020D01*
X135325556Y-57520440D01*
X135323360Y-57519267D01*
X135320978Y-57518544D01*
X135318500Y-57518300D01*
X134180760Y-57518300D01*
X134162800Y-57500340D01*
X134162800Y-56723460D01*
X134180760Y-56705500D01*
X136938840Y-56705500D01*
X137033000Y-56799660D01*
G37*
X137033000Y-56799660D02*
X137033000Y-58059140D01*
X136938840Y-58153300D01*
X135679360Y-58153300D01*
X135559800Y-58033740D01*
X135559800Y-57759600D01*
X135559556Y-57757122D01*
X135558833Y-57754740D01*
X135557660Y-57752544D01*
X135556080Y-57750620D01*
X135327480Y-57522020D01*
X135325556Y-57520440D01*
X135323360Y-57519267D01*
X135320978Y-57518544D01*
X135318500Y-57518300D01*
X134180760Y-57518300D01*
X134162800Y-57500340D01*
X134162800Y-56723460D01*
X134180760Y-56705500D01*
X136938840Y-56705500D01*
X137033000Y-56799660D01*
G36*
X135001000Y-57968060D02*
G01*
X135001000Y-58445400D01*
X135001244Y-58447878D01*
X135001967Y-58450260D01*
X135003140Y-58452456D01*
X135004720Y-58454380D01*
X135284120Y-58733780D01*
X135286044Y-58735360D01*
X135288240Y-58736533D01*
X135290622Y-58737256D01*
X135293100Y-58737500D01*
X136964240Y-58737500D01*
X137337800Y-59111060D01*
X137337800Y-60954740D01*
X137167440Y-61125100D01*
X135069760Y-61125100D01*
X134899400Y-60954740D01*
X134899400Y-59817000D01*
X134899156Y-59814522D01*
X134898433Y-59812140D01*
X134897260Y-59809944D01*
X134895680Y-59808020D01*
X134616280Y-59528620D01*
X134614356Y-59527040D01*
X134612160Y-59525867D01*
X134609778Y-59525144D01*
X134607300Y-59524900D01*
X134180760Y-59524900D01*
X134162800Y-59506940D01*
X134162800Y-58653860D01*
X134209880Y-58606780D01*
X134211460Y-58604856D01*
X134212633Y-58602660D01*
X134213356Y-58600278D01*
X134213600Y-58597800D01*
X134213600Y-58470800D01*
X134213356Y-58468322D01*
X134212633Y-58465940D01*
X134211460Y-58463744D01*
X134209880Y-58461820D01*
X134207956Y-58460240D01*
X134205760Y-58459067D01*
X134203378Y-58458344D01*
X134200900Y-58458100D01*
X132918200Y-58458100D01*
X132918200Y-57772300D01*
X134805240Y-57772300D01*
X135001000Y-57968060D01*
G37*
X135001000Y-57968060D02*
X135001000Y-58445400D01*
X135001244Y-58447878D01*
X135001967Y-58450260D01*
X135003140Y-58452456D01*
X135004720Y-58454380D01*
X135284120Y-58733780D01*
X135286044Y-58735360D01*
X135288240Y-58736533D01*
X135290622Y-58737256D01*
X135293100Y-58737500D01*
X136964240Y-58737500D01*
X137337800Y-59111060D01*
X137337800Y-60954740D01*
X137167440Y-61125100D01*
X135069760Y-61125100D01*
X134899400Y-60954740D01*
X134899400Y-59817000D01*
X134899156Y-59814522D01*
X134898433Y-59812140D01*
X134897260Y-59809944D01*
X134895680Y-59808020D01*
X134616280Y-59528620D01*
X134614356Y-59527040D01*
X134612160Y-59525867D01*
X134609778Y-59525144D01*
X134607300Y-59524900D01*
X134180760Y-59524900D01*
X134162800Y-59506940D01*
X134162800Y-58653860D01*
X134209880Y-58606780D01*
X134211460Y-58604856D01*
X134212633Y-58602660D01*
X134213356Y-58600278D01*
X134213600Y-58597800D01*
X134213600Y-58470800D01*
X134213356Y-58468322D01*
X134212633Y-58465940D01*
X134211460Y-58463744D01*
X134209880Y-58461820D01*
X134207956Y-58460240D01*
X134205760Y-58459067D01*
X134203378Y-58458344D01*
X134200900Y-58458100D01*
X132918200Y-58458100D01*
X132918200Y-57772300D01*
X134805240Y-57772300D01*
X135001000Y-57968060D01*
G36*
X132969000Y-57518300D02*
G01*
X132346700Y-57518300D01*
X132344222Y-57518544D01*
X132341840Y-57519267D01*
X132339644Y-57520440D01*
X132337720Y-57522020D01*
X132112840Y-57746900D01*
X130954960Y-57746900D01*
X130860800Y-57652740D01*
X130860800Y-56977460D01*
X130980360Y-56857900D01*
X131914900Y-56857900D01*
X131917378Y-56857656D01*
X131919760Y-56856933D01*
X131921956Y-56855760D01*
X131923880Y-56854180D01*
X132072560Y-56705500D01*
X132969000Y-56705500D01*
X132969000Y-57518300D01*
G37*
X132969000Y-57518300D02*
X132346700Y-57518300D01*
X132344222Y-57518544D01*
X132341840Y-57519267D01*
X132339644Y-57520440D01*
X132337720Y-57522020D01*
X132112840Y-57746900D01*
X130954960Y-57746900D01*
X130860800Y-57652740D01*
X130860800Y-56977460D01*
X130980360Y-56857900D01*
X131914900Y-56857900D01*
X131917378Y-56857656D01*
X131919760Y-56856933D01*
X131921956Y-56855760D01*
X131923880Y-56854180D01*
X132072560Y-56705500D01*
X132969000Y-56705500D01*
X132969000Y-57518300D01*
G36*
X132388520Y-58708380D02*
G01*
X132390444Y-58709960D01*
X132392640Y-58711133D01*
X132395022Y-58711856D01*
X132397500Y-58712100D01*
X132969000Y-58712100D01*
X132969000Y-59524900D01*
X132123360Y-59524900D01*
X131923880Y-59325420D01*
X131921956Y-59323840D01*
X131919760Y-59322667D01*
X131917378Y-59321944D01*
X131914900Y-59321700D01*
X130929560Y-59321700D01*
X130860800Y-59252940D01*
X130860800Y-58552260D01*
X130980360Y-58432700D01*
X132112840Y-58432700D01*
X132388520Y-58708380D01*
G37*
X132388520Y-58708380D02*
X132390444Y-58709960D01*
X132392640Y-58711133D01*
X132395022Y-58711856D01*
X132397500Y-58712100D01*
X132969000Y-58712100D01*
X132969000Y-59524900D01*
X132123360Y-59524900D01*
X131923880Y-59325420D01*
X131921956Y-59323840D01*
X131919760Y-59322667D01*
X131917378Y-59321944D01*
X131914900Y-59321700D01*
X130929560Y-59321700D01*
X130860800Y-59252940D01*
X130860800Y-58552260D01*
X130980360Y-58432700D01*
X132112840Y-58432700D01*
X132388520Y-58708380D01*
G36*
X144183100Y-55567760D02*
G01*
X144183100Y-57932140D01*
X143733340Y-58381900D01*
X140365660Y-58381900D01*
X139814300Y-57830540D01*
X139814300Y-55567760D01*
X140162460Y-55219600D01*
X143834940Y-55219600D01*
X144183100Y-55567760D01*
G37*
X144183100Y-55567760D02*
X144183100Y-57932140D01*
X143733340Y-58381900D01*
X140365660Y-58381900D01*
X139814300Y-57830540D01*
X139814300Y-55567760D01*
X140162460Y-55219600D01*
X143834940Y-55219600D01*
X144183100Y-55567760D01*
G36*
X148145500Y-69626567D02*
G01*
X148145500Y-72384740D01*
X147949740Y-72580500D01*
X144747160Y-72580500D01*
X144551400Y-72384740D01*
X144551400Y-69626470D01*
X144785452Y-69380100D01*
X147905195Y-69380100D01*
X148145500Y-69626567D01*
G37*
X148145500Y-69626567D02*
X148145500Y-72384740D01*
X147949740Y-72580500D01*
X144747160Y-72580500D01*
X144551400Y-72384740D01*
X144551400Y-69626470D01*
X144785452Y-69380100D01*
X147905195Y-69380100D01*
X148145500Y-69626567D01*
G36*
X160506286Y-68331260D02*
G01*
X160506286Y-74950140D01*
X160412126Y-75044300D01*
X157459860Y-75044300D01*
X157365700Y-74950140D01*
X157365700Y-74274860D01*
X157514380Y-74126180D01*
X157515960Y-74124256D01*
X157517133Y-74122060D01*
X157517856Y-74119678D01*
X157518100Y-74117200D01*
X157518100Y-72090460D01*
X157840860Y-71767700D01*
X158851600Y-71767700D01*
X158854078Y-71767456D01*
X158856460Y-71766733D01*
X158858656Y-71765560D01*
X158860647Y-71763913D01*
X159461233Y-71154313D01*
X159462798Y-71152377D01*
X159463955Y-71150173D01*
X159464660Y-71147785D01*
X159464886Y-71145400D01*
X159464886Y-68331260D01*
X159711446Y-68084700D01*
X160259726Y-68084700D01*
X160506286Y-68331260D01*
G37*
X160506286Y-68331260D02*
X160506286Y-74950140D01*
X160412126Y-75044300D01*
X157459860Y-75044300D01*
X157365700Y-74950140D01*
X157365700Y-74274860D01*
X157514380Y-74126180D01*
X157515960Y-74124256D01*
X157517133Y-74122060D01*
X157517856Y-74119678D01*
X157518100Y-74117200D01*
X157518100Y-72090460D01*
X157840860Y-71767700D01*
X158851600Y-71767700D01*
X158854078Y-71767456D01*
X158856460Y-71766733D01*
X158858656Y-71765560D01*
X158860647Y-71763913D01*
X159461233Y-71154313D01*
X159462798Y-71152377D01*
X159463955Y-71150173D01*
X159464660Y-71147785D01*
X159464886Y-71145400D01*
X159464886Y-68331260D01*
X159711446Y-68084700D01*
X160259726Y-68084700D01*
X160506286Y-68331260D01*
G36*
X153457820Y-69757380D02*
G01*
X153459744Y-69758960D01*
X153461940Y-69760133D01*
X153464322Y-69760856D01*
X153466800Y-69761100D01*
X154375940Y-69761100D01*
X154520900Y-69906060D01*
X154520900Y-71038540D01*
X154375940Y-71183500D01*
X153466800Y-71183500D01*
X153464322Y-71183744D01*
X153461940Y-71184467D01*
X153459744Y-71185640D01*
X153457820Y-71187220D01*
X153359940Y-71285100D01*
X149357260Y-71285100D01*
X149212300Y-71140140D01*
X149212300Y-69779060D01*
X149357260Y-69634100D01*
X153334540Y-69634100D01*
X153457820Y-69757380D01*
G37*
X153457820Y-69757380D02*
X153459744Y-69758960D01*
X153461940Y-69760133D01*
X153464322Y-69760856D01*
X153466800Y-69761100D01*
X154375940Y-69761100D01*
X154520900Y-69906060D01*
X154520900Y-71038540D01*
X154375940Y-71183500D01*
X153466800Y-71183500D01*
X153464322Y-71183744D01*
X153461940Y-71184467D01*
X153459744Y-71185640D01*
X153457820Y-71187220D01*
X153359940Y-71285100D01*
X149357260Y-71285100D01*
X149212300Y-71140140D01*
X149212300Y-69779060D01*
X149357260Y-69634100D01*
X153334540Y-69634100D01*
X153457820Y-69757380D01*
D54*
G36*
X113944400Y-93727806D02*
G01*
X113944400Y-95679994D01*
X113840994Y-95783400D01*
X110936306Y-95783400D01*
X110832900Y-95679994D01*
X110832900Y-93753206D01*
X110936306Y-93649800D01*
X113866394Y-93649800D01*
X113944400Y-93727806D01*
G37*
X113944400Y-93727806D02*
X113944400Y-95679994D01*
X113840994Y-95783400D01*
X110936306Y-95783400D01*
X110832900Y-95679994D01*
X110832900Y-93753206D01*
X110936306Y-93649800D01*
X113866394Y-93649800D01*
X113944400Y-93727806D01*
G36*
X113944400Y-89867006D02*
G01*
X113944400Y-91793794D01*
X113917194Y-91821000D01*
X110644206Y-91821000D01*
X110515400Y-91692194D01*
X110515400Y-89943206D01*
X110644206Y-89814400D01*
X113891794Y-89814400D01*
X113944400Y-89867006D01*
G37*
X113944400Y-89867006D02*
X113944400Y-91793794D01*
X113917194Y-91821000D01*
X110644206Y-91821000D01*
X110515400Y-91692194D01*
X110515400Y-89943206D01*
X110644206Y-89814400D01*
X113891794Y-89814400D01*
X113944400Y-89867006D01*
G36*
X113944400Y-87225406D02*
G01*
X113944400Y-89202994D01*
X113891794Y-89255600D01*
X110936306Y-89255600D01*
X110832900Y-89152194D01*
X110832900Y-87225406D01*
X110936306Y-87122000D01*
X113840994Y-87122000D01*
X113944400Y-87225406D01*
G37*
X113944400Y-87225406D02*
X113944400Y-89202994D01*
X113891794Y-89255600D01*
X110936306Y-89255600D01*
X110832900Y-89152194D01*
X110832900Y-87225406D01*
X110936306Y-87122000D01*
X113840994Y-87122000D01*
X113944400Y-87225406D01*
D45*
G36*
X162028200Y-90160622D02*
G01*
X162028200Y-92075000D01*
X162030121Y-92094509D01*
X162035812Y-92113268D01*
X162045053Y-92130557D01*
X162057489Y-92145711D01*
X162612400Y-92700622D01*
X162612400Y-96961178D01*
X162543978Y-97029600D01*
X160896508Y-97029600D01*
X160828086Y-96961178D01*
X160828086Y-95554800D01*
X160826165Y-95535291D01*
X160820474Y-95516532D01*
X160811233Y-95499243D01*
X160798937Y-95484230D01*
X160014651Y-94696830D01*
X159999522Y-94684363D01*
X159982251Y-94675088D01*
X159963503Y-94669360D01*
X159943800Y-94667400D01*
X156759422Y-94667400D01*
X156513200Y-94421178D01*
X156513200Y-91987545D01*
X156647023Y-91844800D01*
X156997400Y-91844800D01*
X157016909Y-91842879D01*
X157035668Y-91837188D01*
X157052957Y-91827947D01*
X157068111Y-91815511D01*
X157322111Y-91561511D01*
X157334547Y-91546357D01*
X157343788Y-91529068D01*
X157349479Y-91510309D01*
X157351400Y-91490800D01*
X157351400Y-90643222D01*
X158232622Y-89762000D01*
X161629578Y-89762000D01*
X162028200Y-90160622D01*
G37*
X162028200Y-90160622D02*
X162028200Y-92075000D01*
X162030121Y-92094509D01*
X162035812Y-92113268D01*
X162045053Y-92130557D01*
X162057489Y-92145711D01*
X162612400Y-92700622D01*
X162612400Y-96961178D01*
X162543978Y-97029600D01*
X160896508Y-97029600D01*
X160828086Y-96961178D01*
X160828086Y-95554800D01*
X160826165Y-95535291D01*
X160820474Y-95516532D01*
X160811233Y-95499243D01*
X160798937Y-95484230D01*
X160014651Y-94696830D01*
X159999522Y-94684363D01*
X159982251Y-94675088D01*
X159963503Y-94669360D01*
X159943800Y-94667400D01*
X156759422Y-94667400D01*
X156513200Y-94421178D01*
X156513200Y-91987545D01*
X156647023Y-91844800D01*
X156997400Y-91844800D01*
X157016909Y-91842879D01*
X157035668Y-91837188D01*
X157052957Y-91827947D01*
X157068111Y-91815511D01*
X157322111Y-91561511D01*
X157334547Y-91546357D01*
X157343788Y-91529068D01*
X157349479Y-91510309D01*
X157351400Y-91490800D01*
X157351400Y-90643222D01*
X158232622Y-89762000D01*
X161629578Y-89762000D01*
X162028200Y-90160622D01*
D54*
G36*
X159232600Y-66016406D02*
G01*
X159232600Y-66673194D01*
X159179994Y-66725800D01*
X154357606Y-66725800D01*
X154242403Y-66610597D01*
X154223157Y-66594803D01*
X154201201Y-66583067D01*
X154177376Y-66575840D01*
X154152600Y-66573400D01*
X153619200Y-66573400D01*
X153619200Y-66090800D01*
X154178000Y-66090800D01*
X154202776Y-66088360D01*
X154226601Y-66081133D01*
X154248557Y-66069397D01*
X154267803Y-66053603D01*
X154357606Y-65963800D01*
X159179994Y-65963800D01*
X159232600Y-66016406D01*
G37*
X159232600Y-66016406D02*
X159232600Y-66673194D01*
X159179994Y-66725800D01*
X154357606Y-66725800D01*
X154242403Y-66610597D01*
X154223157Y-66594803D01*
X154201201Y-66583067D01*
X154177376Y-66575840D01*
X154152600Y-66573400D01*
X153619200Y-66573400D01*
X153619200Y-66090800D01*
X154178000Y-66090800D01*
X154202776Y-66088360D01*
X154226601Y-66081133D01*
X154248557Y-66069397D01*
X154267803Y-66053603D01*
X154357606Y-65963800D01*
X159179994Y-65963800D01*
X159232600Y-66016406D01*
G36*
X117589300Y-68910200D02*
G01*
X116956106Y-68910200D01*
X116954300Y-68908394D01*
X116954300Y-68226206D01*
X116956106Y-68224400D01*
X117589300Y-68224400D01*
X117589300Y-68910200D01*
G37*
X117589300Y-68910200D02*
X116956106Y-68910200D01*
X116954300Y-68908394D01*
X116954300Y-68226206D01*
X116956106Y-68224400D01*
X117589300Y-68224400D01*
X117589300Y-68910200D01*
G36*
X172897800Y-102438200D02*
G01*
X89331800Y-102438200D01*
X89331800Y-54051200D01*
X91109800Y-54051200D01*
X91109800Y-100761800D01*
X91112240Y-100786576D01*
X91119467Y-100810401D01*
X91131203Y-100832357D01*
X91146997Y-100851603D01*
X91166243Y-100867397D01*
X91188199Y-100879133D01*
X91212024Y-100886360D01*
X91236800Y-100888800D01*
X171310300Y-100888800D01*
X171335076Y-100886360D01*
X171358901Y-100879133D01*
X171380857Y-100867397D01*
X171400103Y-100851603D01*
X171415897Y-100832357D01*
X171427633Y-100810401D01*
X171434860Y-100786576D01*
X171437300Y-100761800D01*
X171437300Y-54051200D01*
X171434860Y-54026424D01*
X171427633Y-54002599D01*
X171415897Y-53980643D01*
X171400103Y-53961397D01*
X171380857Y-53945603D01*
X171358901Y-53933867D01*
X171335076Y-53926640D01*
X171310300Y-53924200D01*
X91236800Y-53924200D01*
X91212024Y-53926640D01*
X91188199Y-53933867D01*
X91166243Y-53945603D01*
X91146997Y-53961397D01*
X91131203Y-53980643D01*
X91119467Y-54002599D01*
X91112240Y-54026424D01*
X91109800Y-54051200D01*
X89331800Y-54051200D01*
X89331800Y-52400200D01*
X172897800Y-52400200D01*
X172897800Y-102438200D01*
G37*
X172897800Y-102438200D02*
X89331800Y-102438200D01*
X89331800Y-54051200D01*
X91109800Y-54051200D01*
X91109800Y-100761800D01*
X91112240Y-100786576D01*
X91119467Y-100810401D01*
X91131203Y-100832357D01*
X91146997Y-100851603D01*
X91166243Y-100867397D01*
X91188199Y-100879133D01*
X91212024Y-100886360D01*
X91236800Y-100888800D01*
X171310300Y-100888800D01*
X171335076Y-100886360D01*
X171358901Y-100879133D01*
X171380857Y-100867397D01*
X171400103Y-100851603D01*
X171415897Y-100832357D01*
X171427633Y-100810401D01*
X171434860Y-100786576D01*
X171437300Y-100761800D01*
X171437300Y-54051200D01*
X171434860Y-54026424D01*
X171427633Y-54002599D01*
X171415897Y-53980643D01*
X171400103Y-53961397D01*
X171380857Y-53945603D01*
X171358901Y-53933867D01*
X171335076Y-53926640D01*
X171310300Y-53924200D01*
X91236800Y-53924200D01*
X91212024Y-53926640D01*
X91188199Y-53933867D01*
X91166243Y-53945603D01*
X91146997Y-53961397D01*
X91131203Y-53980643D01*
X91119467Y-54002599D01*
X91112240Y-54026424D01*
X91109800Y-54051200D01*
X89331800Y-54051200D01*
X89331800Y-52400200D01*
X172897800Y-52400200D01*
X172897800Y-102438200D01*
D53*
G36*
X146561720Y-58733780D02*
G01*
X146563644Y-58735360D01*
X146565840Y-58736533D01*
X146568222Y-58737256D01*
X146570700Y-58737500D01*
X147142200Y-58737500D01*
X147142200Y-59550300D01*
X145305960Y-59550300D01*
X145034000Y-59278340D01*
X145034000Y-58577660D01*
X145153560Y-58458100D01*
X146286040Y-58458100D01*
X146561720Y-58733780D01*
G37*
X146561720Y-58733780D02*
X146563644Y-58735360D01*
X146565840Y-58736533D01*
X146568222Y-58737256D01*
X146570700Y-58737500D01*
X147142200Y-58737500D01*
X147142200Y-59550300D01*
X145305960Y-59550300D01*
X145034000Y-59278340D01*
X145034000Y-58577660D01*
X145153560Y-58458100D01*
X146286040Y-58458100D01*
X146561720Y-58733780D01*
G36*
X147142200Y-57543700D02*
G01*
X146519900Y-57543700D01*
X146517422Y-57543944D01*
X146515040Y-57544667D01*
X146512844Y-57545840D01*
X146510920Y-57547420D01*
X146286040Y-57772300D01*
X145128160Y-57772300D01*
X145034000Y-57678140D01*
X145034000Y-56990160D01*
X145178960Y-56845200D01*
X146126200Y-56845200D01*
X146128678Y-56844956D01*
X146131060Y-56844233D01*
X146133256Y-56843060D01*
X146135180Y-56841480D01*
X146245760Y-56730900D01*
X147142200Y-56730900D01*
X147142200Y-57543700D01*
G37*
X147142200Y-57543700D02*
X146519900Y-57543700D01*
X146517422Y-57543944D01*
X146515040Y-57544667D01*
X146512844Y-57545840D01*
X146510920Y-57547420D01*
X146286040Y-57772300D01*
X145128160Y-57772300D01*
X145034000Y-57678140D01*
X145034000Y-56990160D01*
X145178960Y-56845200D01*
X146126200Y-56845200D01*
X146128678Y-56844956D01*
X146131060Y-56844233D01*
X146133256Y-56843060D01*
X146135180Y-56841480D01*
X146245760Y-56730900D01*
X147142200Y-56730900D01*
X147142200Y-57543700D01*
G36*
X153238200Y-56774260D02*
G01*
X153238200Y-58064188D01*
X153238444Y-58066666D01*
X153239167Y-58069048D01*
X153240340Y-58071244D01*
X153241755Y-58073001D01*
X153581100Y-58425124D01*
X153581100Y-59862399D01*
X153242091Y-60188852D01*
X153240475Y-60190746D01*
X153239261Y-60192919D01*
X153238493Y-60195288D01*
X153238200Y-60198000D01*
X153238200Y-60878540D01*
X153017040Y-61099700D01*
X152214760Y-61099700D01*
X152146000Y-61030940D01*
X152146000Y-58750200D01*
X152145756Y-58747722D01*
X152145033Y-58745340D01*
X152143860Y-58743144D01*
X152142280Y-58741220D01*
X152019000Y-58617940D01*
X152019000Y-56799660D01*
X152163960Y-56654700D01*
X153118640Y-56654700D01*
X153238200Y-56774260D01*
G37*
X153238200Y-56774260D02*
X153238200Y-58064188D01*
X153238444Y-58066666D01*
X153239167Y-58069048D01*
X153240340Y-58071244D01*
X153241755Y-58073001D01*
X153581100Y-58425124D01*
X153581100Y-59862399D01*
X153242091Y-60188852D01*
X153240475Y-60190746D01*
X153239261Y-60192919D01*
X153238493Y-60195288D01*
X153238200Y-60198000D01*
X153238200Y-60878540D01*
X153017040Y-61099700D01*
X152214760Y-61099700D01*
X152146000Y-61030940D01*
X152146000Y-58750200D01*
X152145756Y-58747722D01*
X152145033Y-58745340D01*
X152143860Y-58743144D01*
X152142280Y-58741220D01*
X152019000Y-58617940D01*
X152019000Y-56799660D01*
X152163960Y-56654700D01*
X153118640Y-56654700D01*
X153238200Y-56774260D01*
G36*
X149174200Y-57993460D02*
G01*
X149174200Y-58470800D01*
X149174444Y-58473278D01*
X149175167Y-58475660D01*
X149176340Y-58477856D01*
X149177920Y-58479780D01*
X149457320Y-58759180D01*
X149459244Y-58760760D01*
X149461440Y-58761933D01*
X149463822Y-58762656D01*
X149466300Y-58762900D01*
X151137440Y-58762900D01*
X151511000Y-59136460D01*
X151511000Y-60980140D01*
X151340640Y-61150500D01*
X149242960Y-61150500D01*
X149072600Y-60980140D01*
X149072600Y-59842400D01*
X149072356Y-59839922D01*
X149071633Y-59837540D01*
X149070460Y-59835344D01*
X149068880Y-59833420D01*
X148789480Y-59554020D01*
X148787556Y-59552440D01*
X148785360Y-59551267D01*
X148782978Y-59550544D01*
X148780500Y-59550300D01*
X148353960Y-59550300D01*
X148336000Y-59532340D01*
X148336000Y-58679260D01*
X148383080Y-58632180D01*
X148384660Y-58630256D01*
X148385833Y-58628060D01*
X148386556Y-58625678D01*
X148386800Y-58623200D01*
X148386800Y-58496200D01*
X148386556Y-58493722D01*
X148385833Y-58491340D01*
X148384660Y-58489144D01*
X148383080Y-58487220D01*
X148381156Y-58485640D01*
X148378960Y-58484467D01*
X148376578Y-58483744D01*
X148374100Y-58483500D01*
X147091400Y-58483500D01*
X147091400Y-57797700D01*
X148978440Y-57797700D01*
X149174200Y-57993460D01*
G37*
X149174200Y-57993460D02*
X149174200Y-58470800D01*
X149174444Y-58473278D01*
X149175167Y-58475660D01*
X149176340Y-58477856D01*
X149177920Y-58479780D01*
X149457320Y-58759180D01*
X149459244Y-58760760D01*
X149461440Y-58761933D01*
X149463822Y-58762656D01*
X149466300Y-58762900D01*
X151137440Y-58762900D01*
X151511000Y-59136460D01*
X151511000Y-60980140D01*
X151340640Y-61150500D01*
X149242960Y-61150500D01*
X149072600Y-60980140D01*
X149072600Y-59842400D01*
X149072356Y-59839922D01*
X149071633Y-59837540D01*
X149070460Y-59835344D01*
X149068880Y-59833420D01*
X148789480Y-59554020D01*
X148787556Y-59552440D01*
X148785360Y-59551267D01*
X148782978Y-59550544D01*
X148780500Y-59550300D01*
X148353960Y-59550300D01*
X148336000Y-59532340D01*
X148336000Y-58679260D01*
X148383080Y-58632180D01*
X148384660Y-58630256D01*
X148385833Y-58628060D01*
X148386556Y-58625678D01*
X148386800Y-58623200D01*
X148386800Y-58496200D01*
X148386556Y-58493722D01*
X148385833Y-58491340D01*
X148384660Y-58489144D01*
X148383080Y-58487220D01*
X148381156Y-58485640D01*
X148378960Y-58484467D01*
X148376578Y-58483744D01*
X148374100Y-58483500D01*
X147091400Y-58483500D01*
X147091400Y-57797700D01*
X148978440Y-57797700D01*
X149174200Y-57993460D01*
G36*
X151206200Y-56825060D02*
G01*
X151206200Y-58084540D01*
X151112040Y-58178700D01*
X149852560Y-58178700D01*
X149733000Y-58059140D01*
X149733000Y-57785000D01*
X149732756Y-57782522D01*
X149732033Y-57780140D01*
X149730860Y-57777944D01*
X149729280Y-57776020D01*
X149500680Y-57547420D01*
X149498756Y-57545840D01*
X149496560Y-57544667D01*
X149494178Y-57543944D01*
X149491700Y-57543700D01*
X148353960Y-57543700D01*
X148336000Y-57525740D01*
X148336000Y-56748860D01*
X148353960Y-56730900D01*
X151112040Y-56730900D01*
X151206200Y-56825060D01*
G37*
X151206200Y-56825060D02*
X151206200Y-58084540D01*
X151112040Y-58178700D01*
X149852560Y-58178700D01*
X149733000Y-58059140D01*
X149733000Y-57785000D01*
X149732756Y-57782522D01*
X149732033Y-57780140D01*
X149730860Y-57777944D01*
X149729280Y-57776020D01*
X149500680Y-57547420D01*
X149498756Y-57545840D01*
X149496560Y-57544667D01*
X149494178Y-57543944D01*
X149491700Y-57543700D01*
X148353960Y-57543700D01*
X148336000Y-57525740D01*
X148336000Y-56748860D01*
X148353960Y-56730900D01*
X151112040Y-56730900D01*
X151206200Y-56825060D01*
G36*
X144999620Y-59952980D02*
G01*
X145001544Y-59954560D01*
X145003740Y-59955733D01*
X145006122Y-59956456D01*
X145008600Y-59956700D01*
X148279940Y-59956700D01*
X148551900Y-60228660D01*
X148551900Y-62707340D01*
X147517940Y-63741300D01*
X134803060Y-63741300D01*
X133184900Y-62123140D01*
X133184900Y-60177860D01*
X133406060Y-59956700D01*
X134132140Y-59956700D01*
X134353300Y-60177860D01*
X134353300Y-61112400D01*
X134353544Y-61114878D01*
X134354267Y-61117260D01*
X134355440Y-61119456D01*
X134357020Y-61121380D01*
X134839620Y-61603980D01*
X134841544Y-61605560D01*
X134843740Y-61606733D01*
X134846122Y-61607456D01*
X134848600Y-61607700D01*
X138963400Y-61607700D01*
X138965878Y-61607456D01*
X138968260Y-61606733D01*
X138970456Y-61605560D01*
X138972311Y-61604049D01*
X139810511Y-60778549D01*
X139812105Y-60776636D01*
X139813296Y-60774450D01*
X139814037Y-60772073D01*
X139814300Y-60769500D01*
X139814300Y-59720660D01*
X140365660Y-59169300D01*
X144215940Y-59169300D01*
X144999620Y-59952980D01*
G37*
X144999620Y-59952980D02*
X145001544Y-59954560D01*
X145003740Y-59955733D01*
X145006122Y-59956456D01*
X145008600Y-59956700D01*
X148279940Y-59956700D01*
X148551900Y-60228660D01*
X148551900Y-62707340D01*
X147517940Y-63741300D01*
X134803060Y-63741300D01*
X133184900Y-62123140D01*
X133184900Y-60177860D01*
X133406060Y-59956700D01*
X134132140Y-59956700D01*
X134353300Y-60177860D01*
X134353300Y-61112400D01*
X134353544Y-61114878D01*
X134354267Y-61117260D01*
X134355440Y-61119456D01*
X134357020Y-61121380D01*
X134839620Y-61603980D01*
X134841544Y-61605560D01*
X134843740Y-61606733D01*
X134846122Y-61607456D01*
X134848600Y-61607700D01*
X138963400Y-61607700D01*
X138965878Y-61607456D01*
X138968260Y-61606733D01*
X138970456Y-61605560D01*
X138972311Y-61604049D01*
X139810511Y-60778549D01*
X139812105Y-60776636D01*
X139813296Y-60774450D01*
X139814037Y-60772073D01*
X139814300Y-60769500D01*
X139814300Y-59720660D01*
X140365660Y-59169300D01*
X144215940Y-59169300D01*
X144999620Y-59952980D01*
G36*
X148835020Y-66125180D02*
G01*
X148836944Y-66126760D01*
X148839140Y-66127933D01*
X148841522Y-66128656D01*
X148844000Y-66128900D01*
X150997740Y-66128900D01*
X151324220Y-66455380D01*
X151326144Y-66456960D01*
X151328340Y-66458133D01*
X151330722Y-66458856D01*
X151333200Y-66459100D01*
X151904700Y-66459100D01*
X151904700Y-66687700D01*
X151333200Y-66687700D01*
X151330722Y-66687944D01*
X151328340Y-66688667D01*
X151326144Y-66689840D01*
X151324220Y-66691420D01*
X151226340Y-66789300D01*
X150545800Y-66789300D01*
X150543322Y-66789544D01*
X150540940Y-66790267D01*
X150538744Y-66791440D01*
X150536820Y-66793020D01*
X150257420Y-67072420D01*
X150255840Y-67074344D01*
X150254667Y-67076540D01*
X150253944Y-67078922D01*
X150253700Y-67081400D01*
X150253700Y-67640200D01*
X150253944Y-67642678D01*
X150254667Y-67645060D01*
X150255840Y-67647256D01*
X150257420Y-67649180D01*
X150714620Y-68106380D01*
X150716544Y-68107960D01*
X150718740Y-68109133D01*
X150721122Y-68109856D01*
X150723600Y-68110100D01*
X158719306Y-68110100D01*
X158838900Y-68230798D01*
X158838900Y-70987740D01*
X158541540Y-71285100D01*
X155250060Y-71285100D01*
X154952700Y-70987740D01*
X154952700Y-69570600D01*
X154952456Y-69568122D01*
X154951733Y-69565740D01*
X154950560Y-69563544D01*
X154948980Y-69561620D01*
X154491780Y-69104420D01*
X154489856Y-69102840D01*
X154487660Y-69101667D01*
X154485278Y-69100944D01*
X154482800Y-69100700D01*
X149230260Y-69100700D01*
X146846380Y-66716820D01*
X146844456Y-66715240D01*
X146842260Y-66714067D01*
X146839878Y-66713344D01*
X146837400Y-66713100D01*
X141356260Y-66713100D01*
X141109700Y-66466540D01*
X141109700Y-65130860D01*
X141254660Y-64985900D01*
X147695740Y-64985900D01*
X148835020Y-66125180D01*
G37*
X148835020Y-66125180D02*
X148836944Y-66126760D01*
X148839140Y-66127933D01*
X148841522Y-66128656D01*
X148844000Y-66128900D01*
X150997740Y-66128900D01*
X151324220Y-66455380D01*
X151326144Y-66456960D01*
X151328340Y-66458133D01*
X151330722Y-66458856D01*
X151333200Y-66459100D01*
X151904700Y-66459100D01*
X151904700Y-66687700D01*
X151333200Y-66687700D01*
X151330722Y-66687944D01*
X151328340Y-66688667D01*
X151326144Y-66689840D01*
X151324220Y-66691420D01*
X151226340Y-66789300D01*
X150545800Y-66789300D01*
X150543322Y-66789544D01*
X150540940Y-66790267D01*
X150538744Y-66791440D01*
X150536820Y-66793020D01*
X150257420Y-67072420D01*
X150255840Y-67074344D01*
X150254667Y-67076540D01*
X150253944Y-67078922D01*
X150253700Y-67081400D01*
X150253700Y-67640200D01*
X150253944Y-67642678D01*
X150254667Y-67645060D01*
X150255840Y-67647256D01*
X150257420Y-67649180D01*
X150714620Y-68106380D01*
X150716544Y-68107960D01*
X150718740Y-68109133D01*
X150721122Y-68109856D01*
X150723600Y-68110100D01*
X158719306Y-68110100D01*
X158838900Y-68230798D01*
X158838900Y-70987740D01*
X158541540Y-71285100D01*
X155250060Y-71285100D01*
X154952700Y-70987740D01*
X154952700Y-69570600D01*
X154952456Y-69568122D01*
X154951733Y-69565740D01*
X154950560Y-69563544D01*
X154948980Y-69561620D01*
X154491780Y-69104420D01*
X154489856Y-69102840D01*
X154487660Y-69101667D01*
X154485278Y-69100944D01*
X154482800Y-69100700D01*
X149230260Y-69100700D01*
X146846380Y-66716820D01*
X146844456Y-66715240D01*
X146842260Y-66714067D01*
X146839878Y-66713344D01*
X146837400Y-66713100D01*
X141356260Y-66713100D01*
X141109700Y-66466540D01*
X141109700Y-65130860D01*
X141254660Y-64985900D01*
X147695740Y-64985900D01*
X148835020Y-66125180D01*
D51*
G36*
X154128400Y-85578266D02*
G01*
X154128400Y-87369977D01*
X153385291Y-88101100D01*
X151478566Y-88101100D01*
X151268500Y-87891034D01*
X151268500Y-86904900D01*
X152654000Y-86904900D01*
X152668632Y-86903459D01*
X152682701Y-86899191D01*
X152695668Y-86892260D01*
X152707033Y-86882933D01*
X153075333Y-86514633D01*
X153084660Y-86503268D01*
X153091591Y-86490301D01*
X153095859Y-86476232D01*
X153097300Y-86461600D01*
X153097300Y-85368200D01*
X153918334Y-85368200D01*
X154128400Y-85578266D01*
G37*
X154128400Y-85578266D02*
X154128400Y-87369977D01*
X153385291Y-88101100D01*
X151478566Y-88101100D01*
X151268500Y-87891034D01*
X151268500Y-86904900D01*
X152654000Y-86904900D01*
X152668632Y-86903459D01*
X152682701Y-86899191D01*
X152695668Y-86892260D01*
X152707033Y-86882933D01*
X153075333Y-86514633D01*
X153084660Y-86503268D01*
X153091591Y-86490301D01*
X153095859Y-86476232D01*
X153097300Y-86461600D01*
X153097300Y-85368200D01*
X153918334Y-85368200D01*
X154128400Y-85578266D01*
G36*
X141421720Y-74115940D02*
G01*
X142199564Y-74885112D01*
X142199564Y-76762298D01*
X141989498Y-76972364D01*
X141003364Y-76972364D01*
X141003364Y-75586864D01*
X141001923Y-75572232D01*
X140997655Y-75558163D01*
X140990724Y-75545196D01*
X140981397Y-75533831D01*
X140613097Y-75165531D01*
X140601732Y-75156204D01*
X140588765Y-75149273D01*
X140574696Y-75145005D01*
X140560064Y-75143564D01*
X139444800Y-75143564D01*
X139444800Y-74339220D01*
X139676218Y-74112524D01*
X141421720Y-74115940D01*
G37*
X141421720Y-74115940D02*
X142199564Y-74885112D01*
X142199564Y-76762298D01*
X141989498Y-76972364D01*
X141003364Y-76972364D01*
X141003364Y-75586864D01*
X141001923Y-75572232D01*
X140997655Y-75558163D01*
X140990724Y-75545196D01*
X140981397Y-75533831D01*
X140613097Y-75165531D01*
X140601732Y-75156204D01*
X140588765Y-75149273D01*
X140574696Y-75145005D01*
X140560064Y-75143564D01*
X139444800Y-75143564D01*
X139444800Y-74339220D01*
X139676218Y-74112524D01*
X141421720Y-74115940D01*
D53*
G36*
X134353300Y-78186460D02*
G01*
X134353300Y-79166540D01*
X134233740Y-79286100D01*
X134041060Y-79286100D01*
X132372100Y-77617140D01*
X132372100Y-77424460D01*
X132491660Y-77304900D01*
X133471740Y-77304900D01*
X134353300Y-78186460D01*
G37*
X134353300Y-78186460D02*
X134353300Y-79166540D01*
X134233740Y-79286100D01*
X134041060Y-79286100D01*
X132372100Y-77617140D01*
X132372100Y-77424460D01*
X132491660Y-77304900D01*
X133471740Y-77304900D01*
X134353300Y-78186460D01*
M02*
