G04 #@! TF.GenerationSoftware,KiCad,Pcbnew,(5.1.6)-1*
G04 #@! TF.CreationDate,2020-07-25T18:11:15+02:00*
G04 #@! TF.ProjectId,PrecisionTimer_RevF,50726563-6973-4696-9f6e-54696d65725f,rev?*
G04 #@! TF.SameCoordinates,Original*
G04 #@! TF.FileFunction,Soldermask,Top*
G04 #@! TF.FilePolarity,Negative*
%FSLAX46Y46*%
G04 Gerber Fmt 4.6, Leading zero omitted, Abs format (unit mm)*
G04 Created by KiCad (PCBNEW (5.1.6)-1) date 2020-07-25 18:11:15*
%MOMM*%
%LPD*%
G01*
G04 APERTURE LIST*
%ADD10C,0.100000*%
%ADD11C,0.750800*%
%ADD12C,1.050800*%
%ADD13R,2.450800X0.790800*%
%ADD14C,0.850800*%
%ADD15C,0.400800*%
%ADD16R,2.350800X2.550800*%
%ADD17R,1.750800X1.350800*%
%ADD18R,1.350800X0.750800*%
%ADD19R,0.350800X0.850800*%
%ADD20R,1.250800X1.650800*%
%ADD21R,2.650800X2.650800*%
%ADD22R,0.350800X0.900800*%
%ADD23R,0.900800X0.350800*%
%ADD24R,1.850800X4.450800*%
%ADD25O,1.850800X4.050800*%
%ADD26O,4.050800X1.850800*%
%ADD27R,0.950800X0.850800*%
%ADD28C,1.850800*%
%ADD29R,6.090800X3.450800*%
%ADD30C,1.450800*%
%ADD31R,3.050800X0.750800*%
%ADD32C,2.075800*%
%ADD33C,1.481800*%
%ADD34R,1.050800X0.950800*%
%ADD35R,1.150800X0.950800*%
%ADD36R,0.850800X0.950800*%
%ADD37R,1.050800X2.560800*%
%ADD38R,3.350800X3.350800*%
%ADD39C,2.300800*%
%ADD40R,0.500800X1.525800*%
G04 APERTURE END LIST*
D10*
G36*
X173278800Y-69875400D02*
G01*
X171119800Y-69875400D01*
X171119800Y-54254400D01*
X91440000Y-54254400D01*
X91440000Y-102819200D01*
X88900000Y-102819200D01*
X88900000Y-52019200D01*
X173278800Y-51968400D01*
X173278800Y-69875400D01*
G37*
X173278800Y-69875400D02*
X171119800Y-69875400D01*
X171119800Y-54254400D01*
X91440000Y-54254400D01*
X91440000Y-102819200D01*
X88900000Y-102819200D01*
X88900000Y-52019200D01*
X173278800Y-51968400D01*
X173278800Y-69875400D01*
G36*
X173278800Y-102819200D02*
G01*
X91173300Y-102819200D01*
X91173300Y-100596700D01*
X171119800Y-100584000D01*
X171119800Y-83210400D01*
X173278800Y-83210400D01*
X173278800Y-102819200D01*
G37*
X173278800Y-102819200D02*
X91173300Y-102819200D01*
X91173300Y-100596700D01*
X171119800Y-100584000D01*
X171119800Y-83210400D01*
X173278800Y-83210400D01*
X173278800Y-102819200D01*
D11*
X110223300Y-62839600D03*
D12*
X139801600Y-62509400D03*
G36*
G01*
X136006550Y-84714600D02*
X135468650Y-84714600D01*
G75*
G02*
X135237200Y-84483150I0J231450D01*
G01*
X135237200Y-84020250D01*
G75*
G02*
X135468650Y-83788800I231450J0D01*
G01*
X136006550Y-83788800D01*
G75*
G02*
X136238000Y-84020250I0J-231450D01*
G01*
X136238000Y-84483150D01*
G75*
G02*
X136006550Y-84714600I-231450J0D01*
G01*
G37*
G36*
G01*
X136006550Y-86289600D02*
X135468650Y-86289600D01*
G75*
G02*
X135237200Y-86058150I0J231450D01*
G01*
X135237200Y-85595250D01*
G75*
G02*
X135468650Y-85363800I231450J0D01*
G01*
X136006550Y-85363800D01*
G75*
G02*
X136238000Y-85595250I0J-231450D01*
G01*
X136238000Y-86058150D01*
G75*
G02*
X136006550Y-86289600I-231450J0D01*
G01*
G37*
D13*
X116643700Y-93980000D03*
X112743700Y-93980000D03*
X116643700Y-92710000D03*
X112743700Y-92710000D03*
X116643700Y-91440000D03*
X112743700Y-91440000D03*
X116643700Y-90170000D03*
X112743700Y-90170000D03*
X116643700Y-88900000D03*
X112743700Y-88900000D03*
D14*
X155346400Y-66344800D03*
X153822400Y-56032400D03*
X138430000Y-55778400D03*
D11*
X133731000Y-69088000D03*
X127939800Y-72212200D03*
X126263400Y-72263000D03*
X158927800Y-90068400D03*
D15*
X136543600Y-75114600D03*
X135743600Y-75114600D03*
X134943600Y-75114600D03*
X134143600Y-75114600D03*
X133343600Y-75114600D03*
X132543600Y-75114600D03*
X131743600Y-75114600D03*
X130943600Y-75114600D03*
X130143600Y-75114600D03*
X129343600Y-75114600D03*
X136543600Y-75914600D03*
X135743600Y-75914600D03*
X134943600Y-75914600D03*
X134143600Y-75914600D03*
X133343600Y-75914600D03*
X132543600Y-75914600D03*
X131743600Y-75914600D03*
X130943600Y-75914600D03*
X130143600Y-75914600D03*
X129343600Y-75914600D03*
X136543600Y-76714600D03*
X135743600Y-76714600D03*
X134943600Y-76714600D03*
X134143600Y-76714600D03*
X133343600Y-76714600D03*
X132543600Y-76714600D03*
X131743600Y-76714600D03*
X130943600Y-76714600D03*
X130143600Y-76714600D03*
X129343600Y-76714600D03*
X136543600Y-77514600D03*
X135743600Y-77514600D03*
X134943600Y-77514600D03*
X134143600Y-77514600D03*
X133343600Y-77514600D03*
X132543600Y-77514600D03*
X131743600Y-77514600D03*
X130943600Y-77514600D03*
X130143600Y-77514600D03*
X129343600Y-77514600D03*
X136543600Y-78314600D03*
X135743600Y-78314600D03*
X134943600Y-78314600D03*
X134143600Y-78314600D03*
X133343600Y-78314600D03*
X132543600Y-78314600D03*
X131743600Y-78314600D03*
X130943600Y-78314600D03*
X130143600Y-78314600D03*
X129343600Y-78314600D03*
X136543600Y-79114600D03*
X135743600Y-79114600D03*
X134943600Y-79114600D03*
X134143600Y-79114600D03*
X133343600Y-79114600D03*
X132543600Y-79114600D03*
X131743600Y-79114600D03*
X130943600Y-79114600D03*
X130143600Y-79114600D03*
X129343600Y-79114600D03*
X136543600Y-79914600D03*
X135743600Y-79914600D03*
X134943600Y-79914600D03*
X134143600Y-79914600D03*
X133343600Y-79914600D03*
X132543600Y-79914600D03*
X131743600Y-79914600D03*
X130943600Y-79914600D03*
X130143600Y-79914600D03*
X129343600Y-79914600D03*
X136543600Y-80714600D03*
X135743600Y-80714600D03*
X134943600Y-80714600D03*
X134143600Y-80714600D03*
X133343600Y-80714600D03*
X132543600Y-80714600D03*
X131743600Y-80714600D03*
X130943600Y-80714600D03*
X130143600Y-80714600D03*
X129343600Y-80714600D03*
X136543600Y-81514600D03*
X135743600Y-81514600D03*
X134943600Y-81514600D03*
X134143600Y-81514600D03*
X133343600Y-81514600D03*
X132543600Y-81514600D03*
X131743600Y-81514600D03*
X130943600Y-81514600D03*
X130143600Y-81514600D03*
X129343600Y-81514600D03*
X136543600Y-82314600D03*
X135743600Y-82314600D03*
X134943600Y-82314600D03*
X134143600Y-82314600D03*
X133343600Y-82314600D03*
X132543600Y-82314600D03*
X131743600Y-82314600D03*
X130943600Y-82314600D03*
X130143600Y-82314600D03*
X129343600Y-82314600D03*
D16*
X157746700Y-97476200D03*
X157746700Y-93176200D03*
G36*
G01*
X157372800Y-91226350D02*
X157372800Y-90688450D01*
G75*
G02*
X157604250Y-90457000I231450J0D01*
G01*
X158067150Y-90457000D01*
G75*
G02*
X158298600Y-90688450I0J-231450D01*
G01*
X158298600Y-91226350D01*
G75*
G02*
X158067150Y-91457800I-231450J0D01*
G01*
X157604250Y-91457800D01*
G75*
G02*
X157372800Y-91226350I0J231450D01*
G01*
G37*
G36*
G01*
X155797800Y-91226350D02*
X155797800Y-90688450D01*
G75*
G02*
X156029250Y-90457000I231450J0D01*
G01*
X156492150Y-90457000D01*
G75*
G02*
X156723600Y-90688450I0J-231450D01*
G01*
X156723600Y-91226350D01*
G75*
G02*
X156492150Y-91457800I-231450J0D01*
G01*
X156029250Y-91457800D01*
G75*
G02*
X155797800Y-91226350I0J231450D01*
G01*
G37*
G36*
G01*
X110932250Y-80791800D02*
X111470150Y-80791800D01*
G75*
G02*
X111701600Y-81023250I0J-231450D01*
G01*
X111701600Y-81486150D01*
G75*
G02*
X111470150Y-81717600I-231450J0D01*
G01*
X110932250Y-81717600D01*
G75*
G02*
X110700800Y-81486150I0J231450D01*
G01*
X110700800Y-81023250D01*
G75*
G02*
X110932250Y-80791800I231450J0D01*
G01*
G37*
G36*
G01*
X110932250Y-79216800D02*
X111470150Y-79216800D01*
G75*
G02*
X111701600Y-79448250I0J-231450D01*
G01*
X111701600Y-79911150D01*
G75*
G02*
X111470150Y-80142600I-231450J0D01*
G01*
X110932250Y-80142600D01*
G75*
G02*
X110700800Y-79911150I0J231450D01*
G01*
X110700800Y-79448250D01*
G75*
G02*
X110932250Y-79216800I231450J0D01*
G01*
G37*
D17*
X141986000Y-57142500D03*
X141986000Y-60642500D03*
D18*
X147739100Y-58140600D03*
D19*
X148489100Y-59140600D03*
X147989100Y-59140600D03*
X147489100Y-59140600D03*
X146989100Y-59140600D03*
X146989100Y-57140600D03*
X147489100Y-57140600D03*
X147989100Y-57140600D03*
X148489100Y-57140600D03*
D20*
X152704800Y-66573400D03*
G36*
G01*
X153479400Y-66136100D02*
X153479400Y-66010700D01*
G75*
G02*
X153542100Y-65948000I62700J0D01*
G01*
X154017500Y-65948000D01*
G75*
G02*
X154080200Y-66010700I0J-62700D01*
G01*
X154080200Y-66136100D01*
G75*
G02*
X154017500Y-66198800I-62700J0D01*
G01*
X153542100Y-66198800D01*
G75*
G02*
X153479400Y-66136100I0J62700D01*
G01*
G37*
G36*
G01*
X153479400Y-66636100D02*
X153479400Y-66510700D01*
G75*
G02*
X153542100Y-66448000I62700J0D01*
G01*
X154017500Y-66448000D01*
G75*
G02*
X154080200Y-66510700I0J-62700D01*
G01*
X154080200Y-66636100D01*
G75*
G02*
X154017500Y-66698800I-62700J0D01*
G01*
X153542100Y-66698800D01*
G75*
G02*
X153479400Y-66636100I0J62700D01*
G01*
G37*
G36*
G01*
X153479400Y-67136100D02*
X153479400Y-67010700D01*
G75*
G02*
X153542100Y-66948000I62700J0D01*
G01*
X154017500Y-66948000D01*
G75*
G02*
X154080200Y-67010700I0J-62700D01*
G01*
X154080200Y-67136100D01*
G75*
G02*
X154017500Y-67198800I-62700J0D01*
G01*
X153542100Y-67198800D01*
G75*
G02*
X153479400Y-67136100I0J62700D01*
G01*
G37*
G36*
G01*
X151329400Y-67136100D02*
X151329400Y-67010700D01*
G75*
G02*
X151392100Y-66948000I62700J0D01*
G01*
X151867500Y-66948000D01*
G75*
G02*
X151930200Y-67010700I0J-62700D01*
G01*
X151930200Y-67136100D01*
G75*
G02*
X151867500Y-67198800I-62700J0D01*
G01*
X151392100Y-67198800D01*
G75*
G02*
X151329400Y-67136100I0J62700D01*
G01*
G37*
G36*
G01*
X151329400Y-66636100D02*
X151329400Y-66510700D01*
G75*
G02*
X151392100Y-66448000I62700J0D01*
G01*
X151867500Y-66448000D01*
G75*
G02*
X151930200Y-66510700I0J-62700D01*
G01*
X151930200Y-66636100D01*
G75*
G02*
X151867500Y-66698800I-62700J0D01*
G01*
X151392100Y-66698800D01*
G75*
G02*
X151329400Y-66636100I0J62700D01*
G01*
G37*
G36*
G01*
X151329400Y-66136100D02*
X151329400Y-66010700D01*
G75*
G02*
X151392100Y-65948000I62700J0D01*
G01*
X151867500Y-65948000D01*
G75*
G02*
X151930200Y-66010700I0J-62700D01*
G01*
X151930200Y-66136100D01*
G75*
G02*
X151867500Y-66198800I-62700J0D01*
G01*
X151392100Y-66198800D01*
G75*
G02*
X151329400Y-66136100I0J62700D01*
G01*
G37*
G36*
G01*
X151198400Y-56960450D02*
X151198400Y-57898350D01*
G75*
G02*
X150941950Y-58154800I-256450J0D01*
G01*
X150429050Y-58154800D01*
G75*
G02*
X150172600Y-57898350I0J256450D01*
G01*
X150172600Y-56960450D01*
G75*
G02*
X150429050Y-56704000I256450J0D01*
G01*
X150941950Y-56704000D01*
G75*
G02*
X151198400Y-56960450I0J-256450D01*
G01*
G37*
G36*
G01*
X153073400Y-56960450D02*
X153073400Y-57898350D01*
G75*
G02*
X152816950Y-58154800I-256450J0D01*
G01*
X152304050Y-58154800D01*
G75*
G02*
X152047600Y-57898350I0J256450D01*
G01*
X152047600Y-56960450D01*
G75*
G02*
X152304050Y-56704000I256450J0D01*
G01*
X152816950Y-56704000D01*
G75*
G02*
X153073400Y-56960450I0J-256450D01*
G01*
G37*
G36*
G01*
X147864600Y-69892137D02*
X147864600Y-71027063D01*
G75*
G02*
X147606663Y-71285000I-257937J0D01*
G01*
X145071737Y-71285000D01*
G75*
G02*
X144813800Y-71027063I0J257937D01*
G01*
X144813800Y-69892137D01*
G75*
G02*
X145071737Y-69634200I257937J0D01*
G01*
X147606663Y-69634200D01*
G75*
G02*
X147864600Y-69892137I0J-257937D01*
G01*
G37*
G36*
G01*
X152264600Y-69892137D02*
X152264600Y-71027063D01*
G75*
G02*
X152006663Y-71285000I-257937J0D01*
G01*
X149471737Y-71285000D01*
G75*
G02*
X149213800Y-71027063I0J257937D01*
G01*
X149213800Y-69892137D01*
G75*
G02*
X149471737Y-69634200I257937J0D01*
G01*
X152006663Y-69634200D01*
G75*
G02*
X152264600Y-69892137I0J-257937D01*
G01*
G37*
G36*
G01*
X149105200Y-60847950D02*
X149105200Y-60310050D01*
G75*
G02*
X149336650Y-60078600I231450J0D01*
G01*
X149799550Y-60078600D01*
G75*
G02*
X150031000Y-60310050I0J-231450D01*
G01*
X150031000Y-60847950D01*
G75*
G02*
X149799550Y-61079400I-231450J0D01*
G01*
X149336650Y-61079400D01*
G75*
G02*
X149105200Y-60847950I0J231450D01*
G01*
G37*
G36*
G01*
X147530200Y-60847950D02*
X147530200Y-60310050D01*
G75*
G02*
X147761650Y-60078600I231450J0D01*
G01*
X148224550Y-60078600D01*
G75*
G02*
X148456000Y-60310050I0J-231450D01*
G01*
X148456000Y-60847950D01*
G75*
G02*
X148224550Y-61079400I-231450J0D01*
G01*
X147761650Y-61079400D01*
G75*
G02*
X147530200Y-60847950I0J231450D01*
G01*
G37*
G36*
G01*
X146476200Y-83530150D02*
X146476200Y-82992250D01*
G75*
G02*
X146707650Y-82760800I231450J0D01*
G01*
X147170550Y-82760800D01*
G75*
G02*
X147402000Y-82992250I0J-231450D01*
G01*
X147402000Y-83530150D01*
G75*
G02*
X147170550Y-83761600I-231450J0D01*
G01*
X146707650Y-83761600D01*
G75*
G02*
X146476200Y-83530150I0J231450D01*
G01*
G37*
G36*
G01*
X144901200Y-83530150D02*
X144901200Y-82992250D01*
G75*
G02*
X145132650Y-82760800I231450J0D01*
G01*
X145595550Y-82760800D01*
G75*
G02*
X145827000Y-82992250I0J-231450D01*
G01*
X145827000Y-83530150D01*
G75*
G02*
X145595550Y-83761600I-231450J0D01*
G01*
X145132650Y-83761600D01*
G75*
G02*
X144901200Y-83530150I0J231450D01*
G01*
G37*
G36*
G01*
X142578463Y-63764000D02*
X141393537Y-63764000D01*
G75*
G02*
X141135600Y-63506063I0J257937D01*
G01*
X141135600Y-62371137D01*
G75*
G02*
X141393537Y-62113200I257937J0D01*
G01*
X142578463Y-62113200D01*
G75*
G02*
X142836400Y-62371137I0J-257937D01*
G01*
X142836400Y-63506063D01*
G75*
G02*
X142578463Y-63764000I-257937J0D01*
G01*
G37*
G36*
G01*
X142578463Y-66614000D02*
X141393537Y-66614000D01*
G75*
G02*
X141135600Y-66356063I0J257937D01*
G01*
X141135600Y-65221137D01*
G75*
G02*
X141393537Y-64963200I257937J0D01*
G01*
X142578463Y-64963200D01*
G75*
G02*
X142836400Y-65221137I0J-257937D01*
G01*
X142836400Y-66356063D01*
G75*
G02*
X142578463Y-66614000I-257937J0D01*
G01*
G37*
D21*
X150139400Y-80518000D03*
D22*
X151389400Y-82468000D03*
X150889400Y-82468000D03*
X150389400Y-82468000D03*
X149889400Y-82468000D03*
X149389400Y-82468000D03*
X148889400Y-82468000D03*
D23*
X148189400Y-81768000D03*
X148189400Y-81268000D03*
X148189400Y-80768000D03*
X148189400Y-80268000D03*
X148189400Y-79768000D03*
X148189400Y-79268000D03*
D22*
X148889400Y-78568000D03*
X149389400Y-78568000D03*
X149889400Y-78568000D03*
X150389400Y-78568000D03*
X150889400Y-78568000D03*
X151389400Y-78568000D03*
D23*
X152089400Y-79268000D03*
X152089400Y-79768000D03*
X152089400Y-80268000D03*
X152089400Y-80768000D03*
X152089400Y-81268000D03*
X152089400Y-81768000D03*
D12*
X145338800Y-65862200D03*
D24*
X161696400Y-94818200D03*
D25*
X167894000Y-94818200D03*
D26*
X164896800Y-90018200D03*
D27*
X150607800Y-84692400D03*
X152007800Y-84692400D03*
X152007800Y-85792400D03*
X150607800Y-85792400D03*
D28*
X169672000Y-85725000D03*
X169672000Y-88265000D03*
D29*
X165316800Y-83279400D03*
X165316800Y-69679400D03*
D30*
X165916800Y-79229400D03*
X165916800Y-73729400D03*
D31*
X158916800Y-75854400D03*
X158916800Y-78354400D03*
X158916800Y-77104400D03*
X158916800Y-74604400D03*
D32*
X163620200Y-59027400D03*
X156620200Y-59027400D03*
X163620200Y-64467400D03*
X156620200Y-64467400D03*
D33*
X156890200Y-61747400D03*
X158890200Y-61747400D03*
X160890200Y-61747400D03*
X162890200Y-61747400D03*
D34*
X110180700Y-68364400D03*
X108030700Y-68364400D03*
X108030700Y-66814400D03*
X110180700Y-66814400D03*
G36*
G01*
X146290800Y-81135000D02*
X146290800Y-80764600D01*
G75*
G02*
X146451000Y-80604400I160200J0D01*
G01*
X146771400Y-80604400D01*
G75*
G02*
X146931600Y-80764600I0J-160200D01*
G01*
X146931600Y-81135000D01*
G75*
G02*
X146771400Y-81295200I-160200J0D01*
G01*
X146451000Y-81295200D01*
G75*
G02*
X146290800Y-81135000I0J160200D01*
G01*
G37*
G36*
G01*
X145320800Y-81135000D02*
X145320800Y-80764600D01*
G75*
G02*
X145481000Y-80604400I160200J0D01*
G01*
X145801400Y-80604400D01*
G75*
G02*
X145961600Y-80764600I0J-160200D01*
G01*
X145961600Y-81135000D01*
G75*
G02*
X145801400Y-81295200I-160200J0D01*
G01*
X145481000Y-81295200D01*
G75*
G02*
X145320800Y-81135000I0J160200D01*
G01*
G37*
G36*
G01*
X145961600Y-79723200D02*
X145961600Y-80093600D01*
G75*
G02*
X145801400Y-80253800I-160200J0D01*
G01*
X145481000Y-80253800D01*
G75*
G02*
X145320800Y-80093600I0J160200D01*
G01*
X145320800Y-79723200D01*
G75*
G02*
X145481000Y-79563000I160200J0D01*
G01*
X145801400Y-79563000D01*
G75*
G02*
X145961600Y-79723200I0J-160200D01*
G01*
G37*
G36*
G01*
X146931600Y-79723200D02*
X146931600Y-80093600D01*
G75*
G02*
X146771400Y-80253800I-160200J0D01*
G01*
X146451000Y-80253800D01*
G75*
G02*
X146290800Y-80093600I0J160200D01*
G01*
X146290800Y-79723200D01*
G75*
G02*
X146451000Y-79563000I160200J0D01*
G01*
X146771400Y-79563000D01*
G75*
G02*
X146931600Y-79723200I0J-160200D01*
G01*
G37*
D35*
X119009900Y-63673200D03*
X117309900Y-63673200D03*
X117309900Y-64973200D03*
X119009900Y-64973200D03*
G36*
G01*
X145984600Y-78681800D02*
X145984600Y-79052200D01*
G75*
G02*
X145824400Y-79212400I-160200J0D01*
G01*
X145504000Y-79212400D01*
G75*
G02*
X145343800Y-79052200I0J160200D01*
G01*
X145343800Y-78681800D01*
G75*
G02*
X145504000Y-78521600I160200J0D01*
G01*
X145824400Y-78521600D01*
G75*
G02*
X145984600Y-78681800I0J-160200D01*
G01*
G37*
G36*
G01*
X146954600Y-78681800D02*
X146954600Y-79052200D01*
G75*
G02*
X146794400Y-79212400I-160200J0D01*
G01*
X146474000Y-79212400D01*
G75*
G02*
X146313800Y-79052200I0J160200D01*
G01*
X146313800Y-78681800D01*
G75*
G02*
X146474000Y-78521600I160200J0D01*
G01*
X146794400Y-78521600D01*
G75*
G02*
X146954600Y-78681800I0J-160200D01*
G01*
G37*
G36*
G01*
X147206200Y-77640400D02*
X147206200Y-78010800D01*
G75*
G02*
X147046000Y-78171000I-160200J0D01*
G01*
X146725600Y-78171000D01*
G75*
G02*
X146565400Y-78010800I0J160200D01*
G01*
X146565400Y-77640400D01*
G75*
G02*
X146725600Y-77480200I160200J0D01*
G01*
X147046000Y-77480200D01*
G75*
G02*
X147206200Y-77640400I0J-160200D01*
G01*
G37*
G36*
G01*
X148176200Y-77640400D02*
X148176200Y-78010800D01*
G75*
G02*
X148016000Y-78171000I-160200J0D01*
G01*
X147695600Y-78171000D01*
G75*
G02*
X147535400Y-78010800I0J160200D01*
G01*
X147535400Y-77640400D01*
G75*
G02*
X147695600Y-77480200I160200J0D01*
G01*
X148016000Y-77480200D01*
G75*
G02*
X148176200Y-77640400I0J-160200D01*
G01*
G37*
G36*
G01*
X146290800Y-82201800D02*
X146290800Y-81831400D01*
G75*
G02*
X146451000Y-81671200I160200J0D01*
G01*
X146771400Y-81671200D01*
G75*
G02*
X146931600Y-81831400I0J-160200D01*
G01*
X146931600Y-82201800D01*
G75*
G02*
X146771400Y-82362000I-160200J0D01*
G01*
X146451000Y-82362000D01*
G75*
G02*
X146290800Y-82201800I0J160200D01*
G01*
G37*
G36*
G01*
X145320800Y-82201800D02*
X145320800Y-81831400D01*
G75*
G02*
X145481000Y-81671200I160200J0D01*
G01*
X145801400Y-81671200D01*
G75*
G02*
X145961600Y-81831400I0J-160200D01*
G01*
X145961600Y-82201800D01*
G75*
G02*
X145801400Y-82362000I-160200J0D01*
G01*
X145481000Y-82362000D01*
G75*
G02*
X145320800Y-82201800I0J160200D01*
G01*
G37*
G36*
G01*
X154434900Y-83291900D02*
X154434900Y-83662300D01*
G75*
G02*
X154274700Y-83822500I-160200J0D01*
G01*
X153954300Y-83822500D01*
G75*
G02*
X153794100Y-83662300I0J160200D01*
G01*
X153794100Y-83291900D01*
G75*
G02*
X153954300Y-83131700I160200J0D01*
G01*
X154274700Y-83131700D01*
G75*
G02*
X154434900Y-83291900I0J-160200D01*
G01*
G37*
G36*
G01*
X155404900Y-83291900D02*
X155404900Y-83662300D01*
G75*
G02*
X155244700Y-83822500I-160200J0D01*
G01*
X154924300Y-83822500D01*
G75*
G02*
X154764100Y-83662300I0J160200D01*
G01*
X154764100Y-83291900D01*
G75*
G02*
X154924300Y-83131700I160200J0D01*
G01*
X155244700Y-83131700D01*
G75*
G02*
X155404900Y-83291900I0J-160200D01*
G01*
G37*
G36*
G01*
X153601200Y-85014300D02*
X153230800Y-85014300D01*
G75*
G02*
X153070600Y-84854100I0J160200D01*
G01*
X153070600Y-84533700D01*
G75*
G02*
X153230800Y-84373500I160200J0D01*
G01*
X153601200Y-84373500D01*
G75*
G02*
X153761400Y-84533700I0J-160200D01*
G01*
X153761400Y-84854100D01*
G75*
G02*
X153601200Y-85014300I-160200J0D01*
G01*
G37*
G36*
G01*
X153601200Y-85984300D02*
X153230800Y-85984300D01*
G75*
G02*
X153070600Y-85824100I0J160200D01*
G01*
X153070600Y-85503700D01*
G75*
G02*
X153230800Y-85343500I160200J0D01*
G01*
X153601200Y-85343500D01*
G75*
G02*
X153761400Y-85503700I0J-160200D01*
G01*
X153761400Y-85824100D01*
G75*
G02*
X153601200Y-85984300I-160200J0D01*
G01*
G37*
G36*
G01*
X150914600Y-87051100D02*
X150914600Y-87421500D01*
G75*
G02*
X150754400Y-87581700I-160200J0D01*
G01*
X150434000Y-87581700D01*
G75*
G02*
X150273800Y-87421500I0J160200D01*
G01*
X150273800Y-87051100D01*
G75*
G02*
X150434000Y-86890900I160200J0D01*
G01*
X150754400Y-86890900D01*
G75*
G02*
X150914600Y-87051100I0J-160200D01*
G01*
G37*
G36*
G01*
X151884600Y-87051100D02*
X151884600Y-87421500D01*
G75*
G02*
X151724400Y-87581700I-160200J0D01*
G01*
X151404000Y-87581700D01*
G75*
G02*
X151243800Y-87421500I0J160200D01*
G01*
X151243800Y-87051100D01*
G75*
G02*
X151404000Y-86890900I160200J0D01*
G01*
X151724400Y-86890900D01*
G75*
G02*
X151884600Y-87051100I0J-160200D01*
G01*
G37*
G36*
G01*
X149641850Y-76118200D02*
X150179750Y-76118200D01*
G75*
G02*
X150411200Y-76349650I0J-231450D01*
G01*
X150411200Y-76812550D01*
G75*
G02*
X150179750Y-77044000I-231450J0D01*
G01*
X149641850Y-77044000D01*
G75*
G02*
X149410400Y-76812550I0J231450D01*
G01*
X149410400Y-76349650D01*
G75*
G02*
X149641850Y-76118200I231450J0D01*
G01*
G37*
G36*
G01*
X149641850Y-74543200D02*
X150179750Y-74543200D01*
G75*
G02*
X150411200Y-74774650I0J-231450D01*
G01*
X150411200Y-75237550D01*
G75*
G02*
X150179750Y-75469000I-231450J0D01*
G01*
X149641850Y-75469000D01*
G75*
G02*
X149410400Y-75237550I0J231450D01*
G01*
X149410400Y-74774650D01*
G75*
G02*
X149641850Y-74543200I231450J0D01*
G01*
G37*
G36*
G01*
X145260350Y-58414400D02*
X145798250Y-58414400D01*
G75*
G02*
X146029700Y-58645850I0J-231450D01*
G01*
X146029700Y-59108750D01*
G75*
G02*
X145798250Y-59340200I-231450J0D01*
G01*
X145260350Y-59340200D01*
G75*
G02*
X145028900Y-59108750I0J231450D01*
G01*
X145028900Y-58645850D01*
G75*
G02*
X145260350Y-58414400I231450J0D01*
G01*
G37*
G36*
G01*
X145260350Y-56839400D02*
X145798250Y-56839400D01*
G75*
G02*
X146029700Y-57070850I0J-231450D01*
G01*
X146029700Y-57533750D01*
G75*
G02*
X145798250Y-57765200I-231450J0D01*
G01*
X145260350Y-57765200D01*
G75*
G02*
X145028900Y-57533750I0J231450D01*
G01*
X145028900Y-57070850D01*
G75*
G02*
X145260350Y-56839400I231450J0D01*
G01*
G37*
D36*
X138743600Y-77662000D03*
X138743600Y-76262000D03*
X139843600Y-76262000D03*
X139843600Y-77662000D03*
G36*
G01*
X139065500Y-74655900D02*
X139065500Y-75026300D01*
G75*
G02*
X138905300Y-75186500I-160200J0D01*
G01*
X138584900Y-75186500D01*
G75*
G02*
X138424700Y-75026300I0J160200D01*
G01*
X138424700Y-74655900D01*
G75*
G02*
X138584900Y-74495700I160200J0D01*
G01*
X138905300Y-74495700D01*
G75*
G02*
X139065500Y-74655900I0J-160200D01*
G01*
G37*
G36*
G01*
X140035500Y-74655900D02*
X140035500Y-75026300D01*
G75*
G02*
X139875300Y-75186500I-160200J0D01*
G01*
X139554900Y-75186500D01*
G75*
G02*
X139394700Y-75026300I0J160200D01*
G01*
X139394700Y-74655900D01*
G75*
G02*
X139554900Y-74495700I160200J0D01*
G01*
X139875300Y-74495700D01*
G75*
G02*
X140035500Y-74655900I0J-160200D01*
G01*
G37*
G36*
G01*
X141115000Y-77355200D02*
X141485400Y-77355200D01*
G75*
G02*
X141645600Y-77515400I0J-160200D01*
G01*
X141645600Y-77835800D01*
G75*
G02*
X141485400Y-77996000I-160200J0D01*
G01*
X141115000Y-77996000D01*
G75*
G02*
X140954800Y-77835800I0J160200D01*
G01*
X140954800Y-77515400D01*
G75*
G02*
X141115000Y-77355200I160200J0D01*
G01*
G37*
G36*
G01*
X141115000Y-76385200D02*
X141485400Y-76385200D01*
G75*
G02*
X141645600Y-76545400I0J-160200D01*
G01*
X141645600Y-76865800D01*
G75*
G02*
X141485400Y-77026000I-160200J0D01*
G01*
X141115000Y-77026000D01*
G75*
G02*
X140954800Y-76865800I0J160200D01*
G01*
X140954800Y-76545400D01*
G75*
G02*
X141115000Y-76385200I160200J0D01*
G01*
G37*
D37*
X138531600Y-92883800D03*
X133451600Y-92883800D03*
X135991600Y-96193800D03*
X130911600Y-96193800D03*
G36*
G01*
X159339800Y-66075850D02*
X159339800Y-66613750D01*
G75*
G02*
X159108350Y-66845200I-231450J0D01*
G01*
X158645450Y-66845200D01*
G75*
G02*
X158414000Y-66613750I0J231450D01*
G01*
X158414000Y-66075850D01*
G75*
G02*
X158645450Y-65844400I231450J0D01*
G01*
X159108350Y-65844400D01*
G75*
G02*
X159339800Y-66075850I0J-231450D01*
G01*
G37*
G36*
G01*
X160914800Y-66075850D02*
X160914800Y-66613750D01*
G75*
G02*
X160683350Y-66845200I-231450J0D01*
G01*
X160220450Y-66845200D01*
G75*
G02*
X159989000Y-66613750I0J231450D01*
G01*
X159989000Y-66075850D01*
G75*
G02*
X160220450Y-65844400I231450J0D01*
G01*
X160683350Y-65844400D01*
G75*
G02*
X160914800Y-66075850I0J-231450D01*
G01*
G37*
G36*
G01*
X154290050Y-64078600D02*
X154827950Y-64078600D01*
G75*
G02*
X155059400Y-64310050I0J-231450D01*
G01*
X155059400Y-64772950D01*
G75*
G02*
X154827950Y-65004400I-231450J0D01*
G01*
X154290050Y-65004400D01*
G75*
G02*
X154058600Y-64772950I0J231450D01*
G01*
X154058600Y-64310050D01*
G75*
G02*
X154290050Y-64078600I231450J0D01*
G01*
G37*
G36*
G01*
X154290050Y-62503600D02*
X154827950Y-62503600D01*
G75*
G02*
X155059400Y-62735050I0J-231450D01*
G01*
X155059400Y-63197950D01*
G75*
G02*
X154827950Y-63429400I-231450J0D01*
G01*
X154290050Y-63429400D01*
G75*
G02*
X154058600Y-63197950I0J231450D01*
G01*
X154058600Y-62735050D01*
G75*
G02*
X154290050Y-62503600I231450J0D01*
G01*
G37*
G36*
G01*
X160288950Y-56952300D02*
X159751050Y-56952300D01*
G75*
G02*
X159519600Y-56720850I0J231450D01*
G01*
X159519600Y-56257950D01*
G75*
G02*
X159751050Y-56026500I231450J0D01*
G01*
X160288950Y-56026500D01*
G75*
G02*
X160520400Y-56257950I0J-231450D01*
G01*
X160520400Y-56720850D01*
G75*
G02*
X160288950Y-56952300I-231450J0D01*
G01*
G37*
G36*
G01*
X160288950Y-58527300D02*
X159751050Y-58527300D01*
G75*
G02*
X159519600Y-58295850I0J231450D01*
G01*
X159519600Y-57832950D01*
G75*
G02*
X159751050Y-57601500I231450J0D01*
G01*
X160288950Y-57601500D01*
G75*
G02*
X160520400Y-57832950I0J-231450D01*
G01*
X160520400Y-58295850D01*
G75*
G02*
X160288950Y-58527300I-231450J0D01*
G01*
G37*
G36*
G01*
X159506300Y-68874350D02*
X159506300Y-68336450D01*
G75*
G02*
X159737750Y-68105000I231450J0D01*
G01*
X160200650Y-68105000D01*
G75*
G02*
X160432100Y-68336450I0J-231450D01*
G01*
X160432100Y-68874350D01*
G75*
G02*
X160200650Y-69105800I-231450J0D01*
G01*
X159737750Y-69105800D01*
G75*
G02*
X159506300Y-68874350I0J231450D01*
G01*
G37*
G36*
G01*
X157931300Y-68874350D02*
X157931300Y-68336450D01*
G75*
G02*
X158162750Y-68105000I231450J0D01*
G01*
X158625650Y-68105000D01*
G75*
G02*
X158857100Y-68336450I0J-231450D01*
G01*
X158857100Y-68874350D01*
G75*
G02*
X158625650Y-69105800I-231450J0D01*
G01*
X158162750Y-69105800D01*
G75*
G02*
X157931300Y-68874350I0J231450D01*
G01*
G37*
G36*
G01*
X155047200Y-75575450D02*
X155047200Y-76113350D01*
G75*
G02*
X154815750Y-76344800I-231450J0D01*
G01*
X154352850Y-76344800D01*
G75*
G02*
X154121400Y-76113350I0J231450D01*
G01*
X154121400Y-75575450D01*
G75*
G02*
X154352850Y-75344000I231450J0D01*
G01*
X154815750Y-75344000D01*
G75*
G02*
X155047200Y-75575450I0J-231450D01*
G01*
G37*
G36*
G01*
X156622200Y-75575450D02*
X156622200Y-76113350D01*
G75*
G02*
X156390750Y-76344800I-231450J0D01*
G01*
X155927850Y-76344800D01*
G75*
G02*
X155696400Y-76113350I0J231450D01*
G01*
X155696400Y-75575450D01*
G75*
G02*
X155927850Y-75344000I231450J0D01*
G01*
X156390750Y-75344000D01*
G75*
G02*
X156622200Y-75575450I0J-231450D01*
G01*
G37*
G36*
G01*
X160279500Y-83754250D02*
X160279500Y-84292150D01*
G75*
G02*
X160048050Y-84523600I-231450J0D01*
G01*
X159585150Y-84523600D01*
G75*
G02*
X159353700Y-84292150I0J231450D01*
G01*
X159353700Y-83754250D01*
G75*
G02*
X159585150Y-83522800I231450J0D01*
G01*
X160048050Y-83522800D01*
G75*
G02*
X160279500Y-83754250I0J-231450D01*
G01*
G37*
G36*
G01*
X161854500Y-83754250D02*
X161854500Y-84292150D01*
G75*
G02*
X161623050Y-84523600I-231450J0D01*
G01*
X161160150Y-84523600D01*
G75*
G02*
X160928700Y-84292150I0J231450D01*
G01*
X160928700Y-83754250D01*
G75*
G02*
X161160150Y-83522800I231450J0D01*
G01*
X161623050Y-83522800D01*
G75*
G02*
X161854500Y-83754250I0J-231450D01*
G01*
G37*
D22*
X119034500Y-68568400D03*
X118534500Y-68568400D03*
X118034500Y-68568400D03*
X117534500Y-68568400D03*
X117034500Y-68568400D03*
X116534500Y-68568400D03*
X116034500Y-68568400D03*
X115534500Y-68568400D03*
D23*
X114834500Y-69268400D03*
X114834500Y-69768400D03*
X114834500Y-70268400D03*
X114834500Y-70768400D03*
X114834500Y-71268400D03*
X114834500Y-71768400D03*
X114834500Y-72268400D03*
X114834500Y-72768400D03*
D22*
X115534500Y-73468400D03*
X116034500Y-73468400D03*
X116534500Y-73468400D03*
X117034500Y-73468400D03*
X117534500Y-73468400D03*
X118034500Y-73468400D03*
X118534500Y-73468400D03*
X119034500Y-73468400D03*
D23*
X119734500Y-72768400D03*
X119734500Y-72268400D03*
X119734500Y-71768400D03*
X119734500Y-71268400D03*
X119734500Y-70768400D03*
X119734500Y-70268400D03*
X119734500Y-69768400D03*
X119734500Y-69268400D03*
D38*
X117284500Y-71018400D03*
D39*
X96507300Y-61239400D03*
X99047300Y-58699400D03*
X93967300Y-58699400D03*
X93967300Y-63779400D03*
X99047300Y-63779400D03*
X96532700Y-77419200D03*
X99072700Y-74879200D03*
X93992700Y-74879200D03*
X93992700Y-79959200D03*
X99072700Y-79959200D03*
X96532700Y-93599000D03*
X99072700Y-91059000D03*
X93992700Y-91059000D03*
X93992700Y-96139000D03*
X99072700Y-96139000D03*
D40*
X110598500Y-72144400D03*
X109948500Y-72144400D03*
X109298500Y-72144400D03*
X108648500Y-72144400D03*
X107998500Y-72144400D03*
X107348500Y-72144400D03*
X106698500Y-72144400D03*
X106698500Y-78020400D03*
X107348500Y-78020400D03*
X107998500Y-78020400D03*
X108648500Y-78020400D03*
X109298500Y-78020400D03*
X109948500Y-78020400D03*
X110598500Y-78020400D03*
G36*
G01*
X154265950Y-69120600D02*
X153328050Y-69120600D01*
G75*
G02*
X153071600Y-68864150I0J256450D01*
G01*
X153071600Y-68351250D01*
G75*
G02*
X153328050Y-68094800I256450J0D01*
G01*
X154265950Y-68094800D01*
G75*
G02*
X154522400Y-68351250I0J-256450D01*
G01*
X154522400Y-68864150D01*
G75*
G02*
X154265950Y-69120600I-256450J0D01*
G01*
G37*
G36*
G01*
X154265950Y-70995600D02*
X153328050Y-70995600D01*
G75*
G02*
X153071600Y-70739150I0J256450D01*
G01*
X153071600Y-70226250D01*
G75*
G02*
X153328050Y-69969800I256450J0D01*
G01*
X154265950Y-69969800D01*
G75*
G02*
X154522400Y-70226250I0J-256450D01*
G01*
X154522400Y-70739150D01*
G75*
G02*
X154265950Y-70995600I-256450J0D01*
G01*
G37*
G36*
G01*
X137025200Y-56960450D02*
X137025200Y-57898350D01*
G75*
G02*
X136768750Y-58154800I-256450J0D01*
G01*
X136255850Y-58154800D01*
G75*
G02*
X135999400Y-57898350I0J256450D01*
G01*
X135999400Y-56960450D01*
G75*
G02*
X136255850Y-56704000I256450J0D01*
G01*
X136768750Y-56704000D01*
G75*
G02*
X137025200Y-56960450I0J-256450D01*
G01*
G37*
G36*
G01*
X138900200Y-56960450D02*
X138900200Y-57898350D01*
G75*
G02*
X138643750Y-58154800I-256450J0D01*
G01*
X138130850Y-58154800D01*
G75*
G02*
X137874400Y-57898350I0J256450D01*
G01*
X137874400Y-56960450D01*
G75*
G02*
X138130850Y-56704000I256450J0D01*
G01*
X138643750Y-56704000D01*
G75*
G02*
X138900200Y-56960450I0J-256450D01*
G01*
G37*
D18*
X133565900Y-58115200D03*
D19*
X134315900Y-59115200D03*
X133815900Y-59115200D03*
X133315900Y-59115200D03*
X132815900Y-59115200D03*
X132815900Y-57115200D03*
X133315900Y-57115200D03*
X133815900Y-57115200D03*
X134315900Y-57115200D03*
G36*
G01*
X134932000Y-60847950D02*
X134932000Y-60310050D01*
G75*
G02*
X135163450Y-60078600I231450J0D01*
G01*
X135626350Y-60078600D01*
G75*
G02*
X135857800Y-60310050I0J-231450D01*
G01*
X135857800Y-60847950D01*
G75*
G02*
X135626350Y-61079400I-231450J0D01*
G01*
X135163450Y-61079400D01*
G75*
G02*
X134932000Y-60847950I0J231450D01*
G01*
G37*
G36*
G01*
X133357000Y-60847950D02*
X133357000Y-60310050D01*
G75*
G02*
X133588450Y-60078600I231450J0D01*
G01*
X134051350Y-60078600D01*
G75*
G02*
X134282800Y-60310050I0J-231450D01*
G01*
X134282800Y-60847950D01*
G75*
G02*
X134051350Y-61079400I-231450J0D01*
G01*
X133588450Y-61079400D01*
G75*
G02*
X133357000Y-60847950I0J231450D01*
G01*
G37*
G36*
G01*
X153151550Y-74122800D02*
X152613650Y-74122800D01*
G75*
G02*
X152382200Y-73891350I0J231450D01*
G01*
X152382200Y-73428450D01*
G75*
G02*
X152613650Y-73197000I231450J0D01*
G01*
X153151550Y-73197000D01*
G75*
G02*
X153383000Y-73428450I0J-231450D01*
G01*
X153383000Y-73891350D01*
G75*
G02*
X153151550Y-74122800I-231450J0D01*
G01*
G37*
G36*
G01*
X153151550Y-75697800D02*
X152613650Y-75697800D01*
G75*
G02*
X152382200Y-75466350I0J231450D01*
G01*
X152382200Y-75003450D01*
G75*
G02*
X152613650Y-74772000I231450J0D01*
G01*
X153151550Y-74772000D01*
G75*
G02*
X153383000Y-75003450I0J-231450D01*
G01*
X153383000Y-75466350D01*
G75*
G02*
X153151550Y-75697800I-231450J0D01*
G01*
G37*
G36*
G01*
X131087150Y-58414400D02*
X131625050Y-58414400D01*
G75*
G02*
X131856500Y-58645850I0J-231450D01*
G01*
X131856500Y-59108750D01*
G75*
G02*
X131625050Y-59340200I-231450J0D01*
G01*
X131087150Y-59340200D01*
G75*
G02*
X130855700Y-59108750I0J231450D01*
G01*
X130855700Y-58645850D01*
G75*
G02*
X131087150Y-58414400I231450J0D01*
G01*
G37*
G36*
G01*
X131087150Y-56839400D02*
X131625050Y-56839400D01*
G75*
G02*
X131856500Y-57070850I0J-231450D01*
G01*
X131856500Y-57533750D01*
G75*
G02*
X131625050Y-57765200I-231450J0D01*
G01*
X131087150Y-57765200D01*
G75*
G02*
X130855700Y-57533750I0J231450D01*
G01*
X130855700Y-57070850D01*
G75*
G02*
X131087150Y-56839400I231450J0D01*
G01*
G37*
G36*
G01*
X113298950Y-78466200D02*
X112761050Y-78466200D01*
G75*
G02*
X112529600Y-78234750I0J231450D01*
G01*
X112529600Y-77771850D01*
G75*
G02*
X112761050Y-77540400I231450J0D01*
G01*
X113298950Y-77540400D01*
G75*
G02*
X113530400Y-77771850I0J-231450D01*
G01*
X113530400Y-78234750D01*
G75*
G02*
X113298950Y-78466200I-231450J0D01*
G01*
G37*
G36*
G01*
X113298950Y-80041200D02*
X112761050Y-80041200D01*
G75*
G02*
X112529600Y-79809750I0J231450D01*
G01*
X112529600Y-79346850D01*
G75*
G02*
X112761050Y-79115400I231450J0D01*
G01*
X113298950Y-79115400D01*
G75*
G02*
X113530400Y-79346850I0J-231450D01*
G01*
X113530400Y-79809750D01*
G75*
G02*
X113298950Y-80041200I-231450J0D01*
G01*
G37*
G36*
G01*
X151465800Y-60310050D02*
X151465800Y-60847950D01*
G75*
G02*
X151234350Y-61079400I-231450J0D01*
G01*
X150771450Y-61079400D01*
G75*
G02*
X150540000Y-60847950I0J231450D01*
G01*
X150540000Y-60310050D01*
G75*
G02*
X150771450Y-60078600I231450J0D01*
G01*
X151234350Y-60078600D01*
G75*
G02*
X151465800Y-60310050I0J-231450D01*
G01*
G37*
G36*
G01*
X153040800Y-60310050D02*
X153040800Y-60847950D01*
G75*
G02*
X152809350Y-61079400I-231450J0D01*
G01*
X152346450Y-61079400D01*
G75*
G02*
X152115000Y-60847950I0J231450D01*
G01*
X152115000Y-60310050D01*
G75*
G02*
X152346450Y-60078600I231450J0D01*
G01*
X152809350Y-60078600D01*
G75*
G02*
X153040800Y-60310050I0J-231450D01*
G01*
G37*
G36*
G01*
X137305200Y-60310050D02*
X137305200Y-60847950D01*
G75*
G02*
X137073750Y-61079400I-231450J0D01*
G01*
X136610850Y-61079400D01*
G75*
G02*
X136379400Y-60847950I0J231450D01*
G01*
X136379400Y-60310050D01*
G75*
G02*
X136610850Y-60078600I231450J0D01*
G01*
X137073750Y-60078600D01*
G75*
G02*
X137305200Y-60310050I0J-231450D01*
G01*
G37*
G36*
G01*
X138880200Y-60310050D02*
X138880200Y-60847950D01*
G75*
G02*
X138648750Y-61079400I-231450J0D01*
G01*
X138185850Y-61079400D01*
G75*
G02*
X137954400Y-60847950I0J231450D01*
G01*
X137954400Y-60310050D01*
G75*
G02*
X138185850Y-60078600I231450J0D01*
G01*
X138648750Y-60078600D01*
G75*
G02*
X138880200Y-60310050I0J-231450D01*
G01*
G37*
M02*
