M48
; DRILL file {KiCad (5.1.6)-1} date 09/29/20 16:02:45
; FORMAT={-:-/ absolute / metric / decimal}
; #@! TF.CreationDate,2020-09-29T16:02:45+02:00
; #@! TF.GenerationSoftware,Kicad,Pcbnew,(5.1.6)-1
; #@! TF.FileFunction,Plated,1,4,PTH
FMAT,2
METRIC
T1C0.200
T2C0.300
T3C0.400
T4C0.800
T5C0.900
T6C0.950
T7C1.000
T8C1.200
T9C1.400
T10C1.700
%
G90
G05
T1
X120.828Y-72.492
X120.879Y-71.272
X121.336Y-71.78
X123.698Y-81.483
X123.698Y-84.531
X124.714Y-81.94
X124.714Y-84.125
X124.993Y-71.78
X125.451Y-71.272
X126.619Y-77.318
X127.584Y-76.454
X127.584Y-77.292
X127.787Y-79.248
X128.143Y-80.467
X128.651Y-80.975
X128.702Y-77.521
X129.743Y-80.315
X129.743Y-81.115
X130.556Y-77.902
X130.556Y-78.715
X130.556Y-80.315
X131.343Y-77.914
X131.343Y-79.527
X132.131Y-76.314
X132.156Y-77.927
X132.156Y-81.102
X132.944Y-76.314
X132.944Y-80.315
X133.731Y-75.514
X133.731Y-77.927
X133.731Y-80.315
X133.731Y-81.102
X134.544Y-75.514
X134.544Y-77.114
X134.544Y-79.502
X135.357Y-75.514
X136.042Y-76.314
X136.944Y-76.314
X139.769Y-89.014
X140.419Y-89.014
X140.868Y-87.356
X140.868Y-88.006
X143.726Y-78.511
X144.323Y-77.61
X144.678Y-81.115
X146.329Y-77.457
X154.749Y-83.41
X154.749Y-84.06
X160.363Y-81.45
X160.363Y-82.1
X162.281Y-79.375
T2
X112.42Y-64.694
X113.754Y-61.798
X114.3Y-74.016
X114.732Y-84.633
X115.037Y-62.509
X115.926Y-82.779
X117.219Y-84.94
X119.659Y-82.779
X119.863Y-67.107
X119.863Y-91.44
X120.625Y-73.889
X122.352Y-90.144
X127.051Y-87.147
X128.575Y-84.455
X128.727Y-73.787
X128.753Y-69.825
X129.87Y-83.007
X129.896Y-68.605
X130.15Y-73.787
X130.962Y-69.825
X131.851Y-87.02
X132.245Y-57.175
X132.842Y-72.212
X132.842Y-72.949
X133.223Y-85.725
X133.452Y-94.818
X134.595Y-84.785
X135.395Y-59.538
X135.992Y-94.234
X136.131Y-59.538
X136.5Y-74.219
X136.55Y-88.011
X136.817Y-59.538
X137.338Y-70.307
X137.465Y-83.718
X138.379Y-58.509
X138.379Y-59.106
X138.379Y-59.703
X138.709Y-68.428
X138.709Y-70.307
X139.052Y-58.509
X139.052Y-59.106
X139.052Y-59.703
X139.878Y-67.462
X139.878Y-71.247
X140.957Y-74.498
X141.072Y-68.428
X141.072Y-70.307
X141.681Y-75.324
X142.075Y-83.299
X142.761Y-84.036
X143.104Y-98.527
X143.573Y-93.154
X143.739Y-89.268
X144.196Y-74.397
X144.348Y-99.568
X144.996Y-79.718
X145.796Y-80.035
X145.885Y-80.81
X146.406Y-75.743
X146.418Y-57.201
X147.879Y-73.977
X148.107Y-94.31
X148.107Y-95.123
X148.92Y-94.31
X148.92Y-95.123
X149.123Y-75.552
X149.542Y-59.538
X149.911Y-98.45
X150.279Y-59.538
X150.495Y-97.028
X150.52Y-77.508
X150.965Y-59.538
X151.092Y-87.694
X151.765Y-64.592
X152.552Y-58.534
X152.552Y-59.131
X152.552Y-59.715
X152.565Y-75.451
X152.578Y-65.507
X152.578Y-66.065
X153.238Y-58.534
X153.238Y-59.131
X153.238Y-59.728
X154.622Y-80.81
X155.829Y-70.663
X155.829Y-71.222
X156.947Y-72.161
X157.759Y-70.434
X158.852Y-69.088
X164.033Y-87.478
T3
X90.233Y-53.162
X90.233Y-55.499
X90.233Y-57.81
X90.233Y-60.147
X90.233Y-62.508
X90.233Y-64.808
X90.233Y-67.108
X90.233Y-69.408
X90.233Y-71.708
X90.233Y-74.008
X90.233Y-76.308
X90.233Y-78.608
X90.233Y-80.908
X90.233Y-83.208
X90.233Y-85.508
X90.233Y-87.808
X90.233Y-90.108
X90.233Y-92.408
X90.233Y-94.708
X90.233Y-97.008
X90.233Y-99.308
X90.233Y-101.676
X92.558Y-53.162
X92.558Y-101.676
X94.818Y-53.162
X94.818Y-101.676
X97.079Y-53.162
X97.079Y-101.676
X99.39Y-53.162
X99.39Y-101.676
X101.524Y-53.137
X101.524Y-101.676
X103.683Y-53.137
X103.683Y-101.676
X105.232Y-80.391
X105.816Y-101.676
X105.893Y-53.137
X106.68Y-70.383
X107.34Y-80.442
X107.802Y-65.312
X107.925Y-101.676
X107.998Y-76.532
X108.102Y-53.137
X108.661Y-79.807
X108.712Y-81.737
X109.296Y-75.895
X109.944Y-74.32
X110.033Y-101.676
X110.287Y-53.137
X110.973Y-90.17
X110.973Y-91.44
X111.341Y-87.681
X111.341Y-95.098
X111.417Y-74.295
X111.557Y-68.618
X111.569Y-67.031
X111.823Y-78.003
X112.116Y-101.676
X112.382Y-95.098
X112.408Y-87.681
X112.42Y-53.137
X113.005Y-81.229
X113.424Y-65.938
X113.424Y-68.072
X113.449Y-87.681
X113.449Y-95.098
X113.602Y-72.288
X114.339Y-101.676
X114.503Y-53.137
X115.951Y-65.684
X116.014Y-74.701
X116.04Y-67.005
X116.205Y-63.475
X116.268Y-70.002
X116.268Y-71.018
X116.268Y-72.034
X116.559Y-101.676
X116.611Y-53.137
X117.284Y-70.002
X117.284Y-71.018
X117.284Y-72.034
X118.3Y-70.002
X118.3Y-71.018
X118.3Y-72.034
X118.542Y-67.107
X118.779Y-53.137
X118.779Y-101.676
X119.062Y-74.701
X120.999Y-53.137
X120.999Y-101.676
X121.298Y-66.827
X122.174Y-63.5
X122.174Y-65.075
X122.326Y-69.469
X123.219Y-53.137
X123.219Y-101.676
X123.406Y-66.802
X125.439Y-53.137
X125.439Y-101.676
X127.659Y-53.137
X127.659Y-101.676
X129.879Y-53.137
X129.879Y-101.676
X130.912Y-94.234
X132.099Y-53.137
X132.099Y-101.676
X134.319Y-53.137
X134.319Y-101.676
X136.539Y-53.137
X136.539Y-101.676
X138.532Y-94.844
X138.759Y-53.137
X138.759Y-101.676
X140.36Y-55.766
X140.36Y-57.137
X140.979Y-53.137
X140.979Y-101.676
X141.453Y-55.766
X142.545Y-55.766
X142.57Y-87.224
X142.57Y-88.036
X142.57Y-88.849
X143.199Y-53.137
X143.199Y-101.676
X143.637Y-55.766
X143.637Y-57.137
X144.678Y-88.468
X145.419Y-53.137
X145.419Y-101.676
X145.669Y-88.468
X145.669Y-89.383
X146.101Y-70.764
X146.101Y-72.238
X146.66Y-88.468
X146.66Y-89.383
X147.639Y-53.137
X147.639Y-101.676
X147.65Y-88.468
X147.65Y-89.383
X147.803Y-72.238
X148.006Y-97.257
X148.714Y-80.318
X148.714Y-81.818
X148.714Y-83.318
X149.504Y-70.764
X149.504Y-72.238
X149.835Y-91.745
X149.859Y-53.137
X149.859Y-101.676
X150.214Y-80.318
X150.214Y-81.818
X150.214Y-83.318
X151.714Y-80.318
X151.714Y-81.818
X151.714Y-83.318
X152.079Y-53.137
X152.079Y-101.676
X152.4Y-71.425
X152.425Y-69.494
X152.425Y-70.46
X153.385Y-70.465
X153.391Y-69.494
X153.391Y-71.425
X154.013Y-96.558
X154.299Y-53.137
X154.299Y-101.676
X155.753Y-89.408
X156.519Y-53.137
X156.519Y-101.676
X156.743Y-77.622
X158.191Y-85.166
X158.739Y-53.137
X158.739Y-101.676
X158.877Y-97.384
X158.877Y-98.323
X159.131Y-90.653
X159.131Y-91.542
X159.41Y-86.309
X159.817Y-98.323
X160.02Y-90.653
X160.02Y-91.542
X160.833Y-77.622
X160.909Y-90.653
X160.909Y-91.542
X160.959Y-53.137
X160.959Y-101.676
X163.179Y-53.137
X163.179Y-101.676
X164.897Y-57.277
X164.897Y-59.487
X165.399Y-53.137
X165.399Y-101.676
X165.964Y-58.395
X166.37Y-87.503
X167.619Y-53.137
X167.619Y-101.676
X167.64Y-67.031
X169.839Y-53.137
X169.839Y-101.676
X170.053Y-76.606
X170.053Y-78.41
X170.205Y-67.031
X172.136Y-69.037
X172.148Y-53.137
X172.148Y-55.381
X172.148Y-57.626
X172.148Y-59.871
X172.148Y-62.115
X172.148Y-64.36
X172.148Y-101.676
X172.148Y-66.675
X172.148Y-74.93
X172.148Y-76.937
X172.148Y-78.956
X172.148Y-80.874
X172.148Y-86.157
X172.148Y-88.398
X172.148Y-90.618
X172.148Y-92.839
X172.148Y-95.059
X172.148Y-97.279
X172.148Y-99.499
T5
X169.799Y-85.928
X169.799Y-88.468
T6
X160.325Y-58.43
X160.325Y-60.93
X160.325Y-62.93
X160.325Y-65.43
T8
X95.809Y-93.599
X95.809Y-77.419
X95.809Y-61.239
T9
X165.79Y-75.497
X165.79Y-80.997
T10
X93.32Y-91.11
X93.32Y-96.088
X98.298Y-91.11
X98.298Y-96.088
X93.32Y-74.93
X93.32Y-79.908
X98.298Y-74.93
X98.298Y-79.908
X93.32Y-58.75
X93.32Y-63.729
X98.298Y-58.75
X98.298Y-63.729
T4
G00X161.366Y-96.118
M15
G01X161.366Y-93.518
M16
G05
G00X165.286Y-90.018
M15
G01X163.086Y-90.018
M16
G05
G00X167.488Y-95.918
M15
G01X167.488Y-93.718
M16
G05
T7
G00X162.385Y-55.36
M15
G01X163.685Y-55.36
M16
G05
G00X162.385Y-68.5
M15
G01X163.685Y-68.5
M16
G05
T0
M30
