G04 #@! TF.GenerationSoftware,KiCad,Pcbnew,(5.1.6)-1*
G04 #@! TF.CreationDate,2020-09-29T16:02:43+02:00*
G04 #@! TF.ProjectId,PrecisionTimer_RevG-1,50726563-6973-4696-9f6e-54696d65725f,rev?*
G04 #@! TF.SameCoordinates,Original*
G04 #@! TF.FileFunction,Copper,L1,Top*
G04 #@! TF.FilePolarity,Positive*
%FSLAX46Y46*%
G04 Gerber Fmt 4.6, Leading zero omitted, Abs format (unit mm)*
G04 Created by KiCad (PCBNEW (5.1.6)-1) date 2020-09-29 16:02:43*
%MOMM*%
%LPD*%
G01*
G04 APERTURE LIST*
G04 #@! TA.AperFunction,NonConductor*
%ADD10C,0.300000*%
G04 #@! TD*
G04 #@! TA.AperFunction,SMDPad,CuDef*
%ADD11R,4.750000X4.750000*%
G04 #@! TD*
G04 #@! TA.AperFunction,SMDPad,CuDef*
%ADD12R,0.350000X1.000000*%
G04 #@! TD*
G04 #@! TA.AperFunction,SMDPad,CuDef*
%ADD13R,1.000000X0.350000*%
G04 #@! TD*
G04 #@! TA.AperFunction,ComponentPad*
%ADD14C,1.600000*%
G04 #@! TD*
G04 #@! TA.AperFunction,ComponentPad*
%ADD15C,1.500000*%
G04 #@! TD*
G04 #@! TA.AperFunction,ComponentPad*
%ADD16R,1.500000X1.600000*%
G04 #@! TD*
G04 #@! TA.AperFunction,ComponentPad*
%ADD17O,3.000000X1.600000*%
G04 #@! TD*
G04 #@! TA.AperFunction,SMDPad,CuDef*
%ADD18R,1.000000X1.150000*%
G04 #@! TD*
G04 #@! TA.AperFunction,SMDPad,CuDef*
%ADD19R,0.600000X1.100000*%
G04 #@! TD*
G04 #@! TA.AperFunction,SMDPad,CuDef*
%ADD20R,0.600000X0.250000*%
G04 #@! TD*
G04 #@! TA.AperFunction,SMDPad,CuDef*
%ADD21R,0.550000X0.800000*%
G04 #@! TD*
G04 #@! TA.AperFunction,SMDPad,CuDef*
%ADD22R,0.650000X1.000000*%
G04 #@! TD*
G04 #@! TA.AperFunction,ComponentPad*
%ADD23R,1.800000X4.400000*%
G04 #@! TD*
G04 #@! TA.AperFunction,ComponentPad*
%ADD24O,1.800000X4.000000*%
G04 #@! TD*
G04 #@! TA.AperFunction,ComponentPad*
%ADD25O,4.000000X1.800000*%
G04 #@! TD*
G04 #@! TA.AperFunction,SMDPad,CuDef*
%ADD26C,0.350000*%
G04 #@! TD*
G04 #@! TA.AperFunction,SMDPad,CuDef*
%ADD27C,0.800000*%
G04 #@! TD*
G04 #@! TA.AperFunction,SMDPad,CuDef*
%ADD28R,1.000000X1.200000*%
G04 #@! TD*
G04 #@! TA.AperFunction,SMDPad,CuDef*
%ADD29R,1.000000X0.800000*%
G04 #@! TD*
G04 #@! TA.AperFunction,SMDPad,CuDef*
%ADD30C,0.700000*%
G04 #@! TD*
G04 #@! TA.AperFunction,SMDPad,CuDef*
%ADD31R,6.040000X3.400000*%
G04 #@! TD*
G04 #@! TA.AperFunction,ComponentPad*
%ADD32C,1.400000*%
G04 #@! TD*
G04 #@! TA.AperFunction,SMDPad,CuDef*
%ADD33R,3.000000X0.700000*%
G04 #@! TD*
G04 #@! TA.AperFunction,SMDPad,CuDef*
%ADD34R,1.800000X1.000000*%
G04 #@! TD*
G04 #@! TA.AperFunction,ComponentPad*
%ADD35C,2.400000*%
G04 #@! TD*
G04 #@! TA.AperFunction,ComponentPad*
%ADD36C,2.000000*%
G04 #@! TD*
G04 #@! TA.AperFunction,SMDPad,CuDef*
%ADD37C,1.000000*%
G04 #@! TD*
G04 #@! TA.AperFunction,SMDPad,CuDef*
%ADD38R,2.400000X0.740000*%
G04 #@! TD*
G04 #@! TA.AperFunction,SMDPad,CuDef*
%ADD39R,2.300000X2.500000*%
G04 #@! TD*
G04 #@! TA.AperFunction,SMDPad,CuDef*
%ADD40R,1.700000X1.300000*%
G04 #@! TD*
G04 #@! TA.AperFunction,SMDPad,CuDef*
%ADD41R,1.300000X0.700000*%
G04 #@! TD*
G04 #@! TA.AperFunction,SMDPad,CuDef*
%ADD42R,0.300000X0.800000*%
G04 #@! TD*
G04 #@! TA.AperFunction,SMDPad,CuDef*
%ADD43R,1.000000X2.510000*%
G04 #@! TD*
G04 #@! TA.AperFunction,SMDPad,CuDef*
%ADD44R,0.300000X0.850000*%
G04 #@! TD*
G04 #@! TA.AperFunction,SMDPad,CuDef*
%ADD45R,0.850000X0.300000*%
G04 #@! TD*
G04 #@! TA.AperFunction,SMDPad,CuDef*
%ADD46R,3.300000X3.300000*%
G04 #@! TD*
G04 #@! TA.AperFunction,SMDPad,CuDef*
%ADD47R,0.450000X1.475000*%
G04 #@! TD*
G04 #@! TA.AperFunction,ViaPad*
%ADD48C,0.600000*%
G04 #@! TD*
G04 #@! TA.AperFunction,ViaPad*
%ADD49C,0.450000*%
G04 #@! TD*
G04 #@! TA.AperFunction,ViaPad*
%ADD50C,0.500000*%
G04 #@! TD*
G04 #@! TA.AperFunction,ViaPad*
%ADD51C,0.800000*%
G04 #@! TD*
G04 #@! TA.AperFunction,ViaPad*
%ADD52C,0.550000*%
G04 #@! TD*
G04 #@! TA.AperFunction,Conductor*
%ADD53C,0.250000*%
G04 #@! TD*
G04 #@! TA.AperFunction,Conductor*
%ADD54C,0.200000*%
G04 #@! TD*
G04 #@! TA.AperFunction,Conductor*
%ADD55C,0.300000*%
G04 #@! TD*
G04 #@! TA.AperFunction,Conductor*
%ADD56C,1.000000*%
G04 #@! TD*
G04 #@! TA.AperFunction,Conductor*
%ADD57C,0.500000*%
G04 #@! TD*
G04 #@! TA.AperFunction,Conductor*
%ADD58C,0.350000*%
G04 #@! TD*
G04 #@! TA.AperFunction,Conductor*
%ADD59C,0.800000*%
G04 #@! TD*
G04 #@! TA.AperFunction,Conductor*
%ADD60C,0.150000*%
G04 #@! TD*
G04 #@! TA.AperFunction,Conductor*
%ADD61C,0.950000*%
G04 #@! TD*
G04 #@! TA.AperFunction,Conductor*
%ADD62C,0.025400*%
G04 #@! TD*
G04 #@! TA.AperFunction,Conductor*
%ADD63C,0.254000*%
G04 #@! TD*
G04 #@! TA.AperFunction,Conductor*
%ADD64C,0.100000*%
G04 #@! TD*
G04 APERTURE END LIST*
D10*
X105889371Y-57269771D02*
X105032228Y-57269771D01*
X105460800Y-57269771D02*
X105460800Y-55769771D01*
X105317942Y-55984057D01*
X105175085Y-56126914D01*
X105032228Y-56198342D01*
D11*
X150194300Y-81785000D03*
D12*
X147919300Y-78385000D03*
X148569300Y-78385000D03*
X149219300Y-78385000D03*
X149869300Y-78385000D03*
X150519300Y-78385000D03*
X151169300Y-78385000D03*
X151819300Y-78385000D03*
X152469300Y-78385000D03*
D13*
X153594300Y-79510000D03*
X153594300Y-80160000D03*
X153594300Y-80810000D03*
X153594300Y-81460000D03*
X153594300Y-82110000D03*
X153594300Y-82760000D03*
X153594300Y-83410000D03*
X153594300Y-84060000D03*
D12*
X152469300Y-85185000D03*
X151819300Y-85185000D03*
X151169300Y-85185000D03*
X150519300Y-85185000D03*
X149869300Y-85185000D03*
X149219300Y-85185000D03*
X148569300Y-85185000D03*
X147919300Y-85185000D03*
D13*
X146794300Y-84060000D03*
X146794300Y-83410000D03*
X146794300Y-82760000D03*
X146794300Y-82110000D03*
X146794300Y-81460000D03*
X146794300Y-80810000D03*
X146794300Y-80160000D03*
X146794300Y-79510000D03*
D14*
X160324800Y-58430400D03*
D15*
X160324800Y-60930400D03*
X160324800Y-62930400D03*
D16*
X160324800Y-65430400D03*
D17*
X163034800Y-55360400D03*
X163034800Y-68500400D03*
D18*
X143292600Y-82840800D03*
X143292600Y-81090800D03*
X144692600Y-81090800D03*
X144692600Y-82840800D03*
G04 #@! TA.AperFunction,SMDPad,CuDef*
G36*
G01*
X141013700Y-85151250D02*
X141013700Y-85663750D01*
G75*
G02*
X140794950Y-85882500I-218750J0D01*
G01*
X140357450Y-85882500D01*
G75*
G02*
X140138700Y-85663750I0J218750D01*
G01*
X140138700Y-85151250D01*
G75*
G02*
X140357450Y-84932500I218750J0D01*
G01*
X140794950Y-84932500D01*
G75*
G02*
X141013700Y-85151250I0J-218750D01*
G01*
G37*
G04 #@! TD.AperFunction*
G04 #@! TA.AperFunction,SMDPad,CuDef*
G36*
G01*
X142588700Y-85151250D02*
X142588700Y-85663750D01*
G75*
G02*
X142369950Y-85882500I-218750J0D01*
G01*
X141932450Y-85882500D01*
G75*
G02*
X141713700Y-85663750I0J218750D01*
G01*
X141713700Y-85151250D01*
G75*
G02*
X141932450Y-84932500I218750J0D01*
G01*
X142369950Y-84932500D01*
G75*
G02*
X142588700Y-85151250I0J-218750D01*
G01*
G37*
G04 #@! TD.AperFunction*
G04 #@! TA.AperFunction,SMDPad,CuDef*
G36*
G01*
X145107950Y-86862500D02*
X145620450Y-86862500D01*
G75*
G02*
X145839200Y-87081250I0J-218750D01*
G01*
X145839200Y-87518750D01*
G75*
G02*
X145620450Y-87737500I-218750J0D01*
G01*
X145107950Y-87737500D01*
G75*
G02*
X144889200Y-87518750I0J218750D01*
G01*
X144889200Y-87081250D01*
G75*
G02*
X145107950Y-86862500I218750J0D01*
G01*
G37*
G04 #@! TD.AperFunction*
G04 #@! TA.AperFunction,SMDPad,CuDef*
G36*
G01*
X145107950Y-85287500D02*
X145620450Y-85287500D01*
G75*
G02*
X145839200Y-85506250I0J-218750D01*
G01*
X145839200Y-85943750D01*
G75*
G02*
X145620450Y-86162500I-218750J0D01*
G01*
X145107950Y-86162500D01*
G75*
G02*
X144889200Y-85943750I0J218750D01*
G01*
X144889200Y-85506250D01*
G75*
G02*
X145107950Y-85287500I218750J0D01*
G01*
G37*
G04 #@! TD.AperFunction*
G04 #@! TA.AperFunction,SMDPad,CuDef*
G36*
G01*
X144109150Y-86162400D02*
X143596650Y-86162400D01*
G75*
G02*
X143377900Y-85943650I0J218750D01*
G01*
X143377900Y-85506150D01*
G75*
G02*
X143596650Y-85287400I218750J0D01*
G01*
X144109150Y-85287400D01*
G75*
G02*
X144327900Y-85506150I0J-218750D01*
G01*
X144327900Y-85943650D01*
G75*
G02*
X144109150Y-86162400I-218750J0D01*
G01*
G37*
G04 #@! TD.AperFunction*
G04 #@! TA.AperFunction,SMDPad,CuDef*
G36*
G01*
X144109150Y-87737400D02*
X143596650Y-87737400D01*
G75*
G02*
X143377900Y-87518650I0J218750D01*
G01*
X143377900Y-87081150D01*
G75*
G02*
X143596650Y-86862400I218750J0D01*
G01*
X144109150Y-86862400D01*
G75*
G02*
X144327900Y-87081150I0J-218750D01*
G01*
X144327900Y-87518650D01*
G75*
G02*
X144109150Y-87737400I-218750J0D01*
G01*
G37*
G04 #@! TD.AperFunction*
G04 #@! TA.AperFunction,SMDPad,CuDef*
G36*
G01*
X142183900Y-81788500D02*
X141838900Y-81788500D01*
G75*
G02*
X141691400Y-81641000I0J147500D01*
G01*
X141691400Y-81346000D01*
G75*
G02*
X141838900Y-81198500I147500J0D01*
G01*
X142183900Y-81198500D01*
G75*
G02*
X142331400Y-81346000I0J-147500D01*
G01*
X142331400Y-81641000D01*
G75*
G02*
X142183900Y-81788500I-147500J0D01*
G01*
G37*
G04 #@! TD.AperFunction*
G04 #@! TA.AperFunction,SMDPad,CuDef*
G36*
G01*
X142183900Y-82758500D02*
X141838900Y-82758500D01*
G75*
G02*
X141691400Y-82611000I0J147500D01*
G01*
X141691400Y-82316000D01*
G75*
G02*
X141838900Y-82168500I147500J0D01*
G01*
X142183900Y-82168500D01*
G75*
G02*
X142331400Y-82316000I0J-147500D01*
G01*
X142331400Y-82611000D01*
G75*
G02*
X142183900Y-82758500I-147500J0D01*
G01*
G37*
G04 #@! TD.AperFunction*
G04 #@! TA.AperFunction,SMDPad,CuDef*
G36*
G01*
X144383400Y-84538600D02*
X144383400Y-84193600D01*
G75*
G02*
X144530900Y-84046100I147500J0D01*
G01*
X144825900Y-84046100D01*
G75*
G02*
X144973400Y-84193600I0J-147500D01*
G01*
X144973400Y-84538600D01*
G75*
G02*
X144825900Y-84686100I-147500J0D01*
G01*
X144530900Y-84686100D01*
G75*
G02*
X144383400Y-84538600I0J147500D01*
G01*
G37*
G04 #@! TD.AperFunction*
G04 #@! TA.AperFunction,SMDPad,CuDef*
G36*
G01*
X143413400Y-84538600D02*
X143413400Y-84193600D01*
G75*
G02*
X143560900Y-84046100I147500J0D01*
G01*
X143855900Y-84046100D01*
G75*
G02*
X144003400Y-84193600I0J-147500D01*
G01*
X144003400Y-84538600D01*
G75*
G02*
X143855900Y-84686100I-147500J0D01*
G01*
X143560900Y-84686100D01*
G75*
G02*
X143413400Y-84538600I0J147500D01*
G01*
G37*
G04 #@! TD.AperFunction*
D19*
X152577800Y-65786000D03*
D20*
X151777800Y-66286000D03*
X151777800Y-65786000D03*
X151777800Y-65286000D03*
X153377800Y-65286000D03*
X153377800Y-65786000D03*
X153377800Y-66286000D03*
D19*
X155829000Y-70942200D03*
D20*
X156629000Y-70442200D03*
X156629000Y-70942200D03*
X156629000Y-71442200D03*
X155029000Y-71442200D03*
X155029000Y-70942200D03*
X155029000Y-70442200D03*
D21*
X142727600Y-92443000D03*
X142727600Y-90043000D03*
X143677600Y-92443000D03*
X143677600Y-90043000D03*
X144627600Y-92443000D03*
X144627600Y-90043000D03*
D22*
X119187700Y-63459600D03*
X117538500Y-63459600D03*
X117538500Y-65136000D03*
X119187700Y-65136000D03*
D23*
X161366200Y-94818200D03*
D24*
X167488400Y-94818200D03*
D25*
X164185600Y-90017600D03*
D26*
X136543600Y-75114600D03*
X135743600Y-75114600D03*
X134943600Y-75114600D03*
X134143600Y-75114600D03*
X133343600Y-75114600D03*
X132543600Y-75114600D03*
X131743600Y-75114600D03*
X130943600Y-75114600D03*
X130143600Y-75114600D03*
X129343600Y-75114600D03*
X136543600Y-75914600D03*
X135743600Y-75914600D03*
X134943600Y-75914600D03*
X134143600Y-75914600D03*
X133343600Y-75914600D03*
X132543600Y-75914600D03*
X131743600Y-75914600D03*
X130943600Y-75914600D03*
X130143600Y-75914600D03*
X129343600Y-75914600D03*
X136543600Y-76714600D03*
X135743600Y-76714600D03*
X134943600Y-76714600D03*
X134143600Y-76714600D03*
X133343600Y-76714600D03*
X132543600Y-76714600D03*
X131743600Y-76714600D03*
X130943600Y-76714600D03*
X130143600Y-76714600D03*
X129343600Y-76714600D03*
X136543600Y-77514600D03*
X135743600Y-77514600D03*
X134943600Y-77514600D03*
X134143600Y-77514600D03*
X133343600Y-77514600D03*
X132543600Y-77514600D03*
X131743600Y-77514600D03*
X130943600Y-77514600D03*
X130143600Y-77514600D03*
X129343600Y-77514600D03*
X136543600Y-78314600D03*
X135743600Y-78314600D03*
X134943600Y-78314600D03*
X134143600Y-78314600D03*
X133343600Y-78314600D03*
X132543600Y-78314600D03*
X131743600Y-78314600D03*
X130943600Y-78314600D03*
X130143600Y-78314600D03*
X129343600Y-78314600D03*
X136543600Y-79114600D03*
X135743600Y-79114600D03*
X134943600Y-79114600D03*
X134143600Y-79114600D03*
X133343600Y-79114600D03*
X132543600Y-79114600D03*
X131743600Y-79114600D03*
X130943600Y-79114600D03*
X130143600Y-79114600D03*
X129343600Y-79114600D03*
X136543600Y-79914600D03*
X135743600Y-79914600D03*
X134943600Y-79914600D03*
X134143600Y-79914600D03*
X133343600Y-79914600D03*
X132543600Y-79914600D03*
X131743600Y-79914600D03*
X130943600Y-79914600D03*
X130143600Y-79914600D03*
X129343600Y-79914600D03*
X136543600Y-80714600D03*
X135743600Y-80714600D03*
X134943600Y-80714600D03*
X134143600Y-80714600D03*
X133343600Y-80714600D03*
X132543600Y-80714600D03*
X131743600Y-80714600D03*
X130943600Y-80714600D03*
X130143600Y-80714600D03*
X129343600Y-80714600D03*
X136543600Y-81514600D03*
X135743600Y-81514600D03*
X134943600Y-81514600D03*
X134143600Y-81514600D03*
X133343600Y-81514600D03*
X132543600Y-81514600D03*
X131743600Y-81514600D03*
X130943600Y-81514600D03*
X130143600Y-81514600D03*
X129343600Y-81514600D03*
X136543600Y-82314600D03*
X135743600Y-82314600D03*
X134943600Y-82314600D03*
X134143600Y-82314600D03*
X133343600Y-82314600D03*
X132543600Y-82314600D03*
X131743600Y-82314600D03*
X130943600Y-82314600D03*
X130143600Y-82314600D03*
X129343600Y-82314600D03*
D27*
X153365200Y-64160400D03*
D28*
X138771400Y-77786200D03*
X138771400Y-76087000D03*
X140069800Y-76087000D03*
X140069800Y-77786200D03*
D29*
X110383900Y-68618400D03*
X107802100Y-68618400D03*
X107802100Y-66560400D03*
X110383900Y-66560400D03*
D30*
X153568400Y-55930800D03*
D27*
X155041600Y-72796400D03*
D31*
X165189800Y-85047400D03*
X165189800Y-71447400D03*
D32*
X165789800Y-80997400D03*
X165789800Y-75497400D03*
D33*
X158789800Y-77622400D03*
X158789800Y-80122400D03*
X158789800Y-78872400D03*
X158789800Y-76372400D03*
D30*
X158445200Y-90068400D03*
D34*
X126542800Y-83165000D03*
X126542800Y-80665000D03*
G04 #@! TA.AperFunction,SMDPad,CuDef*
G36*
G01*
X137043450Y-86100400D02*
X137555950Y-86100400D01*
G75*
G02*
X137774700Y-86319150I0J-218750D01*
G01*
X137774700Y-86756650D01*
G75*
G02*
X137555950Y-86975400I-218750J0D01*
G01*
X137043450Y-86975400D01*
G75*
G02*
X136824700Y-86756650I0J218750D01*
G01*
X136824700Y-86319150D01*
G75*
G02*
X137043450Y-86100400I218750J0D01*
G01*
G37*
G04 #@! TD.AperFunction*
G04 #@! TA.AperFunction,SMDPad,CuDef*
G36*
G01*
X137043450Y-84525400D02*
X137555950Y-84525400D01*
G75*
G02*
X137774700Y-84744150I0J-218750D01*
G01*
X137774700Y-85181650D01*
G75*
G02*
X137555950Y-85400400I-218750J0D01*
G01*
X137043450Y-85400400D01*
G75*
G02*
X136824700Y-85181650I0J218750D01*
G01*
X136824700Y-84744150D01*
G75*
G02*
X137043450Y-84525400I218750J0D01*
G01*
G37*
G04 #@! TD.AperFunction*
G04 #@! TA.AperFunction,SMDPad,CuDef*
G36*
G01*
X125605250Y-87000600D02*
X125092750Y-87000600D01*
G75*
G02*
X124874000Y-86781850I0J218750D01*
G01*
X124874000Y-86344350D01*
G75*
G02*
X125092750Y-86125600I218750J0D01*
G01*
X125605250Y-86125600D01*
G75*
G02*
X125824000Y-86344350I0J-218750D01*
G01*
X125824000Y-86781850D01*
G75*
G02*
X125605250Y-87000600I-218750J0D01*
G01*
G37*
G04 #@! TD.AperFunction*
G04 #@! TA.AperFunction,SMDPad,CuDef*
G36*
G01*
X125605250Y-88575600D02*
X125092750Y-88575600D01*
G75*
G02*
X124874000Y-88356850I0J218750D01*
G01*
X124874000Y-87919350D01*
G75*
G02*
X125092750Y-87700600I218750J0D01*
G01*
X125605250Y-87700600D01*
G75*
G02*
X125824000Y-87919350I0J-218750D01*
G01*
X125824000Y-88356850D01*
G75*
G02*
X125605250Y-88575600I-218750J0D01*
G01*
G37*
G04 #@! TD.AperFunction*
D14*
X169799000Y-85928200D03*
X169799000Y-88468200D03*
D35*
X98298000Y-63728600D03*
X93319600Y-63728600D03*
X93319600Y-58750200D03*
X98298000Y-58750200D03*
D36*
X95808800Y-61239400D03*
D35*
X98298000Y-79908400D03*
X93319600Y-79908400D03*
X93319600Y-74930000D03*
X98298000Y-74930000D03*
D36*
X95808800Y-77419200D03*
D35*
X98298000Y-96088200D03*
X93319600Y-96088200D03*
X93319600Y-91109800D03*
X98298000Y-91109800D03*
D36*
X95808800Y-93599000D03*
G04 #@! TA.AperFunction,SMDPad,CuDef*
G36*
G01*
X146055600Y-99311750D02*
X146055600Y-99824250D01*
G75*
G02*
X145836850Y-100043000I-218750J0D01*
G01*
X145399350Y-100043000D01*
G75*
G02*
X145180600Y-99824250I0J218750D01*
G01*
X145180600Y-99311750D01*
G75*
G02*
X145399350Y-99093000I218750J0D01*
G01*
X145836850Y-99093000D01*
G75*
G02*
X146055600Y-99311750I0J-218750D01*
G01*
G37*
G04 #@! TD.AperFunction*
G04 #@! TA.AperFunction,SMDPad,CuDef*
G36*
G01*
X147630600Y-99311750D02*
X147630600Y-99824250D01*
G75*
G02*
X147411850Y-100043000I-218750J0D01*
G01*
X146974350Y-100043000D01*
G75*
G02*
X146755600Y-99824250I0J218750D01*
G01*
X146755600Y-99311750D01*
G75*
G02*
X146974350Y-99093000I218750J0D01*
G01*
X147411850Y-99093000D01*
G75*
G02*
X147630600Y-99311750I0J-218750D01*
G01*
G37*
G04 #@! TD.AperFunction*
D27*
X155244800Y-64414400D03*
D37*
X145364200Y-66090800D03*
X139801600Y-62509400D03*
D30*
X133731000Y-70104000D03*
X110388400Y-62636400D03*
X128041400Y-72237600D03*
X126238000Y-72237600D03*
X138430000Y-55778400D03*
G04 #@! TA.AperFunction,SMDPad,CuDef*
G36*
G01*
X147177600Y-70145400D02*
X148427600Y-70145400D01*
G75*
G02*
X148677600Y-70395400I0J-250000D01*
G01*
X148677600Y-71145400D01*
G75*
G02*
X148427600Y-71395400I-250000J0D01*
G01*
X147177600Y-71395400D01*
G75*
G02*
X146927600Y-71145400I0J250000D01*
G01*
X146927600Y-70395400D01*
G75*
G02*
X147177600Y-70145400I250000J0D01*
G01*
G37*
G04 #@! TD.AperFunction*
G04 #@! TA.AperFunction,SMDPad,CuDef*
G36*
G01*
X147177600Y-67345400D02*
X148427600Y-67345400D01*
G75*
G02*
X148677600Y-67595400I0J-250000D01*
G01*
X148677600Y-68345400D01*
G75*
G02*
X148427600Y-68595400I-250000J0D01*
G01*
X147177600Y-68595400D01*
G75*
G02*
X146927600Y-68345400I0J250000D01*
G01*
X146927600Y-67595400D01*
G75*
G02*
X147177600Y-67345400I250000J0D01*
G01*
G37*
G04 #@! TD.AperFunction*
G04 #@! TA.AperFunction,SMDPad,CuDef*
G36*
G01*
X135993850Y-85400400D02*
X135481350Y-85400400D01*
G75*
G02*
X135262600Y-85181650I0J218750D01*
G01*
X135262600Y-84744150D01*
G75*
G02*
X135481350Y-84525400I218750J0D01*
G01*
X135993850Y-84525400D01*
G75*
G02*
X136212600Y-84744150I0J-218750D01*
G01*
X136212600Y-85181650D01*
G75*
G02*
X135993850Y-85400400I-218750J0D01*
G01*
G37*
G04 #@! TD.AperFunction*
G04 #@! TA.AperFunction,SMDPad,CuDef*
G36*
G01*
X135993850Y-86975400D02*
X135481350Y-86975400D01*
G75*
G02*
X135262600Y-86756650I0J218750D01*
G01*
X135262600Y-86319150D01*
G75*
G02*
X135481350Y-86100400I218750J0D01*
G01*
X135993850Y-86100400D01*
G75*
G02*
X136212600Y-86319150I0J-218750D01*
G01*
X136212600Y-86756650D01*
G75*
G02*
X135993850Y-86975400I-218750J0D01*
G01*
G37*
G04 #@! TD.AperFunction*
D38*
X116643700Y-93980000D03*
X112743700Y-93980000D03*
X116643700Y-92710000D03*
X112743700Y-92710000D03*
X116643700Y-91440000D03*
X112743700Y-91440000D03*
X116643700Y-90170000D03*
X112743700Y-90170000D03*
X116643700Y-88900000D03*
X112743700Y-88900000D03*
D39*
X157111700Y-97476200D03*
X157111700Y-93176200D03*
G04 #@! TA.AperFunction,SMDPad,CuDef*
G36*
G01*
X156890100Y-91162850D02*
X156890100Y-90650350D01*
G75*
G02*
X157108850Y-90431600I218750J0D01*
G01*
X157546350Y-90431600D01*
G75*
G02*
X157765100Y-90650350I0J-218750D01*
G01*
X157765100Y-91162850D01*
G75*
G02*
X157546350Y-91381600I-218750J0D01*
G01*
X157108850Y-91381600D01*
G75*
G02*
X156890100Y-91162850I0J218750D01*
G01*
G37*
G04 #@! TD.AperFunction*
G04 #@! TA.AperFunction,SMDPad,CuDef*
G36*
G01*
X155315100Y-91162850D02*
X155315100Y-90650350D01*
G75*
G02*
X155533850Y-90431600I218750J0D01*
G01*
X155971350Y-90431600D01*
G75*
G02*
X156190100Y-90650350I0J-218750D01*
G01*
X156190100Y-91162850D01*
G75*
G02*
X155971350Y-91381600I-218750J0D01*
G01*
X155533850Y-91381600D01*
G75*
G02*
X155315100Y-91162850I0J218750D01*
G01*
G37*
G04 #@! TD.AperFunction*
G04 #@! TA.AperFunction,SMDPad,CuDef*
G36*
G01*
X109700350Y-81299800D02*
X110212850Y-81299800D01*
G75*
G02*
X110431600Y-81518550I0J-218750D01*
G01*
X110431600Y-81956050D01*
G75*
G02*
X110212850Y-82174800I-218750J0D01*
G01*
X109700350Y-82174800D01*
G75*
G02*
X109481600Y-81956050I0J218750D01*
G01*
X109481600Y-81518550D01*
G75*
G02*
X109700350Y-81299800I218750J0D01*
G01*
G37*
G04 #@! TD.AperFunction*
G04 #@! TA.AperFunction,SMDPad,CuDef*
G36*
G01*
X109700350Y-79724800D02*
X110212850Y-79724800D01*
G75*
G02*
X110431600Y-79943550I0J-218750D01*
G01*
X110431600Y-80381050D01*
G75*
G02*
X110212850Y-80599800I-218750J0D01*
G01*
X109700350Y-80599800D01*
G75*
G02*
X109481600Y-80381050I0J218750D01*
G01*
X109481600Y-79943550D01*
G75*
G02*
X109700350Y-79724800I218750J0D01*
G01*
G37*
G04 #@! TD.AperFunction*
D40*
X141986000Y-57142500D03*
X141986000Y-60642500D03*
D41*
X147739100Y-58140600D03*
D42*
X148489100Y-59140600D03*
X147989100Y-59140600D03*
X147489100Y-59140600D03*
X146989100Y-59140600D03*
X146989100Y-57140600D03*
X147489100Y-57140600D03*
X147989100Y-57140600D03*
X148489100Y-57140600D03*
G04 #@! TA.AperFunction,SMDPad,CuDef*
G36*
G01*
X151173000Y-56973150D02*
X151173000Y-57885650D01*
G75*
G02*
X150929250Y-58129400I-243750J0D01*
G01*
X150441750Y-58129400D01*
G75*
G02*
X150198000Y-57885650I0J243750D01*
G01*
X150198000Y-56973150D01*
G75*
G02*
X150441750Y-56729400I243750J0D01*
G01*
X150929250Y-56729400D01*
G75*
G02*
X151173000Y-56973150I0J-243750D01*
G01*
G37*
G04 #@! TD.AperFunction*
G04 #@! TA.AperFunction,SMDPad,CuDef*
G36*
G01*
X153048000Y-56973150D02*
X153048000Y-57885650D01*
G75*
G02*
X152804250Y-58129400I-243750J0D01*
G01*
X152316750Y-58129400D01*
G75*
G02*
X152073000Y-57885650I0J243750D01*
G01*
X152073000Y-56973150D01*
G75*
G02*
X152316750Y-56729400I243750J0D01*
G01*
X152804250Y-56729400D01*
G75*
G02*
X153048000Y-56973150I0J-243750D01*
G01*
G37*
G04 #@! TD.AperFunction*
G04 #@! TA.AperFunction,SMDPad,CuDef*
G36*
G01*
X149130600Y-60835250D02*
X149130600Y-60322750D01*
G75*
G02*
X149349350Y-60104000I218750J0D01*
G01*
X149786850Y-60104000D01*
G75*
G02*
X150005600Y-60322750I0J-218750D01*
G01*
X150005600Y-60835250D01*
G75*
G02*
X149786850Y-61054000I-218750J0D01*
G01*
X149349350Y-61054000D01*
G75*
G02*
X149130600Y-60835250I0J218750D01*
G01*
G37*
G04 #@! TD.AperFunction*
G04 #@! TA.AperFunction,SMDPad,CuDef*
G36*
G01*
X147555600Y-60835250D02*
X147555600Y-60322750D01*
G75*
G02*
X147774350Y-60104000I218750J0D01*
G01*
X148211850Y-60104000D01*
G75*
G02*
X148430600Y-60322750I0J-218750D01*
G01*
X148430600Y-60835250D01*
G75*
G02*
X148211850Y-61054000I-218750J0D01*
G01*
X147774350Y-61054000D01*
G75*
G02*
X147555600Y-60835250I0J218750D01*
G01*
G37*
G04 #@! TD.AperFunction*
G04 #@! TA.AperFunction,SMDPad,CuDef*
G36*
G01*
X142561000Y-63738600D02*
X141411000Y-63738600D01*
G75*
G02*
X141161000Y-63488600I0J250000D01*
G01*
X141161000Y-62388600D01*
G75*
G02*
X141411000Y-62138600I250000J0D01*
G01*
X142561000Y-62138600D01*
G75*
G02*
X142811000Y-62388600I0J-250000D01*
G01*
X142811000Y-63488600D01*
G75*
G02*
X142561000Y-63738600I-250000J0D01*
G01*
G37*
G04 #@! TD.AperFunction*
G04 #@! TA.AperFunction,SMDPad,CuDef*
G36*
G01*
X142561000Y-66588600D02*
X141411000Y-66588600D01*
G75*
G02*
X141161000Y-66338600I0J250000D01*
G01*
X141161000Y-65238600D01*
G75*
G02*
X141411000Y-64988600I250000J0D01*
G01*
X142561000Y-64988600D01*
G75*
G02*
X142811000Y-65238600I0J-250000D01*
G01*
X142811000Y-66338600D01*
G75*
G02*
X142561000Y-66588600I-250000J0D01*
G01*
G37*
G04 #@! TD.AperFunction*
G04 #@! TA.AperFunction,SMDPad,CuDef*
G36*
G01*
X126708400Y-84282500D02*
X126708400Y-84627500D01*
G75*
G02*
X126560900Y-84775000I-147500J0D01*
G01*
X126265900Y-84775000D01*
G75*
G02*
X126118400Y-84627500I0J147500D01*
G01*
X126118400Y-84282500D01*
G75*
G02*
X126265900Y-84135000I147500J0D01*
G01*
X126560900Y-84135000D01*
G75*
G02*
X126708400Y-84282500I0J-147500D01*
G01*
G37*
G04 #@! TD.AperFunction*
G04 #@! TA.AperFunction,SMDPad,CuDef*
G36*
G01*
X127678400Y-84282500D02*
X127678400Y-84627500D01*
G75*
G02*
X127530900Y-84775000I-147500J0D01*
G01*
X127235900Y-84775000D01*
G75*
G02*
X127088400Y-84627500I0J147500D01*
G01*
X127088400Y-84282500D01*
G75*
G02*
X127235900Y-84135000I147500J0D01*
G01*
X127530900Y-84135000D01*
G75*
G02*
X127678400Y-84282500I0J-147500D01*
G01*
G37*
G04 #@! TD.AperFunction*
G04 #@! TA.AperFunction,SMDPad,CuDef*
G36*
G01*
X126446500Y-79006200D02*
X126791500Y-79006200D01*
G75*
G02*
X126939000Y-79153700I0J-147500D01*
G01*
X126939000Y-79448700D01*
G75*
G02*
X126791500Y-79596200I-147500J0D01*
G01*
X126446500Y-79596200D01*
G75*
G02*
X126299000Y-79448700I0J147500D01*
G01*
X126299000Y-79153700D01*
G75*
G02*
X126446500Y-79006200I147500J0D01*
G01*
G37*
G04 #@! TD.AperFunction*
G04 #@! TA.AperFunction,SMDPad,CuDef*
G36*
G01*
X126446500Y-78036200D02*
X126791500Y-78036200D01*
G75*
G02*
X126939000Y-78183700I0J-147500D01*
G01*
X126939000Y-78478700D01*
G75*
G02*
X126791500Y-78626200I-147500J0D01*
G01*
X126446500Y-78626200D01*
G75*
G02*
X126299000Y-78478700I0J147500D01*
G01*
X126299000Y-78183700D01*
G75*
G02*
X126446500Y-78036200I147500J0D01*
G01*
G37*
G04 #@! TD.AperFunction*
G04 #@! TA.AperFunction,SMDPad,CuDef*
G36*
G01*
X145273050Y-58439800D02*
X145785550Y-58439800D01*
G75*
G02*
X146004300Y-58658550I0J-218750D01*
G01*
X146004300Y-59096050D01*
G75*
G02*
X145785550Y-59314800I-218750J0D01*
G01*
X145273050Y-59314800D01*
G75*
G02*
X145054300Y-59096050I0J218750D01*
G01*
X145054300Y-58658550D01*
G75*
G02*
X145273050Y-58439800I218750J0D01*
G01*
G37*
G04 #@! TD.AperFunction*
G04 #@! TA.AperFunction,SMDPad,CuDef*
G36*
G01*
X145273050Y-56864800D02*
X145785550Y-56864800D01*
G75*
G02*
X146004300Y-57083550I0J-218750D01*
G01*
X146004300Y-57521050D01*
G75*
G02*
X145785550Y-57739800I-218750J0D01*
G01*
X145273050Y-57739800D01*
G75*
G02*
X145054300Y-57521050I0J218750D01*
G01*
X145054300Y-57083550D01*
G75*
G02*
X145273050Y-56864800I218750J0D01*
G01*
G37*
G04 #@! TD.AperFunction*
G04 #@! TA.AperFunction,SMDPad,CuDef*
G36*
G01*
X139040100Y-74452700D02*
X139040100Y-74797700D01*
G75*
G02*
X138892600Y-74945200I-147500J0D01*
G01*
X138597600Y-74945200D01*
G75*
G02*
X138450100Y-74797700I0J147500D01*
G01*
X138450100Y-74452700D01*
G75*
G02*
X138597600Y-74305200I147500J0D01*
G01*
X138892600Y-74305200D01*
G75*
G02*
X139040100Y-74452700I0J-147500D01*
G01*
G37*
G04 #@! TD.AperFunction*
G04 #@! TA.AperFunction,SMDPad,CuDef*
G36*
G01*
X140010100Y-74452700D02*
X140010100Y-74797700D01*
G75*
G02*
X139862600Y-74945200I-147500J0D01*
G01*
X139567600Y-74945200D01*
G75*
G02*
X139420100Y-74797700I0J147500D01*
G01*
X139420100Y-74452700D01*
G75*
G02*
X139567600Y-74305200I147500J0D01*
G01*
X139862600Y-74305200D01*
G75*
G02*
X140010100Y-74452700I0J-147500D01*
G01*
G37*
G04 #@! TD.AperFunction*
G04 #@! TA.AperFunction,SMDPad,CuDef*
G36*
G01*
X141330900Y-77380600D02*
X141675900Y-77380600D01*
G75*
G02*
X141823400Y-77528100I0J-147500D01*
G01*
X141823400Y-77823100D01*
G75*
G02*
X141675900Y-77970600I-147500J0D01*
G01*
X141330900Y-77970600D01*
G75*
G02*
X141183400Y-77823100I0J147500D01*
G01*
X141183400Y-77528100D01*
G75*
G02*
X141330900Y-77380600I147500J0D01*
G01*
G37*
G04 #@! TD.AperFunction*
G04 #@! TA.AperFunction,SMDPad,CuDef*
G36*
G01*
X141330900Y-76410600D02*
X141675900Y-76410600D01*
G75*
G02*
X141823400Y-76558100I0J-147500D01*
G01*
X141823400Y-76853100D01*
G75*
G02*
X141675900Y-77000600I-147500J0D01*
G01*
X141330900Y-77000600D01*
G75*
G02*
X141183400Y-76853100I0J147500D01*
G01*
X141183400Y-76558100D01*
G75*
G02*
X141330900Y-76410600I147500J0D01*
G01*
G37*
G04 #@! TD.AperFunction*
D43*
X138531600Y-92883800D03*
X133451600Y-92883800D03*
X135991600Y-96193800D03*
X130911600Y-96193800D03*
G04 #@! TA.AperFunction,SMDPad,CuDef*
G36*
G01*
X155580600Y-65758350D02*
X155580600Y-66270850D01*
G75*
G02*
X155361850Y-66489600I-218750J0D01*
G01*
X154924350Y-66489600D01*
G75*
G02*
X154705600Y-66270850I0J218750D01*
G01*
X154705600Y-65758350D01*
G75*
G02*
X154924350Y-65539600I218750J0D01*
G01*
X155361850Y-65539600D01*
G75*
G02*
X155580600Y-65758350I0J-218750D01*
G01*
G37*
G04 #@! TD.AperFunction*
G04 #@! TA.AperFunction,SMDPad,CuDef*
G36*
G01*
X157155600Y-65758350D02*
X157155600Y-66270850D01*
G75*
G02*
X156936850Y-66489600I-218750J0D01*
G01*
X156499350Y-66489600D01*
G75*
G02*
X156280600Y-66270850I0J218750D01*
G01*
X156280600Y-65758350D01*
G75*
G02*
X156499350Y-65539600I218750J0D01*
G01*
X156936850Y-65539600D01*
G75*
G02*
X157155600Y-65758350I0J-218750D01*
G01*
G37*
G04 #@! TD.AperFunction*
G04 #@! TA.AperFunction,SMDPad,CuDef*
G36*
G01*
X159187300Y-70177950D02*
X159187300Y-70690450D01*
G75*
G02*
X158968550Y-70909200I-218750J0D01*
G01*
X158531050Y-70909200D01*
G75*
G02*
X158312300Y-70690450I0J218750D01*
G01*
X158312300Y-70177950D01*
G75*
G02*
X158531050Y-69959200I218750J0D01*
G01*
X158968550Y-69959200D01*
G75*
G02*
X159187300Y-70177950I0J-218750D01*
G01*
G37*
G04 #@! TD.AperFunction*
G04 #@! TA.AperFunction,SMDPad,CuDef*
G36*
G01*
X160762300Y-70177950D02*
X160762300Y-70690450D01*
G75*
G02*
X160543550Y-70909200I-218750J0D01*
G01*
X160106050Y-70909200D01*
G75*
G02*
X159887300Y-70690450I0J218750D01*
G01*
X159887300Y-70177950D01*
G75*
G02*
X160106050Y-69959200I218750J0D01*
G01*
X160543550Y-69959200D01*
G75*
G02*
X160762300Y-70177950I0J-218750D01*
G01*
G37*
G04 #@! TD.AperFunction*
G04 #@! TA.AperFunction,SMDPad,CuDef*
G36*
G01*
X159847700Y-84909950D02*
X159847700Y-85422450D01*
G75*
G02*
X159628950Y-85641200I-218750J0D01*
G01*
X159191450Y-85641200D01*
G75*
G02*
X158972700Y-85422450I0J218750D01*
G01*
X158972700Y-84909950D01*
G75*
G02*
X159191450Y-84691200I218750J0D01*
G01*
X159628950Y-84691200D01*
G75*
G02*
X159847700Y-84909950I0J-218750D01*
G01*
G37*
G04 #@! TD.AperFunction*
G04 #@! TA.AperFunction,SMDPad,CuDef*
G36*
G01*
X161422700Y-84909950D02*
X161422700Y-85422450D01*
G75*
G02*
X161203950Y-85641200I-218750J0D01*
G01*
X160766450Y-85641200D01*
G75*
G02*
X160547700Y-85422450I0J218750D01*
G01*
X160547700Y-84909950D01*
G75*
G02*
X160766450Y-84691200I218750J0D01*
G01*
X161203950Y-84691200D01*
G75*
G02*
X161422700Y-84909950I0J-218750D01*
G01*
G37*
G04 #@! TD.AperFunction*
D44*
X119034500Y-68568400D03*
X118534500Y-68568400D03*
X118034500Y-68568400D03*
X117534500Y-68568400D03*
X117034500Y-68568400D03*
X116534500Y-68568400D03*
X116034500Y-68568400D03*
X115534500Y-68568400D03*
D45*
X114834500Y-69268400D03*
X114834500Y-69768400D03*
X114834500Y-70268400D03*
X114834500Y-70768400D03*
X114834500Y-71268400D03*
X114834500Y-71768400D03*
X114834500Y-72268400D03*
X114834500Y-72768400D03*
D44*
X115534500Y-73468400D03*
X116034500Y-73468400D03*
X116534500Y-73468400D03*
X117034500Y-73468400D03*
X117534500Y-73468400D03*
X118034500Y-73468400D03*
X118534500Y-73468400D03*
X119034500Y-73468400D03*
D45*
X119734500Y-72768400D03*
X119734500Y-72268400D03*
X119734500Y-71768400D03*
X119734500Y-71268400D03*
X119734500Y-70768400D03*
X119734500Y-70268400D03*
X119734500Y-69768400D03*
X119734500Y-69268400D03*
D46*
X117284500Y-71018400D03*
D47*
X110598500Y-72144400D03*
X109948500Y-72144400D03*
X109298500Y-72144400D03*
X108648500Y-72144400D03*
X107998500Y-72144400D03*
X107348500Y-72144400D03*
X106698500Y-72144400D03*
X106698500Y-78020400D03*
X107348500Y-78020400D03*
X107998500Y-78020400D03*
X108648500Y-78020400D03*
X109298500Y-78020400D03*
X109948500Y-78020400D03*
X110598500Y-78020400D03*
G04 #@! TA.AperFunction,SMDPad,CuDef*
G36*
G01*
X136999800Y-56973150D02*
X136999800Y-57885650D01*
G75*
G02*
X136756050Y-58129400I-243750J0D01*
G01*
X136268550Y-58129400D01*
G75*
G02*
X136024800Y-57885650I0J243750D01*
G01*
X136024800Y-56973150D01*
G75*
G02*
X136268550Y-56729400I243750J0D01*
G01*
X136756050Y-56729400D01*
G75*
G02*
X136999800Y-56973150I0J-243750D01*
G01*
G37*
G04 #@! TD.AperFunction*
G04 #@! TA.AperFunction,SMDPad,CuDef*
G36*
G01*
X138874800Y-56973150D02*
X138874800Y-57885650D01*
G75*
G02*
X138631050Y-58129400I-243750J0D01*
G01*
X138143550Y-58129400D01*
G75*
G02*
X137899800Y-57885650I0J243750D01*
G01*
X137899800Y-56973150D01*
G75*
G02*
X138143550Y-56729400I243750J0D01*
G01*
X138631050Y-56729400D01*
G75*
G02*
X138874800Y-56973150I0J-243750D01*
G01*
G37*
G04 #@! TD.AperFunction*
D41*
X133565900Y-58115200D03*
D42*
X134315900Y-59115200D03*
X133815900Y-59115200D03*
X133315900Y-59115200D03*
X132815900Y-59115200D03*
X132815900Y-57115200D03*
X133315900Y-57115200D03*
X133815900Y-57115200D03*
X134315900Y-57115200D03*
G04 #@! TA.AperFunction,SMDPad,CuDef*
G36*
G01*
X134957400Y-60835250D02*
X134957400Y-60322750D01*
G75*
G02*
X135176150Y-60104000I218750J0D01*
G01*
X135613650Y-60104000D01*
G75*
G02*
X135832400Y-60322750I0J-218750D01*
G01*
X135832400Y-60835250D01*
G75*
G02*
X135613650Y-61054000I-218750J0D01*
G01*
X135176150Y-61054000D01*
G75*
G02*
X134957400Y-60835250I0J218750D01*
G01*
G37*
G04 #@! TD.AperFunction*
G04 #@! TA.AperFunction,SMDPad,CuDef*
G36*
G01*
X133382400Y-60835250D02*
X133382400Y-60322750D01*
G75*
G02*
X133601150Y-60104000I218750J0D01*
G01*
X134038650Y-60104000D01*
G75*
G02*
X134257400Y-60322750I0J-218750D01*
G01*
X134257400Y-60835250D01*
G75*
G02*
X134038650Y-61054000I-218750J0D01*
G01*
X133601150Y-61054000D01*
G75*
G02*
X133382400Y-60835250I0J218750D01*
G01*
G37*
G04 #@! TD.AperFunction*
G04 #@! TA.AperFunction,SMDPad,CuDef*
G36*
G01*
X153469050Y-73665600D02*
X152956550Y-73665600D01*
G75*
G02*
X152737800Y-73446850I0J218750D01*
G01*
X152737800Y-73009350D01*
G75*
G02*
X152956550Y-72790600I218750J0D01*
G01*
X153469050Y-72790600D01*
G75*
G02*
X153687800Y-73009350I0J-218750D01*
G01*
X153687800Y-73446850D01*
G75*
G02*
X153469050Y-73665600I-218750J0D01*
G01*
G37*
G04 #@! TD.AperFunction*
G04 #@! TA.AperFunction,SMDPad,CuDef*
G36*
G01*
X153469050Y-75240600D02*
X152956550Y-75240600D01*
G75*
G02*
X152737800Y-75021850I0J218750D01*
G01*
X152737800Y-74584350D01*
G75*
G02*
X152956550Y-74365600I218750J0D01*
G01*
X153469050Y-74365600D01*
G75*
G02*
X153687800Y-74584350I0J-218750D01*
G01*
X153687800Y-75021850D01*
G75*
G02*
X153469050Y-75240600I-218750J0D01*
G01*
G37*
G04 #@! TD.AperFunction*
G04 #@! TA.AperFunction,SMDPad,CuDef*
G36*
G01*
X131099850Y-58439800D02*
X131612350Y-58439800D01*
G75*
G02*
X131831100Y-58658550I0J-218750D01*
G01*
X131831100Y-59096050D01*
G75*
G02*
X131612350Y-59314800I-218750J0D01*
G01*
X131099850Y-59314800D01*
G75*
G02*
X130881100Y-59096050I0J218750D01*
G01*
X130881100Y-58658550D01*
G75*
G02*
X131099850Y-58439800I218750J0D01*
G01*
G37*
G04 #@! TD.AperFunction*
G04 #@! TA.AperFunction,SMDPad,CuDef*
G36*
G01*
X131099850Y-56864800D02*
X131612350Y-56864800D01*
G75*
G02*
X131831100Y-57083550I0J-218750D01*
G01*
X131831100Y-57521050D01*
G75*
G02*
X131612350Y-57739800I-218750J0D01*
G01*
X131099850Y-57739800D01*
G75*
G02*
X130881100Y-57521050I0J218750D01*
G01*
X130881100Y-57083550D01*
G75*
G02*
X131099850Y-56864800I218750J0D01*
G01*
G37*
G04 #@! TD.AperFunction*
G04 #@! TA.AperFunction,SMDPad,CuDef*
G36*
G01*
X113286250Y-78440800D02*
X112773750Y-78440800D01*
G75*
G02*
X112555000Y-78222050I0J218750D01*
G01*
X112555000Y-77784550D01*
G75*
G02*
X112773750Y-77565800I218750J0D01*
G01*
X113286250Y-77565800D01*
G75*
G02*
X113505000Y-77784550I0J-218750D01*
G01*
X113505000Y-78222050D01*
G75*
G02*
X113286250Y-78440800I-218750J0D01*
G01*
G37*
G04 #@! TD.AperFunction*
G04 #@! TA.AperFunction,SMDPad,CuDef*
G36*
G01*
X113286250Y-80015800D02*
X112773750Y-80015800D01*
G75*
G02*
X112555000Y-79797050I0J218750D01*
G01*
X112555000Y-79359550D01*
G75*
G02*
X112773750Y-79140800I218750J0D01*
G01*
X113286250Y-79140800D01*
G75*
G02*
X113505000Y-79359550I0J-218750D01*
G01*
X113505000Y-79797050D01*
G75*
G02*
X113286250Y-80015800I-218750J0D01*
G01*
G37*
G04 #@! TD.AperFunction*
G04 #@! TA.AperFunction,SMDPad,CuDef*
G36*
G01*
X120723950Y-64650000D02*
X121236450Y-64650000D01*
G75*
G02*
X121455200Y-64868750I0J-218750D01*
G01*
X121455200Y-65306250D01*
G75*
G02*
X121236450Y-65525000I-218750J0D01*
G01*
X120723950Y-65525000D01*
G75*
G02*
X120505200Y-65306250I0J218750D01*
G01*
X120505200Y-64868750D01*
G75*
G02*
X120723950Y-64650000I218750J0D01*
G01*
G37*
G04 #@! TD.AperFunction*
G04 #@! TA.AperFunction,SMDPad,CuDef*
G36*
G01*
X120723950Y-63075000D02*
X121236450Y-63075000D01*
G75*
G02*
X121455200Y-63293750I0J-218750D01*
G01*
X121455200Y-63731250D01*
G75*
G02*
X121236450Y-63950000I-218750J0D01*
G01*
X120723950Y-63950000D01*
G75*
G02*
X120505200Y-63731250I0J218750D01*
G01*
X120505200Y-63293750D01*
G75*
G02*
X120723950Y-63075000I218750J0D01*
G01*
G37*
G04 #@! TD.AperFunction*
G04 #@! TA.AperFunction,SMDPad,CuDef*
G36*
G01*
X151440400Y-60322750D02*
X151440400Y-60835250D01*
G75*
G02*
X151221650Y-61054000I-218750J0D01*
G01*
X150784150Y-61054000D01*
G75*
G02*
X150565400Y-60835250I0J218750D01*
G01*
X150565400Y-60322750D01*
G75*
G02*
X150784150Y-60104000I218750J0D01*
G01*
X151221650Y-60104000D01*
G75*
G02*
X151440400Y-60322750I0J-218750D01*
G01*
G37*
G04 #@! TD.AperFunction*
G04 #@! TA.AperFunction,SMDPad,CuDef*
G36*
G01*
X153015400Y-60322750D02*
X153015400Y-60835250D01*
G75*
G02*
X152796650Y-61054000I-218750J0D01*
G01*
X152359150Y-61054000D01*
G75*
G02*
X152140400Y-60835250I0J218750D01*
G01*
X152140400Y-60322750D01*
G75*
G02*
X152359150Y-60104000I218750J0D01*
G01*
X152796650Y-60104000D01*
G75*
G02*
X153015400Y-60322750I0J-218750D01*
G01*
G37*
G04 #@! TD.AperFunction*
G04 #@! TA.AperFunction,SMDPad,CuDef*
G36*
G01*
X137279800Y-60322750D02*
X137279800Y-60835250D01*
G75*
G02*
X137061050Y-61054000I-218750J0D01*
G01*
X136623550Y-61054000D01*
G75*
G02*
X136404800Y-60835250I0J218750D01*
G01*
X136404800Y-60322750D01*
G75*
G02*
X136623550Y-60104000I218750J0D01*
G01*
X137061050Y-60104000D01*
G75*
G02*
X137279800Y-60322750I0J-218750D01*
G01*
G37*
G04 #@! TD.AperFunction*
G04 #@! TA.AperFunction,SMDPad,CuDef*
G36*
G01*
X138854800Y-60322750D02*
X138854800Y-60835250D01*
G75*
G02*
X138636050Y-61054000I-218750J0D01*
G01*
X138198550Y-61054000D01*
G75*
G02*
X137979800Y-60835250I0J218750D01*
G01*
X137979800Y-60322750D01*
G75*
G02*
X138198550Y-60104000I218750J0D01*
G01*
X138636050Y-60104000D01*
G75*
G02*
X138854800Y-60322750I0J-218750D01*
G01*
G37*
G04 #@! TD.AperFunction*
D48*
X127050800Y-87147400D03*
D49*
X144678400Y-81114900D03*
D50*
X155829000Y-71221600D03*
X155829000Y-70662800D03*
D48*
X140957300Y-74498200D03*
X141681200Y-75323700D03*
X150279100Y-59537600D03*
X150964900Y-59537600D03*
X149542500Y-59537600D03*
D51*
X94818200Y-53162200D03*
X92557600Y-53162200D03*
X97078800Y-53162200D03*
X110286800Y-53136800D03*
X112420400Y-53136800D03*
X103682800Y-53136800D03*
X108102400Y-53136800D03*
X105892600Y-53136800D03*
X101523800Y-53136800D03*
X116611400Y-53136800D03*
X118778800Y-53136800D03*
X120998800Y-53136800D03*
D50*
X152577800Y-65506600D03*
X152577800Y-66065400D03*
D51*
X172148500Y-90618000D03*
X172148500Y-88398000D03*
X172148500Y-97278600D03*
X172148500Y-92838600D03*
X172148500Y-99498600D03*
X172148500Y-95058600D03*
D48*
X148920200Y-94310200D03*
X148920200Y-95123000D03*
X148107400Y-95123000D03*
X148107400Y-94310200D03*
D51*
X147802600Y-72237600D03*
X101523800Y-101676200D03*
X103682800Y-101676200D03*
X105816400Y-101676200D03*
X107924600Y-101676200D03*
X110032800Y-101676200D03*
X172147700Y-101676200D03*
X172147700Y-64360050D03*
X172147700Y-62115400D03*
X172147700Y-59870750D03*
X172147700Y-57626100D03*
X172147700Y-55381450D03*
X172147700Y-53136800D03*
X169838800Y-53136800D03*
X167618800Y-53136800D03*
X165398800Y-53136800D03*
X163178800Y-53136800D03*
X160958800Y-53136800D03*
X158738800Y-53136800D03*
X156518800Y-53136800D03*
X154298800Y-53136800D03*
X152078800Y-53136800D03*
X149858800Y-53136800D03*
X147638800Y-53136800D03*
X145418800Y-53136800D03*
X143198800Y-53136800D03*
X140978800Y-53136800D03*
X138758800Y-53136800D03*
X136538800Y-53136800D03*
X134318800Y-53136800D03*
X132098800Y-53136800D03*
X129878800Y-53136800D03*
X127658800Y-53136800D03*
X125438800Y-53136800D03*
X123218800Y-53136800D03*
X116268500Y-70002400D03*
X117284500Y-70002400D03*
X117284500Y-72034400D03*
X116268500Y-72034400D03*
X116268500Y-71018400D03*
X117284500Y-71018400D03*
X118300500Y-72034400D03*
X118300500Y-71018400D03*
X118300500Y-70002400D03*
X107802100Y-65311600D03*
D48*
X135394700Y-59537600D03*
X136131300Y-59537600D03*
X136817100Y-59537600D03*
D51*
X143637000Y-57137300D03*
X140360400Y-57137300D03*
X143637000Y-55765700D03*
X140360400Y-55765700D03*
X141452600Y-55765700D03*
X142544800Y-55765700D03*
X106680000Y-70383400D03*
X113423700Y-65938400D03*
X123405900Y-66802000D03*
X113449100Y-95097600D03*
X110972600Y-91440000D03*
X113423700Y-68072000D03*
X121297700Y-66827400D03*
X110972600Y-90170000D03*
X111340900Y-95097600D03*
X112382300Y-95097600D03*
X114338800Y-101676200D03*
X116558800Y-101676200D03*
X138758800Y-101676200D03*
X163178800Y-101676200D03*
X158738800Y-101676200D03*
X120998800Y-101676200D03*
X154298800Y-101676200D03*
X118778800Y-101676200D03*
X129878800Y-101676200D03*
X149858800Y-101676200D03*
X132098800Y-101676200D03*
X169838800Y-101676200D03*
X152078800Y-101676200D03*
X143198800Y-101676200D03*
X165398800Y-101676200D03*
X127658800Y-101676200D03*
X156518800Y-101676200D03*
X134318800Y-101676200D03*
X136538800Y-101676200D03*
X145418800Y-101676200D03*
X140978800Y-101676200D03*
X123218800Y-101676200D03*
X147638800Y-101676200D03*
X167618800Y-101676200D03*
X125438800Y-101676200D03*
X160958800Y-101676200D03*
X172148500Y-66675000D03*
X172148500Y-80873600D03*
X172148500Y-86156800D03*
X158191200Y-85166200D03*
X165963600Y-58394600D03*
X164896800Y-57277000D03*
X164896800Y-59486800D03*
X159410400Y-86309200D03*
X130911600Y-94234000D03*
X116205000Y-63474600D03*
X122174000Y-63500000D03*
D48*
X136499600Y-74218800D03*
D51*
X167640000Y-67030600D03*
X145669000Y-89382600D03*
X146659600Y-89382600D03*
X147650200Y-89382600D03*
X115951000Y-65684400D03*
X90233500Y-55499000D03*
X90233500Y-57810400D03*
X90233500Y-60147200D03*
X90233500Y-62507600D03*
X90233500Y-64807600D03*
X90233500Y-67107600D03*
X90233500Y-69407600D03*
X90233500Y-71707600D03*
X90233500Y-74007600D03*
X90233500Y-76307600D03*
X90233500Y-78607600D03*
X90233500Y-80907600D03*
X90233500Y-83207600D03*
X90233500Y-85507600D03*
X90233500Y-87807600D03*
X90233500Y-90107600D03*
X90233500Y-92407600D03*
X90233500Y-94707600D03*
X90233500Y-97007600D03*
X90233500Y-99307600D03*
X112115600Y-101676200D03*
X114503200Y-53136800D03*
X99390200Y-53162200D03*
X99390200Y-101676200D03*
X159816800Y-98323404D03*
X97078800Y-101676200D03*
X94818200Y-101676200D03*
X92557600Y-101676200D03*
X90233500Y-101676200D03*
X90233500Y-53162200D03*
D49*
X130556000Y-80314800D03*
D48*
X138709400Y-68427600D03*
X139877800Y-67462400D03*
X141071600Y-68427600D03*
X137337800Y-70307200D03*
D49*
X136042400Y-76314300D03*
D51*
X172148500Y-78955900D03*
X172148500Y-76936600D03*
X172148500Y-74930000D03*
X155752800Y-89408000D03*
D49*
X133731000Y-77927200D03*
D51*
X113004600Y-81229200D03*
D48*
X144195800Y-74396600D03*
X130149600Y-73787000D03*
X128727200Y-73787000D03*
X133222998Y-85725000D03*
D51*
X149504400Y-70764400D03*
X146100800Y-70764400D03*
X146100800Y-72237600D03*
X149504400Y-72237600D03*
X111569500Y-67030600D03*
D48*
X144348200Y-99568000D03*
D51*
X158877000Y-98323400D03*
X158877000Y-97383600D03*
X170053000Y-76606400D03*
X172135800Y-69037200D03*
X156743400Y-77622400D03*
D49*
X126619000Y-77317600D03*
D51*
X170205400Y-67030600D03*
X108712000Y-81737200D03*
D48*
X128574800Y-84455000D03*
X149123400Y-75552300D03*
X146405600Y-75742800D03*
D51*
X160832800Y-77622400D03*
X146659600Y-88468200D03*
X147650200Y-88468200D03*
X145669000Y-88468200D03*
X144678400Y-88468200D03*
X148714200Y-80317600D03*
X150214200Y-80317600D03*
X151714200Y-80317600D03*
X148714200Y-81817600D03*
X150214200Y-81817600D03*
X151714200Y-81817600D03*
X148714200Y-83317600D03*
X150214200Y-83317600D03*
X151714200Y-83317600D03*
D48*
X142074900Y-83299300D03*
X143738600Y-89268300D03*
X142760700Y-84035900D03*
X152565100Y-75450700D03*
D49*
X130556000Y-77901800D03*
D51*
X109296200Y-75895200D03*
X108661200Y-79806800D03*
D49*
X127787400Y-79248000D03*
X130556000Y-78714600D03*
D51*
X107998500Y-76532500D03*
X107340400Y-80441800D03*
D49*
X131343400Y-79527400D03*
D51*
X105232200Y-80391000D03*
D49*
X128143000Y-80467200D03*
D51*
X109943900Y-74320400D03*
D49*
X128701800Y-77520800D03*
D51*
X111417100Y-74295000D03*
D49*
X127584200Y-77292200D03*
D51*
X152425400Y-69494400D03*
X153390600Y-69494400D03*
X153385400Y-70464800D03*
X142570200Y-88849200D03*
X153390600Y-71424800D03*
X152425400Y-70459600D03*
X142570200Y-87223600D03*
X142570200Y-88036400D03*
X152400000Y-71424800D03*
D48*
X119862600Y-67106800D03*
X114731800Y-84632800D03*
X120624600Y-73888600D03*
X119862600Y-91440000D03*
X119659400Y-82778600D03*
D49*
X134543800Y-79502000D03*
D48*
X117218700Y-84939900D03*
D51*
X148005800Y-97256600D03*
X149834600Y-91744800D03*
X154012900Y-96558100D03*
X159131000Y-90652600D03*
X160909000Y-90652600D03*
X160020000Y-90652600D03*
X160909000Y-91541600D03*
X160020000Y-91541600D03*
X159131000Y-91541600D03*
D49*
X121335800Y-71780400D03*
X124993400Y-71780400D03*
X120878600Y-71272400D03*
X125450600Y-71272400D03*
D48*
X151765000Y-64592200D03*
X147878800Y-73977500D03*
D49*
X140868400Y-87355800D03*
X139768700Y-89014300D03*
X140868400Y-88005800D03*
X140418700Y-89014300D03*
X154749500Y-84060000D03*
X160362900Y-82100300D03*
X154749500Y-83410000D03*
X160362900Y-81450300D03*
X127584200Y-76454000D03*
D48*
X114300000Y-74015600D03*
X112420400Y-64693800D03*
X130962400Y-69824600D03*
X129895600Y-68605400D03*
X113753900Y-61798200D03*
X128752600Y-69824600D03*
X115036600Y-62509400D03*
X156946600Y-72161400D03*
X149910800Y-98450400D03*
D52*
X164033200Y-87477600D03*
D49*
X162280600Y-79375000D03*
D48*
X158851600Y-69088000D03*
X146418300Y-57200800D03*
X152552400Y-59715400D03*
X153238200Y-59728100D03*
X153238200Y-58534300D03*
X152552400Y-59131200D03*
X153238200Y-59131200D03*
X152552400Y-58534300D03*
D49*
X129743200Y-81114900D03*
X131343400Y-77914500D03*
D48*
X132842000Y-72948800D03*
X132842000Y-72212200D03*
D49*
X133731000Y-80314800D03*
D51*
X111340900Y-87680800D03*
X112407700Y-87680800D03*
X113449100Y-87680800D03*
X113601500Y-72288400D03*
X116014500Y-74701400D03*
X119062500Y-74701400D03*
X122174000Y-65074800D03*
D48*
X132245100Y-57175400D03*
D51*
X111556800Y-68618100D03*
X111823500Y-78003400D03*
X116039772Y-67005200D03*
X122326400Y-69469000D03*
X138531600Y-94843600D03*
D48*
X138379200Y-58508900D03*
X139052300Y-58508900D03*
X139052300Y-59105800D03*
X138379200Y-59702700D03*
D49*
X132943600Y-76314300D03*
D48*
X141071600Y-70307200D03*
X139877800Y-71247000D03*
X138709400Y-70307200D03*
X129870200Y-83007200D03*
D49*
X136944100Y-76314300D03*
D48*
X122351900Y-90144500D03*
D49*
X132156200Y-77927200D03*
X120827800Y-72491600D03*
D51*
X118541800Y-67106800D03*
X166370000Y-87503000D03*
X170053000Y-78409800D03*
D48*
X136550400Y-88011000D03*
X139052300Y-59702700D03*
X138379200Y-59105800D03*
X115925600Y-82778600D03*
X145796000Y-80035400D03*
X150520400Y-77508100D03*
X154622400Y-80810000D03*
X143573500Y-93154500D03*
X151091900Y-87693500D03*
D49*
X134543800Y-75514200D03*
X132130800Y-76314300D03*
X133731000Y-81102200D03*
X132943600Y-80314800D03*
X132156200Y-81102200D03*
D48*
X134594600Y-84785200D03*
X157759400Y-70434200D03*
X150495000Y-97028000D03*
X143103600Y-98526600D03*
X131851400Y-87020400D03*
X133451600Y-94818200D03*
D49*
X123698000Y-84531200D03*
X128651000Y-80975200D03*
X123698000Y-81483200D03*
D48*
X135991600Y-94234000D03*
D49*
X129743200Y-80314800D03*
X124714000Y-81940400D03*
X124714000Y-84124800D03*
X134543800Y-77114400D03*
X146329400Y-77457300D03*
X135356600Y-75514200D03*
X144322800Y-77609700D03*
X133731000Y-75514200D03*
X143725900Y-78511400D03*
D48*
X137464800Y-83718400D03*
X145884900Y-80810100D03*
X144995900Y-79717900D03*
D53*
X128651000Y-87147400D02*
X127050800Y-87147400D01*
X131743600Y-82314600D02*
X131743600Y-84054800D01*
X131743600Y-84054800D02*
X128651000Y-87147400D01*
D54*
X147489100Y-59140600D02*
X147489100Y-58390600D01*
D53*
X118034500Y-72300400D02*
X118300500Y-72034400D01*
D55*
X118034500Y-73468400D02*
X118034500Y-72300400D01*
D53*
X118034500Y-69736400D02*
X118300500Y-70002400D01*
D55*
X118034500Y-68568400D02*
X118034500Y-69736400D01*
D54*
X133315900Y-58365200D02*
X133565900Y-58115200D01*
X133315900Y-59115200D02*
X133315900Y-58365200D01*
D53*
X106698500Y-70427300D02*
X106692700Y-70421500D01*
X106698500Y-72144400D02*
X106698500Y-70427300D01*
D56*
X159410200Y-85166100D02*
X158191300Y-85166100D01*
X130911600Y-96193800D02*
X130911600Y-94234000D01*
D57*
X155752700Y-90957400D02*
X155752700Y-89408100D01*
D55*
X130150100Y-80708000D02*
X130150100Y-80708000D01*
D58*
X135743600Y-76714600D02*
X136144000Y-76314200D01*
X136130600Y-76301600D02*
X135743600Y-75914600D01*
X135743600Y-76714600D02*
X135743600Y-75914600D01*
X113004600Y-81229200D02*
X112979100Y-81254700D01*
D57*
X113030000Y-81203800D02*
X113004600Y-81229200D01*
X113030000Y-79578300D02*
X113030000Y-81203800D01*
D59*
X117430700Y-63474800D02*
X116205200Y-63474800D01*
D57*
X122161500Y-63512500D02*
X122174000Y-63500000D01*
X120980200Y-63512500D02*
X122161500Y-63512500D01*
D54*
X145618100Y-99568000D02*
X144348200Y-99568000D01*
D55*
X130543300Y-80314800D02*
X130556000Y-80314800D01*
D58*
X130143600Y-80714500D02*
X130543300Y-80314800D01*
X130143600Y-80714600D02*
X130143600Y-80714500D01*
D56*
X159410200Y-86309000D02*
X159410400Y-86309200D01*
X159410200Y-85166200D02*
X159410200Y-86309000D01*
D60*
X126619000Y-78331200D02*
X126619000Y-77317600D01*
X138720600Y-77811600D02*
X138720600Y-77636600D01*
X140120600Y-76236600D02*
X140120600Y-76061600D01*
X138720600Y-77636600D02*
X140120600Y-76236600D01*
X140120600Y-76061600D02*
X140120600Y-75982600D01*
D57*
X109956600Y-81737300D02*
X108712100Y-81737300D01*
X108712100Y-81737300D02*
X108712000Y-81737200D01*
D54*
X127383400Y-84455000D02*
X128574800Y-84455000D01*
D57*
X156743400Y-77622400D02*
X160832800Y-77622400D01*
D54*
X151777800Y-65786000D02*
X152577800Y-65786000D01*
D59*
X107802100Y-66560400D02*
X107802100Y-65311600D01*
D54*
X156527400Y-70942200D02*
X155829000Y-70942200D01*
D57*
X146405500Y-75742700D02*
X146405600Y-75742800D01*
D55*
X147919300Y-79510000D02*
X148815800Y-80406500D01*
X146794300Y-79510000D02*
X147919300Y-79510000D01*
X151169300Y-82760000D02*
X150194300Y-81785000D01*
X153594300Y-82760000D02*
X151169300Y-82760000D01*
X152469300Y-84060000D02*
X150194300Y-81785000D01*
X152469300Y-85185000D02*
X152469300Y-84060000D01*
X151169300Y-80810000D02*
X150194300Y-81785000D01*
X151169300Y-78385000D02*
X151169300Y-80810000D01*
X148815800Y-80406500D02*
X150194300Y-81785000D01*
X148156600Y-82760000D02*
X148714200Y-83317600D01*
X146794300Y-82760000D02*
X148156600Y-82760000D01*
X145209200Y-87284700D02*
X145224500Y-87300000D01*
X143668400Y-87284700D02*
X145209200Y-87284700D01*
X145669000Y-87744500D02*
X145224500Y-87300000D01*
X145669000Y-88468200D02*
X145669000Y-87744500D01*
X143677600Y-90043000D02*
X143677600Y-89778800D01*
X143738600Y-89717800D02*
X143738600Y-89268300D01*
X143677600Y-89778800D02*
X143738600Y-89717800D01*
D57*
X153212700Y-74803100D02*
X152565100Y-75450700D01*
X153212800Y-74803100D02*
X153212700Y-74803100D01*
D53*
X109296200Y-75895200D02*
X109298500Y-75897500D01*
X109298500Y-75897500D02*
X109298500Y-78020400D01*
D58*
X130556400Y-77901800D02*
X130556000Y-77901800D01*
D54*
X130943600Y-77514600D02*
X130556400Y-77901800D01*
D53*
X108648500Y-79794100D02*
X108648500Y-78020400D01*
X108661200Y-79806800D02*
X108648500Y-79794100D01*
D60*
X130556400Y-79527400D02*
X130943600Y-79914600D01*
X127787400Y-79248000D02*
X128066800Y-79527400D01*
X128066800Y-79527400D02*
X130556400Y-79527400D01*
D54*
X130556000Y-78714600D02*
X130943600Y-78327000D01*
D53*
X107998500Y-76532500D02*
X107998500Y-78020400D01*
X107340400Y-80441800D02*
X107348500Y-80433700D01*
X107348500Y-80433700D02*
X107348500Y-78020400D01*
D55*
X131343400Y-79527400D02*
X131356400Y-79527400D01*
D54*
X131356400Y-79527400D02*
X131743600Y-79914600D01*
D53*
X105232200Y-78892400D02*
X105232200Y-80391000D01*
X106698500Y-78020400D02*
X106104200Y-78020400D01*
X106104200Y-78020400D02*
X105232200Y-78892400D01*
D54*
X128695600Y-79914600D02*
X128143000Y-80467200D01*
X129343600Y-79914600D02*
X128695600Y-79914600D01*
D53*
X109948500Y-72144400D02*
X109948500Y-74315800D01*
X109948500Y-74315800D02*
X109943900Y-74320400D01*
D54*
X128708000Y-77514600D02*
X129343600Y-77514600D01*
X128701800Y-77520800D02*
X128708000Y-77514600D01*
D53*
X110598500Y-72144400D02*
X110598500Y-73476400D01*
X110598500Y-73476400D02*
X111417100Y-74295000D01*
D54*
X128619200Y-79114600D02*
X129343600Y-79114600D01*
X127584200Y-77292200D02*
X127584200Y-78079600D01*
X127584200Y-78079600D02*
X128619200Y-79114600D01*
X119034500Y-67934900D02*
X119862600Y-67106800D01*
X119034500Y-68568400D02*
X119034500Y-67934900D01*
X120624600Y-75234800D02*
X120624600Y-73888600D01*
X114731800Y-81127600D02*
X120624600Y-75234800D01*
X116643700Y-92710000D02*
X115243700Y-92710000D01*
X114731800Y-92198100D02*
X114731800Y-81127600D01*
X115243700Y-92710000D02*
X114731800Y-92198100D01*
X123190000Y-91440000D02*
X125349000Y-89281000D01*
X117218700Y-91440000D02*
X123190000Y-91440000D01*
X125349000Y-89103200D02*
X125526800Y-89281000D01*
X125349000Y-89052400D02*
X125349000Y-88138100D01*
X125349000Y-89281000D02*
X125526800Y-89281000D01*
X125349000Y-89281000D02*
X125349000Y-89052400D01*
X125349000Y-89052400D02*
X125349000Y-89103200D01*
X132994500Y-89281000D02*
X135737600Y-86537900D01*
X125526800Y-89281000D02*
X132994500Y-89281000D01*
X134543800Y-79502000D02*
X134931200Y-79114600D01*
X118643400Y-90170000D02*
X116643700Y-90170000D01*
X119659400Y-88366600D02*
X119659400Y-89154000D01*
X119659400Y-89154000D02*
X118643400Y-90170000D01*
X119659400Y-82651600D02*
X119659400Y-88366600D01*
X119659400Y-78943200D02*
X119659400Y-82651600D01*
X123037600Y-71501000D02*
X123037600Y-75565000D01*
X123037600Y-75565000D02*
X119659400Y-78943200D01*
X119734500Y-70268400D02*
X121805000Y-70268400D01*
X121805000Y-70268400D02*
X123037600Y-71501000D01*
X116643700Y-85514900D02*
X117218700Y-84939900D01*
X116643700Y-88900000D02*
X116643700Y-85514900D01*
X117218700Y-79961500D02*
X122097800Y-75082400D01*
X121323100Y-70764400D02*
X119785304Y-70764400D01*
X117218700Y-84939900D02*
X117218700Y-79961500D01*
X119785304Y-70764400D02*
X119785302Y-70764402D01*
X122097800Y-75082400D02*
X122097800Y-71539100D01*
X122097800Y-71539100D02*
X121323100Y-70764400D01*
D57*
X150215600Y-92125800D02*
X149834600Y-91744800D01*
X150215600Y-95580200D02*
X150215600Y-92125800D01*
X148005800Y-97256600D02*
X148539200Y-97256600D01*
X148539200Y-97256600D02*
X150215600Y-95580200D01*
D53*
X157835700Y-92869100D02*
X158292800Y-93326200D01*
X157835700Y-90957400D02*
X157835700Y-92869100D01*
X159232600Y-90728800D02*
X159004000Y-90957400D01*
D57*
X157244800Y-93326200D02*
X154012900Y-96558100D01*
X158292800Y-93326200D02*
X157244800Y-93326200D01*
D53*
X133343600Y-74707800D02*
X133343600Y-75114600D01*
X110383900Y-66560400D02*
X110383900Y-62640900D01*
X134721600Y-69888100D02*
X134721600Y-73329800D01*
X134721600Y-73329800D02*
X133343600Y-74707800D01*
X110383900Y-62640900D02*
X112280700Y-60744100D01*
X112280700Y-60744100D02*
X125577600Y-60744100D01*
X125577600Y-60744100D02*
X134721600Y-69888100D01*
D54*
X119739447Y-71763453D02*
X119734500Y-71768400D01*
X121323800Y-71768400D02*
X121335800Y-71780400D01*
X119734500Y-71768400D02*
X121323800Y-71768400D01*
X128860800Y-76714600D02*
X129343600Y-76714600D01*
X127457200Y-73456800D02*
X127457200Y-75311000D01*
X124993400Y-71780400D02*
X125780800Y-71780400D01*
X127457200Y-75311000D02*
X128860800Y-76714600D01*
X125780800Y-71780400D02*
X127457200Y-73456800D01*
X120925400Y-71268400D02*
X120929400Y-71272400D01*
X119734500Y-71268400D02*
X120925400Y-71268400D01*
X129000600Y-75914600D02*
X129343600Y-75914600D01*
X128041400Y-74955400D02*
X129000600Y-75914600D01*
X125450600Y-71272400D02*
X127101600Y-71272400D01*
X128041400Y-72212200D02*
X128041400Y-74955400D01*
X127101600Y-71272400D02*
X128041400Y-72212200D01*
D56*
X165056600Y-85166200D02*
X161086800Y-85166200D01*
X165785000Y-85047400D02*
X165666200Y-85166200D01*
D54*
X137363200Y-75095000D02*
X137363200Y-74269600D01*
X138531600Y-73101200D02*
X144830800Y-73101200D01*
X136543600Y-75914600D02*
X137363200Y-75095000D01*
X137363200Y-74269600D02*
X138531600Y-73101200D01*
X145707100Y-73977500D02*
X147878800Y-73977500D01*
X144830800Y-73101200D02*
X145707100Y-73977500D01*
X151777800Y-64605000D02*
X151765000Y-64592200D01*
X151777800Y-65286000D02*
X151777800Y-64605000D01*
X138743600Y-74626700D02*
X138745100Y-74625200D01*
X138743600Y-76262000D02*
X138743600Y-74626700D01*
D60*
X137293200Y-77514600D02*
X136543600Y-77514600D01*
X138743600Y-76262000D02*
X138063200Y-76262000D01*
X137769600Y-77038200D02*
X137293200Y-77514600D01*
X137769600Y-76555600D02*
X137769600Y-77038200D01*
X138063200Y-76262000D02*
X137769600Y-76555600D01*
D58*
X139854800Y-77673200D02*
X139843600Y-77662000D01*
D54*
X141501000Y-77673200D02*
X139854800Y-77673200D01*
X141503400Y-77675600D02*
X141501000Y-77673200D01*
D60*
X139843600Y-78520200D02*
X139843600Y-77662000D01*
X139598400Y-78765400D02*
X139843600Y-78520200D01*
X138036300Y-78765400D02*
X139598400Y-78765400D01*
X136543600Y-78314600D02*
X137585500Y-78314600D01*
X137585500Y-78314600D02*
X138036300Y-78765400D01*
D53*
X108026500Y-72116400D02*
X107998500Y-72144400D01*
X108030700Y-68364400D02*
X108026500Y-68368600D01*
D54*
X108026500Y-68368600D02*
X108026500Y-72116400D01*
D53*
X140768400Y-87455800D02*
X139945600Y-87455800D01*
X140868400Y-87355800D02*
X140768400Y-87455800D01*
X139945600Y-87455800D02*
X139255500Y-86765700D01*
X138167400Y-80089600D02*
X136718600Y-80089600D01*
X136718600Y-80089600D02*
X136543600Y-79914600D01*
X139255500Y-86765700D02*
X139255500Y-81177700D01*
X139255500Y-81177700D02*
X138167400Y-80089600D01*
X139865100Y-89110700D02*
X139768700Y-89014300D01*
X141144200Y-91487200D02*
X139865100Y-90208100D01*
X156790600Y-85868300D02*
X153365200Y-89293700D01*
X156790600Y-80242900D02*
X156790600Y-85868300D01*
X139865100Y-90208100D02*
X139865100Y-89110700D01*
X157311100Y-79722400D02*
X156790600Y-80242900D01*
X148048200Y-91487200D02*
X143380250Y-91487200D01*
X158389800Y-79722400D02*
X157311100Y-79722400D01*
X153365200Y-89293700D02*
X150241700Y-89293700D01*
X158789800Y-80122400D02*
X158389800Y-79722400D01*
X150241700Y-89293700D02*
X148048200Y-91487200D01*
X143380250Y-91487200D02*
X142719425Y-92148025D01*
X142719425Y-92148025D02*
X142058600Y-91487200D01*
X142058600Y-91487200D02*
X141144200Y-91487200D01*
X140768400Y-87905800D02*
X139759200Y-87905800D01*
X140868400Y-88005800D02*
X140768400Y-87905800D01*
X139759200Y-87905800D02*
X138798300Y-86944900D01*
X136718600Y-80539600D02*
X136543600Y-80714600D01*
X137981000Y-80539600D02*
X136718600Y-80539600D01*
X138798300Y-86944900D02*
X138798300Y-81356900D01*
X138798300Y-81356900D02*
X137981000Y-80539600D01*
X140322300Y-89110700D02*
X140418700Y-89014300D01*
X141338300Y-91033600D02*
X140322300Y-90017600D01*
X158789800Y-78872400D02*
X158389800Y-79272400D01*
X157124700Y-79272400D02*
X156340600Y-80056500D01*
X150062500Y-88836500D02*
X147861800Y-91037200D01*
X156340600Y-85670600D02*
X153174700Y-88836500D01*
X142036800Y-91033600D02*
X141338300Y-91033600D01*
X158389800Y-79272400D02*
X157124700Y-79272400D01*
X153174700Y-88836500D02*
X150062500Y-88836500D01*
X147861800Y-91037200D02*
X143424700Y-91037200D01*
X140322300Y-90017600D02*
X140322300Y-89110700D01*
X143424700Y-91037200D02*
X142728950Y-90341450D01*
X156340600Y-80056500D02*
X156340600Y-85670600D01*
X142728950Y-90341450D02*
X142036800Y-91033600D01*
X154649500Y-83960000D02*
X154749500Y-84060000D01*
X153594300Y-84060000D02*
X153694300Y-83960000D01*
X153694300Y-83960000D02*
X154649500Y-83960000D01*
X161099800Y-61705400D02*
X160324800Y-60930400D01*
X165884200Y-61705400D02*
X161099800Y-61705400D01*
X169173100Y-67686700D02*
X169173100Y-64994300D01*
X160362900Y-82100300D02*
X160462900Y-82000300D01*
X160462900Y-82000300D02*
X162157900Y-82000300D01*
X162157900Y-82000300D02*
X169938700Y-74219500D01*
X169173100Y-64994300D02*
X165884200Y-61705400D01*
X169938700Y-74219500D02*
X169938700Y-68452300D01*
X169938700Y-68452300D02*
X169173100Y-67686700D01*
X154649500Y-83510000D02*
X154749500Y-83410000D01*
X153594300Y-83410000D02*
X153694300Y-83510000D01*
X153694300Y-83510000D02*
X154649500Y-83510000D01*
X165697800Y-62155400D02*
X161099800Y-62155400D01*
X168723100Y-67873100D02*
X168723100Y-65180700D01*
X169481500Y-74040300D02*
X169481500Y-68631500D01*
X166517304Y-77004500D02*
X166840336Y-76681464D01*
X166433807Y-77056965D02*
X166478510Y-77035437D01*
X166385432Y-77068007D02*
X166433807Y-77056965D01*
X166203944Y-77004501D02*
X166242738Y-77035436D01*
X165744323Y-77150760D02*
X165890585Y-77004499D01*
X165691858Y-77234257D02*
X165713388Y-77189552D01*
X165680818Y-77282630D02*
X165691858Y-77234257D01*
X165680817Y-77332248D02*
X165680818Y-77282630D01*
X161099800Y-62155400D02*
X160324800Y-62930400D01*
X165713387Y-77425326D02*
X165691859Y-77380621D01*
X165775261Y-77502911D02*
X165713387Y-77425326D01*
X165796788Y-77693981D02*
X165807830Y-77645606D01*
X165598067Y-77923737D02*
X165744324Y-77777476D01*
X166840336Y-76681464D02*
X169481500Y-74040300D01*
X165559273Y-77954674D02*
X165598067Y-77923737D01*
X165416579Y-77987243D02*
X165466195Y-77987244D01*
X166120446Y-76952035D02*
X166165151Y-76973563D01*
X165368204Y-77976203D02*
X165416579Y-77987243D01*
X165323501Y-77954673D02*
X165368204Y-77976203D01*
X165713388Y-77189552D02*
X165744323Y-77150760D01*
X165284707Y-77923738D02*
X165323501Y-77954673D01*
X166287441Y-77056966D02*
X166335816Y-77068006D01*
X165103218Y-77860231D02*
X165152836Y-77860230D01*
X168723100Y-65180700D02*
X165697800Y-62155400D01*
X165054845Y-77871271D02*
X165103218Y-77860231D01*
X165010140Y-77892801D02*
X165054845Y-77871271D01*
X165691859Y-77380621D02*
X165680817Y-77332248D01*
X164233599Y-78779467D02*
X164281972Y-78790509D01*
X165974082Y-76952034D02*
X166022455Y-76940994D01*
X164856023Y-78657922D02*
X164877551Y-78613218D01*
X164183981Y-78779468D02*
X164233599Y-78779467D01*
X165466195Y-77987244D02*
X165514570Y-77976202D01*
X164135608Y-78790508D02*
X164183981Y-78779468D01*
X165245914Y-77892800D02*
X165284707Y-77923738D01*
X164090903Y-78812038D02*
X164135608Y-78790508D01*
X163905849Y-78989234D02*
X164052111Y-78842973D01*
X163874914Y-79028026D02*
X163905849Y-78989234D01*
X165152836Y-77860230D02*
X165201209Y-77871272D01*
X163842344Y-79121104D02*
X163853384Y-79072731D01*
X166478510Y-77035437D02*
X166517304Y-77004500D01*
X163853384Y-79072731D02*
X163874914Y-79028026D01*
X164595333Y-78895439D02*
X164640036Y-78873911D01*
X163842343Y-79170722D02*
X163842344Y-79121104D01*
X165929377Y-76973564D02*
X165974082Y-76952034D01*
X165807830Y-77645606D02*
X165807830Y-77595988D01*
X164052111Y-78842973D02*
X164090903Y-78812038D01*
X163936786Y-79577159D02*
X163958314Y-79532455D01*
X166335816Y-77068006D02*
X166385432Y-77068007D01*
X165744324Y-77777476D02*
X165775260Y-77738685D01*
X163853385Y-79219095D02*
X163842343Y-79170722D01*
X161971500Y-81550300D02*
X163905850Y-79615950D01*
X166165151Y-76973563D02*
X166203944Y-77004501D01*
X163905850Y-79615950D02*
X163936786Y-79577159D01*
X163936787Y-79341385D02*
X163874913Y-79263800D01*
X160362900Y-81450300D02*
X160462900Y-81550300D01*
X160462900Y-81550300D02*
X161971500Y-81550300D01*
X165796789Y-77547615D02*
X165775261Y-77502911D01*
X163874913Y-79263800D02*
X163853385Y-79219095D01*
X166022455Y-76940994D02*
X166072073Y-76940993D01*
X164825087Y-78696713D02*
X164856023Y-78657922D01*
X164281972Y-78790509D02*
X164326677Y-78812037D01*
X163958314Y-79532455D02*
X163969356Y-79484080D01*
X166242738Y-77035436D02*
X166287441Y-77056966D01*
X163969356Y-79484080D02*
X163969356Y-79434462D01*
X163969356Y-79434462D02*
X163958315Y-79386089D01*
X163958315Y-79386089D02*
X163936787Y-79341385D01*
X164326677Y-78812037D02*
X164365470Y-78842975D01*
X164365470Y-78842975D02*
X164404264Y-78873910D01*
X164404264Y-78873910D02*
X164448967Y-78895440D01*
X164448967Y-78895440D02*
X164497342Y-78906480D01*
X165775260Y-77738685D02*
X165796788Y-77693981D01*
X164497342Y-78906480D02*
X164546958Y-78906481D01*
X164546958Y-78906481D02*
X164595333Y-78895439D01*
X164640036Y-78873911D02*
X164678830Y-78842974D01*
X165807830Y-77595988D02*
X165796789Y-77547615D01*
X164678830Y-78842974D02*
X164825087Y-78696713D01*
X164877551Y-78613218D02*
X164888593Y-78564843D01*
X165201209Y-77871272D02*
X165245914Y-77892800D01*
X164888593Y-78564843D02*
X164888593Y-78515225D01*
X164888593Y-78515225D02*
X164877552Y-78466852D01*
X165514570Y-77976202D02*
X165559273Y-77954674D01*
X164877552Y-78466852D02*
X164856024Y-78422148D01*
X164856024Y-78422148D02*
X164794150Y-78344563D01*
X169481500Y-68631500D02*
X168723100Y-67873100D01*
X165890585Y-77004499D02*
X165929377Y-76973564D01*
X164761580Y-78251485D02*
X164761581Y-78201867D01*
X166072073Y-76940993D02*
X166120446Y-76952035D01*
X164794150Y-78344563D02*
X164772622Y-78299858D01*
X164772622Y-78299858D02*
X164761580Y-78251485D01*
X164761581Y-78201867D02*
X164772621Y-78153494D01*
X164772621Y-78153494D02*
X164794151Y-78108789D01*
X164794151Y-78108789D02*
X164825086Y-78069997D01*
X164825086Y-78069997D02*
X164971348Y-77923736D01*
X164971348Y-77923736D02*
X165010140Y-77892801D01*
X133731000Y-73228200D02*
X132543600Y-74415600D01*
X132543600Y-74415600D02*
X132543600Y-75114600D01*
X133731000Y-70104000D02*
X133731000Y-73228200D01*
X125374400Y-61747400D02*
X133731000Y-70104000D01*
X120116600Y-61747400D02*
X125374400Y-61747400D01*
X119213100Y-63673200D02*
X119213100Y-62650900D01*
X119213100Y-62650900D02*
X120116600Y-61747400D01*
D54*
X114834500Y-72768400D02*
X114834500Y-73481100D01*
X114834500Y-73481100D02*
X114300000Y-74015600D01*
X128606600Y-78314600D02*
X129343600Y-78314600D01*
X128143000Y-77851000D02*
X128606600Y-78314600D01*
X127584200Y-76454000D02*
X128143000Y-77012800D01*
X128143000Y-77012800D02*
X128143000Y-77851000D01*
D53*
X112420400Y-64693800D02*
X112439315Y-64712715D01*
X112439315Y-68865402D02*
X113342313Y-69768400D01*
X112439315Y-64712715D02*
X112439315Y-68865402D01*
X113342313Y-69768400D02*
X114834500Y-69768400D01*
X131743600Y-71393200D02*
X131743600Y-74250400D01*
X131743600Y-74250400D02*
X131743600Y-75114600D01*
X130962400Y-69824600D02*
X130962400Y-70612000D01*
X130962400Y-70612000D02*
X131743600Y-71393200D01*
D54*
X114274600Y-65100200D02*
X113753900Y-64579500D01*
X114274600Y-67945000D02*
X114274600Y-65100200D01*
X113753900Y-64579500D02*
X113753900Y-61798200D01*
X114834500Y-69268400D02*
X114834500Y-68504900D01*
X114834500Y-68504900D02*
X114274600Y-67945000D01*
X129895600Y-71132700D02*
X130943600Y-72180700D01*
X129895600Y-68605400D02*
X129895600Y-71132700D01*
X130943600Y-72180700D02*
X130943600Y-75114600D01*
X128752600Y-71272400D02*
X129343600Y-71863400D01*
X128752600Y-69824600D02*
X128752600Y-71272400D01*
X129343600Y-71863400D02*
X129343600Y-75114600D01*
X115534500Y-67858700D02*
X115036600Y-67360800D01*
X115036600Y-67360800D02*
X115036600Y-62509400D01*
X115534500Y-68568400D02*
X115534500Y-67858700D01*
X109298500Y-73670400D02*
X109298500Y-72144400D01*
X105791000Y-74523600D02*
X108445300Y-74523600D01*
X105354454Y-74960143D02*
X105791000Y-74523600D01*
X105312569Y-75012665D02*
X105354454Y-74960143D01*
X105283421Y-75073191D02*
X105312569Y-75012665D01*
X105268472Y-75138685D02*
X105283421Y-75073191D01*
X105268472Y-75205864D02*
X105268472Y-75138685D01*
X105283421Y-75271358D02*
X105268472Y-75205864D01*
X105312569Y-75331884D02*
X105283421Y-75271358D01*
X105637297Y-75667250D02*
X105354454Y-75384407D01*
X105723278Y-75845793D02*
X105708329Y-75780299D01*
X105679182Y-76038992D02*
X105708329Y-75978466D01*
X104874751Y-76694320D02*
X104859802Y-76628826D01*
X105723278Y-75912972D02*
X105723278Y-75845793D01*
X104216104Y-75136600D02*
X104276629Y-75165748D01*
X104859802Y-76826993D02*
X104874751Y-76761499D01*
X104830655Y-76887519D02*
X104859802Y-76826993D01*
X105637297Y-76091515D02*
X105679182Y-76038992D01*
X104610228Y-77026024D02*
X104675722Y-77011075D01*
X104543049Y-77026024D02*
X104610228Y-77026024D01*
X104859802Y-76628826D02*
X104830655Y-76568300D01*
X104477555Y-77011075D02*
X104543049Y-77026024D01*
X105679182Y-75719773D02*
X105637297Y-75667250D01*
X104417029Y-76981927D02*
X104477555Y-77011075D01*
X103770448Y-76586167D02*
X103835942Y-76571218D01*
X105265556Y-76133400D02*
X105326082Y-76162548D01*
X104874751Y-76761499D02*
X104874751Y-76694320D01*
X103657400Y-76657200D02*
X103709922Y-76615314D01*
X102895400Y-77419200D02*
X103657400Y-76657200D01*
X104017936Y-75136601D02*
X104083431Y-75121651D01*
X104736248Y-76981927D02*
X104788770Y-76940042D01*
X104083431Y-75121651D02*
X104150609Y-75121652D01*
X103835942Y-76571218D02*
X103903121Y-76571218D01*
X103709922Y-76615314D02*
X103770448Y-76586167D01*
X103903121Y-76571218D02*
X103968615Y-76586167D01*
X104150609Y-75121652D02*
X104216104Y-75136600D01*
X105708329Y-75978466D02*
X105723278Y-75912972D01*
X104364506Y-76940042D02*
X104417029Y-76981927D01*
X104788770Y-76940042D02*
X104830655Y-76887519D01*
X103968615Y-76586167D02*
X104029141Y-76615314D01*
X104675722Y-77011075D02*
X104736248Y-76981927D01*
X104029141Y-76615314D02*
X104081664Y-76657200D01*
X95808800Y-77419200D02*
X102895400Y-77419200D01*
X104081664Y-76657200D02*
X104364506Y-76940042D01*
X104830655Y-76568300D02*
X104788770Y-76515777D01*
X104788770Y-76515777D02*
X103904888Y-75631896D01*
X105326082Y-76162548D02*
X105391576Y-76177497D01*
X103904888Y-75631896D02*
X103863003Y-75579373D01*
X105354454Y-75384407D02*
X105312569Y-75331884D01*
X103863003Y-75579373D02*
X103833855Y-75518847D01*
X103833854Y-75320681D02*
X103863002Y-75260155D01*
X103833855Y-75518847D02*
X103818905Y-75453354D01*
X103818905Y-75453354D02*
X103818906Y-75386174D01*
X103818906Y-75386174D02*
X103833854Y-75320681D01*
X105391576Y-76177497D02*
X105458755Y-76177497D01*
X103863002Y-75260155D02*
X103904888Y-75207632D01*
X103904888Y-75207632D02*
X103957411Y-75165747D01*
X105458755Y-76177497D02*
X105524249Y-76162548D01*
X103957411Y-75165747D02*
X104017936Y-75136601D01*
X108445300Y-74523600D02*
X109298500Y-73670400D01*
X104276629Y-75165748D02*
X104329152Y-75207633D01*
X105708329Y-75780299D02*
X105679182Y-75719773D01*
X104329152Y-75207633D02*
X105213033Y-76091515D01*
X105213033Y-76091515D02*
X105265556Y-76133400D01*
X105524249Y-76162548D02*
X105584775Y-76133400D01*
X105584775Y-76133400D02*
X105637297Y-76091515D01*
X112832117Y-70777175D02*
X112910000Y-70768400D01*
X112691778Y-70844758D02*
X112758140Y-70803060D01*
X112636358Y-70900178D02*
X112691778Y-70844758D01*
X112594660Y-70966540D02*
X112636358Y-70900178D01*
X112568775Y-71040517D02*
X112594660Y-70966540D01*
X112560000Y-71118400D02*
X112568775Y-71040517D01*
X112560000Y-71218400D02*
X112560000Y-71118400D01*
X112525339Y-71370259D02*
X112551224Y-71296282D01*
X111851224Y-71040517D02*
X111860000Y-71118400D01*
X111661859Y-70803060D02*
X111728221Y-70844758D01*
X111728221Y-70844758D02*
X111783641Y-70900178D01*
X111825339Y-70966540D02*
X111851224Y-71040517D01*
X111860000Y-71118400D02*
X111860000Y-71218400D01*
X111936358Y-71436621D02*
X111991778Y-71492041D01*
X112551224Y-71296282D02*
X112560000Y-71218400D01*
X111587882Y-70777175D02*
X111661859Y-70803060D01*
X112428221Y-71492041D02*
X112483641Y-71436621D01*
X111510000Y-70768400D02*
X111587882Y-70777175D01*
X111783641Y-70900178D02*
X111825339Y-70966540D01*
X111860000Y-71218400D02*
X111868775Y-71296282D01*
X111868775Y-71296282D02*
X111894660Y-71370259D01*
X112758140Y-70803060D02*
X112832117Y-70777175D01*
X111894660Y-71370259D02*
X111936358Y-71436621D01*
X112361859Y-71533739D02*
X112428221Y-71492041D01*
X111991778Y-71492041D02*
X112058140Y-71533739D01*
X112058140Y-71533739D02*
X112132117Y-71559624D01*
X112132117Y-71559624D02*
X112210000Y-71568400D01*
X112210000Y-71568400D02*
X112287882Y-71559624D01*
X112287882Y-71559624D02*
X112361859Y-71533739D01*
X112483641Y-71436621D02*
X112525339Y-71370259D01*
X112910000Y-70768400D02*
X114834500Y-70768400D01*
X109687000Y-70768400D02*
X111510000Y-70768400D01*
X109298500Y-72144400D02*
X109298500Y-71156900D01*
X109298500Y-71156900D02*
X109687000Y-70768400D01*
X109271500Y-70268400D02*
X114834500Y-70268400D01*
X108648500Y-70891400D02*
X109271500Y-70268400D01*
X108648500Y-72144400D02*
X108648500Y-70891400D01*
X108242100Y-73837800D02*
X108648500Y-73431400D01*
X105511600Y-73837800D02*
X108242100Y-73837800D01*
X108648500Y-73431400D02*
X108648500Y-72144400D01*
X95808800Y-61239400D02*
X95808800Y-64135000D01*
X95808800Y-64135000D02*
X105511600Y-73837800D01*
X105346500Y-61239400D02*
X95808800Y-61239400D01*
X135686800Y-74257800D02*
X135686800Y-69519800D01*
X136543600Y-75114600D02*
X135686800Y-74257800D01*
X135686800Y-69519800D02*
X125882400Y-59715400D01*
X125882400Y-59715400D02*
X106870500Y-59715400D01*
X106870500Y-59715400D02*
X105346500Y-61239400D01*
X148793200Y-99568000D02*
X149910800Y-98450400D01*
X147193100Y-99568000D02*
X148793200Y-99568000D01*
X164033200Y-89763600D02*
X164033200Y-87477600D01*
X164084000Y-89814400D02*
X164033200Y-89763600D01*
D53*
X162229800Y-99745800D02*
X151206200Y-99745800D01*
X151206200Y-99745800D02*
X149910800Y-98450400D01*
X164185600Y-89814400D02*
X164185600Y-97790000D01*
X164185600Y-97790000D02*
X162229800Y-99745800D01*
D54*
X158851600Y-69088000D02*
X158851600Y-69088000D01*
X156796500Y-71442200D02*
X156629000Y-71442200D01*
X156946600Y-72161400D02*
X156946600Y-71592300D01*
X156946600Y-71592300D02*
X156796500Y-71442200D01*
X160731200Y-69088000D02*
X158851600Y-69088000D01*
X161569400Y-69926200D02*
X160731200Y-69088000D01*
X161569400Y-73787000D02*
X161569400Y-69926200D01*
X162280600Y-79375000D02*
X162280600Y-74498200D01*
X162280600Y-74498200D02*
X161569400Y-73787000D01*
D61*
X160324800Y-65430400D02*
X158648400Y-65430400D01*
X158648400Y-65430400D02*
X158064200Y-66014600D01*
X158064200Y-66014600D02*
X156768800Y-66014600D01*
D54*
X130943600Y-82314600D02*
X130943600Y-83280000D01*
X130943600Y-83280000D02*
X128803400Y-85420200D01*
X120469600Y-69268400D02*
X119734500Y-69268400D01*
X121132600Y-68605400D02*
X120469600Y-69268400D01*
X123012200Y-68605400D02*
X121132600Y-68605400D01*
X124002800Y-75996800D02*
X124002800Y-69596000D01*
X124002800Y-69596000D02*
X123012200Y-68605400D01*
X123342400Y-85420200D02*
X122174000Y-84251800D01*
X122174000Y-84251800D02*
X122174000Y-77825600D01*
X122174000Y-77825600D02*
X124002800Y-75996800D01*
X125349000Y-85598000D02*
X125526800Y-85420200D01*
X125349000Y-86563100D02*
X125349000Y-85623400D01*
X125349000Y-85623400D02*
X125349000Y-85598000D01*
X125349000Y-85623400D02*
X125349000Y-85420200D01*
X125526800Y-85420200D02*
X125349000Y-85420200D01*
X128803400Y-85420200D02*
X125526800Y-85420200D01*
X125349000Y-85598000D02*
X125171200Y-85420200D01*
X125349000Y-85420200D02*
X125171200Y-85420200D01*
X125171200Y-85420200D02*
X123342400Y-85420200D01*
D53*
X134150100Y-79908400D02*
X134150500Y-79908000D01*
D58*
X133743400Y-80314800D02*
X133731000Y-80314800D01*
X134143600Y-79914600D02*
X133743400Y-80314800D01*
X131343600Y-77914600D02*
X131731200Y-77527000D01*
X131743600Y-78314600D02*
X131343600Y-77914600D01*
X129743200Y-81114200D02*
X129743200Y-81102200D01*
X130143600Y-81514600D02*
X129743200Y-81114200D01*
D55*
X153568400Y-56235600D02*
X153568400Y-55930800D01*
X152560500Y-57429400D02*
X152560500Y-57243500D01*
X152560500Y-57243500D02*
X153568400Y-56235600D01*
X116034500Y-68568400D02*
X116534500Y-68568400D01*
X114834500Y-72268400D02*
X113621500Y-72268400D01*
D53*
X113621500Y-72268400D02*
X113601500Y-72288400D01*
D55*
X116034500Y-73468400D02*
X116034500Y-74681400D01*
D53*
X116034500Y-74681400D02*
X116014500Y-74701400D01*
D55*
X119034500Y-73468400D02*
X119034500Y-74673400D01*
D53*
X119034500Y-74673400D02*
X119062500Y-74701400D01*
D55*
X116034500Y-73468400D02*
X116534500Y-73468400D01*
D57*
X110628200Y-78003400D02*
X111836200Y-78003400D01*
X111806500Y-78020400D02*
X111823500Y-78003400D01*
D59*
X120561100Y-65087500D02*
X119297300Y-65087500D01*
D56*
X138531600Y-92883800D02*
X138531600Y-94843600D01*
D57*
X113029900Y-78003400D02*
X113030000Y-78003300D01*
X111823500Y-78003400D02*
X113029900Y-78003400D01*
D55*
X138430000Y-57386700D02*
X138387300Y-57429400D01*
X138430000Y-55651400D02*
X138430000Y-57386700D01*
D58*
X132156200Y-77927200D02*
X132543600Y-78314600D01*
D54*
X119734500Y-72268400D02*
X120604600Y-72268400D01*
X120604600Y-72268400D02*
X120827800Y-72491600D01*
D58*
X130143600Y-82733800D02*
X129870200Y-83007200D01*
X130143600Y-82314600D02*
X130143600Y-82733800D01*
D55*
X116034500Y-68568400D02*
X116034500Y-67010472D01*
D53*
X118534500Y-68568400D02*
X118541800Y-68561100D01*
D57*
X120840500Y-65074800D02*
X120853200Y-65062100D01*
D55*
X121259600Y-69469000D02*
X122326400Y-69469000D01*
X119734500Y-69768400D02*
X120960200Y-69768400D01*
X120960200Y-69768400D02*
X121259600Y-69469000D01*
X118534500Y-67114100D02*
X118541800Y-67106800D01*
X118534500Y-68553800D02*
X118534500Y-67114100D01*
D57*
X120992900Y-65074800D02*
X120980200Y-65087500D01*
X122174000Y-65074800D02*
X120992900Y-65074800D01*
D58*
X132956000Y-76327000D02*
X132943600Y-76327000D01*
X133343600Y-76714600D02*
X132956000Y-76327000D01*
D59*
X110383900Y-68618400D02*
X111543800Y-68618400D01*
D58*
X136943900Y-76314300D02*
X136944100Y-76314300D01*
X136543600Y-76714600D02*
X136943900Y-76314300D01*
D55*
X146794300Y-80160000D02*
X145920600Y-80160000D01*
X145920600Y-80160000D02*
X145796000Y-80035400D01*
X153594300Y-80810000D02*
X154622400Y-80810000D01*
X154622400Y-80810000D02*
X154622400Y-80810000D01*
D53*
X137299700Y-87261700D02*
X136550400Y-88011000D01*
X137299700Y-86537900D02*
X137299700Y-87261700D01*
D55*
X143548100Y-93179900D02*
X143560800Y-93192600D01*
X143677600Y-92443000D02*
X143548100Y-92572500D01*
X143548100Y-92572500D02*
X143548100Y-93179900D01*
X143573500Y-93154500D02*
X143700500Y-93027500D01*
X143700500Y-92465900D02*
X143677600Y-92443000D01*
X143700500Y-93027500D02*
X143700500Y-92465900D01*
X150519300Y-78385000D02*
X150519300Y-77509200D01*
X150520400Y-86042500D02*
X150519300Y-85185000D01*
X150520400Y-87122000D02*
X150520400Y-86042500D01*
X151091900Y-87693500D02*
X150520400Y-87122000D01*
D58*
X109948500Y-79011300D02*
X109948500Y-78020400D01*
X109956600Y-80162300D02*
X109956600Y-79019400D01*
X109956600Y-79019400D02*
X109948500Y-79011300D01*
D53*
X147993100Y-60833000D02*
X147993100Y-59144600D01*
D54*
X133815900Y-56567318D02*
X133815900Y-57115200D01*
D53*
X133819900Y-59119200D02*
X133815900Y-59115200D01*
X133819900Y-60807600D02*
X133819900Y-59119200D01*
D54*
X144602200Y-58902600D02*
X144119600Y-59385200D01*
X147989100Y-56599900D02*
X147726400Y-56337200D01*
X147989100Y-57115200D02*
X147989100Y-56599900D01*
X144602200Y-56845200D02*
X144602200Y-58902600D01*
X145110200Y-56337200D02*
X144602200Y-56845200D01*
X147726400Y-56337200D02*
X145110200Y-56337200D01*
X133811650Y-56557550D02*
X133811650Y-56567318D01*
X133591300Y-56337200D02*
X133811650Y-56557550D01*
X130505200Y-59664600D02*
X130505200Y-56692800D01*
X131419600Y-60579000D02*
X130505200Y-59664600D01*
X133819900Y-60579000D02*
X131419600Y-60579000D01*
X130505200Y-56692800D02*
X130860800Y-56337200D01*
X130860800Y-56337200D02*
X133591300Y-56337200D01*
D58*
X134543800Y-75514800D02*
X134543800Y-75514200D01*
X134937000Y-75908000D02*
X134543800Y-75514800D01*
X132543600Y-76714600D02*
X132156000Y-76327000D01*
X132156000Y-76327000D02*
X132130800Y-76327000D01*
D54*
X133343600Y-80714800D02*
X133731000Y-81102200D01*
D53*
X133350100Y-79946400D02*
X133388100Y-79908400D01*
D54*
X132943600Y-80314600D02*
X133343600Y-79914600D01*
D58*
X132943600Y-80314800D02*
X132943600Y-80314600D01*
X132156200Y-81102200D02*
X132156200Y-81102000D01*
D54*
X132156200Y-81102000D02*
X132543600Y-80714600D01*
X134143600Y-83318200D02*
X134143600Y-82314600D01*
X134594600Y-84785200D02*
X134594600Y-83769200D01*
X134594600Y-83769200D02*
X134143600Y-83318200D01*
X117005100Y-68478400D02*
X117005100Y-68564400D01*
X148488400Y-98526600D02*
X143103600Y-98526600D01*
X150495000Y-97028000D02*
X149987000Y-97028000D01*
X149987000Y-97028000D02*
X148488400Y-98526600D01*
X131851400Y-84937600D02*
X131851400Y-87020400D01*
X132543600Y-82314600D02*
X132543600Y-84245400D01*
X132543600Y-84245400D02*
X131851400Y-84937600D01*
X117534500Y-68568400D02*
X117532676Y-68566576D01*
D60*
X117534500Y-65002600D02*
X117534500Y-68568400D01*
X117563900Y-64973200D02*
X117534500Y-65002600D01*
X127780700Y-81514600D02*
X129343600Y-81514600D01*
X126931100Y-80665000D02*
X127780700Y-81514600D01*
X126619000Y-80588800D02*
X126619000Y-79301200D01*
X126542800Y-80665000D02*
X126619000Y-80588800D01*
X129343600Y-82314600D02*
X127794200Y-82314600D01*
X127794200Y-82314600D02*
X126791400Y-83317400D01*
X126542800Y-84325600D02*
X126542800Y-83165000D01*
X126413400Y-84455000D02*
X126542800Y-84325600D01*
D58*
X133451600Y-92883800D02*
X133451600Y-94818200D01*
D54*
X128911600Y-80714600D02*
X128651000Y-80975200D01*
X129343600Y-80714600D02*
X128911600Y-80714600D01*
X123698000Y-84455000D02*
X123698000Y-81483200D01*
X130143400Y-79914600D02*
X129743200Y-80314800D01*
X130143600Y-79914600D02*
X130143400Y-79914600D01*
D58*
X135991600Y-96193800D02*
X135991600Y-94234000D01*
D54*
X124714000Y-81940400D02*
X124714000Y-84251800D01*
X134943600Y-77514200D02*
X134943600Y-77514600D01*
X134543800Y-77114400D02*
X134943600Y-77514200D01*
X134957000Y-75114600D02*
X135356600Y-75514200D01*
X145084800Y-76847700D02*
X153301700Y-76847700D01*
X144322800Y-77609700D02*
X145084800Y-76847700D01*
X153301700Y-76847700D02*
X154520900Y-78066900D01*
X154233500Y-79510000D02*
X153594300Y-79510000D01*
X154520900Y-79222600D02*
X154233500Y-79510000D01*
X154520900Y-78066900D02*
X154520900Y-79222600D01*
X134130600Y-75114600D02*
X133731000Y-75514200D01*
X154307400Y-80160000D02*
X153594300Y-80160000D01*
X155028900Y-79438500D02*
X154307400Y-80160000D01*
X144564100Y-76390500D02*
X153543000Y-76390500D01*
X143725900Y-78511400D02*
X143725900Y-77228700D01*
X153543000Y-76390500D02*
X155028900Y-77876400D01*
X143725900Y-77228700D02*
X144564100Y-76390500D01*
X155028900Y-77876400D02*
X155028900Y-79438500D01*
X137464800Y-82435800D02*
X136543600Y-81514600D01*
X137464800Y-83718400D02*
X137464800Y-82435800D01*
D53*
X136550100Y-82308000D02*
X136550100Y-82308400D01*
X136543600Y-84206800D02*
X136543600Y-82314600D01*
X137299700Y-84962900D02*
X136543600Y-84206800D01*
D54*
X135743600Y-84575900D02*
X135743600Y-82314600D01*
X153377800Y-64173000D02*
X153365200Y-64160400D01*
X153377800Y-65286000D02*
X153377800Y-64173000D01*
X155041600Y-72796400D02*
X155041600Y-71454800D01*
D60*
X144678400Y-82855000D02*
X144692600Y-82840800D01*
X144678400Y-84366100D02*
X144678400Y-82855000D01*
X144692600Y-82840800D02*
X145302000Y-82840800D01*
X146032800Y-82110000D02*
X146794300Y-82110000D01*
X145302000Y-82840800D02*
X146032800Y-82110000D01*
X146794300Y-81460000D02*
X146035100Y-81460000D01*
X146035100Y-81460000D02*
X145542000Y-81953100D01*
X144154900Y-81953100D02*
X143292600Y-81090800D01*
X145542000Y-81953100D02*
X144154900Y-81953100D01*
X142889900Y-81493500D02*
X142036800Y-81493500D01*
X143292600Y-81090800D02*
X142889900Y-81493500D01*
D55*
X146104400Y-83410000D02*
X145732500Y-83781900D01*
X142453400Y-85709700D02*
X142151200Y-85407500D01*
X146794300Y-83410000D02*
X146104400Y-83410000D01*
X145239800Y-85709700D02*
X142453400Y-85709700D01*
X145732500Y-83781900D02*
X145732500Y-85217000D01*
X145732500Y-85217000D02*
X145239800Y-85709700D01*
X146794300Y-80810000D02*
X145885000Y-80810000D01*
X145885000Y-80810000D02*
X145884900Y-80810100D01*
X140601700Y-81013300D02*
X140601700Y-85382000D01*
X140601700Y-85382000D02*
X140576200Y-85407500D01*
X144995900Y-79717900D02*
X141897100Y-79717900D01*
X141897100Y-79717900D02*
X140601700Y-81013300D01*
D62*
G36*
X139065000Y-56748860D02*
G01*
X139065000Y-57912000D01*
X139065244Y-57914478D01*
X139065967Y-57916860D01*
X139067140Y-57919056D01*
X139068720Y-57920980D01*
X139407900Y-58260160D01*
X139407900Y-60510240D01*
X138843840Y-61074300D01*
X138041560Y-61074300D01*
X137972800Y-61005540D01*
X137972800Y-58724800D01*
X137972556Y-58722322D01*
X137971833Y-58719940D01*
X137970660Y-58717744D01*
X137969080Y-58715820D01*
X137845800Y-58592540D01*
X137845800Y-56774260D01*
X137990760Y-56629300D01*
X138945440Y-56629300D01*
X139065000Y-56748860D01*
G37*
X139065000Y-56748860D02*
X139065000Y-57912000D01*
X139065244Y-57914478D01*
X139065967Y-57916860D01*
X139067140Y-57919056D01*
X139068720Y-57920980D01*
X139407900Y-58260160D01*
X139407900Y-60510240D01*
X138843840Y-61074300D01*
X138041560Y-61074300D01*
X137972800Y-61005540D01*
X137972800Y-58724800D01*
X137972556Y-58722322D01*
X137971833Y-58719940D01*
X137970660Y-58717744D01*
X137969080Y-58715820D01*
X137845800Y-58592540D01*
X137845800Y-56774260D01*
X137990760Y-56629300D01*
X138945440Y-56629300D01*
X139065000Y-56748860D01*
G36*
X137033000Y-56799660D02*
G01*
X137033000Y-58059140D01*
X136938840Y-58153300D01*
X135679360Y-58153300D01*
X135559800Y-58033740D01*
X135559800Y-57759600D01*
X135559556Y-57757122D01*
X135558833Y-57754740D01*
X135557660Y-57752544D01*
X135556080Y-57750620D01*
X135327480Y-57522020D01*
X135325556Y-57520440D01*
X135323360Y-57519267D01*
X135320978Y-57518544D01*
X135318500Y-57518300D01*
X134180760Y-57518300D01*
X134162800Y-57500340D01*
X134162800Y-56723460D01*
X134180760Y-56705500D01*
X136938840Y-56705500D01*
X137033000Y-56799660D01*
G37*
X137033000Y-56799660D02*
X137033000Y-58059140D01*
X136938840Y-58153300D01*
X135679360Y-58153300D01*
X135559800Y-58033740D01*
X135559800Y-57759600D01*
X135559556Y-57757122D01*
X135558833Y-57754740D01*
X135557660Y-57752544D01*
X135556080Y-57750620D01*
X135327480Y-57522020D01*
X135325556Y-57520440D01*
X135323360Y-57519267D01*
X135320978Y-57518544D01*
X135318500Y-57518300D01*
X134180760Y-57518300D01*
X134162800Y-57500340D01*
X134162800Y-56723460D01*
X134180760Y-56705500D01*
X136938840Y-56705500D01*
X137033000Y-56799660D01*
G36*
X135001000Y-57968060D02*
G01*
X135001000Y-58445400D01*
X135001244Y-58447878D01*
X135001967Y-58450260D01*
X135003140Y-58452456D01*
X135004720Y-58454380D01*
X135284120Y-58733780D01*
X135286044Y-58735360D01*
X135288240Y-58736533D01*
X135290622Y-58737256D01*
X135293100Y-58737500D01*
X136964240Y-58737500D01*
X137337800Y-59111060D01*
X137337800Y-60954740D01*
X137167440Y-61125100D01*
X135069760Y-61125100D01*
X134899400Y-60954740D01*
X134899400Y-59817000D01*
X134899156Y-59814522D01*
X134898433Y-59812140D01*
X134897260Y-59809944D01*
X134895680Y-59808020D01*
X134616280Y-59528620D01*
X134614356Y-59527040D01*
X134612160Y-59525867D01*
X134609778Y-59525144D01*
X134607300Y-59524900D01*
X134180760Y-59524900D01*
X134162800Y-59506940D01*
X134162800Y-58653860D01*
X134209880Y-58606780D01*
X134211460Y-58604856D01*
X134212633Y-58602660D01*
X134213356Y-58600278D01*
X134213600Y-58597800D01*
X134213600Y-58470800D01*
X134213356Y-58468322D01*
X134212633Y-58465940D01*
X134211460Y-58463744D01*
X134209880Y-58461820D01*
X134207956Y-58460240D01*
X134205760Y-58459067D01*
X134203378Y-58458344D01*
X134200900Y-58458100D01*
X132918200Y-58458100D01*
X132918200Y-57772300D01*
X134805240Y-57772300D01*
X135001000Y-57968060D01*
G37*
X135001000Y-57968060D02*
X135001000Y-58445400D01*
X135001244Y-58447878D01*
X135001967Y-58450260D01*
X135003140Y-58452456D01*
X135004720Y-58454380D01*
X135284120Y-58733780D01*
X135286044Y-58735360D01*
X135288240Y-58736533D01*
X135290622Y-58737256D01*
X135293100Y-58737500D01*
X136964240Y-58737500D01*
X137337800Y-59111060D01*
X137337800Y-60954740D01*
X137167440Y-61125100D01*
X135069760Y-61125100D01*
X134899400Y-60954740D01*
X134899400Y-59817000D01*
X134899156Y-59814522D01*
X134898433Y-59812140D01*
X134897260Y-59809944D01*
X134895680Y-59808020D01*
X134616280Y-59528620D01*
X134614356Y-59527040D01*
X134612160Y-59525867D01*
X134609778Y-59525144D01*
X134607300Y-59524900D01*
X134180760Y-59524900D01*
X134162800Y-59506940D01*
X134162800Y-58653860D01*
X134209880Y-58606780D01*
X134211460Y-58604856D01*
X134212633Y-58602660D01*
X134213356Y-58600278D01*
X134213600Y-58597800D01*
X134213600Y-58470800D01*
X134213356Y-58468322D01*
X134212633Y-58465940D01*
X134211460Y-58463744D01*
X134209880Y-58461820D01*
X134207956Y-58460240D01*
X134205760Y-58459067D01*
X134203378Y-58458344D01*
X134200900Y-58458100D01*
X132918200Y-58458100D01*
X132918200Y-57772300D01*
X134805240Y-57772300D01*
X135001000Y-57968060D01*
G36*
X132969000Y-57518300D02*
G01*
X132346700Y-57518300D01*
X132344222Y-57518544D01*
X132341840Y-57519267D01*
X132339644Y-57520440D01*
X132337720Y-57522020D01*
X132112840Y-57746900D01*
X130954960Y-57746900D01*
X130860800Y-57652740D01*
X130860800Y-56977460D01*
X130980360Y-56857900D01*
X131914900Y-56857900D01*
X131917378Y-56857656D01*
X131919760Y-56856933D01*
X131921956Y-56855760D01*
X131923880Y-56854180D01*
X132072560Y-56705500D01*
X132969000Y-56705500D01*
X132969000Y-57518300D01*
G37*
X132969000Y-57518300D02*
X132346700Y-57518300D01*
X132344222Y-57518544D01*
X132341840Y-57519267D01*
X132339644Y-57520440D01*
X132337720Y-57522020D01*
X132112840Y-57746900D01*
X130954960Y-57746900D01*
X130860800Y-57652740D01*
X130860800Y-56977460D01*
X130980360Y-56857900D01*
X131914900Y-56857900D01*
X131917378Y-56857656D01*
X131919760Y-56856933D01*
X131921956Y-56855760D01*
X131923880Y-56854180D01*
X132072560Y-56705500D01*
X132969000Y-56705500D01*
X132969000Y-57518300D01*
G36*
X132388520Y-58708380D02*
G01*
X132390444Y-58709960D01*
X132392640Y-58711133D01*
X132395022Y-58711856D01*
X132397500Y-58712100D01*
X132969000Y-58712100D01*
X132969000Y-59524900D01*
X132123360Y-59524900D01*
X131923880Y-59325420D01*
X131921956Y-59323840D01*
X131919760Y-59322667D01*
X131917378Y-59321944D01*
X131914900Y-59321700D01*
X130929560Y-59321700D01*
X130860800Y-59252940D01*
X130860800Y-58552260D01*
X130980360Y-58432700D01*
X132112840Y-58432700D01*
X132388520Y-58708380D01*
G37*
X132388520Y-58708380D02*
X132390444Y-58709960D01*
X132392640Y-58711133D01*
X132395022Y-58711856D01*
X132397500Y-58712100D01*
X132969000Y-58712100D01*
X132969000Y-59524900D01*
X132123360Y-59524900D01*
X131923880Y-59325420D01*
X131921956Y-59323840D01*
X131919760Y-59322667D01*
X131917378Y-59321944D01*
X131914900Y-59321700D01*
X130929560Y-59321700D01*
X130860800Y-59252940D01*
X130860800Y-58552260D01*
X130980360Y-58432700D01*
X132112840Y-58432700D01*
X132388520Y-58708380D01*
G36*
X144183100Y-55567760D02*
G01*
X144183100Y-57932140D01*
X143733340Y-58381900D01*
X140365660Y-58381900D01*
X139814300Y-57830540D01*
X139814300Y-55567760D01*
X140162460Y-55219600D01*
X143834940Y-55219600D01*
X144183100Y-55567760D01*
G37*
X144183100Y-55567760D02*
X144183100Y-57932140D01*
X143733340Y-58381900D01*
X140365660Y-58381900D01*
X139814300Y-57830540D01*
X139814300Y-55567760D01*
X140162460Y-55219600D01*
X143834940Y-55219600D01*
X144183100Y-55567760D01*
G36*
X149999700Y-70210860D02*
G01*
X149999700Y-72460940D01*
X149727740Y-72732900D01*
X145902860Y-72732900D01*
X145630900Y-72460940D01*
X145630900Y-70210860D01*
X145902860Y-69938900D01*
X149727740Y-69938900D01*
X149999700Y-70210860D01*
G37*
X149999700Y-70210860D02*
X149999700Y-72460940D01*
X149727740Y-72732900D01*
X145902860Y-72732900D01*
X145630900Y-72460940D01*
X145630900Y-70210860D01*
X145902860Y-69938900D01*
X149727740Y-69938900D01*
X149999700Y-70210860D01*
G36*
X160870900Y-70083860D02*
G01*
X160870900Y-76194740D01*
X160243340Y-76822300D01*
X157307460Y-76822300D01*
X157162500Y-76677340D01*
X157162500Y-74249460D01*
X157866260Y-73545700D01*
X158648400Y-73545700D01*
X158650878Y-73545456D01*
X158653260Y-73544733D01*
X158655456Y-73543560D01*
X158657380Y-73541980D01*
X159571780Y-72627580D01*
X159573360Y-72625656D01*
X159574533Y-72623460D01*
X159575256Y-72621078D01*
X159575500Y-72618600D01*
X159575500Y-71328460D01*
X159774980Y-71128980D01*
X159776560Y-71127056D01*
X159777733Y-71124860D01*
X159778456Y-71122478D01*
X159778700Y-71120000D01*
X159778700Y-70083860D01*
X159999860Y-69862700D01*
X160649740Y-69862700D01*
X160870900Y-70083860D01*
G37*
X160870900Y-70083860D02*
X160870900Y-76194740D01*
X160243340Y-76822300D01*
X157307460Y-76822300D01*
X157162500Y-76677340D01*
X157162500Y-74249460D01*
X157866260Y-73545700D01*
X158648400Y-73545700D01*
X158650878Y-73545456D01*
X158653260Y-73544733D01*
X158655456Y-73543560D01*
X158657380Y-73541980D01*
X159571780Y-72627580D01*
X159573360Y-72625656D01*
X159574533Y-72623460D01*
X159575256Y-72621078D01*
X159575500Y-72618600D01*
X159575500Y-71328460D01*
X159774980Y-71128980D01*
X159776560Y-71127056D01*
X159777733Y-71124860D01*
X159778456Y-71122478D01*
X159778700Y-71120000D01*
X159778700Y-70083860D01*
X159999860Y-69862700D01*
X160649740Y-69862700D01*
X160870900Y-70083860D01*
D63*
G36*
X113944400Y-93727806D02*
G01*
X113944400Y-95375194D01*
X113840994Y-95478600D01*
X110949006Y-95478600D01*
X110845600Y-95375194D01*
X110845600Y-93753206D01*
X110974406Y-93624400D01*
X113840994Y-93624400D01*
X113944400Y-93727806D01*
G37*
X113944400Y-93727806D02*
X113944400Y-95375194D01*
X113840994Y-95478600D01*
X110949006Y-95478600D01*
X110845600Y-95375194D01*
X110845600Y-93753206D01*
X110974406Y-93624400D01*
X113840994Y-93624400D01*
X113944400Y-93727806D01*
G36*
X113944400Y-89917806D02*
G01*
X113944400Y-91717594D01*
X113840994Y-91821000D01*
X110720406Y-91821000D01*
X110591600Y-91692194D01*
X110591600Y-89943206D01*
X110720406Y-89814400D01*
X113840994Y-89814400D01*
X113944400Y-89917806D01*
G37*
X113944400Y-89917806D02*
X113944400Y-91717594D01*
X113840994Y-91821000D01*
X110720406Y-91821000D01*
X110591600Y-91692194D01*
X110591600Y-89943206D01*
X110720406Y-89814400D01*
X113840994Y-89814400D01*
X113944400Y-89917806D01*
G36*
X113944400Y-87377806D02*
G01*
X113944400Y-89152194D01*
X113840994Y-89255600D01*
X110949006Y-89255600D01*
X110845600Y-89152194D01*
X110845600Y-87377806D01*
X110949006Y-87274400D01*
X113840994Y-87274400D01*
X113944400Y-87377806D01*
G37*
X113944400Y-87377806D02*
X113944400Y-89152194D01*
X113840994Y-89255600D01*
X110949006Y-89255600D01*
X110845600Y-89152194D01*
X110845600Y-87377806D01*
X110949006Y-87274400D01*
X113840994Y-87274400D01*
X113944400Y-87377806D01*
D54*
G36*
X161621800Y-90389222D02*
G01*
X161621800Y-91948000D01*
X161623721Y-91967509D01*
X161629412Y-91986268D01*
X161638653Y-92003557D01*
X161651089Y-92018711D01*
X162282200Y-92649822D01*
X162282200Y-96935778D01*
X162188378Y-97029600D01*
X160544022Y-97029600D01*
X160450200Y-96935778D01*
X160450200Y-95554800D01*
X160448279Y-95535291D01*
X160442588Y-95516532D01*
X160433347Y-95499243D01*
X160420911Y-95484089D01*
X159633511Y-94696689D01*
X159618357Y-94684253D01*
X159601068Y-94675012D01*
X159582309Y-94669321D01*
X159562800Y-94667400D01*
X156124422Y-94667400D01*
X155878200Y-94421178D01*
X155878200Y-91987545D01*
X156012023Y-91844800D01*
X156362400Y-91844800D01*
X156381909Y-91842879D01*
X156400668Y-91837188D01*
X156417957Y-91827947D01*
X156433111Y-91815511D01*
X156687111Y-91561511D01*
X156699547Y-91546357D01*
X156708788Y-91529068D01*
X156714479Y-91510309D01*
X156716400Y-91490800D01*
X156716400Y-90643222D01*
X157597622Y-89762000D01*
X160994578Y-89762000D01*
X161621800Y-90389222D01*
G37*
X161621800Y-90389222D02*
X161621800Y-91948000D01*
X161623721Y-91967509D01*
X161629412Y-91986268D01*
X161638653Y-92003557D01*
X161651089Y-92018711D01*
X162282200Y-92649822D01*
X162282200Y-96935778D01*
X162188378Y-97029600D01*
X160544022Y-97029600D01*
X160450200Y-96935778D01*
X160450200Y-95554800D01*
X160448279Y-95535291D01*
X160442588Y-95516532D01*
X160433347Y-95499243D01*
X160420911Y-95484089D01*
X159633511Y-94696689D01*
X159618357Y-94684253D01*
X159601068Y-94675012D01*
X159582309Y-94669321D01*
X159562800Y-94667400D01*
X156124422Y-94667400D01*
X155878200Y-94421178D01*
X155878200Y-91987545D01*
X156012023Y-91844800D01*
X156362400Y-91844800D01*
X156381909Y-91842879D01*
X156400668Y-91837188D01*
X156417957Y-91827947D01*
X156433111Y-91815511D01*
X156687111Y-91561511D01*
X156699547Y-91546357D01*
X156708788Y-91529068D01*
X156714479Y-91510309D01*
X156716400Y-91490800D01*
X156716400Y-90643222D01*
X157597622Y-89762000D01*
X160994578Y-89762000D01*
X161621800Y-90389222D01*
D64*
G36*
X155601200Y-64419351D02*
G01*
X155601200Y-66349490D01*
X155427290Y-66523400D01*
X154097110Y-66523400D01*
X153984755Y-66411045D01*
X153977179Y-66404827D01*
X153968534Y-66400206D01*
X153959155Y-66397361D01*
X153949400Y-66396400D01*
X153135800Y-66396400D01*
X153135800Y-66178900D01*
X153936700Y-66178900D01*
X153946455Y-66177939D01*
X153955834Y-66175094D01*
X153964479Y-66170473D01*
X153972055Y-66164255D01*
X154873755Y-65262555D01*
X154879973Y-65254979D01*
X154884594Y-65246334D01*
X154887439Y-65236955D01*
X154888400Y-65227200D01*
X154888400Y-64419351D01*
X154904790Y-64337400D01*
X155584810Y-64337400D01*
X155601200Y-64419351D01*
G37*
X155601200Y-64419351D02*
X155601200Y-66349490D01*
X155427290Y-66523400D01*
X154097110Y-66523400D01*
X153984755Y-66411045D01*
X153977179Y-66404827D01*
X153968534Y-66400206D01*
X153959155Y-66397361D01*
X153949400Y-66396400D01*
X153135800Y-66396400D01*
X153135800Y-66178900D01*
X153936700Y-66178900D01*
X153946455Y-66177939D01*
X153955834Y-66175094D01*
X153964479Y-66170473D01*
X153972055Y-66164255D01*
X154873755Y-65262555D01*
X154879973Y-65254979D01*
X154884594Y-65246334D01*
X154887439Y-65236955D01*
X154888400Y-65227200D01*
X154888400Y-64419351D01*
X154904790Y-64337400D01*
X155584810Y-64337400D01*
X155601200Y-64419351D01*
D63*
G36*
X172897800Y-102438200D02*
G01*
X89331800Y-102438200D01*
X89331800Y-54051200D01*
X91109800Y-54051200D01*
X91109800Y-100761800D01*
X91112240Y-100786576D01*
X91119467Y-100810401D01*
X91131203Y-100832357D01*
X91146997Y-100851603D01*
X91166243Y-100867397D01*
X91188199Y-100879133D01*
X91212024Y-100886360D01*
X91236800Y-100888800D01*
X171310300Y-100888800D01*
X171335076Y-100886360D01*
X171358901Y-100879133D01*
X171380857Y-100867397D01*
X171400103Y-100851603D01*
X171415897Y-100832357D01*
X171427633Y-100810401D01*
X171434860Y-100786576D01*
X171437300Y-100761800D01*
X171437300Y-54051200D01*
X171434860Y-54026424D01*
X171427633Y-54002599D01*
X171415897Y-53980643D01*
X171400103Y-53961397D01*
X171380857Y-53945603D01*
X171358901Y-53933867D01*
X171335076Y-53926640D01*
X171310300Y-53924200D01*
X91236800Y-53924200D01*
X91212024Y-53926640D01*
X91188199Y-53933867D01*
X91166243Y-53945603D01*
X91146997Y-53961397D01*
X91131203Y-53980643D01*
X91119467Y-54002599D01*
X91112240Y-54026424D01*
X91109800Y-54051200D01*
X89331800Y-54051200D01*
X89331800Y-52400200D01*
X172897800Y-52400200D01*
X172897800Y-102438200D01*
G37*
X172897800Y-102438200D02*
X89331800Y-102438200D01*
X89331800Y-54051200D01*
X91109800Y-54051200D01*
X91109800Y-100761800D01*
X91112240Y-100786576D01*
X91119467Y-100810401D01*
X91131203Y-100832357D01*
X91146997Y-100851603D01*
X91166243Y-100867397D01*
X91188199Y-100879133D01*
X91212024Y-100886360D01*
X91236800Y-100888800D01*
X171310300Y-100888800D01*
X171335076Y-100886360D01*
X171358901Y-100879133D01*
X171380857Y-100867397D01*
X171400103Y-100851603D01*
X171415897Y-100832357D01*
X171427633Y-100810401D01*
X171434860Y-100786576D01*
X171437300Y-100761800D01*
X171437300Y-54051200D01*
X171434860Y-54026424D01*
X171427633Y-54002599D01*
X171415897Y-53980643D01*
X171400103Y-53961397D01*
X171380857Y-53945603D01*
X171358901Y-53933867D01*
X171335076Y-53926640D01*
X171310300Y-53924200D01*
X91236800Y-53924200D01*
X91212024Y-53926640D01*
X91188199Y-53933867D01*
X91166243Y-53945603D01*
X91146997Y-53961397D01*
X91131203Y-53980643D01*
X91119467Y-54002599D01*
X91112240Y-54026424D01*
X91109800Y-54051200D01*
X89331800Y-54051200D01*
X89331800Y-52400200D01*
X172897800Y-52400200D01*
X172897800Y-102438200D01*
D62*
G36*
X146561720Y-58733780D02*
G01*
X146563644Y-58735360D01*
X146565840Y-58736533D01*
X146568222Y-58737256D01*
X146570700Y-58737500D01*
X147142200Y-58737500D01*
X147142200Y-59550300D01*
X145305960Y-59550300D01*
X145034000Y-59278340D01*
X145034000Y-58577660D01*
X145153560Y-58458100D01*
X146286040Y-58458100D01*
X146561720Y-58733780D01*
G37*
X146561720Y-58733780D02*
X146563644Y-58735360D01*
X146565840Y-58736533D01*
X146568222Y-58737256D01*
X146570700Y-58737500D01*
X147142200Y-58737500D01*
X147142200Y-59550300D01*
X145305960Y-59550300D01*
X145034000Y-59278340D01*
X145034000Y-58577660D01*
X145153560Y-58458100D01*
X146286040Y-58458100D01*
X146561720Y-58733780D01*
G36*
X147142200Y-57543700D02*
G01*
X146519900Y-57543700D01*
X146517422Y-57543944D01*
X146515040Y-57544667D01*
X146512844Y-57545840D01*
X146510920Y-57547420D01*
X146286040Y-57772300D01*
X145128160Y-57772300D01*
X145034000Y-57678140D01*
X145034000Y-56990160D01*
X145178960Y-56845200D01*
X146126200Y-56845200D01*
X146128678Y-56844956D01*
X146131060Y-56844233D01*
X146133256Y-56843060D01*
X146135180Y-56841480D01*
X146245760Y-56730900D01*
X147142200Y-56730900D01*
X147142200Y-57543700D01*
G37*
X147142200Y-57543700D02*
X146519900Y-57543700D01*
X146517422Y-57543944D01*
X146515040Y-57544667D01*
X146512844Y-57545840D01*
X146510920Y-57547420D01*
X146286040Y-57772300D01*
X145128160Y-57772300D01*
X145034000Y-57678140D01*
X145034000Y-56990160D01*
X145178960Y-56845200D01*
X146126200Y-56845200D01*
X146128678Y-56844956D01*
X146131060Y-56844233D01*
X146133256Y-56843060D01*
X146135180Y-56841480D01*
X146245760Y-56730900D01*
X147142200Y-56730900D01*
X147142200Y-57543700D01*
G36*
X153238200Y-56774260D02*
G01*
X153238200Y-57912000D01*
X153238444Y-57914478D01*
X153239167Y-57916860D01*
X153240340Y-57919056D01*
X153241920Y-57920980D01*
X153581100Y-58260160D01*
X153581100Y-60548255D01*
X153017122Y-61099700D01*
X152214760Y-61099700D01*
X152146000Y-61030940D01*
X152146000Y-58750200D01*
X152145756Y-58747722D01*
X152145033Y-58745340D01*
X152143860Y-58743144D01*
X152142280Y-58741220D01*
X152019000Y-58617940D01*
X152019000Y-56799660D01*
X152163960Y-56654700D01*
X153118640Y-56654700D01*
X153238200Y-56774260D01*
G37*
X153238200Y-56774260D02*
X153238200Y-57912000D01*
X153238444Y-57914478D01*
X153239167Y-57916860D01*
X153240340Y-57919056D01*
X153241920Y-57920980D01*
X153581100Y-58260160D01*
X153581100Y-60548255D01*
X153017122Y-61099700D01*
X152214760Y-61099700D01*
X152146000Y-61030940D01*
X152146000Y-58750200D01*
X152145756Y-58747722D01*
X152145033Y-58745340D01*
X152143860Y-58743144D01*
X152142280Y-58741220D01*
X152019000Y-58617940D01*
X152019000Y-56799660D01*
X152163960Y-56654700D01*
X153118640Y-56654700D01*
X153238200Y-56774260D01*
G36*
X149174200Y-57993460D02*
G01*
X149174200Y-58470800D01*
X149174444Y-58473278D01*
X149175167Y-58475660D01*
X149176340Y-58477856D01*
X149177920Y-58479780D01*
X149457320Y-58759180D01*
X149459244Y-58760760D01*
X149461440Y-58761933D01*
X149463822Y-58762656D01*
X149466300Y-58762900D01*
X151137440Y-58762900D01*
X151511000Y-59136460D01*
X151511000Y-60980140D01*
X151340640Y-61150500D01*
X149242960Y-61150500D01*
X149072600Y-60980140D01*
X149072600Y-59842400D01*
X149072356Y-59839922D01*
X149071633Y-59837540D01*
X149070460Y-59835344D01*
X149068880Y-59833420D01*
X148789480Y-59554020D01*
X148787556Y-59552440D01*
X148785360Y-59551267D01*
X148782978Y-59550544D01*
X148780500Y-59550300D01*
X148353960Y-59550300D01*
X148336000Y-59532340D01*
X148336000Y-58679260D01*
X148383080Y-58632180D01*
X148384660Y-58630256D01*
X148385833Y-58628060D01*
X148386556Y-58625678D01*
X148386800Y-58623200D01*
X148386800Y-58496200D01*
X148386556Y-58493722D01*
X148385833Y-58491340D01*
X148384660Y-58489144D01*
X148383080Y-58487220D01*
X148381156Y-58485640D01*
X148378960Y-58484467D01*
X148376578Y-58483744D01*
X148374100Y-58483500D01*
X147091400Y-58483500D01*
X147091400Y-57797700D01*
X148978440Y-57797700D01*
X149174200Y-57993460D01*
G37*
X149174200Y-57993460D02*
X149174200Y-58470800D01*
X149174444Y-58473278D01*
X149175167Y-58475660D01*
X149176340Y-58477856D01*
X149177920Y-58479780D01*
X149457320Y-58759180D01*
X149459244Y-58760760D01*
X149461440Y-58761933D01*
X149463822Y-58762656D01*
X149466300Y-58762900D01*
X151137440Y-58762900D01*
X151511000Y-59136460D01*
X151511000Y-60980140D01*
X151340640Y-61150500D01*
X149242960Y-61150500D01*
X149072600Y-60980140D01*
X149072600Y-59842400D01*
X149072356Y-59839922D01*
X149071633Y-59837540D01*
X149070460Y-59835344D01*
X149068880Y-59833420D01*
X148789480Y-59554020D01*
X148787556Y-59552440D01*
X148785360Y-59551267D01*
X148782978Y-59550544D01*
X148780500Y-59550300D01*
X148353960Y-59550300D01*
X148336000Y-59532340D01*
X148336000Y-58679260D01*
X148383080Y-58632180D01*
X148384660Y-58630256D01*
X148385833Y-58628060D01*
X148386556Y-58625678D01*
X148386800Y-58623200D01*
X148386800Y-58496200D01*
X148386556Y-58493722D01*
X148385833Y-58491340D01*
X148384660Y-58489144D01*
X148383080Y-58487220D01*
X148381156Y-58485640D01*
X148378960Y-58484467D01*
X148376578Y-58483744D01*
X148374100Y-58483500D01*
X147091400Y-58483500D01*
X147091400Y-57797700D01*
X148978440Y-57797700D01*
X149174200Y-57993460D01*
G36*
X151206200Y-56825060D02*
G01*
X151206200Y-58084540D01*
X151112040Y-58178700D01*
X149852560Y-58178700D01*
X149733000Y-58059140D01*
X149733000Y-57785000D01*
X149732756Y-57782522D01*
X149732033Y-57780140D01*
X149730860Y-57777944D01*
X149729280Y-57776020D01*
X149500680Y-57547420D01*
X149498756Y-57545840D01*
X149496560Y-57544667D01*
X149494178Y-57543944D01*
X149491700Y-57543700D01*
X148353960Y-57543700D01*
X148336000Y-57525740D01*
X148336000Y-56748860D01*
X148353960Y-56730900D01*
X151112040Y-56730900D01*
X151206200Y-56825060D01*
G37*
X151206200Y-56825060D02*
X151206200Y-58084540D01*
X151112040Y-58178700D01*
X149852560Y-58178700D01*
X149733000Y-58059140D01*
X149733000Y-57785000D01*
X149732756Y-57782522D01*
X149732033Y-57780140D01*
X149730860Y-57777944D01*
X149729280Y-57776020D01*
X149500680Y-57547420D01*
X149498756Y-57545840D01*
X149496560Y-57544667D01*
X149494178Y-57543944D01*
X149491700Y-57543700D01*
X148353960Y-57543700D01*
X148336000Y-57525740D01*
X148336000Y-56748860D01*
X148353960Y-56730900D01*
X151112040Y-56730900D01*
X151206200Y-56825060D01*
G36*
X144999620Y-59952980D02*
G01*
X145001544Y-59954560D01*
X145003740Y-59955733D01*
X145006122Y-59956456D01*
X145008600Y-59956700D01*
X148279940Y-59956700D01*
X148551900Y-60228660D01*
X148551900Y-62707340D01*
X147517940Y-63741300D01*
X134803060Y-63741300D01*
X133184900Y-62123140D01*
X133184900Y-60177860D01*
X133406060Y-59956700D01*
X134132140Y-59956700D01*
X134353300Y-60177860D01*
X134353300Y-61112400D01*
X134353544Y-61114878D01*
X134354267Y-61117260D01*
X134355440Y-61119456D01*
X134357020Y-61121380D01*
X134839620Y-61603980D01*
X134841544Y-61605560D01*
X134843740Y-61606733D01*
X134846122Y-61607456D01*
X134848600Y-61607700D01*
X138963400Y-61607700D01*
X138965878Y-61607456D01*
X138968260Y-61606733D01*
X138970456Y-61605560D01*
X138972311Y-61604049D01*
X139810511Y-60778549D01*
X139812105Y-60776636D01*
X139813296Y-60774450D01*
X139814037Y-60772073D01*
X139814300Y-60769500D01*
X139814300Y-59720660D01*
X140365660Y-59169300D01*
X144215940Y-59169300D01*
X144999620Y-59952980D01*
G37*
X144999620Y-59952980D02*
X145001544Y-59954560D01*
X145003740Y-59955733D01*
X145006122Y-59956456D01*
X145008600Y-59956700D01*
X148279940Y-59956700D01*
X148551900Y-60228660D01*
X148551900Y-62707340D01*
X147517940Y-63741300D01*
X134803060Y-63741300D01*
X133184900Y-62123140D01*
X133184900Y-60177860D01*
X133406060Y-59956700D01*
X134132140Y-59956700D01*
X134353300Y-60177860D01*
X134353300Y-61112400D01*
X134353544Y-61114878D01*
X134354267Y-61117260D01*
X134355440Y-61119456D01*
X134357020Y-61121380D01*
X134839620Y-61603980D01*
X134841544Y-61605560D01*
X134843740Y-61606733D01*
X134846122Y-61607456D01*
X134848600Y-61607700D01*
X138963400Y-61607700D01*
X138965878Y-61607456D01*
X138968260Y-61606733D01*
X138970456Y-61605560D01*
X138972311Y-61604049D01*
X139810511Y-60778549D01*
X139812105Y-60776636D01*
X139813296Y-60774450D01*
X139814037Y-60772073D01*
X139814300Y-60769500D01*
X139814300Y-59720660D01*
X140365660Y-59169300D01*
X144215940Y-59169300D01*
X144999620Y-59952980D01*
G36*
X150613020Y-65921980D02*
G01*
X150614944Y-65923560D01*
X150617140Y-65924733D01*
X150619522Y-65925456D01*
X150622000Y-65925700D01*
X151048540Y-65925700D01*
X151260720Y-66137880D01*
X151262644Y-66139460D01*
X151264840Y-66140633D01*
X151267222Y-66141356D01*
X151269700Y-66141600D01*
X152057100Y-66141600D01*
X152057100Y-66433700D01*
X151282400Y-66433700D01*
X151279922Y-66433944D01*
X151277540Y-66434667D01*
X151275344Y-66435840D01*
X151273420Y-66437420D01*
X151175540Y-66535300D01*
X150495000Y-66535300D01*
X150492522Y-66535544D01*
X150490140Y-66536267D01*
X150487944Y-66537440D01*
X150486020Y-66539020D01*
X150257420Y-66767620D01*
X150255840Y-66769544D01*
X150254667Y-66771740D01*
X150253944Y-66774122D01*
X150253700Y-66776600D01*
X150253700Y-67640200D01*
X150253944Y-67642678D01*
X150254667Y-67645060D01*
X150255840Y-67647256D01*
X150257420Y-67649180D01*
X150714620Y-68106380D01*
X150716544Y-68107960D01*
X150718740Y-68109133D01*
X150721122Y-68109856D01*
X150723600Y-68110100D01*
X153817140Y-68110100D01*
X154292300Y-68585260D01*
X154292300Y-70027800D01*
X154292544Y-70030278D01*
X154293267Y-70032660D01*
X154294440Y-70034856D01*
X154296020Y-70036780D01*
X154537320Y-70278080D01*
X154539244Y-70279660D01*
X154541440Y-70280833D01*
X154543822Y-70281556D01*
X154546300Y-70281800D01*
X155359100Y-70281800D01*
X155359100Y-70612000D01*
X154546300Y-70612000D01*
X154543822Y-70612244D01*
X154541440Y-70612967D01*
X154539244Y-70614140D01*
X154537320Y-70615720D01*
X154296020Y-70857020D01*
X154294440Y-70858944D01*
X154293267Y-70861140D01*
X154292544Y-70863522D01*
X154292300Y-70866000D01*
X154292300Y-73299140D01*
X153766340Y-73825100D01*
X152146000Y-73825100D01*
X152143522Y-73825344D01*
X152141140Y-73826067D01*
X152138944Y-73827240D01*
X152137020Y-73828820D01*
X151759740Y-74206100D01*
X149611260Y-74206100D01*
X149415500Y-74010340D01*
X149415500Y-73487460D01*
X149585860Y-73317100D01*
X150266400Y-73317100D01*
X150268878Y-73316856D01*
X150271260Y-73316133D01*
X150273456Y-73314960D01*
X150275380Y-73313380D01*
X150834180Y-72754580D01*
X150835760Y-72752656D01*
X150836933Y-72750460D01*
X150837656Y-72748078D01*
X150837900Y-72745600D01*
X150837900Y-69773800D01*
X150837656Y-69771322D01*
X150836933Y-69768940D01*
X150835760Y-69766744D01*
X150834180Y-69764820D01*
X150173780Y-69104420D01*
X150171856Y-69102840D01*
X150169660Y-69101667D01*
X150167278Y-69100944D01*
X150164800Y-69100700D01*
X145902860Y-69100700D01*
X143518980Y-66716820D01*
X143517056Y-66715240D01*
X143514860Y-66714067D01*
X143512478Y-66713344D01*
X143510000Y-66713100D01*
X141356260Y-66713100D01*
X141109700Y-66466540D01*
X141109700Y-65130860D01*
X141254660Y-64985900D01*
X149676940Y-64985900D01*
X150613020Y-65921980D01*
G37*
X150613020Y-65921980D02*
X150614944Y-65923560D01*
X150617140Y-65924733D01*
X150619522Y-65925456D01*
X150622000Y-65925700D01*
X151048540Y-65925700D01*
X151260720Y-66137880D01*
X151262644Y-66139460D01*
X151264840Y-66140633D01*
X151267222Y-66141356D01*
X151269700Y-66141600D01*
X152057100Y-66141600D01*
X152057100Y-66433700D01*
X151282400Y-66433700D01*
X151279922Y-66433944D01*
X151277540Y-66434667D01*
X151275344Y-66435840D01*
X151273420Y-66437420D01*
X151175540Y-66535300D01*
X150495000Y-66535300D01*
X150492522Y-66535544D01*
X150490140Y-66536267D01*
X150487944Y-66537440D01*
X150486020Y-66539020D01*
X150257420Y-66767620D01*
X150255840Y-66769544D01*
X150254667Y-66771740D01*
X150253944Y-66774122D01*
X150253700Y-66776600D01*
X150253700Y-67640200D01*
X150253944Y-67642678D01*
X150254667Y-67645060D01*
X150255840Y-67647256D01*
X150257420Y-67649180D01*
X150714620Y-68106380D01*
X150716544Y-68107960D01*
X150718740Y-68109133D01*
X150721122Y-68109856D01*
X150723600Y-68110100D01*
X153817140Y-68110100D01*
X154292300Y-68585260D01*
X154292300Y-70027800D01*
X154292544Y-70030278D01*
X154293267Y-70032660D01*
X154294440Y-70034856D01*
X154296020Y-70036780D01*
X154537320Y-70278080D01*
X154539244Y-70279660D01*
X154541440Y-70280833D01*
X154543822Y-70281556D01*
X154546300Y-70281800D01*
X155359100Y-70281800D01*
X155359100Y-70612000D01*
X154546300Y-70612000D01*
X154543822Y-70612244D01*
X154541440Y-70612967D01*
X154539244Y-70614140D01*
X154537320Y-70615720D01*
X154296020Y-70857020D01*
X154294440Y-70858944D01*
X154293267Y-70861140D01*
X154292544Y-70863522D01*
X154292300Y-70866000D01*
X154292300Y-73299140D01*
X153766340Y-73825100D01*
X152146000Y-73825100D01*
X152143522Y-73825344D01*
X152141140Y-73826067D01*
X152138944Y-73827240D01*
X152137020Y-73828820D01*
X151759740Y-74206100D01*
X149611260Y-74206100D01*
X149415500Y-74010340D01*
X149415500Y-73487460D01*
X149585860Y-73317100D01*
X150266400Y-73317100D01*
X150268878Y-73316856D01*
X150271260Y-73316133D01*
X150273456Y-73314960D01*
X150275380Y-73313380D01*
X150834180Y-72754580D01*
X150835760Y-72752656D01*
X150836933Y-72750460D01*
X150837656Y-72748078D01*
X150837900Y-72745600D01*
X150837900Y-69773800D01*
X150837656Y-69771322D01*
X150836933Y-69768940D01*
X150835760Y-69766744D01*
X150834180Y-69764820D01*
X150173780Y-69104420D01*
X150171856Y-69102840D01*
X150169660Y-69101667D01*
X150167278Y-69100944D01*
X150164800Y-69100700D01*
X145902860Y-69100700D01*
X143518980Y-66716820D01*
X143517056Y-66715240D01*
X143514860Y-66714067D01*
X143512478Y-66713344D01*
X143510000Y-66713100D01*
X141356260Y-66713100D01*
X141109700Y-66466540D01*
X141109700Y-65130860D01*
X141254660Y-64985900D01*
X149676940Y-64985900D01*
X150613020Y-65921980D01*
D60*
G36*
X142088800Y-74783266D02*
G01*
X142088800Y-76753134D01*
X141853334Y-76988600D01*
X141197400Y-76988600D01*
X141197400Y-75412600D01*
X141195959Y-75397968D01*
X141191691Y-75383899D01*
X141184760Y-75370932D01*
X141175433Y-75359567D01*
X141086533Y-75270667D01*
X141075168Y-75261340D01*
X141062201Y-75254409D01*
X141048132Y-75250141D01*
X141033500Y-75248700D01*
X141018868Y-75250141D01*
X141004799Y-75254409D01*
X140991832Y-75261340D01*
X140980467Y-75270667D01*
X140485167Y-75765967D01*
X140475840Y-75777332D01*
X140468909Y-75790299D01*
X140464641Y-75804368D01*
X140463200Y-75819000D01*
X140463200Y-76455200D01*
X139800400Y-76455200D01*
X139800400Y-75665400D01*
X140284200Y-75665400D01*
X140298832Y-75663959D01*
X140312901Y-75659691D01*
X140325868Y-75652760D01*
X140337233Y-75643433D01*
X140845233Y-75135433D01*
X140854560Y-75124068D01*
X140861491Y-75111101D01*
X140865759Y-75097032D01*
X140867200Y-75082400D01*
X140865759Y-75067768D01*
X140861491Y-75053699D01*
X140854560Y-75040732D01*
X140845233Y-75029367D01*
X140769033Y-74953167D01*
X140757668Y-74943840D01*
X140744701Y-74936909D01*
X140730632Y-74932641D01*
X140716000Y-74931200D01*
X139444800Y-74931200D01*
X139444800Y-74351466D01*
X139654866Y-74141400D01*
X141446934Y-74141400D01*
X142088800Y-74783266D01*
G37*
X142088800Y-74783266D02*
X142088800Y-76753134D01*
X141853334Y-76988600D01*
X141197400Y-76988600D01*
X141197400Y-75412600D01*
X141195959Y-75397968D01*
X141191691Y-75383899D01*
X141184760Y-75370932D01*
X141175433Y-75359567D01*
X141086533Y-75270667D01*
X141075168Y-75261340D01*
X141062201Y-75254409D01*
X141048132Y-75250141D01*
X141033500Y-75248700D01*
X141018868Y-75250141D01*
X141004799Y-75254409D01*
X140991832Y-75261340D01*
X140980467Y-75270667D01*
X140485167Y-75765967D01*
X140475840Y-75777332D01*
X140468909Y-75790299D01*
X140464641Y-75804368D01*
X140463200Y-75819000D01*
X140463200Y-76455200D01*
X139800400Y-76455200D01*
X139800400Y-75665400D01*
X140284200Y-75665400D01*
X140298832Y-75663959D01*
X140312901Y-75659691D01*
X140325868Y-75652760D01*
X140337233Y-75643433D01*
X140845233Y-75135433D01*
X140854560Y-75124068D01*
X140861491Y-75111101D01*
X140865759Y-75097032D01*
X140867200Y-75082400D01*
X140865759Y-75067768D01*
X140861491Y-75053699D01*
X140854560Y-75040732D01*
X140845233Y-75029367D01*
X140769033Y-74953167D01*
X140757668Y-74943840D01*
X140744701Y-74936909D01*
X140730632Y-74932641D01*
X140716000Y-74931200D01*
X139444800Y-74931200D01*
X139444800Y-74351466D01*
X139654866Y-74141400D01*
X141446934Y-74141400D01*
X142088800Y-74783266D01*
D62*
G36*
X134353300Y-78186460D02*
G01*
X134353300Y-79166540D01*
X134233740Y-79286100D01*
X134041060Y-79286100D01*
X132372100Y-77617140D01*
X132372100Y-77424460D01*
X132491660Y-77304900D01*
X133471740Y-77304900D01*
X134353300Y-78186460D01*
G37*
X134353300Y-78186460D02*
X134353300Y-79166540D01*
X134233740Y-79286100D01*
X134041060Y-79286100D01*
X132372100Y-77617140D01*
X132372100Y-77424460D01*
X132491660Y-77304900D01*
X133471740Y-77304900D01*
X134353300Y-78186460D01*
D64*
G36*
X159258800Y-70099310D02*
G01*
X159258800Y-70769090D01*
X159059490Y-70968400D01*
X157729310Y-70968400D01*
X157350255Y-70589345D01*
X157342679Y-70583127D01*
X157334034Y-70578506D01*
X157324655Y-70575661D01*
X157314900Y-70574700D01*
X156336200Y-70574700D01*
X156336200Y-70319100D01*
X157289500Y-70319100D01*
X157299255Y-70318139D01*
X157308634Y-70315294D01*
X157317279Y-70310673D01*
X157324855Y-70304455D01*
X157729310Y-69900000D01*
X159059490Y-69900000D01*
X159258800Y-70099310D01*
G37*
X159258800Y-70099310D02*
X159258800Y-70769090D01*
X159059490Y-70968400D01*
X157729310Y-70968400D01*
X157350255Y-70589345D01*
X157342679Y-70583127D01*
X157334034Y-70578506D01*
X157324655Y-70575661D01*
X157314900Y-70574700D01*
X156336200Y-70574700D01*
X156336200Y-70319100D01*
X157289500Y-70319100D01*
X157299255Y-70318139D01*
X157308634Y-70315294D01*
X157317279Y-70310673D01*
X157324855Y-70304455D01*
X157729310Y-69900000D01*
X159059490Y-69900000D01*
X159258800Y-70099310D01*
D63*
G36*
X160172400Y-98071206D02*
G01*
X160172400Y-98499394D01*
X159891194Y-98780600D01*
X156034006Y-98780600D01*
X155905200Y-98651794D01*
X155905200Y-96398761D01*
X156080935Y-96240600D01*
X158341794Y-96240600D01*
X160172400Y-98071206D01*
G37*
X160172400Y-98071206D02*
X160172400Y-98499394D01*
X159891194Y-98780600D01*
X156034006Y-98780600D01*
X155905200Y-98651794D01*
X155905200Y-96398761D01*
X156080935Y-96240600D01*
X158341794Y-96240600D01*
X160172400Y-98071206D01*
D60*
G36*
X142355500Y-83248500D02*
G01*
X142356941Y-83263132D01*
X142361209Y-83277201D01*
X142368140Y-83290168D01*
X142377467Y-83301533D01*
X142555267Y-83479333D01*
X142566632Y-83488660D01*
X142579599Y-83495591D01*
X142593668Y-83499859D01*
X142608300Y-83501300D01*
X142622932Y-83499859D01*
X142637001Y-83495591D01*
X142649968Y-83488660D01*
X142661333Y-83479333D01*
X143118533Y-83022133D01*
X143127860Y-83010768D01*
X143134791Y-82997801D01*
X143139059Y-82983732D01*
X143140500Y-82969100D01*
X143140500Y-82548800D01*
X143460400Y-82548800D01*
X143460400Y-83097300D01*
X143268700Y-83097300D01*
X143254068Y-83098741D01*
X143239999Y-83103009D01*
X143227032Y-83109940D01*
X143215667Y-83119267D01*
X142758467Y-83576467D01*
X142749140Y-83587832D01*
X142742209Y-83600799D01*
X142737941Y-83614868D01*
X142736500Y-83629500D01*
X142737941Y-83644132D01*
X142742209Y-83658201D01*
X142749140Y-83671168D01*
X142758467Y-83682533D01*
X143126767Y-84050833D01*
X143138132Y-84060160D01*
X143151099Y-84067091D01*
X143165168Y-84071359D01*
X143179800Y-84072800D01*
X143968400Y-84072800D01*
X143968400Y-84601734D01*
X143923434Y-84646700D01*
X142994966Y-84646700D01*
X141692700Y-83344434D01*
X141692700Y-82250866D01*
X141775766Y-82167800D01*
X142355500Y-82167800D01*
X142355500Y-83248500D01*
G37*
X142355500Y-83248500D02*
X142356941Y-83263132D01*
X142361209Y-83277201D01*
X142368140Y-83290168D01*
X142377467Y-83301533D01*
X142555267Y-83479333D01*
X142566632Y-83488660D01*
X142579599Y-83495591D01*
X142593668Y-83499859D01*
X142608300Y-83501300D01*
X142622932Y-83499859D01*
X142637001Y-83495591D01*
X142649968Y-83488660D01*
X142661333Y-83479333D01*
X143118533Y-83022133D01*
X143127860Y-83010768D01*
X143134791Y-82997801D01*
X143139059Y-82983732D01*
X143140500Y-82969100D01*
X143140500Y-82548800D01*
X143460400Y-82548800D01*
X143460400Y-83097300D01*
X143268700Y-83097300D01*
X143254068Y-83098741D01*
X143239999Y-83103009D01*
X143227032Y-83109940D01*
X143215667Y-83119267D01*
X142758467Y-83576467D01*
X142749140Y-83587832D01*
X142742209Y-83600799D01*
X142737941Y-83614868D01*
X142736500Y-83629500D01*
X142737941Y-83644132D01*
X142742209Y-83658201D01*
X142749140Y-83671168D01*
X142758467Y-83682533D01*
X143126767Y-84050833D01*
X143138132Y-84060160D01*
X143151099Y-84067091D01*
X143165168Y-84071359D01*
X143179800Y-84072800D01*
X143968400Y-84072800D01*
X143968400Y-84601734D01*
X143923434Y-84646700D01*
X142994966Y-84646700D01*
X141692700Y-83344434D01*
X141692700Y-82250866D01*
X141775766Y-82167800D01*
X142355500Y-82167800D01*
X142355500Y-83248500D01*
M02*
