G04 #@! TF.GenerationSoftware,KiCad,Pcbnew,(5.1.6)-1*
G04 #@! TF.CreationDate,2020-09-29T16:02:43+02:00*
G04 #@! TF.ProjectId,PrecisionTimer_RevG-1,50726563-6973-4696-9f6e-54696d65725f,rev?*
G04 #@! TF.SameCoordinates,Original*
G04 #@! TF.FileFunction,Soldermask,Bot*
G04 #@! TF.FilePolarity,Negative*
%FSLAX46Y46*%
G04 Gerber Fmt 4.6, Leading zero omitted, Abs format (unit mm)*
G04 Created by KiCad (PCBNEW (5.1.6)-1) date 2020-09-29 16:02:43*
%MOMM*%
%LPD*%
G01*
G04 APERTURE LIST*
%ADD10C,0.100000*%
%ADD11C,1.700000*%
%ADD12C,1.600000*%
%ADD13R,1.600000X1.700000*%
%ADD14O,3.100000X1.700000*%
%ADD15R,1.900000X4.500000*%
%ADD16O,1.900000X4.100000*%
%ADD17O,4.100000X1.900000*%
%ADD18C,1.500000*%
%ADD19C,0.800000*%
%ADD20R,1.100000X0.800000*%
%ADD21R,1.000000X1.500000*%
%ADD22R,0.800000X1.100000*%
%ADD23R,1.300000X1.550000*%
%ADD24R,1.300000X1.250000*%
%ADD25C,2.500000*%
%ADD26C,2.100000*%
%ADD27C,1.100000*%
%ADD28R,0.550000X1.500000*%
%ADD29R,1.000000X0.900000*%
%ADD30R,1.900000X1.900000*%
%ADD31R,0.850000X0.400000*%
%ADD32R,0.400000X0.850000*%
G04 APERTURE END LIST*
D10*
G36*
X173278800Y-71577200D02*
G01*
X171119800Y-71577200D01*
X171119800Y-54254400D01*
X91440000Y-54254400D01*
X91440000Y-102819200D01*
X88887300Y-102819200D01*
X88887300Y-51968400D01*
X173278800Y-51968400D01*
X173278800Y-71577200D01*
G37*
X173278800Y-71577200D02*
X171119800Y-71577200D01*
X171119800Y-54254400D01*
X91440000Y-54254400D01*
X91440000Y-102819200D01*
X88887300Y-102819200D01*
X88887300Y-51968400D01*
X173278800Y-51968400D01*
X173278800Y-71577200D01*
G36*
X173278800Y-102819200D02*
G01*
X91173300Y-102819200D01*
X91173300Y-100596700D01*
X171119800Y-100584000D01*
X171119800Y-84429600D01*
X173266100Y-84429600D01*
X173278800Y-102819200D01*
G37*
X173278800Y-102819200D02*
X91173300Y-102819200D01*
X91173300Y-100596700D01*
X171119800Y-100584000D01*
X171119800Y-84429600D01*
X173266100Y-84429600D01*
X173278800Y-102819200D01*
G36*
G01*
X167457400Y-86209450D02*
X167457400Y-85646950D01*
G75*
G02*
X167701150Y-85403200I243750J0D01*
G01*
X168188650Y-85403200D01*
G75*
G02*
X168432400Y-85646950I0J-243750D01*
G01*
X168432400Y-86209450D01*
G75*
G02*
X168188650Y-86453200I-243750J0D01*
G01*
X167701150Y-86453200D01*
G75*
G02*
X167457400Y-86209450I0J243750D01*
G01*
G37*
G36*
G01*
X165882400Y-86209450D02*
X165882400Y-85646950D01*
G75*
G02*
X166126150Y-85403200I243750J0D01*
G01*
X166613650Y-85403200D01*
G75*
G02*
X166857400Y-85646950I0J-243750D01*
G01*
X166857400Y-86209450D01*
G75*
G02*
X166613650Y-86453200I-243750J0D01*
G01*
X166126150Y-86453200D01*
G75*
G02*
X165882400Y-86209450I0J243750D01*
G01*
G37*
D11*
X160324800Y-58430400D03*
D12*
X160324800Y-60930400D03*
X160324800Y-62930400D03*
D13*
X160324800Y-65430400D03*
D14*
X163034800Y-55360400D03*
X163034800Y-68500400D03*
D15*
X161366200Y-94818200D03*
D16*
X167488400Y-94818200D03*
D17*
X164185600Y-90017600D03*
D18*
X165789800Y-80997400D03*
X165789800Y-75497400D03*
G36*
G01*
X145184550Y-76830200D02*
X145747050Y-76830200D01*
G75*
G02*
X145990800Y-77073950I0J-243750D01*
G01*
X145990800Y-77561450D01*
G75*
G02*
X145747050Y-77805200I-243750J0D01*
G01*
X145184550Y-77805200D01*
G75*
G02*
X144940800Y-77561450I0J243750D01*
G01*
X144940800Y-77073950D01*
G75*
G02*
X145184550Y-76830200I243750J0D01*
G01*
G37*
G36*
G01*
X145184550Y-75255200D02*
X145747050Y-75255200D01*
G75*
G02*
X145990800Y-75498950I0J-243750D01*
G01*
X145990800Y-75986450D01*
G75*
G02*
X145747050Y-76230200I-243750J0D01*
G01*
X145184550Y-76230200D01*
G75*
G02*
X144940800Y-75986450I0J243750D01*
G01*
X144940800Y-75498950D01*
G75*
G02*
X145184550Y-75255200I243750J0D01*
G01*
G37*
G36*
G01*
X151998400Y-75791750D02*
X151998400Y-76354250D01*
G75*
G02*
X151754650Y-76598000I-243750J0D01*
G01*
X151267150Y-76598000D01*
G75*
G02*
X151023400Y-76354250I0J243750D01*
G01*
X151023400Y-75791750D01*
G75*
G02*
X151267150Y-75548000I243750J0D01*
G01*
X151754650Y-75548000D01*
G75*
G02*
X151998400Y-75791750I0J-243750D01*
G01*
G37*
G36*
G01*
X153573400Y-75791750D02*
X153573400Y-76354250D01*
G75*
G02*
X153329650Y-76598000I-243750J0D01*
G01*
X152842150Y-76598000D01*
G75*
G02*
X152598400Y-76354250I0J243750D01*
G01*
X152598400Y-75791750D01*
G75*
G02*
X152842150Y-75548000I243750J0D01*
G01*
X153329650Y-75548000D01*
G75*
G02*
X153573400Y-75791750I0J-243750D01*
G01*
G37*
D19*
X145592800Y-95694500D03*
D20*
X168645200Y-73690200D03*
X168645200Y-74790200D03*
X168645200Y-75890200D03*
X168645200Y-76990200D03*
X168645200Y-78090200D03*
X168645200Y-79190200D03*
X168645200Y-80290200D03*
X168645200Y-81390200D03*
D21*
X172435200Y-83040200D03*
D22*
X171285200Y-83240200D03*
D23*
X170135200Y-83015200D03*
D24*
X172285200Y-72615200D03*
X169695200Y-72615200D03*
D11*
X169799000Y-85928200D03*
X169799000Y-88468200D03*
D25*
X98298000Y-63728600D03*
X93319600Y-63728600D03*
X93319600Y-58750200D03*
X98298000Y-58750200D03*
D26*
X95808800Y-61239400D03*
D25*
X98298000Y-79908400D03*
X93319600Y-79908400D03*
X93319600Y-74930000D03*
X98298000Y-74930000D03*
D26*
X95808800Y-77419200D03*
D25*
X98298000Y-96088200D03*
X93319600Y-96088200D03*
X93319600Y-91109800D03*
X98298000Y-91109800D03*
D26*
X95808800Y-93599000D03*
G36*
G01*
X120442000Y-85218850D02*
X120442000Y-84656350D01*
G75*
G02*
X120685750Y-84412600I243750J0D01*
G01*
X121173250Y-84412600D01*
G75*
G02*
X121417000Y-84656350I0J-243750D01*
G01*
X121417000Y-85218850D01*
G75*
G02*
X121173250Y-85462600I-243750J0D01*
G01*
X120685750Y-85462600D01*
G75*
G02*
X120442000Y-85218850I0J243750D01*
G01*
G37*
G36*
G01*
X118867000Y-85218850D02*
X118867000Y-84656350D01*
G75*
G02*
X119110750Y-84412600I243750J0D01*
G01*
X119598250Y-84412600D01*
G75*
G02*
X119842000Y-84656350I0J-243750D01*
G01*
X119842000Y-85218850D01*
G75*
G02*
X119598250Y-85462600I-243750J0D01*
G01*
X119110750Y-85462600D01*
G75*
G02*
X118867000Y-85218850I0J243750D01*
G01*
G37*
G36*
G01*
X142286000Y-96775850D02*
X142286000Y-96213350D01*
G75*
G02*
X142529750Y-95969600I243750J0D01*
G01*
X143017250Y-95969600D01*
G75*
G02*
X143261000Y-96213350I0J-243750D01*
G01*
X143261000Y-96775850D01*
G75*
G02*
X143017250Y-97019600I-243750J0D01*
G01*
X142529750Y-97019600D01*
G75*
G02*
X142286000Y-96775850I0J243750D01*
G01*
G37*
G36*
G01*
X140711000Y-96775850D02*
X140711000Y-96213350D01*
G75*
G02*
X140954750Y-95969600I243750J0D01*
G01*
X141442250Y-95969600D01*
G75*
G02*
X141686000Y-96213350I0J-243750D01*
G01*
X141686000Y-96775850D01*
G75*
G02*
X141442250Y-97019600I-243750J0D01*
G01*
X140954750Y-97019600D01*
G75*
G02*
X140711000Y-96775850I0J243750D01*
G01*
G37*
D27*
X150799800Y-67335400D03*
X112420400Y-64693800D03*
X129895600Y-68605400D03*
X128752600Y-69824600D03*
X110896400Y-73164700D03*
X156616400Y-87706200D03*
X164084000Y-91998800D03*
X143103600Y-98526600D03*
G36*
G01*
X110107150Y-68118000D02*
X110669650Y-68118000D01*
G75*
G02*
X110913400Y-68361750I0J-243750D01*
G01*
X110913400Y-68849250D01*
G75*
G02*
X110669650Y-69093000I-243750J0D01*
G01*
X110107150Y-69093000D01*
G75*
G02*
X109863400Y-68849250I0J243750D01*
G01*
X109863400Y-68361750D01*
G75*
G02*
X110107150Y-68118000I243750J0D01*
G01*
G37*
G36*
G01*
X110107150Y-66543000D02*
X110669650Y-66543000D01*
G75*
G02*
X110913400Y-66786750I0J-243750D01*
G01*
X110913400Y-67274250D01*
G75*
G02*
X110669650Y-67518000I-243750J0D01*
G01*
X110107150Y-67518000D01*
G75*
G02*
X109863400Y-67274250I0J243750D01*
G01*
X109863400Y-66786750D01*
G75*
G02*
X110107150Y-66543000I243750J0D01*
G01*
G37*
G36*
G01*
X130693850Y-82227700D02*
X131256350Y-82227700D01*
G75*
G02*
X131500100Y-82471450I0J-243750D01*
G01*
X131500100Y-82958950D01*
G75*
G02*
X131256350Y-83202700I-243750J0D01*
G01*
X130693850Y-83202700D01*
G75*
G02*
X130450100Y-82958950I0J243750D01*
G01*
X130450100Y-82471450D01*
G75*
G02*
X130693850Y-82227700I243750J0D01*
G01*
G37*
G36*
G01*
X130693850Y-80652700D02*
X131256350Y-80652700D01*
G75*
G02*
X131500100Y-80896450I0J-243750D01*
G01*
X131500100Y-81383950D01*
G75*
G02*
X131256350Y-81627700I-243750J0D01*
G01*
X130693850Y-81627700D01*
G75*
G02*
X130450100Y-81383950I0J243750D01*
G01*
X130450100Y-80896450D01*
G75*
G02*
X130693850Y-80652700I243750J0D01*
G01*
G37*
G36*
G01*
X132954450Y-84221600D02*
X133516950Y-84221600D01*
G75*
G02*
X133760700Y-84465350I0J-243750D01*
G01*
X133760700Y-84952850D01*
G75*
G02*
X133516950Y-85196600I-243750J0D01*
G01*
X132954450Y-85196600D01*
G75*
G02*
X132710700Y-84952850I0J243750D01*
G01*
X132710700Y-84465350D01*
G75*
G02*
X132954450Y-84221600I243750J0D01*
G01*
G37*
G36*
G01*
X132954450Y-82646600D02*
X133516950Y-82646600D01*
G75*
G02*
X133760700Y-82890350I0J-243750D01*
G01*
X133760700Y-83377850D01*
G75*
G02*
X133516950Y-83621600I-243750J0D01*
G01*
X132954450Y-83621600D01*
G75*
G02*
X132710700Y-83377850I0J243750D01*
G01*
X132710700Y-82890350D01*
G75*
G02*
X132954450Y-82646600I243750J0D01*
G01*
G37*
G36*
G01*
X113669800Y-85545350D02*
X113669800Y-86107850D01*
G75*
G02*
X113426050Y-86351600I-243750J0D01*
G01*
X112938550Y-86351600D01*
G75*
G02*
X112694800Y-86107850I0J243750D01*
G01*
X112694800Y-85545350D01*
G75*
G02*
X112938550Y-85301600I243750J0D01*
G01*
X113426050Y-85301600D01*
G75*
G02*
X113669800Y-85545350I0J-243750D01*
G01*
G37*
G36*
G01*
X115244800Y-85545350D02*
X115244800Y-86107850D01*
G75*
G02*
X115001050Y-86351600I-243750J0D01*
G01*
X114513550Y-86351600D01*
G75*
G02*
X114269800Y-86107850I0J243750D01*
G01*
X114269800Y-85545350D01*
G75*
G02*
X114513550Y-85301600I243750J0D01*
G01*
X115001050Y-85301600D01*
G75*
G02*
X115244800Y-85545350I0J-243750D01*
G01*
G37*
G36*
G01*
X121864400Y-91721250D02*
X121864400Y-91158750D01*
G75*
G02*
X122108150Y-90915000I243750J0D01*
G01*
X122595650Y-90915000D01*
G75*
G02*
X122839400Y-91158750I0J-243750D01*
G01*
X122839400Y-91721250D01*
G75*
G02*
X122595650Y-91965000I-243750J0D01*
G01*
X122108150Y-91965000D01*
G75*
G02*
X121864400Y-91721250I0J243750D01*
G01*
G37*
G36*
G01*
X120289400Y-91721250D02*
X120289400Y-91158750D01*
G75*
G02*
X120533150Y-90915000I243750J0D01*
G01*
X121020650Y-90915000D01*
G75*
G02*
X121264400Y-91158750I0J-243750D01*
G01*
X121264400Y-91721250D01*
G75*
G02*
X121020650Y-91965000I-243750J0D01*
G01*
X120533150Y-91965000D01*
G75*
G02*
X120289400Y-91721250I0J243750D01*
G01*
G37*
G36*
G01*
X117479800Y-82497350D02*
X117479800Y-83059850D01*
G75*
G02*
X117236050Y-83303600I-243750J0D01*
G01*
X116748550Y-83303600D01*
G75*
G02*
X116504800Y-83059850I0J243750D01*
G01*
X116504800Y-82497350D01*
G75*
G02*
X116748550Y-82253600I243750J0D01*
G01*
X117236050Y-82253600D01*
G75*
G02*
X117479800Y-82497350I0J-243750D01*
G01*
G37*
G36*
G01*
X119054800Y-82497350D02*
X119054800Y-83059850D01*
G75*
G02*
X118811050Y-83303600I-243750J0D01*
G01*
X118323550Y-83303600D01*
G75*
G02*
X118079800Y-83059850I0J243750D01*
G01*
X118079800Y-82497350D01*
G75*
G02*
X118323550Y-82253600I243750J0D01*
G01*
X118811050Y-82253600D01*
G75*
G02*
X119054800Y-82497350I0J-243750D01*
G01*
G37*
G36*
G01*
X116159000Y-87399550D02*
X116159000Y-87962050D01*
G75*
G02*
X115915250Y-88205800I-243750J0D01*
G01*
X115427750Y-88205800D01*
G75*
G02*
X115184000Y-87962050I0J243750D01*
G01*
X115184000Y-87399550D01*
G75*
G02*
X115427750Y-87155800I243750J0D01*
G01*
X115915250Y-87155800D01*
G75*
G02*
X116159000Y-87399550I0J-243750D01*
G01*
G37*
G36*
G01*
X117734000Y-87399550D02*
X117734000Y-87962050D01*
G75*
G02*
X117490250Y-88205800I-243750J0D01*
G01*
X117002750Y-88205800D01*
G75*
G02*
X116759000Y-87962050I0J243750D01*
G01*
X116759000Y-87399550D01*
G75*
G02*
X117002750Y-87155800I243750J0D01*
G01*
X117490250Y-87155800D01*
G75*
G02*
X117734000Y-87399550I0J-243750D01*
G01*
G37*
G36*
G01*
X134491650Y-73183800D02*
X133529150Y-73183800D01*
G75*
G02*
X133260400Y-72915050I0J268750D01*
G01*
X133260400Y-72377550D01*
G75*
G02*
X133529150Y-72108800I268750J0D01*
G01*
X134491650Y-72108800D01*
G75*
G02*
X134760400Y-72377550I0J-268750D01*
G01*
X134760400Y-72915050D01*
G75*
G02*
X134491650Y-73183800I-268750J0D01*
G01*
G37*
G36*
G01*
X134491650Y-75058800D02*
X133529150Y-75058800D01*
G75*
G02*
X133260400Y-74790050I0J268750D01*
G01*
X133260400Y-74252550D01*
G75*
G02*
X133529150Y-73983800I268750J0D01*
G01*
X134491650Y-73983800D01*
G75*
G02*
X134760400Y-74252550I0J-268750D01*
G01*
X134760400Y-74790050D01*
G75*
G02*
X134491650Y-75058800I-268750J0D01*
G01*
G37*
G36*
G01*
X135993450Y-73131400D02*
X135430950Y-73131400D01*
G75*
G02*
X135187200Y-72887650I0J243750D01*
G01*
X135187200Y-72400150D01*
G75*
G02*
X135430950Y-72156400I243750J0D01*
G01*
X135993450Y-72156400D01*
G75*
G02*
X136237200Y-72400150I0J-243750D01*
G01*
X136237200Y-72887650D01*
G75*
G02*
X135993450Y-73131400I-243750J0D01*
G01*
G37*
G36*
G01*
X135993450Y-74706400D02*
X135430950Y-74706400D01*
G75*
G02*
X135187200Y-74462650I0J243750D01*
G01*
X135187200Y-73975150D01*
G75*
G02*
X135430950Y-73731400I243750J0D01*
G01*
X135993450Y-73731400D01*
G75*
G02*
X136237200Y-73975150I0J-243750D01*
G01*
X136237200Y-74462650D01*
G75*
G02*
X135993450Y-74706400I-243750J0D01*
G01*
G37*
G36*
G01*
X136250400Y-70889550D02*
X136250400Y-71452050D01*
G75*
G02*
X136006650Y-71695800I-243750J0D01*
G01*
X135519150Y-71695800D01*
G75*
G02*
X135275400Y-71452050I0J243750D01*
G01*
X135275400Y-70889550D01*
G75*
G02*
X135519150Y-70645800I243750J0D01*
G01*
X136006650Y-70645800D01*
G75*
G02*
X136250400Y-70889550I0J-243750D01*
G01*
G37*
G36*
G01*
X137825400Y-70889550D02*
X137825400Y-71452050D01*
G75*
G02*
X137581650Y-71695800I-243750J0D01*
G01*
X137094150Y-71695800D01*
G75*
G02*
X136850400Y-71452050I0J243750D01*
G01*
X136850400Y-70889550D01*
G75*
G02*
X137094150Y-70645800I243750J0D01*
G01*
X137581650Y-70645800D01*
G75*
G02*
X137825400Y-70889550I0J-243750D01*
G01*
G37*
G36*
G01*
X142974750Y-73883800D02*
X143537250Y-73883800D01*
G75*
G02*
X143781000Y-74127550I0J-243750D01*
G01*
X143781000Y-74615050D01*
G75*
G02*
X143537250Y-74858800I-243750J0D01*
G01*
X142974750Y-74858800D01*
G75*
G02*
X142731000Y-74615050I0J243750D01*
G01*
X142731000Y-74127550D01*
G75*
G02*
X142974750Y-73883800I243750J0D01*
G01*
G37*
G36*
G01*
X142974750Y-72308800D02*
X143537250Y-72308800D01*
G75*
G02*
X143781000Y-72552550I0J-243750D01*
G01*
X143781000Y-73040050D01*
G75*
G02*
X143537250Y-73283800I-243750J0D01*
G01*
X142974750Y-73283800D01*
G75*
G02*
X142731000Y-73040050I0J243750D01*
G01*
X142731000Y-72552550D01*
G75*
G02*
X142974750Y-72308800I243750J0D01*
G01*
G37*
G36*
G01*
X140359050Y-68967400D02*
X139396550Y-68967400D01*
G75*
G02*
X139127800Y-68698650I0J268750D01*
G01*
X139127800Y-68161150D01*
G75*
G02*
X139396550Y-67892400I268750J0D01*
G01*
X140359050Y-67892400D01*
G75*
G02*
X140627800Y-68161150I0J-268750D01*
G01*
X140627800Y-68698650D01*
G75*
G02*
X140359050Y-68967400I-268750J0D01*
G01*
G37*
G36*
G01*
X140359050Y-70842400D02*
X139396550Y-70842400D01*
G75*
G02*
X139127800Y-70573650I0J268750D01*
G01*
X139127800Y-70036150D01*
G75*
G02*
X139396550Y-69767400I268750J0D01*
G01*
X140359050Y-69767400D01*
G75*
G02*
X140627800Y-70036150I0J-268750D01*
G01*
X140627800Y-70573650D01*
G75*
G02*
X140359050Y-70842400I-268750J0D01*
G01*
G37*
G36*
G01*
X129135450Y-75214200D02*
X128572950Y-75214200D01*
G75*
G02*
X128329200Y-74970450I0J243750D01*
G01*
X128329200Y-74482950D01*
G75*
G02*
X128572950Y-74239200I243750J0D01*
G01*
X129135450Y-74239200D01*
G75*
G02*
X129379200Y-74482950I0J-243750D01*
G01*
X129379200Y-74970450D01*
G75*
G02*
X129135450Y-75214200I-243750J0D01*
G01*
G37*
G36*
G01*
X129135450Y-76789200D02*
X128572950Y-76789200D01*
G75*
G02*
X128329200Y-76545450I0J243750D01*
G01*
X128329200Y-76057950D01*
G75*
G02*
X128572950Y-75814200I243750J0D01*
G01*
X129135450Y-75814200D01*
G75*
G02*
X129379200Y-76057950I0J-243750D01*
G01*
X129379200Y-76545450D01*
G75*
G02*
X129135450Y-76789200I-243750J0D01*
G01*
G37*
D28*
X155915000Y-94116800D03*
X155265000Y-94116800D03*
X154615000Y-94116800D03*
X153965000Y-94116800D03*
X153965000Y-98516800D03*
X154615000Y-98516800D03*
X155265000Y-98516800D03*
X155915000Y-98516800D03*
D29*
X158791400Y-88595200D03*
X160791400Y-89545200D03*
X160791400Y-87645200D03*
G36*
G01*
X137031150Y-73731400D02*
X137593650Y-73731400D01*
G75*
G02*
X137837400Y-73975150I0J-243750D01*
G01*
X137837400Y-74462650D01*
G75*
G02*
X137593650Y-74706400I-243750J0D01*
G01*
X137031150Y-74706400D01*
G75*
G02*
X136787400Y-74462650I0J243750D01*
G01*
X136787400Y-73975150D01*
G75*
G02*
X137031150Y-73731400I243750J0D01*
G01*
G37*
G36*
G01*
X137031150Y-72156400D02*
X137593650Y-72156400D01*
G75*
G02*
X137837400Y-72400150I0J-243750D01*
G01*
X137837400Y-72887650D01*
G75*
G02*
X137593650Y-73131400I-243750J0D01*
G01*
X137031150Y-73131400D01*
G75*
G02*
X136787400Y-72887650I0J243750D01*
G01*
X136787400Y-72400150D01*
G75*
G02*
X137031150Y-72156400I243750J0D01*
G01*
G37*
G36*
G01*
X157913650Y-95737400D02*
X157351150Y-95737400D01*
G75*
G02*
X157107400Y-95493650I0J243750D01*
G01*
X157107400Y-95006150D01*
G75*
G02*
X157351150Y-94762400I243750J0D01*
G01*
X157913650Y-94762400D01*
G75*
G02*
X158157400Y-95006150I0J-243750D01*
G01*
X158157400Y-95493650D01*
G75*
G02*
X157913650Y-95737400I-243750J0D01*
G01*
G37*
G36*
G01*
X157913650Y-97312400D02*
X157351150Y-97312400D01*
G75*
G02*
X157107400Y-97068650I0J243750D01*
G01*
X157107400Y-96581150D01*
G75*
G02*
X157351150Y-96337400I243750J0D01*
G01*
X157913650Y-96337400D01*
G75*
G02*
X158157400Y-96581150I0J-243750D01*
G01*
X158157400Y-97068650D01*
G75*
G02*
X157913650Y-97312400I-243750J0D01*
G01*
G37*
G36*
G01*
X151998400Y-77290350D02*
X151998400Y-77852850D01*
G75*
G02*
X151754650Y-78096600I-243750J0D01*
G01*
X151267150Y-78096600D01*
G75*
G02*
X151023400Y-77852850I0J243750D01*
G01*
X151023400Y-77290350D01*
G75*
G02*
X151267150Y-77046600I243750J0D01*
G01*
X151754650Y-77046600D01*
G75*
G02*
X151998400Y-77290350I0J-243750D01*
G01*
G37*
G36*
G01*
X153573400Y-77290350D02*
X153573400Y-77852850D01*
G75*
G02*
X153329650Y-78096600I-243750J0D01*
G01*
X152842150Y-78096600D01*
G75*
G02*
X152598400Y-77852850I0J243750D01*
G01*
X152598400Y-77290350D01*
G75*
G02*
X152842150Y-77046600I243750J0D01*
G01*
X153329650Y-77046600D01*
G75*
G02*
X153573400Y-77290350I0J-243750D01*
G01*
G37*
G36*
G01*
X156124600Y-91973175D02*
X156124600Y-90754425D01*
G75*
G02*
X156390225Y-90488800I265625J0D01*
G01*
X157558975Y-90488800D01*
G75*
G02*
X157824600Y-90754425I0J-265625D01*
G01*
X157824600Y-91973175D01*
G75*
G02*
X157558975Y-92238800I-265625J0D01*
G01*
X156390225Y-92238800D01*
G75*
G02*
X156124600Y-91973175I0J265625D01*
G01*
G37*
G36*
G01*
X153274600Y-91973175D02*
X153274600Y-90754425D01*
G75*
G02*
X153540225Y-90488800I265625J0D01*
G01*
X154708975Y-90488800D01*
G75*
G02*
X154974600Y-90754425I0J-265625D01*
G01*
X154974600Y-91973175D01*
G75*
G02*
X154708975Y-92238800I-265625J0D01*
G01*
X153540225Y-92238800D01*
G75*
G02*
X153274600Y-91973175I0J265625D01*
G01*
G37*
D27*
X146888200Y-91313000D03*
G36*
G01*
X130071550Y-75814100D02*
X130634050Y-75814100D01*
G75*
G02*
X130877800Y-76057850I0J-243750D01*
G01*
X130877800Y-76545350D01*
G75*
G02*
X130634050Y-76789100I-243750J0D01*
G01*
X130071550Y-76789100D01*
G75*
G02*
X129827800Y-76545350I0J243750D01*
G01*
X129827800Y-76057850D01*
G75*
G02*
X130071550Y-75814100I243750J0D01*
G01*
G37*
G36*
G01*
X130071550Y-74239100D02*
X130634050Y-74239100D01*
G75*
G02*
X130877800Y-74482850I0J-243750D01*
G01*
X130877800Y-74970350D01*
G75*
G02*
X130634050Y-75214100I-243750J0D01*
G01*
X130071550Y-75214100D01*
G75*
G02*
X129827800Y-74970350I0J243750D01*
G01*
X129827800Y-74482850D01*
G75*
G02*
X130071550Y-74239100I243750J0D01*
G01*
G37*
G36*
G01*
X114025400Y-70737150D02*
X114025400Y-71299650D01*
G75*
G02*
X113781650Y-71543400I-243750J0D01*
G01*
X113294150Y-71543400D01*
G75*
G02*
X113050400Y-71299650I0J243750D01*
G01*
X113050400Y-70737150D01*
G75*
G02*
X113294150Y-70493400I243750J0D01*
G01*
X113781650Y-70493400D01*
G75*
G02*
X114025400Y-70737150I0J-243750D01*
G01*
G37*
G36*
G01*
X115600400Y-70737150D02*
X115600400Y-71299650D01*
G75*
G02*
X115356650Y-71543400I-243750J0D01*
G01*
X114869150Y-71543400D01*
G75*
G02*
X114625400Y-71299650I0J243750D01*
G01*
X114625400Y-70737150D01*
G75*
G02*
X114869150Y-70493400I243750J0D01*
G01*
X115356650Y-70493400D01*
G75*
G02*
X115600400Y-70737150I0J-243750D01*
G01*
G37*
G36*
G01*
X122070550Y-67914800D02*
X122633050Y-67914800D01*
G75*
G02*
X122876800Y-68158550I0J-243750D01*
G01*
X122876800Y-68646050D01*
G75*
G02*
X122633050Y-68889800I-243750J0D01*
G01*
X122070550Y-68889800D01*
G75*
G02*
X121826800Y-68646050I0J243750D01*
G01*
X121826800Y-68158550D01*
G75*
G02*
X122070550Y-67914800I243750J0D01*
G01*
G37*
G36*
G01*
X122070550Y-66339800D02*
X122633050Y-66339800D01*
G75*
G02*
X122876800Y-66583550I0J-243750D01*
G01*
X122876800Y-67071050D01*
G75*
G02*
X122633050Y-67314800I-243750J0D01*
G01*
X122070550Y-67314800D01*
G75*
G02*
X121826800Y-67071050I0J243750D01*
G01*
X121826800Y-66583550D01*
G75*
G02*
X122070550Y-66339800I243750J0D01*
G01*
G37*
G36*
G01*
X151687450Y-89795400D02*
X150724950Y-89795400D01*
G75*
G02*
X150456200Y-89526650I0J268750D01*
G01*
X150456200Y-88989150D01*
G75*
G02*
X150724950Y-88720400I268750J0D01*
G01*
X151687450Y-88720400D01*
G75*
G02*
X151956200Y-88989150I0J-268750D01*
G01*
X151956200Y-89526650D01*
G75*
G02*
X151687450Y-89795400I-268750J0D01*
G01*
G37*
G36*
G01*
X151687450Y-91670400D02*
X150724950Y-91670400D01*
G75*
G02*
X150456200Y-91401650I0J268750D01*
G01*
X150456200Y-90864150D01*
G75*
G02*
X150724950Y-90595400I268750J0D01*
G01*
X151687450Y-90595400D01*
G75*
G02*
X151956200Y-90864150I0J-268750D01*
G01*
X151956200Y-91401650D01*
G75*
G02*
X151687450Y-91670400I-268750J0D01*
G01*
G37*
G36*
G01*
X146843100Y-76987700D02*
X147238100Y-76987700D01*
G75*
G02*
X147410600Y-77160200I0J-172500D01*
G01*
X147410600Y-77505200D01*
G75*
G02*
X147238100Y-77677700I-172500J0D01*
G01*
X146843100Y-77677700D01*
G75*
G02*
X146670600Y-77505200I0J172500D01*
G01*
X146670600Y-77160200D01*
G75*
G02*
X146843100Y-76987700I172500J0D01*
G01*
G37*
G36*
G01*
X146843100Y-76017700D02*
X147238100Y-76017700D01*
G75*
G02*
X147410600Y-76190200I0J-172500D01*
G01*
X147410600Y-76535200D01*
G75*
G02*
X147238100Y-76707700I-172500J0D01*
G01*
X146843100Y-76707700D01*
G75*
G02*
X146670600Y-76535200I0J172500D01*
G01*
X146670600Y-76190200D01*
G75*
G02*
X146843100Y-76017700I172500J0D01*
G01*
G37*
G36*
G01*
X148254100Y-76707700D02*
X147859100Y-76707700D01*
G75*
G02*
X147686600Y-76535200I0J172500D01*
G01*
X147686600Y-76190200D01*
G75*
G02*
X147859100Y-76017700I172500J0D01*
G01*
X148254100Y-76017700D01*
G75*
G02*
X148426600Y-76190200I0J-172500D01*
G01*
X148426600Y-76535200D01*
G75*
G02*
X148254100Y-76707700I-172500J0D01*
G01*
G37*
G36*
G01*
X148254100Y-77677700D02*
X147859100Y-77677700D01*
G75*
G02*
X147686600Y-77505200I0J172500D01*
G01*
X147686600Y-77160200D01*
G75*
G02*
X147859100Y-76987700I172500J0D01*
G01*
X148254100Y-76987700D01*
G75*
G02*
X148426600Y-77160200I0J-172500D01*
G01*
X148426600Y-77505200D01*
G75*
G02*
X148254100Y-77677700I-172500J0D01*
G01*
G37*
G36*
G01*
X148875100Y-76987700D02*
X149270100Y-76987700D01*
G75*
G02*
X149442600Y-77160200I0J-172500D01*
G01*
X149442600Y-77505200D01*
G75*
G02*
X149270100Y-77677700I-172500J0D01*
G01*
X148875100Y-77677700D01*
G75*
G02*
X148702600Y-77505200I0J172500D01*
G01*
X148702600Y-77160200D01*
G75*
G02*
X148875100Y-76987700I172500J0D01*
G01*
G37*
G36*
G01*
X148875100Y-76017700D02*
X149270100Y-76017700D01*
G75*
G02*
X149442600Y-76190200I0J-172500D01*
G01*
X149442600Y-76535200D01*
G75*
G02*
X149270100Y-76707700I-172500J0D01*
G01*
X148875100Y-76707700D01*
G75*
G02*
X148702600Y-76535200I0J172500D01*
G01*
X148702600Y-76190200D01*
G75*
G02*
X148875100Y-76017700I172500J0D01*
G01*
G37*
G36*
G01*
X169216650Y-67518000D02*
X168654150Y-67518000D01*
G75*
G02*
X168410400Y-67274250I0J243750D01*
G01*
X168410400Y-66786750D01*
G75*
G02*
X168654150Y-66543000I243750J0D01*
G01*
X169216650Y-66543000D01*
G75*
G02*
X169460400Y-66786750I0J-243750D01*
G01*
X169460400Y-67274250D01*
G75*
G02*
X169216650Y-67518000I-243750J0D01*
G01*
G37*
G36*
G01*
X169216650Y-69093000D02*
X168654150Y-69093000D01*
G75*
G02*
X168410400Y-68849250I0J243750D01*
G01*
X168410400Y-68361750D01*
G75*
G02*
X168654150Y-68118000I243750J0D01*
G01*
X169216650Y-68118000D01*
G75*
G02*
X169460400Y-68361750I0J-243750D01*
G01*
X169460400Y-68849250D01*
G75*
G02*
X169216650Y-69093000I-243750J0D01*
G01*
G37*
G36*
G01*
X164409400Y-58675850D02*
X164409400Y-58113350D01*
G75*
G02*
X164653150Y-57869600I243750J0D01*
G01*
X165140650Y-57869600D01*
G75*
G02*
X165384400Y-58113350I0J-243750D01*
G01*
X165384400Y-58675850D01*
G75*
G02*
X165140650Y-58919600I-243750J0D01*
G01*
X164653150Y-58919600D01*
G75*
G02*
X164409400Y-58675850I0J243750D01*
G01*
G37*
G36*
G01*
X162834400Y-58675850D02*
X162834400Y-58113350D01*
G75*
G02*
X163078150Y-57869600I243750J0D01*
G01*
X163565650Y-57869600D01*
G75*
G02*
X163809400Y-58113350I0J-243750D01*
G01*
X163809400Y-58675850D01*
G75*
G02*
X163565650Y-58919600I-243750J0D01*
G01*
X163078150Y-58919600D01*
G75*
G02*
X162834400Y-58675850I0J243750D01*
G01*
G37*
G36*
G01*
X143110000Y-93930550D02*
X143110000Y-94893050D01*
G75*
G02*
X142841250Y-95161800I-268750J0D01*
G01*
X142303750Y-95161800D01*
G75*
G02*
X142035000Y-94893050I0J268750D01*
G01*
X142035000Y-93930550D01*
G75*
G02*
X142303750Y-93661800I268750J0D01*
G01*
X142841250Y-93661800D01*
G75*
G02*
X143110000Y-93930550I0J-268750D01*
G01*
G37*
G36*
G01*
X144985000Y-93930550D02*
X144985000Y-94893050D01*
G75*
G02*
X144716250Y-95161800I-268750J0D01*
G01*
X144178750Y-95161800D01*
G75*
G02*
X143910000Y-94893050I0J268750D01*
G01*
X143910000Y-93930550D01*
G75*
G02*
X144178750Y-93661800I268750J0D01*
G01*
X144716250Y-93661800D01*
G75*
G02*
X144985000Y-93930550I0J-268750D01*
G01*
G37*
G36*
G01*
X147375600Y-98499350D02*
X147375600Y-99061850D01*
G75*
G02*
X147131850Y-99305600I-243750J0D01*
G01*
X146644350Y-99305600D01*
G75*
G02*
X146400600Y-99061850I0J243750D01*
G01*
X146400600Y-98499350D01*
G75*
G02*
X146644350Y-98255600I243750J0D01*
G01*
X147131850Y-98255600D01*
G75*
G02*
X147375600Y-98499350I0J-243750D01*
G01*
G37*
G36*
G01*
X148950600Y-98499350D02*
X148950600Y-99061850D01*
G75*
G02*
X148706850Y-99305600I-243750J0D01*
G01*
X148219350Y-99305600D01*
G75*
G02*
X147975600Y-99061850I0J243750D01*
G01*
X147975600Y-98499350D01*
G75*
G02*
X148219350Y-98255600I243750J0D01*
G01*
X148706850Y-98255600D01*
G75*
G02*
X148950600Y-98499350I0J-243750D01*
G01*
G37*
D30*
X148513800Y-94716600D03*
D31*
X147013800Y-93966600D03*
X147013800Y-94466600D03*
X147013800Y-94966600D03*
X147013800Y-95466600D03*
D32*
X147763800Y-96216600D03*
X148263800Y-96216600D03*
X148763800Y-96216600D03*
X149263800Y-96216600D03*
D31*
X150013800Y-95466600D03*
X150013800Y-94966600D03*
X150013800Y-94466600D03*
X150013800Y-93966600D03*
D32*
X149263800Y-93216600D03*
X148763800Y-93216600D03*
X148263800Y-93216600D03*
X147763800Y-93216600D03*
G36*
G01*
X148588150Y-90495400D02*
X149150650Y-90495400D01*
G75*
G02*
X149394400Y-90739150I0J-243750D01*
G01*
X149394400Y-91226650D01*
G75*
G02*
X149150650Y-91470400I-243750J0D01*
G01*
X148588150Y-91470400D01*
G75*
G02*
X148344400Y-91226650I0J243750D01*
G01*
X148344400Y-90739150D01*
G75*
G02*
X148588150Y-90495400I243750J0D01*
G01*
G37*
G36*
G01*
X148588150Y-88920400D02*
X149150650Y-88920400D01*
G75*
G02*
X149394400Y-89164150I0J-243750D01*
G01*
X149394400Y-89651650D01*
G75*
G02*
X149150650Y-89895400I-243750J0D01*
G01*
X148588150Y-89895400D01*
G75*
G02*
X148344400Y-89651650I0J243750D01*
G01*
X148344400Y-89164150D01*
G75*
G02*
X148588150Y-88920400I243750J0D01*
G01*
G37*
G36*
G01*
X143912300Y-92530850D02*
X143912300Y-91568350D01*
G75*
G02*
X144181050Y-91299600I268750J0D01*
G01*
X144718550Y-91299600D01*
G75*
G02*
X144987300Y-91568350I0J-268750D01*
G01*
X144987300Y-92530850D01*
G75*
G02*
X144718550Y-92799600I-268750J0D01*
G01*
X144181050Y-92799600D01*
G75*
G02*
X143912300Y-92530850I0J268750D01*
G01*
G37*
G36*
G01*
X142037300Y-92530850D02*
X142037300Y-91568350D01*
G75*
G02*
X142306050Y-91299600I268750J0D01*
G01*
X142843550Y-91299600D01*
G75*
G02*
X143112300Y-91568350I0J-268750D01*
G01*
X143112300Y-92530850D01*
G75*
G02*
X142843550Y-92799600I-268750J0D01*
G01*
X142306050Y-92799600D01*
G75*
G02*
X142037300Y-92530850I0J268750D01*
G01*
G37*
G36*
G01*
X143912300Y-90600450D02*
X143912300Y-89637950D01*
G75*
G02*
X144181050Y-89369200I268750J0D01*
G01*
X144718550Y-89369200D01*
G75*
G02*
X144987300Y-89637950I0J-268750D01*
G01*
X144987300Y-90600450D01*
G75*
G02*
X144718550Y-90869200I-268750J0D01*
G01*
X144181050Y-90869200D01*
G75*
G02*
X143912300Y-90600450I0J268750D01*
G01*
G37*
G36*
G01*
X142037300Y-90600450D02*
X142037300Y-89637950D01*
G75*
G02*
X142306050Y-89369200I268750J0D01*
G01*
X142843550Y-89369200D01*
G75*
G02*
X143112300Y-89637950I0J-268750D01*
G01*
X143112300Y-90600450D01*
G75*
G02*
X142843550Y-90869200I-268750J0D01*
G01*
X142306050Y-90869200D01*
G75*
G02*
X142037300Y-90600450I0J268750D01*
G01*
G37*
G36*
G01*
X114498400Y-67286450D02*
X114498400Y-66723950D01*
G75*
G02*
X114742150Y-66480200I243750J0D01*
G01*
X115229650Y-66480200D01*
G75*
G02*
X115473400Y-66723950I0J-243750D01*
G01*
X115473400Y-67286450D01*
G75*
G02*
X115229650Y-67530200I-243750J0D01*
G01*
X114742150Y-67530200D01*
G75*
G02*
X114498400Y-67286450I0J243750D01*
G01*
G37*
G36*
G01*
X112923400Y-67286450D02*
X112923400Y-66723950D01*
G75*
G02*
X113167150Y-66480200I243750J0D01*
G01*
X113654650Y-66480200D01*
G75*
G02*
X113898400Y-66723950I0J-243750D01*
G01*
X113898400Y-67286450D01*
G75*
G02*
X113654650Y-67530200I-243750J0D01*
G01*
X113167150Y-67530200D01*
G75*
G02*
X112923400Y-67286450I0J243750D01*
G01*
G37*
G36*
G01*
X117257250Y-74213900D02*
X117819750Y-74213900D01*
G75*
G02*
X118063500Y-74457650I0J-243750D01*
G01*
X118063500Y-74945150D01*
G75*
G02*
X117819750Y-75188900I-243750J0D01*
G01*
X117257250Y-75188900D01*
G75*
G02*
X117013500Y-74945150I0J243750D01*
G01*
X117013500Y-74457650D01*
G75*
G02*
X117257250Y-74213900I243750J0D01*
G01*
G37*
G36*
G01*
X117257250Y-72638900D02*
X117819750Y-72638900D01*
G75*
G02*
X118063500Y-72882650I0J-243750D01*
G01*
X118063500Y-73370150D01*
G75*
G02*
X117819750Y-73613900I-243750J0D01*
G01*
X117257250Y-73613900D01*
G75*
G02*
X117013500Y-73370150I0J243750D01*
G01*
X117013500Y-72882650D01*
G75*
G02*
X117257250Y-72638900I243750J0D01*
G01*
G37*
G36*
G01*
X118041700Y-65940250D02*
X118041700Y-65377750D01*
G75*
G02*
X118285450Y-65134000I243750J0D01*
G01*
X118772950Y-65134000D01*
G75*
G02*
X119016700Y-65377750I0J-243750D01*
G01*
X119016700Y-65940250D01*
G75*
G02*
X118772950Y-66184000I-243750J0D01*
G01*
X118285450Y-66184000D01*
G75*
G02*
X118041700Y-65940250I0J243750D01*
G01*
G37*
G36*
G01*
X116466700Y-65940250D02*
X116466700Y-65377750D01*
G75*
G02*
X116710450Y-65134000I243750J0D01*
G01*
X117197950Y-65134000D01*
G75*
G02*
X117441700Y-65377750I0J-243750D01*
G01*
X117441700Y-65940250D01*
G75*
G02*
X117197950Y-66184000I-243750J0D01*
G01*
X116710450Y-66184000D01*
G75*
G02*
X116466700Y-65940250I0J243750D01*
G01*
G37*
M02*
