G04 #@! TF.GenerationSoftware,KiCad,Pcbnew,(5.1.6)-1*
G04 #@! TF.CreationDate,2020-09-29T16:02:43+02:00*
G04 #@! TF.ProjectId,PrecisionTimer_RevG-1,50726563-6973-4696-9f6e-54696d65725f,rev?*
G04 #@! TF.SameCoordinates,Original*
G04 #@! TF.FileFunction,Copper,L4,Bot*
G04 #@! TF.FilePolarity,Positive*
%FSLAX46Y46*%
G04 Gerber Fmt 4.6, Leading zero omitted, Abs format (unit mm)*
G04 Created by KiCad (PCBNEW (5.1.6)-1) date 2020-09-29 16:02:43*
%MOMM*%
%LPD*%
G01*
G04 APERTURE LIST*
G04 #@! TA.AperFunction,NonConductor*
%ADD10C,0.300000*%
G04 #@! TD*
G04 #@! TA.AperFunction,ComponentPad*
%ADD11C,1.600000*%
G04 #@! TD*
G04 #@! TA.AperFunction,ComponentPad*
%ADD12C,1.500000*%
G04 #@! TD*
G04 #@! TA.AperFunction,ComponentPad*
%ADD13R,1.500000X1.600000*%
G04 #@! TD*
G04 #@! TA.AperFunction,ComponentPad*
%ADD14O,3.000000X1.600000*%
G04 #@! TD*
G04 #@! TA.AperFunction,ComponentPad*
%ADD15R,1.800000X4.400000*%
G04 #@! TD*
G04 #@! TA.AperFunction,ComponentPad*
%ADD16O,1.800000X4.000000*%
G04 #@! TD*
G04 #@! TA.AperFunction,ComponentPad*
%ADD17O,4.000000X1.800000*%
G04 #@! TD*
G04 #@! TA.AperFunction,ComponentPad*
%ADD18C,1.400000*%
G04 #@! TD*
G04 #@! TA.AperFunction,SMDPad,CuDef*
%ADD19C,0.700000*%
G04 #@! TD*
G04 #@! TA.AperFunction,SMDPad,CuDef*
%ADD20R,1.000000X0.700000*%
G04 #@! TD*
G04 #@! TA.AperFunction,SMDPad,CuDef*
%ADD21R,0.900000X1.400000*%
G04 #@! TD*
G04 #@! TA.AperFunction,SMDPad,CuDef*
%ADD22R,0.700000X1.000000*%
G04 #@! TD*
G04 #@! TA.AperFunction,SMDPad,CuDef*
%ADD23R,1.200000X1.450000*%
G04 #@! TD*
G04 #@! TA.AperFunction,SMDPad,CuDef*
%ADD24R,1.200000X1.150000*%
G04 #@! TD*
G04 #@! TA.AperFunction,ComponentPad*
%ADD25C,2.400000*%
G04 #@! TD*
G04 #@! TA.AperFunction,ComponentPad*
%ADD26C,2.000000*%
G04 #@! TD*
G04 #@! TA.AperFunction,SMDPad,CuDef*
%ADD27C,1.000000*%
G04 #@! TD*
G04 #@! TA.AperFunction,SMDPad,CuDef*
%ADD28R,0.450000X1.400000*%
G04 #@! TD*
G04 #@! TA.AperFunction,SMDPad,CuDef*
%ADD29R,0.900000X0.800000*%
G04 #@! TD*
G04 #@! TA.AperFunction,SMDPad,CuDef*
%ADD30R,1.800000X1.800000*%
G04 #@! TD*
G04 #@! TA.AperFunction,SMDPad,CuDef*
%ADD31R,0.750000X0.300000*%
G04 #@! TD*
G04 #@! TA.AperFunction,SMDPad,CuDef*
%ADD32R,0.300000X0.750000*%
G04 #@! TD*
G04 #@! TA.AperFunction,ViaPad*
%ADD33C,0.600000*%
G04 #@! TD*
G04 #@! TA.AperFunction,ViaPad*
%ADD34C,0.450000*%
G04 #@! TD*
G04 #@! TA.AperFunction,ViaPad*
%ADD35C,0.500000*%
G04 #@! TD*
G04 #@! TA.AperFunction,ViaPad*
%ADD36C,0.800000*%
G04 #@! TD*
G04 #@! TA.AperFunction,ViaPad*
%ADD37C,0.550000*%
G04 #@! TD*
G04 #@! TA.AperFunction,Conductor*
%ADD38C,0.250000*%
G04 #@! TD*
G04 #@! TA.AperFunction,Conductor*
%ADD39C,0.500000*%
G04 #@! TD*
G04 #@! TA.AperFunction,Conductor*
%ADD40C,0.300000*%
G04 #@! TD*
G04 #@! TA.AperFunction,Conductor*
%ADD41C,1.000000*%
G04 #@! TD*
G04 #@! TA.AperFunction,Conductor*
%ADD42C,0.350000*%
G04 #@! TD*
G04 #@! TA.AperFunction,Conductor*
%ADD43C,0.800000*%
G04 #@! TD*
G04 #@! TA.AperFunction,Conductor*
%ADD44C,0.600000*%
G04 #@! TD*
G04 #@! TA.AperFunction,Conductor*
%ADD45C,0.200000*%
G04 #@! TD*
G04 #@! TA.AperFunction,Conductor*
%ADD46C,0.400000*%
G04 #@! TD*
G04 #@! TA.AperFunction,Conductor*
%ADD47C,1.500000*%
G04 #@! TD*
G04 #@! TA.AperFunction,Conductor*
%ADD48C,0.254000*%
G04 #@! TD*
G04 #@! TA.AperFunction,Conductor*
%ADD49C,0.025400*%
G04 #@! TD*
G04 APERTURE END LIST*
D10*
X114814314Y-56295171D02*
X114814314Y-57295171D01*
X114457171Y-55723742D02*
X114100028Y-56795171D01*
X115028600Y-56795171D01*
G04 #@! TA.AperFunction,SMDPad,CuDef*
G36*
G01*
X167507400Y-86184450D02*
X167507400Y-85671950D01*
G75*
G02*
X167726150Y-85453200I218750J0D01*
G01*
X168163650Y-85453200D01*
G75*
G02*
X168382400Y-85671950I0J-218750D01*
G01*
X168382400Y-86184450D01*
G75*
G02*
X168163650Y-86403200I-218750J0D01*
G01*
X167726150Y-86403200D01*
G75*
G02*
X167507400Y-86184450I0J218750D01*
G01*
G37*
G04 #@! TD.AperFunction*
G04 #@! TA.AperFunction,SMDPad,CuDef*
G36*
G01*
X165932400Y-86184450D02*
X165932400Y-85671950D01*
G75*
G02*
X166151150Y-85453200I218750J0D01*
G01*
X166588650Y-85453200D01*
G75*
G02*
X166807400Y-85671950I0J-218750D01*
G01*
X166807400Y-86184450D01*
G75*
G02*
X166588650Y-86403200I-218750J0D01*
G01*
X166151150Y-86403200D01*
G75*
G02*
X165932400Y-86184450I0J218750D01*
G01*
G37*
G04 #@! TD.AperFunction*
D11*
X160324800Y-58430400D03*
D12*
X160324800Y-60930400D03*
X160324800Y-62930400D03*
D13*
X160324800Y-65430400D03*
D14*
X163034800Y-55360400D03*
X163034800Y-68500400D03*
D15*
X161366200Y-94818200D03*
D16*
X167488400Y-94818200D03*
D17*
X164185600Y-90017600D03*
D18*
X165789800Y-80997400D03*
X165789800Y-75497400D03*
G04 #@! TA.AperFunction,SMDPad,CuDef*
G36*
G01*
X145209550Y-76880200D02*
X145722050Y-76880200D01*
G75*
G02*
X145940800Y-77098950I0J-218750D01*
G01*
X145940800Y-77536450D01*
G75*
G02*
X145722050Y-77755200I-218750J0D01*
G01*
X145209550Y-77755200D01*
G75*
G02*
X144990800Y-77536450I0J218750D01*
G01*
X144990800Y-77098950D01*
G75*
G02*
X145209550Y-76880200I218750J0D01*
G01*
G37*
G04 #@! TD.AperFunction*
G04 #@! TA.AperFunction,SMDPad,CuDef*
G36*
G01*
X145209550Y-75305200D02*
X145722050Y-75305200D01*
G75*
G02*
X145940800Y-75523950I0J-218750D01*
G01*
X145940800Y-75961450D01*
G75*
G02*
X145722050Y-76180200I-218750J0D01*
G01*
X145209550Y-76180200D01*
G75*
G02*
X144990800Y-75961450I0J218750D01*
G01*
X144990800Y-75523950D01*
G75*
G02*
X145209550Y-75305200I218750J0D01*
G01*
G37*
G04 #@! TD.AperFunction*
G04 #@! TA.AperFunction,SMDPad,CuDef*
G36*
G01*
X151948400Y-75816750D02*
X151948400Y-76329250D01*
G75*
G02*
X151729650Y-76548000I-218750J0D01*
G01*
X151292150Y-76548000D01*
G75*
G02*
X151073400Y-76329250I0J218750D01*
G01*
X151073400Y-75816750D01*
G75*
G02*
X151292150Y-75598000I218750J0D01*
G01*
X151729650Y-75598000D01*
G75*
G02*
X151948400Y-75816750I0J-218750D01*
G01*
G37*
G04 #@! TD.AperFunction*
G04 #@! TA.AperFunction,SMDPad,CuDef*
G36*
G01*
X153523400Y-75816750D02*
X153523400Y-76329250D01*
G75*
G02*
X153304650Y-76548000I-218750J0D01*
G01*
X152867150Y-76548000D01*
G75*
G02*
X152648400Y-76329250I0J218750D01*
G01*
X152648400Y-75816750D01*
G75*
G02*
X152867150Y-75598000I218750J0D01*
G01*
X153304650Y-75598000D01*
G75*
G02*
X153523400Y-75816750I0J-218750D01*
G01*
G37*
G04 #@! TD.AperFunction*
D19*
X145592800Y-95694500D03*
D20*
X168645200Y-73690200D03*
X168645200Y-74790200D03*
X168645200Y-75890200D03*
X168645200Y-76990200D03*
X168645200Y-78090200D03*
X168645200Y-79190200D03*
X168645200Y-80290200D03*
X168645200Y-81390200D03*
D21*
X172435200Y-83040200D03*
D22*
X171285200Y-83240200D03*
D23*
X170135200Y-83015200D03*
D24*
X172285200Y-72615200D03*
X169695200Y-72615200D03*
D11*
X169799000Y-85928200D03*
X169799000Y-88468200D03*
D25*
X98298000Y-63728600D03*
X93319600Y-63728600D03*
X93319600Y-58750200D03*
X98298000Y-58750200D03*
D26*
X95808800Y-61239400D03*
D25*
X98298000Y-79908400D03*
X93319600Y-79908400D03*
X93319600Y-74930000D03*
X98298000Y-74930000D03*
D26*
X95808800Y-77419200D03*
D25*
X98298000Y-96088200D03*
X93319600Y-96088200D03*
X93319600Y-91109800D03*
X98298000Y-91109800D03*
D26*
X95808800Y-93599000D03*
G04 #@! TA.AperFunction,SMDPad,CuDef*
G36*
G01*
X120492000Y-85193850D02*
X120492000Y-84681350D01*
G75*
G02*
X120710750Y-84462600I218750J0D01*
G01*
X121148250Y-84462600D01*
G75*
G02*
X121367000Y-84681350I0J-218750D01*
G01*
X121367000Y-85193850D01*
G75*
G02*
X121148250Y-85412600I-218750J0D01*
G01*
X120710750Y-85412600D01*
G75*
G02*
X120492000Y-85193850I0J218750D01*
G01*
G37*
G04 #@! TD.AperFunction*
G04 #@! TA.AperFunction,SMDPad,CuDef*
G36*
G01*
X118917000Y-85193850D02*
X118917000Y-84681350D01*
G75*
G02*
X119135750Y-84462600I218750J0D01*
G01*
X119573250Y-84462600D01*
G75*
G02*
X119792000Y-84681350I0J-218750D01*
G01*
X119792000Y-85193850D01*
G75*
G02*
X119573250Y-85412600I-218750J0D01*
G01*
X119135750Y-85412600D01*
G75*
G02*
X118917000Y-85193850I0J218750D01*
G01*
G37*
G04 #@! TD.AperFunction*
G04 #@! TA.AperFunction,SMDPad,CuDef*
G36*
G01*
X142336000Y-96750850D02*
X142336000Y-96238350D01*
G75*
G02*
X142554750Y-96019600I218750J0D01*
G01*
X142992250Y-96019600D01*
G75*
G02*
X143211000Y-96238350I0J-218750D01*
G01*
X143211000Y-96750850D01*
G75*
G02*
X142992250Y-96969600I-218750J0D01*
G01*
X142554750Y-96969600D01*
G75*
G02*
X142336000Y-96750850I0J218750D01*
G01*
G37*
G04 #@! TD.AperFunction*
G04 #@! TA.AperFunction,SMDPad,CuDef*
G36*
G01*
X140761000Y-96750850D02*
X140761000Y-96238350D01*
G75*
G02*
X140979750Y-96019600I218750J0D01*
G01*
X141417250Y-96019600D01*
G75*
G02*
X141636000Y-96238350I0J-218750D01*
G01*
X141636000Y-96750850D01*
G75*
G02*
X141417250Y-96969600I-218750J0D01*
G01*
X140979750Y-96969600D01*
G75*
G02*
X140761000Y-96750850I0J218750D01*
G01*
G37*
G04 #@! TD.AperFunction*
D27*
X150799800Y-67335400D03*
X112420400Y-64693800D03*
X129895600Y-68605400D03*
X128752600Y-69824600D03*
X110896400Y-73164700D03*
X156616400Y-87706200D03*
X164084000Y-91998800D03*
X143103600Y-98526600D03*
G04 #@! TA.AperFunction,SMDPad,CuDef*
G36*
G01*
X110132150Y-68168000D02*
X110644650Y-68168000D01*
G75*
G02*
X110863400Y-68386750I0J-218750D01*
G01*
X110863400Y-68824250D01*
G75*
G02*
X110644650Y-69043000I-218750J0D01*
G01*
X110132150Y-69043000D01*
G75*
G02*
X109913400Y-68824250I0J218750D01*
G01*
X109913400Y-68386750D01*
G75*
G02*
X110132150Y-68168000I218750J0D01*
G01*
G37*
G04 #@! TD.AperFunction*
G04 #@! TA.AperFunction,SMDPad,CuDef*
G36*
G01*
X110132150Y-66593000D02*
X110644650Y-66593000D01*
G75*
G02*
X110863400Y-66811750I0J-218750D01*
G01*
X110863400Y-67249250D01*
G75*
G02*
X110644650Y-67468000I-218750J0D01*
G01*
X110132150Y-67468000D01*
G75*
G02*
X109913400Y-67249250I0J218750D01*
G01*
X109913400Y-66811750D01*
G75*
G02*
X110132150Y-66593000I218750J0D01*
G01*
G37*
G04 #@! TD.AperFunction*
G04 #@! TA.AperFunction,SMDPad,CuDef*
G36*
G01*
X130718850Y-82277700D02*
X131231350Y-82277700D01*
G75*
G02*
X131450100Y-82496450I0J-218750D01*
G01*
X131450100Y-82933950D01*
G75*
G02*
X131231350Y-83152700I-218750J0D01*
G01*
X130718850Y-83152700D01*
G75*
G02*
X130500100Y-82933950I0J218750D01*
G01*
X130500100Y-82496450D01*
G75*
G02*
X130718850Y-82277700I218750J0D01*
G01*
G37*
G04 #@! TD.AperFunction*
G04 #@! TA.AperFunction,SMDPad,CuDef*
G36*
G01*
X130718850Y-80702700D02*
X131231350Y-80702700D01*
G75*
G02*
X131450100Y-80921450I0J-218750D01*
G01*
X131450100Y-81358950D01*
G75*
G02*
X131231350Y-81577700I-218750J0D01*
G01*
X130718850Y-81577700D01*
G75*
G02*
X130500100Y-81358950I0J218750D01*
G01*
X130500100Y-80921450D01*
G75*
G02*
X130718850Y-80702700I218750J0D01*
G01*
G37*
G04 #@! TD.AperFunction*
G04 #@! TA.AperFunction,SMDPad,CuDef*
G36*
G01*
X132979450Y-84271600D02*
X133491950Y-84271600D01*
G75*
G02*
X133710700Y-84490350I0J-218750D01*
G01*
X133710700Y-84927850D01*
G75*
G02*
X133491950Y-85146600I-218750J0D01*
G01*
X132979450Y-85146600D01*
G75*
G02*
X132760700Y-84927850I0J218750D01*
G01*
X132760700Y-84490350D01*
G75*
G02*
X132979450Y-84271600I218750J0D01*
G01*
G37*
G04 #@! TD.AperFunction*
G04 #@! TA.AperFunction,SMDPad,CuDef*
G36*
G01*
X132979450Y-82696600D02*
X133491950Y-82696600D01*
G75*
G02*
X133710700Y-82915350I0J-218750D01*
G01*
X133710700Y-83352850D01*
G75*
G02*
X133491950Y-83571600I-218750J0D01*
G01*
X132979450Y-83571600D01*
G75*
G02*
X132760700Y-83352850I0J218750D01*
G01*
X132760700Y-82915350D01*
G75*
G02*
X132979450Y-82696600I218750J0D01*
G01*
G37*
G04 #@! TD.AperFunction*
G04 #@! TA.AperFunction,SMDPad,CuDef*
G36*
G01*
X113619800Y-85570350D02*
X113619800Y-86082850D01*
G75*
G02*
X113401050Y-86301600I-218750J0D01*
G01*
X112963550Y-86301600D01*
G75*
G02*
X112744800Y-86082850I0J218750D01*
G01*
X112744800Y-85570350D01*
G75*
G02*
X112963550Y-85351600I218750J0D01*
G01*
X113401050Y-85351600D01*
G75*
G02*
X113619800Y-85570350I0J-218750D01*
G01*
G37*
G04 #@! TD.AperFunction*
G04 #@! TA.AperFunction,SMDPad,CuDef*
G36*
G01*
X115194800Y-85570350D02*
X115194800Y-86082850D01*
G75*
G02*
X114976050Y-86301600I-218750J0D01*
G01*
X114538550Y-86301600D01*
G75*
G02*
X114319800Y-86082850I0J218750D01*
G01*
X114319800Y-85570350D01*
G75*
G02*
X114538550Y-85351600I218750J0D01*
G01*
X114976050Y-85351600D01*
G75*
G02*
X115194800Y-85570350I0J-218750D01*
G01*
G37*
G04 #@! TD.AperFunction*
G04 #@! TA.AperFunction,SMDPad,CuDef*
G36*
G01*
X121914400Y-91696250D02*
X121914400Y-91183750D01*
G75*
G02*
X122133150Y-90965000I218750J0D01*
G01*
X122570650Y-90965000D01*
G75*
G02*
X122789400Y-91183750I0J-218750D01*
G01*
X122789400Y-91696250D01*
G75*
G02*
X122570650Y-91915000I-218750J0D01*
G01*
X122133150Y-91915000D01*
G75*
G02*
X121914400Y-91696250I0J218750D01*
G01*
G37*
G04 #@! TD.AperFunction*
G04 #@! TA.AperFunction,SMDPad,CuDef*
G36*
G01*
X120339400Y-91696250D02*
X120339400Y-91183750D01*
G75*
G02*
X120558150Y-90965000I218750J0D01*
G01*
X120995650Y-90965000D01*
G75*
G02*
X121214400Y-91183750I0J-218750D01*
G01*
X121214400Y-91696250D01*
G75*
G02*
X120995650Y-91915000I-218750J0D01*
G01*
X120558150Y-91915000D01*
G75*
G02*
X120339400Y-91696250I0J218750D01*
G01*
G37*
G04 #@! TD.AperFunction*
G04 #@! TA.AperFunction,SMDPad,CuDef*
G36*
G01*
X117429800Y-82522350D02*
X117429800Y-83034850D01*
G75*
G02*
X117211050Y-83253600I-218750J0D01*
G01*
X116773550Y-83253600D01*
G75*
G02*
X116554800Y-83034850I0J218750D01*
G01*
X116554800Y-82522350D01*
G75*
G02*
X116773550Y-82303600I218750J0D01*
G01*
X117211050Y-82303600D01*
G75*
G02*
X117429800Y-82522350I0J-218750D01*
G01*
G37*
G04 #@! TD.AperFunction*
G04 #@! TA.AperFunction,SMDPad,CuDef*
G36*
G01*
X119004800Y-82522350D02*
X119004800Y-83034850D01*
G75*
G02*
X118786050Y-83253600I-218750J0D01*
G01*
X118348550Y-83253600D01*
G75*
G02*
X118129800Y-83034850I0J218750D01*
G01*
X118129800Y-82522350D01*
G75*
G02*
X118348550Y-82303600I218750J0D01*
G01*
X118786050Y-82303600D01*
G75*
G02*
X119004800Y-82522350I0J-218750D01*
G01*
G37*
G04 #@! TD.AperFunction*
G04 #@! TA.AperFunction,SMDPad,CuDef*
G36*
G01*
X116109000Y-87424550D02*
X116109000Y-87937050D01*
G75*
G02*
X115890250Y-88155800I-218750J0D01*
G01*
X115452750Y-88155800D01*
G75*
G02*
X115234000Y-87937050I0J218750D01*
G01*
X115234000Y-87424550D01*
G75*
G02*
X115452750Y-87205800I218750J0D01*
G01*
X115890250Y-87205800D01*
G75*
G02*
X116109000Y-87424550I0J-218750D01*
G01*
G37*
G04 #@! TD.AperFunction*
G04 #@! TA.AperFunction,SMDPad,CuDef*
G36*
G01*
X117684000Y-87424550D02*
X117684000Y-87937050D01*
G75*
G02*
X117465250Y-88155800I-218750J0D01*
G01*
X117027750Y-88155800D01*
G75*
G02*
X116809000Y-87937050I0J218750D01*
G01*
X116809000Y-87424550D01*
G75*
G02*
X117027750Y-87205800I218750J0D01*
G01*
X117465250Y-87205800D01*
G75*
G02*
X117684000Y-87424550I0J-218750D01*
G01*
G37*
G04 #@! TD.AperFunction*
G04 #@! TA.AperFunction,SMDPad,CuDef*
G36*
G01*
X134466650Y-73133800D02*
X133554150Y-73133800D01*
G75*
G02*
X133310400Y-72890050I0J243750D01*
G01*
X133310400Y-72402550D01*
G75*
G02*
X133554150Y-72158800I243750J0D01*
G01*
X134466650Y-72158800D01*
G75*
G02*
X134710400Y-72402550I0J-243750D01*
G01*
X134710400Y-72890050D01*
G75*
G02*
X134466650Y-73133800I-243750J0D01*
G01*
G37*
G04 #@! TD.AperFunction*
G04 #@! TA.AperFunction,SMDPad,CuDef*
G36*
G01*
X134466650Y-75008800D02*
X133554150Y-75008800D01*
G75*
G02*
X133310400Y-74765050I0J243750D01*
G01*
X133310400Y-74277550D01*
G75*
G02*
X133554150Y-74033800I243750J0D01*
G01*
X134466650Y-74033800D01*
G75*
G02*
X134710400Y-74277550I0J-243750D01*
G01*
X134710400Y-74765050D01*
G75*
G02*
X134466650Y-75008800I-243750J0D01*
G01*
G37*
G04 #@! TD.AperFunction*
G04 #@! TA.AperFunction,SMDPad,CuDef*
G36*
G01*
X135968450Y-73081400D02*
X135455950Y-73081400D01*
G75*
G02*
X135237200Y-72862650I0J218750D01*
G01*
X135237200Y-72425150D01*
G75*
G02*
X135455950Y-72206400I218750J0D01*
G01*
X135968450Y-72206400D01*
G75*
G02*
X136187200Y-72425150I0J-218750D01*
G01*
X136187200Y-72862650D01*
G75*
G02*
X135968450Y-73081400I-218750J0D01*
G01*
G37*
G04 #@! TD.AperFunction*
G04 #@! TA.AperFunction,SMDPad,CuDef*
G36*
G01*
X135968450Y-74656400D02*
X135455950Y-74656400D01*
G75*
G02*
X135237200Y-74437650I0J218750D01*
G01*
X135237200Y-74000150D01*
G75*
G02*
X135455950Y-73781400I218750J0D01*
G01*
X135968450Y-73781400D01*
G75*
G02*
X136187200Y-74000150I0J-218750D01*
G01*
X136187200Y-74437650D01*
G75*
G02*
X135968450Y-74656400I-218750J0D01*
G01*
G37*
G04 #@! TD.AperFunction*
G04 #@! TA.AperFunction,SMDPad,CuDef*
G36*
G01*
X136200400Y-70914550D02*
X136200400Y-71427050D01*
G75*
G02*
X135981650Y-71645800I-218750J0D01*
G01*
X135544150Y-71645800D01*
G75*
G02*
X135325400Y-71427050I0J218750D01*
G01*
X135325400Y-70914550D01*
G75*
G02*
X135544150Y-70695800I218750J0D01*
G01*
X135981650Y-70695800D01*
G75*
G02*
X136200400Y-70914550I0J-218750D01*
G01*
G37*
G04 #@! TD.AperFunction*
G04 #@! TA.AperFunction,SMDPad,CuDef*
G36*
G01*
X137775400Y-70914550D02*
X137775400Y-71427050D01*
G75*
G02*
X137556650Y-71645800I-218750J0D01*
G01*
X137119150Y-71645800D01*
G75*
G02*
X136900400Y-71427050I0J218750D01*
G01*
X136900400Y-70914550D01*
G75*
G02*
X137119150Y-70695800I218750J0D01*
G01*
X137556650Y-70695800D01*
G75*
G02*
X137775400Y-70914550I0J-218750D01*
G01*
G37*
G04 #@! TD.AperFunction*
G04 #@! TA.AperFunction,SMDPad,CuDef*
G36*
G01*
X142999750Y-73933800D02*
X143512250Y-73933800D01*
G75*
G02*
X143731000Y-74152550I0J-218750D01*
G01*
X143731000Y-74590050D01*
G75*
G02*
X143512250Y-74808800I-218750J0D01*
G01*
X142999750Y-74808800D01*
G75*
G02*
X142781000Y-74590050I0J218750D01*
G01*
X142781000Y-74152550D01*
G75*
G02*
X142999750Y-73933800I218750J0D01*
G01*
G37*
G04 #@! TD.AperFunction*
G04 #@! TA.AperFunction,SMDPad,CuDef*
G36*
G01*
X142999750Y-72358800D02*
X143512250Y-72358800D01*
G75*
G02*
X143731000Y-72577550I0J-218750D01*
G01*
X143731000Y-73015050D01*
G75*
G02*
X143512250Y-73233800I-218750J0D01*
G01*
X142999750Y-73233800D01*
G75*
G02*
X142781000Y-73015050I0J218750D01*
G01*
X142781000Y-72577550D01*
G75*
G02*
X142999750Y-72358800I218750J0D01*
G01*
G37*
G04 #@! TD.AperFunction*
G04 #@! TA.AperFunction,SMDPad,CuDef*
G36*
G01*
X140334050Y-68917400D02*
X139421550Y-68917400D01*
G75*
G02*
X139177800Y-68673650I0J243750D01*
G01*
X139177800Y-68186150D01*
G75*
G02*
X139421550Y-67942400I243750J0D01*
G01*
X140334050Y-67942400D01*
G75*
G02*
X140577800Y-68186150I0J-243750D01*
G01*
X140577800Y-68673650D01*
G75*
G02*
X140334050Y-68917400I-243750J0D01*
G01*
G37*
G04 #@! TD.AperFunction*
G04 #@! TA.AperFunction,SMDPad,CuDef*
G36*
G01*
X140334050Y-70792400D02*
X139421550Y-70792400D01*
G75*
G02*
X139177800Y-70548650I0J243750D01*
G01*
X139177800Y-70061150D01*
G75*
G02*
X139421550Y-69817400I243750J0D01*
G01*
X140334050Y-69817400D01*
G75*
G02*
X140577800Y-70061150I0J-243750D01*
G01*
X140577800Y-70548650D01*
G75*
G02*
X140334050Y-70792400I-243750J0D01*
G01*
G37*
G04 #@! TD.AperFunction*
G04 #@! TA.AperFunction,SMDPad,CuDef*
G36*
G01*
X129110450Y-75164200D02*
X128597950Y-75164200D01*
G75*
G02*
X128379200Y-74945450I0J218750D01*
G01*
X128379200Y-74507950D01*
G75*
G02*
X128597950Y-74289200I218750J0D01*
G01*
X129110450Y-74289200D01*
G75*
G02*
X129329200Y-74507950I0J-218750D01*
G01*
X129329200Y-74945450D01*
G75*
G02*
X129110450Y-75164200I-218750J0D01*
G01*
G37*
G04 #@! TD.AperFunction*
G04 #@! TA.AperFunction,SMDPad,CuDef*
G36*
G01*
X129110450Y-76739200D02*
X128597950Y-76739200D01*
G75*
G02*
X128379200Y-76520450I0J218750D01*
G01*
X128379200Y-76082950D01*
G75*
G02*
X128597950Y-75864200I218750J0D01*
G01*
X129110450Y-75864200D01*
G75*
G02*
X129329200Y-76082950I0J-218750D01*
G01*
X129329200Y-76520450D01*
G75*
G02*
X129110450Y-76739200I-218750J0D01*
G01*
G37*
G04 #@! TD.AperFunction*
D28*
X155915000Y-94116800D03*
X155265000Y-94116800D03*
X154615000Y-94116800D03*
X153965000Y-94116800D03*
X153965000Y-98516800D03*
X154615000Y-98516800D03*
X155265000Y-98516800D03*
X155915000Y-98516800D03*
D29*
X158791400Y-88595200D03*
X160791400Y-89545200D03*
X160791400Y-87645200D03*
G04 #@! TA.AperFunction,SMDPad,CuDef*
G36*
G01*
X137056150Y-73781400D02*
X137568650Y-73781400D01*
G75*
G02*
X137787400Y-74000150I0J-218750D01*
G01*
X137787400Y-74437650D01*
G75*
G02*
X137568650Y-74656400I-218750J0D01*
G01*
X137056150Y-74656400D01*
G75*
G02*
X136837400Y-74437650I0J218750D01*
G01*
X136837400Y-74000150D01*
G75*
G02*
X137056150Y-73781400I218750J0D01*
G01*
G37*
G04 #@! TD.AperFunction*
G04 #@! TA.AperFunction,SMDPad,CuDef*
G36*
G01*
X137056150Y-72206400D02*
X137568650Y-72206400D01*
G75*
G02*
X137787400Y-72425150I0J-218750D01*
G01*
X137787400Y-72862650D01*
G75*
G02*
X137568650Y-73081400I-218750J0D01*
G01*
X137056150Y-73081400D01*
G75*
G02*
X136837400Y-72862650I0J218750D01*
G01*
X136837400Y-72425150D01*
G75*
G02*
X137056150Y-72206400I218750J0D01*
G01*
G37*
G04 #@! TD.AperFunction*
G04 #@! TA.AperFunction,SMDPad,CuDef*
G36*
G01*
X157888650Y-95687400D02*
X157376150Y-95687400D01*
G75*
G02*
X157157400Y-95468650I0J218750D01*
G01*
X157157400Y-95031150D01*
G75*
G02*
X157376150Y-94812400I218750J0D01*
G01*
X157888650Y-94812400D01*
G75*
G02*
X158107400Y-95031150I0J-218750D01*
G01*
X158107400Y-95468650D01*
G75*
G02*
X157888650Y-95687400I-218750J0D01*
G01*
G37*
G04 #@! TD.AperFunction*
G04 #@! TA.AperFunction,SMDPad,CuDef*
G36*
G01*
X157888650Y-97262400D02*
X157376150Y-97262400D01*
G75*
G02*
X157157400Y-97043650I0J218750D01*
G01*
X157157400Y-96606150D01*
G75*
G02*
X157376150Y-96387400I218750J0D01*
G01*
X157888650Y-96387400D01*
G75*
G02*
X158107400Y-96606150I0J-218750D01*
G01*
X158107400Y-97043650D01*
G75*
G02*
X157888650Y-97262400I-218750J0D01*
G01*
G37*
G04 #@! TD.AperFunction*
G04 #@! TA.AperFunction,SMDPad,CuDef*
G36*
G01*
X151948400Y-77315350D02*
X151948400Y-77827850D01*
G75*
G02*
X151729650Y-78046600I-218750J0D01*
G01*
X151292150Y-78046600D01*
G75*
G02*
X151073400Y-77827850I0J218750D01*
G01*
X151073400Y-77315350D01*
G75*
G02*
X151292150Y-77096600I218750J0D01*
G01*
X151729650Y-77096600D01*
G75*
G02*
X151948400Y-77315350I0J-218750D01*
G01*
G37*
G04 #@! TD.AperFunction*
G04 #@! TA.AperFunction,SMDPad,CuDef*
G36*
G01*
X153523400Y-77315350D02*
X153523400Y-77827850D01*
G75*
G02*
X153304650Y-78046600I-218750J0D01*
G01*
X152867150Y-78046600D01*
G75*
G02*
X152648400Y-77827850I0J218750D01*
G01*
X152648400Y-77315350D01*
G75*
G02*
X152867150Y-77096600I218750J0D01*
G01*
X153304650Y-77096600D01*
G75*
G02*
X153523400Y-77315350I0J-218750D01*
G01*
G37*
G04 #@! TD.AperFunction*
G04 #@! TA.AperFunction,SMDPad,CuDef*
G36*
G01*
X156174600Y-91938800D02*
X156174600Y-90788800D01*
G75*
G02*
X156424600Y-90538800I250000J0D01*
G01*
X157524600Y-90538800D01*
G75*
G02*
X157774600Y-90788800I0J-250000D01*
G01*
X157774600Y-91938800D01*
G75*
G02*
X157524600Y-92188800I-250000J0D01*
G01*
X156424600Y-92188800D01*
G75*
G02*
X156174600Y-91938800I0J250000D01*
G01*
G37*
G04 #@! TD.AperFunction*
G04 #@! TA.AperFunction,SMDPad,CuDef*
G36*
G01*
X153324600Y-91938800D02*
X153324600Y-90788800D01*
G75*
G02*
X153574600Y-90538800I250000J0D01*
G01*
X154674600Y-90538800D01*
G75*
G02*
X154924600Y-90788800I0J-250000D01*
G01*
X154924600Y-91938800D01*
G75*
G02*
X154674600Y-92188800I-250000J0D01*
G01*
X153574600Y-92188800D01*
G75*
G02*
X153324600Y-91938800I0J250000D01*
G01*
G37*
G04 #@! TD.AperFunction*
D27*
X146888200Y-91313000D03*
G04 #@! TA.AperFunction,SMDPad,CuDef*
G36*
G01*
X130096550Y-75864100D02*
X130609050Y-75864100D01*
G75*
G02*
X130827800Y-76082850I0J-218750D01*
G01*
X130827800Y-76520350D01*
G75*
G02*
X130609050Y-76739100I-218750J0D01*
G01*
X130096550Y-76739100D01*
G75*
G02*
X129877800Y-76520350I0J218750D01*
G01*
X129877800Y-76082850D01*
G75*
G02*
X130096550Y-75864100I218750J0D01*
G01*
G37*
G04 #@! TD.AperFunction*
G04 #@! TA.AperFunction,SMDPad,CuDef*
G36*
G01*
X130096550Y-74289100D02*
X130609050Y-74289100D01*
G75*
G02*
X130827800Y-74507850I0J-218750D01*
G01*
X130827800Y-74945350D01*
G75*
G02*
X130609050Y-75164100I-218750J0D01*
G01*
X130096550Y-75164100D01*
G75*
G02*
X129877800Y-74945350I0J218750D01*
G01*
X129877800Y-74507850D01*
G75*
G02*
X130096550Y-74289100I218750J0D01*
G01*
G37*
G04 #@! TD.AperFunction*
G04 #@! TA.AperFunction,SMDPad,CuDef*
G36*
G01*
X113975400Y-70762150D02*
X113975400Y-71274650D01*
G75*
G02*
X113756650Y-71493400I-218750J0D01*
G01*
X113319150Y-71493400D01*
G75*
G02*
X113100400Y-71274650I0J218750D01*
G01*
X113100400Y-70762150D01*
G75*
G02*
X113319150Y-70543400I218750J0D01*
G01*
X113756650Y-70543400D01*
G75*
G02*
X113975400Y-70762150I0J-218750D01*
G01*
G37*
G04 #@! TD.AperFunction*
G04 #@! TA.AperFunction,SMDPad,CuDef*
G36*
G01*
X115550400Y-70762150D02*
X115550400Y-71274650D01*
G75*
G02*
X115331650Y-71493400I-218750J0D01*
G01*
X114894150Y-71493400D01*
G75*
G02*
X114675400Y-71274650I0J218750D01*
G01*
X114675400Y-70762150D01*
G75*
G02*
X114894150Y-70543400I218750J0D01*
G01*
X115331650Y-70543400D01*
G75*
G02*
X115550400Y-70762150I0J-218750D01*
G01*
G37*
G04 #@! TD.AperFunction*
G04 #@! TA.AperFunction,SMDPad,CuDef*
G36*
G01*
X122095550Y-67964800D02*
X122608050Y-67964800D01*
G75*
G02*
X122826800Y-68183550I0J-218750D01*
G01*
X122826800Y-68621050D01*
G75*
G02*
X122608050Y-68839800I-218750J0D01*
G01*
X122095550Y-68839800D01*
G75*
G02*
X121876800Y-68621050I0J218750D01*
G01*
X121876800Y-68183550D01*
G75*
G02*
X122095550Y-67964800I218750J0D01*
G01*
G37*
G04 #@! TD.AperFunction*
G04 #@! TA.AperFunction,SMDPad,CuDef*
G36*
G01*
X122095550Y-66389800D02*
X122608050Y-66389800D01*
G75*
G02*
X122826800Y-66608550I0J-218750D01*
G01*
X122826800Y-67046050D01*
G75*
G02*
X122608050Y-67264800I-218750J0D01*
G01*
X122095550Y-67264800D01*
G75*
G02*
X121876800Y-67046050I0J218750D01*
G01*
X121876800Y-66608550D01*
G75*
G02*
X122095550Y-66389800I218750J0D01*
G01*
G37*
G04 #@! TD.AperFunction*
G04 #@! TA.AperFunction,SMDPad,CuDef*
G36*
G01*
X151662450Y-89745400D02*
X150749950Y-89745400D01*
G75*
G02*
X150506200Y-89501650I0J243750D01*
G01*
X150506200Y-89014150D01*
G75*
G02*
X150749950Y-88770400I243750J0D01*
G01*
X151662450Y-88770400D01*
G75*
G02*
X151906200Y-89014150I0J-243750D01*
G01*
X151906200Y-89501650D01*
G75*
G02*
X151662450Y-89745400I-243750J0D01*
G01*
G37*
G04 #@! TD.AperFunction*
G04 #@! TA.AperFunction,SMDPad,CuDef*
G36*
G01*
X151662450Y-91620400D02*
X150749950Y-91620400D01*
G75*
G02*
X150506200Y-91376650I0J243750D01*
G01*
X150506200Y-90889150D01*
G75*
G02*
X150749950Y-90645400I243750J0D01*
G01*
X151662450Y-90645400D01*
G75*
G02*
X151906200Y-90889150I0J-243750D01*
G01*
X151906200Y-91376650D01*
G75*
G02*
X151662450Y-91620400I-243750J0D01*
G01*
G37*
G04 #@! TD.AperFunction*
G04 #@! TA.AperFunction,SMDPad,CuDef*
G36*
G01*
X146868100Y-77037700D02*
X147213100Y-77037700D01*
G75*
G02*
X147360600Y-77185200I0J-147500D01*
G01*
X147360600Y-77480200D01*
G75*
G02*
X147213100Y-77627700I-147500J0D01*
G01*
X146868100Y-77627700D01*
G75*
G02*
X146720600Y-77480200I0J147500D01*
G01*
X146720600Y-77185200D01*
G75*
G02*
X146868100Y-77037700I147500J0D01*
G01*
G37*
G04 #@! TD.AperFunction*
G04 #@! TA.AperFunction,SMDPad,CuDef*
G36*
G01*
X146868100Y-76067700D02*
X147213100Y-76067700D01*
G75*
G02*
X147360600Y-76215200I0J-147500D01*
G01*
X147360600Y-76510200D01*
G75*
G02*
X147213100Y-76657700I-147500J0D01*
G01*
X146868100Y-76657700D01*
G75*
G02*
X146720600Y-76510200I0J147500D01*
G01*
X146720600Y-76215200D01*
G75*
G02*
X146868100Y-76067700I147500J0D01*
G01*
G37*
G04 #@! TD.AperFunction*
G04 #@! TA.AperFunction,SMDPad,CuDef*
G36*
G01*
X148229100Y-76657700D02*
X147884100Y-76657700D01*
G75*
G02*
X147736600Y-76510200I0J147500D01*
G01*
X147736600Y-76215200D01*
G75*
G02*
X147884100Y-76067700I147500J0D01*
G01*
X148229100Y-76067700D01*
G75*
G02*
X148376600Y-76215200I0J-147500D01*
G01*
X148376600Y-76510200D01*
G75*
G02*
X148229100Y-76657700I-147500J0D01*
G01*
G37*
G04 #@! TD.AperFunction*
G04 #@! TA.AperFunction,SMDPad,CuDef*
G36*
G01*
X148229100Y-77627700D02*
X147884100Y-77627700D01*
G75*
G02*
X147736600Y-77480200I0J147500D01*
G01*
X147736600Y-77185200D01*
G75*
G02*
X147884100Y-77037700I147500J0D01*
G01*
X148229100Y-77037700D01*
G75*
G02*
X148376600Y-77185200I0J-147500D01*
G01*
X148376600Y-77480200D01*
G75*
G02*
X148229100Y-77627700I-147500J0D01*
G01*
G37*
G04 #@! TD.AperFunction*
G04 #@! TA.AperFunction,SMDPad,CuDef*
G36*
G01*
X148900100Y-77037700D02*
X149245100Y-77037700D01*
G75*
G02*
X149392600Y-77185200I0J-147500D01*
G01*
X149392600Y-77480200D01*
G75*
G02*
X149245100Y-77627700I-147500J0D01*
G01*
X148900100Y-77627700D01*
G75*
G02*
X148752600Y-77480200I0J147500D01*
G01*
X148752600Y-77185200D01*
G75*
G02*
X148900100Y-77037700I147500J0D01*
G01*
G37*
G04 #@! TD.AperFunction*
G04 #@! TA.AperFunction,SMDPad,CuDef*
G36*
G01*
X148900100Y-76067700D02*
X149245100Y-76067700D01*
G75*
G02*
X149392600Y-76215200I0J-147500D01*
G01*
X149392600Y-76510200D01*
G75*
G02*
X149245100Y-76657700I-147500J0D01*
G01*
X148900100Y-76657700D01*
G75*
G02*
X148752600Y-76510200I0J147500D01*
G01*
X148752600Y-76215200D01*
G75*
G02*
X148900100Y-76067700I147500J0D01*
G01*
G37*
G04 #@! TD.AperFunction*
G04 #@! TA.AperFunction,SMDPad,CuDef*
G36*
G01*
X169191650Y-67468000D02*
X168679150Y-67468000D01*
G75*
G02*
X168460400Y-67249250I0J218750D01*
G01*
X168460400Y-66811750D01*
G75*
G02*
X168679150Y-66593000I218750J0D01*
G01*
X169191650Y-66593000D01*
G75*
G02*
X169410400Y-66811750I0J-218750D01*
G01*
X169410400Y-67249250D01*
G75*
G02*
X169191650Y-67468000I-218750J0D01*
G01*
G37*
G04 #@! TD.AperFunction*
G04 #@! TA.AperFunction,SMDPad,CuDef*
G36*
G01*
X169191650Y-69043000D02*
X168679150Y-69043000D01*
G75*
G02*
X168460400Y-68824250I0J218750D01*
G01*
X168460400Y-68386750D01*
G75*
G02*
X168679150Y-68168000I218750J0D01*
G01*
X169191650Y-68168000D01*
G75*
G02*
X169410400Y-68386750I0J-218750D01*
G01*
X169410400Y-68824250D01*
G75*
G02*
X169191650Y-69043000I-218750J0D01*
G01*
G37*
G04 #@! TD.AperFunction*
G04 #@! TA.AperFunction,SMDPad,CuDef*
G36*
G01*
X164459400Y-58650850D02*
X164459400Y-58138350D01*
G75*
G02*
X164678150Y-57919600I218750J0D01*
G01*
X165115650Y-57919600D01*
G75*
G02*
X165334400Y-58138350I0J-218750D01*
G01*
X165334400Y-58650850D01*
G75*
G02*
X165115650Y-58869600I-218750J0D01*
G01*
X164678150Y-58869600D01*
G75*
G02*
X164459400Y-58650850I0J218750D01*
G01*
G37*
G04 #@! TD.AperFunction*
G04 #@! TA.AperFunction,SMDPad,CuDef*
G36*
G01*
X162884400Y-58650850D02*
X162884400Y-58138350D01*
G75*
G02*
X163103150Y-57919600I218750J0D01*
G01*
X163540650Y-57919600D01*
G75*
G02*
X163759400Y-58138350I0J-218750D01*
G01*
X163759400Y-58650850D01*
G75*
G02*
X163540650Y-58869600I-218750J0D01*
G01*
X163103150Y-58869600D01*
G75*
G02*
X162884400Y-58650850I0J218750D01*
G01*
G37*
G04 #@! TD.AperFunction*
G04 #@! TA.AperFunction,SMDPad,CuDef*
G36*
G01*
X143060000Y-93955550D02*
X143060000Y-94868050D01*
G75*
G02*
X142816250Y-95111800I-243750J0D01*
G01*
X142328750Y-95111800D01*
G75*
G02*
X142085000Y-94868050I0J243750D01*
G01*
X142085000Y-93955550D01*
G75*
G02*
X142328750Y-93711800I243750J0D01*
G01*
X142816250Y-93711800D01*
G75*
G02*
X143060000Y-93955550I0J-243750D01*
G01*
G37*
G04 #@! TD.AperFunction*
G04 #@! TA.AperFunction,SMDPad,CuDef*
G36*
G01*
X144935000Y-93955550D02*
X144935000Y-94868050D01*
G75*
G02*
X144691250Y-95111800I-243750J0D01*
G01*
X144203750Y-95111800D01*
G75*
G02*
X143960000Y-94868050I0J243750D01*
G01*
X143960000Y-93955550D01*
G75*
G02*
X144203750Y-93711800I243750J0D01*
G01*
X144691250Y-93711800D01*
G75*
G02*
X144935000Y-93955550I0J-243750D01*
G01*
G37*
G04 #@! TD.AperFunction*
G04 #@! TA.AperFunction,SMDPad,CuDef*
G36*
G01*
X147325600Y-98524350D02*
X147325600Y-99036850D01*
G75*
G02*
X147106850Y-99255600I-218750J0D01*
G01*
X146669350Y-99255600D01*
G75*
G02*
X146450600Y-99036850I0J218750D01*
G01*
X146450600Y-98524350D01*
G75*
G02*
X146669350Y-98305600I218750J0D01*
G01*
X147106850Y-98305600D01*
G75*
G02*
X147325600Y-98524350I0J-218750D01*
G01*
G37*
G04 #@! TD.AperFunction*
G04 #@! TA.AperFunction,SMDPad,CuDef*
G36*
G01*
X148900600Y-98524350D02*
X148900600Y-99036850D01*
G75*
G02*
X148681850Y-99255600I-218750J0D01*
G01*
X148244350Y-99255600D01*
G75*
G02*
X148025600Y-99036850I0J218750D01*
G01*
X148025600Y-98524350D01*
G75*
G02*
X148244350Y-98305600I218750J0D01*
G01*
X148681850Y-98305600D01*
G75*
G02*
X148900600Y-98524350I0J-218750D01*
G01*
G37*
G04 #@! TD.AperFunction*
D30*
X148513800Y-94716600D03*
D31*
X147013800Y-93966600D03*
X147013800Y-94466600D03*
X147013800Y-94966600D03*
X147013800Y-95466600D03*
D32*
X147763800Y-96216600D03*
X148263800Y-96216600D03*
X148763800Y-96216600D03*
X149263800Y-96216600D03*
D31*
X150013800Y-95466600D03*
X150013800Y-94966600D03*
X150013800Y-94466600D03*
X150013800Y-93966600D03*
D32*
X149263800Y-93216600D03*
X148763800Y-93216600D03*
X148263800Y-93216600D03*
X147763800Y-93216600D03*
G04 #@! TA.AperFunction,SMDPad,CuDef*
G36*
G01*
X148613150Y-90545400D02*
X149125650Y-90545400D01*
G75*
G02*
X149344400Y-90764150I0J-218750D01*
G01*
X149344400Y-91201650D01*
G75*
G02*
X149125650Y-91420400I-218750J0D01*
G01*
X148613150Y-91420400D01*
G75*
G02*
X148394400Y-91201650I0J218750D01*
G01*
X148394400Y-90764150D01*
G75*
G02*
X148613150Y-90545400I218750J0D01*
G01*
G37*
G04 #@! TD.AperFunction*
G04 #@! TA.AperFunction,SMDPad,CuDef*
G36*
G01*
X148613150Y-88970400D02*
X149125650Y-88970400D01*
G75*
G02*
X149344400Y-89189150I0J-218750D01*
G01*
X149344400Y-89626650D01*
G75*
G02*
X149125650Y-89845400I-218750J0D01*
G01*
X148613150Y-89845400D01*
G75*
G02*
X148394400Y-89626650I0J218750D01*
G01*
X148394400Y-89189150D01*
G75*
G02*
X148613150Y-88970400I218750J0D01*
G01*
G37*
G04 #@! TD.AperFunction*
G04 #@! TA.AperFunction,SMDPad,CuDef*
G36*
G01*
X143962300Y-92505850D02*
X143962300Y-91593350D01*
G75*
G02*
X144206050Y-91349600I243750J0D01*
G01*
X144693550Y-91349600D01*
G75*
G02*
X144937300Y-91593350I0J-243750D01*
G01*
X144937300Y-92505850D01*
G75*
G02*
X144693550Y-92749600I-243750J0D01*
G01*
X144206050Y-92749600D01*
G75*
G02*
X143962300Y-92505850I0J243750D01*
G01*
G37*
G04 #@! TD.AperFunction*
G04 #@! TA.AperFunction,SMDPad,CuDef*
G36*
G01*
X142087300Y-92505850D02*
X142087300Y-91593350D01*
G75*
G02*
X142331050Y-91349600I243750J0D01*
G01*
X142818550Y-91349600D01*
G75*
G02*
X143062300Y-91593350I0J-243750D01*
G01*
X143062300Y-92505850D01*
G75*
G02*
X142818550Y-92749600I-243750J0D01*
G01*
X142331050Y-92749600D01*
G75*
G02*
X142087300Y-92505850I0J243750D01*
G01*
G37*
G04 #@! TD.AperFunction*
G04 #@! TA.AperFunction,SMDPad,CuDef*
G36*
G01*
X143962300Y-90575450D02*
X143962300Y-89662950D01*
G75*
G02*
X144206050Y-89419200I243750J0D01*
G01*
X144693550Y-89419200D01*
G75*
G02*
X144937300Y-89662950I0J-243750D01*
G01*
X144937300Y-90575450D01*
G75*
G02*
X144693550Y-90819200I-243750J0D01*
G01*
X144206050Y-90819200D01*
G75*
G02*
X143962300Y-90575450I0J243750D01*
G01*
G37*
G04 #@! TD.AperFunction*
G04 #@! TA.AperFunction,SMDPad,CuDef*
G36*
G01*
X142087300Y-90575450D02*
X142087300Y-89662950D01*
G75*
G02*
X142331050Y-89419200I243750J0D01*
G01*
X142818550Y-89419200D01*
G75*
G02*
X143062300Y-89662950I0J-243750D01*
G01*
X143062300Y-90575450D01*
G75*
G02*
X142818550Y-90819200I-243750J0D01*
G01*
X142331050Y-90819200D01*
G75*
G02*
X142087300Y-90575450I0J243750D01*
G01*
G37*
G04 #@! TD.AperFunction*
G04 #@! TA.AperFunction,SMDPad,CuDef*
G36*
G01*
X114548400Y-67261450D02*
X114548400Y-66748950D01*
G75*
G02*
X114767150Y-66530200I218750J0D01*
G01*
X115204650Y-66530200D01*
G75*
G02*
X115423400Y-66748950I0J-218750D01*
G01*
X115423400Y-67261450D01*
G75*
G02*
X115204650Y-67480200I-218750J0D01*
G01*
X114767150Y-67480200D01*
G75*
G02*
X114548400Y-67261450I0J218750D01*
G01*
G37*
G04 #@! TD.AperFunction*
G04 #@! TA.AperFunction,SMDPad,CuDef*
G36*
G01*
X112973400Y-67261450D02*
X112973400Y-66748950D01*
G75*
G02*
X113192150Y-66530200I218750J0D01*
G01*
X113629650Y-66530200D01*
G75*
G02*
X113848400Y-66748950I0J-218750D01*
G01*
X113848400Y-67261450D01*
G75*
G02*
X113629650Y-67480200I-218750J0D01*
G01*
X113192150Y-67480200D01*
G75*
G02*
X112973400Y-67261450I0J218750D01*
G01*
G37*
G04 #@! TD.AperFunction*
G04 #@! TA.AperFunction,SMDPad,CuDef*
G36*
G01*
X117282250Y-74263900D02*
X117794750Y-74263900D01*
G75*
G02*
X118013500Y-74482650I0J-218750D01*
G01*
X118013500Y-74920150D01*
G75*
G02*
X117794750Y-75138900I-218750J0D01*
G01*
X117282250Y-75138900D01*
G75*
G02*
X117063500Y-74920150I0J218750D01*
G01*
X117063500Y-74482650D01*
G75*
G02*
X117282250Y-74263900I218750J0D01*
G01*
G37*
G04 #@! TD.AperFunction*
G04 #@! TA.AperFunction,SMDPad,CuDef*
G36*
G01*
X117282250Y-72688900D02*
X117794750Y-72688900D01*
G75*
G02*
X118013500Y-72907650I0J-218750D01*
G01*
X118013500Y-73345150D01*
G75*
G02*
X117794750Y-73563900I-218750J0D01*
G01*
X117282250Y-73563900D01*
G75*
G02*
X117063500Y-73345150I0J218750D01*
G01*
X117063500Y-72907650D01*
G75*
G02*
X117282250Y-72688900I218750J0D01*
G01*
G37*
G04 #@! TD.AperFunction*
G04 #@! TA.AperFunction,SMDPad,CuDef*
G36*
G01*
X118091700Y-65915250D02*
X118091700Y-65402750D01*
G75*
G02*
X118310450Y-65184000I218750J0D01*
G01*
X118747950Y-65184000D01*
G75*
G02*
X118966700Y-65402750I0J-218750D01*
G01*
X118966700Y-65915250D01*
G75*
G02*
X118747950Y-66134000I-218750J0D01*
G01*
X118310450Y-66134000D01*
G75*
G02*
X118091700Y-65915250I0J218750D01*
G01*
G37*
G04 #@! TD.AperFunction*
G04 #@! TA.AperFunction,SMDPad,CuDef*
G36*
G01*
X116516700Y-65915250D02*
X116516700Y-65402750D01*
G75*
G02*
X116735450Y-65184000I218750J0D01*
G01*
X117172950Y-65184000D01*
G75*
G02*
X117391700Y-65402750I0J-218750D01*
G01*
X117391700Y-65915250D01*
G75*
G02*
X117172950Y-66134000I-218750J0D01*
G01*
X116735450Y-66134000D01*
G75*
G02*
X116516700Y-65915250I0J218750D01*
G01*
G37*
G04 #@! TD.AperFunction*
D33*
X127050800Y-87147400D03*
D34*
X144678400Y-81114900D03*
D35*
X155829000Y-71221600D03*
X155829000Y-70662800D03*
D33*
X140957300Y-74498200D03*
X141681200Y-75323700D03*
X150279100Y-59537600D03*
X150964900Y-59537600D03*
X149542500Y-59537600D03*
D36*
X94818200Y-53162200D03*
X92557600Y-53162200D03*
X97078800Y-53162200D03*
X110286800Y-53136800D03*
X112420400Y-53136800D03*
X103682800Y-53136800D03*
X108102400Y-53136800D03*
X105892600Y-53136800D03*
X101523800Y-53136800D03*
X116611400Y-53136800D03*
X118778800Y-53136800D03*
X120998800Y-53136800D03*
D35*
X152577800Y-65506600D03*
X152577800Y-66065400D03*
D36*
X172148500Y-90618000D03*
X172148500Y-88398000D03*
X172148500Y-97278600D03*
X172148500Y-92838600D03*
X172148500Y-99498600D03*
X172148500Y-95058600D03*
D33*
X148920200Y-94310200D03*
X148920200Y-95123000D03*
X148107400Y-95123000D03*
X148107400Y-94310200D03*
D36*
X147802600Y-72237600D03*
X101523800Y-101676200D03*
X103682800Y-101676200D03*
X105816400Y-101676200D03*
X107924600Y-101676200D03*
X110032800Y-101676200D03*
X172147700Y-101676200D03*
X172147700Y-64360050D03*
X172147700Y-62115400D03*
X172147700Y-59870750D03*
X172147700Y-57626100D03*
X172147700Y-55381450D03*
X172147700Y-53136800D03*
X169838800Y-53136800D03*
X167618800Y-53136800D03*
X165398800Y-53136800D03*
X163178800Y-53136800D03*
X160958800Y-53136800D03*
X158738800Y-53136800D03*
X156518800Y-53136800D03*
X154298800Y-53136800D03*
X152078800Y-53136800D03*
X149858800Y-53136800D03*
X147638800Y-53136800D03*
X145418800Y-53136800D03*
X143198800Y-53136800D03*
X140978800Y-53136800D03*
X138758800Y-53136800D03*
X136538800Y-53136800D03*
X134318800Y-53136800D03*
X132098800Y-53136800D03*
X129878800Y-53136800D03*
X127658800Y-53136800D03*
X125438800Y-53136800D03*
X123218800Y-53136800D03*
X116268500Y-70002400D03*
X117284500Y-70002400D03*
X117284500Y-72034400D03*
X116268500Y-72034400D03*
X116268500Y-71018400D03*
X117284500Y-71018400D03*
X118300500Y-72034400D03*
X118300500Y-71018400D03*
X118300500Y-70002400D03*
X107802100Y-65311600D03*
D33*
X135394700Y-59537600D03*
X136131300Y-59537600D03*
X136817100Y-59537600D03*
D36*
X143637000Y-57137300D03*
X140360400Y-57137300D03*
X143637000Y-55765700D03*
X140360400Y-55765700D03*
X141452600Y-55765700D03*
X142544800Y-55765700D03*
X106680000Y-70383400D03*
X113423700Y-65938400D03*
X123405900Y-66802000D03*
X113449100Y-95097600D03*
X110972600Y-91440000D03*
X113423700Y-68072000D03*
X121297700Y-66827400D03*
X110972600Y-90170000D03*
X111340900Y-95097600D03*
X112382300Y-95097600D03*
X114338800Y-101676200D03*
X116558800Y-101676200D03*
X138758800Y-101676200D03*
X163178800Y-101676200D03*
X158738800Y-101676200D03*
X120998800Y-101676200D03*
X154298800Y-101676200D03*
X118778800Y-101676200D03*
X129878800Y-101676200D03*
X149858800Y-101676200D03*
X132098800Y-101676200D03*
X169838800Y-101676200D03*
X152078800Y-101676200D03*
X143198800Y-101676200D03*
X165398800Y-101676200D03*
X127658800Y-101676200D03*
X156518800Y-101676200D03*
X134318800Y-101676200D03*
X136538800Y-101676200D03*
X145418800Y-101676200D03*
X140978800Y-101676200D03*
X123218800Y-101676200D03*
X147638800Y-101676200D03*
X167618800Y-101676200D03*
X125438800Y-101676200D03*
X160958800Y-101676200D03*
X172148500Y-66675000D03*
X172148500Y-80873600D03*
X172148500Y-86156800D03*
X158191200Y-85166200D03*
X165963600Y-58394600D03*
X164896800Y-57277000D03*
X164896800Y-59486800D03*
X159410400Y-86309200D03*
X130911600Y-94234000D03*
X116205000Y-63474600D03*
X122174000Y-63500000D03*
D33*
X136499600Y-74218800D03*
D36*
X167640000Y-67030600D03*
X145669000Y-89382600D03*
X146659600Y-89382600D03*
X147650200Y-89382600D03*
X115951000Y-65684400D03*
X90233500Y-55499000D03*
X90233500Y-57810400D03*
X90233500Y-60147200D03*
X90233500Y-62507600D03*
X90233500Y-64807600D03*
X90233500Y-67107600D03*
X90233500Y-69407600D03*
X90233500Y-71707600D03*
X90233500Y-74007600D03*
X90233500Y-76307600D03*
X90233500Y-78607600D03*
X90233500Y-80907600D03*
X90233500Y-83207600D03*
X90233500Y-85507600D03*
X90233500Y-87807600D03*
X90233500Y-90107600D03*
X90233500Y-92407600D03*
X90233500Y-94707600D03*
X90233500Y-97007600D03*
X90233500Y-99307600D03*
X112115600Y-101676200D03*
X114503200Y-53136800D03*
X99390200Y-53162200D03*
X99390200Y-101676200D03*
X159816800Y-98323404D03*
X97078800Y-101676200D03*
X94818200Y-101676200D03*
X92557600Y-101676200D03*
X90233500Y-101676200D03*
X90233500Y-53162200D03*
D34*
X130556000Y-80314800D03*
D33*
X138709400Y-68427600D03*
X139877800Y-67462400D03*
X141071600Y-68427600D03*
X137337800Y-70307200D03*
D34*
X136042400Y-76314300D03*
D36*
X172148500Y-78955900D03*
X172148500Y-76936600D03*
X172148500Y-74930000D03*
X155752800Y-89408000D03*
D34*
X133731000Y-77927200D03*
D36*
X113004600Y-81229200D03*
D33*
X144195800Y-74396600D03*
X130149600Y-73787000D03*
X128727200Y-73787000D03*
X133222998Y-85725000D03*
D36*
X149504400Y-70764400D03*
X146100800Y-70764400D03*
X146100800Y-72237600D03*
X149504400Y-72237600D03*
X111569500Y-67030600D03*
D33*
X144348200Y-99568000D03*
D36*
X158877000Y-98323400D03*
X158877000Y-97383600D03*
X170053000Y-76606400D03*
X172135800Y-69037200D03*
X156743400Y-77622400D03*
D34*
X126619000Y-77317600D03*
D36*
X170205400Y-67030600D03*
X108712000Y-81737200D03*
D33*
X128574800Y-84455000D03*
X149123400Y-75552300D03*
X146405600Y-75742800D03*
D36*
X160832800Y-77622400D03*
X146659600Y-88468200D03*
X147650200Y-88468200D03*
X145669000Y-88468200D03*
X144678400Y-88468200D03*
X148714200Y-80317600D03*
X150214200Y-80317600D03*
X151714200Y-80317600D03*
X148714200Y-81817600D03*
X150214200Y-81817600D03*
X151714200Y-81817600D03*
X148714200Y-83317600D03*
X150214200Y-83317600D03*
X151714200Y-83317600D03*
D33*
X142074900Y-83299300D03*
X143738600Y-89268300D03*
X142760700Y-84035900D03*
X152565100Y-75450700D03*
D34*
X130556000Y-77901800D03*
D36*
X109296200Y-75895200D03*
X108661200Y-79806800D03*
D34*
X127787400Y-79248000D03*
X130556000Y-78714600D03*
D36*
X107998500Y-76532500D03*
X107340400Y-80441800D03*
D34*
X131343400Y-79527400D03*
D36*
X105232200Y-80391000D03*
D34*
X128143000Y-80467200D03*
D36*
X109943900Y-74320400D03*
D34*
X128701800Y-77520800D03*
D36*
X111417100Y-74295000D03*
D34*
X127584200Y-77292200D03*
D36*
X152425400Y-69494400D03*
X153390600Y-69494400D03*
X153385400Y-70464800D03*
X142570200Y-88849200D03*
X153390600Y-71424800D03*
X152425400Y-70459600D03*
X142570200Y-87223600D03*
X142570200Y-88036400D03*
X152400000Y-71424800D03*
D33*
X119862600Y-67106800D03*
X114731800Y-84632800D03*
X120624600Y-73888600D03*
X119862600Y-91440000D03*
X119659400Y-82778600D03*
D34*
X134543800Y-79502000D03*
D33*
X117218700Y-84939900D03*
D36*
X148005800Y-97256600D03*
X149834600Y-91744800D03*
X154012900Y-96558100D03*
X159131000Y-90652600D03*
X160909000Y-90652600D03*
X160020000Y-90652600D03*
X160909000Y-91541600D03*
X160020000Y-91541600D03*
X159131000Y-91541600D03*
D34*
X121335800Y-71780400D03*
X124993400Y-71780400D03*
X120878600Y-71272400D03*
X125450600Y-71272400D03*
D33*
X151765000Y-64592200D03*
X147878800Y-73977500D03*
D34*
X140868400Y-87355800D03*
X139768700Y-89014300D03*
X140868400Y-88005800D03*
X140418700Y-89014300D03*
X154749500Y-84060000D03*
X160362900Y-82100300D03*
X154749500Y-83410000D03*
X160362900Y-81450300D03*
X127584200Y-76454000D03*
D33*
X114300000Y-74015600D03*
X112420400Y-64693800D03*
X130962400Y-69824600D03*
X129895600Y-68605400D03*
X113753900Y-61798200D03*
X128752600Y-69824600D03*
X115036600Y-62509400D03*
X156946600Y-72161400D03*
X149910800Y-98450400D03*
D37*
X164033200Y-87477600D03*
D34*
X162280600Y-79375000D03*
D33*
X158851600Y-69088000D03*
X146418300Y-57200800D03*
X152552400Y-59715400D03*
X153238200Y-59728100D03*
X153238200Y-58534300D03*
X152552400Y-59131200D03*
X153238200Y-59131200D03*
X152552400Y-58534300D03*
D34*
X129743200Y-81114900D03*
X131343400Y-77914500D03*
D33*
X132842000Y-72948800D03*
X132842000Y-72212200D03*
D34*
X133731000Y-80314800D03*
D36*
X111340900Y-87680800D03*
X112407700Y-87680800D03*
X113449100Y-87680800D03*
X113601500Y-72288400D03*
X116014500Y-74701400D03*
X119062500Y-74701400D03*
X122174000Y-65074800D03*
D33*
X132245100Y-57175400D03*
D36*
X111556800Y-68618100D03*
X111823500Y-78003400D03*
X116039772Y-67005200D03*
X122326400Y-69469000D03*
X138531600Y-94843600D03*
D33*
X138379200Y-58508900D03*
X139052300Y-58508900D03*
X139052300Y-59105800D03*
X138379200Y-59702700D03*
D34*
X132943600Y-76314300D03*
D33*
X141071600Y-70307200D03*
X139877800Y-71247000D03*
X138709400Y-70307200D03*
X129870200Y-83007200D03*
D34*
X136944100Y-76314300D03*
D33*
X122351900Y-90144500D03*
D34*
X132156200Y-77927200D03*
X120827800Y-72491600D03*
D36*
X118541800Y-67106800D03*
X166370000Y-87503000D03*
X170053000Y-78409800D03*
D33*
X136550400Y-88011000D03*
X139052300Y-59702700D03*
X138379200Y-59105800D03*
X115925600Y-82778600D03*
X145796000Y-80035400D03*
X150520400Y-77508100D03*
X154622400Y-80810000D03*
X143573500Y-93154500D03*
X151091900Y-87693500D03*
D34*
X134543800Y-75514200D03*
X132130800Y-76314300D03*
X133731000Y-81102200D03*
X132943600Y-80314800D03*
X132156200Y-81102200D03*
D33*
X134594600Y-84785200D03*
X157759400Y-70434200D03*
X150495000Y-97028000D03*
X143103600Y-98526600D03*
X131851400Y-87020400D03*
X133451600Y-94818200D03*
D34*
X123698000Y-84531200D03*
X128651000Y-80975200D03*
X123698000Y-81483200D03*
D33*
X135991600Y-94234000D03*
D34*
X129743200Y-80314800D03*
X124714000Y-81940400D03*
X124714000Y-84124800D03*
X134543800Y-77114400D03*
X146329400Y-77457300D03*
X135356600Y-75514200D03*
X144322800Y-77609700D03*
X133731000Y-75514200D03*
X143725900Y-78511400D03*
D33*
X137464800Y-83718400D03*
X145884900Y-80810100D03*
X144995900Y-79717900D03*
D38*
X127050800Y-90728800D02*
X127050800Y-87147400D01*
X96532700Y-93599000D02*
X124180600Y-93599000D01*
X124180600Y-93599000D02*
X127050800Y-90728800D01*
D39*
X115176500Y-71018400D02*
X116268500Y-71018400D01*
X115049500Y-70891400D02*
X115176500Y-71018400D01*
X118300500Y-72034400D02*
X117284500Y-72034400D01*
X117284500Y-72034400D02*
X117665500Y-72034400D01*
X117538500Y-73177400D02*
X117538500Y-72288400D01*
X117538500Y-72288400D02*
X117284500Y-72034400D01*
X113423600Y-68071900D02*
X113423700Y-68072000D01*
X113423600Y-67005200D02*
X113423600Y-68071900D01*
X113423700Y-67005100D02*
X113423700Y-65938400D01*
X123380600Y-66827300D02*
X123405900Y-66802000D01*
X122364500Y-66827300D02*
X123380600Y-66827300D01*
X122364500Y-66827300D02*
X121297800Y-66827300D01*
X121297800Y-66827300D02*
X121297700Y-66827400D01*
D38*
X149263800Y-93966600D02*
X148513800Y-94716600D01*
D40*
X149263800Y-93216600D02*
X149263800Y-93966600D01*
D38*
X148263800Y-94466600D02*
X148513800Y-94716600D01*
D40*
X147013800Y-94466600D02*
X148263800Y-94466600D01*
D38*
X148263800Y-94966600D02*
X148513800Y-94716600D01*
D40*
X147013800Y-94966600D02*
X148263800Y-94966600D01*
D41*
X164897000Y-58394600D02*
X165963600Y-58394600D01*
X164897000Y-58394600D02*
X164897000Y-57277200D01*
X164897000Y-57277200D02*
X164896800Y-57277000D01*
X164897000Y-58394600D02*
X164897000Y-59486600D01*
X164897000Y-59486600D02*
X164896800Y-59486800D01*
D39*
X130162200Y-74599700D02*
X130162300Y-74599600D01*
X139877800Y-68429900D02*
X138711700Y-68429900D01*
X138711700Y-68429900D02*
X138709400Y-68427600D01*
X139877800Y-68429900D02*
X139877800Y-67462400D01*
X139877800Y-68429900D02*
X141069300Y-68429900D01*
X141069300Y-68429900D02*
X141071600Y-68427600D01*
X137337800Y-71094500D02*
X137337800Y-70307200D01*
X135686800Y-74218900D02*
X137312400Y-74218900D01*
X143256100Y-74396600D02*
X144195800Y-74396600D01*
X128727200Y-74726700D02*
X128727200Y-73787000D01*
X130162200Y-74739600D02*
X130162200Y-74726700D01*
X130149600Y-73787000D02*
X130149600Y-74752200D01*
X130149600Y-74752200D02*
X130162200Y-74739600D01*
X128727200Y-73787000D02*
X128727200Y-73787000D01*
D42*
X133235700Y-85712298D02*
X133222998Y-85725000D01*
X133235700Y-84709100D02*
X133235700Y-85712298D01*
D39*
X116916200Y-65684400D02*
X115951000Y-65684400D01*
X167640100Y-67030500D02*
X167640000Y-67030600D01*
D43*
X170205300Y-67030500D02*
X170205400Y-67030600D01*
X167640100Y-67030500D02*
X170205300Y-67030500D01*
D39*
X153085900Y-77571600D02*
X153085900Y-76073000D01*
X169341800Y-75895200D02*
X168681400Y-75895200D01*
X170053000Y-76606400D02*
X169341800Y-75895200D01*
D44*
X155829000Y-71221600D02*
X155829000Y-70662800D01*
X152577800Y-66065400D02*
X152577800Y-65506600D01*
D39*
X110388500Y-67030600D02*
X110388400Y-67030500D01*
X111569500Y-67030600D02*
X110388500Y-67030600D01*
X145465800Y-75742700D02*
X146405500Y-75742700D01*
D40*
X149123400Y-76311900D02*
X149072600Y-76362700D01*
X149123400Y-75552300D02*
X149123400Y-76311900D01*
D39*
X153085900Y-75971500D02*
X152565100Y-75450700D01*
X153085900Y-76073000D02*
X153085900Y-75971500D01*
D45*
X129590800Y-77901800D02*
X130556000Y-77901800D01*
X129235200Y-78257400D02*
X129590800Y-77901800D01*
X110083600Y-76682600D02*
X112141000Y-76682600D01*
X109296200Y-75895200D02*
X110083600Y-76682600D01*
X113512600Y-78054200D02*
X125552200Y-78054200D01*
X112141000Y-76682600D02*
X113512600Y-78054200D01*
X125755400Y-78257400D02*
X129235200Y-78257400D01*
X125552200Y-78054200D02*
X125755400Y-78257400D01*
X109677200Y-79578200D02*
X109448600Y-79806800D01*
X127127000Y-79400400D02*
X113385600Y-79400400D01*
X127787400Y-79248000D02*
X127279400Y-79248000D01*
X109448600Y-79806800D02*
X108661200Y-79806800D01*
X127279400Y-79248000D02*
X127127000Y-79400400D01*
X113385600Y-79400400D02*
X113207800Y-79578200D01*
X113207800Y-79578200D02*
X109677200Y-79578200D01*
X125501400Y-78714600D02*
X130556000Y-78714600D01*
X112826800Y-78714600D02*
X125501400Y-78714600D01*
X112522000Y-79019400D02*
X112826800Y-78714600D01*
X112014000Y-79019400D02*
X112522000Y-79019400D01*
X111785400Y-78790800D02*
X112014000Y-79019400D01*
X111353600Y-78790800D02*
X111785400Y-78790800D01*
X111125000Y-79019400D02*
X111353600Y-78790800D01*
X110485401Y-79019400D02*
X111125000Y-79019400D01*
X108782359Y-77995415D02*
X108842885Y-77966268D01*
X108584192Y-77995415D02*
X108649686Y-78010364D01*
X109800008Y-77565940D02*
X109826726Y-77621422D01*
X108523666Y-77966268D02*
X108584192Y-77995415D01*
X108716865Y-78010364D02*
X108782359Y-77995415D01*
X108649686Y-78010364D02*
X108716865Y-78010364D01*
X108471144Y-77924383D02*
X108523666Y-77966268D01*
X108400111Y-77613167D02*
X108385163Y-77678662D01*
X108577532Y-77153548D02*
X108592481Y-77219042D01*
X108385163Y-77678662D02*
X108385163Y-77745840D01*
X108592481Y-77219042D02*
X108592481Y-77286221D01*
X108400111Y-77811335D02*
X108429259Y-77871860D01*
X108506500Y-77464764D02*
X108471144Y-77500119D01*
X108385163Y-77745840D02*
X108400111Y-77811335D01*
X108506500Y-77040500D02*
X108548385Y-77093022D01*
X108429259Y-77552641D02*
X108400111Y-77613167D01*
X108548385Y-77093022D02*
X108577532Y-77153548D01*
X108429259Y-77871860D02*
X108471144Y-77924383D01*
X109622629Y-77417326D02*
X109678111Y-77444044D01*
X107998500Y-76532500D02*
X108506500Y-77040500D01*
X109440975Y-77417326D02*
X109501012Y-77403623D01*
X108548385Y-77412241D02*
X108506500Y-77464764D01*
X109696499Y-78191985D02*
X109723217Y-78247466D01*
X108471144Y-77500119D02*
X108429259Y-77552641D01*
X108577532Y-77351715D02*
X108548385Y-77412241D01*
X108842885Y-77966268D02*
X108895408Y-77924383D01*
X108592481Y-77286221D02*
X108577532Y-77351715D01*
X108895408Y-77924383D02*
X108930763Y-77889027D01*
X108930763Y-77889027D02*
X109337350Y-77482441D01*
X109826726Y-77621422D02*
X109840429Y-77681459D01*
X109337350Y-77482441D02*
X109385493Y-77444044D01*
X109385493Y-77444044D02*
X109440975Y-77417326D01*
X109501012Y-77403623D02*
X109562592Y-77403623D01*
X109562592Y-77403623D02*
X109622629Y-77417326D01*
X109678111Y-77444044D02*
X109726258Y-77482440D01*
X109682796Y-78070368D02*
X109682796Y-78131948D01*
X109726258Y-77482440D02*
X109761613Y-77517795D01*
X109761613Y-77517795D02*
X109800008Y-77565940D01*
X109840429Y-77681459D02*
X109840429Y-77743039D01*
X109840429Y-77743039D02*
X109826726Y-77803076D01*
X109826726Y-77803076D02*
X109800008Y-77858558D01*
X109800008Y-77858558D02*
X109723217Y-77954848D01*
X109723217Y-77954848D02*
X109696499Y-78010331D01*
X109696499Y-78010331D02*
X109682796Y-78070368D01*
X109723217Y-78247466D02*
X109761612Y-78295611D01*
X109682796Y-78131948D02*
X109696499Y-78191985D01*
X109761612Y-78295611D02*
X110485401Y-79019400D01*
X107772200Y-80873600D02*
X107340400Y-80441800D01*
X128295400Y-79527400D02*
X127685800Y-80137000D01*
X111963200Y-80137000D02*
X111226600Y-80873600D01*
X131343400Y-79527400D02*
X128295400Y-79527400D01*
X127685800Y-80137000D02*
X111963200Y-80137000D01*
X111226600Y-80873600D02*
X107772200Y-80873600D01*
X114020600Y-82677000D02*
X107518200Y-82677000D01*
X115925600Y-80772000D02*
X114020600Y-82677000D01*
X128143000Y-80467200D02*
X127838200Y-80772000D01*
X107518200Y-82677000D02*
X105232200Y-80391000D01*
X127838200Y-80772000D02*
X115925600Y-80772000D01*
X128422400Y-77800200D02*
X128701800Y-77520800D01*
X110883700Y-75260200D02*
X112166400Y-75260200D01*
X114300000Y-77393800D02*
X125730000Y-77393800D01*
X109943900Y-74320400D02*
X110883700Y-75260200D01*
X112166400Y-75260200D02*
X114300000Y-77393800D01*
X126136400Y-77800200D02*
X128422400Y-77800200D01*
X125730000Y-77393800D02*
X126136400Y-77800200D01*
X114935000Y-76682600D02*
X112547400Y-74295000D01*
X127584200Y-77292200D02*
X126974600Y-76682600D01*
X112547400Y-74295000D02*
X111417100Y-74295000D01*
X126974600Y-76682600D02*
X114935000Y-76682600D01*
D40*
X111417100Y-73698100D02*
X111417100Y-74295000D01*
X110883700Y-73164700D02*
X111417100Y-73698100D01*
D41*
X142570200Y-89403400D02*
X142574800Y-89408000D01*
X142570200Y-87223600D02*
X142570200Y-89403400D01*
D38*
X150684800Y-93966600D02*
X150013800Y-93966600D01*
X144653000Y-97129600D02*
X145516600Y-97993200D01*
X151206200Y-94488000D02*
X150684800Y-93966600D01*
X143383000Y-97129600D02*
X144653000Y-97129600D01*
X149987000Y-99898200D02*
X151206200Y-98679000D01*
X142544800Y-96291400D02*
X143383000Y-97129600D01*
X146151600Y-99898200D02*
X149987000Y-99898200D01*
X142547100Y-94437200D02*
X142544800Y-94439500D01*
X145516600Y-99263200D02*
X146151600Y-99898200D01*
X142544800Y-94439500D02*
X142544800Y-96291400D01*
X145516600Y-97993200D02*
X145516600Y-99263200D01*
X151206200Y-98679000D02*
X151206200Y-94488000D01*
X155270200Y-96380300D02*
X155270200Y-98552000D01*
X154609800Y-94107000D02*
X154609800Y-95719900D01*
X154609800Y-95719900D02*
X155270200Y-96380300D01*
D45*
X160096200Y-87350600D02*
X160649200Y-87350600D01*
X160467000Y-87645200D02*
X160568600Y-87645200D01*
X156133800Y-86715600D02*
X157759400Y-86715600D01*
X160172400Y-87350600D02*
X160467000Y-87645200D01*
X155511500Y-90385900D02*
X154965400Y-89839800D01*
X154965400Y-87884000D02*
X156133800Y-86715600D01*
X154736800Y-93141800D02*
X155511500Y-92367100D01*
X155511500Y-92367100D02*
X155511500Y-90385900D01*
X154736800Y-93995000D02*
X154736800Y-93141800D01*
X154965400Y-89839800D02*
X154965400Y-87884000D01*
X157759400Y-86715600D02*
X158394400Y-87350600D01*
X158394400Y-87350600D02*
X160172400Y-87350600D01*
X154508200Y-93624400D02*
X154508200Y-93370400D01*
X154615000Y-94116800D02*
X154615000Y-93350200D01*
X154508200Y-93370400D02*
X154571700Y-93306900D01*
X154615000Y-93350200D02*
X154571700Y-93306900D01*
X154571700Y-93306900D02*
X154736800Y-93141800D01*
X114731800Y-85725000D02*
X114731800Y-84632800D01*
X119862600Y-73126600D02*
X120624600Y-73888600D01*
X119862600Y-67106800D02*
X119862600Y-73126600D01*
D38*
X120776900Y-91440000D02*
X119862600Y-91440000D01*
D45*
X134543800Y-79502000D02*
X132588000Y-79502000D01*
X129311400Y-82778600D02*
X119659400Y-82778600D01*
X132588000Y-79502000D02*
X129311400Y-82778600D01*
X118541800Y-82778600D02*
X119659400Y-82778600D01*
X119331400Y-84939900D02*
X117218700Y-84939900D01*
X117246500Y-84967700D02*
X117218700Y-84939900D01*
X117246500Y-87680800D02*
X117246500Y-84967700D01*
D40*
X148263800Y-96216600D02*
X148263800Y-96998600D01*
X148263800Y-96998600D02*
X148005800Y-97256600D01*
D38*
X151208500Y-91135200D02*
X151206200Y-91132900D01*
D40*
X148539300Y-91313000D02*
X148869400Y-90982900D01*
X146888200Y-91313000D02*
X148539300Y-91313000D01*
D46*
X153962100Y-96608900D02*
X154012900Y-96558100D01*
X153962100Y-98501200D02*
X153962100Y-96608900D01*
D45*
X121335800Y-71780400D02*
X124993400Y-71780400D01*
X120878600Y-71272400D02*
X125450600Y-71272400D01*
D39*
X168783000Y-68681600D02*
X168833800Y-68732400D01*
D41*
X169697400Y-71374000D02*
X169697400Y-72618600D01*
X168935400Y-68681600D02*
X168935400Y-70612000D01*
X168935400Y-70612000D02*
X169697400Y-71374000D01*
X169722800Y-72618600D02*
X172135800Y-72618600D01*
D38*
X148424900Y-73431400D02*
X147878800Y-73977500D01*
X150799800Y-67335400D02*
X150799800Y-72593200D01*
X149961600Y-73431400D02*
X148424900Y-73431400D01*
X150799800Y-72593200D02*
X149961600Y-73431400D01*
X151765000Y-66370200D02*
X151765000Y-64871600D01*
X150799800Y-67335400D02*
X151765000Y-66370200D01*
X140868400Y-87355800D02*
X140768400Y-87455800D01*
X140768400Y-87455800D02*
X140318000Y-87455800D01*
X140318000Y-87455800D02*
X139868700Y-87905100D01*
X139868700Y-87905100D02*
X139868700Y-88825400D01*
X139868700Y-88825400D02*
X139768700Y-88925400D01*
X140768400Y-87905800D02*
X140504400Y-87905800D01*
X140868400Y-88005800D02*
X140768400Y-87905800D01*
X140318700Y-88825400D02*
X140418700Y-88925400D01*
X140504400Y-87905800D02*
X140318700Y-88091500D01*
X140318700Y-88091500D02*
X140318700Y-88825400D01*
X154749500Y-84060000D02*
X154849500Y-83960000D01*
X154849500Y-83960000D02*
X155892900Y-83960000D01*
X155892900Y-83960000D02*
X157852600Y-82000300D01*
X160262900Y-82000300D02*
X160362900Y-82100300D01*
X157852600Y-82000300D02*
X160262900Y-82000300D01*
X154849500Y-83510000D02*
X155706500Y-83510000D01*
X154749500Y-83410000D02*
X154849500Y-83510000D01*
X160262900Y-81550300D02*
X160362900Y-81450300D01*
X157666200Y-81550300D02*
X160262900Y-81550300D01*
X155706500Y-83510000D02*
X157666200Y-81550300D01*
D45*
X114300000Y-74650600D02*
X114300000Y-74015600D01*
X115646200Y-75996800D02*
X114300000Y-74650600D01*
X127584200Y-76454000D02*
X127127000Y-75996800D01*
X127127000Y-75996800D02*
X115646200Y-75996800D01*
D38*
X112420400Y-61633100D02*
X112420400Y-64693800D01*
X113779300Y-60274200D02*
X112420400Y-61633100D01*
X124510800Y-60274200D02*
X113779300Y-60274200D01*
X130962400Y-69824600D02*
X130962400Y-66725800D01*
X130962400Y-66725800D02*
X124510800Y-60274200D01*
D45*
X114363500Y-61188600D02*
X113753900Y-61798200D01*
X123774200Y-61188600D02*
X114363500Y-61188600D01*
X129895600Y-68605400D02*
X129895600Y-67310000D01*
X129895600Y-67310000D02*
X123774200Y-61188600D01*
D38*
X113830100Y-61798200D02*
X113830100Y-61798200D01*
D45*
X128752600Y-67868800D02*
X122910600Y-62026800D01*
X128752600Y-69824600D02*
X128752600Y-67868800D01*
X122910600Y-62026800D02*
X115519200Y-62026800D01*
X115519200Y-62026800D02*
X115036600Y-62509400D01*
D38*
X157099000Y-98501200D02*
X155956000Y-98501200D01*
X157632400Y-97967800D02*
X157099000Y-98501200D01*
X157607000Y-97002600D02*
X157632400Y-97028000D01*
X157632400Y-97028000D02*
X157632400Y-97967800D01*
X149263100Y-96939100D02*
X149263100Y-96227900D01*
X149910800Y-98450400D02*
X149910800Y-97586800D01*
X149910800Y-97586800D02*
X149263100Y-96939100D01*
D42*
X164084000Y-89814400D02*
X164084000Y-91973400D01*
D45*
X164033200Y-81127600D02*
X164033200Y-87401400D01*
X162280600Y-79375000D02*
X164033200Y-81127600D01*
X156946600Y-69850000D02*
X156946600Y-72161400D01*
X158851600Y-69088000D02*
X157708600Y-69088000D01*
X157708600Y-69088000D02*
X156946600Y-69850000D01*
D38*
X156616400Y-87706200D02*
X157657800Y-88747600D01*
D46*
X156260800Y-92036900D02*
X157010100Y-91287600D01*
X156260800Y-93141800D02*
X156260800Y-92036900D01*
X155905200Y-94107000D02*
X155905200Y-93497400D01*
X155905200Y-93497400D02*
X156260800Y-93141800D01*
D39*
X151193500Y-57200800D02*
X146418300Y-57200800D01*
X152527000Y-58534300D02*
X151193500Y-57200800D01*
X113601500Y-71018400D02*
X113474500Y-70891400D01*
X113601500Y-72288400D02*
X113601500Y-71018400D01*
X117259000Y-74701400D02*
X116014500Y-74701400D01*
X119062500Y-74701400D02*
X117259000Y-74701400D01*
X115023900Y-67005200D02*
X116039772Y-67005200D01*
X132245100Y-57175400D02*
X137045700Y-57175400D01*
X139877800Y-70304900D02*
X141069300Y-70304900D01*
X141069300Y-70304900D02*
X141071600Y-70307200D01*
X139877800Y-70304900D02*
X139877800Y-71247000D01*
X139877800Y-70304900D02*
X138711700Y-70304900D01*
X138711700Y-70304900D02*
X138709400Y-70307200D01*
D42*
X122351900Y-91440000D02*
X122351900Y-90144500D01*
D39*
X118579900Y-67119500D02*
X118592600Y-67106800D01*
X118529100Y-65887700D02*
X118529100Y-67119500D01*
X122339100Y-68414900D02*
X122339100Y-69596000D01*
X122351800Y-68402200D02*
X122339100Y-68414900D01*
D38*
X113182400Y-86664800D02*
X113182400Y-85826600D01*
X113449100Y-87528400D02*
X113449100Y-86931500D01*
X113449100Y-86931500D02*
X113182400Y-86664800D01*
X115671600Y-87680800D02*
X113449100Y-87680800D01*
D39*
X151510900Y-76073000D02*
X151510900Y-77571600D01*
X169722800Y-78079600D02*
X168706800Y-78079600D01*
X170053000Y-78409800D02*
X169722800Y-78079600D01*
D41*
X138379200Y-58508900D02*
X138379200Y-59702700D01*
X139052300Y-58508900D02*
X139052300Y-59702700D01*
X139052300Y-59702700D02*
X138379200Y-59702700D01*
X138379200Y-58508900D02*
X139052300Y-58508900D01*
X138379200Y-59105800D02*
X139052300Y-59105800D01*
D45*
X116992400Y-82778600D02*
X115925600Y-82778600D01*
D39*
X110401100Y-68618100D02*
X111556800Y-68618100D01*
X137731500Y-57861200D02*
X138379200Y-58508900D01*
X137045700Y-57175400D02*
X137731500Y-57861200D01*
D40*
X138023600Y-58826400D02*
X138023600Y-58153300D01*
X138023600Y-58153300D02*
X138531600Y-58153300D01*
X151333100Y-77393800D02*
X151510900Y-77571600D01*
X150520400Y-77508100D02*
X151333100Y-77508100D01*
D39*
X166370000Y-86029800D02*
X166509700Y-85890100D01*
X166370000Y-87503000D02*
X166370000Y-86029800D01*
D45*
X131851400Y-82715100D02*
X132270400Y-83134100D01*
X130975200Y-82715100D02*
X131851400Y-82715100D01*
X130975100Y-82715200D02*
X130975200Y-82715100D01*
X132270400Y-83134100D02*
X133235700Y-83134100D01*
D38*
X155295600Y-94996000D02*
X155295600Y-94107000D01*
X157607000Y-95478600D02*
X155778200Y-95478600D01*
X155778200Y-95478600D02*
X155295600Y-94996000D01*
D39*
X168135300Y-85928200D02*
X169799000Y-85928200D01*
X134035800Y-74295000D02*
X134467600Y-74295000D01*
X134531100Y-74358500D02*
X134531100Y-75514200D01*
X134467600Y-74295000D02*
X134531100Y-74358500D01*
X132130800Y-76314300D02*
X128854200Y-76314300D01*
D45*
X137922000Y-81102200D02*
X133731000Y-81102200D01*
X141935200Y-85115400D02*
X137922000Y-81102200D01*
X163474400Y-75336400D02*
X157505400Y-75336400D01*
X157505400Y-75336400D02*
X153797000Y-79044800D01*
X166674800Y-73990200D02*
X164820600Y-73990200D01*
X168656000Y-74777600D02*
X167462200Y-74777600D01*
X164820600Y-73990200D02*
X163474400Y-75336400D01*
X167462200Y-74777600D02*
X166674800Y-73990200D01*
X147789900Y-79959200D02*
X147789900Y-82626200D01*
X153797000Y-79044800D02*
X148704300Y-79044800D01*
X148704300Y-79044800D02*
X147789900Y-79959200D01*
X147789900Y-82626200D02*
X145300700Y-85115400D01*
X145300700Y-85115400D02*
X141935200Y-85115400D01*
X132943600Y-81356200D02*
X132943600Y-80314800D01*
X133350000Y-81762600D02*
X132943600Y-81356200D01*
X141249400Y-85521800D02*
X137490200Y-81762600D01*
X137490200Y-81762600D02*
X133350000Y-81762600D01*
X168656000Y-76987400D02*
X163220400Y-76987400D01*
X163220400Y-76987400D02*
X162763200Y-76530200D01*
X162763200Y-76530200D02*
X160185100Y-76530200D01*
X160185100Y-76530200D02*
X151193500Y-85521800D01*
X151193500Y-85521800D02*
X141249400Y-85521800D01*
X166700200Y-79197200D02*
X168630600Y-79197200D01*
X166065200Y-78562200D02*
X166700200Y-79197200D01*
X133045200Y-82346800D02*
X137134600Y-82346800D01*
X132156200Y-81102200D02*
X132156200Y-81457800D01*
X137134600Y-82346800D02*
X140728700Y-85940900D01*
X132156200Y-81457800D02*
X133045200Y-82346800D01*
X162090100Y-78562200D02*
X166065200Y-78562200D01*
X155562300Y-85940900D02*
X157911800Y-83591400D01*
X140728700Y-85940900D02*
X155562300Y-85940900D01*
X157911800Y-83591400D02*
X160566100Y-83591400D01*
X161531300Y-82626200D02*
X161531300Y-79121000D01*
X160566100Y-83591400D02*
X161531300Y-82626200D01*
X161531300Y-79121000D02*
X162090100Y-78562200D01*
X136207500Y-86398100D02*
X134594600Y-84785200D01*
X155892500Y-86398100D02*
X136207500Y-86398100D01*
X165150800Y-85471000D02*
X165150800Y-87731600D01*
X166471600Y-84150200D02*
X165150800Y-85471000D01*
X164617400Y-88265000D02*
X163360100Y-88265000D01*
X172440600Y-83413600D02*
X171704000Y-84150200D01*
X171704000Y-84150200D02*
X166471600Y-84150200D01*
X162382200Y-87287100D02*
X162382200Y-85445600D01*
X163360100Y-88265000D02*
X162382200Y-87287100D01*
X162382200Y-85445600D02*
X161264600Y-84328000D01*
X165150800Y-87731600D02*
X164617400Y-88265000D01*
X161264600Y-84328000D02*
X157962600Y-84328000D01*
X157962600Y-84328000D02*
X155892500Y-86398100D01*
D40*
X147093800Y-76360300D02*
X147091400Y-76357900D01*
X147777200Y-76360300D02*
X147093800Y-76360300D01*
X147777200Y-76360300D02*
X148105000Y-76360300D01*
D42*
X148031200Y-75349100D02*
X148031200Y-76377800D01*
X155854400Y-74574400D02*
X148805900Y-74574400D01*
X148805900Y-74574400D02*
X148031200Y-75349100D01*
X157759400Y-70434200D02*
X157759400Y-72669400D01*
X157759400Y-72669400D02*
X155854400Y-74574400D01*
D45*
X150013800Y-95466600D02*
X150013800Y-96546800D01*
X150013800Y-96546800D02*
X150495000Y-97028000D01*
X141198600Y-96367600D02*
X131851400Y-87020400D01*
X141198600Y-97586800D02*
X141198600Y-96367600D01*
X143103600Y-98526600D02*
X142138400Y-98526600D01*
X142138400Y-98526600D02*
X141198600Y-97586800D01*
D47*
X163034800Y-55360400D02*
X163034800Y-68500400D01*
D45*
X128270000Y-81356200D02*
X128651000Y-80975200D01*
X123698000Y-81483200D02*
X123825000Y-81356200D01*
X123825000Y-81356200D02*
X128270000Y-81356200D01*
X127660400Y-86106000D02*
X133451600Y-91897200D01*
X123698000Y-84531200D02*
X125272800Y-86106000D01*
X133451600Y-91897200D02*
X133451600Y-94818200D01*
X125272800Y-86106000D02*
X127660400Y-86106000D01*
X125958600Y-85369400D02*
X124714000Y-84124800D01*
X135991600Y-94234000D02*
X135991600Y-92989400D01*
X128371600Y-85369400D02*
X125958600Y-85369400D01*
X135991600Y-92989400D02*
X128371600Y-85369400D01*
X129184400Y-80873600D02*
X129743200Y-80314800D01*
X124714000Y-81940400D02*
X128803400Y-81940400D01*
X129184400Y-81559400D02*
X129184400Y-80873600D01*
X128803400Y-81940400D02*
X129184400Y-81559400D01*
D40*
X146454000Y-77332700D02*
X146329400Y-77457300D01*
X149123400Y-77332700D02*
X146454000Y-77332700D01*
D38*
X146519900Y-77317600D02*
X145770700Y-77317600D01*
X146329400Y-77457300D02*
X146469100Y-77317600D01*
X146469100Y-77317600D02*
X146519900Y-77317600D01*
D45*
X145465800Y-78155800D02*
X145465800Y-77317600D01*
X134543800Y-78740000D02*
X136296400Y-80492600D01*
X136296400Y-80492600D02*
X141770100Y-80492600D01*
X143700500Y-79921100D02*
X145465800Y-78155800D01*
X142341600Y-79921100D02*
X143700500Y-79921100D01*
X134543800Y-77114400D02*
X134543800Y-78740000D01*
X141770100Y-80492600D02*
X142341600Y-79921100D01*
X136829800Y-79476600D02*
X135788400Y-78435200D01*
X135788400Y-78435200D02*
X135788400Y-76835000D01*
X144322800Y-77609700D02*
X143433800Y-77609700D01*
X143433800Y-77609700D02*
X141566900Y-79476600D01*
X141566900Y-79476600D02*
X136829800Y-79476600D01*
X135356600Y-76403200D02*
X135356600Y-75514200D01*
X135788400Y-76835000D02*
X135356600Y-76403200D01*
X133731000Y-76047600D02*
X133731000Y-75514200D01*
X134112000Y-76428600D02*
X133731000Y-76047600D01*
X134620000Y-76428600D02*
X134112000Y-76428600D01*
X135204200Y-78638400D02*
X135204200Y-77012800D01*
X136525000Y-79959200D02*
X135204200Y-78638400D01*
X141719300Y-79959200D02*
X136525000Y-79959200D01*
X135204200Y-77012800D02*
X134620000Y-76428600D01*
X143725900Y-78511400D02*
X143167100Y-78511400D01*
X143167100Y-78511400D02*
X141719300Y-79959200D01*
X122377200Y-83489800D02*
X120929400Y-84937600D01*
X136804400Y-83718400D02*
X136601200Y-83921600D01*
X136601200Y-83921600D02*
X129438400Y-83921600D01*
X129438400Y-83921600D02*
X129006600Y-83489800D01*
X129006600Y-83489800D02*
X122377200Y-83489800D01*
X137464800Y-83718400D02*
X136804400Y-83718400D01*
D40*
X146088100Y-80810100D02*
X145884900Y-80810100D01*
X144995900Y-79717900D02*
X145415000Y-79298800D01*
X146545300Y-79717900D02*
X146545300Y-80352900D01*
X146545300Y-80352900D02*
X146088100Y-80810100D01*
X145415000Y-79298800D02*
X146126200Y-79298800D01*
X146126200Y-79298800D02*
X146545300Y-79717900D01*
D45*
G36*
X147855000Y-93524400D02*
G01*
X147599400Y-93524400D01*
X147579891Y-93526321D01*
X147561132Y-93532012D01*
X147543843Y-93541253D01*
X147528689Y-93553689D01*
X147350889Y-93731489D01*
X147338453Y-93746643D01*
X147329212Y-93763932D01*
X147323521Y-93782691D01*
X147321600Y-93802200D01*
X147321600Y-94057800D01*
X145211800Y-94057800D01*
X145192291Y-94059721D01*
X145173532Y-94065412D01*
X145156243Y-94074653D01*
X145141089Y-94087089D01*
X144937889Y-94290289D01*
X144925453Y-94305443D01*
X144916212Y-94322732D01*
X144910521Y-94341491D01*
X144908600Y-94361000D01*
X144908600Y-95097600D01*
X144910521Y-95117109D01*
X144916212Y-95135868D01*
X144925453Y-95153157D01*
X144937889Y-95168311D01*
X145141089Y-95371511D01*
X145156243Y-95383947D01*
X145173532Y-95393188D01*
X145192291Y-95398879D01*
X145211800Y-95400800D01*
X147321600Y-95400800D01*
X147321600Y-95631000D01*
X147323521Y-95650509D01*
X147329212Y-95669268D01*
X147338453Y-95686557D01*
X147350889Y-95701711D01*
X147528689Y-95879511D01*
X147543843Y-95891947D01*
X147561132Y-95901188D01*
X147579891Y-95906879D01*
X147599400Y-95908800D01*
X147855000Y-95908800D01*
X147855000Y-96521600D01*
X147599400Y-96521600D01*
X147579891Y-96523521D01*
X147561132Y-96529212D01*
X147543843Y-96538453D01*
X147528689Y-96550889D01*
X147300089Y-96779489D01*
X147287653Y-96794643D01*
X147278412Y-96811932D01*
X147272721Y-96830691D01*
X147270800Y-96850200D01*
X147270800Y-99094778D01*
X147176978Y-99188600D01*
X146599422Y-99188600D01*
X146505600Y-99094778D01*
X146505600Y-96316800D01*
X146503679Y-96297291D01*
X146497988Y-96278532D01*
X146488747Y-96261243D01*
X146476311Y-96246089D01*
X146247711Y-96017489D01*
X146232557Y-96005053D01*
X146215268Y-95995812D01*
X146196509Y-95990121D01*
X146177000Y-95988200D01*
X144465822Y-95988200D01*
X143991000Y-95513378D01*
X143991000Y-93665822D01*
X144288022Y-93368800D01*
X147396200Y-93368800D01*
X147415709Y-93366879D01*
X147434468Y-93361188D01*
X147451757Y-93351947D01*
X147466911Y-93339511D01*
X147644711Y-93161711D01*
X147657147Y-93146557D01*
X147666388Y-93129268D01*
X147672079Y-93110509D01*
X147674000Y-93091000D01*
X147674000Y-92911600D01*
X147855000Y-92911600D01*
X147855000Y-93524400D01*
G37*
X147855000Y-93524400D02*
X147599400Y-93524400D01*
X147579891Y-93526321D01*
X147561132Y-93532012D01*
X147543843Y-93541253D01*
X147528689Y-93553689D01*
X147350889Y-93731489D01*
X147338453Y-93746643D01*
X147329212Y-93763932D01*
X147323521Y-93782691D01*
X147321600Y-93802200D01*
X147321600Y-94057800D01*
X145211800Y-94057800D01*
X145192291Y-94059721D01*
X145173532Y-94065412D01*
X145156243Y-94074653D01*
X145141089Y-94087089D01*
X144937889Y-94290289D01*
X144925453Y-94305443D01*
X144916212Y-94322732D01*
X144910521Y-94341491D01*
X144908600Y-94361000D01*
X144908600Y-95097600D01*
X144910521Y-95117109D01*
X144916212Y-95135868D01*
X144925453Y-95153157D01*
X144937889Y-95168311D01*
X145141089Y-95371511D01*
X145156243Y-95383947D01*
X145173532Y-95393188D01*
X145192291Y-95398879D01*
X145211800Y-95400800D01*
X147321600Y-95400800D01*
X147321600Y-95631000D01*
X147323521Y-95650509D01*
X147329212Y-95669268D01*
X147338453Y-95686557D01*
X147350889Y-95701711D01*
X147528689Y-95879511D01*
X147543843Y-95891947D01*
X147561132Y-95901188D01*
X147579891Y-95906879D01*
X147599400Y-95908800D01*
X147855000Y-95908800D01*
X147855000Y-96521600D01*
X147599400Y-96521600D01*
X147579891Y-96523521D01*
X147561132Y-96529212D01*
X147543843Y-96538453D01*
X147528689Y-96550889D01*
X147300089Y-96779489D01*
X147287653Y-96794643D01*
X147278412Y-96811932D01*
X147272721Y-96830691D01*
X147270800Y-96850200D01*
X147270800Y-99094778D01*
X147176978Y-99188600D01*
X146599422Y-99188600D01*
X146505600Y-99094778D01*
X146505600Y-96316800D01*
X146503679Y-96297291D01*
X146497988Y-96278532D01*
X146488747Y-96261243D01*
X146476311Y-96246089D01*
X146247711Y-96017489D01*
X146232557Y-96005053D01*
X146215268Y-95995812D01*
X146196509Y-95990121D01*
X146177000Y-95988200D01*
X144465822Y-95988200D01*
X143991000Y-95513378D01*
X143991000Y-93665822D01*
X144288022Y-93368800D01*
X147396200Y-93368800D01*
X147415709Y-93366879D01*
X147434468Y-93361188D01*
X147451757Y-93351947D01*
X147466911Y-93339511D01*
X147644711Y-93161711D01*
X147657147Y-93146557D01*
X147666388Y-93129268D01*
X147672079Y-93110509D01*
X147674000Y-93091000D01*
X147674000Y-92911600D01*
X147855000Y-92911600D01*
X147855000Y-93524400D01*
G36*
X148820200Y-99120178D02*
G01*
X148751778Y-99188600D01*
X148174222Y-99188600D01*
X148105800Y-99120178D01*
X148105800Y-98288622D01*
X148686111Y-97708311D01*
X148698547Y-97693157D01*
X148707788Y-97675868D01*
X148713479Y-97657109D01*
X148715400Y-97637600D01*
X148715400Y-95959600D01*
X148820200Y-95959600D01*
X148820200Y-99120178D01*
G37*
X148820200Y-99120178D02*
X148751778Y-99188600D01*
X148174222Y-99188600D01*
X148105800Y-99120178D01*
X148105800Y-98288622D01*
X148686111Y-97708311D01*
X148698547Y-97693157D01*
X148707788Y-97675868D01*
X148713479Y-97657109D01*
X148715400Y-97637600D01*
X148715400Y-95959600D01*
X148820200Y-95959600D01*
X148820200Y-99120178D01*
G36*
X154865400Y-90744822D02*
G01*
X154865400Y-92033578D01*
X154771578Y-92127400D01*
X149148800Y-92127400D01*
X149129291Y-92129321D01*
X149110532Y-92135012D01*
X149093243Y-92144253D01*
X149078089Y-92156689D01*
X148874889Y-92359889D01*
X148862453Y-92375043D01*
X148853212Y-92392332D01*
X148847521Y-92411091D01*
X148845600Y-92430600D01*
X148845600Y-93524400D01*
X148182000Y-93524400D01*
X148182000Y-90821022D01*
X148377422Y-90625600D01*
X154746178Y-90625600D01*
X154865400Y-90744822D01*
G37*
X154865400Y-90744822D02*
X154865400Y-92033578D01*
X154771578Y-92127400D01*
X149148800Y-92127400D01*
X149129291Y-92129321D01*
X149110532Y-92135012D01*
X149093243Y-92144253D01*
X149078089Y-92156689D01*
X148874889Y-92359889D01*
X148862453Y-92375043D01*
X148853212Y-92392332D01*
X148847521Y-92411091D01*
X148845600Y-92430600D01*
X148845600Y-93524400D01*
X148182000Y-93524400D01*
X148182000Y-90821022D01*
X148377422Y-90625600D01*
X154746178Y-90625600D01*
X154865400Y-90744822D01*
G36*
X142978200Y-88890622D02*
G01*
X142978200Y-94954578D01*
X142833578Y-95099200D01*
X142306822Y-95099200D01*
X142162200Y-94954578D01*
X142162200Y-88941422D01*
X142306822Y-88796800D01*
X142884378Y-88796800D01*
X142978200Y-88890622D01*
G37*
X142978200Y-88890622D02*
X142978200Y-94954578D01*
X142833578Y-95099200D01*
X142306822Y-95099200D01*
X142162200Y-94954578D01*
X142162200Y-88941422D01*
X142306822Y-88796800D01*
X142884378Y-88796800D01*
X142978200Y-88890622D01*
D48*
G36*
X150405197Y-88431003D02*
G01*
X150424443Y-88446797D01*
X150446399Y-88458533D01*
X150470224Y-88465760D01*
X150495000Y-88468200D01*
X151915594Y-88468200D01*
X152095200Y-88647806D01*
X152095200Y-89507794D01*
X151864794Y-89738200D01*
X145618200Y-89738200D01*
X145593424Y-89740640D01*
X145569599Y-89747867D01*
X145547643Y-89759603D01*
X145528397Y-89775397D01*
X145020397Y-90283397D01*
X145004603Y-90302643D01*
X144992867Y-90324599D01*
X144985640Y-90348424D01*
X144983200Y-90373200D01*
X144983200Y-92517694D01*
X144790894Y-92710000D01*
X144134106Y-92710000D01*
X143941800Y-92517694D01*
X143941800Y-88520806D01*
X144350006Y-88112600D01*
X150086794Y-88112600D01*
X150405197Y-88431003D01*
G37*
X150405197Y-88431003D02*
X150424443Y-88446797D01*
X150446399Y-88458533D01*
X150470224Y-88465760D01*
X150495000Y-88468200D01*
X151915594Y-88468200D01*
X152095200Y-88647806D01*
X152095200Y-89507794D01*
X151864794Y-89738200D01*
X145618200Y-89738200D01*
X145593424Y-89740640D01*
X145569599Y-89747867D01*
X145547643Y-89759603D01*
X145528397Y-89775397D01*
X145020397Y-90283397D01*
X145004603Y-90302643D01*
X144992867Y-90324599D01*
X144985640Y-90348424D01*
X144983200Y-90373200D01*
X144983200Y-92517694D01*
X144790894Y-92710000D01*
X144134106Y-92710000D01*
X143941800Y-92517694D01*
X143941800Y-88520806D01*
X144350006Y-88112600D01*
X150086794Y-88112600D01*
X150405197Y-88431003D01*
G36*
X172897800Y-71418894D02*
G01*
X171437300Y-71418894D01*
X171437300Y-54051200D01*
X171434860Y-54026424D01*
X171427633Y-54002599D01*
X171415897Y-53980643D01*
X171400103Y-53961397D01*
X171380857Y-53945603D01*
X171358901Y-53933867D01*
X171335076Y-53926640D01*
X171310300Y-53924200D01*
X91236800Y-53924200D01*
X91212024Y-53926640D01*
X91188199Y-53933867D01*
X91166243Y-53945603D01*
X91146997Y-53961397D01*
X91131203Y-53980643D01*
X91119467Y-54002599D01*
X91112240Y-54026424D01*
X91109800Y-54051200D01*
X91109800Y-100761800D01*
X91112240Y-100786576D01*
X91119467Y-100810401D01*
X91131203Y-100832357D01*
X91146997Y-100851603D01*
X91166243Y-100867397D01*
X91188199Y-100879133D01*
X91212024Y-100886360D01*
X91236800Y-100888800D01*
X171310300Y-100888800D01*
X171335076Y-100886360D01*
X171358901Y-100879133D01*
X171380857Y-100867397D01*
X171400103Y-100851603D01*
X171415897Y-100832357D01*
X171427633Y-100810401D01*
X171434860Y-100786576D01*
X171437300Y-100761800D01*
X171437300Y-84624822D01*
X172897800Y-84624822D01*
X172897800Y-102438200D01*
X89331800Y-102438200D01*
X89331800Y-52400200D01*
X172897800Y-52400200D01*
X172897800Y-71418894D01*
G37*
X172897800Y-71418894D02*
X171437300Y-71418894D01*
X171437300Y-54051200D01*
X171434860Y-54026424D01*
X171427633Y-54002599D01*
X171415897Y-53980643D01*
X171400103Y-53961397D01*
X171380857Y-53945603D01*
X171358901Y-53933867D01*
X171335076Y-53926640D01*
X171310300Y-53924200D01*
X91236800Y-53924200D01*
X91212024Y-53926640D01*
X91188199Y-53933867D01*
X91166243Y-53945603D01*
X91146997Y-53961397D01*
X91131203Y-53980643D01*
X91119467Y-54002599D01*
X91112240Y-54026424D01*
X91109800Y-54051200D01*
X91109800Y-100761800D01*
X91112240Y-100786576D01*
X91119467Y-100810401D01*
X91131203Y-100832357D01*
X91146997Y-100851603D01*
X91166243Y-100867397D01*
X91188199Y-100879133D01*
X91212024Y-100886360D01*
X91236800Y-100888800D01*
X171310300Y-100888800D01*
X171335076Y-100886360D01*
X171358901Y-100879133D01*
X171380857Y-100867397D01*
X171400103Y-100851603D01*
X171415897Y-100832357D01*
X171427633Y-100810401D01*
X171434860Y-100786576D01*
X171437300Y-100761800D01*
X171437300Y-84624822D01*
X172897800Y-84624822D01*
X172897800Y-102438200D01*
X89331800Y-102438200D01*
X89331800Y-52400200D01*
X172897800Y-52400200D01*
X172897800Y-71418894D01*
G36*
X172897800Y-81686400D02*
G01*
X171437300Y-81686400D01*
X171437300Y-73806494D01*
X172897800Y-73806494D01*
X172897800Y-81686400D01*
G37*
X172897800Y-81686400D02*
X171437300Y-81686400D01*
X171437300Y-73806494D01*
X172897800Y-73806494D01*
X172897800Y-81686400D01*
G36*
X161290000Y-89206606D02*
G01*
X161290000Y-91717594D01*
X161034194Y-91973400D01*
X158955006Y-91973400D01*
X158673800Y-91692194D01*
X158673800Y-90502006D01*
X158980406Y-90195400D01*
X159943800Y-90195400D01*
X159968576Y-90192960D01*
X159992401Y-90185733D01*
X160014357Y-90173997D01*
X160033603Y-90158203D01*
X160338403Y-89853403D01*
X160354197Y-89834157D01*
X160365933Y-89812201D01*
X160373160Y-89788376D01*
X160375600Y-89763600D01*
X160375600Y-89206606D01*
X160453606Y-89128600D01*
X161211994Y-89128600D01*
X161290000Y-89206606D01*
G37*
X161290000Y-89206606D02*
X161290000Y-91717594D01*
X161034194Y-91973400D01*
X158955006Y-91973400D01*
X158673800Y-91692194D01*
X158673800Y-90502006D01*
X158980406Y-90195400D01*
X159943800Y-90195400D01*
X159968576Y-90192960D01*
X159992401Y-90185733D01*
X160014357Y-90173997D01*
X160033603Y-90158203D01*
X160338403Y-89853403D01*
X160354197Y-89834157D01*
X160365933Y-89812201D01*
X160373160Y-89788376D01*
X160375600Y-89763600D01*
X160375600Y-89206606D01*
X160453606Y-89128600D01*
X161211994Y-89128600D01*
X161290000Y-89206606D01*
G36*
X159258000Y-88266806D02*
G01*
X159258000Y-89329994D01*
X159027594Y-89560400D01*
X158597600Y-89560400D01*
X158572824Y-89562840D01*
X158548999Y-89570067D01*
X158527043Y-89581803D01*
X158507797Y-89597597D01*
X157796597Y-90308797D01*
X157780803Y-90328043D01*
X157769067Y-90349999D01*
X157761840Y-90373824D01*
X157759400Y-90398600D01*
X157759400Y-91996994D01*
X157579794Y-92176600D01*
X156415006Y-92176600D01*
X156184600Y-91946194D01*
X156184600Y-90502006D01*
X156985603Y-89701003D01*
X157001397Y-89681757D01*
X157013133Y-89659801D01*
X157020360Y-89635976D01*
X157022800Y-89611200D01*
X157022800Y-88952606D01*
X157862806Y-88112600D01*
X159103794Y-88112600D01*
X159258000Y-88266806D01*
G37*
X159258000Y-88266806D02*
X159258000Y-89329994D01*
X159027594Y-89560400D01*
X158597600Y-89560400D01*
X158572824Y-89562840D01*
X158548999Y-89570067D01*
X158527043Y-89581803D01*
X158507797Y-89597597D01*
X157796597Y-90308797D01*
X157780803Y-90328043D01*
X157769067Y-90349999D01*
X157761840Y-90373824D01*
X157759400Y-90398600D01*
X157759400Y-91996994D01*
X157579794Y-92176600D01*
X156415006Y-92176600D01*
X156184600Y-91946194D01*
X156184600Y-90502006D01*
X156985603Y-89701003D01*
X157001397Y-89681757D01*
X157013133Y-89659801D01*
X157020360Y-89635976D01*
X157022800Y-89611200D01*
X157022800Y-88952606D01*
X157862806Y-88112600D01*
X159103794Y-88112600D01*
X159258000Y-88266806D01*
D49*
G36*
X153733500Y-58399860D02*
G01*
X153733500Y-61640540D01*
X143856620Y-71517420D01*
X143855040Y-71519344D01*
X143853867Y-71521540D01*
X143853144Y-71523922D01*
X143852900Y-71526400D01*
X143852900Y-73095940D01*
X143606340Y-73342500D01*
X132694860Y-73342500D01*
X132422900Y-73070540D01*
X132422900Y-72090460D01*
X132694860Y-71818500D01*
X134874000Y-71818500D01*
X134876478Y-71818256D01*
X134878860Y-71817533D01*
X134881056Y-71816360D01*
X134882980Y-71814780D01*
X135238580Y-71459180D01*
X135240160Y-71457256D01*
X135241333Y-71455060D01*
X135242056Y-71452678D01*
X135242300Y-71450200D01*
X135242300Y-70795060D01*
X135438060Y-70599300D01*
X136087940Y-70599300D01*
X136283700Y-70795060D01*
X136283700Y-71755000D01*
X136283944Y-71757478D01*
X136284667Y-71759860D01*
X136285840Y-71762056D01*
X136287420Y-71763980D01*
X136617620Y-72094180D01*
X136619544Y-72095760D01*
X136621740Y-72096933D01*
X136624122Y-72097656D01*
X136626600Y-72097900D01*
X140131800Y-72097900D01*
X140134278Y-72097656D01*
X140136660Y-72096933D01*
X140138856Y-72095760D01*
X140140780Y-72094180D01*
X152053380Y-60181580D01*
X152054960Y-60179656D01*
X152056133Y-60177460D01*
X152056856Y-60175078D01*
X152057100Y-60172600D01*
X152057100Y-58272860D01*
X152278260Y-58051700D01*
X153385340Y-58051700D01*
X153733500Y-58399860D01*
G37*
X153733500Y-58399860D02*
X153733500Y-61640540D01*
X143856620Y-71517420D01*
X143855040Y-71519344D01*
X143853867Y-71521540D01*
X143853144Y-71523922D01*
X143852900Y-71526400D01*
X143852900Y-73095940D01*
X143606340Y-73342500D01*
X132694860Y-73342500D01*
X132422900Y-73070540D01*
X132422900Y-72090460D01*
X132694860Y-71818500D01*
X134874000Y-71818500D01*
X134876478Y-71818256D01*
X134878860Y-71817533D01*
X134881056Y-71816360D01*
X134882980Y-71814780D01*
X135238580Y-71459180D01*
X135240160Y-71457256D01*
X135241333Y-71455060D01*
X135242056Y-71452678D01*
X135242300Y-71450200D01*
X135242300Y-70795060D01*
X135438060Y-70599300D01*
X136087940Y-70599300D01*
X136283700Y-70795060D01*
X136283700Y-71755000D01*
X136283944Y-71757478D01*
X136284667Y-71759860D01*
X136285840Y-71762056D01*
X136287420Y-71763980D01*
X136617620Y-72094180D01*
X136619544Y-72095760D01*
X136621740Y-72096933D01*
X136624122Y-72097656D01*
X136626600Y-72097900D01*
X140131800Y-72097900D01*
X140134278Y-72097656D01*
X140136660Y-72096933D01*
X140138856Y-72095760D01*
X140140780Y-72094180D01*
X152053380Y-60181580D01*
X152054960Y-60179656D01*
X152056133Y-60177460D01*
X152056856Y-60175078D01*
X152057100Y-60172600D01*
X152057100Y-58272860D01*
X152278260Y-58051700D01*
X153385340Y-58051700D01*
X153733500Y-58399860D01*
M02*
