G04 #@! TF.GenerationSoftware,KiCad,Pcbnew,(5.1.6)-1*
G04 #@! TF.CreationDate,2020-09-15T21:19:37+02:00*
G04 #@! TF.ProjectId,PrecisionTimer_RevG,50726563-6973-4696-9f6e-54696d65725f,rev?*
G04 #@! TF.SameCoordinates,Original*
G04 #@! TF.FileFunction,Legend,Top*
G04 #@! TF.FilePolarity,Positive*
%FSLAX46Y46*%
G04 Gerber Fmt 4.6, Leading zero omitted, Abs format (unit mm)*
G04 Created by KiCad (PCBNEW (5.1.6)-1) date 2020-09-15 21:19:37*
%MOMM*%
%LPD*%
G01*
G04 APERTURE LIST*
%ADD10C,0.150000*%
%ADD11C,0.200000*%
%ADD12C,0.250000*%
%ADD13C,0.300000*%
%ADD14C,0.120000*%
%ADD15C,0.100000*%
%ADD16C,0.010000*%
%ADD17C,0.254000*%
%ADD18C,0.500000*%
%ADD19R,0.650000X0.900000*%
%ADD20C,1.700000*%
%ADD21C,1.600000*%
%ADD22R,1.600000X1.700000*%
%ADD23O,3.100000X1.700000*%
%ADD24R,6.140000X3.500000*%
%ADD25C,1.500000*%
%ADD26R,3.100000X0.800000*%
%ADD27R,1.900000X4.500000*%
%ADD28O,1.900000X4.100000*%
%ADD29O,4.100000X1.900000*%
%ADD30C,0.800000*%
%ADD31R,1.900000X1.100000*%
%ADD32R,0.400000X0.400000*%
%ADD33R,1.000000X0.400000*%
%ADD34R,0.400000X1.000000*%
%ADD35R,1.900000X1.900000*%
%ADD36R,1.100000X1.250000*%
%ADD37C,2.500000*%
%ADD38C,2.100000*%
%ADD39C,0.450000*%
%ADD40C,0.900000*%
%ADD41C,1.100000*%
%ADD42R,1.300000X1.700000*%
%ADD43R,2.500000X0.840000*%
%ADD44R,2.400000X2.600000*%
%ADD45R,1.800000X1.400000*%
%ADD46R,1.400000X0.800000*%
%ADD47R,0.400000X0.900000*%
%ADD48R,1.300000X1.100000*%
%ADD49R,1.200000X1.000000*%
%ADD50R,1.100000X2.610000*%
%ADD51R,0.400000X0.950000*%
%ADD52R,0.950000X0.400000*%
%ADD53R,3.400000X3.400000*%
%ADD54R,0.550000X1.575000*%
G04 APERTURE END LIST*
D10*
X131114800Y-89738200D02*
X132029200Y-88823800D01*
X150444247Y-85567828D02*
X151206152Y-85567828D01*
X150825200Y-85948780D02*
X150825200Y-85186876D01*
X125958600Y-89281000D02*
X126415800Y-89738200D01*
X125958600Y-89281000D02*
X126415800Y-88823800D01*
X134696200Y-87198200D02*
X134061200Y-87198200D01*
X134696200Y-87198200D02*
X134696200Y-87833200D01*
X132613400Y-89281000D02*
X134696200Y-87198200D01*
X125958600Y-89281000D02*
X132613400Y-89281000D01*
X131178819Y-86041076D02*
X131178819Y-86612504D01*
X130178819Y-86326790D02*
X131178819Y-86326790D01*
X130178819Y-86945838D02*
X131178819Y-86945838D01*
X131178819Y-87183933D01*
X131131200Y-87326790D01*
X131035961Y-87422028D01*
X130940723Y-87469647D01*
X130750247Y-87517266D01*
X130607390Y-87517266D01*
X130416914Y-87469647D01*
X130321676Y-87422028D01*
X130226438Y-87326790D01*
X130178819Y-87183933D01*
X130178819Y-86945838D01*
X131178819Y-88136314D02*
X131178819Y-88326790D01*
X131131200Y-88422028D01*
X131035961Y-88517266D01*
X130845485Y-88564885D01*
X130512152Y-88564885D01*
X130321676Y-88517266D01*
X130226438Y-88422028D01*
X130178819Y-88326790D01*
X130178819Y-88136314D01*
X130226438Y-88041076D01*
X130321676Y-87945838D01*
X130512152Y-87898219D01*
X130845485Y-87898219D01*
X131035961Y-87945838D01*
X131131200Y-88041076D01*
X131178819Y-88136314D01*
X128576438Y-85826790D02*
X128528819Y-85969647D01*
X128528819Y-86207742D01*
X128576438Y-86302980D01*
X128624057Y-86350600D01*
X128719295Y-86398219D01*
X128814533Y-86398219D01*
X128909771Y-86350600D01*
X128957390Y-86302980D01*
X129005009Y-86207742D01*
X129052628Y-86017266D01*
X129100247Y-85922028D01*
X129147866Y-85874409D01*
X129243104Y-85826790D01*
X129338342Y-85826790D01*
X129433580Y-85874409D01*
X129481200Y-85922028D01*
X129528819Y-86017266D01*
X129528819Y-86255361D01*
X129481200Y-86398219D01*
X128528819Y-86826790D02*
X129528819Y-86826790D01*
X128528819Y-87398219D02*
X129100247Y-86969647D01*
X129528819Y-87398219D02*
X128957390Y-86826790D01*
X128528819Y-87826790D02*
X129528819Y-87826790D01*
X128528819Y-88302980D02*
X129528819Y-88302980D01*
X129528819Y-88683933D01*
X129481200Y-88779171D01*
X129433580Y-88826790D01*
X129338342Y-88874409D01*
X129195485Y-88874409D01*
X129100247Y-88826790D01*
X129052628Y-88779171D01*
X129005009Y-88683933D01*
X129005009Y-88302980D01*
X126878819Y-85993457D02*
X127878819Y-85993457D01*
X127164533Y-86326790D01*
X127878819Y-86660123D01*
X126878819Y-86660123D01*
X126974057Y-87707742D02*
X126926438Y-87660123D01*
X126878819Y-87517266D01*
X126878819Y-87422028D01*
X126926438Y-87279171D01*
X127021676Y-87183933D01*
X127116914Y-87136314D01*
X127307390Y-87088695D01*
X127450247Y-87088695D01*
X127640723Y-87136314D01*
X127735961Y-87183933D01*
X127831200Y-87279171D01*
X127878819Y-87422028D01*
X127878819Y-87517266D01*
X127831200Y-87660123D01*
X127783580Y-87707742D01*
X127878819Y-88136314D02*
X127069295Y-88136314D01*
X126974057Y-88183933D01*
X126926438Y-88231552D01*
X126878819Y-88326790D01*
X126878819Y-88517266D01*
X126926438Y-88612504D01*
X126974057Y-88660123D01*
X127069295Y-88707742D01*
X127878819Y-88707742D01*
D11*
X168046400Y-89839800D02*
X170942000Y-89839800D01*
X166573200Y-88366600D02*
X168046400Y-89839800D01*
X110388400Y-96926400D02*
X101346000Y-96926400D01*
X110388400Y-99466400D02*
X110388400Y-96926400D01*
X101346000Y-99466400D02*
X110388400Y-99466400D01*
X101346000Y-96926400D02*
X101346000Y-99466400D01*
X103663228Y-98951171D02*
X103163228Y-98236885D01*
X102806085Y-98951171D02*
X102806085Y-97451171D01*
X103377514Y-97451171D01*
X103520371Y-97522600D01*
X103591800Y-97594028D01*
X103663228Y-97736885D01*
X103663228Y-97951171D01*
X103591800Y-98094028D01*
X103520371Y-98165457D01*
X103377514Y-98236885D01*
X102806085Y-98236885D01*
X104306085Y-98165457D02*
X104806085Y-98165457D01*
X105020371Y-98951171D02*
X104306085Y-98951171D01*
X104306085Y-97451171D01*
X105020371Y-97451171D01*
X105448942Y-97451171D02*
X105948942Y-98951171D01*
X106448942Y-97451171D01*
X108877514Y-97522600D02*
X108734657Y-97451171D01*
X108520371Y-97451171D01*
X108306085Y-97522600D01*
X108163228Y-97665457D01*
X108091800Y-97808314D01*
X108020371Y-98094028D01*
X108020371Y-98308314D01*
X108091800Y-98594028D01*
X108163228Y-98736885D01*
X108306085Y-98879742D01*
X108520371Y-98951171D01*
X108663228Y-98951171D01*
X108877514Y-98879742D01*
X108948942Y-98808314D01*
X108948942Y-98308314D01*
X108663228Y-98308314D01*
D10*
X101396800Y-93294200D02*
X101854000Y-93751400D01*
X100355400Y-94665800D02*
X101396800Y-94665800D01*
X101396800Y-92583000D02*
X102438200Y-92583000D01*
X101396800Y-93294200D02*
X100939600Y-93751400D01*
X101396800Y-94665800D02*
X101396800Y-92583000D01*
X101396800Y-77165200D02*
X101854000Y-77622400D01*
X100355400Y-78536800D02*
X101396800Y-78536800D01*
X101396800Y-76454000D02*
X102438200Y-76454000D01*
X101396800Y-77165200D02*
X100939600Y-77622400D01*
X101396800Y-78536800D02*
X101396800Y-76454000D01*
X101396800Y-62280800D02*
X101396800Y-60198000D01*
X100355400Y-62280800D02*
X101396800Y-62280800D01*
X101396800Y-60909200D02*
X100939600Y-61366400D01*
X101396800Y-60198000D02*
X102438200Y-60198000D01*
X101396800Y-60909200D02*
X101854000Y-61366400D01*
D11*
X162204400Y-88366600D02*
X166573200Y-88366600D01*
X161137600Y-87299800D02*
X162204400Y-88366600D01*
X155829000Y-87299800D02*
X161137600Y-87299800D01*
X154305000Y-88823800D02*
X155829000Y-87299800D01*
X149682200Y-88823800D02*
X154305000Y-88823800D01*
X148513800Y-89992200D02*
X149682200Y-88823800D01*
X148513800Y-100025200D02*
X148513800Y-89992200D01*
X129184400Y-62534800D02*
X129184400Y-54838600D01*
X131216400Y-64566800D02*
X129184400Y-62534800D01*
X140284200Y-64566800D02*
X131216400Y-64566800D01*
X157378400Y-56515000D02*
X157378400Y-54838600D01*
X156718000Y-57175400D02*
X157378400Y-56515000D01*
X154025600Y-58216800D02*
X155067000Y-57175400D01*
X155067000Y-57175400D02*
X156718000Y-57175400D01*
X154025600Y-61671200D02*
X154025600Y-58216800D01*
X152425400Y-63271400D02*
X154025600Y-61671200D01*
X150393400Y-63271400D02*
X152425400Y-63271400D01*
X149098000Y-64566800D02*
X150393400Y-63271400D01*
X143687800Y-64566800D02*
X149098000Y-64566800D01*
D12*
X131343695Y-62115809D02*
X132334171Y-62115809D01*
X131800838Y-62725333D01*
X132029409Y-62725333D01*
X132181790Y-62801523D01*
X132257980Y-62877714D01*
X132334171Y-63030095D01*
X132334171Y-63411047D01*
X132257980Y-63563428D01*
X132181790Y-63639619D01*
X132029409Y-63715809D01*
X131572266Y-63715809D01*
X131419885Y-63639619D01*
X131343695Y-63563428D01*
X133019885Y-63563428D02*
X133096076Y-63639619D01*
X133019885Y-63715809D01*
X132943695Y-63639619D01*
X133019885Y-63563428D01*
X133019885Y-63715809D01*
X133629409Y-62115809D02*
X134619885Y-62115809D01*
X134086552Y-62725333D01*
X134315123Y-62725333D01*
X134467504Y-62801523D01*
X134543695Y-62877714D01*
X134619885Y-63030095D01*
X134619885Y-63411047D01*
X134543695Y-63563428D01*
X134467504Y-63639619D01*
X134315123Y-63715809D01*
X133857980Y-63715809D01*
X133705600Y-63639619D01*
X133629409Y-63563428D01*
X135077028Y-62115809D02*
X135610361Y-63715809D01*
X136143695Y-62115809D01*
X145059571Y-63715809D02*
X144145285Y-63715809D01*
X144602428Y-63715809D02*
X144602428Y-62115809D01*
X144450047Y-62344380D01*
X144297666Y-62496761D01*
X144145285Y-62572952D01*
X145745285Y-63563428D02*
X145821476Y-63639619D01*
X145745285Y-63715809D01*
X145669095Y-63639619D01*
X145745285Y-63563428D01*
X145745285Y-63715809D01*
X146431000Y-62268190D02*
X146507190Y-62192000D01*
X146659571Y-62115809D01*
X147040523Y-62115809D01*
X147192904Y-62192000D01*
X147269095Y-62268190D01*
X147345285Y-62420571D01*
X147345285Y-62572952D01*
X147269095Y-62801523D01*
X146354809Y-63715809D01*
X147345285Y-63715809D01*
X147802428Y-62115809D02*
X148335761Y-63715809D01*
X148869095Y-62115809D01*
D10*
X153262000Y-98069333D02*
X153262000Y-97002666D01*
X152730266Y-91540000D02*
X153796933Y-91540000D01*
X153263600Y-92073333D02*
X153263600Y-91006666D01*
X127696980Y-96065790D02*
X127696980Y-95446742D01*
X128077933Y-95780076D01*
X128077933Y-95637219D01*
X128125552Y-95541980D01*
X128173171Y-95494361D01*
X128268409Y-95446742D01*
X128506504Y-95446742D01*
X128601742Y-95494361D01*
X128649361Y-95541980D01*
X128696980Y-95637219D01*
X128696980Y-95922933D01*
X128649361Y-96018171D01*
X128601742Y-96065790D01*
X128601742Y-95018171D02*
X128649361Y-94970552D01*
X128696980Y-95018171D01*
X128649361Y-95065790D01*
X128601742Y-95018171D01*
X128696980Y-95018171D01*
X127696980Y-94637219D02*
X127696980Y-94018171D01*
X128077933Y-94351504D01*
X128077933Y-94208647D01*
X128125552Y-94113409D01*
X128173171Y-94065790D01*
X128268409Y-94018171D01*
X128506504Y-94018171D01*
X128601742Y-94065790D01*
X128649361Y-94113409D01*
X128696980Y-94208647D01*
X128696980Y-94494361D01*
X128649361Y-94589600D01*
X128601742Y-94637219D01*
X127696980Y-93732457D02*
X128696980Y-93399123D01*
X127696980Y-93065790D01*
X137274466Y-90054180D02*
X137607800Y-91054180D01*
X137941133Y-90054180D01*
X138845895Y-90958942D02*
X138798276Y-91006561D01*
X138655419Y-91054180D01*
X138560180Y-91054180D01*
X138417323Y-91006561D01*
X138322085Y-90911323D01*
X138274466Y-90816085D01*
X138226847Y-90625609D01*
X138226847Y-90482752D01*
X138274466Y-90292276D01*
X138322085Y-90197038D01*
X138417323Y-90101800D01*
X138560180Y-90054180D01*
X138655419Y-90054180D01*
X138798276Y-90101800D01*
X138845895Y-90149419D01*
X139845895Y-90958942D02*
X139798276Y-91006561D01*
X139655419Y-91054180D01*
X139560180Y-91054180D01*
X139417323Y-91006561D01*
X139322085Y-90911323D01*
X139274466Y-90816085D01*
X139226847Y-90625609D01*
X139226847Y-90482752D01*
X139274466Y-90292276D01*
X139322085Y-90197038D01*
X139417323Y-90101800D01*
X139560180Y-90054180D01*
X139655419Y-90054180D01*
X139798276Y-90101800D01*
X139845895Y-90149419D01*
X130327495Y-98280600D02*
X130232257Y-98232980D01*
X130089400Y-98232980D01*
X129946542Y-98280600D01*
X129851304Y-98375838D01*
X129803685Y-98471076D01*
X129756066Y-98661552D01*
X129756066Y-98804409D01*
X129803685Y-98994885D01*
X129851304Y-99090123D01*
X129946542Y-99185361D01*
X130089400Y-99232980D01*
X130184638Y-99232980D01*
X130327495Y-99185361D01*
X130375114Y-99137742D01*
X130375114Y-98804409D01*
X130184638Y-98804409D01*
X130803685Y-99232980D02*
X130803685Y-98232980D01*
X131375114Y-99232980D01*
X131375114Y-98232980D01*
X131851304Y-99232980D02*
X131851304Y-98232980D01*
X132089400Y-98232980D01*
X132232257Y-98280600D01*
X132327495Y-98375838D01*
X132375114Y-98471076D01*
X132422733Y-98661552D01*
X132422733Y-98804409D01*
X132375114Y-98994885D01*
X132327495Y-99090123D01*
X132232257Y-99185361D01*
X132089400Y-99232980D01*
X131851304Y-99232980D01*
X133259533Y-91104980D02*
X132926200Y-90628790D01*
X132688104Y-91104980D02*
X132688104Y-90104980D01*
X133069057Y-90104980D01*
X133164295Y-90152600D01*
X133211914Y-90200219D01*
X133259533Y-90295457D01*
X133259533Y-90438314D01*
X133211914Y-90533552D01*
X133164295Y-90581171D01*
X133069057Y-90628790D01*
X132688104Y-90628790D01*
X133592866Y-90104980D02*
X134259533Y-91104980D01*
X134259533Y-90104980D02*
X133592866Y-91104980D01*
X135204295Y-98232980D02*
X135775723Y-98232980D01*
X135490009Y-99232980D02*
X135490009Y-98232980D01*
X136013819Y-98232980D02*
X136680485Y-99232980D01*
X136680485Y-98232980D02*
X136013819Y-99232980D01*
D13*
X124710961Y-97957876D02*
X126330009Y-97957876D01*
X126520485Y-97862638D01*
X126615723Y-97767400D01*
X126710961Y-97576923D01*
X126710961Y-97195971D01*
X126615723Y-97005495D01*
X126520485Y-96910257D01*
X126330009Y-96815019D01*
X124710961Y-96815019D01*
X126139533Y-95957876D02*
X126139533Y-95005495D01*
X126710961Y-96148352D02*
X124710961Y-95481685D01*
X126710961Y-94815019D01*
X126710961Y-93005495D02*
X125758580Y-93672161D01*
X126710961Y-94148352D02*
X124710961Y-94148352D01*
X124710961Y-93386447D01*
X124806200Y-93195971D01*
X124901438Y-93100733D01*
X125091914Y-93005495D01*
X125377628Y-93005495D01*
X125568104Y-93100733D01*
X125663342Y-93195971D01*
X125758580Y-93386447D01*
X125758580Y-94148352D01*
X124710961Y-92434066D02*
X124710961Y-91291209D01*
X126710961Y-91862638D02*
X124710961Y-91862638D01*
X149374361Y-98488047D02*
X149374361Y-98869000D01*
X149469600Y-99059476D01*
X149564838Y-99154714D01*
X149850552Y-99345190D01*
X150231504Y-99440428D01*
X150993409Y-99440428D01*
X151183885Y-99345190D01*
X151279123Y-99249952D01*
X151374361Y-99059476D01*
X151374361Y-98678523D01*
X151279123Y-98488047D01*
X151183885Y-98392809D01*
X150993409Y-98297571D01*
X150517219Y-98297571D01*
X150326742Y-98392809D01*
X150231504Y-98488047D01*
X150136266Y-98678523D01*
X150136266Y-99059476D01*
X150231504Y-99249952D01*
X150326742Y-99345190D01*
X150517219Y-99440428D01*
X150612457Y-97440428D02*
X150612457Y-95916619D01*
X149564838Y-95059476D02*
X149469600Y-94964238D01*
X149374361Y-94773761D01*
X149374361Y-94297571D01*
X149469600Y-94107095D01*
X149564838Y-94011857D01*
X149755314Y-93916619D01*
X149945790Y-93916619D01*
X150231504Y-94011857D01*
X151374361Y-95154714D01*
X151374361Y-93916619D01*
X150041028Y-92202333D02*
X151374361Y-92202333D01*
X149279123Y-92678523D02*
X150707695Y-93154714D01*
X150707695Y-91916619D01*
X149374361Y-91440428D02*
X151374361Y-90773761D01*
X149374361Y-90107095D01*
D10*
X94242119Y-99385380D02*
X93908785Y-98909190D01*
X93670690Y-99385380D02*
X93670690Y-98385380D01*
X94051642Y-98385380D01*
X94146880Y-98433000D01*
X94194500Y-98480619D01*
X94242119Y-98575857D01*
X94242119Y-98718714D01*
X94194500Y-98813952D01*
X94146880Y-98861571D01*
X94051642Y-98909190D01*
X93670690Y-98909190D01*
X94670690Y-98861571D02*
X95004023Y-98861571D01*
X95146880Y-99385380D02*
X94670690Y-99385380D01*
X94670690Y-98385380D01*
X95146880Y-98385380D01*
X95527833Y-99337761D02*
X95670690Y-99385380D01*
X95908785Y-99385380D01*
X96004023Y-99337761D01*
X96051642Y-99290142D01*
X96099261Y-99194904D01*
X96099261Y-99099666D01*
X96051642Y-99004428D01*
X96004023Y-98956809D01*
X95908785Y-98909190D01*
X95718309Y-98861571D01*
X95623071Y-98813952D01*
X95575452Y-98766333D01*
X95527833Y-98671095D01*
X95527833Y-98575857D01*
X95575452Y-98480619D01*
X95623071Y-98433000D01*
X95718309Y-98385380D01*
X95956404Y-98385380D01*
X96099261Y-98433000D01*
X96527833Y-98861571D02*
X96861166Y-98861571D01*
X97004023Y-99385380D02*
X96527833Y-99385380D01*
X96527833Y-98385380D01*
X97004023Y-98385380D01*
X97289738Y-98385380D02*
X97861166Y-98385380D01*
X97575452Y-99385380D02*
X97575452Y-98385380D01*
X93718309Y-83132561D02*
X93861166Y-83180180D01*
X94099261Y-83180180D01*
X94194500Y-83132561D01*
X94242119Y-83084942D01*
X94289738Y-82989704D01*
X94289738Y-82894466D01*
X94242119Y-82799228D01*
X94194500Y-82751609D01*
X94099261Y-82703990D01*
X93908785Y-82656371D01*
X93813547Y-82608752D01*
X93765928Y-82561133D01*
X93718309Y-82465895D01*
X93718309Y-82370657D01*
X93765928Y-82275419D01*
X93813547Y-82227800D01*
X93908785Y-82180180D01*
X94146880Y-82180180D01*
X94289738Y-82227800D01*
X94575452Y-82180180D02*
X95146880Y-82180180D01*
X94861166Y-83180180D02*
X94861166Y-82180180D01*
X95432595Y-82894466D02*
X95908785Y-82894466D01*
X95337357Y-83180180D02*
X95670690Y-82180180D01*
X96004023Y-83180180D01*
X96908785Y-83180180D02*
X96575452Y-82703990D01*
X96337357Y-83180180D02*
X96337357Y-82180180D01*
X96718309Y-82180180D01*
X96813547Y-82227800D01*
X96861166Y-82275419D01*
X96908785Y-82370657D01*
X96908785Y-82513514D01*
X96861166Y-82608752D01*
X96813547Y-82656371D01*
X96718309Y-82703990D01*
X96337357Y-82703990D01*
X97194500Y-82180180D02*
X97765928Y-82180180D01*
X97480214Y-83180180D02*
X97480214Y-82180180D01*
X94004023Y-67003561D02*
X94146880Y-67051180D01*
X94384976Y-67051180D01*
X94480214Y-67003561D01*
X94527833Y-66955942D01*
X94575452Y-66860704D01*
X94575452Y-66765466D01*
X94527833Y-66670228D01*
X94480214Y-66622609D01*
X94384976Y-66574990D01*
X94194500Y-66527371D01*
X94099261Y-66479752D01*
X94051642Y-66432133D01*
X94004023Y-66336895D01*
X94004023Y-66241657D01*
X94051642Y-66146419D01*
X94099261Y-66098800D01*
X94194500Y-66051180D01*
X94432595Y-66051180D01*
X94575452Y-66098800D01*
X94861166Y-66051180D02*
X95432595Y-66051180D01*
X95146880Y-67051180D02*
X95146880Y-66051180D01*
X95956404Y-66051180D02*
X96146880Y-66051180D01*
X96242119Y-66098800D01*
X96337357Y-66194038D01*
X96384976Y-66384514D01*
X96384976Y-66717847D01*
X96337357Y-66908323D01*
X96242119Y-67003561D01*
X96146880Y-67051180D01*
X95956404Y-67051180D01*
X95861166Y-67003561D01*
X95765928Y-66908323D01*
X95718309Y-66717847D01*
X95718309Y-66384514D01*
X95765928Y-66194038D01*
X95861166Y-66098800D01*
X95956404Y-66051180D01*
X96813547Y-67051180D02*
X96813547Y-66051180D01*
X97194500Y-66051180D01*
X97289738Y-66098800D01*
X97337357Y-66146419D01*
X97384976Y-66241657D01*
X97384976Y-66384514D01*
X97337357Y-66479752D01*
X97289738Y-66527371D01*
X97194500Y-66574990D01*
X96813547Y-66574990D01*
X113281009Y-95565980D02*
X113900057Y-95565980D01*
X113566723Y-95946933D01*
X113709580Y-95946933D01*
X113804819Y-95994552D01*
X113852438Y-96042171D01*
X113900057Y-96137409D01*
X113900057Y-96375504D01*
X113852438Y-96470742D01*
X113804819Y-96518361D01*
X113709580Y-96565980D01*
X113423866Y-96565980D01*
X113328628Y-96518361D01*
X113281009Y-96470742D01*
X114328628Y-96470742D02*
X114376247Y-96518361D01*
X114328628Y-96565980D01*
X114281009Y-96518361D01*
X114328628Y-96470742D01*
X114328628Y-96565980D01*
X114709580Y-95565980D02*
X115328628Y-95565980D01*
X114995295Y-95946933D01*
X115138152Y-95946933D01*
X115233390Y-95994552D01*
X115281009Y-96042171D01*
X115328628Y-96137409D01*
X115328628Y-96375504D01*
X115281009Y-96470742D01*
X115233390Y-96518361D01*
X115138152Y-96565980D01*
X114852438Y-96565980D01*
X114757200Y-96518361D01*
X114709580Y-96470742D01*
X115614342Y-95565980D02*
X115947676Y-96565980D01*
X116281009Y-95565980D01*
X108235904Y-88263480D02*
X108569238Y-89263480D01*
X108902571Y-88263480D01*
X109807333Y-89168242D02*
X109759714Y-89215861D01*
X109616857Y-89263480D01*
X109521618Y-89263480D01*
X109378761Y-89215861D01*
X109283523Y-89120623D01*
X109235904Y-89025385D01*
X109188285Y-88834909D01*
X109188285Y-88692052D01*
X109235904Y-88501576D01*
X109283523Y-88406338D01*
X109378761Y-88311100D01*
X109521618Y-88263480D01*
X109616857Y-88263480D01*
X109759714Y-88311100D01*
X109807333Y-88358719D01*
X110807333Y-89168242D02*
X110759714Y-89215861D01*
X110616857Y-89263480D01*
X110521618Y-89263480D01*
X110378761Y-89215861D01*
X110283523Y-89120623D01*
X110235904Y-89025385D01*
X110188285Y-88834909D01*
X110188285Y-88692052D01*
X110235904Y-88501576D01*
X110283523Y-88406338D01*
X110378761Y-88311100D01*
X110521618Y-88263480D01*
X110616857Y-88263480D01*
X110759714Y-88311100D01*
X110807333Y-88358719D01*
X108712095Y-89660475D02*
X108616857Y-89612855D01*
X108474000Y-89612855D01*
X108331142Y-89660475D01*
X108235904Y-89755713D01*
X108188285Y-89850951D01*
X108140666Y-90041427D01*
X108140666Y-90184284D01*
X108188285Y-90374760D01*
X108235904Y-90469998D01*
X108331142Y-90565236D01*
X108474000Y-90612855D01*
X108569238Y-90612855D01*
X108712095Y-90565236D01*
X108759714Y-90517617D01*
X108759714Y-90184284D01*
X108569238Y-90184284D01*
X109188285Y-90612855D02*
X109188285Y-89612855D01*
X109759714Y-90612855D01*
X109759714Y-89612855D01*
X110235904Y-90612855D02*
X110235904Y-89612855D01*
X110474000Y-89612855D01*
X110616857Y-89660475D01*
X110712095Y-89755713D01*
X110759714Y-89850951D01*
X110807333Y-90041427D01*
X110807333Y-90184284D01*
X110759714Y-90374760D01*
X110712095Y-90469998D01*
X110616857Y-90565236D01*
X110474000Y-90612855D01*
X110235904Y-90612855D01*
X108712095Y-91009850D02*
X108616857Y-90962230D01*
X108474000Y-90962230D01*
X108331142Y-91009850D01*
X108235904Y-91105088D01*
X108188285Y-91200326D01*
X108140666Y-91390802D01*
X108140666Y-91533659D01*
X108188285Y-91724135D01*
X108235904Y-91819373D01*
X108331142Y-91914611D01*
X108474000Y-91962230D01*
X108569238Y-91962230D01*
X108712095Y-91914611D01*
X108759714Y-91866992D01*
X108759714Y-91533659D01*
X108569238Y-91533659D01*
X109188285Y-91962230D02*
X109188285Y-90962230D01*
X109759714Y-91962230D01*
X109759714Y-90962230D01*
X110235904Y-91962230D02*
X110235904Y-90962230D01*
X110474000Y-90962230D01*
X110616857Y-91009850D01*
X110712095Y-91105088D01*
X110759714Y-91200326D01*
X110807333Y-91390802D01*
X110807333Y-91533659D01*
X110759714Y-91724135D01*
X110712095Y-91819373D01*
X110616857Y-91914611D01*
X110474000Y-91962230D01*
X110235904Y-91962230D01*
X108712095Y-93708600D02*
X108616857Y-93660980D01*
X108474000Y-93660980D01*
X108331142Y-93708600D01*
X108235904Y-93803838D01*
X108188285Y-93899076D01*
X108140666Y-94089552D01*
X108140666Y-94232409D01*
X108188285Y-94422885D01*
X108235904Y-94518123D01*
X108331142Y-94613361D01*
X108474000Y-94660980D01*
X108569238Y-94660980D01*
X108712095Y-94613361D01*
X108759714Y-94565742D01*
X108759714Y-94232409D01*
X108569238Y-94232409D01*
X109188285Y-94660980D02*
X109188285Y-93660980D01*
X109759714Y-94660980D01*
X109759714Y-93660980D01*
X110235904Y-94660980D02*
X110235904Y-93660980D01*
X110474000Y-93660980D01*
X110616857Y-93708600D01*
X110712095Y-93803838D01*
X110759714Y-93899076D01*
X110807333Y-94089552D01*
X110807333Y-94232409D01*
X110759714Y-94422885D01*
X110712095Y-94518123D01*
X110616857Y-94613361D01*
X110474000Y-94660980D01*
X110235904Y-94660980D01*
X119038761Y-94648280D02*
X118705428Y-94172090D01*
X118467333Y-94648280D02*
X118467333Y-93648280D01*
X118848285Y-93648280D01*
X118943523Y-93695900D01*
X118991142Y-93743519D01*
X119038761Y-93838757D01*
X119038761Y-93981614D01*
X118991142Y-94076852D01*
X118943523Y-94124471D01*
X118848285Y-94172090D01*
X118467333Y-94172090D01*
X119419714Y-94600661D02*
X119562571Y-94648280D01*
X119800666Y-94648280D01*
X119895904Y-94600661D01*
X119943523Y-94553042D01*
X119991142Y-94457804D01*
X119991142Y-94362566D01*
X119943523Y-94267328D01*
X119895904Y-94219709D01*
X119800666Y-94172090D01*
X119610190Y-94124471D01*
X119514952Y-94076852D01*
X119467333Y-94029233D01*
X119419714Y-93933995D01*
X119419714Y-93838757D01*
X119467333Y-93743519D01*
X119514952Y-93695900D01*
X119610190Y-93648280D01*
X119848285Y-93648280D01*
X119991142Y-93695900D01*
X120276857Y-93648280D02*
X120848285Y-93648280D01*
X120562571Y-94648280D02*
X120562571Y-93648280D01*
X118324475Y-88250780D02*
X118895904Y-88250780D01*
X118610189Y-89250780D02*
X118610189Y-88250780D01*
X119229237Y-89250780D02*
X119229237Y-88250780D01*
X119562570Y-88965066D01*
X119895904Y-88250780D01*
X119895904Y-89250780D01*
X120324475Y-89203161D02*
X120467332Y-89250780D01*
X120705428Y-89250780D01*
X120800666Y-89203161D01*
X120848285Y-89155542D01*
X120895904Y-89060304D01*
X120895904Y-88965066D01*
X120848285Y-88869828D01*
X120800666Y-88822209D01*
X120705428Y-88774590D01*
X120514951Y-88726971D01*
X120419713Y-88679352D01*
X120372094Y-88631733D01*
X120324475Y-88536495D01*
X120324475Y-88441257D01*
X120372094Y-88346019D01*
X120419713Y-88298400D01*
X120514951Y-88250780D01*
X120753047Y-88250780D01*
X120895904Y-88298400D01*
X118324475Y-89600155D02*
X118895904Y-89600155D01*
X118610190Y-90600155D02*
X118610190Y-89600155D01*
X119800666Y-90504917D02*
X119753047Y-90552536D01*
X119610190Y-90600155D01*
X119514951Y-90600155D01*
X119372094Y-90552536D01*
X119276856Y-90457298D01*
X119229237Y-90362060D01*
X119181618Y-90171584D01*
X119181618Y-90028727D01*
X119229237Y-89838251D01*
X119276856Y-89743013D01*
X119372094Y-89647775D01*
X119514951Y-89600155D01*
X119610190Y-89600155D01*
X119753047Y-89647775D01*
X119800666Y-89695394D01*
X120229237Y-90600155D02*
X120229237Y-89600155D01*
X120800666Y-90600155D02*
X120372094Y-90028727D01*
X120800666Y-89600155D02*
X120229237Y-90171584D01*
X118324475Y-92298905D02*
X118895904Y-92298905D01*
X118610189Y-93298905D02*
X118610189Y-92298905D01*
X119229237Y-93298905D02*
X119229237Y-92298905D01*
X119467332Y-92298905D01*
X119610189Y-92346525D01*
X119705427Y-92441763D01*
X119753046Y-92537001D01*
X119800665Y-92727477D01*
X119800665Y-92870334D01*
X119753046Y-93060810D01*
X119705427Y-93156048D01*
X119610189Y-93251286D01*
X119467332Y-93298905D01*
X119229237Y-93298905D01*
X120229237Y-93298905D02*
X120229237Y-92298905D01*
X118324476Y-90949530D02*
X118895904Y-90949530D01*
X118610190Y-91949530D02*
X118610190Y-90949530D01*
X119229238Y-91949530D02*
X119229238Y-90949530D01*
X119467333Y-90949530D01*
X119610190Y-90997150D01*
X119705428Y-91092388D01*
X119753047Y-91187626D01*
X119800666Y-91378102D01*
X119800666Y-91520959D01*
X119753047Y-91711435D01*
X119705428Y-91806673D01*
X119610190Y-91901911D01*
X119467333Y-91949530D01*
X119229238Y-91949530D01*
X120419714Y-90949530D02*
X120610190Y-90949530D01*
X120705428Y-90997150D01*
X120800666Y-91092388D01*
X120848285Y-91282864D01*
X120848285Y-91616197D01*
X120800666Y-91806673D01*
X120705428Y-91901911D01*
X120610190Y-91949530D01*
X120419714Y-91949530D01*
X120324476Y-91901911D01*
X120229238Y-91806673D01*
X120181619Y-91616197D01*
X120181619Y-91282864D01*
X120229238Y-91092388D01*
X120324476Y-90997150D01*
X120419714Y-90949530D01*
D13*
X112373066Y-84934561D02*
X112373066Y-86363133D01*
X112277828Y-86648847D01*
X112087352Y-86839323D01*
X111801638Y-86934561D01*
X111611161Y-86934561D01*
X113039733Y-84934561D02*
X114182590Y-84934561D01*
X113611161Y-86934561D02*
X113611161Y-84934561D01*
X114754019Y-86363133D02*
X115706400Y-86363133D01*
X114563542Y-86934561D02*
X115230209Y-84934561D01*
X115896876Y-86934561D01*
X117611161Y-85029800D02*
X117420685Y-84934561D01*
X117134971Y-84934561D01*
X116849257Y-85029800D01*
X116658780Y-85220276D01*
X116563542Y-85410752D01*
X116468304Y-85791704D01*
X116468304Y-86077419D01*
X116563542Y-86458371D01*
X116658780Y-86648847D01*
X116849257Y-86839323D01*
X117134971Y-86934561D01*
X117325447Y-86934561D01*
X117611161Y-86839323D01*
X117706400Y-86744085D01*
X117706400Y-86077419D01*
X117325447Y-86077419D01*
D14*
X151612600Y-82016600D02*
X151612600Y-79654400D01*
X154863800Y-81229200D02*
X154863800Y-79654400D01*
X152380596Y-82473800D02*
G75*
G03*
X152380596Y-82473800I-56796J0D01*
G01*
X170891200Y-68630800D02*
X164795200Y-68630800D01*
X157911800Y-68630800D02*
X157911800Y-55219600D01*
X157911800Y-68630800D02*
X161274800Y-68630800D01*
X157911800Y-55219600D02*
X161274800Y-55219600D01*
X164795200Y-55219600D02*
X170891200Y-55219600D01*
D15*
X170764200Y-72253000D02*
X168706800Y-72253000D01*
X168706800Y-84241800D02*
X170764200Y-84241800D01*
X158789800Y-84247400D02*
X161289800Y-84247400D01*
X158789800Y-81247400D02*
X158789800Y-84247400D01*
X158789800Y-72247400D02*
X161289800Y-72247400D01*
X158789800Y-75247400D02*
X158789800Y-72247400D01*
D14*
X160197800Y-99441000D02*
X160197800Y-97307400D01*
X159888400Y-99718200D02*
X161488400Y-99718200D01*
X159888400Y-98018200D02*
X159888400Y-99718200D01*
X160188400Y-90220800D02*
X161823400Y-90220800D01*
X160188400Y-92318200D02*
X160188400Y-90220800D01*
X170053000Y-99441000D02*
X160197800Y-99441000D01*
X159029400Y-90068400D02*
G75*
G03*
X159029400Y-90068400I-584200J0D01*
G01*
X125425200Y-83870800D02*
X127635000Y-83870800D01*
X127635000Y-83870800D02*
X127635000Y-79959200D01*
X127635000Y-79959200D02*
X125425200Y-79959200D01*
X125425200Y-79959200D02*
X125425200Y-83870800D01*
D15*
X152930400Y-83820000D02*
G75*
G03*
X152930400Y-83820000I-50000J0D01*
G01*
X152930400Y-84836000D02*
G75*
G03*
X152930400Y-84836000I-50000J0D01*
G01*
X150363000Y-82224400D02*
X150363000Y-82224400D01*
X150463000Y-82224400D02*
X150463000Y-82224400D01*
X150463000Y-82224400D02*
G75*
G02*
X150363000Y-82224400I-50000J0D01*
G01*
X150363000Y-82224400D02*
G75*
G02*
X150463000Y-82224400I50000J0D01*
G01*
D14*
X144955800Y-76367421D02*
X144955800Y-76692979D01*
X145975800Y-76367421D02*
X145975800Y-76692979D01*
X136980200Y-86120921D02*
X136980200Y-86446479D01*
X138000200Y-86120921D02*
X138000200Y-86446479D01*
X151292779Y-77391800D02*
X150967221Y-77391800D01*
X151292779Y-78411800D02*
X150967221Y-78411800D01*
D16*
G36*
X117196949Y-79767036D02*
G01*
X117240744Y-79783972D01*
X117307493Y-79817601D01*
X117403337Y-79870334D01*
X117410799Y-79874525D01*
X117499071Y-79925001D01*
X117573563Y-79969223D01*
X117626960Y-80002731D01*
X117651946Y-80021064D01*
X117652645Y-80021962D01*
X117646609Y-80047414D01*
X117618923Y-80104255D01*
X117571388Y-80189389D01*
X117505811Y-80299717D01*
X117423997Y-80432144D01*
X117327748Y-80583571D01*
X117303794Y-80620707D01*
X117241383Y-80723757D01*
X117195937Y-80812432D01*
X117171446Y-80878714D01*
X117168933Y-80891807D01*
X117170048Y-80949443D01*
X117182543Y-81040865D01*
X117204860Y-81160208D01*
X117235440Y-81301609D01*
X117272728Y-81459203D01*
X117315165Y-81627126D01*
X117361194Y-81799514D01*
X117409257Y-81970501D01*
X117457797Y-82134224D01*
X117505257Y-82284818D01*
X117550078Y-82416420D01*
X117590703Y-82523163D01*
X117619023Y-82586494D01*
X117652383Y-82653957D01*
X117683882Y-82718511D01*
X117685587Y-82722045D01*
X117737698Y-82787250D01*
X117813754Y-82831156D01*
X117902292Y-82852197D01*
X117991848Y-82848807D01*
X118070958Y-82819423D01*
X118115464Y-82780736D01*
X118179556Y-82674636D01*
X118226522Y-82542405D01*
X118252290Y-82397527D01*
X118255941Y-82315394D01*
X118241239Y-82162105D01*
X118198090Y-82035166D01*
X118124172Y-81928418D01*
X118101121Y-81904657D01*
X118032525Y-81838009D01*
X118027814Y-81366916D01*
X118023103Y-80895822D01*
X118143146Y-80714106D01*
X118199477Y-80631856D01*
X118253728Y-80557865D01*
X118298159Y-80502448D01*
X118317256Y-80482056D01*
X118371324Y-80431723D01*
X118444550Y-80471158D01*
X118490833Y-80499415D01*
X118516157Y-80521354D01*
X118517776Y-80525299D01*
X118535084Y-80542023D01*
X118564697Y-80554476D01*
X118593314Y-80565700D01*
X118637134Y-80587024D01*
X118699918Y-80620529D01*
X118785428Y-80668296D01*
X118897426Y-80732407D01*
X119039673Y-80814944D01*
X119116973Y-80860065D01*
X119207902Y-80914111D01*
X119267539Y-80952604D01*
X119301161Y-80980044D01*
X119314044Y-81000934D01*
X119311465Y-81019775D01*
X119309315Y-81024152D01*
X119288397Y-81051714D01*
X119243640Y-81103416D01*
X119180257Y-81173475D01*
X119103462Y-81256107D01*
X119037044Y-81326156D01*
X118883990Y-81492414D01*
X118764256Y-81636519D01*
X118676773Y-81759921D01*
X118620474Y-81864068D01*
X118601484Y-81916954D01*
X118593640Y-81963250D01*
X118585538Y-82042221D01*
X118577891Y-82144846D01*
X118571412Y-82262103D01*
X118568363Y-82336248D01*
X118564108Y-82464427D01*
X118562236Y-82558138D01*
X118563299Y-82624583D01*
X118567846Y-82670961D01*
X118576427Y-82704474D01*
X118589594Y-82732321D01*
X118599935Y-82749324D01*
X118659656Y-82814862D01*
X118736611Y-82860532D01*
X118817580Y-82880450D01*
X118878258Y-82873244D01*
X118933199Y-82842066D01*
X119002067Y-82786230D01*
X119075205Y-82715474D01*
X119142952Y-82639537D01*
X119195650Y-82568159D01*
X119215053Y-82533668D01*
X119244119Y-82486441D01*
X119296983Y-82414506D01*
X119368816Y-82323485D01*
X119454788Y-82219000D01*
X119550068Y-82106675D01*
X119649827Y-81992130D01*
X119749234Y-81880990D01*
X119843459Y-81778875D01*
X119927673Y-81691408D01*
X119993791Y-81627198D01*
X120067199Y-81563057D01*
X120128953Y-81515763D01*
X120172266Y-81490235D01*
X120186645Y-81487429D01*
X120208679Y-81498752D01*
X120263638Y-81529144D01*
X120348352Y-81576780D01*
X120459648Y-81639835D01*
X120594356Y-81716485D01*
X120749303Y-81804905D01*
X120921319Y-81903270D01*
X121107232Y-82009756D01*
X121303870Y-82122537D01*
X121508063Y-82239789D01*
X121716639Y-82359687D01*
X121926425Y-82480407D01*
X122134252Y-82600123D01*
X122336947Y-82717011D01*
X122531340Y-82829246D01*
X122714258Y-82935004D01*
X122882530Y-83032460D01*
X123032985Y-83119788D01*
X123162451Y-83195165D01*
X123267757Y-83256765D01*
X123345732Y-83302764D01*
X123393204Y-83331337D01*
X123436380Y-83357720D01*
X115078786Y-83358087D01*
X115376468Y-82841954D01*
X115439486Y-82732665D01*
X115520606Y-82591940D01*
X115617116Y-82424486D01*
X115726303Y-82235012D01*
X115845455Y-82028223D01*
X115971860Y-81808828D01*
X116102805Y-81581533D01*
X116235579Y-81351046D01*
X116367469Y-81122073D01*
X116400824Y-81064163D01*
X116522447Y-80853232D01*
X116638428Y-80652535D01*
X116747025Y-80465059D01*
X116846494Y-80293792D01*
X116935092Y-80141723D01*
X117011078Y-80011838D01*
X117072707Y-79907125D01*
X117118237Y-79830573D01*
X117145925Y-79785169D01*
X117153672Y-79773609D01*
X117169972Y-79764385D01*
X117196949Y-79767036D01*
G37*
X117196949Y-79767036D02*
X117240744Y-79783972D01*
X117307493Y-79817601D01*
X117403337Y-79870334D01*
X117410799Y-79874525D01*
X117499071Y-79925001D01*
X117573563Y-79969223D01*
X117626960Y-80002731D01*
X117651946Y-80021064D01*
X117652645Y-80021962D01*
X117646609Y-80047414D01*
X117618923Y-80104255D01*
X117571388Y-80189389D01*
X117505811Y-80299717D01*
X117423997Y-80432144D01*
X117327748Y-80583571D01*
X117303794Y-80620707D01*
X117241383Y-80723757D01*
X117195937Y-80812432D01*
X117171446Y-80878714D01*
X117168933Y-80891807D01*
X117170048Y-80949443D01*
X117182543Y-81040865D01*
X117204860Y-81160208D01*
X117235440Y-81301609D01*
X117272728Y-81459203D01*
X117315165Y-81627126D01*
X117361194Y-81799514D01*
X117409257Y-81970501D01*
X117457797Y-82134224D01*
X117505257Y-82284818D01*
X117550078Y-82416420D01*
X117590703Y-82523163D01*
X117619023Y-82586494D01*
X117652383Y-82653957D01*
X117683882Y-82718511D01*
X117685587Y-82722045D01*
X117737698Y-82787250D01*
X117813754Y-82831156D01*
X117902292Y-82852197D01*
X117991848Y-82848807D01*
X118070958Y-82819423D01*
X118115464Y-82780736D01*
X118179556Y-82674636D01*
X118226522Y-82542405D01*
X118252290Y-82397527D01*
X118255941Y-82315394D01*
X118241239Y-82162105D01*
X118198090Y-82035166D01*
X118124172Y-81928418D01*
X118101121Y-81904657D01*
X118032525Y-81838009D01*
X118027814Y-81366916D01*
X118023103Y-80895822D01*
X118143146Y-80714106D01*
X118199477Y-80631856D01*
X118253728Y-80557865D01*
X118298159Y-80502448D01*
X118317256Y-80482056D01*
X118371324Y-80431723D01*
X118444550Y-80471158D01*
X118490833Y-80499415D01*
X118516157Y-80521354D01*
X118517776Y-80525299D01*
X118535084Y-80542023D01*
X118564697Y-80554476D01*
X118593314Y-80565700D01*
X118637134Y-80587024D01*
X118699918Y-80620529D01*
X118785428Y-80668296D01*
X118897426Y-80732407D01*
X119039673Y-80814944D01*
X119116973Y-80860065D01*
X119207902Y-80914111D01*
X119267539Y-80952604D01*
X119301161Y-80980044D01*
X119314044Y-81000934D01*
X119311465Y-81019775D01*
X119309315Y-81024152D01*
X119288397Y-81051714D01*
X119243640Y-81103416D01*
X119180257Y-81173475D01*
X119103462Y-81256107D01*
X119037044Y-81326156D01*
X118883990Y-81492414D01*
X118764256Y-81636519D01*
X118676773Y-81759921D01*
X118620474Y-81864068D01*
X118601484Y-81916954D01*
X118593640Y-81963250D01*
X118585538Y-82042221D01*
X118577891Y-82144846D01*
X118571412Y-82262103D01*
X118568363Y-82336248D01*
X118564108Y-82464427D01*
X118562236Y-82558138D01*
X118563299Y-82624583D01*
X118567846Y-82670961D01*
X118576427Y-82704474D01*
X118589594Y-82732321D01*
X118599935Y-82749324D01*
X118659656Y-82814862D01*
X118736611Y-82860532D01*
X118817580Y-82880450D01*
X118878258Y-82873244D01*
X118933199Y-82842066D01*
X119002067Y-82786230D01*
X119075205Y-82715474D01*
X119142952Y-82639537D01*
X119195650Y-82568159D01*
X119215053Y-82533668D01*
X119244119Y-82486441D01*
X119296983Y-82414506D01*
X119368816Y-82323485D01*
X119454788Y-82219000D01*
X119550068Y-82106675D01*
X119649827Y-81992130D01*
X119749234Y-81880990D01*
X119843459Y-81778875D01*
X119927673Y-81691408D01*
X119993791Y-81627198D01*
X120067199Y-81563057D01*
X120128953Y-81515763D01*
X120172266Y-81490235D01*
X120186645Y-81487429D01*
X120208679Y-81498752D01*
X120263638Y-81529144D01*
X120348352Y-81576780D01*
X120459648Y-81639835D01*
X120594356Y-81716485D01*
X120749303Y-81804905D01*
X120921319Y-81903270D01*
X121107232Y-82009756D01*
X121303870Y-82122537D01*
X121508063Y-82239789D01*
X121716639Y-82359687D01*
X121926425Y-82480407D01*
X122134252Y-82600123D01*
X122336947Y-82717011D01*
X122531340Y-82829246D01*
X122714258Y-82935004D01*
X122882530Y-83032460D01*
X123032985Y-83119788D01*
X123162451Y-83195165D01*
X123267757Y-83256765D01*
X123345732Y-83302764D01*
X123393204Y-83331337D01*
X123436380Y-83357720D01*
X115078786Y-83358087D01*
X115376468Y-82841954D01*
X115439486Y-82732665D01*
X115520606Y-82591940D01*
X115617116Y-82424486D01*
X115726303Y-82235012D01*
X115845455Y-82028223D01*
X115971860Y-81808828D01*
X116102805Y-81581533D01*
X116235579Y-81351046D01*
X116367469Y-81122073D01*
X116400824Y-81064163D01*
X116522447Y-80853232D01*
X116638428Y-80652535D01*
X116747025Y-80465059D01*
X116846494Y-80293792D01*
X116935092Y-80141723D01*
X117011078Y-80011838D01*
X117072707Y-79907125D01*
X117118237Y-79830573D01*
X117145925Y-79785169D01*
X117153672Y-79773609D01*
X117169972Y-79764385D01*
X117196949Y-79767036D01*
G36*
X122132346Y-79690908D02*
G01*
X122147669Y-79716590D01*
X122182111Y-79775469D01*
X122233969Y-79864602D01*
X122301540Y-79981049D01*
X122383121Y-80121867D01*
X122477009Y-80284114D01*
X122581499Y-80464849D01*
X122694890Y-80661130D01*
X122815478Y-80870016D01*
X122939513Y-81085017D01*
X123066187Y-81304649D01*
X123187808Y-81515495D01*
X123302612Y-81714499D01*
X123408838Y-81898607D01*
X123504723Y-82064765D01*
X123588502Y-82209917D01*
X123658414Y-82331009D01*
X123712696Y-82424988D01*
X123749585Y-82488797D01*
X123766931Y-82518719D01*
X123795207Y-82569271D01*
X123810582Y-82600914D01*
X123811424Y-82606420D01*
X123792688Y-82596082D01*
X123740586Y-82566407D01*
X123657840Y-82518968D01*
X123547175Y-82455333D01*
X123411314Y-82377074D01*
X123252981Y-82285759D01*
X123074898Y-82182960D01*
X122879790Y-82070247D01*
X122670380Y-81949189D01*
X122449391Y-81821357D01*
X122365313Y-81772702D01*
X122140370Y-81642567D01*
X121925724Y-81518497D01*
X121724132Y-81402077D01*
X121538348Y-81294893D01*
X121371128Y-81198531D01*
X121225227Y-81114578D01*
X121103401Y-81044620D01*
X121008404Y-80990243D01*
X120942992Y-80953034D01*
X120909920Y-80934578D01*
X120906462Y-80932830D01*
X120916539Y-80917005D01*
X120951607Y-80874692D01*
X121008085Y-80809790D01*
X121082393Y-80726196D01*
X121170952Y-80627809D01*
X121270180Y-80518525D01*
X121376498Y-80402244D01*
X121486325Y-80282862D01*
X121596082Y-80164277D01*
X121702188Y-80050388D01*
X121801062Y-79945092D01*
X121889126Y-79852287D01*
X121962799Y-79775870D01*
X122018500Y-79719740D01*
X122037603Y-79701335D01*
X122100908Y-79641872D01*
X122132346Y-79690908D01*
G37*
X122132346Y-79690908D02*
X122147669Y-79716590D01*
X122182111Y-79775469D01*
X122233969Y-79864602D01*
X122301540Y-79981049D01*
X122383121Y-80121867D01*
X122477009Y-80284114D01*
X122581499Y-80464849D01*
X122694890Y-80661130D01*
X122815478Y-80870016D01*
X122939513Y-81085017D01*
X123066187Y-81304649D01*
X123187808Y-81515495D01*
X123302612Y-81714499D01*
X123408838Y-81898607D01*
X123504723Y-82064765D01*
X123588502Y-82209917D01*
X123658414Y-82331009D01*
X123712696Y-82424988D01*
X123749585Y-82488797D01*
X123766931Y-82518719D01*
X123795207Y-82569271D01*
X123810582Y-82600914D01*
X123811424Y-82606420D01*
X123792688Y-82596082D01*
X123740586Y-82566407D01*
X123657840Y-82518968D01*
X123547175Y-82455333D01*
X123411314Y-82377074D01*
X123252981Y-82285759D01*
X123074898Y-82182960D01*
X122879790Y-82070247D01*
X122670380Y-81949189D01*
X122449391Y-81821357D01*
X122365313Y-81772702D01*
X122140370Y-81642567D01*
X121925724Y-81518497D01*
X121724132Y-81402077D01*
X121538348Y-81294893D01*
X121371128Y-81198531D01*
X121225227Y-81114578D01*
X121103401Y-81044620D01*
X121008404Y-80990243D01*
X120942992Y-80953034D01*
X120909920Y-80934578D01*
X120906462Y-80932830D01*
X120916539Y-80917005D01*
X120951607Y-80874692D01*
X121008085Y-80809790D01*
X121082393Y-80726196D01*
X121170952Y-80627809D01*
X121270180Y-80518525D01*
X121376498Y-80402244D01*
X121486325Y-80282862D01*
X121596082Y-80164277D01*
X121702188Y-80050388D01*
X121801062Y-79945092D01*
X121889126Y-79852287D01*
X121962799Y-79775870D01*
X122018500Y-79719740D01*
X122037603Y-79701335D01*
X122100908Y-79641872D01*
X122132346Y-79690908D01*
G36*
X119677078Y-75451166D02*
G01*
X119708076Y-75501538D01*
X119755834Y-75581341D01*
X119818394Y-75687180D01*
X119893797Y-75815659D01*
X119980085Y-75963384D01*
X120075301Y-76126958D01*
X120177485Y-76302987D01*
X120284681Y-76488075D01*
X120394929Y-76678827D01*
X120506271Y-76871847D01*
X120616750Y-77063741D01*
X120724407Y-77251111D01*
X120827284Y-77430565D01*
X120923423Y-77598705D01*
X121010865Y-77752137D01*
X121087653Y-77887465D01*
X121151828Y-78001294D01*
X121201433Y-78090229D01*
X121234509Y-78150874D01*
X121249097Y-78179833D01*
X121249631Y-78181644D01*
X121231521Y-78206217D01*
X121181180Y-78243807D01*
X121104595Y-78290722D01*
X121007752Y-78343274D01*
X120906367Y-78393213D01*
X120768415Y-78453769D01*
X120623342Y-78508179D01*
X120466150Y-78557651D01*
X120291843Y-78603395D01*
X120095422Y-78646620D01*
X119871889Y-78688534D01*
X119616248Y-78730347D01*
X119351806Y-78769284D01*
X119122052Y-78803828D01*
X118929117Y-78838026D01*
X118768164Y-78873577D01*
X118634355Y-78912182D01*
X118522850Y-78955539D01*
X118428814Y-79005348D01*
X118347406Y-79063309D01*
X118273790Y-79131120D01*
X118250051Y-79156312D01*
X118198597Y-79214958D01*
X118160534Y-79262815D01*
X118142877Y-79290958D01*
X118142406Y-79293265D01*
X118136228Y-79307416D01*
X118114790Y-79307575D01*
X118073733Y-79291861D01*
X118008701Y-79258391D01*
X117915337Y-79205281D01*
X117850452Y-79167088D01*
X117753701Y-79107385D01*
X117678512Y-79056263D01*
X117629939Y-79017399D01*
X117613035Y-78994472D01*
X117613045Y-78994305D01*
X117623528Y-78972456D01*
X117653131Y-78917739D01*
X117700138Y-78833136D01*
X117762829Y-78721629D01*
X117839486Y-78586201D01*
X117928391Y-78429833D01*
X118027826Y-78255507D01*
X118136072Y-78066206D01*
X118251411Y-77864911D01*
X118372124Y-77654605D01*
X118496494Y-77438271D01*
X118622801Y-77218889D01*
X118749327Y-76999442D01*
X118874355Y-76782912D01*
X118996165Y-76572281D01*
X119113039Y-76370532D01*
X119223260Y-76180647D01*
X119325108Y-76005606D01*
X119416865Y-75848394D01*
X119496813Y-75711991D01*
X119563234Y-75599380D01*
X119614409Y-75513543D01*
X119648620Y-75457462D01*
X119664148Y-75434119D01*
X119664798Y-75433621D01*
X119677078Y-75451166D01*
G37*
X119677078Y-75451166D02*
X119708076Y-75501538D01*
X119755834Y-75581341D01*
X119818394Y-75687180D01*
X119893797Y-75815659D01*
X119980085Y-75963384D01*
X120075301Y-76126958D01*
X120177485Y-76302987D01*
X120284681Y-76488075D01*
X120394929Y-76678827D01*
X120506271Y-76871847D01*
X120616750Y-77063741D01*
X120724407Y-77251111D01*
X120827284Y-77430565D01*
X120923423Y-77598705D01*
X121010865Y-77752137D01*
X121087653Y-77887465D01*
X121151828Y-78001294D01*
X121201433Y-78090229D01*
X121234509Y-78150874D01*
X121249097Y-78179833D01*
X121249631Y-78181644D01*
X121231521Y-78206217D01*
X121181180Y-78243807D01*
X121104595Y-78290722D01*
X121007752Y-78343274D01*
X120906367Y-78393213D01*
X120768415Y-78453769D01*
X120623342Y-78508179D01*
X120466150Y-78557651D01*
X120291843Y-78603395D01*
X120095422Y-78646620D01*
X119871889Y-78688534D01*
X119616248Y-78730347D01*
X119351806Y-78769284D01*
X119122052Y-78803828D01*
X118929117Y-78838026D01*
X118768164Y-78873577D01*
X118634355Y-78912182D01*
X118522850Y-78955539D01*
X118428814Y-79005348D01*
X118347406Y-79063309D01*
X118273790Y-79131120D01*
X118250051Y-79156312D01*
X118198597Y-79214958D01*
X118160534Y-79262815D01*
X118142877Y-79290958D01*
X118142406Y-79293265D01*
X118136228Y-79307416D01*
X118114790Y-79307575D01*
X118073733Y-79291861D01*
X118008701Y-79258391D01*
X117915337Y-79205281D01*
X117850452Y-79167088D01*
X117753701Y-79107385D01*
X117678512Y-79056263D01*
X117629939Y-79017399D01*
X117613035Y-78994472D01*
X117613045Y-78994305D01*
X117623528Y-78972456D01*
X117653131Y-78917739D01*
X117700138Y-78833136D01*
X117762829Y-78721629D01*
X117839486Y-78586201D01*
X117928391Y-78429833D01*
X118027826Y-78255507D01*
X118136072Y-78066206D01*
X118251411Y-77864911D01*
X118372124Y-77654605D01*
X118496494Y-77438271D01*
X118622801Y-77218889D01*
X118749327Y-76999442D01*
X118874355Y-76782912D01*
X118996165Y-76572281D01*
X119113039Y-76370532D01*
X119223260Y-76180647D01*
X119325108Y-76005606D01*
X119416865Y-75848394D01*
X119496813Y-75711991D01*
X119563234Y-75599380D01*
X119614409Y-75513543D01*
X119648620Y-75457462D01*
X119664148Y-75434119D01*
X119664798Y-75433621D01*
X119677078Y-75451166D01*
D14*
X124839000Y-87513379D02*
X124839000Y-87187821D01*
X125859000Y-87513379D02*
X125859000Y-87187821D01*
X138020600Y-78586600D02*
X140820600Y-78586600D01*
X140820600Y-78586600D02*
X140820600Y-75286600D01*
X94615000Y-64490600D02*
X97078800Y-64490600D01*
X94615000Y-58013600D02*
X97078800Y-58013600D01*
X98856800Y-62433200D02*
X98856800Y-60045600D01*
X92506800Y-62611000D02*
X92506800Y-59867800D01*
X94615000Y-80670400D02*
X97078800Y-80670400D01*
X94615000Y-74193400D02*
X97078800Y-74193400D01*
X98856800Y-78613000D02*
X98856800Y-76225400D01*
X92506800Y-78790800D02*
X92506800Y-76047600D01*
X94615000Y-96850200D02*
X97078800Y-96850200D01*
X94615000Y-90373200D02*
X97078800Y-90373200D01*
X98856800Y-94792800D02*
X98856800Y-92405200D01*
X92506800Y-94970600D02*
X92506800Y-92227400D01*
X146568379Y-100078000D02*
X146242821Y-100078000D01*
X146568379Y-99058000D02*
X146242821Y-99058000D01*
X136763600Y-73894600D02*
X137763600Y-73894600D01*
X137763600Y-73894600D02*
X137763600Y-74894600D01*
X137563600Y-83334600D02*
X137563600Y-74094600D01*
X137563600Y-74094600D02*
X128323600Y-74094600D01*
X128323600Y-74094600D02*
X128323600Y-83334600D01*
X128323600Y-83334600D02*
X137563600Y-83334600D01*
X155727400Y-66344800D02*
G75*
G03*
X155727400Y-66344800I-609600J0D01*
G01*
X146064200Y-66090800D02*
G75*
G03*
X146064200Y-66090800I-700000J0D01*
G01*
X140501600Y-62509400D02*
G75*
G03*
X140501600Y-62509400I-700000J0D01*
G01*
X134315200Y-70104000D02*
G75*
G03*
X134315200Y-70104000I-584200J0D01*
G01*
X110807500Y-62839600D02*
G75*
G03*
X110807500Y-62839600I-584200J0D01*
G01*
X128625600Y-72237600D02*
G75*
G03*
X128625600Y-72237600I-584200J0D01*
G01*
X126822200Y-72237600D02*
G75*
G03*
X126822200Y-72237600I-584200J0D01*
G01*
X154152600Y-55930800D02*
G75*
G03*
X154152600Y-55930800I-584200J0D01*
G01*
X139014200Y-55778400D02*
G75*
G03*
X139014200Y-55778400I-584200J0D01*
G01*
X146892600Y-68768336D02*
X146892600Y-69972464D01*
X148712600Y-68768336D02*
X148712600Y-69972464D01*
X156879800Y-69424200D02*
X154879800Y-69424200D01*
X155879800Y-71444200D02*
X154879800Y-71444200D01*
X135227600Y-85532179D02*
X135227600Y-85206621D01*
X136247600Y-85532179D02*
X136247600Y-85206621D01*
X112928700Y-88205000D02*
X116458700Y-88205000D01*
X112928700Y-94675000D02*
X116458700Y-94675000D01*
X111603700Y-88270000D02*
X112928700Y-88270000D01*
X112928700Y-88205000D02*
X112928700Y-88270000D01*
X116458700Y-88205000D02*
X116458700Y-88270000D01*
X112928700Y-94610000D02*
X112928700Y-94675000D01*
X116458700Y-94610000D02*
X116458700Y-94675000D01*
X159261700Y-91776200D02*
X154961700Y-91776200D01*
X154961700Y-91776200D02*
X154961700Y-97476200D01*
X159261700Y-91776200D02*
X159261700Y-97476200D01*
X156377321Y-90396600D02*
X156702879Y-90396600D01*
X156377321Y-91416600D02*
X156702879Y-91416600D01*
X110466600Y-80787021D02*
X110466600Y-81112579D01*
X109446600Y-80787021D02*
X109446600Y-81112579D01*
X142986000Y-61442500D02*
X142986000Y-57142500D01*
X140986000Y-61442500D02*
X142986000Y-61442500D01*
X140986000Y-57142500D02*
X140986000Y-61442500D01*
D17*
X149264100Y-56740600D02*
G75*
G03*
X149264100Y-56740600I-125000J0D01*
G01*
D14*
X152704800Y-65563400D02*
X153704800Y-65563400D01*
X151704800Y-67583400D02*
X153704800Y-67583400D01*
X151881578Y-58139400D02*
X151364422Y-58139400D01*
X151881578Y-56719400D02*
X151364422Y-56719400D01*
X148617821Y-60069000D02*
X148943379Y-60069000D01*
X148617821Y-61089000D02*
X148943379Y-61089000D01*
X151292779Y-76913200D02*
X150967221Y-76913200D01*
X151292779Y-75893200D02*
X150967221Y-75893200D01*
X141076000Y-64854055D02*
X141076000Y-63873145D01*
X142896000Y-64854055D02*
X142896000Y-63873145D01*
D18*
X153437400Y-94538800D02*
G75*
G03*
X153437400Y-94538800I-175000J0D01*
G01*
D10*
X154187400Y-91538800D02*
G75*
G03*
X154187400Y-91538800I-925000J0D01*
G01*
X154187400Y-97538800D02*
G75*
G03*
X154187400Y-97538800I-925000J0D01*
G01*
X153262400Y-96538800D02*
X153262400Y-95638800D01*
X153262400Y-94538800D02*
X153262400Y-92538800D01*
X152512400Y-93863800D02*
G75*
G03*
X153937400Y-93788800I750000J-675000D01*
G01*
D14*
X110985300Y-66090800D02*
X107200700Y-66090800D01*
X110985300Y-69062600D02*
X110985300Y-66090800D01*
X119963100Y-65623200D02*
X119963100Y-63023200D01*
X119963100Y-63023200D02*
X116763100Y-63023200D01*
X145019300Y-57927021D02*
X145019300Y-58252579D01*
X146039300Y-57927021D02*
X146039300Y-58252579D01*
X136751600Y-95868800D02*
X139861600Y-95868800D01*
X131671600Y-95868800D02*
X135231600Y-95868800D01*
X134211600Y-93208800D02*
X137771600Y-93208800D01*
X139291600Y-93208800D02*
X139861600Y-93208800D01*
X129581600Y-95868800D02*
X130151600Y-95868800D01*
X130151600Y-95868800D02*
X130151600Y-97388800D01*
X129581600Y-93208800D02*
X132691600Y-93208800D01*
X139861600Y-95868800D02*
X139861600Y-93208800D01*
X129581600Y-95868800D02*
X129581600Y-93208800D01*
X156144179Y-64234600D02*
X155818621Y-64234600D01*
X156144179Y-65254600D02*
X155818621Y-65254600D01*
X155496800Y-58841421D02*
X155496800Y-59166979D01*
X156516800Y-58841421D02*
X156516800Y-59166979D01*
X159700079Y-69924200D02*
X159374521Y-69924200D01*
X159700079Y-70944200D02*
X159374521Y-70944200D01*
X160360479Y-84656200D02*
X160034921Y-84656200D01*
X160360479Y-85676200D02*
X160034921Y-85676200D01*
D17*
X119909500Y-68143400D02*
G75*
G03*
X119909500Y-68143400I-125000J0D01*
G01*
D11*
X111148500Y-73232400D02*
X111148500Y-76932400D01*
X111148500Y-76932400D02*
X106148500Y-76932400D01*
X106148500Y-76932400D02*
X106148500Y-73232400D01*
X106148500Y-73232400D02*
X111148500Y-73232400D01*
X111173500Y-71407400D02*
X111173500Y-72882400D01*
D14*
X137708378Y-56719400D02*
X137191222Y-56719400D01*
X137708378Y-58139400D02*
X137191222Y-58139400D01*
D17*
X135090900Y-56715200D02*
G75*
G03*
X135090900Y-56715200I-125000J0D01*
G01*
D14*
X134444621Y-61089000D02*
X134770179Y-61089000D01*
X134444621Y-60069000D02*
X134770179Y-60069000D01*
X153570400Y-74178479D02*
X153570400Y-73852921D01*
X152550400Y-74178479D02*
X152550400Y-73852921D01*
X130846100Y-57927021D02*
X130846100Y-58252579D01*
X131866100Y-57927021D02*
X131866100Y-58252579D01*
X113540000Y-78953579D02*
X113540000Y-78628021D01*
X112520000Y-78953579D02*
X112520000Y-78628021D01*
X120419400Y-64035621D02*
X120419400Y-64361179D01*
X121439400Y-64035621D02*
X121439400Y-64361179D01*
X151953179Y-60069000D02*
X151627621Y-60069000D01*
X151953179Y-61089000D02*
X151627621Y-61089000D01*
X137792579Y-60069000D02*
X137467021Y-60069000D01*
X137792579Y-61089000D02*
X137467021Y-61089000D01*
D10*
X155427419Y-79703704D02*
X156427419Y-79703704D01*
X156427419Y-79941800D01*
X156379800Y-80084657D01*
X156284561Y-80179895D01*
X156189323Y-80227514D01*
X155998847Y-80275133D01*
X155855990Y-80275133D01*
X155665514Y-80227514D01*
X155570276Y-80179895D01*
X155475038Y-80084657D01*
X155427419Y-79941800D01*
X155427419Y-79703704D01*
X156094085Y-81132276D02*
X155427419Y-81132276D01*
X156475038Y-80894180D02*
X155760752Y-80656085D01*
X155760752Y-81275133D01*
X157418019Y-62480866D02*
X156703733Y-62480866D01*
X156560876Y-62433247D01*
X156465638Y-62338009D01*
X156418019Y-62195152D01*
X156418019Y-62099914D01*
X157418019Y-62861819D02*
X157418019Y-63480866D01*
X157037066Y-63147533D01*
X157037066Y-63290390D01*
X156989447Y-63385628D01*
X156941828Y-63433247D01*
X156846590Y-63480866D01*
X156608495Y-63480866D01*
X156513257Y-63433247D01*
X156465638Y-63385628D01*
X156418019Y-63290390D01*
X156418019Y-63004676D01*
X156465638Y-62909438D01*
X156513257Y-62861819D01*
X158143619Y-82394466D02*
X157429333Y-82394466D01*
X157286476Y-82346847D01*
X157191238Y-82251609D01*
X157143619Y-82108752D01*
X157143619Y-82013514D01*
X157143619Y-83394466D02*
X157143619Y-82823038D01*
X157143619Y-83108752D02*
X158143619Y-83108752D01*
X158000761Y-83013514D01*
X157905523Y-82918276D01*
X157857904Y-82823038D01*
X160448666Y-88733380D02*
X160448666Y-89447666D01*
X160401047Y-89590523D01*
X160305809Y-89685761D01*
X160162952Y-89733380D01*
X160067714Y-89733380D01*
X161353428Y-89066714D02*
X161353428Y-89733380D01*
X161115333Y-88685761D02*
X160877238Y-89400047D01*
X161496285Y-89400047D01*
X157183295Y-88072780D02*
X157754723Y-88072780D01*
X157469009Y-89072780D02*
X157469009Y-88072780D01*
X158088057Y-89072780D02*
X158088057Y-88072780D01*
X158469009Y-88072780D01*
X158564247Y-88120400D01*
X158611866Y-88168019D01*
X158659485Y-88263257D01*
X158659485Y-88406114D01*
X158611866Y-88501352D01*
X158564247Y-88548971D01*
X158469009Y-88596590D01*
X158088057Y-88596590D01*
X159611866Y-89072780D02*
X159040438Y-89072780D01*
X159326152Y-89072780D02*
X159326152Y-88072780D01*
X159230914Y-88215638D01*
X159135676Y-88310876D01*
X159040438Y-88358495D01*
X125515619Y-77905076D02*
X124515619Y-78571742D01*
X125515619Y-78571742D02*
X124515619Y-77905076D01*
X125515619Y-78857457D02*
X125515619Y-79476504D01*
X125134666Y-79143171D01*
X125134666Y-79286028D01*
X125087047Y-79381266D01*
X125039428Y-79428885D01*
X124944190Y-79476504D01*
X124706095Y-79476504D01*
X124610857Y-79428885D01*
X124563238Y-79381266D01*
X124515619Y-79286028D01*
X124515619Y-79000314D01*
X124563238Y-78905076D01*
X124610857Y-78857457D01*
X146651742Y-84272380D02*
X146318409Y-83796190D01*
X146080314Y-84272380D02*
X146080314Y-83272380D01*
X146461266Y-83272380D01*
X146556504Y-83320000D01*
X146604123Y-83367619D01*
X146651742Y-83462857D01*
X146651742Y-83605714D01*
X146604123Y-83700952D01*
X146556504Y-83748571D01*
X146461266Y-83796190D01*
X146080314Y-83796190D01*
X147604123Y-84272380D02*
X147032695Y-84272380D01*
X147318409Y-84272380D02*
X147318409Y-83272380D01*
X147223171Y-83415238D01*
X147127933Y-83510476D01*
X147032695Y-83558095D01*
X148175552Y-83700952D02*
X148080314Y-83653333D01*
X148032695Y-83605714D01*
X147985076Y-83510476D01*
X147985076Y-83462857D01*
X148032695Y-83367619D01*
X148080314Y-83320000D01*
X148175552Y-83272380D01*
X148366028Y-83272380D01*
X148461266Y-83320000D01*
X148508885Y-83367619D01*
X148556504Y-83462857D01*
X148556504Y-83510476D01*
X148508885Y-83605714D01*
X148461266Y-83653333D01*
X148366028Y-83700952D01*
X148175552Y-83700952D01*
X148080314Y-83748571D01*
X148032695Y-83796190D01*
X147985076Y-83891428D01*
X147985076Y-84081904D01*
X148032695Y-84177142D01*
X148080314Y-84224761D01*
X148175552Y-84272380D01*
X148366028Y-84272380D01*
X148461266Y-84224761D01*
X148508885Y-84177142D01*
X148556504Y-84081904D01*
X148556504Y-83891428D01*
X148508885Y-83796190D01*
X148461266Y-83748571D01*
X148366028Y-83700952D01*
X146651742Y-85542380D02*
X146318409Y-85066190D01*
X146080314Y-85542380D02*
X146080314Y-84542380D01*
X146461266Y-84542380D01*
X146556504Y-84590000D01*
X146604123Y-84637619D01*
X146651742Y-84732857D01*
X146651742Y-84875714D01*
X146604123Y-84970952D01*
X146556504Y-85018571D01*
X146461266Y-85066190D01*
X146080314Y-85066190D01*
X147604123Y-85542380D02*
X147032695Y-85542380D01*
X147318409Y-85542380D02*
X147318409Y-84542380D01*
X147223171Y-84685238D01*
X147127933Y-84780476D01*
X147032695Y-84828095D01*
X147937457Y-84542380D02*
X148604123Y-84542380D01*
X148175552Y-85542380D01*
X142917942Y-79547980D02*
X142584609Y-79071790D01*
X142346514Y-79547980D02*
X142346514Y-78547980D01*
X142727466Y-78547980D01*
X142822704Y-78595600D01*
X142870323Y-78643219D01*
X142917942Y-78738457D01*
X142917942Y-78881314D01*
X142870323Y-78976552D01*
X142822704Y-79024171D01*
X142727466Y-79071790D01*
X142346514Y-79071790D01*
X143870323Y-79547980D02*
X143298895Y-79547980D01*
X143584609Y-79547980D02*
X143584609Y-78547980D01*
X143489371Y-78690838D01*
X143394133Y-78786076D01*
X143298895Y-78833695D01*
X144727466Y-78547980D02*
X144536990Y-78547980D01*
X144441752Y-78595600D01*
X144394133Y-78643219D01*
X144298895Y-78786076D01*
X144251276Y-78976552D01*
X144251276Y-79357504D01*
X144298895Y-79452742D01*
X144346514Y-79500361D01*
X144441752Y-79547980D01*
X144632228Y-79547980D01*
X144727466Y-79500361D01*
X144775085Y-79452742D01*
X144822704Y-79357504D01*
X144822704Y-79119409D01*
X144775085Y-79024171D01*
X144727466Y-78976552D01*
X144632228Y-78928933D01*
X144441752Y-78928933D01*
X144346514Y-78976552D01*
X144298895Y-79024171D01*
X144251276Y-79119409D01*
X153338304Y-84272380D02*
X153338304Y-83272380D01*
X153576400Y-83272380D01*
X153719257Y-83320000D01*
X153814495Y-83415238D01*
X153862114Y-83510476D01*
X153909733Y-83700952D01*
X153909733Y-83843809D01*
X153862114Y-84034285D01*
X153814495Y-84129523D01*
X153719257Y-84224761D01*
X153576400Y-84272380D01*
X153338304Y-84272380D01*
X154766876Y-83272380D02*
X154576400Y-83272380D01*
X154481161Y-83320000D01*
X154433542Y-83367619D01*
X154338304Y-83510476D01*
X154290685Y-83700952D01*
X154290685Y-84081904D01*
X154338304Y-84177142D01*
X154385923Y-84224761D01*
X154481161Y-84272380D01*
X154671638Y-84272380D01*
X154766876Y-84224761D01*
X154814495Y-84177142D01*
X154862114Y-84081904D01*
X154862114Y-83843809D01*
X154814495Y-83748571D01*
X154766876Y-83700952D01*
X154671638Y-83653333D01*
X154481161Y-83653333D01*
X154385923Y-83700952D01*
X154338304Y-83748571D01*
X154290685Y-83843809D01*
X153338304Y-85542380D02*
X153338304Y-84542380D01*
X153576400Y-84542380D01*
X153719257Y-84590000D01*
X153814495Y-84685238D01*
X153862114Y-84780476D01*
X153909733Y-84970952D01*
X153909733Y-85113809D01*
X153862114Y-85304285D01*
X153814495Y-85399523D01*
X153719257Y-85494761D01*
X153576400Y-85542380D01*
X153338304Y-85542380D01*
X154814495Y-84542380D02*
X154338304Y-84542380D01*
X154290685Y-85018571D01*
X154338304Y-84970952D01*
X154433542Y-84923333D01*
X154671638Y-84923333D01*
X154766876Y-84970952D01*
X154814495Y-85018571D01*
X154862114Y-85113809D01*
X154862114Y-85351904D01*
X154814495Y-85447142D01*
X154766876Y-85494761D01*
X154671638Y-85542380D01*
X154433542Y-85542380D01*
X154338304Y-85494761D01*
X154290685Y-85447142D01*
X145784819Y-80162495D02*
X144975295Y-80162495D01*
X144880057Y-80210114D01*
X144832438Y-80257733D01*
X144784819Y-80352971D01*
X144784819Y-80543447D01*
X144832438Y-80638685D01*
X144880057Y-80686304D01*
X144975295Y-80733923D01*
X145784819Y-80733923D01*
X145784819Y-81114876D02*
X145784819Y-81733923D01*
X145403866Y-81400590D01*
X145403866Y-81543447D01*
X145356247Y-81638685D01*
X145308628Y-81686304D01*
X145213390Y-81733923D01*
X144975295Y-81733923D01*
X144880057Y-81686304D01*
X144832438Y-81638685D01*
X144784819Y-81543447D01*
X144784819Y-81257733D01*
X144832438Y-81162495D01*
X144880057Y-81114876D01*
X143660857Y-75887342D02*
X143613238Y-75839723D01*
X143565619Y-75696866D01*
X143565619Y-75601628D01*
X143613238Y-75458771D01*
X143708476Y-75363533D01*
X143803714Y-75315914D01*
X143994190Y-75268295D01*
X144137047Y-75268295D01*
X144327523Y-75315914D01*
X144422761Y-75363533D01*
X144518000Y-75458771D01*
X144565619Y-75601628D01*
X144565619Y-75696866D01*
X144518000Y-75839723D01*
X144470380Y-75887342D01*
X144470380Y-76268295D02*
X144518000Y-76315914D01*
X144565619Y-76411152D01*
X144565619Y-76649247D01*
X144518000Y-76744485D01*
X144470380Y-76792104D01*
X144375142Y-76839723D01*
X144279904Y-76839723D01*
X144137047Y-76792104D01*
X143565619Y-76220676D01*
X143565619Y-76839723D01*
X144565619Y-77696866D02*
X144565619Y-77506390D01*
X144518000Y-77411152D01*
X144470380Y-77363533D01*
X144327523Y-77268295D01*
X144137047Y-77220676D01*
X143756095Y-77220676D01*
X143660857Y-77268295D01*
X143613238Y-77315914D01*
X143565619Y-77411152D01*
X143565619Y-77601628D01*
X143613238Y-77696866D01*
X143660857Y-77744485D01*
X143756095Y-77792104D01*
X143994190Y-77792104D01*
X144089428Y-77744485D01*
X144137047Y-77696866D01*
X144184666Y-77601628D01*
X144184666Y-77411152D01*
X144137047Y-77315914D01*
X144089428Y-77268295D01*
X143994190Y-77220676D01*
X138467819Y-85640842D02*
X138944009Y-85307509D01*
X138467819Y-85069414D02*
X139467819Y-85069414D01*
X139467819Y-85450366D01*
X139420200Y-85545604D01*
X139372580Y-85593223D01*
X139277342Y-85640842D01*
X139134485Y-85640842D01*
X139039247Y-85593223D01*
X138991628Y-85545604D01*
X138944009Y-85450366D01*
X138944009Y-85069414D01*
X138467819Y-86593223D02*
X138467819Y-86021795D01*
X138467819Y-86307509D02*
X139467819Y-86307509D01*
X139324961Y-86212271D01*
X139229723Y-86117033D01*
X139182104Y-86021795D01*
X139467819Y-87212271D02*
X139467819Y-87307509D01*
X139420200Y-87402747D01*
X139372580Y-87450366D01*
X139277342Y-87497985D01*
X139086866Y-87545604D01*
X138848771Y-87545604D01*
X138658295Y-87497985D01*
X138563057Y-87450366D01*
X138515438Y-87402747D01*
X138467819Y-87307509D01*
X138467819Y-87212271D01*
X138515438Y-87117033D01*
X138563057Y-87069414D01*
X138658295Y-87021795D01*
X138848771Y-86974176D01*
X139086866Y-86974176D01*
X139277342Y-87021795D01*
X139372580Y-87069414D01*
X139420200Y-87117033D01*
X139467819Y-87212271D01*
X153477933Y-78258942D02*
X153430314Y-78306561D01*
X153287457Y-78354180D01*
X153192219Y-78354180D01*
X153049361Y-78306561D01*
X152954123Y-78211323D01*
X152906504Y-78116085D01*
X152858885Y-77925609D01*
X152858885Y-77782752D01*
X152906504Y-77592276D01*
X152954123Y-77497038D01*
X153049361Y-77401800D01*
X153192219Y-77354180D01*
X153287457Y-77354180D01*
X153430314Y-77401800D01*
X153477933Y-77449419D01*
X154335076Y-77354180D02*
X154144600Y-77354180D01*
X154049361Y-77401800D01*
X154001742Y-77449419D01*
X153906504Y-77592276D01*
X153858885Y-77782752D01*
X153858885Y-78163704D01*
X153906504Y-78258942D01*
X153954123Y-78306561D01*
X154049361Y-78354180D01*
X154239838Y-78354180D01*
X154335076Y-78306561D01*
X154382695Y-78258942D01*
X154430314Y-78163704D01*
X154430314Y-77925609D01*
X154382695Y-77830371D01*
X154335076Y-77782752D01*
X154239838Y-77735133D01*
X154049361Y-77735133D01*
X153954123Y-77782752D01*
X153906504Y-77830371D01*
X153858885Y-77925609D01*
X123372619Y-86707742D02*
X123848809Y-86374409D01*
X123372619Y-86136314D02*
X124372619Y-86136314D01*
X124372619Y-86517266D01*
X124325000Y-86612504D01*
X124277380Y-86660123D01*
X124182142Y-86707742D01*
X124039285Y-86707742D01*
X123944047Y-86660123D01*
X123896428Y-86612504D01*
X123848809Y-86517266D01*
X123848809Y-86136314D01*
X123372619Y-87660123D02*
X123372619Y-87088695D01*
X123372619Y-87374409D02*
X124372619Y-87374409D01*
X124229761Y-87279171D01*
X124134523Y-87183933D01*
X124086904Y-87088695D01*
X124372619Y-87993457D02*
X124372619Y-88612504D01*
X123991666Y-88279171D01*
X123991666Y-88422028D01*
X123944047Y-88517266D01*
X123896428Y-88564885D01*
X123801190Y-88612504D01*
X123563095Y-88612504D01*
X123467857Y-88564885D01*
X123420238Y-88517266D01*
X123372619Y-88422028D01*
X123372619Y-88136314D01*
X123420238Y-88041076D01*
X123467857Y-87993457D01*
X138915876Y-79081380D02*
X139582542Y-80081380D01*
X139582542Y-79081380D02*
X138915876Y-80081380D01*
X140487304Y-80081380D02*
X139915876Y-80081380D01*
X140201590Y-80081380D02*
X140201590Y-79081380D01*
X140106352Y-79224238D01*
X140011114Y-79319476D01*
X139915876Y-79367095D01*
X145762742Y-98521780D02*
X145429409Y-98045590D01*
X145191314Y-98521780D02*
X145191314Y-97521780D01*
X145572266Y-97521780D01*
X145667504Y-97569400D01*
X145715123Y-97617019D01*
X145762742Y-97712257D01*
X145762742Y-97855114D01*
X145715123Y-97950352D01*
X145667504Y-97997971D01*
X145572266Y-98045590D01*
X145191314Y-98045590D01*
X146715123Y-98521780D02*
X146143695Y-98521780D01*
X146429409Y-98521780D02*
X146429409Y-97521780D01*
X146334171Y-97664638D01*
X146238933Y-97759876D01*
X146143695Y-97807495D01*
X147619885Y-97521780D02*
X147143695Y-97521780D01*
X147096076Y-97997971D01*
X147143695Y-97950352D01*
X147238933Y-97902733D01*
X147477028Y-97902733D01*
X147572266Y-97950352D01*
X147619885Y-97997971D01*
X147667504Y-98093209D01*
X147667504Y-98331304D01*
X147619885Y-98426542D01*
X147572266Y-98474161D01*
X147477028Y-98521780D01*
X147238933Y-98521780D01*
X147143695Y-98474161D01*
X147096076Y-98426542D01*
X132080095Y-72578980D02*
X132080095Y-73388504D01*
X132127714Y-73483742D01*
X132175333Y-73531361D01*
X132270571Y-73578980D01*
X132461047Y-73578980D01*
X132556285Y-73531361D01*
X132603904Y-73483742D01*
X132651523Y-73388504D01*
X132651523Y-72578980D01*
X133556285Y-72912314D02*
X133556285Y-73578980D01*
X133318190Y-72531361D02*
X133080095Y-73245647D01*
X133699142Y-73245647D01*
X157265619Y-65565495D02*
X157265619Y-66136923D01*
X156265619Y-65851209D02*
X157265619Y-65851209D01*
X156265619Y-66470257D02*
X157265619Y-66470257D01*
X157265619Y-66851209D01*
X157218000Y-66946447D01*
X157170380Y-66994066D01*
X157075142Y-67041685D01*
X156932285Y-67041685D01*
X156837047Y-66994066D01*
X156789428Y-66946447D01*
X156741809Y-66851209D01*
X156741809Y-66470257D01*
X157265619Y-67375019D02*
X157265619Y-68041685D01*
X156265619Y-67613114D01*
X146489895Y-65543180D02*
X147061323Y-65543180D01*
X146775609Y-66543180D02*
X146775609Y-65543180D01*
X147394657Y-66543180D02*
X147394657Y-65543180D01*
X147775609Y-65543180D01*
X147870847Y-65590800D01*
X147918466Y-65638419D01*
X147966085Y-65733657D01*
X147966085Y-65876514D01*
X147918466Y-65971752D01*
X147870847Y-66019371D01*
X147775609Y-66066990D01*
X147394657Y-66066990D01*
X148823228Y-65876514D02*
X148823228Y-66543180D01*
X148585133Y-65495561D02*
X148347038Y-66209847D01*
X148966085Y-66209847D01*
X140095219Y-65063904D02*
X140095219Y-65635333D01*
X139095219Y-65349619D02*
X140095219Y-65349619D01*
X139095219Y-65968666D02*
X140095219Y-65968666D01*
X140095219Y-66349619D01*
X140047600Y-66444857D01*
X139999980Y-66492476D01*
X139904742Y-66540095D01*
X139761885Y-66540095D01*
X139666647Y-66492476D01*
X139619028Y-66444857D01*
X139571409Y-66349619D01*
X139571409Y-65968666D01*
X139095219Y-67492476D02*
X139095219Y-66921047D01*
X139095219Y-67206761D02*
X140095219Y-67206761D01*
X139952361Y-67111523D01*
X139857123Y-67016285D01*
X139809504Y-66921047D01*
X139095219Y-67968666D02*
X139095219Y-68159142D01*
X139142838Y-68254380D01*
X139190457Y-68302000D01*
X139333314Y-68397238D01*
X139523790Y-68444857D01*
X139904742Y-68444857D01*
X139999980Y-68397238D01*
X140047600Y-68349619D01*
X140095219Y-68254380D01*
X140095219Y-68063904D01*
X140047600Y-67968666D01*
X139999980Y-67921047D01*
X139904742Y-67873428D01*
X139666647Y-67873428D01*
X139571409Y-67921047D01*
X139523790Y-67968666D01*
X139476171Y-68063904D01*
X139476171Y-68254380D01*
X139523790Y-68349619D01*
X139571409Y-68397238D01*
X139666647Y-68444857D01*
X133135904Y-67879980D02*
X133707333Y-67879980D01*
X133421619Y-68879980D02*
X133421619Y-67879980D01*
X134040666Y-68879980D02*
X134040666Y-67879980D01*
X134421619Y-67879980D01*
X134516857Y-67927600D01*
X134564476Y-67975219D01*
X134612095Y-68070457D01*
X134612095Y-68213314D01*
X134564476Y-68308552D01*
X134516857Y-68356171D01*
X134421619Y-68403790D01*
X134040666Y-68403790D01*
X135564476Y-68879980D02*
X134993047Y-68879980D01*
X135278761Y-68879980D02*
X135278761Y-67879980D01*
X135183523Y-68022838D01*
X135088285Y-68118076D01*
X134993047Y-68165695D01*
X136469238Y-67879980D02*
X135993047Y-67879980D01*
X135945428Y-68356171D01*
X135993047Y-68308552D01*
X136088285Y-68260933D01*
X136326380Y-68260933D01*
X136421619Y-68308552D01*
X136469238Y-68356171D01*
X136516857Y-68451409D01*
X136516857Y-68689504D01*
X136469238Y-68784742D01*
X136421619Y-68832361D01*
X136326380Y-68879980D01*
X136088285Y-68879980D01*
X135993047Y-68832361D01*
X135945428Y-68784742D01*
X108485204Y-60793380D02*
X109056633Y-60793380D01*
X108770919Y-61793380D02*
X108770919Y-60793380D01*
X109389966Y-61793380D02*
X109389966Y-60793380D01*
X109770919Y-60793380D01*
X109866157Y-60841000D01*
X109913776Y-60888619D01*
X109961395Y-60983857D01*
X109961395Y-61126714D01*
X109913776Y-61221952D01*
X109866157Y-61269571D01*
X109770919Y-61317190D01*
X109389966Y-61317190D01*
X110913776Y-61793380D02*
X110342347Y-61793380D01*
X110628061Y-61793380D02*
X110628061Y-60793380D01*
X110532823Y-60936238D01*
X110437585Y-61031476D01*
X110342347Y-61079095D01*
X111770919Y-61126714D02*
X111770919Y-61793380D01*
X111532823Y-60745761D02*
X111294728Y-61460047D01*
X111913776Y-61460047D01*
X128304755Y-71021993D02*
X128708816Y-70617932D01*
X129213893Y-71527070D02*
X128506786Y-70819963D01*
X129651625Y-71089337D02*
X128944519Y-70382230D01*
X129213893Y-70112856D01*
X129314908Y-70079184D01*
X129382251Y-70079184D01*
X129483267Y-70112856D01*
X129584282Y-70213871D01*
X129617954Y-70314887D01*
X129617954Y-70382230D01*
X129584282Y-70483245D01*
X129314908Y-70752619D01*
X130729122Y-70011841D02*
X130325061Y-70415902D01*
X130527091Y-70213871D02*
X129819984Y-69506764D01*
X129853656Y-69675123D01*
X129853656Y-69809810D01*
X129819984Y-69910825D01*
X130257717Y-69069032D02*
X130695450Y-68631299D01*
X130729122Y-69136375D01*
X130830137Y-69035360D01*
X130931152Y-69001688D01*
X130998496Y-69001688D01*
X131099511Y-69035360D01*
X131267870Y-69203719D01*
X131301541Y-69304734D01*
X131301541Y-69372077D01*
X131267870Y-69473093D01*
X131065839Y-69675123D01*
X130964824Y-69708795D01*
X130897480Y-69708795D01*
X125967955Y-70793393D02*
X126372016Y-70389332D01*
X126877093Y-71298470D02*
X126169986Y-70591363D01*
X127314825Y-70860737D02*
X126607719Y-70153630D01*
X126877093Y-69884256D01*
X126978108Y-69850584D01*
X127045451Y-69850584D01*
X127146467Y-69884256D01*
X127247482Y-69985271D01*
X127281154Y-70086287D01*
X127281154Y-70153630D01*
X127247482Y-70254645D01*
X126978108Y-70524019D01*
X128392322Y-69783241D02*
X127988261Y-70187302D01*
X128190291Y-69985271D02*
X127483184Y-69278164D01*
X127516856Y-69446523D01*
X127516856Y-69581210D01*
X127483184Y-69682225D01*
X128021932Y-68874103D02*
X128021932Y-68806760D01*
X128055604Y-68705745D01*
X128223963Y-68537386D01*
X128324978Y-68503714D01*
X128392322Y-68503714D01*
X128493337Y-68537386D01*
X128560680Y-68604729D01*
X128628024Y-68739416D01*
X128628024Y-69547538D01*
X129065757Y-69109806D01*
X154338495Y-55383180D02*
X154909923Y-55383180D01*
X154624209Y-56383180D02*
X154624209Y-55383180D01*
X155243257Y-56383180D02*
X155243257Y-55383180D01*
X155624209Y-55383180D01*
X155719447Y-55430800D01*
X155767066Y-55478419D01*
X155814685Y-55573657D01*
X155814685Y-55716514D01*
X155767066Y-55811752D01*
X155719447Y-55859371D01*
X155624209Y-55906990D01*
X155243257Y-55906990D01*
X156671828Y-55383180D02*
X156481352Y-55383180D01*
X156386114Y-55430800D01*
X156338495Y-55478419D01*
X156243257Y-55621276D01*
X156195638Y-55811752D01*
X156195638Y-56192704D01*
X156243257Y-56287942D01*
X156290876Y-56335561D01*
X156386114Y-56383180D01*
X156576590Y-56383180D01*
X156671828Y-56335561D01*
X156719447Y-56287942D01*
X156767066Y-56192704D01*
X156767066Y-55954609D01*
X156719447Y-55859371D01*
X156671828Y-55811752D01*
X156576590Y-55764133D01*
X156386114Y-55764133D01*
X156290876Y-55811752D01*
X156243257Y-55859371D01*
X156195638Y-55954609D01*
X139225495Y-54900580D02*
X139796923Y-54900580D01*
X139511209Y-55900580D02*
X139511209Y-54900580D01*
X140130257Y-55900580D02*
X140130257Y-54900580D01*
X140511209Y-54900580D01*
X140606447Y-54948200D01*
X140654066Y-54995819D01*
X140701685Y-55091057D01*
X140701685Y-55233914D01*
X140654066Y-55329152D01*
X140606447Y-55376771D01*
X140511209Y-55424390D01*
X140130257Y-55424390D01*
X141606447Y-54900580D02*
X141130257Y-54900580D01*
X141082638Y-55376771D01*
X141130257Y-55329152D01*
X141225495Y-55281533D01*
X141463590Y-55281533D01*
X141558828Y-55329152D01*
X141606447Y-55376771D01*
X141654066Y-55472009D01*
X141654066Y-55710104D01*
X141606447Y-55805342D01*
X141558828Y-55852961D01*
X141463590Y-55900580D01*
X141225495Y-55900580D01*
X141130257Y-55852961D01*
X141082638Y-55805342D01*
X145286457Y-68724542D02*
X145238838Y-68676923D01*
X145191219Y-68534066D01*
X145191219Y-68438828D01*
X145238838Y-68295971D01*
X145334076Y-68200733D01*
X145429314Y-68153114D01*
X145619790Y-68105495D01*
X145762647Y-68105495D01*
X145953123Y-68153114D01*
X146048361Y-68200733D01*
X146143600Y-68295971D01*
X146191219Y-68438828D01*
X146191219Y-68534066D01*
X146143600Y-68676923D01*
X146095980Y-68724542D01*
X146191219Y-69057876D02*
X146191219Y-69676923D01*
X145810266Y-69343590D01*
X145810266Y-69486447D01*
X145762647Y-69581685D01*
X145715028Y-69629304D01*
X145619790Y-69676923D01*
X145381695Y-69676923D01*
X145286457Y-69629304D01*
X145238838Y-69581685D01*
X145191219Y-69486447D01*
X145191219Y-69200733D01*
X145238838Y-69105495D01*
X145286457Y-69057876D01*
X146191219Y-70295971D02*
X146191219Y-70391209D01*
X146143600Y-70486447D01*
X146095980Y-70534066D01*
X146000742Y-70581685D01*
X145810266Y-70629304D01*
X145572171Y-70629304D01*
X145381695Y-70581685D01*
X145286457Y-70534066D01*
X145238838Y-70486447D01*
X145191219Y-70391209D01*
X145191219Y-70295971D01*
X145238838Y-70200733D01*
X145286457Y-70153114D01*
X145381695Y-70105495D01*
X145572171Y-70057876D01*
X145810266Y-70057876D01*
X146000742Y-70105495D01*
X146095980Y-70153114D01*
X146143600Y-70200733D01*
X146191219Y-70295971D01*
X153473304Y-68057780D02*
X153473304Y-68867304D01*
X153520923Y-68962542D01*
X153568542Y-69010161D01*
X153663780Y-69057780D01*
X153854257Y-69057780D01*
X153949495Y-69010161D01*
X153997114Y-68962542D01*
X154044733Y-68867304D01*
X154044733Y-68057780D01*
X155044733Y-69057780D02*
X154473304Y-69057780D01*
X154759019Y-69057780D02*
X154759019Y-68057780D01*
X154663780Y-68200638D01*
X154568542Y-68295876D01*
X154473304Y-68343495D01*
X155663780Y-68057780D02*
X155759019Y-68057780D01*
X155854257Y-68105400D01*
X155901876Y-68153019D01*
X155949495Y-68248257D01*
X155997114Y-68438733D01*
X155997114Y-68676828D01*
X155949495Y-68867304D01*
X155901876Y-68962542D01*
X155854257Y-69010161D01*
X155759019Y-69057780D01*
X155663780Y-69057780D01*
X155568542Y-69010161D01*
X155520923Y-68962542D01*
X155473304Y-68867304D01*
X155425685Y-68676828D01*
X155425685Y-68438733D01*
X155473304Y-68248257D01*
X155520923Y-68153019D01*
X155568542Y-68105400D01*
X155663780Y-68057780D01*
X133862819Y-84726542D02*
X134339009Y-84393209D01*
X133862819Y-84155114D02*
X134862819Y-84155114D01*
X134862819Y-84536066D01*
X134815200Y-84631304D01*
X134767580Y-84678923D01*
X134672342Y-84726542D01*
X134529485Y-84726542D01*
X134434247Y-84678923D01*
X134386628Y-84631304D01*
X134339009Y-84536066D01*
X134339009Y-84155114D01*
X133862819Y-85678923D02*
X133862819Y-85107495D01*
X133862819Y-85393209D02*
X134862819Y-85393209D01*
X134719961Y-85297971D01*
X134624723Y-85202733D01*
X134577104Y-85107495D01*
X133862819Y-86631304D02*
X133862819Y-86059876D01*
X133862819Y-86345590D02*
X134862819Y-86345590D01*
X134719961Y-86250352D01*
X134624723Y-86155114D01*
X134577104Y-86059876D01*
X118056066Y-95972380D02*
X118056066Y-96686666D01*
X118008447Y-96829523D01*
X117913209Y-96924761D01*
X117770352Y-96972380D01*
X117675114Y-96972380D01*
X118960828Y-95972380D02*
X118770352Y-95972380D01*
X118675114Y-96020000D01*
X118627495Y-96067619D01*
X118532257Y-96210476D01*
X118484638Y-96400952D01*
X118484638Y-96781904D01*
X118532257Y-96877142D01*
X118579876Y-96924761D01*
X118675114Y-96972380D01*
X118865590Y-96972380D01*
X118960828Y-96924761D01*
X119008447Y-96877142D01*
X119056066Y-96781904D01*
X119056066Y-96543809D01*
X119008447Y-96448571D01*
X118960828Y-96400952D01*
X118865590Y-96353333D01*
X118675114Y-96353333D01*
X118579876Y-96400952D01*
X118532257Y-96448571D01*
X118484638Y-96543809D01*
X157465804Y-100096580D02*
X157465804Y-99096580D01*
X157703900Y-99096580D01*
X157846757Y-99144200D01*
X157941995Y-99239438D01*
X157989614Y-99334676D01*
X158037233Y-99525152D01*
X158037233Y-99668009D01*
X157989614Y-99858485D01*
X157941995Y-99953723D01*
X157846757Y-100048961D01*
X157703900Y-100096580D01*
X157465804Y-100096580D01*
X158418185Y-99191819D02*
X158465804Y-99144200D01*
X158561042Y-99096580D01*
X158799138Y-99096580D01*
X158894376Y-99144200D01*
X158941995Y-99191819D01*
X158989614Y-99287057D01*
X158989614Y-99382295D01*
X158941995Y-99525152D01*
X158370566Y-100096580D01*
X158989614Y-100096580D01*
X155814633Y-89841342D02*
X155767014Y-89888961D01*
X155624157Y-89936580D01*
X155528919Y-89936580D01*
X155386061Y-89888961D01*
X155290823Y-89793723D01*
X155243204Y-89698485D01*
X155195585Y-89508009D01*
X155195585Y-89365152D01*
X155243204Y-89174676D01*
X155290823Y-89079438D01*
X155386061Y-88984200D01*
X155528919Y-88936580D01*
X155624157Y-88936580D01*
X155767014Y-88984200D01*
X155814633Y-89031819D01*
X156386061Y-89365152D02*
X156290823Y-89317533D01*
X156243204Y-89269914D01*
X156195585Y-89174676D01*
X156195585Y-89127057D01*
X156243204Y-89031819D01*
X156290823Y-88984200D01*
X156386061Y-88936580D01*
X156576538Y-88936580D01*
X156671776Y-88984200D01*
X156719395Y-89031819D01*
X156767014Y-89127057D01*
X156767014Y-89174676D01*
X156719395Y-89269914D01*
X156671776Y-89317533D01*
X156576538Y-89365152D01*
X156386061Y-89365152D01*
X156290823Y-89412771D01*
X156243204Y-89460390D01*
X156195585Y-89555628D01*
X156195585Y-89746104D01*
X156243204Y-89841342D01*
X156290823Y-89888961D01*
X156386061Y-89936580D01*
X156576538Y-89936580D01*
X156671776Y-89888961D01*
X156719395Y-89841342D01*
X156767014Y-89746104D01*
X156767014Y-89555628D01*
X156719395Y-89460390D01*
X156671776Y-89412771D01*
X156576538Y-89365152D01*
X111098057Y-80783133D02*
X111050438Y-80735514D01*
X111002819Y-80592657D01*
X111002819Y-80497419D01*
X111050438Y-80354561D01*
X111145676Y-80259323D01*
X111240914Y-80211704D01*
X111431390Y-80164085D01*
X111574247Y-80164085D01*
X111764723Y-80211704D01*
X111859961Y-80259323D01*
X111955200Y-80354561D01*
X112002819Y-80497419D01*
X112002819Y-80592657D01*
X111955200Y-80735514D01*
X111907580Y-80783133D01*
X112002819Y-81116466D02*
X112002819Y-81735514D01*
X111621866Y-81402180D01*
X111621866Y-81545038D01*
X111574247Y-81640276D01*
X111526628Y-81687895D01*
X111431390Y-81735514D01*
X111193295Y-81735514D01*
X111098057Y-81687895D01*
X111050438Y-81640276D01*
X111002819Y-81545038D01*
X111002819Y-81259323D01*
X111050438Y-81164085D01*
X111098057Y-81116466D01*
X139628619Y-58139104D02*
X140628619Y-58139104D01*
X140628619Y-58377200D01*
X140581000Y-58520057D01*
X140485761Y-58615295D01*
X140390523Y-58662914D01*
X140200047Y-58710533D01*
X140057190Y-58710533D01*
X139866714Y-58662914D01*
X139771476Y-58615295D01*
X139676238Y-58520057D01*
X139628619Y-58377200D01*
X139628619Y-58139104D01*
X140628619Y-59043866D02*
X140628619Y-59662914D01*
X140247666Y-59329580D01*
X140247666Y-59472438D01*
X140200047Y-59567676D01*
X140152428Y-59615295D01*
X140057190Y-59662914D01*
X139819095Y-59662914D01*
X139723857Y-59615295D01*
X139676238Y-59567676D01*
X139628619Y-59472438D01*
X139628619Y-59186723D01*
X139676238Y-59091485D01*
X139723857Y-59043866D01*
X147701095Y-55078380D02*
X147701095Y-55887904D01*
X147748714Y-55983142D01*
X147796333Y-56030761D01*
X147891571Y-56078380D01*
X148082047Y-56078380D01*
X148177285Y-56030761D01*
X148224904Y-55983142D01*
X148272523Y-55887904D01*
X148272523Y-55078380D01*
X148796333Y-56078380D02*
X148986809Y-56078380D01*
X149082047Y-56030761D01*
X149129666Y-55983142D01*
X149224904Y-55840285D01*
X149272523Y-55649809D01*
X149272523Y-55268857D01*
X149224904Y-55173619D01*
X149177285Y-55126000D01*
X149082047Y-55078380D01*
X148891571Y-55078380D01*
X148796333Y-55126000D01*
X148748714Y-55173619D01*
X148701095Y-55268857D01*
X148701095Y-55506952D01*
X148748714Y-55602190D01*
X148796333Y-55649809D01*
X148891571Y-55697428D01*
X149082047Y-55697428D01*
X149177285Y-55649809D01*
X149224904Y-55602190D01*
X149272523Y-55506952D01*
X150469695Y-67956180D02*
X150469695Y-68765704D01*
X150517314Y-68860942D01*
X150564933Y-68908561D01*
X150660171Y-68956180D01*
X150850647Y-68956180D01*
X150945885Y-68908561D01*
X150993504Y-68860942D01*
X151041123Y-68765704D01*
X151041123Y-67956180D01*
X151422076Y-67956180D02*
X152088742Y-67956180D01*
X151660171Y-68956180D01*
X151064933Y-56205380D02*
X150588742Y-56205380D01*
X150588742Y-55205380D01*
X151303028Y-55205380D02*
X151922076Y-55205380D01*
X151588742Y-55586333D01*
X151731600Y-55586333D01*
X151826838Y-55633952D01*
X151874457Y-55681571D01*
X151922076Y-55776809D01*
X151922076Y-56014904D01*
X151874457Y-56110142D01*
X151826838Y-56157761D01*
X151731600Y-56205380D01*
X151445885Y-56205380D01*
X151350647Y-56157761D01*
X151303028Y-56110142D01*
X145102342Y-60910742D02*
X145054723Y-60958361D01*
X144911866Y-61005980D01*
X144816628Y-61005980D01*
X144673771Y-60958361D01*
X144578533Y-60863123D01*
X144530914Y-60767885D01*
X144483295Y-60577409D01*
X144483295Y-60434552D01*
X144530914Y-60244076D01*
X144578533Y-60148838D01*
X144673771Y-60053600D01*
X144816628Y-60005980D01*
X144911866Y-60005980D01*
X145054723Y-60053600D01*
X145102342Y-60101219D01*
X145483295Y-60101219D02*
X145530914Y-60053600D01*
X145626152Y-60005980D01*
X145864247Y-60005980D01*
X145959485Y-60053600D01*
X146007104Y-60101219D01*
X146054723Y-60196457D01*
X146054723Y-60291695D01*
X146007104Y-60434552D01*
X145435676Y-61005980D01*
X146054723Y-61005980D01*
X146530914Y-61005980D02*
X146721390Y-61005980D01*
X146816628Y-60958361D01*
X146864247Y-60910742D01*
X146959485Y-60767885D01*
X147007104Y-60577409D01*
X147007104Y-60196457D01*
X146959485Y-60101219D01*
X146911866Y-60053600D01*
X146816628Y-60005980D01*
X146626152Y-60005980D01*
X146530914Y-60053600D01*
X146483295Y-60101219D01*
X146435676Y-60196457D01*
X146435676Y-60434552D01*
X146483295Y-60529790D01*
X146530914Y-60577409D01*
X146626152Y-60625028D01*
X146816628Y-60625028D01*
X146911866Y-60577409D01*
X146959485Y-60529790D01*
X147007104Y-60434552D01*
X153484342Y-76760342D02*
X153436723Y-76807961D01*
X153293866Y-76855580D01*
X153198628Y-76855580D01*
X153055771Y-76807961D01*
X152960533Y-76712723D01*
X152912914Y-76617485D01*
X152865295Y-76427009D01*
X152865295Y-76284152D01*
X152912914Y-76093676D01*
X152960533Y-75998438D01*
X153055771Y-75903200D01*
X153198628Y-75855580D01*
X153293866Y-75855580D01*
X153436723Y-75903200D01*
X153484342Y-75950819D01*
X154436723Y-76855580D02*
X153865295Y-76855580D01*
X154151009Y-76855580D02*
X154151009Y-75855580D01*
X154055771Y-75998438D01*
X153960533Y-76093676D01*
X153865295Y-76141295D01*
X155008152Y-76284152D02*
X154912914Y-76236533D01*
X154865295Y-76188914D01*
X154817676Y-76093676D01*
X154817676Y-76046057D01*
X154865295Y-75950819D01*
X154912914Y-75903200D01*
X155008152Y-75855580D01*
X155198628Y-75855580D01*
X155293866Y-75903200D01*
X155341485Y-75950819D01*
X155389104Y-76046057D01*
X155389104Y-76093676D01*
X155341485Y-76188914D01*
X155293866Y-76236533D01*
X155198628Y-76284152D01*
X155008152Y-76284152D01*
X154912914Y-76331771D01*
X154865295Y-76379390D01*
X154817676Y-76474628D01*
X154817676Y-76665104D01*
X154865295Y-76760342D01*
X154912914Y-76807961D01*
X155008152Y-76855580D01*
X155198628Y-76855580D01*
X155293866Y-76807961D01*
X155341485Y-76760342D01*
X155389104Y-76665104D01*
X155389104Y-76474628D01*
X155341485Y-76379390D01*
X155293866Y-76331771D01*
X155198628Y-76284152D01*
X141652666Y-67568771D02*
X141319333Y-67568771D01*
X141319333Y-68092580D02*
X141319333Y-67092580D01*
X141795523Y-67092580D01*
X142700285Y-68092580D02*
X142128857Y-68092580D01*
X142414571Y-68092580D02*
X142414571Y-67092580D01*
X142319333Y-67235438D01*
X142224095Y-67330676D01*
X142128857Y-67378295D01*
X108296176Y-64552580D02*
X108962842Y-65552580D01*
X108962842Y-64552580D02*
X108296176Y-65552580D01*
X109772366Y-64885914D02*
X109772366Y-65552580D01*
X109534271Y-64504961D02*
X109296176Y-65219247D01*
X109915223Y-65219247D01*
X117541776Y-61606180D02*
X118208442Y-62606180D01*
X118208442Y-61606180D02*
X117541776Y-62606180D01*
X118541776Y-61701419D02*
X118589395Y-61653800D01*
X118684633Y-61606180D01*
X118922728Y-61606180D01*
X119017966Y-61653800D01*
X119065585Y-61701419D01*
X119113204Y-61796657D01*
X119113204Y-61891895D01*
X119065585Y-62034752D01*
X118494157Y-62606180D01*
X119113204Y-62606180D01*
X146283419Y-74636333D02*
X146759609Y-74303000D01*
X146283419Y-74064904D02*
X147283419Y-74064904D01*
X147283419Y-74445857D01*
X147235800Y-74541095D01*
X147188180Y-74588714D01*
X147092942Y-74636333D01*
X146950085Y-74636333D01*
X146854847Y-74588714D01*
X146807228Y-74541095D01*
X146759609Y-74445857D01*
X146759609Y-74064904D01*
X147283419Y-74969666D02*
X147283419Y-75588714D01*
X146902466Y-75255380D01*
X146902466Y-75398238D01*
X146854847Y-75493476D01*
X146807228Y-75541095D01*
X146711990Y-75588714D01*
X146473895Y-75588714D01*
X146378657Y-75541095D01*
X146331038Y-75493476D01*
X146283419Y-75398238D01*
X146283419Y-75112523D01*
X146331038Y-75017285D01*
X146378657Y-74969666D01*
X147604219Y-74636333D02*
X148080409Y-74303000D01*
X147604219Y-74064904D02*
X148604219Y-74064904D01*
X148604219Y-74445857D01*
X148556600Y-74541095D01*
X148508980Y-74588714D01*
X148413742Y-74636333D01*
X148270885Y-74636333D01*
X148175647Y-74588714D01*
X148128028Y-74541095D01*
X148080409Y-74445857D01*
X148080409Y-74064904D01*
X148508980Y-75017285D02*
X148556600Y-75064904D01*
X148604219Y-75160142D01*
X148604219Y-75398238D01*
X148556600Y-75493476D01*
X148508980Y-75541095D01*
X148413742Y-75588714D01*
X148318504Y-75588714D01*
X148175647Y-75541095D01*
X147604219Y-74969666D01*
X147604219Y-75588714D01*
X148925019Y-74636333D02*
X149401209Y-74303000D01*
X148925019Y-74064904D02*
X149925019Y-74064904D01*
X149925019Y-74445857D01*
X149877400Y-74541095D01*
X149829780Y-74588714D01*
X149734542Y-74636333D01*
X149591685Y-74636333D01*
X149496447Y-74588714D01*
X149448828Y-74541095D01*
X149401209Y-74445857D01*
X149401209Y-74064904D01*
X148925019Y-75588714D02*
X148925019Y-75017285D01*
X148925019Y-75303000D02*
X149925019Y-75303000D01*
X149782161Y-75207761D01*
X149686923Y-75112523D01*
X149639304Y-75017285D01*
X128814533Y-84812142D02*
X128766914Y-84859761D01*
X128624057Y-84907380D01*
X128528819Y-84907380D01*
X128385961Y-84859761D01*
X128290723Y-84764523D01*
X128243104Y-84669285D01*
X128195485Y-84478809D01*
X128195485Y-84335952D01*
X128243104Y-84145476D01*
X128290723Y-84050238D01*
X128385961Y-83955000D01*
X128528819Y-83907380D01*
X128624057Y-83907380D01*
X128766914Y-83955000D01*
X128814533Y-84002619D01*
X129719295Y-83907380D02*
X129243104Y-83907380D01*
X129195485Y-84383571D01*
X129243104Y-84335952D01*
X129338342Y-84288333D01*
X129576438Y-84288333D01*
X129671676Y-84335952D01*
X129719295Y-84383571D01*
X129766914Y-84478809D01*
X129766914Y-84716904D01*
X129719295Y-84812142D01*
X129671676Y-84859761D01*
X129576438Y-84907380D01*
X129338342Y-84907380D01*
X129243104Y-84859761D01*
X129195485Y-84812142D01*
X126261857Y-76642933D02*
X126214238Y-76595314D01*
X126166619Y-76452457D01*
X126166619Y-76357219D01*
X126214238Y-76214361D01*
X126309476Y-76119123D01*
X126404714Y-76071504D01*
X126595190Y-76023885D01*
X126738047Y-76023885D01*
X126928523Y-76071504D01*
X127023761Y-76119123D01*
X127119000Y-76214361D01*
X127166619Y-76357219D01*
X127166619Y-76452457D01*
X127119000Y-76595314D01*
X127071380Y-76642933D01*
X126833285Y-77500076D02*
X126166619Y-77500076D01*
X127214238Y-77261980D02*
X126499952Y-77023885D01*
X126499952Y-77642933D01*
X145026142Y-56059342D02*
X144978523Y-56106961D01*
X144835666Y-56154580D01*
X144740428Y-56154580D01*
X144597571Y-56106961D01*
X144502333Y-56011723D01*
X144454714Y-55916485D01*
X144407095Y-55726009D01*
X144407095Y-55583152D01*
X144454714Y-55392676D01*
X144502333Y-55297438D01*
X144597571Y-55202200D01*
X144740428Y-55154580D01*
X144835666Y-55154580D01*
X144978523Y-55202200D01*
X145026142Y-55249819D01*
X145407095Y-55249819D02*
X145454714Y-55202200D01*
X145549952Y-55154580D01*
X145788047Y-55154580D01*
X145883285Y-55202200D01*
X145930904Y-55249819D01*
X145978523Y-55345057D01*
X145978523Y-55440295D01*
X145930904Y-55583152D01*
X145359476Y-56154580D01*
X145978523Y-56154580D01*
X146549952Y-55583152D02*
X146454714Y-55535533D01*
X146407095Y-55487914D01*
X146359476Y-55392676D01*
X146359476Y-55345057D01*
X146407095Y-55249819D01*
X146454714Y-55202200D01*
X146549952Y-55154580D01*
X146740428Y-55154580D01*
X146835666Y-55202200D01*
X146883285Y-55249819D01*
X146930904Y-55345057D01*
X146930904Y-55392676D01*
X146883285Y-55487914D01*
X146835666Y-55535533D01*
X146740428Y-55583152D01*
X146549952Y-55583152D01*
X146454714Y-55630771D01*
X146407095Y-55678390D01*
X146359476Y-55773628D01*
X146359476Y-55964104D01*
X146407095Y-56059342D01*
X146454714Y-56106961D01*
X146549952Y-56154580D01*
X146740428Y-56154580D01*
X146835666Y-56106961D01*
X146883285Y-56059342D01*
X146930904Y-55964104D01*
X146930904Y-55773628D01*
X146883285Y-55678390D01*
X146835666Y-55630771D01*
X146740428Y-55583152D01*
X139203133Y-73839342D02*
X139155514Y-73886961D01*
X139012657Y-73934580D01*
X138917419Y-73934580D01*
X138774561Y-73886961D01*
X138679323Y-73791723D01*
X138631704Y-73696485D01*
X138584085Y-73506009D01*
X138584085Y-73363152D01*
X138631704Y-73172676D01*
X138679323Y-73077438D01*
X138774561Y-72982200D01*
X138917419Y-72934580D01*
X139012657Y-72934580D01*
X139155514Y-72982200D01*
X139203133Y-73029819D01*
X139584085Y-73029819D02*
X139631704Y-72982200D01*
X139726942Y-72934580D01*
X139965038Y-72934580D01*
X140060276Y-72982200D01*
X140107895Y-73029819D01*
X140155514Y-73125057D01*
X140155514Y-73220295D01*
X140107895Y-73363152D01*
X139536466Y-73934580D01*
X140155514Y-73934580D01*
X141578057Y-75017333D02*
X141530438Y-74969714D01*
X141482819Y-74826857D01*
X141482819Y-74731619D01*
X141530438Y-74588761D01*
X141625676Y-74493523D01*
X141720914Y-74445904D01*
X141911390Y-74398285D01*
X142054247Y-74398285D01*
X142244723Y-74445904D01*
X142339961Y-74493523D01*
X142435200Y-74588761D01*
X142482819Y-74731619D01*
X142482819Y-74826857D01*
X142435200Y-74969714D01*
X142387580Y-75017333D01*
X141482819Y-75969714D02*
X141482819Y-75398285D01*
X141482819Y-75684000D02*
X142482819Y-75684000D01*
X142339961Y-75588761D01*
X142244723Y-75493523D01*
X142197104Y-75398285D01*
X140854180Y-94872133D02*
X141568466Y-94872133D01*
X141711323Y-94919752D01*
X141806561Y-95014990D01*
X141854180Y-95157847D01*
X141854180Y-95253085D01*
X141854180Y-94348323D02*
X141854180Y-94157847D01*
X141806561Y-94062609D01*
X141758942Y-94014990D01*
X141616085Y-93919752D01*
X141425609Y-93872133D01*
X141044657Y-93872133D01*
X140949419Y-93919752D01*
X140901800Y-93967371D01*
X140854180Y-94062609D01*
X140854180Y-94253085D01*
X140901800Y-94348323D01*
X140949419Y-94395942D01*
X141044657Y-94443561D01*
X141282752Y-94443561D01*
X141377990Y-94395942D01*
X141425609Y-94348323D01*
X141473228Y-94253085D01*
X141473228Y-94062609D01*
X141425609Y-93967371D01*
X141377990Y-93919752D01*
X141282752Y-93872133D01*
X152303266Y-64469971D02*
X151969933Y-64469971D01*
X151969933Y-64993780D02*
X151969933Y-63993780D01*
X152446123Y-63993780D01*
X153160409Y-64469971D02*
X153303266Y-64517590D01*
X153350885Y-64565209D01*
X153398504Y-64660447D01*
X153398504Y-64803304D01*
X153350885Y-64898542D01*
X153303266Y-64946161D01*
X153208028Y-64993780D01*
X152827076Y-64993780D01*
X152827076Y-63993780D01*
X153160409Y-63993780D01*
X153255647Y-64041400D01*
X153303266Y-64089019D01*
X153350885Y-64184257D01*
X153350885Y-64279495D01*
X153303266Y-64374733D01*
X153255647Y-64422352D01*
X153160409Y-64469971D01*
X152827076Y-64469971D01*
X154255647Y-64327114D02*
X154255647Y-64993780D01*
X154017552Y-63946161D02*
X153779457Y-64660447D01*
X154398504Y-64660447D01*
X155173466Y-61015571D02*
X154840133Y-61015571D01*
X154840133Y-61539380D02*
X154840133Y-60539380D01*
X155316323Y-60539380D01*
X156030609Y-61015571D02*
X156173466Y-61063190D01*
X156221085Y-61110809D01*
X156268704Y-61206047D01*
X156268704Y-61348904D01*
X156221085Y-61444142D01*
X156173466Y-61491761D01*
X156078228Y-61539380D01*
X155697276Y-61539380D01*
X155697276Y-60539380D01*
X156030609Y-60539380D01*
X156125847Y-60587000D01*
X156173466Y-60634619D01*
X156221085Y-60729857D01*
X156221085Y-60825095D01*
X156173466Y-60920333D01*
X156125847Y-60967952D01*
X156030609Y-61015571D01*
X155697276Y-61015571D01*
X156602038Y-60539380D02*
X157221085Y-60539380D01*
X156887752Y-60920333D01*
X157030609Y-60920333D01*
X157125847Y-60967952D01*
X157173466Y-61015571D01*
X157221085Y-61110809D01*
X157221085Y-61348904D01*
X157173466Y-61444142D01*
X157125847Y-61491761D01*
X157030609Y-61539380D01*
X156744895Y-61539380D01*
X156649657Y-61491761D01*
X156602038Y-61444142D01*
X156764036Y-72801748D02*
X156528334Y-73037450D01*
X156898723Y-73407839D02*
X156191616Y-72700732D01*
X156528334Y-72364015D01*
X157370128Y-72195656D02*
X157504815Y-72128312D01*
X157572158Y-72128312D01*
X157673174Y-72161984D01*
X157774189Y-72263000D01*
X157807861Y-72364015D01*
X157807861Y-72431358D01*
X157774189Y-72532374D01*
X157504815Y-72801748D01*
X156797708Y-72094641D01*
X157033410Y-71858938D01*
X157134425Y-71825267D01*
X157201769Y-71825267D01*
X157302784Y-71858938D01*
X157370128Y-71926282D01*
X157403800Y-72027297D01*
X157403800Y-72094641D01*
X157370128Y-72195656D01*
X157134425Y-72431358D01*
X157538487Y-71488549D02*
X157538487Y-71421206D01*
X157572158Y-71320190D01*
X157740517Y-71151832D01*
X157841532Y-71118160D01*
X157908876Y-71118160D01*
X158009891Y-71151832D01*
X158077235Y-71219175D01*
X158144578Y-71353862D01*
X158144578Y-72161984D01*
X158582311Y-71724251D01*
X156875266Y-85780571D02*
X156541933Y-85780571D01*
X156541933Y-86304380D02*
X156541933Y-85304380D01*
X157018123Y-85304380D01*
X157732409Y-85780571D02*
X157875266Y-85828190D01*
X157922885Y-85875809D01*
X157970504Y-85971047D01*
X157970504Y-86113904D01*
X157922885Y-86209142D01*
X157875266Y-86256761D01*
X157780028Y-86304380D01*
X157399076Y-86304380D01*
X157399076Y-85304380D01*
X157732409Y-85304380D01*
X157827647Y-85352000D01*
X157875266Y-85399619D01*
X157922885Y-85494857D01*
X157922885Y-85590095D01*
X157875266Y-85685333D01*
X157827647Y-85732952D01*
X157732409Y-85780571D01*
X157399076Y-85780571D01*
X158922885Y-86304380D02*
X158351457Y-86304380D01*
X158637171Y-86304380D02*
X158637171Y-85304380D01*
X158541933Y-85447238D01*
X158446695Y-85542476D01*
X158351457Y-85590095D01*
X122150119Y-70256495D02*
X121340595Y-70256495D01*
X121245357Y-70304114D01*
X121197738Y-70351733D01*
X121150119Y-70446971D01*
X121150119Y-70637447D01*
X121197738Y-70732685D01*
X121245357Y-70780304D01*
X121340595Y-70827923D01*
X122150119Y-70827923D01*
X122054880Y-71256495D02*
X122102500Y-71304114D01*
X122150119Y-71399352D01*
X122150119Y-71637447D01*
X122102500Y-71732685D01*
X122054880Y-71780304D01*
X121959642Y-71827923D01*
X121864404Y-71827923D01*
X121721547Y-71780304D01*
X121150119Y-71208876D01*
X121150119Y-71827923D01*
X113031519Y-74320495D02*
X112221995Y-74320495D01*
X112126757Y-74368114D01*
X112079138Y-74415733D01*
X112031519Y-74510971D01*
X112031519Y-74701447D01*
X112079138Y-74796685D01*
X112126757Y-74844304D01*
X112221995Y-74891923D01*
X113031519Y-74891923D01*
X112031519Y-75891923D02*
X112031519Y-75320495D01*
X112031519Y-75606209D02*
X113031519Y-75606209D01*
X112888661Y-75510971D01*
X112793423Y-75415733D01*
X112745804Y-75320495D01*
X136205933Y-55976780D02*
X135729742Y-55976780D01*
X135729742Y-54976780D01*
X137063076Y-55976780D02*
X136491647Y-55976780D01*
X136777361Y-55976780D02*
X136777361Y-54976780D01*
X136682123Y-55119638D01*
X136586885Y-55214876D01*
X136491647Y-55262495D01*
X133248495Y-54925980D02*
X133248495Y-55735504D01*
X133296114Y-55830742D01*
X133343733Y-55878361D01*
X133438971Y-55925980D01*
X133629447Y-55925980D01*
X133724685Y-55878361D01*
X133772304Y-55830742D01*
X133819923Y-55735504D01*
X133819923Y-54925980D01*
X134724685Y-54925980D02*
X134534209Y-54925980D01*
X134438971Y-54973600D01*
X134391352Y-55021219D01*
X134296114Y-55164076D01*
X134248495Y-55354552D01*
X134248495Y-55735504D01*
X134296114Y-55830742D01*
X134343733Y-55878361D01*
X134438971Y-55925980D01*
X134629447Y-55925980D01*
X134724685Y-55878361D01*
X134772304Y-55830742D01*
X134819923Y-55735504D01*
X134819923Y-55497409D01*
X134772304Y-55402171D01*
X134724685Y-55354552D01*
X134629447Y-55306933D01*
X134438971Y-55306933D01*
X134343733Y-55354552D01*
X134296114Y-55402171D01*
X134248495Y-55497409D01*
X130992642Y-60936142D02*
X130945023Y-60983761D01*
X130802166Y-61031380D01*
X130706928Y-61031380D01*
X130564071Y-60983761D01*
X130468833Y-60888523D01*
X130421214Y-60793285D01*
X130373595Y-60602809D01*
X130373595Y-60459952D01*
X130421214Y-60269476D01*
X130468833Y-60174238D01*
X130564071Y-60079000D01*
X130706928Y-60031380D01*
X130802166Y-60031380D01*
X130945023Y-60079000D01*
X130992642Y-60126619D01*
X131945023Y-61031380D02*
X131373595Y-61031380D01*
X131659309Y-61031380D02*
X131659309Y-60031380D01*
X131564071Y-60174238D01*
X131468833Y-60269476D01*
X131373595Y-60317095D01*
X132325976Y-60126619D02*
X132373595Y-60079000D01*
X132468833Y-60031380D01*
X132706928Y-60031380D01*
X132802166Y-60079000D01*
X132849785Y-60126619D01*
X132897404Y-60221857D01*
X132897404Y-60317095D01*
X132849785Y-60459952D01*
X132278357Y-61031380D01*
X132897404Y-61031380D01*
X154201857Y-73372842D02*
X154154238Y-73325223D01*
X154106619Y-73182366D01*
X154106619Y-73087128D01*
X154154238Y-72944271D01*
X154249476Y-72849033D01*
X154344714Y-72801414D01*
X154535190Y-72753795D01*
X154678047Y-72753795D01*
X154868523Y-72801414D01*
X154963761Y-72849033D01*
X155059000Y-72944271D01*
X155106619Y-73087128D01*
X155106619Y-73182366D01*
X155059000Y-73325223D01*
X155011380Y-73372842D01*
X155011380Y-73753795D02*
X155059000Y-73801414D01*
X155106619Y-73896652D01*
X155106619Y-74134747D01*
X155059000Y-74229985D01*
X155011380Y-74277604D01*
X154916142Y-74325223D01*
X154820904Y-74325223D01*
X154678047Y-74277604D01*
X154106619Y-73706176D01*
X154106619Y-74325223D01*
X155106619Y-74658557D02*
X155106619Y-75325223D01*
X154106619Y-74896652D01*
X130446542Y-56186342D02*
X130398923Y-56233961D01*
X130256066Y-56281580D01*
X130160828Y-56281580D01*
X130017971Y-56233961D01*
X129922733Y-56138723D01*
X129875114Y-56043485D01*
X129827495Y-55853009D01*
X129827495Y-55710152D01*
X129875114Y-55519676D01*
X129922733Y-55424438D01*
X130017971Y-55329200D01*
X130160828Y-55281580D01*
X130256066Y-55281580D01*
X130398923Y-55329200D01*
X130446542Y-55376819D01*
X131398923Y-56281580D02*
X130827495Y-56281580D01*
X131113209Y-56281580D02*
X131113209Y-55281580D01*
X131017971Y-55424438D01*
X130922733Y-55519676D01*
X130827495Y-55567295D01*
X132351304Y-56281580D02*
X131779876Y-56281580D01*
X132065590Y-56281580D02*
X132065590Y-55281580D01*
X131970352Y-55424438D01*
X131875114Y-55519676D01*
X131779876Y-55567295D01*
X114273057Y-78147942D02*
X114225438Y-78100323D01*
X114177819Y-77957466D01*
X114177819Y-77862228D01*
X114225438Y-77719371D01*
X114320676Y-77624133D01*
X114415914Y-77576514D01*
X114606390Y-77528895D01*
X114749247Y-77528895D01*
X114939723Y-77576514D01*
X115034961Y-77624133D01*
X115130200Y-77719371D01*
X115177819Y-77862228D01*
X115177819Y-77957466D01*
X115130200Y-78100323D01*
X115082580Y-78147942D01*
X115082580Y-78528895D02*
X115130200Y-78576514D01*
X115177819Y-78671752D01*
X115177819Y-78909847D01*
X115130200Y-79005085D01*
X115082580Y-79052704D01*
X114987342Y-79100323D01*
X114892104Y-79100323D01*
X114749247Y-79052704D01*
X114177819Y-78481276D01*
X114177819Y-79100323D01*
X114844485Y-79957466D02*
X114177819Y-79957466D01*
X115225438Y-79719371D02*
X114511152Y-79481276D01*
X114511152Y-80100323D01*
X122096257Y-63542942D02*
X122048638Y-63495323D01*
X122001019Y-63352466D01*
X122001019Y-63257228D01*
X122048638Y-63114371D01*
X122143876Y-63019133D01*
X122239114Y-62971514D01*
X122429590Y-62923895D01*
X122572447Y-62923895D01*
X122762923Y-62971514D01*
X122858161Y-63019133D01*
X122953400Y-63114371D01*
X123001019Y-63257228D01*
X123001019Y-63352466D01*
X122953400Y-63495323D01*
X122905780Y-63542942D01*
X122905780Y-63923895D02*
X122953400Y-63971514D01*
X123001019Y-64066752D01*
X123001019Y-64304847D01*
X122953400Y-64400085D01*
X122905780Y-64447704D01*
X122810542Y-64495323D01*
X122715304Y-64495323D01*
X122572447Y-64447704D01*
X122001019Y-63876276D01*
X122001019Y-64495323D01*
X122905780Y-64876276D02*
X122953400Y-64923895D01*
X123001019Y-65019133D01*
X123001019Y-65257228D01*
X122953400Y-65352466D01*
X122905780Y-65400085D01*
X122810542Y-65447704D01*
X122715304Y-65447704D01*
X122572447Y-65400085D01*
X122001019Y-64828657D01*
X122001019Y-65447704D01*
X150360142Y-62460142D02*
X150312523Y-62507761D01*
X150169666Y-62555380D01*
X150074428Y-62555380D01*
X149931571Y-62507761D01*
X149836333Y-62412523D01*
X149788714Y-62317285D01*
X149741095Y-62126809D01*
X149741095Y-61983952D01*
X149788714Y-61793476D01*
X149836333Y-61698238D01*
X149931571Y-61603000D01*
X150074428Y-61555380D01*
X150169666Y-61555380D01*
X150312523Y-61603000D01*
X150360142Y-61650619D01*
X151312523Y-62555380D02*
X150741095Y-62555380D01*
X151026809Y-62555380D02*
X151026809Y-61555380D01*
X150931571Y-61698238D01*
X150836333Y-61793476D01*
X150741095Y-61841095D01*
X151645857Y-61555380D02*
X152312523Y-61555380D01*
X151883952Y-62555380D01*
X137526733Y-62485542D02*
X137479114Y-62533161D01*
X137336257Y-62580780D01*
X137241019Y-62580780D01*
X137098161Y-62533161D01*
X137002923Y-62437923D01*
X136955304Y-62342685D01*
X136907685Y-62152209D01*
X136907685Y-62009352D01*
X136955304Y-61818876D01*
X137002923Y-61723638D01*
X137098161Y-61628400D01*
X137241019Y-61580780D01*
X137336257Y-61580780D01*
X137479114Y-61628400D01*
X137526733Y-61676019D01*
X137860066Y-61580780D02*
X138526733Y-61580780D01*
X138098161Y-62580780D01*
%LPC*%
D15*
G36*
X173304200Y-54254400D02*
G01*
X91440000Y-54254400D01*
X91440000Y-102819200D01*
X88900000Y-102819200D01*
X88900000Y-52019200D01*
X173304200Y-51968400D01*
X173304200Y-54254400D01*
G37*
X173304200Y-54254400D02*
X91440000Y-54254400D01*
X91440000Y-102819200D01*
X88900000Y-102819200D01*
X88900000Y-52019200D01*
X173304200Y-51968400D01*
X173304200Y-54254400D01*
G36*
X173278800Y-102819200D02*
G01*
X91173300Y-102819200D01*
X91173300Y-100596700D01*
X171119800Y-100584000D01*
X173278800Y-100584000D01*
X173278800Y-102819200D01*
G37*
X173278800Y-102819200D02*
X91173300Y-102819200D01*
X91173300Y-100596700D01*
X171119800Y-100584000D01*
X173278800Y-100584000D01*
X173278800Y-102819200D01*
D19*
X154223800Y-79235600D03*
X154223800Y-81635600D03*
X153273800Y-79235600D03*
X153273800Y-81635600D03*
X152323800Y-79235600D03*
X152323800Y-81635600D03*
D20*
X160324800Y-58430400D03*
D21*
X160324800Y-60930400D03*
X160324800Y-62930400D03*
D22*
X160324800Y-65430400D03*
D23*
X163034800Y-55360400D03*
X163034800Y-68500400D03*
D24*
X165189800Y-85047400D03*
X165189800Y-71447400D03*
D25*
X165789800Y-80997400D03*
X165789800Y-75497400D03*
D26*
X158789800Y-77622400D03*
X158789800Y-80122400D03*
X158789800Y-78872400D03*
X158789800Y-76372400D03*
D27*
X161188400Y-94818200D03*
D28*
X167488400Y-94818200D03*
D29*
X164185600Y-89814400D03*
D30*
X158445200Y-90068400D03*
D31*
X126542800Y-83165000D03*
X126542800Y-80665000D03*
G36*
G01*
X150000000Y-84017500D02*
X150000000Y-83622500D01*
G75*
G02*
X150172500Y-83450000I172500J0D01*
G01*
X150517500Y-83450000D01*
G75*
G02*
X150690000Y-83622500I0J-172500D01*
G01*
X150690000Y-84017500D01*
G75*
G02*
X150517500Y-84190000I-172500J0D01*
G01*
X150172500Y-84190000D01*
G75*
G02*
X150000000Y-84017500I0J172500D01*
G01*
G37*
G36*
G01*
X149030000Y-84017500D02*
X149030000Y-83622500D01*
G75*
G02*
X149202500Y-83450000I172500J0D01*
G01*
X149547500Y-83450000D01*
G75*
G02*
X149720000Y-83622500I0J-172500D01*
G01*
X149720000Y-84017500D01*
G75*
G02*
X149547500Y-84190000I-172500J0D01*
G01*
X149202500Y-84190000D01*
G75*
G02*
X149030000Y-84017500I0J172500D01*
G01*
G37*
G36*
G01*
X149997600Y-85033500D02*
X149997600Y-84638500D01*
G75*
G02*
X150170100Y-84466000I172500J0D01*
G01*
X150515100Y-84466000D01*
G75*
G02*
X150687600Y-84638500I0J-172500D01*
G01*
X150687600Y-85033500D01*
G75*
G02*
X150515100Y-85206000I-172500J0D01*
G01*
X150170100Y-85206000D01*
G75*
G02*
X149997600Y-85033500I0J172500D01*
G01*
G37*
G36*
G01*
X149027600Y-85033500D02*
X149027600Y-84638500D01*
G75*
G02*
X149200100Y-84466000I172500J0D01*
G01*
X149545100Y-84466000D01*
G75*
G02*
X149717600Y-84638500I0J-172500D01*
G01*
X149717600Y-85033500D01*
G75*
G02*
X149545100Y-85206000I-172500J0D01*
G01*
X149200100Y-85206000D01*
G75*
G02*
X149027600Y-85033500I0J172500D01*
G01*
G37*
G36*
G01*
X146063000Y-78861300D02*
X146063000Y-78466300D01*
G75*
G02*
X146235500Y-78293800I172500J0D01*
G01*
X146580500Y-78293800D01*
G75*
G02*
X146753000Y-78466300I0J-172500D01*
G01*
X146753000Y-78861300D01*
G75*
G02*
X146580500Y-79033800I-172500J0D01*
G01*
X146235500Y-79033800D01*
G75*
G02*
X146063000Y-78861300I0J172500D01*
G01*
G37*
G36*
G01*
X145093000Y-78861300D02*
X145093000Y-78466300D01*
G75*
G02*
X145265500Y-78293800I172500J0D01*
G01*
X145610500Y-78293800D01*
G75*
G02*
X145783000Y-78466300I0J-172500D01*
G01*
X145783000Y-78861300D01*
G75*
G02*
X145610500Y-79033800I-172500J0D01*
G01*
X145265500Y-79033800D01*
G75*
G02*
X145093000Y-78861300I0J172500D01*
G01*
G37*
G36*
G01*
X151650400Y-83622500D02*
X151650400Y-84017500D01*
G75*
G02*
X151477900Y-84190000I-172500J0D01*
G01*
X151132900Y-84190000D01*
G75*
G02*
X150960400Y-84017500I0J172500D01*
G01*
X150960400Y-83622500D01*
G75*
G02*
X151132900Y-83450000I172500J0D01*
G01*
X151477900Y-83450000D01*
G75*
G02*
X151650400Y-83622500I0J-172500D01*
G01*
G37*
G36*
G01*
X152620400Y-83622500D02*
X152620400Y-84017500D01*
G75*
G02*
X152447900Y-84190000I-172500J0D01*
G01*
X152102900Y-84190000D01*
G75*
G02*
X151930400Y-84017500I0J172500D01*
G01*
X151930400Y-83622500D01*
G75*
G02*
X152102900Y-83450000I172500J0D01*
G01*
X152447900Y-83450000D01*
G75*
G02*
X152620400Y-83622500I0J-172500D01*
G01*
G37*
G36*
G01*
X151650400Y-84638500D02*
X151650400Y-85033500D01*
G75*
G02*
X151477900Y-85206000I-172500J0D01*
G01*
X151132900Y-85206000D01*
G75*
G02*
X150960400Y-85033500I0J172500D01*
G01*
X150960400Y-84638500D01*
G75*
G02*
X151132900Y-84466000I172500J0D01*
G01*
X151477900Y-84466000D01*
G75*
G02*
X151650400Y-84638500I0J-172500D01*
G01*
G37*
G36*
G01*
X152620400Y-84638500D02*
X152620400Y-85033500D01*
G75*
G02*
X152447900Y-85206000I-172500J0D01*
G01*
X152102900Y-85206000D01*
G75*
G02*
X151930400Y-85033500I0J172500D01*
G01*
X151930400Y-84638500D01*
G75*
G02*
X152102900Y-84466000I172500J0D01*
G01*
X152447900Y-84466000D01*
G75*
G02*
X152620400Y-84638500I0J-172500D01*
G01*
G37*
D32*
X149713000Y-82174400D03*
D33*
X150013000Y-81674400D03*
X150013000Y-81174400D03*
X150013000Y-80674400D03*
X150013000Y-80174400D03*
D32*
X149713000Y-79674400D03*
D34*
X149213000Y-79374400D03*
X148713000Y-79374400D03*
X148213000Y-79374400D03*
X147713000Y-79374400D03*
D32*
X147213000Y-79674400D03*
D33*
X146913000Y-80174400D03*
X146913000Y-80674400D03*
X146913000Y-81174400D03*
X146913000Y-81674400D03*
D32*
X147213000Y-82174400D03*
D34*
X147713000Y-82474400D03*
X148213000Y-82474400D03*
X148713000Y-82474400D03*
X149213000Y-82474400D03*
D35*
X148463000Y-80924400D03*
G36*
G01*
X145184550Y-76830200D02*
X145747050Y-76830200D01*
G75*
G02*
X145990800Y-77073950I0J-243750D01*
G01*
X145990800Y-77561450D01*
G75*
G02*
X145747050Y-77805200I-243750J0D01*
G01*
X145184550Y-77805200D01*
G75*
G02*
X144940800Y-77561450I0J243750D01*
G01*
X144940800Y-77073950D01*
G75*
G02*
X145184550Y-76830200I243750J0D01*
G01*
G37*
G36*
G01*
X145184550Y-75255200D02*
X145747050Y-75255200D01*
G75*
G02*
X145990800Y-75498950I0J-243750D01*
G01*
X145990800Y-75986450D01*
G75*
G02*
X145747050Y-76230200I-243750J0D01*
G01*
X145184550Y-76230200D01*
G75*
G02*
X144940800Y-75986450I0J243750D01*
G01*
X144940800Y-75498950D01*
G75*
G02*
X145184550Y-75255200I243750J0D01*
G01*
G37*
G36*
G01*
X137208950Y-86583700D02*
X137771450Y-86583700D01*
G75*
G02*
X138015200Y-86827450I0J-243750D01*
G01*
X138015200Y-87314950D01*
G75*
G02*
X137771450Y-87558700I-243750J0D01*
G01*
X137208950Y-87558700D01*
G75*
G02*
X136965200Y-87314950I0J243750D01*
G01*
X136965200Y-86827450D01*
G75*
G02*
X137208950Y-86583700I243750J0D01*
G01*
G37*
G36*
G01*
X137208950Y-85008700D02*
X137771450Y-85008700D01*
G75*
G02*
X138015200Y-85252450I0J-243750D01*
G01*
X138015200Y-85739950D01*
G75*
G02*
X137771450Y-85983700I-243750J0D01*
G01*
X137208950Y-85983700D01*
G75*
G02*
X136965200Y-85739950I0J243750D01*
G01*
X136965200Y-85252450D01*
G75*
G02*
X137208950Y-85008700I243750J0D01*
G01*
G37*
G36*
G01*
X150830000Y-77620550D02*
X150830000Y-78183050D01*
G75*
G02*
X150586250Y-78426800I-243750J0D01*
G01*
X150098750Y-78426800D01*
G75*
G02*
X149855000Y-78183050I0J243750D01*
G01*
X149855000Y-77620550D01*
G75*
G02*
X150098750Y-77376800I243750J0D01*
G01*
X150586250Y-77376800D01*
G75*
G02*
X150830000Y-77620550I0J-243750D01*
G01*
G37*
G36*
G01*
X152405000Y-77620550D02*
X152405000Y-78183050D01*
G75*
G02*
X152161250Y-78426800I-243750J0D01*
G01*
X151673750Y-78426800D01*
G75*
G02*
X151430000Y-78183050I0J243750D01*
G01*
X151430000Y-77620550D01*
G75*
G02*
X151673750Y-77376800I243750J0D01*
G01*
X152161250Y-77376800D01*
G75*
G02*
X152405000Y-77620550I0J-243750D01*
G01*
G37*
G36*
G01*
X125630250Y-87050600D02*
X125067750Y-87050600D01*
G75*
G02*
X124824000Y-86806850I0J243750D01*
G01*
X124824000Y-86319350D01*
G75*
G02*
X125067750Y-86075600I243750J0D01*
G01*
X125630250Y-86075600D01*
G75*
G02*
X125874000Y-86319350I0J-243750D01*
G01*
X125874000Y-86806850D01*
G75*
G02*
X125630250Y-87050600I-243750J0D01*
G01*
G37*
G36*
G01*
X125630250Y-88625600D02*
X125067750Y-88625600D01*
G75*
G02*
X124824000Y-88381850I0J243750D01*
G01*
X124824000Y-87894350D01*
G75*
G02*
X125067750Y-87650600I243750J0D01*
G01*
X125630250Y-87650600D01*
G75*
G02*
X125874000Y-87894350I0J-243750D01*
G01*
X125874000Y-88381850D01*
G75*
G02*
X125630250Y-88625600I-243750J0D01*
G01*
G37*
D36*
X138720600Y-77811600D03*
X138720600Y-76061600D03*
X140120600Y-76061600D03*
X140120600Y-77811600D03*
D20*
X169799000Y-85928200D03*
X169799000Y-88468200D03*
D37*
X98298000Y-63728600D03*
X93319600Y-63728600D03*
X93319600Y-58750200D03*
X98298000Y-58750200D03*
D38*
X95808800Y-61239400D03*
D37*
X98298000Y-79908400D03*
X93319600Y-79908400D03*
X93319600Y-74930000D03*
X98298000Y-74930000D03*
D38*
X95808800Y-77419200D03*
D37*
X98298000Y-96088200D03*
X93319600Y-96088200D03*
X93319600Y-91109800D03*
X98298000Y-91109800D03*
D38*
X95808800Y-93599000D03*
G36*
G01*
X146105600Y-99286750D02*
X146105600Y-99849250D01*
G75*
G02*
X145861850Y-100093000I-243750J0D01*
G01*
X145374350Y-100093000D01*
G75*
G02*
X145130600Y-99849250I0J243750D01*
G01*
X145130600Y-99286750D01*
G75*
G02*
X145374350Y-99043000I243750J0D01*
G01*
X145861850Y-99043000D01*
G75*
G02*
X146105600Y-99286750I0J-243750D01*
G01*
G37*
G36*
G01*
X147680600Y-99286750D02*
X147680600Y-99849250D01*
G75*
G02*
X147436850Y-100093000I-243750J0D01*
G01*
X146949350Y-100093000D01*
G75*
G02*
X146705600Y-99849250I0J243750D01*
G01*
X146705600Y-99286750D01*
G75*
G02*
X146949350Y-99043000I243750J0D01*
G01*
X147436850Y-99043000D01*
G75*
G02*
X147680600Y-99286750I0J-243750D01*
G01*
G37*
D39*
X136543600Y-75114600D03*
X135743600Y-75114600D03*
X134943600Y-75114600D03*
X134143600Y-75114600D03*
X133343600Y-75114600D03*
X132543600Y-75114600D03*
X131743600Y-75114600D03*
X130943600Y-75114600D03*
X130143600Y-75114600D03*
X129343600Y-75114600D03*
X136543600Y-75914600D03*
X135743600Y-75914600D03*
X134943600Y-75914600D03*
X134143600Y-75914600D03*
X133343600Y-75914600D03*
X132543600Y-75914600D03*
X131743600Y-75914600D03*
X130943600Y-75914600D03*
X130143600Y-75914600D03*
X129343600Y-75914600D03*
X136543600Y-76714600D03*
X135743600Y-76714600D03*
X134943600Y-76714600D03*
X134143600Y-76714600D03*
X133343600Y-76714600D03*
X132543600Y-76714600D03*
X131743600Y-76714600D03*
X130943600Y-76714600D03*
X130143600Y-76714600D03*
X129343600Y-76714600D03*
X136543600Y-77514600D03*
X135743600Y-77514600D03*
X134943600Y-77514600D03*
X134143600Y-77514600D03*
X133343600Y-77514600D03*
X132543600Y-77514600D03*
X131743600Y-77514600D03*
X130943600Y-77514600D03*
X130143600Y-77514600D03*
X129343600Y-77514600D03*
X136543600Y-78314600D03*
X135743600Y-78314600D03*
X134943600Y-78314600D03*
X134143600Y-78314600D03*
X133343600Y-78314600D03*
X132543600Y-78314600D03*
X131743600Y-78314600D03*
X130943600Y-78314600D03*
X130143600Y-78314600D03*
X129343600Y-78314600D03*
X136543600Y-79114600D03*
X135743600Y-79114600D03*
X134943600Y-79114600D03*
X134143600Y-79114600D03*
X133343600Y-79114600D03*
X132543600Y-79114600D03*
X131743600Y-79114600D03*
X130943600Y-79114600D03*
X130143600Y-79114600D03*
X129343600Y-79114600D03*
X136543600Y-79914600D03*
X135743600Y-79914600D03*
X134943600Y-79914600D03*
X134143600Y-79914600D03*
X133343600Y-79914600D03*
X132543600Y-79914600D03*
X131743600Y-79914600D03*
X130943600Y-79914600D03*
X130143600Y-79914600D03*
X129343600Y-79914600D03*
X136543600Y-80714600D03*
X135743600Y-80714600D03*
X134943600Y-80714600D03*
X134143600Y-80714600D03*
X133343600Y-80714600D03*
X132543600Y-80714600D03*
X131743600Y-80714600D03*
X130943600Y-80714600D03*
X130143600Y-80714600D03*
X129343600Y-80714600D03*
X136543600Y-81514600D03*
X135743600Y-81514600D03*
X134943600Y-81514600D03*
X134143600Y-81514600D03*
X133343600Y-81514600D03*
X132543600Y-81514600D03*
X131743600Y-81514600D03*
X130943600Y-81514600D03*
X130143600Y-81514600D03*
X129343600Y-81514600D03*
X136543600Y-82314600D03*
X135743600Y-82314600D03*
X134943600Y-82314600D03*
X134143600Y-82314600D03*
X133343600Y-82314600D03*
X132543600Y-82314600D03*
X131743600Y-82314600D03*
X130943600Y-82314600D03*
X130143600Y-82314600D03*
X129343600Y-82314600D03*
D40*
X155117800Y-66344800D03*
D41*
X145364200Y-66090800D03*
X139801600Y-62509400D03*
D30*
X133731000Y-70104000D03*
X110223300Y-62839600D03*
X128041400Y-72237600D03*
X126238000Y-72237600D03*
X153568400Y-55930800D03*
X138430000Y-55778400D03*
G36*
G01*
X147147600Y-70095400D02*
X148457600Y-70095400D01*
G75*
G02*
X148727600Y-70365400I0J-270000D01*
G01*
X148727600Y-71175400D01*
G75*
G02*
X148457600Y-71445400I-270000J0D01*
G01*
X147147600Y-71445400D01*
G75*
G02*
X146877600Y-71175400I0J270000D01*
G01*
X146877600Y-70365400D01*
G75*
G02*
X147147600Y-70095400I270000J0D01*
G01*
G37*
G36*
G01*
X147147600Y-67295400D02*
X148457600Y-67295400D01*
G75*
G02*
X148727600Y-67565400I0J-270000D01*
G01*
X148727600Y-68375400D01*
G75*
G02*
X148457600Y-68645400I-270000J0D01*
G01*
X147147600Y-68645400D01*
G75*
G02*
X146877600Y-68375400I0J270000D01*
G01*
X146877600Y-67565400D01*
G75*
G02*
X147147600Y-67295400I270000J0D01*
G01*
G37*
D42*
X155879800Y-70434200D03*
G36*
G01*
X155129800Y-70859200D02*
X155129800Y-71009200D01*
G75*
G02*
X155054800Y-71084200I-75000J0D01*
G01*
X154554800Y-71084200D01*
G75*
G02*
X154479800Y-71009200I0J75000D01*
G01*
X154479800Y-70859200D01*
G75*
G02*
X154554800Y-70784200I75000J0D01*
G01*
X155054800Y-70784200D01*
G75*
G02*
X155129800Y-70859200I0J-75000D01*
G01*
G37*
G36*
G01*
X155129800Y-70359200D02*
X155129800Y-70509200D01*
G75*
G02*
X155054800Y-70584200I-75000J0D01*
G01*
X154554800Y-70584200D01*
G75*
G02*
X154479800Y-70509200I0J75000D01*
G01*
X154479800Y-70359200D01*
G75*
G02*
X154554800Y-70284200I75000J0D01*
G01*
X155054800Y-70284200D01*
G75*
G02*
X155129800Y-70359200I0J-75000D01*
G01*
G37*
G36*
G01*
X155129800Y-69859200D02*
X155129800Y-70009200D01*
G75*
G02*
X155054800Y-70084200I-75000J0D01*
G01*
X154554800Y-70084200D01*
G75*
G02*
X154479800Y-70009200I0J75000D01*
G01*
X154479800Y-69859200D01*
G75*
G02*
X154554800Y-69784200I75000J0D01*
G01*
X155054800Y-69784200D01*
G75*
G02*
X155129800Y-69859200I0J-75000D01*
G01*
G37*
G36*
G01*
X157279800Y-69859200D02*
X157279800Y-70009200D01*
G75*
G02*
X157204800Y-70084200I-75000J0D01*
G01*
X156704800Y-70084200D01*
G75*
G02*
X156629800Y-70009200I0J75000D01*
G01*
X156629800Y-69859200D01*
G75*
G02*
X156704800Y-69784200I75000J0D01*
G01*
X157204800Y-69784200D01*
G75*
G02*
X157279800Y-69859200I0J-75000D01*
G01*
G37*
G36*
G01*
X157279800Y-70359200D02*
X157279800Y-70509200D01*
G75*
G02*
X157204800Y-70584200I-75000J0D01*
G01*
X156704800Y-70584200D01*
G75*
G02*
X156629800Y-70509200I0J75000D01*
G01*
X156629800Y-70359200D01*
G75*
G02*
X156704800Y-70284200I75000J0D01*
G01*
X157204800Y-70284200D01*
G75*
G02*
X157279800Y-70359200I0J-75000D01*
G01*
G37*
G36*
G01*
X157279800Y-70859200D02*
X157279800Y-71009200D01*
G75*
G02*
X157204800Y-71084200I-75000J0D01*
G01*
X156704800Y-71084200D01*
G75*
G02*
X156629800Y-71009200I0J75000D01*
G01*
X156629800Y-70859200D01*
G75*
G02*
X156704800Y-70784200I75000J0D01*
G01*
X157204800Y-70784200D01*
G75*
G02*
X157279800Y-70859200I0J-75000D01*
G01*
G37*
G36*
G01*
X136018850Y-85069400D02*
X135456350Y-85069400D01*
G75*
G02*
X135212600Y-84825650I0J243750D01*
G01*
X135212600Y-84338150D01*
G75*
G02*
X135456350Y-84094400I243750J0D01*
G01*
X136018850Y-84094400D01*
G75*
G02*
X136262600Y-84338150I0J-243750D01*
G01*
X136262600Y-84825650D01*
G75*
G02*
X136018850Y-85069400I-243750J0D01*
G01*
G37*
G36*
G01*
X136018850Y-86644400D02*
X135456350Y-86644400D01*
G75*
G02*
X135212600Y-86400650I0J243750D01*
G01*
X135212600Y-85913150D01*
G75*
G02*
X135456350Y-85669400I243750J0D01*
G01*
X136018850Y-85669400D01*
G75*
G02*
X136262600Y-85913150I0J-243750D01*
G01*
X136262600Y-86400650D01*
G75*
G02*
X136018850Y-86644400I-243750J0D01*
G01*
G37*
D43*
X116643700Y-93980000D03*
X112743700Y-93980000D03*
X116643700Y-92710000D03*
X112743700Y-92710000D03*
X116643700Y-91440000D03*
X112743700Y-91440000D03*
X116643700Y-90170000D03*
X112743700Y-90170000D03*
X116643700Y-88900000D03*
X112743700Y-88900000D03*
D44*
X157111700Y-97476200D03*
X157111700Y-93176200D03*
G36*
G01*
X156840100Y-91187850D02*
X156840100Y-90625350D01*
G75*
G02*
X157083850Y-90381600I243750J0D01*
G01*
X157571350Y-90381600D01*
G75*
G02*
X157815100Y-90625350I0J-243750D01*
G01*
X157815100Y-91187850D01*
G75*
G02*
X157571350Y-91431600I-243750J0D01*
G01*
X157083850Y-91431600D01*
G75*
G02*
X156840100Y-91187850I0J243750D01*
G01*
G37*
G36*
G01*
X155265100Y-91187850D02*
X155265100Y-90625350D01*
G75*
G02*
X155508850Y-90381600I243750J0D01*
G01*
X155996350Y-90381600D01*
G75*
G02*
X156240100Y-90625350I0J-243750D01*
G01*
X156240100Y-91187850D01*
G75*
G02*
X155996350Y-91431600I-243750J0D01*
G01*
X155508850Y-91431600D01*
G75*
G02*
X155265100Y-91187850I0J243750D01*
G01*
G37*
G36*
G01*
X109675350Y-81249800D02*
X110237850Y-81249800D01*
G75*
G02*
X110481600Y-81493550I0J-243750D01*
G01*
X110481600Y-81981050D01*
G75*
G02*
X110237850Y-82224800I-243750J0D01*
G01*
X109675350Y-82224800D01*
G75*
G02*
X109431600Y-81981050I0J243750D01*
G01*
X109431600Y-81493550D01*
G75*
G02*
X109675350Y-81249800I243750J0D01*
G01*
G37*
G36*
G01*
X109675350Y-79674800D02*
X110237850Y-79674800D01*
G75*
G02*
X110481600Y-79918550I0J-243750D01*
G01*
X110481600Y-80406050D01*
G75*
G02*
X110237850Y-80649800I-243750J0D01*
G01*
X109675350Y-80649800D01*
G75*
G02*
X109431600Y-80406050I0J243750D01*
G01*
X109431600Y-79918550D01*
G75*
G02*
X109675350Y-79674800I243750J0D01*
G01*
G37*
D45*
X141986000Y-57142500D03*
X141986000Y-60642500D03*
D46*
X147739100Y-58140600D03*
D47*
X148489100Y-59140600D03*
X147989100Y-59140600D03*
X147489100Y-59140600D03*
X146989100Y-59140600D03*
X146989100Y-57140600D03*
X147489100Y-57140600D03*
X147989100Y-57140600D03*
X148489100Y-57140600D03*
D42*
X152704800Y-66573400D03*
G36*
G01*
X153454800Y-66148400D02*
X153454800Y-65998400D01*
G75*
G02*
X153529800Y-65923400I75000J0D01*
G01*
X154029800Y-65923400D01*
G75*
G02*
X154104800Y-65998400I0J-75000D01*
G01*
X154104800Y-66148400D01*
G75*
G02*
X154029800Y-66223400I-75000J0D01*
G01*
X153529800Y-66223400D01*
G75*
G02*
X153454800Y-66148400I0J75000D01*
G01*
G37*
G36*
G01*
X153454800Y-66648400D02*
X153454800Y-66498400D01*
G75*
G02*
X153529800Y-66423400I75000J0D01*
G01*
X154029800Y-66423400D01*
G75*
G02*
X154104800Y-66498400I0J-75000D01*
G01*
X154104800Y-66648400D01*
G75*
G02*
X154029800Y-66723400I-75000J0D01*
G01*
X153529800Y-66723400D01*
G75*
G02*
X153454800Y-66648400I0J75000D01*
G01*
G37*
G36*
G01*
X153454800Y-67148400D02*
X153454800Y-66998400D01*
G75*
G02*
X153529800Y-66923400I75000J0D01*
G01*
X154029800Y-66923400D01*
G75*
G02*
X154104800Y-66998400I0J-75000D01*
G01*
X154104800Y-67148400D01*
G75*
G02*
X154029800Y-67223400I-75000J0D01*
G01*
X153529800Y-67223400D01*
G75*
G02*
X153454800Y-67148400I0J75000D01*
G01*
G37*
G36*
G01*
X151304800Y-67148400D02*
X151304800Y-66998400D01*
G75*
G02*
X151379800Y-66923400I75000J0D01*
G01*
X151879800Y-66923400D01*
G75*
G02*
X151954800Y-66998400I0J-75000D01*
G01*
X151954800Y-67148400D01*
G75*
G02*
X151879800Y-67223400I-75000J0D01*
G01*
X151379800Y-67223400D01*
G75*
G02*
X151304800Y-67148400I0J75000D01*
G01*
G37*
G36*
G01*
X151304800Y-66648400D02*
X151304800Y-66498400D01*
G75*
G02*
X151379800Y-66423400I75000J0D01*
G01*
X151879800Y-66423400D01*
G75*
G02*
X151954800Y-66498400I0J-75000D01*
G01*
X151954800Y-66648400D01*
G75*
G02*
X151879800Y-66723400I-75000J0D01*
G01*
X151379800Y-66723400D01*
G75*
G02*
X151304800Y-66648400I0J75000D01*
G01*
G37*
G36*
G01*
X151304800Y-66148400D02*
X151304800Y-65998400D01*
G75*
G02*
X151379800Y-65923400I75000J0D01*
G01*
X151879800Y-65923400D01*
G75*
G02*
X151954800Y-65998400I0J-75000D01*
G01*
X151954800Y-66148400D01*
G75*
G02*
X151879800Y-66223400I-75000J0D01*
G01*
X151379800Y-66223400D01*
G75*
G02*
X151304800Y-66148400I0J75000D01*
G01*
G37*
G36*
G01*
X151223000Y-56948150D02*
X151223000Y-57910650D01*
G75*
G02*
X150954250Y-58179400I-268750J0D01*
G01*
X150416750Y-58179400D01*
G75*
G02*
X150148000Y-57910650I0J268750D01*
G01*
X150148000Y-56948150D01*
G75*
G02*
X150416750Y-56679400I268750J0D01*
G01*
X150954250Y-56679400D01*
G75*
G02*
X151223000Y-56948150I0J-268750D01*
G01*
G37*
G36*
G01*
X153098000Y-56948150D02*
X153098000Y-57910650D01*
G75*
G02*
X152829250Y-58179400I-268750J0D01*
G01*
X152291750Y-58179400D01*
G75*
G02*
X152023000Y-57910650I0J268750D01*
G01*
X152023000Y-56948150D01*
G75*
G02*
X152291750Y-56679400I268750J0D01*
G01*
X152829250Y-56679400D01*
G75*
G02*
X153098000Y-56948150I0J-268750D01*
G01*
G37*
G36*
G01*
X149080600Y-60860250D02*
X149080600Y-60297750D01*
G75*
G02*
X149324350Y-60054000I243750J0D01*
G01*
X149811850Y-60054000D01*
G75*
G02*
X150055600Y-60297750I0J-243750D01*
G01*
X150055600Y-60860250D01*
G75*
G02*
X149811850Y-61104000I-243750J0D01*
G01*
X149324350Y-61104000D01*
G75*
G02*
X149080600Y-60860250I0J243750D01*
G01*
G37*
G36*
G01*
X147505600Y-60860250D02*
X147505600Y-60297750D01*
G75*
G02*
X147749350Y-60054000I243750J0D01*
G01*
X148236850Y-60054000D01*
G75*
G02*
X148480600Y-60297750I0J-243750D01*
G01*
X148480600Y-60860250D01*
G75*
G02*
X148236850Y-61104000I-243750J0D01*
G01*
X147749350Y-61104000D01*
G75*
G02*
X147505600Y-60860250I0J243750D01*
G01*
G37*
G36*
G01*
X150830000Y-76121950D02*
X150830000Y-76684450D01*
G75*
G02*
X150586250Y-76928200I-243750J0D01*
G01*
X150098750Y-76928200D01*
G75*
G02*
X149855000Y-76684450I0J243750D01*
G01*
X149855000Y-76121950D01*
G75*
G02*
X150098750Y-75878200I243750J0D01*
G01*
X150586250Y-75878200D01*
G75*
G02*
X150830000Y-76121950I0J-243750D01*
G01*
G37*
G36*
G01*
X152405000Y-76121950D02*
X152405000Y-76684450D01*
G75*
G02*
X152161250Y-76928200I-243750J0D01*
G01*
X151673750Y-76928200D01*
G75*
G02*
X151430000Y-76684450I0J243750D01*
G01*
X151430000Y-76121950D01*
G75*
G02*
X151673750Y-75878200I243750J0D01*
G01*
X152161250Y-75878200D01*
G75*
G02*
X152405000Y-76121950I0J-243750D01*
G01*
G37*
G36*
G01*
X142595375Y-63788600D02*
X141376625Y-63788600D01*
G75*
G02*
X141111000Y-63522975I0J265625D01*
G01*
X141111000Y-62354225D01*
G75*
G02*
X141376625Y-62088600I265625J0D01*
G01*
X142595375Y-62088600D01*
G75*
G02*
X142861000Y-62354225I0J-265625D01*
G01*
X142861000Y-63522975D01*
G75*
G02*
X142595375Y-63788600I-265625J0D01*
G01*
G37*
G36*
G01*
X142595375Y-66638600D02*
X141376625Y-66638600D01*
G75*
G02*
X141111000Y-66372975I0J265625D01*
G01*
X141111000Y-65204225D01*
G75*
G02*
X141376625Y-64938600I265625J0D01*
G01*
X142595375Y-64938600D01*
G75*
G02*
X142861000Y-65204225I0J-265625D01*
G01*
X142861000Y-66372975D01*
G75*
G02*
X142595375Y-66638600I-265625J0D01*
G01*
G37*
D48*
X110180700Y-68364400D03*
X108030700Y-68364400D03*
X108030700Y-66814400D03*
X110180700Y-66814400D03*
D49*
X119213100Y-63673200D03*
X117513100Y-63673200D03*
X117513100Y-64973200D03*
X119213100Y-64973200D03*
G36*
G01*
X146843100Y-77178200D02*
X147238100Y-77178200D01*
G75*
G02*
X147410600Y-77350700I0J-172500D01*
G01*
X147410600Y-77695700D01*
G75*
G02*
X147238100Y-77868200I-172500J0D01*
G01*
X146843100Y-77868200D01*
G75*
G02*
X146670600Y-77695700I0J172500D01*
G01*
X146670600Y-77350700D01*
G75*
G02*
X146843100Y-77178200I172500J0D01*
G01*
G37*
G36*
G01*
X146843100Y-76208200D02*
X147238100Y-76208200D01*
G75*
G02*
X147410600Y-76380700I0J-172500D01*
G01*
X147410600Y-76725700D01*
G75*
G02*
X147238100Y-76898200I-172500J0D01*
G01*
X146843100Y-76898200D01*
G75*
G02*
X146670600Y-76725700I0J172500D01*
G01*
X146670600Y-76380700D01*
G75*
G02*
X146843100Y-76208200I172500J0D01*
G01*
G37*
G36*
G01*
X148254100Y-76898200D02*
X147859100Y-76898200D01*
G75*
G02*
X147686600Y-76725700I0J172500D01*
G01*
X147686600Y-76380700D01*
G75*
G02*
X147859100Y-76208200I172500J0D01*
G01*
X148254100Y-76208200D01*
G75*
G02*
X148426600Y-76380700I0J-172500D01*
G01*
X148426600Y-76725700D01*
G75*
G02*
X148254100Y-76898200I-172500J0D01*
G01*
G37*
G36*
G01*
X148254100Y-77868200D02*
X147859100Y-77868200D01*
G75*
G02*
X147686600Y-77695700I0J172500D01*
G01*
X147686600Y-77350700D01*
G75*
G02*
X147859100Y-77178200I172500J0D01*
G01*
X148254100Y-77178200D01*
G75*
G02*
X148426600Y-77350700I0J-172500D01*
G01*
X148426600Y-77695700D01*
G75*
G02*
X148254100Y-77868200I-172500J0D01*
G01*
G37*
G36*
G01*
X148875100Y-77178200D02*
X149270100Y-77178200D01*
G75*
G02*
X149442600Y-77350700I0J-172500D01*
G01*
X149442600Y-77695700D01*
G75*
G02*
X149270100Y-77868200I-172500J0D01*
G01*
X148875100Y-77868200D01*
G75*
G02*
X148702600Y-77695700I0J172500D01*
G01*
X148702600Y-77350700D01*
G75*
G02*
X148875100Y-77178200I172500J0D01*
G01*
G37*
G36*
G01*
X148875100Y-76208200D02*
X149270100Y-76208200D01*
G75*
G02*
X149442600Y-76380700I0J-172500D01*
G01*
X149442600Y-76725700D01*
G75*
G02*
X149270100Y-76898200I-172500J0D01*
G01*
X148875100Y-76898200D01*
G75*
G02*
X148702600Y-76725700I0J172500D01*
G01*
X148702600Y-76380700D01*
G75*
G02*
X148875100Y-76208200I172500J0D01*
G01*
G37*
G36*
G01*
X126758400Y-84257500D02*
X126758400Y-84652500D01*
G75*
G02*
X126585900Y-84825000I-172500J0D01*
G01*
X126240900Y-84825000D01*
G75*
G02*
X126068400Y-84652500I0J172500D01*
G01*
X126068400Y-84257500D01*
G75*
G02*
X126240900Y-84085000I172500J0D01*
G01*
X126585900Y-84085000D01*
G75*
G02*
X126758400Y-84257500I0J-172500D01*
G01*
G37*
G36*
G01*
X127728400Y-84257500D02*
X127728400Y-84652500D01*
G75*
G02*
X127555900Y-84825000I-172500J0D01*
G01*
X127210900Y-84825000D01*
G75*
G02*
X127038400Y-84652500I0J172500D01*
G01*
X127038400Y-84257500D01*
G75*
G02*
X127210900Y-84085000I172500J0D01*
G01*
X127555900Y-84085000D01*
G75*
G02*
X127728400Y-84257500I0J-172500D01*
G01*
G37*
G36*
G01*
X126421500Y-78956200D02*
X126816500Y-78956200D01*
G75*
G02*
X126989000Y-79128700I0J-172500D01*
G01*
X126989000Y-79473700D01*
G75*
G02*
X126816500Y-79646200I-172500J0D01*
G01*
X126421500Y-79646200D01*
G75*
G02*
X126249000Y-79473700I0J172500D01*
G01*
X126249000Y-79128700D01*
G75*
G02*
X126421500Y-78956200I172500J0D01*
G01*
G37*
G36*
G01*
X126421500Y-77986200D02*
X126816500Y-77986200D01*
G75*
G02*
X126989000Y-78158700I0J-172500D01*
G01*
X126989000Y-78503700D01*
G75*
G02*
X126816500Y-78676200I-172500J0D01*
G01*
X126421500Y-78676200D01*
G75*
G02*
X126249000Y-78503700I0J172500D01*
G01*
X126249000Y-78158700D01*
G75*
G02*
X126421500Y-77986200I172500J0D01*
G01*
G37*
G36*
G01*
X145248050Y-58389800D02*
X145810550Y-58389800D01*
G75*
G02*
X146054300Y-58633550I0J-243750D01*
G01*
X146054300Y-59121050D01*
G75*
G02*
X145810550Y-59364800I-243750J0D01*
G01*
X145248050Y-59364800D01*
G75*
G02*
X145004300Y-59121050I0J243750D01*
G01*
X145004300Y-58633550D01*
G75*
G02*
X145248050Y-58389800I243750J0D01*
G01*
G37*
G36*
G01*
X145248050Y-56814800D02*
X145810550Y-56814800D01*
G75*
G02*
X146054300Y-57058550I0J-243750D01*
G01*
X146054300Y-57546050D01*
G75*
G02*
X145810550Y-57789800I-243750J0D01*
G01*
X145248050Y-57789800D01*
G75*
G02*
X145004300Y-57546050I0J243750D01*
G01*
X145004300Y-57058550D01*
G75*
G02*
X145248050Y-56814800I243750J0D01*
G01*
G37*
G36*
G01*
X139090100Y-74427700D02*
X139090100Y-74822700D01*
G75*
G02*
X138917600Y-74995200I-172500J0D01*
G01*
X138572600Y-74995200D01*
G75*
G02*
X138400100Y-74822700I0J172500D01*
G01*
X138400100Y-74427700D01*
G75*
G02*
X138572600Y-74255200I172500J0D01*
G01*
X138917600Y-74255200D01*
G75*
G02*
X139090100Y-74427700I0J-172500D01*
G01*
G37*
G36*
G01*
X140060100Y-74427700D02*
X140060100Y-74822700D01*
G75*
G02*
X139887600Y-74995200I-172500J0D01*
G01*
X139542600Y-74995200D01*
G75*
G02*
X139370100Y-74822700I0J172500D01*
G01*
X139370100Y-74427700D01*
G75*
G02*
X139542600Y-74255200I172500J0D01*
G01*
X139887600Y-74255200D01*
G75*
G02*
X140060100Y-74427700I0J-172500D01*
G01*
G37*
G36*
G01*
X141305900Y-77330600D02*
X141700900Y-77330600D01*
G75*
G02*
X141873400Y-77503100I0J-172500D01*
G01*
X141873400Y-77848100D01*
G75*
G02*
X141700900Y-78020600I-172500J0D01*
G01*
X141305900Y-78020600D01*
G75*
G02*
X141133400Y-77848100I0J172500D01*
G01*
X141133400Y-77503100D01*
G75*
G02*
X141305900Y-77330600I172500J0D01*
G01*
G37*
G36*
G01*
X141305900Y-76360600D02*
X141700900Y-76360600D01*
G75*
G02*
X141873400Y-76533100I0J-172500D01*
G01*
X141873400Y-76878100D01*
G75*
G02*
X141700900Y-77050600I-172500J0D01*
G01*
X141305900Y-77050600D01*
G75*
G02*
X141133400Y-76878100I0J172500D01*
G01*
X141133400Y-76533100D01*
G75*
G02*
X141305900Y-76360600I172500J0D01*
G01*
G37*
D50*
X138531600Y-92883800D03*
X133451600Y-92883800D03*
X135991600Y-96193800D03*
X130911600Y-96193800D03*
G36*
G01*
X155681400Y-64463350D02*
X155681400Y-65025850D01*
G75*
G02*
X155437650Y-65269600I-243750J0D01*
G01*
X154950150Y-65269600D01*
G75*
G02*
X154706400Y-65025850I0J243750D01*
G01*
X154706400Y-64463350D01*
G75*
G02*
X154950150Y-64219600I243750J0D01*
G01*
X155437650Y-64219600D01*
G75*
G02*
X155681400Y-64463350I0J-243750D01*
G01*
G37*
G36*
G01*
X157256400Y-64463350D02*
X157256400Y-65025850D01*
G75*
G02*
X157012650Y-65269600I-243750J0D01*
G01*
X156525150Y-65269600D01*
G75*
G02*
X156281400Y-65025850I0J243750D01*
G01*
X156281400Y-64463350D01*
G75*
G02*
X156525150Y-64219600I243750J0D01*
G01*
X157012650Y-64219600D01*
G75*
G02*
X157256400Y-64463350I0J-243750D01*
G01*
G37*
G36*
G01*
X155725550Y-59304200D02*
X156288050Y-59304200D01*
G75*
G02*
X156531800Y-59547950I0J-243750D01*
G01*
X156531800Y-60035450D01*
G75*
G02*
X156288050Y-60279200I-243750J0D01*
G01*
X155725550Y-60279200D01*
G75*
G02*
X155481800Y-60035450I0J243750D01*
G01*
X155481800Y-59547950D01*
G75*
G02*
X155725550Y-59304200I243750J0D01*
G01*
G37*
G36*
G01*
X155725550Y-57729200D02*
X156288050Y-57729200D01*
G75*
G02*
X156531800Y-57972950I0J-243750D01*
G01*
X156531800Y-58460450D01*
G75*
G02*
X156288050Y-58704200I-243750J0D01*
G01*
X155725550Y-58704200D01*
G75*
G02*
X155481800Y-58460450I0J243750D01*
G01*
X155481800Y-57972950D01*
G75*
G02*
X155725550Y-57729200I243750J0D01*
G01*
G37*
G36*
G01*
X159237300Y-70152950D02*
X159237300Y-70715450D01*
G75*
G02*
X158993550Y-70959200I-243750J0D01*
G01*
X158506050Y-70959200D01*
G75*
G02*
X158262300Y-70715450I0J243750D01*
G01*
X158262300Y-70152950D01*
G75*
G02*
X158506050Y-69909200I243750J0D01*
G01*
X158993550Y-69909200D01*
G75*
G02*
X159237300Y-70152950I0J-243750D01*
G01*
G37*
G36*
G01*
X160812300Y-70152950D02*
X160812300Y-70715450D01*
G75*
G02*
X160568550Y-70959200I-243750J0D01*
G01*
X160081050Y-70959200D01*
G75*
G02*
X159837300Y-70715450I0J243750D01*
G01*
X159837300Y-70152950D01*
G75*
G02*
X160081050Y-69909200I243750J0D01*
G01*
X160568550Y-69909200D01*
G75*
G02*
X160812300Y-70152950I0J-243750D01*
G01*
G37*
G36*
G01*
X159897700Y-84884950D02*
X159897700Y-85447450D01*
G75*
G02*
X159653950Y-85691200I-243750J0D01*
G01*
X159166450Y-85691200D01*
G75*
G02*
X158922700Y-85447450I0J243750D01*
G01*
X158922700Y-84884950D01*
G75*
G02*
X159166450Y-84641200I243750J0D01*
G01*
X159653950Y-84641200D01*
G75*
G02*
X159897700Y-84884950I0J-243750D01*
G01*
G37*
G36*
G01*
X161472700Y-84884950D02*
X161472700Y-85447450D01*
G75*
G02*
X161228950Y-85691200I-243750J0D01*
G01*
X160741450Y-85691200D01*
G75*
G02*
X160497700Y-85447450I0J243750D01*
G01*
X160497700Y-84884950D01*
G75*
G02*
X160741450Y-84641200I243750J0D01*
G01*
X161228950Y-84641200D01*
G75*
G02*
X161472700Y-84884950I0J-243750D01*
G01*
G37*
D51*
X119034500Y-68568400D03*
X118534500Y-68568400D03*
X118034500Y-68568400D03*
X117534500Y-68568400D03*
X117034500Y-68568400D03*
X116534500Y-68568400D03*
X116034500Y-68568400D03*
X115534500Y-68568400D03*
D52*
X114834500Y-69268400D03*
X114834500Y-69768400D03*
X114834500Y-70268400D03*
X114834500Y-70768400D03*
X114834500Y-71268400D03*
X114834500Y-71768400D03*
X114834500Y-72268400D03*
X114834500Y-72768400D03*
D51*
X115534500Y-73468400D03*
X116034500Y-73468400D03*
X116534500Y-73468400D03*
X117034500Y-73468400D03*
X117534500Y-73468400D03*
X118034500Y-73468400D03*
X118534500Y-73468400D03*
X119034500Y-73468400D03*
D52*
X119734500Y-72768400D03*
X119734500Y-72268400D03*
X119734500Y-71768400D03*
X119734500Y-71268400D03*
X119734500Y-70768400D03*
X119734500Y-70268400D03*
X119734500Y-69768400D03*
X119734500Y-69268400D03*
D53*
X117284500Y-71018400D03*
D54*
X110598500Y-72144400D03*
X109948500Y-72144400D03*
X109298500Y-72144400D03*
X108648500Y-72144400D03*
X107998500Y-72144400D03*
X107348500Y-72144400D03*
X106698500Y-72144400D03*
X106698500Y-78020400D03*
X107348500Y-78020400D03*
X107998500Y-78020400D03*
X108648500Y-78020400D03*
X109298500Y-78020400D03*
X109948500Y-78020400D03*
X110598500Y-78020400D03*
G36*
G01*
X137049800Y-56948150D02*
X137049800Y-57910650D01*
G75*
G02*
X136781050Y-58179400I-268750J0D01*
G01*
X136243550Y-58179400D01*
G75*
G02*
X135974800Y-57910650I0J268750D01*
G01*
X135974800Y-56948150D01*
G75*
G02*
X136243550Y-56679400I268750J0D01*
G01*
X136781050Y-56679400D01*
G75*
G02*
X137049800Y-56948150I0J-268750D01*
G01*
G37*
G36*
G01*
X138924800Y-56948150D02*
X138924800Y-57910650D01*
G75*
G02*
X138656050Y-58179400I-268750J0D01*
G01*
X138118550Y-58179400D01*
G75*
G02*
X137849800Y-57910650I0J268750D01*
G01*
X137849800Y-56948150D01*
G75*
G02*
X138118550Y-56679400I268750J0D01*
G01*
X138656050Y-56679400D01*
G75*
G02*
X138924800Y-56948150I0J-268750D01*
G01*
G37*
D46*
X133565900Y-58115200D03*
D47*
X134315900Y-59115200D03*
X133815900Y-59115200D03*
X133315900Y-59115200D03*
X132815900Y-59115200D03*
X132815900Y-57115200D03*
X133315900Y-57115200D03*
X133815900Y-57115200D03*
X134315900Y-57115200D03*
G36*
G01*
X134907400Y-60860250D02*
X134907400Y-60297750D01*
G75*
G02*
X135151150Y-60054000I243750J0D01*
G01*
X135638650Y-60054000D01*
G75*
G02*
X135882400Y-60297750I0J-243750D01*
G01*
X135882400Y-60860250D01*
G75*
G02*
X135638650Y-61104000I-243750J0D01*
G01*
X135151150Y-61104000D01*
G75*
G02*
X134907400Y-60860250I0J243750D01*
G01*
G37*
G36*
G01*
X133332400Y-60860250D02*
X133332400Y-60297750D01*
G75*
G02*
X133576150Y-60054000I243750J0D01*
G01*
X134063650Y-60054000D01*
G75*
G02*
X134307400Y-60297750I0J-243750D01*
G01*
X134307400Y-60860250D01*
G75*
G02*
X134063650Y-61104000I-243750J0D01*
G01*
X133576150Y-61104000D01*
G75*
G02*
X133332400Y-60860250I0J243750D01*
G01*
G37*
G36*
G01*
X153341650Y-73715700D02*
X152779150Y-73715700D01*
G75*
G02*
X152535400Y-73471950I0J243750D01*
G01*
X152535400Y-72984450D01*
G75*
G02*
X152779150Y-72740700I243750J0D01*
G01*
X153341650Y-72740700D01*
G75*
G02*
X153585400Y-72984450I0J-243750D01*
G01*
X153585400Y-73471950D01*
G75*
G02*
X153341650Y-73715700I-243750J0D01*
G01*
G37*
G36*
G01*
X153341650Y-75290700D02*
X152779150Y-75290700D01*
G75*
G02*
X152535400Y-75046950I0J243750D01*
G01*
X152535400Y-74559450D01*
G75*
G02*
X152779150Y-74315700I243750J0D01*
G01*
X153341650Y-74315700D01*
G75*
G02*
X153585400Y-74559450I0J-243750D01*
G01*
X153585400Y-75046950D01*
G75*
G02*
X153341650Y-75290700I-243750J0D01*
G01*
G37*
G36*
G01*
X131074850Y-58389800D02*
X131637350Y-58389800D01*
G75*
G02*
X131881100Y-58633550I0J-243750D01*
G01*
X131881100Y-59121050D01*
G75*
G02*
X131637350Y-59364800I-243750J0D01*
G01*
X131074850Y-59364800D01*
G75*
G02*
X130831100Y-59121050I0J243750D01*
G01*
X130831100Y-58633550D01*
G75*
G02*
X131074850Y-58389800I243750J0D01*
G01*
G37*
G36*
G01*
X131074850Y-56814800D02*
X131637350Y-56814800D01*
G75*
G02*
X131881100Y-57058550I0J-243750D01*
G01*
X131881100Y-57546050D01*
G75*
G02*
X131637350Y-57789800I-243750J0D01*
G01*
X131074850Y-57789800D01*
G75*
G02*
X130831100Y-57546050I0J243750D01*
G01*
X130831100Y-57058550D01*
G75*
G02*
X131074850Y-56814800I243750J0D01*
G01*
G37*
G36*
G01*
X113311250Y-78490800D02*
X112748750Y-78490800D01*
G75*
G02*
X112505000Y-78247050I0J243750D01*
G01*
X112505000Y-77759550D01*
G75*
G02*
X112748750Y-77515800I243750J0D01*
G01*
X113311250Y-77515800D01*
G75*
G02*
X113555000Y-77759550I0J-243750D01*
G01*
X113555000Y-78247050D01*
G75*
G02*
X113311250Y-78490800I-243750J0D01*
G01*
G37*
G36*
G01*
X113311250Y-80065800D02*
X112748750Y-80065800D01*
G75*
G02*
X112505000Y-79822050I0J243750D01*
G01*
X112505000Y-79334550D01*
G75*
G02*
X112748750Y-79090800I243750J0D01*
G01*
X113311250Y-79090800D01*
G75*
G02*
X113555000Y-79334550I0J-243750D01*
G01*
X113555000Y-79822050D01*
G75*
G02*
X113311250Y-80065800I-243750J0D01*
G01*
G37*
G36*
G01*
X120648150Y-64498400D02*
X121210650Y-64498400D01*
G75*
G02*
X121454400Y-64742150I0J-243750D01*
G01*
X121454400Y-65229650D01*
G75*
G02*
X121210650Y-65473400I-243750J0D01*
G01*
X120648150Y-65473400D01*
G75*
G02*
X120404400Y-65229650I0J243750D01*
G01*
X120404400Y-64742150D01*
G75*
G02*
X120648150Y-64498400I243750J0D01*
G01*
G37*
G36*
G01*
X120648150Y-62923400D02*
X121210650Y-62923400D01*
G75*
G02*
X121454400Y-63167150I0J-243750D01*
G01*
X121454400Y-63654650D01*
G75*
G02*
X121210650Y-63898400I-243750J0D01*
G01*
X120648150Y-63898400D01*
G75*
G02*
X120404400Y-63654650I0J243750D01*
G01*
X120404400Y-63167150D01*
G75*
G02*
X120648150Y-62923400I243750J0D01*
G01*
G37*
G36*
G01*
X151490400Y-60297750D02*
X151490400Y-60860250D01*
G75*
G02*
X151246650Y-61104000I-243750J0D01*
G01*
X150759150Y-61104000D01*
G75*
G02*
X150515400Y-60860250I0J243750D01*
G01*
X150515400Y-60297750D01*
G75*
G02*
X150759150Y-60054000I243750J0D01*
G01*
X151246650Y-60054000D01*
G75*
G02*
X151490400Y-60297750I0J-243750D01*
G01*
G37*
G36*
G01*
X153065400Y-60297750D02*
X153065400Y-60860250D01*
G75*
G02*
X152821650Y-61104000I-243750J0D01*
G01*
X152334150Y-61104000D01*
G75*
G02*
X152090400Y-60860250I0J243750D01*
G01*
X152090400Y-60297750D01*
G75*
G02*
X152334150Y-60054000I243750J0D01*
G01*
X152821650Y-60054000D01*
G75*
G02*
X153065400Y-60297750I0J-243750D01*
G01*
G37*
G36*
G01*
X137329800Y-60297750D02*
X137329800Y-60860250D01*
G75*
G02*
X137086050Y-61104000I-243750J0D01*
G01*
X136598550Y-61104000D01*
G75*
G02*
X136354800Y-60860250I0J243750D01*
G01*
X136354800Y-60297750D01*
G75*
G02*
X136598550Y-60054000I243750J0D01*
G01*
X137086050Y-60054000D01*
G75*
G02*
X137329800Y-60297750I0J-243750D01*
G01*
G37*
G36*
G01*
X138904800Y-60297750D02*
X138904800Y-60860250D01*
G75*
G02*
X138661050Y-61104000I-243750J0D01*
G01*
X138173550Y-61104000D01*
G75*
G02*
X137929800Y-60860250I0J243750D01*
G01*
X137929800Y-60297750D01*
G75*
G02*
X138173550Y-60054000I243750J0D01*
G01*
X138661050Y-60054000D01*
G75*
G02*
X138904800Y-60297750I0J-243750D01*
G01*
G37*
M02*
